<?xml version="1.0" standalone="no"?><!-- Generator: Gravit.io --><svg xmlns="http://www.w3.org/2000/svg" xmlns:xlink="http://www.w3.org/1999/xlink" style="isolation:isolate" viewBox="390 230.94 220 537.415" width="220" height="537.415"><g id="att-body"><path d=" M 403.653 308.105 L 490 357.957 L 510 346.41 L 530 357.957 L 610 311.769 L 590 300.222 L 610 288.675 L 510 230.94 L 490 242.487 L 470 230.94 L 390 277.128 L 410 288.675 L 390 300.222 L 403.653 308.105 Z " fill="rgb(232,232,232)"/><path d=" M 490 357.957 L 490 768.355 L 510 756.329 L 510 346.41 L 490 357.957 Z " fill="rgb(209,209,209)"/><path d=" M 510 756.329 L 530 768.355 L 530 357.957 L 510 346.41 L 510 756.329 Z " fill="rgb(185,185,185)"/><path d=" M 610 311.769 L 610 722.167 L 530 768.355 L 530 767.346 L 530 357.957 L 610 311.769 Z " fill="rgb(209,209,209)"/><path d=" M 390 300.222 L 390 710.62 L 490 768.355 L 490 768.013 L 490 357.957 L 390 300.222 Z " fill="rgb(185,185,185)"/><path d=" M 610 288.675 L 610 311.769 L 590 300.222 L 610 288.675 Z " fill="rgb(209,209,209)"/><path d=" M 390 300.222 L 410 288.675 L 390 277.128 L 390 300.222 Z " fill="rgb(162,162,162)"/><g id="body-windows-right"><path d=" M 535 748.147 L 535 753.921 L 545 748.147 L 545 742.374 L 535 748.147 Z " fill="rgb(0,0,0)"/><path d=" M 550 739.487 L 550 745.261 L 560 739.487 L 560 733.714 L 550 739.487 Z " fill="rgb(0,0,0)"/><path d=" M 565 730.827 L 565 736.6 L 575 730.827 L 575 725.053 L 565 730.827 Z " fill="rgb(0,0,0)"/><path d=" M 580 722.167 L 580 727.94 L 590 722.167 L 590 716.393 L 580 722.167 Z " fill="rgb(0,0,0)"/><path d=" M 595 713.506 L 595 719.28 L 605 713.506 L 605 707.733 L 595 713.506 Z " fill="rgb(0,0,0)"/><path d=" M 535 647.63 L 535 653.403 L 545 647.63 L 545 641.856 L 535 647.63 Z " fill="rgb(0,0,0)"/><path d=" M 550 638.969 L 550 644.743 L 560 638.969 L 560 633.196 L 550 638.969 Z " fill="rgb(0,0,0)"/><path d=" M 565 630.309 L 565 636.083 L 575 630.309 L 575 624.536 L 565 630.309 Z " fill="rgb(0,0,0)"/><path d=" M 580 621.649 L 580 627.422 L 590 621.649 L 590 615.875 L 580 621.649 Z " fill="rgb(0,0,0)"/><path d=" M 595 612.989 L 595 618.762 L 605 612.989 L 605 607.215 L 595 612.989 Z " fill="rgb(0,0,0)"/><path d=" M 535 460.954 L 535 466.727 L 545 460.954 L 545 455.18 L 535 460.954 Z " fill="rgb(0,0,0)"/><path d=" M 550 452.293 L 550 458.067 L 560 452.293 L 560 446.52 L 550 452.293 Z " fill="rgb(0,0,0)"/><path d=" M 565 443.633 L 565 449.407 L 575 443.633 L 575 437.86 L 565 443.633 Z " fill="rgb(0,0,0)"/><path d=" M 580 434.973 L 580 440.746 L 590 434.973 L 590 429.199 L 580 434.973 Z " fill="rgb(0,0,0)"/><path d=" M 595 426.313 L 595 432.086 L 605 426.313 L 605 420.539 L 595 426.313 Z " fill="rgb(0,0,0)"/><path d=" M 535 417.875 L 535 423.648 L 545 417.875 L 545 412.101 L 535 417.875 Z " fill="rgb(0,0,0)"/><path d=" M 550 409.214 L 550 414.988 L 560 409.214 L 560 403.441 L 550 409.214 Z " fill="rgb(0,0,0)"/><path d=" M 565 400.554 L 565 406.328 L 575 400.554 L 575 394.781 L 565 400.554 Z " fill="rgb(0,0,0)"/><path d=" M 580 391.894 L 580 397.667 L 590 391.894 L 590 386.12 L 580 391.894 Z " fill="rgb(0,0,0)"/><path d=" M 595 383.234 L 595 389.007 L 605 383.234 L 605 377.46 L 595 383.234 Z " fill="rgb(0,0,0)"/><path d=" M 535 590.191 L 535 595.964 L 545 590.191 L 545 584.417 L 535 590.191 Z " fill="rgb(0,0,0)"/><path d=" M 550 581.531 L 550 587.304 L 560 581.531 L 560 575.757 L 550 581.531 Z " fill="rgb(0,0,0)"/><path d=" M 565 572.87 L 565 578.644 L 575 572.87 L 575 567.097 L 565 572.87 Z " fill="rgb(0,0,0)"/><path d=" M 580 564.21 L 580 569.984 L 590 564.21 L 590 558.437 L 580 564.21 Z " fill="rgb(0,0,0)"/><path d=" M 595 555.55 L 595 561.323 L 605 555.55 L 605 549.776 L 595 555.55 Z " fill="rgb(0,0,0)"/><path d=" M 535 547.112 L 535 552.885 L 545 547.112 L 545 541.338 L 535 547.112 Z " fill="rgb(0,0,0)"/><path d=" M 550 538.452 L 550 544.225 L 560 538.452 L 560 532.678 L 550 538.452 Z " fill="rgb(0,0,0)"/><path d=" M 565 529.791 L 565 535.565 L 575 529.791 L 575 524.018 L 565 529.791 Z " fill="rgb(0,0,0)"/><path d=" M 580 521.131 L 580 526.905 L 590 521.131 L 590 515.358 L 580 521.131 Z " fill="rgb(0,0,0)"/><path d=" M 595 512.471 L 595 518.244 L 605 512.471 L 605 506.697 L 595 512.471 Z " fill="rgb(0,0,0)"/><path d=" M 535 561.471 L 535 567.245 L 545 561.471 L 545 555.698 L 535 561.471 Z " fill="rgb(0,0,0)"/><path d=" M 550 552.811 L 550 558.585 L 560 552.811 L 560 547.038 L 550 552.811 Z " fill="rgb(0,0,0)"/><path d=" M 565 544.151 L 565 549.924 L 575 544.151 L 575 538.377 L 565 544.151 Z " fill="rgb(0,0,0)"/><path d=" M 580 535.491 L 580 541.264 L 590 535.491 L 590 529.717 L 580 535.491 Z " fill="rgb(0,0,0)"/><path d=" M 595 526.83 L 595 532.604 L 605 526.83 L 605 521.057 L 595 526.83 Z " fill="rgb(0,0,0)"/><path d=" M 535 532.752 L 535 538.526 L 545 532.752 L 545 526.979 L 535 532.752 Z " fill="rgb(0,0,0)"/><path d=" M 550 524.092 L 550 529.865 L 560 524.092 L 560 518.318 L 550 524.092 Z " fill="rgb(0,0,0)"/><path d=" M 565 515.432 L 565 521.205 L 575 515.432 L 575 509.658 L 565 515.432 Z " fill="rgb(0,0,0)"/><path d=" M 580 506.771 L 580 512.545 L 590 506.771 L 590 500.998 L 580 506.771 Z " fill="rgb(0,0,0)"/><path d=" M 595 498.111 L 595 503.885 L 605 498.111 L 605 492.338 L 595 498.111 Z " fill="rgb(0,0,0)"/><path d=" M 535 489.673 L 535 495.447 L 545 489.673 L 545 483.9 L 535 489.673 Z " fill="rgb(0,0,0)"/><path d=" M 550 481.013 L 550 486.786 L 560 481.013 L 560 475.239 L 550 481.013 Z " fill="rgb(0,0,0)"/><path d=" M 565 472.353 L 565 478.126 L 575 472.353 L 575 466.579 L 565 472.353 Z " fill="rgb(0,0,0)"/><path d=" M 580 463.692 L 580 469.466 L 590 463.692 L 590 457.919 L 580 463.692 Z " fill="rgb(0,0,0)"/><path d=" M 595 455.032 L 595 460.806 L 605 455.032 L 605 449.259 L 595 455.032 Z " fill="rgb(0,0,0)"/><path d=" M 535 518.392 L 535 524.166 L 545 518.392 L 545 512.619 L 535 518.392 Z " fill="rgb(0,0,0)"/><path d=" M 550 509.732 L 550 515.506 L 560 509.732 L 560 503.959 L 550 509.732 Z " fill="rgb(0,0,0)"/><path d=" M 565 501.072 L 565 506.845 L 575 501.072 L 575 495.298 L 565 501.072 Z " fill="rgb(0,0,0)"/><path d=" M 580 492.412 L 580 498.185 L 590 492.412 L 590 486.638 L 580 492.412 Z " fill="rgb(0,0,0)"/><path d=" M 595 483.751 L 595 489.525 L 605 483.751 L 605 477.978 L 595 483.751 Z " fill="rgb(0,0,0)"/><path d=" M 535 661.989 L 535 667.763 L 545 661.989 L 545 656.216 L 535 661.989 Z " fill="rgb(0,0,0)"/><path d=" M 550 653.329 L 550 659.103 L 560 653.329 L 560 647.556 L 550 653.329 Z " fill="rgb(0,0,0)"/><path d=" M 565 644.669 L 565 650.442 L 575 644.669 L 575 638.895 L 565 644.669 Z " fill="rgb(0,0,0)"/><path d=" M 580 636.009 L 580 641.782 L 590 636.009 L 590 630.235 L 580 636.009 Z " fill="rgb(0,0,0)"/><path d=" M 595 627.348 L 595 633.122 L 605 627.348 L 605 621.575 L 595 627.348 Z " fill="rgb(0,0,0)"/><path d=" M 535 633.27 L 535 639.043 L 545 633.27 L 545 627.496 L 535 633.27 Z " fill="rgb(0,0,0)"/><path d=" M 550 624.61 L 550 630.383 L 560 624.61 L 560 618.836 L 550 624.61 Z " fill="rgb(0,0,0)"/><path d=" M 565 615.949 L 565 621.723 L 575 615.949 L 575 610.176 L 565 615.949 Z " fill="rgb(0,0,0)"/><path d=" M 580 607.289 L 580 613.063 L 590 607.289 L 590 601.516 L 580 607.289 Z " fill="rgb(0,0,0)"/><path d=" M 595 598.629 L 595 604.402 L 605 598.629 L 605 592.855 L 595 598.629 Z " fill="rgb(0,0,0)"/><path d=" M 535 389.155 L 535 394.929 L 545 389.155 L 545 383.382 L 535 389.155 Z " fill="rgb(0,0,0)"/><path d=" M 550 380.495 L 550 386.269 L 560 380.495 L 560 374.722 L 550 380.495 Z " fill="rgb(0,0,0)"/><path d=" M 565 371.835 L 565 377.608 L 575 371.835 L 575 366.061 L 565 371.835 Z " fill="rgb(0,0,0)"/><path d=" M 580 363.175 L 580 368.948 L 590 363.175 L 590 357.401 L 580 363.175 Z " fill="rgb(0,0,0)"/><path d=" M 595 354.514 L 595 360.288 L 605 354.514 L 605 348.741 L 595 354.514 Z " fill="rgb(0,0,0)"/><path d=" M 535 618.91 L 535 624.684 L 545 618.91 L 545 613.137 L 535 618.91 Z " fill="rgb(0,0,0)"/><path d=" M 550 610.25 L 550 616.023 L 560 610.25 L 560 604.476 L 550 610.25 Z " fill="rgb(0,0,0)"/><path d=" M 565 601.59 L 565 607.363 L 575 601.59 L 575 595.816 L 565 601.59 Z " fill="rgb(0,0,0)"/><path d=" M 580 592.929 L 580 598.703 L 590 592.929 L 590 587.156 L 580 592.929 Z " fill="rgb(0,0,0)"/><path d=" M 595 584.269 L 595 590.043 L 605 584.269 L 605 578.496 L 595 584.269 Z " fill="rgb(0,0,0)"/><path d=" M 535 360.436 L 535 366.209 L 545 360.436 L 545 354.662 L 535 360.436 Z " fill="rgb(0,0,0)"/><path d=" M 550 351.776 L 550 357.549 L 560 351.776 L 560 346.002 L 550 351.776 Z " fill="rgb(0,0,0)"/><path d=" M 565 343.115 L 565 348.889 L 575 343.115 L 575 337.342 L 565 343.115 Z " fill="rgb(0,0,0)"/><path d=" M 580 334.455 L 580 340.229 L 590 334.455 L 590 328.682 L 580 334.455 Z " fill="rgb(0,0,0)"/><path d=" M 595 325.795 L 595 331.568 L 605 325.795 L 605 320.021 L 595 325.795 Z " fill="rgb(0,0,0)"/><path d=" M 535 403.515 L 535 409.288 L 545 403.515 L 545 397.741 L 535 403.515 Z " fill="rgb(0,0,0)"/><path d=" M 550 394.855 L 550 400.628 L 560 394.855 L 560 389.081 L 550 394.855 Z " fill="rgb(0,0,0)"/><path d=" M 565 386.194 L 565 391.968 L 575 386.194 L 575 380.421 L 565 386.194 Z " fill="rgb(0,0,0)"/><path d=" M 580 377.534 L 580 383.308 L 590 377.534 L 590 371.761 L 580 377.534 Z " fill="rgb(0,0,0)"/><path d=" M 595 368.874 L 595 374.647 L 605 368.874 L 605 363.1 L 595 368.874 Z " fill="rgb(0,0,0)"/><path d=" M 535 446.594 L 535 452.368 L 545 446.594 L 545 440.821 L 535 446.594 Z " fill="rgb(0,0,0)"/><path d=" M 550 437.934 L 550 443.707 L 560 437.934 L 560 432.16 L 550 437.934 Z " fill="rgb(0,0,0)"/><path d=" M 565 429.274 L 565 435.047 L 575 429.274 L 575 423.5 L 565 429.274 Z " fill="rgb(0,0,0)"/><path d=" M 580 420.613 L 580 426.387 L 590 420.613 L 590 414.84 L 580 420.613 Z " fill="rgb(0,0,0)"/><path d=" M 595 411.953 L 595 417.727 L 605 411.953 L 605 406.18 L 595 411.953 Z " fill="rgb(0,0,0)"/><path d=" M 535 432.234 L 535 438.008 L 545 432.234 L 545 426.461 L 535 432.234 Z " fill="rgb(0,0,0)"/><path d=" M 550 423.574 L 550 429.348 L 560 423.574 L 560 417.801 L 550 423.574 Z " fill="rgb(0,0,0)"/><path d=" M 565 414.914 L 565 420.687 L 575 414.914 L 575 409.14 L 565 414.914 Z " fill="rgb(0,0,0)"/><path d=" M 580 406.254 L 580 412.027 L 590 406.254 L 590 400.48 L 580 406.254 Z " fill="rgb(0,0,0)"/><path d=" M 595 397.593 L 595 403.367 L 605 397.593 L 605 391.82 L 595 397.593 Z " fill="rgb(0,0,0)"/><path d=" M 535 475.313 L 535 481.087 L 545 475.313 L 545 469.54 L 535 475.313 Z " fill="rgb(0,0,0)"/><path d=" M 550 466.653 L 550 472.427 L 560 466.653 L 560 460.88 L 550 466.653 Z " fill="rgb(0,0,0)"/><path d=" M 565 457.993 L 565 463.766 L 575 457.993 L 575 452.219 L 565 457.993 Z " fill="rgb(0,0,0)"/><path d=" M 580 449.333 L 580 455.106 L 590 449.333 L 590 443.559 L 580 449.333 Z " fill="rgb(0,0,0)"/><path d=" M 595 440.672 L 595 446.446 L 605 440.672 L 605 434.899 L 595 440.672 Z " fill="rgb(0,0,0)"/><path d=" M 535 504.033 L 535 509.806 L 545 504.033 L 545 498.259 L 535 504.033 Z " fill="rgb(0,0,0)"/><path d=" M 550 495.373 L 550 501.146 L 560 495.373 L 560 489.599 L 550 495.373 Z " fill="rgb(0,0,0)"/><path d=" M 565 486.712 L 565 492.486 L 575 486.712 L 575 480.939 L 565 486.712 Z " fill="rgb(0,0,0)"/><path d=" M 580 478.052 L 580 483.826 L 590 478.052 L 590 472.279 L 580 478.052 Z " fill="rgb(0,0,0)"/><path d=" M 595 469.392 L 595 475.165 L 605 469.392 L 605 463.618 L 595 469.392 Z " fill="rgb(0,0,0)"/><path d=" M 535 676.349 L 535 682.122 L 545 676.349 L 545 670.575 L 535 676.349 Z " fill="rgb(0,0,0)"/><path d=" M 550 667.689 L 550 673.462 L 560 667.689 L 560 661.915 L 550 667.689 Z " fill="rgb(0,0,0)"/><path d=" M 565 659.028 L 565 664.802 L 575 659.028 L 575 653.255 L 565 659.028 Z " fill="rgb(0,0,0)"/><path d=" M 580 650.368 L 580 656.142 L 590 650.368 L 590 644.595 L 580 650.368 Z " fill="rgb(0,0,0)"/><path d=" M 595 641.708 L 595 647.481 L 605 641.708 L 605 635.934 L 595 641.708 Z " fill="rgb(0,0,0)"/><path d=" M 535 575.831 L 535 581.605 L 545 575.831 L 545 570.058 L 535 575.831 Z " fill="rgb(0,0,0)"/><path d=" M 550 567.171 L 550 572.944 L 560 567.171 L 560 561.397 L 550 567.171 Z " fill="rgb(0,0,0)"/><path d=" M 565 558.511 L 565 564.284 L 575 558.511 L 575 552.737 L 565 558.511 Z " fill="rgb(0,0,0)"/><path d=" M 580 549.85 L 580 555.624 L 590 549.85 L 590 544.077 L 580 549.85 Z " fill="rgb(0,0,0)"/><path d=" M 595 541.19 L 595 546.964 L 605 541.19 L 605 535.417 L 595 541.19 Z " fill="rgb(0,0,0)"/><path d=" M 535 604.551 L 535 610.324 L 545 604.551 L 545 598.777 L 535 604.551 Z " fill="rgb(0,0,0)"/><path d=" M 550 595.89 L 550 601.664 L 560 595.89 L 560 590.117 L 550 595.89 Z " fill="rgb(0,0,0)"/><path d=" M 565 587.23 L 565 593.004 L 575 587.23 L 575 581.457 L 565 587.23 Z " fill="rgb(0,0,0)"/><path d=" M 580 578.57 L 580 584.343 L 590 578.57 L 590 572.796 L 580 578.57 Z " fill="rgb(0,0,0)"/><path d=" M 595 569.91 L 595 575.683 L 605 569.91 L 605 564.136 L 595 569.91 Z " fill="rgb(0,0,0)"/><path d=" M 535 690.709 L 535 696.482 L 545 690.709 L 545 684.935 L 535 690.709 Z " fill="rgb(0,0,0)"/><path d=" M 550 682.048 L 550 687.822 L 560 682.048 L 560 676.275 L 550 682.048 Z " fill="rgb(0,0,0)"/><path d=" M 565 673.388 L 565 679.162 L 575 673.388 L 575 667.615 L 565 673.388 Z " fill="rgb(0,0,0)"/><path d=" M 580 664.728 L 580 670.501 L 590 664.728 L 590 658.954 L 580 664.728 Z " fill="rgb(0,0,0)"/><path d=" M 595 656.068 L 595 661.841 L 605 656.068 L 605 650.294 L 595 656.068 Z " fill="rgb(0,0,0)"/><path d=" M 535 705.068 L 535 710.842 L 545 705.068 L 545 699.295 L 535 705.068 Z " fill="rgb(0,0,0)"/><path d=" M 550 696.408 L 550 702.182 L 560 696.408 L 560 690.635 L 550 696.408 Z " fill="rgb(0,0,0)"/><path d=" M 565 687.748 L 565 693.521 L 575 687.748 L 575 681.974 L 565 687.748 Z " fill="rgb(0,0,0)"/><path d=" M 580 679.088 L 580 684.861 L 590 679.088 L 590 673.314 L 580 679.088 Z " fill="rgb(0,0,0)"/><path d=" M 595 670.427 L 595 676.201 L 605 670.427 L 605 664.654 L 595 670.427 Z " fill="rgb(0,0,0)"/><path d=" M 535 719.428 L 535 725.202 L 545 719.428 L 545 713.655 L 535 719.428 Z " fill="rgb(0,0,0)"/><path d=" M 550 710.768 L 550 716.541 L 560 710.768 L 560 704.994 L 550 710.768 Z " fill="rgb(0,0,0)"/><path d=" M 565 702.107 L 565 707.881 L 575 702.107 L 575 696.334 L 565 702.107 Z " fill="rgb(0,0,0)"/><path d=" M 580 693.447 L 580 699.221 L 590 693.447 L 590 687.674 L 580 693.447 Z " fill="rgb(0,0,0)"/><path d=" M 595 684.787 L 595 690.56 L 605 684.787 L 605 679.013 L 595 684.787 Z " fill="rgb(0,0,0)"/><path d=" M 535 733.788 L 535 739.561 L 545 733.788 L 545 728.014 L 535 733.788 Z " fill="rgb(0,0,0)"/><path d=" M 550 725.127 L 550 730.901 L 560 725.127 L 560 719.354 L 550 725.127 Z " fill="rgb(0,0,0)"/><path d=" M 565 716.467 L 565 722.241 L 575 716.467 L 575 710.694 L 565 716.467 Z " fill="rgb(0,0,0)"/><path d=" M 580 707.807 L 580 713.58 L 590 707.807 L 590 702.033 L 580 707.807 Z " fill="rgb(0,0,0)"/><path d=" M 595 699.147 L 595 704.92 L 605 699.147 L 605 693.373 L 595 699.147 Z " fill="rgb(0,0,0)"/><path d=" M 535 374.796 L 535 380.569 L 545 374.796 L 545 369.022 L 535 374.796 Z " fill="rgb(0,0,0)"/><path d=" M 550 366.135 L 550 371.909 L 560 366.135 L 560 360.362 L 550 366.135 Z " fill="rgb(0,0,0)"/><path d=" M 565 357.475 L 565 363.249 L 575 357.475 L 575 351.702 L 565 357.475 Z " fill="rgb(0,0,0)"/><path d=" M 580 348.815 L 580 354.588 L 590 348.815 L 590 343.041 L 580 348.815 Z " fill="rgb(0,0,0)"/><path d=" M 595 340.155 L 595 345.928 L 605 340.155 L 605 334.381 L 595 340.155 Z " fill="rgb(0,0,0)"/></g><g id="body-windows-left"><path d=" M 482.5 748.147 L 482.5 753.921 L 472.5 748.147 L 472.5 742.374 L 482.5 748.147 Z " fill="rgb(0,0,0)"/><path d=" M 467.5 739.487 L 467.5 745.261 L 457.5 739.487 L 457.5 733.714 L 467.5 739.487 Z " fill="rgb(0,0,0)"/><path d=" M 452.5 730.827 L 452.5 736.6 L 442.5 730.827 L 442.5 725.053 L 452.5 730.827 Z " fill="rgb(0,0,0)"/><path d=" M 437.5 722.167 L 437.5 727.94 L 427.5 722.167 L 427.5 716.393 L 437.5 722.167 Z " fill="rgb(0,0,0)"/><path d=" M 422.5 713.506 L 422.5 719.28 L 412.5 713.506 L 412.5 707.733 L 422.5 713.506 Z " fill="rgb(0,0,0)"/><path d=" M 482.5 647.63 L 482.5 653.403 L 472.5 647.63 L 472.5 641.856 L 482.5 647.63 Z " fill="rgb(0,0,0)"/><path d=" M 467.5 638.969 L 467.5 644.743 L 457.5 638.969 L 457.5 633.196 L 467.5 638.969 Z " fill="rgb(0,0,0)"/><path d=" M 452.5 630.309 L 452.5 636.083 L 442.5 630.309 L 442.5 624.536 L 452.5 630.309 Z " fill="rgb(0,0,0)"/><path d=" M 437.5 621.649 L 437.5 627.422 L 427.5 621.649 L 427.5 615.875 L 437.5 621.649 Z " fill="rgb(0,0,0)"/><path d=" M 422.5 612.989 L 422.5 618.762 L 412.5 612.989 L 412.5 607.215 L 422.5 612.989 Z " fill="rgb(0,0,0)"/><path d=" M 482.5 460.954 L 482.5 466.727 L 472.5 460.954 L 472.5 455.18 L 482.5 460.954 Z " fill="rgb(0,0,0)"/><path d=" M 467.5 452.293 L 467.5 458.067 L 457.5 452.293 L 457.5 446.52 L 467.5 452.293 Z " fill="rgb(0,0,0)"/><path d=" M 452.5 443.633 L 452.5 449.407 L 442.5 443.633 L 442.5 437.86 L 452.5 443.633 Z " fill="rgb(0,0,0)"/><path d=" M 437.5 434.973 L 437.5 440.746 L 427.5 434.973 L 427.5 429.199 L 437.5 434.973 Z " fill="rgb(0,0,0)"/><path d=" M 422.5 426.313 L 422.5 432.086 L 412.5 426.313 L 412.5 420.539 L 422.5 426.313 Z " fill="rgb(0,0,0)"/><path d=" M 482.5 417.875 L 482.5 423.648 L 472.5 417.875 L 472.5 412.101 L 482.5 417.875 Z " fill="rgb(0,0,0)"/><path d=" M 467.5 409.214 L 467.5 414.988 L 457.5 409.214 L 457.5 403.441 L 467.5 409.214 Z " fill="rgb(0,0,0)"/><path d=" M 452.5 400.554 L 452.5 406.328 L 442.5 400.554 L 442.5 394.781 L 452.5 400.554 Z " fill="rgb(0,0,0)"/><path d=" M 437.5 391.894 L 437.5 397.667 L 427.5 391.894 L 427.5 386.12 L 437.5 391.894 Z " fill="rgb(0,0,0)"/><path d=" M 422.5 383.234 L 422.5 389.007 L 412.5 383.234 L 412.5 377.46 L 422.5 383.234 Z " fill="rgb(0,0,0)"/><path d=" M 482.5 590.191 L 482.5 595.964 L 472.5 590.191 L 472.5 584.417 L 482.5 590.191 Z " fill="rgb(0,0,0)"/><path d=" M 467.5 581.531 L 467.5 587.304 L 457.5 581.531 L 457.5 575.757 L 467.5 581.531 Z " fill="rgb(0,0,0)"/><path d=" M 452.5 572.87 L 452.5 578.644 L 442.5 572.87 L 442.5 567.097 L 452.5 572.87 Z " fill="rgb(0,0,0)"/><path d=" M 437.5 564.21 L 437.5 569.984 L 427.5 564.21 L 427.5 558.437 L 437.5 564.21 Z " fill="rgb(0,0,0)"/><path d=" M 422.5 555.55 L 422.5 561.323 L 412.5 555.55 L 412.5 549.776 L 422.5 555.55 Z " fill="rgb(0,0,0)"/><path d=" M 482.5 547.112 L 482.5 552.885 L 472.5 547.112 L 472.5 541.338 L 482.5 547.112 Z " fill="rgb(0,0,0)"/><path d=" M 467.5 538.452 L 467.5 544.225 L 457.5 538.452 L 457.5 532.678 L 467.5 538.452 Z " fill="rgb(0,0,0)"/><path d=" M 452.5 529.791 L 452.5 535.565 L 442.5 529.791 L 442.5 524.018 L 452.5 529.791 Z " fill="rgb(0,0,0)"/><path d=" M 437.5 521.131 L 437.5 526.905 L 427.5 521.131 L 427.5 515.358 L 437.5 521.131 Z " fill="rgb(0,0,0)"/><path d=" M 422.5 512.471 L 422.5 518.244 L 412.5 512.471 L 412.5 506.697 L 422.5 512.471 Z " fill="rgb(0,0,0)"/><path d=" M 482.5 561.471 L 482.5 567.245 L 472.5 561.471 L 472.5 555.698 L 482.5 561.471 Z " fill="rgb(0,0,0)"/><path d=" M 467.5 552.811 L 467.5 558.585 L 457.5 552.811 L 457.5 547.038 L 467.5 552.811 Z " fill="rgb(0,0,0)"/><path d=" M 452.5 544.151 L 452.5 549.924 L 442.5 544.151 L 442.5 538.377 L 452.5 544.151 Z " fill="rgb(0,0,0)"/><path d=" M 437.5 535.491 L 437.5 541.264 L 427.5 535.491 L 427.5 529.717 L 437.5 535.491 Z " fill="rgb(0,0,0)"/><path d=" M 422.5 526.83 L 422.5 532.604 L 412.5 526.83 L 412.5 521.057 L 422.5 526.83 Z " fill="rgb(0,0,0)"/><path d=" M 482.5 532.752 L 482.5 538.526 L 472.5 532.752 L 472.5 526.979 L 482.5 532.752 Z " fill="rgb(0,0,0)"/><path d=" M 467.5 524.092 L 467.5 529.865 L 457.5 524.092 L 457.5 518.318 L 467.5 524.092 Z " fill="rgb(0,0,0)"/><path d=" M 452.5 515.432 L 452.5 521.205 L 442.5 515.432 L 442.5 509.658 L 452.5 515.432 Z " fill="rgb(0,0,0)"/><path d=" M 437.5 506.771 L 437.5 512.545 L 427.5 506.771 L 427.5 500.998 L 437.5 506.771 Z " fill="rgb(0,0,0)"/><path d=" M 422.5 498.111 L 422.5 503.885 L 412.5 498.111 L 412.5 492.338 L 422.5 498.111 Z " fill="rgb(0,0,0)"/><path d=" M 482.5 489.673 L 482.5 495.447 L 472.5 489.673 L 472.5 483.9 L 482.5 489.673 Z " fill="rgb(0,0,0)"/><path d=" M 467.5 481.013 L 467.5 486.786 L 457.5 481.013 L 457.5 475.239 L 467.5 481.013 Z " fill="rgb(0,0,0)"/><path d=" M 452.5 472.353 L 452.5 478.126 L 442.5 472.353 L 442.5 466.579 L 452.5 472.353 Z " fill="rgb(0,0,0)"/><path d=" M 437.5 463.692 L 437.5 469.466 L 427.5 463.692 L 427.5 457.919 L 437.5 463.692 Z " fill="rgb(0,0,0)"/><path d=" M 422.5 455.032 L 422.5 460.806 L 412.5 455.032 L 412.5 449.259 L 422.5 455.032 Z " fill="rgb(0,0,0)"/><path d=" M 482.5 518.392 L 482.5 524.166 L 472.5 518.392 L 472.5 512.619 L 482.5 518.392 Z " fill="rgb(0,0,0)"/><path d=" M 467.5 509.732 L 467.5 515.506 L 457.5 509.732 L 457.5 503.959 L 467.5 509.732 Z " fill="rgb(0,0,0)"/><path d=" M 452.5 501.072 L 452.5 506.845 L 442.5 501.072 L 442.5 495.298 L 452.5 501.072 Z " fill="rgb(0,0,0)"/><path d=" M 437.5 492.412 L 437.5 498.185 L 427.5 492.412 L 427.5 486.638 L 437.5 492.412 Z " fill="rgb(0,0,0)"/><path d=" M 422.5 483.751 L 422.5 489.525 L 412.5 483.751 L 412.5 477.978 L 422.5 483.751 Z " fill="rgb(0,0,0)"/><path d=" M 482.5 661.989 L 482.5 667.763 L 472.5 661.989 L 472.5 656.216 L 482.5 661.989 Z " fill="rgb(0,0,0)"/><path d=" M 467.5 653.329 L 467.5 659.103 L 457.5 653.329 L 457.5 647.556 L 467.5 653.329 Z " fill="rgb(0,0,0)"/><path d=" M 452.5 644.669 L 452.5 650.442 L 442.5 644.669 L 442.5 638.895 L 452.5 644.669 Z " fill="rgb(0,0,0)"/><path d=" M 437.5 636.009 L 437.5 641.782 L 427.5 636.009 L 427.5 630.235 L 437.5 636.009 Z " fill="rgb(0,0,0)"/><path d=" M 422.5 627.348 L 422.5 633.122 L 412.5 627.348 L 412.5 621.575 L 422.5 627.348 Z " fill="rgb(0,0,0)"/><path d=" M 482.5 633.27 L 482.5 639.043 L 472.5 633.27 L 472.5 627.496 L 482.5 633.27 Z " fill="rgb(0,0,0)"/><path d=" M 467.5 624.61 L 467.5 630.383 L 457.5 624.61 L 457.5 618.836 L 467.5 624.61 Z " fill="rgb(0,0,0)"/><path d=" M 452.5 615.949 L 452.5 621.723 L 442.5 615.949 L 442.5 610.176 L 452.5 615.949 Z " fill="rgb(0,0,0)"/><path d=" M 437.5 607.289 L 437.5 613.063 L 427.5 607.289 L 427.5 601.516 L 437.5 607.289 Z " fill="rgb(0,0,0)"/><path d=" M 422.5 598.629 L 422.5 604.402 L 412.5 598.629 L 412.5 592.855 L 422.5 598.629 Z " fill="rgb(0,0,0)"/><path d=" M 482.5 389.155 L 482.5 394.929 L 472.5 389.155 L 472.5 383.382 L 482.5 389.155 Z " fill="rgb(0,0,0)"/><path d=" M 467.5 380.495 L 467.5 386.269 L 457.5 380.495 L 457.5 374.722 L 467.5 380.495 Z " fill="rgb(0,0,0)"/><path d=" M 452.5 371.835 L 452.5 377.608 L 442.5 371.835 L 442.5 366.061 L 452.5 371.835 Z " fill="rgb(0,0,0)"/><path d=" M 437.5 363.175 L 437.5 368.948 L 427.5 363.175 L 427.5 357.401 L 437.5 363.175 Z " fill="rgb(0,0,0)"/><path d=" M 422.5 354.514 L 422.5 360.288 L 412.5 354.514 L 412.5 348.741 L 422.5 354.514 Z " fill="rgb(0,0,0)"/><path d=" M 482.5 618.91 L 482.5 624.684 L 472.5 618.91 L 472.5 613.137 L 482.5 618.91 Z " fill="rgb(0,0,0)"/><path d=" M 467.5 610.25 L 467.5 616.023 L 457.5 610.25 L 457.5 604.476 L 467.5 610.25 Z " fill="rgb(0,0,0)"/><path d=" M 452.5 601.59 L 452.5 607.363 L 442.5 601.59 L 442.5 595.816 L 452.5 601.59 Z " fill="rgb(0,0,0)"/><path d=" M 437.5 592.929 L 437.5 598.703 L 427.5 592.929 L 427.5 587.156 L 437.5 592.929 Z " fill="rgb(0,0,0)"/><path d=" M 422.5 584.269 L 422.5 590.043 L 412.5 584.269 L 412.5 578.496 L 422.5 584.269 Z " fill="rgb(0,0,0)"/><path d=" M 482.5 360.436 L 482.5 366.209 L 472.5 360.436 L 472.5 354.662 L 482.5 360.436 Z " fill="rgb(0,0,0)"/><path d=" M 467.5 351.776 L 467.5 357.549 L 457.5 351.776 L 457.5 346.002 L 467.5 351.776 Z " fill="rgb(0,0,0)"/><path d=" M 452.5 343.115 L 452.5 348.889 L 442.5 343.115 L 442.5 337.342 L 452.5 343.115 Z " fill="rgb(0,0,0)"/><path d=" M 437.5 334.455 L 437.5 340.229 L 427.5 334.455 L 427.5 328.682 L 437.5 334.455 Z " fill="rgb(0,0,0)"/><path d=" M 422.5 325.795 L 422.5 331.568 L 412.5 325.795 L 412.5 320.021 L 422.5 325.795 Z " fill="rgb(0,0,0)"/><path d=" M 482.5 403.515 L 482.5 409.288 L 472.5 403.515 L 472.5 397.741 L 482.5 403.515 Z " fill="rgb(0,0,0)"/><path d=" M 467.5 394.855 L 467.5 400.628 L 457.5 394.855 L 457.5 389.081 L 467.5 394.855 Z " fill="rgb(0,0,0)"/><path d=" M 452.5 386.194 L 452.5 391.968 L 442.5 386.194 L 442.5 380.421 L 452.5 386.194 Z " fill="rgb(0,0,0)"/><path d=" M 437.5 377.534 L 437.5 383.308 L 427.5 377.534 L 427.5 371.761 L 437.5 377.534 Z " fill="rgb(0,0,0)"/><path d=" M 422.5 368.874 L 422.5 374.647 L 412.5 368.874 L 412.5 363.1 L 422.5 368.874 Z " fill="rgb(0,0,0)"/><path d=" M 482.5 446.594 L 482.5 452.368 L 472.5 446.594 L 472.5 440.821 L 482.5 446.594 Z " fill="rgb(0,0,0)"/><path d=" M 467.5 437.934 L 467.5 443.707 L 457.5 437.934 L 457.5 432.16 L 467.5 437.934 Z " fill="rgb(0,0,0)"/><path d=" M 452.5 429.274 L 452.5 435.047 L 442.5 429.274 L 442.5 423.5 L 452.5 429.274 Z " fill="rgb(0,0,0)"/><path d=" M 437.5 420.613 L 437.5 426.387 L 427.5 420.613 L 427.5 414.84 L 437.5 420.613 Z " fill="rgb(0,0,0)"/><path d=" M 422.5 411.953 L 422.5 417.727 L 412.5 411.953 L 412.5 406.18 L 422.5 411.953 Z " fill="rgb(0,0,0)"/><path d=" M 482.5 432.234 L 482.5 438.008 L 472.5 432.234 L 472.5 426.461 L 482.5 432.234 Z " fill="rgb(0,0,0)"/><path d=" M 467.5 423.574 L 467.5 429.348 L 457.5 423.574 L 457.5 417.801 L 467.5 423.574 Z " fill="rgb(0,0,0)"/><path d=" M 452.5 414.914 L 452.5 420.687 L 442.5 414.914 L 442.5 409.14 L 452.5 414.914 Z " fill="rgb(0,0,0)"/><path d=" M 437.5 406.254 L 437.5 412.027 L 427.5 406.254 L 427.5 400.48 L 437.5 406.254 Z " fill="rgb(0,0,0)"/><path d=" M 422.5 397.593 L 422.5 403.367 L 412.5 397.593 L 412.5 391.82 L 422.5 397.593 Z " fill="rgb(0,0,0)"/><path d=" M 482.5 475.313 L 482.5 481.087 L 472.5 475.313 L 472.5 469.54 L 482.5 475.313 Z " fill="rgb(0,0,0)"/><path d=" M 467.5 466.653 L 467.5 472.427 L 457.5 466.653 L 457.5 460.88 L 467.5 466.653 Z " fill="rgb(0,0,0)"/><path d=" M 452.5 457.993 L 452.5 463.766 L 442.5 457.993 L 442.5 452.219 L 452.5 457.993 Z " fill="rgb(0,0,0)"/><path d=" M 437.5 449.333 L 437.5 455.106 L 427.5 449.333 L 427.5 443.559 L 437.5 449.333 Z " fill="rgb(0,0,0)"/><path d=" M 422.5 440.672 L 422.5 446.446 L 412.5 440.672 L 412.5 434.899 L 422.5 440.672 Z " fill="rgb(0,0,0)"/><path d=" M 482.5 504.033 L 482.5 509.806 L 472.5 504.033 L 472.5 498.259 L 482.5 504.033 Z " fill="rgb(0,0,0)"/><path d=" M 467.5 495.373 L 467.5 501.146 L 457.5 495.373 L 457.5 489.599 L 467.5 495.373 Z " fill="rgb(0,0,0)"/><path d=" M 452.5 486.712 L 452.5 492.486 L 442.5 486.712 L 442.5 480.939 L 452.5 486.712 Z " fill="rgb(0,0,0)"/><path d=" M 437.5 478.052 L 437.5 483.826 L 427.5 478.052 L 427.5 472.279 L 437.5 478.052 Z " fill="rgb(0,0,0)"/><path d=" M 422.5 469.392 L 422.5 475.165 L 412.5 469.392 L 412.5 463.618 L 422.5 469.392 Z " fill="rgb(0,0,0)"/><path d=" M 482.5 676.349 L 482.5 682.122 L 472.5 676.349 L 472.5 670.575 L 482.5 676.349 Z " fill="rgb(0,0,0)"/><path d=" M 467.5 667.689 L 467.5 673.462 L 457.5 667.689 L 457.5 661.915 L 467.5 667.689 Z " fill="rgb(0,0,0)"/><path d=" M 452.5 659.028 L 452.5 664.802 L 442.5 659.028 L 442.5 653.255 L 452.5 659.028 Z " fill="rgb(0,0,0)"/><path d=" M 437.5 650.368 L 437.5 656.142 L 427.5 650.368 L 427.5 644.595 L 437.5 650.368 Z " fill="rgb(0,0,0)"/><path d=" M 422.5 641.708 L 422.5 647.481 L 412.5 641.708 L 412.5 635.934 L 422.5 641.708 Z " fill="rgb(0,0,0)"/><path d=" M 482.5 575.831 L 482.5 581.605 L 472.5 575.831 L 472.5 570.058 L 482.5 575.831 Z " fill="rgb(0,0,0)"/><path d=" M 467.5 567.171 L 467.5 572.944 L 457.5 567.171 L 457.5 561.397 L 467.5 567.171 Z " fill="rgb(0,0,0)"/><path d=" M 452.5 558.511 L 452.5 564.284 L 442.5 558.511 L 442.5 552.737 L 452.5 558.511 Z " fill="rgb(0,0,0)"/><path d=" M 437.5 549.85 L 437.5 555.624 L 427.5 549.85 L 427.5 544.077 L 437.5 549.85 Z " fill="rgb(0,0,0)"/><path d=" M 422.5 541.19 L 422.5 546.964 L 412.5 541.19 L 412.5 535.417 L 422.5 541.19 Z " fill="rgb(0,0,0)"/><path d=" M 482.5 604.551 L 482.5 610.324 L 472.5 604.551 L 472.5 598.777 L 482.5 604.551 Z " fill="rgb(0,0,0)"/><path d=" M 467.5 595.89 L 467.5 601.664 L 457.5 595.89 L 457.5 590.117 L 467.5 595.89 Z " fill="rgb(0,0,0)"/><path d=" M 452.5 587.23 L 452.5 593.004 L 442.5 587.23 L 442.5 581.457 L 452.5 587.23 Z " fill="rgb(0,0,0)"/><path d=" M 437.5 578.57 L 437.5 584.343 L 427.5 578.57 L 427.5 572.796 L 437.5 578.57 Z " fill="rgb(0,0,0)"/><path d=" M 422.5 569.91 L 422.5 575.683 L 412.5 569.91 L 412.5 564.136 L 422.5 569.91 Z " fill="rgb(0,0,0)"/><path d=" M 482.5 690.709 L 482.5 696.482 L 472.5 690.709 L 472.5 684.935 L 482.5 690.709 Z " fill="rgb(0,0,0)"/><path d=" M 467.5 682.048 L 467.5 687.822 L 457.5 682.048 L 457.5 676.275 L 467.5 682.048 Z " fill="rgb(0,0,0)"/><path d=" M 452.5 673.388 L 452.5 679.162 L 442.5 673.388 L 442.5 667.615 L 452.5 673.388 Z " fill="rgb(0,0,0)"/><path d=" M 437.5 664.728 L 437.5 670.501 L 427.5 664.728 L 427.5 658.954 L 437.5 664.728 Z " fill="rgb(0,0,0)"/><path d=" M 422.5 656.068 L 422.5 661.841 L 412.5 656.068 L 412.5 650.294 L 422.5 656.068 Z " fill="rgb(0,0,0)"/><path d=" M 482.5 705.068 L 482.5 710.842 L 472.5 705.068 L 472.5 699.295 L 482.5 705.068 Z " fill="rgb(0,0,0)"/><path d=" M 467.5 696.408 L 467.5 702.182 L 457.5 696.408 L 457.5 690.635 L 467.5 696.408 Z " fill="rgb(0,0,0)"/><path d=" M 452.5 687.748 L 452.5 693.521 L 442.5 687.748 L 442.5 681.974 L 452.5 687.748 Z " fill="rgb(0,0,0)"/><path d=" M 437.5 679.088 L 437.5 684.861 L 427.5 679.088 L 427.5 673.314 L 437.5 679.088 Z " fill="rgb(0,0,0)"/><path d=" M 422.5 670.427 L 422.5 676.201 L 412.5 670.427 L 412.5 664.654 L 422.5 670.427 Z " fill="rgb(0,0,0)"/><path d=" M 482.5 719.428 L 482.5 725.202 L 472.5 719.428 L 472.5 713.655 L 482.5 719.428 Z " fill="rgb(0,0,0)"/><path d=" M 467.5 710.768 L 467.5 716.541 L 457.5 710.768 L 457.5 704.994 L 467.5 710.768 Z " fill="rgb(0,0,0)"/><path d=" M 452.5 702.107 L 452.5 707.881 L 442.5 702.107 L 442.5 696.334 L 452.5 702.107 Z " fill="rgb(0,0,0)"/><path d=" M 437.5 693.447 L 437.5 699.221 L 427.5 693.447 L 427.5 687.674 L 437.5 693.447 Z " fill="rgb(0,0,0)"/><path d=" M 422.5 684.787 L 422.5 690.56 L 412.5 684.787 L 412.5 679.013 L 422.5 684.787 Z " fill="rgb(0,0,0)"/><path d=" M 482.5 733.788 L 482.5 739.561 L 472.5 733.788 L 472.5 728.014 L 482.5 733.788 Z " fill="rgb(0,0,0)"/><path d=" M 467.5 725.127 L 467.5 730.901 L 457.5 725.127 L 457.5 719.354 L 467.5 725.127 Z " fill="rgb(0,0,0)"/><path d=" M 452.5 716.467 L 452.5 722.241 L 442.5 716.467 L 442.5 710.694 L 452.5 716.467 Z " fill="rgb(0,0,0)"/><path d=" M 437.5 707.807 L 437.5 713.58 L 427.5 707.807 L 427.5 702.033 L 437.5 707.807 Z " fill="rgb(0,0,0)"/><path d=" M 422.5 699.147 L 422.5 704.92 L 412.5 699.147 L 412.5 693.373 L 422.5 699.147 Z " fill="rgb(0,0,0)"/><path d=" M 482.5 374.796 L 482.5 380.569 L 472.5 374.796 L 472.5 369.022 L 482.5 374.796 Z " fill="rgb(0,0,0)"/><path d=" M 467.5 366.135 L 467.5 371.909 L 457.5 366.135 L 457.5 360.362 L 467.5 366.135 Z " fill="rgb(0,0,0)"/><path d=" M 452.5 357.475 L 452.5 363.249 L 442.5 357.475 L 442.5 351.702 L 452.5 357.475 Z " fill="rgb(0,0,0)"/><path d=" M 437.5 348.815 L 437.5 354.588 L 427.5 348.815 L 427.5 343.041 L 437.5 348.815 Z " fill="rgb(0,0,0)"/><path d=" M 422.5 340.155 L 422.5 345.928 L 412.5 340.155 L 412.5 334.381 L 422.5 340.155 Z " fill="rgb(0,0,0)"/><path d=" M 467.5 739.147 L 467.5 744.921 L 457.5 739.147 L 457.5 733.374 L 467.5 739.147 Z " fill="rgb(0,0,0)"/><path d=" M 452.5 730.487 L 452.5 736.261 L 442.5 730.487 L 442.5 724.714 L 452.5 730.487 Z " fill="rgb(0,0,0)"/><path d=" M 437.5 721.827 L 437.5 727.6 L 427.5 721.827 L 427.5 716.053 L 437.5 721.827 Z " fill="rgb(0,0,0)"/><path d=" M 422.5 713.167 L 422.5 718.94 L 412.5 713.167 L 412.5 707.393 L 422.5 713.167 Z " fill="rgb(0,0,0)"/><path d=" M 407.5 704.506 L 407.5 710.28 L 397.5 704.506 L 397.5 698.733 L 407.5 704.506 Z " fill="rgb(0,0,0)"/><path d=" M 467.5 638.63 L 467.5 644.403 L 457.5 638.63 L 457.5 632.856 L 467.5 638.63 Z " fill="rgb(0,0,0)"/><path d=" M 452.5 629.969 L 452.5 635.743 L 442.5 629.969 L 442.5 624.196 L 452.5 629.969 Z " fill="rgb(0,0,0)"/><path d=" M 437.5 621.309 L 437.5 627.083 L 427.5 621.309 L 427.5 615.536 L 437.5 621.309 Z " fill="rgb(0,0,0)"/><path d=" M 422.5 612.649 L 422.5 618.422 L 412.5 612.649 L 412.5 606.875 L 422.5 612.649 Z " fill="rgb(0,0,0)"/><path d=" M 407.5 603.989 L 407.5 609.762 L 397.5 603.989 L 397.5 598.215 L 407.5 603.989 Z " fill="rgb(0,0,0)"/><path d=" M 467.5 451.954 L 467.5 457.727 L 457.5 451.954 L 457.5 446.18 L 467.5 451.954 Z " fill="rgb(0,0,0)"/><path d=" M 452.5 443.293 L 452.5 449.067 L 442.5 443.293 L 442.5 437.52 L 452.5 443.293 Z " fill="rgb(0,0,0)"/><path d=" M 437.5 434.633 L 437.5 440.407 L 427.5 434.633 L 427.5 428.86 L 437.5 434.633 Z " fill="rgb(0,0,0)"/><path d=" M 422.5 425.973 L 422.5 431.746 L 412.5 425.973 L 412.5 420.199 L 422.5 425.973 Z " fill="rgb(0,0,0)"/><path d=" M 407.5 417.313 L 407.5 423.086 L 397.5 417.313 L 397.5 411.539 L 407.5 417.313 Z " fill="rgb(0,0,0)"/><path d=" M 467.5 408.875 L 467.5 414.648 L 457.5 408.875 L 457.5 403.101 L 467.5 408.875 Z " fill="rgb(0,0,0)"/><path d=" M 452.5 400.214 L 452.5 405.988 L 442.5 400.214 L 442.5 394.441 L 452.5 400.214 Z " fill="rgb(0,0,0)"/><path d=" M 437.5 391.554 L 437.5 397.328 L 427.5 391.554 L 427.5 385.781 L 437.5 391.554 Z " fill="rgb(0,0,0)"/><path d=" M 422.5 382.894 L 422.5 388.667 L 412.5 382.894 L 412.5 377.12 L 422.5 382.894 Z " fill="rgb(0,0,0)"/><path d=" M 407.5 374.234 L 407.5 380.007 L 397.5 374.234 L 397.5 368.46 L 407.5 374.234 Z " fill="rgb(0,0,0)"/><path d=" M 467.5 581.191 L 467.5 586.964 L 457.5 581.191 L 457.5 575.417 L 467.5 581.191 Z " fill="rgb(0,0,0)"/><path d=" M 452.5 572.531 L 452.5 578.304 L 442.5 572.531 L 442.5 566.757 L 452.5 572.531 Z " fill="rgb(0,0,0)"/><path d=" M 437.5 563.87 L 437.5 569.644 L 427.5 563.87 L 427.5 558.097 L 437.5 563.87 Z " fill="rgb(0,0,0)"/><path d=" M 422.5 555.21 L 422.5 560.984 L 412.5 555.21 L 412.5 549.437 L 422.5 555.21 Z " fill="rgb(0,0,0)"/><path d=" M 407.5 546.55 L 407.5 552.323 L 397.5 546.55 L 397.5 540.776 L 407.5 546.55 Z " fill="rgb(0,0,0)"/><path d=" M 467.5 538.112 L 467.5 543.885 L 457.5 538.112 L 457.5 532.338 L 467.5 538.112 Z " fill="rgb(0,0,0)"/><path d=" M 452.5 529.452 L 452.5 535.225 L 442.5 529.452 L 442.5 523.678 L 452.5 529.452 Z " fill="rgb(0,0,0)"/><path d=" M 437.5 520.791 L 437.5 526.565 L 427.5 520.791 L 427.5 515.018 L 437.5 520.791 Z " fill="rgb(0,0,0)"/><path d=" M 422.5 512.131 L 422.5 517.905 L 412.5 512.131 L 412.5 506.358 L 422.5 512.131 Z " fill="rgb(0,0,0)"/><path d=" M 407.5 503.471 L 407.5 509.244 L 397.5 503.471 L 397.5 497.697 L 407.5 503.471 Z " fill="rgb(0,0,0)"/><path d=" M 467.5 552.471 L 467.5 558.245 L 457.5 552.471 L 457.5 546.698 L 467.5 552.471 Z " fill="rgb(0,0,0)"/><path d=" M 452.5 543.811 L 452.5 549.585 L 442.5 543.811 L 442.5 538.038 L 452.5 543.811 Z " fill="rgb(0,0,0)"/><path d=" M 437.5 535.151 L 437.5 540.924 L 427.5 535.151 L 427.5 529.377 L 437.5 535.151 Z " fill="rgb(0,0,0)"/><path d=" M 422.5 526.491 L 422.5 532.264 L 412.5 526.491 L 412.5 520.717 L 422.5 526.491 Z " fill="rgb(0,0,0)"/><path d=" M 407.5 517.83 L 407.5 523.604 L 397.5 517.83 L 397.5 512.057 L 407.5 517.83 Z " fill="rgb(0,0,0)"/><path d=" M 467.5 523.752 L 467.5 529.526 L 457.5 523.752 L 457.5 517.979 L 467.5 523.752 Z " fill="rgb(0,0,0)"/><path d=" M 452.5 515.092 L 452.5 520.865 L 442.5 515.092 L 442.5 509.318 L 452.5 515.092 Z " fill="rgb(0,0,0)"/><path d=" M 437.5 506.432 L 437.5 512.205 L 427.5 506.432 L 427.5 500.658 L 437.5 506.432 Z " fill="rgb(0,0,0)"/><path d=" M 422.5 497.771 L 422.5 503.545 L 412.5 497.771 L 412.5 491.998 L 422.5 497.771 Z " fill="rgb(0,0,0)"/><path d=" M 407.5 489.111 L 407.5 494.885 L 397.5 489.111 L 397.5 483.338 L 407.5 489.111 Z " fill="rgb(0,0,0)"/><path d=" M 467.5 480.673 L 467.5 486.447 L 457.5 480.673 L 457.5 474.9 L 467.5 480.673 Z " fill="rgb(0,0,0)"/><path d=" M 452.5 472.013 L 452.5 477.786 L 442.5 472.013 L 442.5 466.239 L 452.5 472.013 Z " fill="rgb(0,0,0)"/><path d=" M 437.5 463.353 L 437.5 469.126 L 427.5 463.353 L 427.5 457.579 L 437.5 463.353 Z " fill="rgb(0,0,0)"/><path d=" M 422.5 454.692 L 422.5 460.466 L 412.5 454.692 L 412.5 448.919 L 422.5 454.692 Z " fill="rgb(0,0,0)"/><path d=" M 407.5 446.032 L 407.5 451.806 L 397.5 446.032 L 397.5 440.259 L 407.5 446.032 Z " fill="rgb(0,0,0)"/><path d=" M 467.5 509.392 L 467.5 515.166 L 457.5 509.392 L 457.5 503.619 L 467.5 509.392 Z " fill="rgb(0,0,0)"/><path d=" M 452.5 500.732 L 452.5 506.506 L 442.5 500.732 L 442.5 494.959 L 452.5 500.732 Z " fill="rgb(0,0,0)"/><path d=" M 437.5 492.072 L 437.5 497.845 L 427.5 492.072 L 427.5 486.298 L 437.5 492.072 Z " fill="rgb(0,0,0)"/><path d=" M 422.5 483.412 L 422.5 489.185 L 412.5 483.412 L 412.5 477.638 L 422.5 483.412 Z " fill="rgb(0,0,0)"/><path d=" M 407.5 474.751 L 407.5 480.525 L 397.5 474.751 L 397.5 468.978 L 407.5 474.751 Z " fill="rgb(0,0,0)"/><path d=" M 467.5 652.989 L 467.5 658.763 L 457.5 652.989 L 457.5 647.216 L 467.5 652.989 Z " fill="rgb(0,0,0)"/><path d=" M 452.5 644.329 L 452.5 650.103 L 442.5 644.329 L 442.5 638.556 L 452.5 644.329 Z " fill="rgb(0,0,0)"/><path d=" M 437.5 635.669 L 437.5 641.442 L 427.5 635.669 L 427.5 629.895 L 437.5 635.669 Z " fill="rgb(0,0,0)"/><path d=" M 422.5 627.009 L 422.5 632.782 L 412.5 627.009 L 412.5 621.235 L 422.5 627.009 Z " fill="rgb(0,0,0)"/><path d=" M 407.5 618.348 L 407.5 624.122 L 397.5 618.348 L 397.5 612.575 L 407.5 618.348 Z " fill="rgb(0,0,0)"/><path d=" M 467.5 624.27 L 467.5 630.043 L 457.5 624.27 L 457.5 618.496 L 467.5 624.27 Z " fill="rgb(0,0,0)"/><path d=" M 452.5 615.61 L 452.5 621.383 L 442.5 615.61 L 442.5 609.836 L 452.5 615.61 Z " fill="rgb(0,0,0)"/><path d=" M 437.5 606.949 L 437.5 612.723 L 427.5 606.949 L 427.5 601.176 L 437.5 606.949 Z " fill="rgb(0,0,0)"/><path d=" M 422.5 598.289 L 422.5 604.063 L 412.5 598.289 L 412.5 592.516 L 422.5 598.289 Z " fill="rgb(0,0,0)"/><path d=" M 407.5 589.629 L 407.5 595.402 L 397.5 589.629 L 397.5 583.855 L 407.5 589.629 Z " fill="rgb(0,0,0)"/><path d=" M 467.5 380.155 L 467.5 385.929 L 457.5 380.155 L 457.5 374.382 L 467.5 380.155 Z " fill="rgb(0,0,0)"/><path d=" M 452.5 371.495 L 452.5 377.269 L 442.5 371.495 L 442.5 365.722 L 452.5 371.495 Z " fill="rgb(0,0,0)"/><path d=" M 437.5 362.835 L 437.5 368.608 L 427.5 362.835 L 427.5 357.061 L 437.5 362.835 Z " fill="rgb(0,0,0)"/><path d=" M 422.5 354.175 L 422.5 359.948 L 412.5 354.175 L 412.5 348.401 L 422.5 354.175 Z " fill="rgb(0,0,0)"/><path d=" M 407.5 345.514 L 407.5 351.288 L 397.5 345.514 L 397.5 339.741 L 407.5 345.514 Z " fill="rgb(0,0,0)"/><path d=" M 467.5 609.91 L 467.5 615.684 L 457.5 609.91 L 457.5 604.137 L 467.5 609.91 Z " fill="rgb(0,0,0)"/><path d=" M 452.5 601.25 L 452.5 607.023 L 442.5 601.25 L 442.5 595.476 L 452.5 601.25 Z " fill="rgb(0,0,0)"/><path d=" M 437.5 592.59 L 437.5 598.363 L 427.5 592.59 L 427.5 586.816 L 437.5 592.59 Z " fill="rgb(0,0,0)"/><path d=" M 422.5 583.929 L 422.5 589.703 L 412.5 583.929 L 412.5 578.156 L 422.5 583.929 Z " fill="rgb(0,0,0)"/><path d=" M 407.5 575.269 L 407.5 581.043 L 397.5 575.269 L 397.5 569.496 L 407.5 575.269 Z " fill="rgb(0,0,0)"/><path d=" M 467.5 351.436 L 467.5 357.209 L 457.5 351.436 L 457.5 345.662 L 467.5 351.436 Z " fill="rgb(0,0,0)"/><path d=" M 407.5 316.795 L 407.5 322.568 L 397.5 316.795 L 397.5 311.021 L 407.5 316.795 Z " fill="rgb(0,0,0)"/><path d=" M 467.5 394.515 L 467.5 400.288 L 457.5 394.515 L 457.5 388.741 L 467.5 394.515 Z " fill="rgb(0,0,0)"/><path d=" M 452.5 385.855 L 452.5 391.628 L 442.5 385.855 L 442.5 380.081 L 452.5 385.855 Z " fill="rgb(0,0,0)"/><path d=" M 437.5 377.194 L 437.5 382.968 L 427.5 377.194 L 427.5 371.421 L 437.5 377.194 Z " fill="rgb(0,0,0)"/><path d=" M 422.5 368.534 L 422.5 374.308 L 412.5 368.534 L 412.5 362.761 L 422.5 368.534 Z " fill="rgb(0,0,0)"/><path d=" M 407.5 359.874 L 407.5 365.647 L 397.5 359.874 L 397.5 354.1 L 407.5 359.874 Z " fill="rgb(0,0,0)"/><path d=" M 467.5 437.594 L 467.5 443.368 L 457.5 437.594 L 457.5 431.821 L 467.5 437.594 Z " fill="rgb(0,0,0)"/><path d=" M 452.5 428.934 L 452.5 434.707 L 442.5 428.934 L 442.5 423.16 L 452.5 428.934 Z " fill="rgb(0,0,0)"/><path d=" M 437.5 420.274 L 437.5 426.047 L 427.5 420.274 L 427.5 414.5 L 437.5 420.274 Z " fill="rgb(0,0,0)"/><path d=" M 422.5 411.613 L 422.5 417.387 L 412.5 411.613 L 412.5 405.84 L 422.5 411.613 Z " fill="rgb(0,0,0)"/><path d=" M 407.5 402.953 L 407.5 408.727 L 397.5 402.953 L 397.5 397.18 L 407.5 402.953 Z " fill="rgb(0,0,0)"/><path d=" M 467.5 423.234 L 467.5 429.008 L 457.5 423.234 L 457.5 417.461 L 467.5 423.234 Z " fill="rgb(0,0,0)"/><path d=" M 452.5 414.574 L 452.5 420.348 L 442.5 414.574 L 442.5 408.801 L 452.5 414.574 Z " fill="rgb(0,0,0)"/><path d=" M 437.5 405.914 L 437.5 411.687 L 427.5 405.914 L 427.5 400.14 L 437.5 405.914 Z " fill="rgb(0,0,0)"/><path d=" M 422.5 397.254 L 422.5 403.027 L 412.5 397.254 L 412.5 391.48 L 422.5 397.254 Z " fill="rgb(0,0,0)"/><path d=" M 407.5 388.593 L 407.5 394.367 L 397.5 388.593 L 397.5 382.82 L 407.5 388.593 Z " fill="rgb(0,0,0)"/><path d=" M 467.5 466.313 L 467.5 472.087 L 457.5 466.313 L 457.5 460.54 L 467.5 466.313 Z " fill="rgb(0,0,0)"/><path d=" M 452.5 457.653 L 452.5 463.427 L 442.5 457.653 L 442.5 451.88 L 452.5 457.653 Z " fill="rgb(0,0,0)"/><path d=" M 437.5 448.993 L 437.5 454.766 L 427.5 448.993 L 427.5 443.219 L 437.5 448.993 Z " fill="rgb(0,0,0)"/><path d=" M 422.5 440.333 L 422.5 446.106 L 412.5 440.333 L 412.5 434.559 L 422.5 440.333 Z " fill="rgb(0,0,0)"/><path d=" M 407.5 431.672 L 407.5 437.446 L 397.5 431.672 L 397.5 425.899 L 407.5 431.672 Z " fill="rgb(0,0,0)"/><path d=" M 467.5 495.033 L 467.5 500.806 L 457.5 495.033 L 457.5 489.259 L 467.5 495.033 Z " fill="rgb(0,0,0)"/><path d=" M 452.5 486.373 L 452.5 492.146 L 442.5 486.373 L 442.5 480.599 L 452.5 486.373 Z " fill="rgb(0,0,0)"/><path d=" M 437.5 477.712 L 437.5 483.486 L 427.5 477.712 L 427.5 471.939 L 437.5 477.712 Z " fill="rgb(0,0,0)"/><path d=" M 422.5 469.052 L 422.5 474.826 L 412.5 469.052 L 412.5 463.279 L 422.5 469.052 Z " fill="rgb(0,0,0)"/><path d=" M 407.5 460.392 L 407.5 466.165 L 397.5 460.392 L 397.5 454.618 L 407.5 460.392 Z " fill="rgb(0,0,0)"/><path d=" M 467.5 667.349 L 467.5 673.122 L 457.5 667.349 L 457.5 661.575 L 467.5 667.349 Z " fill="rgb(0,0,0)"/><path d=" M 452.5 658.689 L 452.5 664.462 L 442.5 658.689 L 442.5 652.915 L 452.5 658.689 Z " fill="rgb(0,0,0)"/><path d=" M 437.5 650.028 L 437.5 655.802 L 427.5 650.028 L 427.5 644.255 L 437.5 650.028 Z " fill="rgb(0,0,0)"/><path d=" M 422.5 641.368 L 422.5 647.142 L 412.5 641.368 L 412.5 635.595 L 422.5 641.368 Z " fill="rgb(0,0,0)"/><path d=" M 407.5 632.708 L 407.5 638.481 L 397.5 632.708 L 397.5 626.934 L 407.5 632.708 Z " fill="rgb(0,0,0)"/><path d=" M 467.5 566.831 L 467.5 572.605 L 457.5 566.831 L 457.5 561.058 L 467.5 566.831 Z " fill="rgb(0,0,0)"/><path d=" M 452.5 558.171 L 452.5 563.944 L 442.5 558.171 L 442.5 552.397 L 452.5 558.171 Z " fill="rgb(0,0,0)"/><path d=" M 437.5 549.511 L 437.5 555.284 L 427.5 549.511 L 427.5 543.737 L 437.5 549.511 Z " fill="rgb(0,0,0)"/><path d=" M 422.5 540.85 L 422.5 546.624 L 412.5 540.85 L 412.5 535.077 L 422.5 540.85 Z " fill="rgb(0,0,0)"/><path d=" M 407.5 532.19 L 407.5 537.964 L 397.5 532.19 L 397.5 526.417 L 407.5 532.19 Z " fill="rgb(0,0,0)"/><path d=" M 467.5 595.551 L 467.5 601.324 L 457.5 595.551 L 457.5 589.777 L 467.5 595.551 Z " fill="rgb(0,0,0)"/><path d=" M 452.5 586.89 L 452.5 592.664 L 442.5 586.89 L 442.5 581.117 L 452.5 586.89 Z " fill="rgb(0,0,0)"/><path d=" M 437.5 578.23 L 437.5 584.004 L 427.5 578.23 L 427.5 572.457 L 437.5 578.23 Z " fill="rgb(0,0,0)"/><path d=" M 422.5 569.57 L 422.5 575.343 L 412.5 569.57 L 412.5 563.796 L 422.5 569.57 Z " fill="rgb(0,0,0)"/><path d=" M 407.5 560.91 L 407.5 566.683 L 397.5 560.91 L 397.5 555.136 L 407.5 560.91 Z " fill="rgb(0,0,0)"/><path d=" M 467.5 681.709 L 467.5 687.482 L 457.5 681.709 L 457.5 675.935 L 467.5 681.709 Z " fill="rgb(0,0,0)"/><path d=" M 452.5 673.048 L 452.5 678.822 L 442.5 673.048 L 442.5 667.275 L 452.5 673.048 Z " fill="rgb(0,0,0)"/><path d=" M 437.5 664.388 L 437.5 670.162 L 427.5 664.388 L 427.5 658.615 L 437.5 664.388 Z " fill="rgb(0,0,0)"/><path d=" M 422.5 655.728 L 422.5 661.501 L 412.5 655.728 L 412.5 649.954 L 422.5 655.728 Z " fill="rgb(0,0,0)"/><path d=" M 407.5 647.068 L 407.5 652.841 L 397.5 647.068 L 397.5 641.294 L 407.5 647.068 Z " fill="rgb(0,0,0)"/><path d=" M 467.5 696.068 L 467.5 701.842 L 457.5 696.068 L 457.5 690.295 L 467.5 696.068 Z " fill="rgb(0,0,0)"/><path d=" M 452.5 687.408 L 452.5 693.182 L 442.5 687.408 L 442.5 681.635 L 452.5 687.408 Z " fill="rgb(0,0,0)"/><path d=" M 437.5 678.748 L 437.5 684.521 L 427.5 678.748 L 427.5 672.974 L 437.5 678.748 Z " fill="rgb(0,0,0)"/><path d=" M 422.5 670.088 L 422.5 675.861 L 412.5 670.088 L 412.5 664.314 L 422.5 670.088 Z " fill="rgb(0,0,0)"/><path d=" M 407.5 661.427 L 407.5 667.201 L 397.5 661.427 L 397.5 655.654 L 407.5 661.427 Z " fill="rgb(0,0,0)"/><path d=" M 467.5 710.428 L 467.5 716.202 L 457.5 710.428 L 457.5 704.655 L 467.5 710.428 Z " fill="rgb(0,0,0)"/><path d=" M 452.5 701.768 L 452.5 707.541 L 442.5 701.768 L 442.5 695.994 L 452.5 701.768 Z " fill="rgb(0,0,0)"/><path d=" M 437.5 693.107 L 437.5 698.881 L 427.5 693.107 L 427.5 687.334 L 437.5 693.107 Z " fill="rgb(0,0,0)"/><path d=" M 422.5 684.447 L 422.5 690.221 L 412.5 684.447 L 412.5 678.674 L 422.5 684.447 Z " fill="rgb(0,0,0)"/><path d=" M 407.5 675.787 L 407.5 681.56 L 397.5 675.787 L 397.5 670.013 L 407.5 675.787 Z " fill="rgb(0,0,0)"/><path d=" M 467.5 724.788 L 467.5 730.561 L 457.5 724.788 L 457.5 719.014 L 467.5 724.788 Z " fill="rgb(0,0,0)"/><path d=" M 452.5 716.127 L 452.5 721.901 L 442.5 716.127 L 442.5 710.354 L 452.5 716.127 Z " fill="rgb(0,0,0)"/><path d=" M 437.5 707.467 L 437.5 713.241 L 427.5 707.467 L 427.5 701.694 L 437.5 707.467 Z " fill="rgb(0,0,0)"/><path d=" M 422.5 698.807 L 422.5 704.58 L 412.5 698.807 L 412.5 693.033 L 422.5 698.807 Z " fill="rgb(0,0,0)"/><path d=" M 407.5 690.147 L 407.5 695.92 L 397.5 690.147 L 397.5 684.373 L 407.5 690.147 Z " fill="rgb(0,0,0)"/><path d=" M 467.5 365.796 L 467.5 371.569 L 457.5 365.796 L 457.5 360.022 L 467.5 365.796 Z " fill="rgb(0,0,0)"/><path d=" M 407.5 331.155 L 407.5 336.928 L 397.5 331.155 L 397.5 325.381 L 407.5 331.155 Z " fill="rgb(0,0,0)"/></g></g></svg>