<?xml version="1.0" standalone="no"?><!-- Generator: Gravit.io --><svg xmlns="http://www.w3.org/2000/svg" xmlns:xlink="http://www.w3.org/1999/xlink" style="isolation:isolate" viewBox="390 202.551 220 155.406" width="220" height="155.406"><g id="att-roof"><path d=" M 403.653 279.716 L 490 329.568 L 510 318.021 L 530 329.568 L 610 283.38 L 590 271.833 L 610 260.286 L 510 202.551 L 490 214.098 L 470 202.551 L 390 248.739 L 410 260.286 L 390 271.833 L 403.653 279.716 Z " fill="rgb(232,232,232)"/><path d=" M 610 260.286 L 610 283.38 L 590 271.833 L 610 260.286 Z " fill="rgb(209,209,209)"/><path d=" M 390 271.833 L 410 260.286 L 390 248.739 L 390 271.833 Z " fill="rgb(162,162,162)"/><path d=" M 490 318.021 L 510 306.474 L 530 318.021 L 590 283.38 L 570 271.833 L 590 260.286 L 510 214.098 L 490 225.645 L 470 214.098 L 410 248.739 L 430 260.286 L 410 271.833 L 490 318.021 Z " fill="rgb(209,209,209)"/><path d=" M 470 214.098 L 470 225.645 L 490 237.192 L 490 225.645 L 470 214.098 Z " fill="rgb(162,162,162)"/><path d=" M 510 214.098 L 510 225.645 L 490 237.192 L 490 225.645 L 510 214.098 Z " fill="rgb(185,185,185)"/><path d=" M 430 260.286 L 430 271.833 L 420 277.607 L 410 271.833 L 430 260.286 Z " fill="rgb(185,185,185)"/><path d=" M 570 271.833 L 570 283.38 L 580 289.154 L 590 283.38 L 570 271.833 Z " fill="rgb(162,162,162)"/><path d=" M 510 225.645 L 580 266.06 L 590 260.286 L 510 214.098 L 510 225.645 Z " fill="rgb(185,185,185)"/><path d=" M 410 248.739 L 470 214.098 L 470 225.645 L 420 254.513 L 410 248.739 Z " fill="rgb(185,185,185)"/><path d=" M 530 357.957 L 610 311.769 L 610 282.902 L 530 329.09 L 530 357.957 Z " fill="rgb(209,209,209)"/><path d=" M 490 357.957 L 390 300.222 L 390 271.355 L 490 329.09 L 490 357.957 Z " fill="rgb(185,185,185)"/><path d=" M 510 346.41 L 490 357.957 L 490 329.09 L 510 317.543 L 510 346.41 Z " fill="rgb(209,209,209)"/><path d=" M 530 357.957 L 510 346.41 L 510 317.543 L 530 329.09 L 530 357.957 Z " fill="rgb(185,185,185)"/><path d=" M 544 331.429 C 544 327.014 546.689 323.429 550 323.429 C 553.311 323.429 556 327.014 556 331.429 C 556 335.845 553.311 339.429 550 339.429 C 546.689 339.429 544 335.845 544 331.429 Z " fill="rgb(65,173,255)"/><path d=" M 404 296.562 C 404 292.147 406.689 288.562 410 288.562 C 413.311 288.562 416 292.147 416 296.562 C 416 300.977 413.311 304.562 410 304.562 C 406.689 304.562 404 300.977 404 296.562 Z " fill="rgb(65,173,255)"/></g></svg>