<?xml version="1.0" standalone="no"?><!-- Generator: Gravit.io --><svg xmlns="http://www.w3.org/2000/svg" xmlns:xlink="http://www.w3.org/1999/xlink" style="isolation:isolate" viewBox="390 640.859 220 150.111" width="220" height="150.111"><g id="att-base"><path d=" M 403.653 718.023 L 490 767.876 L 510 756.329 L 530 767.876 L 610 721.688 L 590 710.141 L 610 698.594 L 510 640.859 L 490 652.406 L 470 640.859 L 390 687.047 L 410 698.594 L 390 710.141 L 403.653 718.023 Z " fill="rgb(232,232,232)"/><path d=" M 610 721.688 L 600 739.008 L 520 785.196 L 530 767.876 L 610 721.688 Z " fill="rgb(162,162,162)"/><path d=" M 390 710.141 L 400 727.461 L 500 785.196 L 490 767.876 L 390 710.141 Z " fill="rgb(162,162,162)"/><path d=" M 500 785.196 L 510 790.97 L 510 756.329 L 490 767.876 L 500 785.196 Z " fill="rgb(209,209,209)"/><path d=" M 520 785.196 L 510 790.97 L 510 756.329 L 530 767.876 L 520 785.196 Z " fill="rgb(185,185,185)"/><path d=" M 390 687.047 L 400 704.367 L 410 698.594 L 390 687.047 Z " fill="rgb(162,162,162)"/><path d=" M 610 698.594 L 600 715.914 L 590 710.141 L 610 698.594 Z " fill="rgb(209,209,209)"/></g></svg>