<?xml version="1.0" standalone="no"?><!-- Generator: Gravit.io --><svg xmlns="http://www.w3.org/2000/svg" xmlns:xlink="http://www.w3.org/1999/xlink" style="isolation:isolate" viewBox="2735 308.882 210 450.333" width="210" height="450.333"><g id="body-windows-horizontal"><g id="Group"><path d=" M 2875 373.931 L 2875 379.704 L 2945 339.29 L 2945 333.516 L 2875 373.931 Z " fill="rgb(93,93,93)"/><path d=" M 2875 557.143 L 2875 562.917 L 2945 522.502 L 2945 516.728 L 2875 557.143 Z " fill="rgb(93,93,93)"/><path d=" M 2875 727.269 L 2875 733.042 L 2945 692.628 L 2945 686.854 L 2875 727.269 Z " fill="rgb(93,93,93)"/><path d=" M 2875 570.23 L 2875 576.003 L 2945 535.589 L 2945 529.815 L 2875 570.23 Z " fill="rgb(93,93,93)"/><path d=" M 2875 413.19 L 2875 418.964 L 2945 378.549 L 2945 372.776 L 2875 413.19 Z " fill="rgb(93,93,93)"/><path d=" M 2875 426.277 L 2875 432.05 L 2945 391.636 L 2945 385.862 L 2875 426.277 Z " fill="rgb(93,93,93)"/><path d=" M 2875 439.364 L 2875 445.137 L 2945 404.723 L 2945 398.949 L 2875 439.364 Z " fill="rgb(93,93,93)"/><path d=" M 2875 452.45 L 2875 458.224 L 2945 417.809 L 2945 412.036 L 2875 452.45 Z " fill="rgb(93,93,93)"/><path d=" M 2875 465.537 L 2875 471.31 L 2945 430.896 L 2945 425.122 L 2875 465.537 Z " fill="rgb(93,93,93)"/><path d=" M 2875 478.623 L 2875 484.397 L 2945 443.982 L 2945 438.209 L 2875 478.623 Z " fill="rgb(93,93,93)"/><path d=" M 2875 753.442 L 2875 759.216 L 2945 718.801 L 2945 713.028 L 2875 753.442 Z " fill="rgb(93,93,93)"/><path d=" M 2875 504.797 L 2875 510.57 L 2945 470.156 L 2945 464.382 L 2875 504.797 Z " fill="rgb(93,93,93)"/><path d=" M 2875 517.883 L 2875 523.657 L 2945 483.242 L 2945 477.469 L 2875 517.883 Z " fill="rgb(93,93,93)"/><path d=" M 2875 530.97 L 2875 536.743 L 2945 496.329 L 2945 490.555 L 2875 530.97 Z " fill="rgb(93,93,93)"/><path d=" M 2875 544.056 L 2875 549.83 L 2945 509.415 L 2945 503.642 L 2875 544.056 Z " fill="rgb(93,93,93)"/><path d=" M 2875 360.844 L 2875 366.617 L 2945 326.203 L 2945 320.429 L 2875 360.844 Z " fill="rgb(93,93,93)"/><path d=" M 2875 387.017 L 2875 392.791 L 2945 352.376 L 2945 346.603 L 2875 387.017 Z " fill="rgb(93,93,93)"/><path d=" M 2875 583.316 L 2875 589.09 L 2945 548.675 L 2945 542.902 L 2875 583.316 Z " fill="rgb(93,93,93)"/><path d=" M 2875 740.355 L 2875 746.129 L 2945 705.714 L 2945 699.941 L 2875 740.355 Z " fill="rgb(93,93,93)"/><path d=" M 2875 609.489 L 2875 615.263 L 2945 574.848 L 2945 569.075 L 2875 609.489 Z " fill="rgb(93,93,93)"/><path d=" M 2875 622.576 L 2875 628.35 L 2945 587.935 L 2945 582.162 L 2875 622.576 Z " fill="rgb(93,93,93)"/><path d=" M 2875 635.663 L 2875 641.436 L 2945 601.022 L 2945 595.248 L 2875 635.663 Z " fill="rgb(93,93,93)"/><path d=" M 2875 648.749 L 2875 654.523 L 2945 614.108 L 2945 608.335 L 2875 648.749 Z " fill="rgb(93,93,93)"/><path d=" M 2875 661.836 L 2875 667.609 L 2945 627.195 L 2945 621.421 L 2875 661.836 Z " fill="rgb(93,93,93)"/><path d=" M 2875 674.922 L 2875 680.696 L 2945 640.281 L 2945 634.508 L 2875 674.922 Z " fill="rgb(93,93,93)"/><path d=" M 2875 688.009 L 2875 693.783 L 2945 653.368 L 2945 647.595 L 2875 688.009 Z " fill="rgb(93,93,93)"/><path d=" M 2875 701.096 L 2875 706.869 L 2945 666.455 L 2945 660.681 L 2875 701.096 Z " fill="rgb(93,93,93)"/><path d=" M 2875 714.182 L 2875 719.956 L 2945 679.541 L 2945 673.768 L 2875 714.182 Z " fill="rgb(93,93,93)"/><path d=" M 2875 596.403 L 2875 602.176 L 2945 561.762 L 2945 555.988 L 2875 596.403 Z " fill="rgb(93,93,93)"/><path d=" M 2875 491.71 L 2875 497.483 L 2945 457.069 L 2945 451.295 L 2875 491.71 Z " fill="rgb(93,93,93)"/><path d=" M 2875 400.104 L 2875 405.877 L 2945 365.463 L 2945 359.689 L 2875 400.104 Z " fill="rgb(93,93,93)"/></g><g id="Group"><path d=" M 2825 373.931 L 2825 379.704 L 2735 327.742 L 2735 321.969 L 2825 373.931 Z " fill="rgb(46,46,46)"/><path d=" M 2825 413.19 L 2825 418.964 L 2735 367.002 L 2735 361.229 L 2825 413.19 Z " fill="rgb(46,46,46)"/><path d=" M 2825 727.269 L 2825 733.042 L 2735 681.081 L 2735 675.307 L 2825 727.269 Z " fill="rgb(46,46,46)"/><path d=" M 2825 635.663 L 2825 641.436 L 2735 589.475 L 2735 583.701 L 2825 635.663 Z " fill="rgb(46,46,46)"/><path d=" M 2825 452.45 L 2825 458.224 L 2735 406.262 L 2735 400.489 L 2825 452.45 Z " fill="rgb(46,46,46)"/><path d=" M 2825 504.797 L 2825 510.57 L 2735 458.609 L 2735 452.835 L 2825 504.797 Z " fill="rgb(46,46,46)"/><path d=" M 2825 517.883 L 2825 523.657 L 2735 471.695 L 2735 465.922 L 2825 517.883 Z " fill="rgb(46,46,46)"/><path d=" M 2825 688.009 L 2825 693.783 L 2735 641.821 L 2735 636.048 L 2825 688.009 Z " fill="rgb(46,46,46)"/><path d=" M 2825 609.489 L 2825 615.263 L 2735 563.301 L 2735 557.528 L 2825 609.489 Z " fill="rgb(46,46,46)"/><path d=" M 2825 622.576 L 2825 628.35 L 2735 576.388 L 2735 570.615 L 2825 622.576 Z " fill="rgb(46,46,46)"/><path d=" M 2825 753.442 L 2825 759.216 L 2735 707.254 L 2735 701.481 L 2825 753.442 Z " fill="rgb(46,46,46)"/><path d=" M 2825 661.836 L 2825 667.609 L 2735 615.648 L 2735 609.874 L 2825 661.836 Z " fill="rgb(46,46,46)"/><path d=" M 2825 596.403 L 2825 602.176 L 2735 550.215 L 2735 544.441 L 2825 596.403 Z " fill="rgb(46,46,46)"/><path d=" M 2825 583.316 L 2825 589.09 L 2735 537.128 L 2735 531.355 L 2825 583.316 Z " fill="rgb(46,46,46)"/><path d=" M 2825 387.017 L 2825 392.791 L 2735 340.829 L 2735 335.056 L 2825 387.017 Z " fill="rgb(46,46,46)"/><path d=" M 2825 360.844 L 2825 366.617 L 2735 314.656 L 2735 308.882 L 2825 360.844 Z " fill="rgb(46,46,46)"/><path d=" M 2825 544.056 L 2825 549.83 L 2735 497.868 L 2735 492.095 L 2825 544.056 Z " fill="rgb(46,46,46)"/><path d=" M 2825 530.97 L 2825 536.743 L 2735 484.782 L 2735 479.008 L 2825 530.97 Z " fill="rgb(46,46,46)"/><path d=" M 2825 740.355 L 2825 746.129 L 2735 694.167 L 2735 688.394 L 2825 740.355 Z " fill="rgb(46,46,46)"/><path d=" M 2825 648.749 L 2825 654.523 L 2735 602.561 L 2735 596.788 L 2825 648.749 Z " fill="rgb(46,46,46)"/><path d=" M 2825 491.71 L 2825 497.483 L 2735 445.522 L 2735 439.748 L 2825 491.71 Z " fill="rgb(46,46,46)"/><path d=" M 2825 478.623 L 2825 484.397 L 2735 432.435 L 2735 426.662 L 2825 478.623 Z " fill="rgb(46,46,46)"/><path d=" M 2825 465.537 L 2825 471.31 L 2735 419.349 L 2735 413.575 L 2825 465.537 Z " fill="rgb(46,46,46)"/><path d=" M 2825 701.096 L 2825 706.869 L 2735 654.908 L 2735 649.134 L 2825 701.096 Z " fill="rgb(46,46,46)"/><path d=" M 2825 439.364 L 2825 445.137 L 2735 393.176 L 2735 387.402 L 2825 439.364 Z " fill="rgb(46,46,46)"/><path d=" M 2825 426.277 L 2825 432.05 L 2735 380.089 L 2735 374.315 L 2825 426.277 Z " fill="rgb(46,46,46)"/><path d=" M 2825 674.922 L 2825 680.696 L 2735 628.734 L 2735 622.961 L 2825 674.922 Z " fill="rgb(46,46,46)"/><path d=" M 2825 570.23 L 2825 576.003 L 2735 524.042 L 2735 518.268 L 2825 570.23 Z " fill="rgb(46,46,46)"/><path d=" M 2825 400.104 L 2825 405.877 L 2735 353.916 L 2735 348.142 L 2825 400.104 Z " fill="rgb(46,46,46)"/><path d=" M 2825 557.143 L 2825 562.917 L 2735 510.955 L 2735 505.181 L 2825 557.143 Z " fill="rgb(46,46,46)"/><path d=" M 2825 714.182 L 2825 719.956 L 2735 667.994 L 2735 662.221 L 2825 714.182 Z " fill="rgb(46,46,46)"/></g></g></svg>