<?xml version="1.0" standalone="no"?><!-- Generator: Gravit.io --><svg xmlns="http://www.w3.org/2000/svg" xmlns:xlink="http://www.w3.org/1999/xlink" style="isolation:isolate" viewBox="2332.5 290.118 205 447.446" width="205" height="447.446"><g id="body-windows-vertical"><g id="body-windows-vertical-right"><path d=" M 2477.5 336.307 L 2472.5 339.193 L 2472.5 737.565 L 2477.5 734.678 L 2477.5 336.307 Z " fill="rgb(93,93,93)"/><path d=" M 2517.5 313.213 L 2512.5 316.099 L 2512.5 714.471 L 2517.5 711.584 L 2517.5 313.213 Z " fill="rgb(93,93,93)"/><path d=" M 2497.5 324.76 L 2492.5 327.646 L 2492.5 726.018 L 2497.5 723.131 L 2497.5 324.76 Z " fill="rgb(93,93,93)"/><path d=" M 2537.5 301.666 L 2532.5 304.552 L 2532.5 702.924 L 2537.5 700.037 L 2537.5 301.666 Z " fill="rgb(93,93,93)"/><path d=" M 2487.5 330.533 L 2482.5 333.42 L 2482.5 731.791 L 2487.5 728.905 L 2487.5 330.533 Z " fill="rgb(93,93,93)"/><path d=" M 2527.5 307.439 L 2522.5 310.326 L 2522.5 708.697 L 2527.5 705.811 L 2527.5 307.439 Z " fill="rgb(93,93,93)"/><path d=" M 2507.5 318.986 L 2502.5 321.873 L 2502.5 720.244 L 2507.5 717.358 L 2507.5 318.986 Z " fill="rgb(93,93,93)"/></g><g id="body-windows-vertical-left"><path d=" M 2412.5 336.307 L 2417.5 339.193 L 2417.5 737.565 L 2412.5 734.678 L 2412.5 336.307 Z " fill="rgb(46,46,46)"/><path d=" M 2372.5 313.213 L 2377.5 316.099 L 2377.5 714.471 L 2372.5 711.584 L 2372.5 313.213 Z " fill="rgb(46,46,46)"/><path d=" M 2342.5 295.892 L 2347.5 298.779 L 2347.5 697.15 L 2342.5 694.264 L 2342.5 295.892 Z " fill="rgb(46,46,46)"/><path d=" M 2392.5 324.76 L 2397.5 327.646 L 2397.5 726.018 L 2392.5 723.131 L 2392.5 324.76 Z " fill="rgb(46,46,46)"/><path d=" M 2352.5 301.665 L 2357.5 304.552 L 2357.5 702.924 L 2352.5 700.037 L 2352.5 301.665 Z " fill="rgb(46,46,46)"/><path d=" M 2402.5 330.533 L 2407.5 333.42 L 2407.5 731.791 L 2402.5 728.905 L 2402.5 330.533 Z " fill="rgb(46,46,46)"/><path d=" M 2362.5 307.439 L 2367.5 310.326 L 2367.5 708.697 L 2362.5 705.811 L 2362.5 307.439 Z " fill="rgb(46,46,46)"/><path d=" M 2332.5 290.118 L 2337.5 293.005 L 2337.5 691.377 L 2332.5 688.49 L 2332.5 290.118 Z " fill="rgb(46,46,46)"/><path d=" M 2382.5 318.986 L 2387.5 321.873 L 2387.5 720.244 L 2382.5 717.358 L 2382.5 318.986 Z " fill="rgb(46,46,46)"/></g></g></svg>