<?xml version="1.0" standalone="no"?><!-- Generator: Gravit.io --><svg xmlns="http://www.w3.org/2000/svg" xmlns:xlink="http://www.w3.org/1999/xlink" style="isolation:isolate" viewBox="1134.625 679.961 162.75 427.115" width="162.75" height="427.115"><g id="boa-windows-vertical"><g id="Group"><g id="body-windows-color-2"><path d=" M 1183.375 701.66 L 1183.375 706.448 L 1183.375 1102.576" fill="none" vector-effect="non-scaling-stroke" stroke-width="3" stroke="rgb(59,43,41)" stroke-linejoin="miter" stroke-linecap="square" stroke-miterlimit="3"/><line x1="1212.486" y1="701.66" x2="1212.486" y2="1102.576" vector-effect="non-scaling-stroke" stroke-width="3" stroke="rgb(59,43,41)" stroke-linejoin="miter" stroke-linecap="square" stroke-miterlimit="3"/><line x1="1197.931" y1="701.66" x2="1197.931" y2="1102.576" vector-effect="non-scaling-stroke" stroke-width="3" stroke="rgb(59,43,41)" stroke-linejoin="miter" stroke-linecap="square" stroke-miterlimit="3"/><line x1="1227.042" y1="701.66" x2="1227.042" y2="1102.576" vector-effect="non-scaling-stroke" stroke-width="3" stroke="rgb(59,43,41)" stroke-linejoin="miter" stroke-linecap="square" stroke-miterlimit="3"/><line x1="1190.653" y1="701.66" x2="1190.653" y2="1102.576" vector-effect="non-scaling-stroke" stroke-width="3" stroke="rgb(59,43,41)" stroke-linejoin="miter" stroke-linecap="square" stroke-miterlimit="3"/><line x1="1219.764" y1="701.66" x2="1219.764" y2="1102.576" vector-effect="non-scaling-stroke" stroke-width="3" stroke="rgb(59,43,41)" stroke-linejoin="miter" stroke-linecap="square" stroke-miterlimit="3"/><line x1="1205.208" y1="701.66" x2="1205.208" y2="1102.576" vector-effect="non-scaling-stroke" stroke-width="3" stroke="rgb(59,43,41)" stroke-linejoin="miter" stroke-linecap="square" stroke-miterlimit="3"/><line x1="1234.319" y1="701.66" x2="1234.319" y2="1102.576" vector-effect="non-scaling-stroke" stroke-width="3" stroke="rgb(59,43,41)" stroke-linejoin="miter" stroke-linecap="square" stroke-miterlimit="3"/><line x1="1241.597" y1="701.66" x2="1241.597" y2="1102.576" vector-effect="non-scaling-stroke" stroke-width="3" stroke="rgb(59,43,41)" stroke-linejoin="miter" stroke-linecap="square" stroke-miterlimit="3"/><line x1="1248.875" y1="701.66" x2="1248.875" y2="1102.576" vector-effect="non-scaling-stroke" stroke-width="3" stroke="rgb(59,43,41)" stroke-linejoin="miter" stroke-linecap="square" stroke-miterlimit="3"/></g><g id="body-windows-color-1"><path d=" M 1262.847 691.065 L 1262.847 699.4 L 1262.847 740.139" fill="none" vector-effect="non-scaling-stroke" stroke-width="3" stroke="rgb(91,66,63)" stroke-linejoin="miter" stroke-linecap="square" stroke-miterlimit="3"/><path d=" M 1270.125 691.065 L 1270.125 699.9 L 1270.125 740.139" fill="none" vector-effect="non-scaling-stroke" stroke-width="3" stroke="rgb(91,66,63)" stroke-linejoin="miter" stroke-linecap="square" stroke-miterlimit="3"/><path d=" M 1262.847 756.903 L 1262.847 761.806 L 1262.847 785.771" fill="none" vector-effect="non-scaling-stroke" stroke-width="3" stroke="rgb(91,66,63)" stroke-linejoin="miter" stroke-linecap="square" stroke-miterlimit="3"/><path d=" M 1270.125 756.903 L 1270.125 762.101 L 1270.125 785.771" fill="none" vector-effect="non-scaling-stroke" stroke-width="3" stroke="rgb(91,66,63)" stroke-linejoin="miter" stroke-linecap="square" stroke-miterlimit="3"/><path d=" M 1281.125 785.771 L 1286.125 785.771 L 1286.125 790.582 L 1281.125 790.582 L 1281.125 785.771 Z " fill="rgb(91,66,63)"/><path d=" M 1281.125 805.016 L 1286.125 805.016 L 1286.125 809.827 L 1281.125 809.827 L 1281.125 805.016 Z " fill="rgb(91,66,63)"/><path d=" M 1281.125 795.393 L 1286.125 795.393 L 1286.125 800.204 L 1281.125 800.204 L 1281.125 795.393 Z " fill="rgb(91,66,63)"/><path d=" M 1281.125 814.638 L 1286.125 814.638 L 1286.125 819.449 L 1281.125 819.449 L 1281.125 814.638 Z " fill="rgb(91,66,63)"/><path d=" M 1281.125 824.261 L 1286.125 824.261 L 1286.125 829.072 L 1281.125 829.072 L 1281.125 824.261 Z " fill="rgb(91,66,63)"/><path d=" M 1281.125 814.638 L 1286.125 814.638 L 1286.125 819.449 L 1281.125 819.449 L 1281.125 814.638 Z " fill="rgb(91,66,63)"/><path d=" M 1281.125 833.883 L 1286.125 833.883 L 1286.125 838.694 L 1281.125 838.694 L 1281.125 833.883 Z " fill="rgb(91,66,63)"/><path d=" M 1281.125 824.261 L 1286.125 824.261 L 1286.125 829.072 L 1281.125 829.072 L 1281.125 824.261 Z " fill="rgb(91,66,63)"/><path d=" M 1281.125 843.506 L 1286.125 843.506 L 1286.125 848.317 L 1281.125 848.317 L 1281.125 843.506 Z " fill="rgb(91,66,63)"/><path d=" M 1281.125 853.128 L 1286.125 853.128 L 1286.125 857.939 L 1281.125 857.939 L 1281.125 853.128 Z " fill="rgb(91,66,63)"/><path d=" M 1281.125 891.862 L 1286.125 891.862 L 1286.125 896.673 L 1281.125 896.673 L 1281.125 891.862 Z " fill="rgb(91,66,63)"/><path d=" M 1281.125 853.166 L 1286.125 853.166 L 1286.125 857.977 L 1281.125 857.977 L 1281.125 853.166 Z " fill="rgb(91,66,63)"/><path d=" M 1281.125 872.411 L 1286.125 872.411 L 1286.125 877.222 L 1281.125 877.222 L 1281.125 872.411 Z " fill="rgb(91,66,63)"/><path d=" M 1281.125 862.788 L 1286.125 862.788 L 1286.125 867.6 L 1281.125 867.6 L 1281.125 862.788 Z " fill="rgb(91,66,63)"/><path d=" M 1281.125 882.033 L 1286.125 882.033 L 1286.125 886.845 L 1281.125 886.845 L 1281.125 882.033 Z " fill="rgb(91,66,63)"/><path d=" M 1281.125 891.656 L 1286.125 891.656 L 1286.125 896.467 L 1281.125 896.467 L 1281.125 891.656 Z " fill="rgb(91,66,63)"/><path d=" M 1281.125 882.033 L 1286.125 882.033 L 1286.125 886.845 L 1281.125 886.845 L 1281.125 882.033 Z " fill="rgb(91,66,63)"/><path d=" M 1281.125 891.656 L 1286.125 891.656 L 1286.125 896.467 L 1281.125 896.467 L 1281.125 891.656 Z " fill="rgb(91,66,63)"/><path d=" M 1281.125 911.145 L 1286.125 911.145 L 1286.125 915.956 L 1281.125 915.956 L 1281.125 911.145 Z " fill="rgb(91,66,63)"/><path d=" M 1281.125 901.522 L 1286.125 901.522 L 1286.125 906.334 L 1281.125 906.334 L 1281.125 901.522 Z " fill="rgb(91,66,63)"/><path d=" M 1281.125 920.767 L 1286.125 920.767 L 1286.125 925.579 L 1281.125 925.579 L 1281.125 920.767 Z " fill="rgb(91,66,63)"/><path d=" M 1281.125 930.39 L 1286.125 930.39 L 1286.125 935.201 L 1281.125 935.201 L 1281.125 930.39 Z " fill="rgb(91,66,63)"/><path d=" M 1281.125 920.767 L 1286.125 920.767 L 1286.125 925.579 L 1281.125 925.579 L 1281.125 920.767 Z " fill="rgb(91,66,63)"/><path d=" M 1281.125 940.012 L 1286.125 940.012 L 1286.125 944.824 L 1281.125 944.824 L 1281.125 940.012 Z " fill="rgb(91,66,63)"/><path d=" M 1281.125 930.39 L 1286.125 930.39 L 1286.125 935.201 L 1281.125 935.201 L 1281.125 930.39 Z " fill="rgb(91,66,63)"/><path d=" M 1281.125 949.635 L 1286.125 949.635 L 1286.125 954.446 L 1281.125 954.446 L 1281.125 949.635 Z " fill="rgb(91,66,63)"/><path d=" M 1281.125 959.257 L 1286.125 959.257 L 1286.125 964.069 L 1281.125 964.069 L 1281.125 959.257 Z " fill="rgb(91,66,63)"/><path d=" M 1281.125 959.239 L 1286.125 959.239 L 1286.125 964.05 L 1281.125 964.05 L 1281.125 959.239 Z " fill="rgb(91,66,63)"/><path d=" M 1281.125 978.484 L 1286.125 978.484 L 1286.125 983.295 L 1281.125 983.295 L 1281.125 978.484 Z " fill="rgb(91,66,63)"/><path d=" M 1281.125 968.861 L 1286.125 968.861 L 1286.125 973.672 L 1281.125 973.672 L 1281.125 968.861 Z " fill="rgb(91,66,63)"/><path d=" M 1281.125 988.106 L 1286.125 988.106 L 1286.125 992.917 L 1281.125 992.917 L 1281.125 988.106 Z " fill="rgb(91,66,63)"/><path d=" M 1281.125 997.729 L 1286.125 997.729 L 1286.125 1002.54 L 1281.125 1002.54 L 1281.125 997.729 Z " fill="rgb(91,66,63)"/><path d=" M 1281.125 988.106 L 1286.125 988.106 L 1286.125 992.917 L 1281.125 992.917 L 1281.125 988.106 Z " fill="rgb(91,66,63)"/><path d=" M 1281.125 1007.351 L 1286.125 1007.351 L 1286.125 1012.162 L 1281.125 1012.162 L 1281.125 1007.351 Z " fill="rgb(91,66,63)"/><path d=" M 1281.125 997.729 L 1286.125 997.729 L 1286.125 1002.54 L 1281.125 1002.54 L 1281.125 997.729 Z " fill="rgb(91,66,63)"/><path d=" M 1281.125 1016.974 L 1286.125 1016.974 L 1286.125 1021.785 L 1281.125 1021.785 L 1281.125 1016.974 Z " fill="rgb(91,66,63)"/><path d=" M 1281.125 1026.596 L 1286.125 1026.596 L 1286.125 1031.407 L 1281.125 1031.407 L 1281.125 1026.596 Z " fill="rgb(91,66,63)"/><path d=" M 1281.125 1026.596 L 1286.125 1026.596 L 1286.125 1031.407 L 1281.125 1031.407 L 1281.125 1026.596 Z " fill="rgb(91,66,63)"/><path d=" M 1281.125 1045.841 L 1286.125 1045.841 L 1286.125 1050.652 L 1281.125 1050.652 L 1281.125 1045.841 Z " fill="rgb(91,66,63)"/><path d=" M 1281.125 1036.219 L 1286.125 1036.219 L 1286.125 1041.03 L 1281.125 1041.03 L 1281.125 1036.219 Z " fill="rgb(91,66,63)"/><path d=" M 1281.125 1055.464 L 1286.125 1055.464 L 1286.125 1060.275 L 1281.125 1060.275 L 1281.125 1055.464 Z " fill="rgb(91,66,63)"/><path d=" M 1281.125 1055.464 L 1286.125 1055.464 L 1286.125 1060.275 L 1281.125 1060.275 L 1281.125 1055.464 Z " fill="rgb(91,66,63)"/><path d=" M 1282.375 679.961 L 1289.875 679.961 L 1289.875 685.734 L 1282.375 685.734 L 1282.375 679.961 Z " fill="rgb(91,66,63)"/><path d=" M 1282.375 703.055 L 1289.875 703.055 L 1289.875 708.828 L 1282.375 708.828 L 1282.375 703.055 Z " fill="rgb(91,66,63)"/><path d=" M 1282.375 691.508 L 1289.875 691.508 L 1289.875 697.281 L 1282.375 697.281 L 1282.375 691.508 Z " fill="rgb(91,66,63)"/><path d=" M 1282.375 714.602 L 1289.875 714.602 L 1289.875 720.375 L 1282.375 720.375 L 1282.375 714.602 Z " fill="rgb(91,66,63)"/><path d=" M 1282.375 737.696 L 1289.875 737.696 L 1289.875 743.469 L 1282.375 743.469 L 1282.375 737.696 Z " fill="rgb(91,66,63)"/><path d=" M 1282.375 726.149 L 1289.875 726.149 L 1289.875 731.922 L 1282.375 731.922 L 1282.375 726.149 Z " fill="rgb(91,66,63)"/><path d=" M 1282.375 749.243 L 1289.875 749.243 L 1289.875 755.016 L 1282.375 755.016 L 1282.375 749.243 Z " fill="rgb(91,66,63)"/><path d=" M 1282.375 760.79 L 1289.875 760.79 L 1289.875 766.563 L 1282.375 766.563 L 1282.375 760.79 Z " fill="rgb(91,66,63)"/><path d=" M 1272.375 801.926 L 1269.875 803.369 L 1269.875 1068.448 L 1272.375 1066.77 L 1272.375 801.926 Z " fill="rgb(91,66,63)"/><path d=" M 1297.375 781.719 L 1294.875 783.162 L 1294.875 1053.78 L 1297.375 1052.336 L 1297.375 781.719 Z " fill="rgb(91,66,63)"/></g><path d=" M 1172.375 801.926 L 1169.875 803.369 L 1169.875 1068.448 L 1172.375 1066.77 L 1172.375 801.926 Z " fill="rgb(91,66,63)"/><path d=" M 1259.875 801.926 L 1262.375 803.369 L 1262.375 1068.448 L 1259.875 1066.77 L 1259.875 801.926 Z " fill="rgb(59,43,41)"/><g id="body-windows-color-3"><path d=" M 1169.583 691.065 L 1169.583 699.4 L 1169.583 740.139" fill="none" vector-effect="non-scaling-stroke" stroke-width="3" stroke="rgb(28,20,19)" stroke-linejoin="miter" stroke-linecap="square" stroke-miterlimit="3"/><path d=" M 1162.306 691.065 L 1162.306 699.9 L 1162.306 740.139" fill="none" vector-effect="non-scaling-stroke" stroke-width="3" stroke="rgb(28,20,19)" stroke-linejoin="miter" stroke-linecap="square" stroke-miterlimit="3"/><path d=" M 1169.583 756.903 L 1169.583 761.806 L 1169.583 785.771" fill="none" vector-effect="non-scaling-stroke" stroke-width="3" stroke="rgb(28,20,19)" stroke-linejoin="miter" stroke-linecap="square" stroke-miterlimit="3"/><path d=" M 1162.306 756.903 L 1162.306 762.101 L 1162.306 785.771" fill="none" vector-effect="non-scaling-stroke" stroke-width="3" stroke="rgb(28,20,19)" stroke-linejoin="miter" stroke-linecap="square" stroke-miterlimit="3"/><path d=" M 1142.375 679.961 L 1149.875 679.961 L 1149.875 685.734 L 1142.375 685.734 L 1142.375 679.961 Z " fill="rgb(28,20,19)"/><path d=" M 1142.375 703.055 L 1149.875 703.055 L 1149.875 708.828 L 1142.375 708.828 L 1142.375 703.055 Z " fill="rgb(28,20,19)"/><path d=" M 1142.375 691.508 L 1149.875 691.508 L 1149.875 697.281 L 1142.375 697.281 L 1142.375 691.508 Z " fill="rgb(28,20,19)"/><path d=" M 1142.375 714.602 L 1149.875 714.602 L 1149.875 720.375 L 1142.375 720.375 L 1142.375 714.602 Z " fill="rgb(28,20,19)"/><path d=" M 1142.375 726.149 L 1149.875 726.149 L 1149.875 731.922 L 1142.375 731.922 L 1142.375 726.149 Z " fill="rgb(28,20,19)"/><path d=" M 1142.375 714.602 L 1149.875 714.602 L 1149.875 720.375 L 1142.375 720.375 L 1142.375 714.602 Z " fill="rgb(28,20,19)"/><path d=" M 1142.375 737.696 L 1149.875 737.696 L 1149.875 743.469 L 1142.375 743.469 L 1142.375 737.696 Z " fill="rgb(28,20,19)"/><path d=" M 1142.375 726.149 L 1149.875 726.149 L 1149.875 731.922 L 1142.375 731.922 L 1142.375 726.149 Z " fill="rgb(28,20,19)"/><path d=" M 1142.375 749.243 L 1149.875 749.243 L 1149.875 755.016 L 1142.375 755.016 L 1142.375 749.243 Z " fill="rgb(28,20,19)"/><path d=" M 1142.375 760.79 L 1149.875 760.79 L 1149.875 766.563 L 1142.375 766.563 L 1142.375 760.79 Z " fill="rgb(28,20,19)"/><path d=" M 1146.125 785.771 L 1151.125 785.771 L 1151.125 790.582 L 1146.125 790.582 L 1146.125 785.771 Z " fill="rgb(28,20,19)"/><path d=" M 1146.125 805.016 L 1151.125 805.016 L 1151.125 809.827 L 1146.125 809.827 L 1146.125 805.016 Z " fill="rgb(28,20,19)"/><path d=" M 1146.125 795.393 L 1151.125 795.393 L 1151.125 800.204 L 1146.125 800.204 L 1146.125 795.393 Z " fill="rgb(28,20,19)"/><path d=" M 1146.125 814.638 L 1151.125 814.638 L 1151.125 819.449 L 1146.125 819.449 L 1146.125 814.638 Z " fill="rgb(28,20,19)"/><path d=" M 1146.125 824.261 L 1151.125 824.261 L 1151.125 829.072 L 1146.125 829.072 L 1146.125 824.261 Z " fill="rgb(28,20,19)"/><path d=" M 1146.125 814.638 L 1151.125 814.638 L 1151.125 819.449 L 1146.125 819.449 L 1146.125 814.638 Z " fill="rgb(28,20,19)"/><path d=" M 1146.125 833.883 L 1151.125 833.883 L 1151.125 838.694 L 1146.125 838.694 L 1146.125 833.883 Z " fill="rgb(28,20,19)"/><path d=" M 1146.125 824.261 L 1151.125 824.261 L 1151.125 829.072 L 1146.125 829.072 L 1146.125 824.261 Z " fill="rgb(28,20,19)"/><path d=" M 1146.125 843.506 L 1151.125 843.506 L 1151.125 848.317 L 1146.125 848.317 L 1146.125 843.506 Z " fill="rgb(28,20,19)"/><path d=" M 1146.125 853.128 L 1151.125 853.128 L 1151.125 857.939 L 1146.125 857.939 L 1146.125 853.128 Z " fill="rgb(28,20,19)"/><path d=" M 1146.125 891.862 L 1151.125 891.862 L 1151.125 896.673 L 1146.125 896.673 L 1146.125 891.862 Z " fill="rgb(28,20,19)"/><path d=" M 1146.125 853.166 L 1151.125 853.166 L 1151.125 857.977 L 1146.125 857.977 L 1146.125 853.166 Z " fill="rgb(28,20,19)"/><path d=" M 1146.125 872.411 L 1151.125 872.411 L 1151.125 877.222 L 1146.125 877.222 L 1146.125 872.411 Z " fill="rgb(28,20,19)"/><path d=" M 1146.125 862.788 L 1151.125 862.788 L 1151.125 867.6 L 1146.125 867.6 L 1146.125 862.788 Z " fill="rgb(28,20,19)"/><path d=" M 1146.125 882.033 L 1151.125 882.033 L 1151.125 886.845 L 1146.125 886.845 L 1146.125 882.033 Z " fill="rgb(28,20,19)"/><path d=" M 1146.125 891.656 L 1151.125 891.656 L 1151.125 896.467 L 1146.125 896.467 L 1146.125 891.656 Z " fill="rgb(28,20,19)"/><path d=" M 1146.125 882.033 L 1151.125 882.033 L 1151.125 886.845 L 1146.125 886.845 L 1146.125 882.033 Z " fill="rgb(28,20,19)"/><path d=" M 1146.125 891.656 L 1151.125 891.656 L 1151.125 896.467 L 1146.125 896.467 L 1146.125 891.656 Z " fill="rgb(28,20,19)"/><path d=" M 1146.125 891.9 L 1151.125 891.9 L 1151.125 896.711 L 1146.125 896.711 L 1146.125 891.9 Z " fill="rgb(28,20,19)"/><path d=" M 1146.125 911.145 L 1151.125 911.145 L 1151.125 915.956 L 1146.125 915.956 L 1146.125 911.145 Z " fill="rgb(28,20,19)"/><path d=" M 1146.125 901.522 L 1151.125 901.522 L 1151.125 906.334 L 1146.125 906.334 L 1146.125 901.522 Z " fill="rgb(28,20,19)"/><path d=" M 1146.125 920.767 L 1151.125 920.767 L 1151.125 925.579 L 1146.125 925.579 L 1146.125 920.767 Z " fill="rgb(28,20,19)"/><path d=" M 1146.125 930.39 L 1151.125 930.39 L 1151.125 935.201 L 1146.125 935.201 L 1146.125 930.39 Z " fill="rgb(28,20,19)"/><path d=" M 1146.125 920.767 L 1151.125 920.767 L 1151.125 925.579 L 1146.125 925.579 L 1146.125 920.767 Z " fill="rgb(28,20,19)"/><path d=" M 1146.125 940.012 L 1151.125 940.012 L 1151.125 944.824 L 1146.125 944.824 L 1146.125 940.012 Z " fill="rgb(28,20,19)"/><path d=" M 1146.125 930.39 L 1151.125 930.39 L 1151.125 935.201 L 1146.125 935.201 L 1146.125 930.39 Z " fill="rgb(28,20,19)"/><path d=" M 1146.125 949.635 L 1151.125 949.635 L 1151.125 954.446 L 1146.125 954.446 L 1146.125 949.635 Z " fill="rgb(28,20,19)"/><path d=" M 1146.125 959.257 L 1151.125 959.257 L 1151.125 964.069 L 1146.125 964.069 L 1146.125 959.257 Z " fill="rgb(28,20,19)"/><path d=" M 1146.125 959.239 L 1151.125 959.239 L 1151.125 964.05 L 1146.125 964.05 L 1146.125 959.239 Z " fill="rgb(28,20,19)"/><path d=" M 1146.125 978.484 L 1151.125 978.484 L 1151.125 983.295 L 1146.125 983.295 L 1146.125 978.484 Z " fill="rgb(28,20,19)"/><path d=" M 1146.125 968.861 L 1151.125 968.861 L 1151.125 973.672 L 1146.125 973.672 L 1146.125 968.861 Z " fill="rgb(28,20,19)"/><path d=" M 1146.125 988.106 L 1151.125 988.106 L 1151.125 992.917 L 1146.125 992.917 L 1146.125 988.106 Z " fill="rgb(28,20,19)"/><path d=" M 1146.125 997.729 L 1151.125 997.729 L 1151.125 1002.54 L 1146.125 1002.54 L 1146.125 997.729 Z " fill="rgb(28,20,19)"/><path d=" M 1146.125 988.106 L 1151.125 988.106 L 1151.125 992.917 L 1146.125 992.917 L 1146.125 988.106 Z " fill="rgb(28,20,19)"/><path d=" M 1146.125 1007.351 L 1151.125 1007.351 L 1151.125 1012.162 L 1146.125 1012.162 L 1146.125 1007.351 Z " fill="rgb(28,20,19)"/><path d=" M 1146.125 997.729 L 1151.125 997.729 L 1151.125 1002.54 L 1146.125 1002.54 L 1146.125 997.729 Z " fill="rgb(28,20,19)"/><path d=" M 1146.125 1016.974 L 1151.125 1016.974 L 1151.125 1021.785 L 1146.125 1021.785 L 1146.125 1016.974 Z " fill="rgb(28,20,19)"/><path d=" M 1146.125 1026.596 L 1151.125 1026.596 L 1151.125 1031.407 L 1146.125 1031.407 L 1146.125 1026.596 Z " fill="rgb(28,20,19)"/><path d=" M 1146.125 1026.596 L 1151.125 1026.596 L 1151.125 1031.407 L 1146.125 1031.407 L 1146.125 1026.596 Z " fill="rgb(28,20,19)"/><path d=" M 1146.125 1045.841 L 1151.125 1045.841 L 1151.125 1050.652 L 1146.125 1050.652 L 1146.125 1045.841 Z " fill="rgb(28,20,19)"/><path d=" M 1146.125 1036.219 L 1151.125 1036.219 L 1151.125 1041.03 L 1146.125 1041.03 L 1146.125 1036.219 Z " fill="rgb(28,20,19)"/><path d=" M 1146.125 1055.464 L 1151.125 1055.464 L 1151.125 1060.275 L 1146.125 1060.275 L 1146.125 1055.464 Z " fill="rgb(28,20,19)"/><path d=" M 1146.125 1055.464 L 1151.125 1055.464 L 1151.125 1060.275 L 1146.125 1060.275 L 1146.125 1055.464 Z " fill="rgb(28,20,19)"/><path d=" M 1134.625 781.719 L 1137.125 783.162 L 1137.125 1053.78 L 1134.625 1052.336 L 1134.625 781.719 Z " fill="rgb(28,20,19)"/><path d=" M 1159.875 801.926 L 1162.375 803.369 L 1162.375 1068.448 L 1159.875 1066.77 L 1159.875 801.926 Z " fill="rgb(28,20,19)"/></g></g></g></svg>