<?xml version="1.0" standalone="no"?><!-- Generator: Gravit.io --><svg xmlns="http://www.w3.org/2000/svg" xmlns:xlink="http://www.w3.org/1999/xlink" style="isolation:isolate" viewBox="420 294.759 160 242.519" width="160" height="242.519"><g id="boa-crown"><g id="Group"><path d=" M 440 450.551 L 450 450.551 L 450 456.325 L 440 456.325 L 440 450.551 Z " fill="rgb(191,177,124)"/><path d=" M 440 450.551 L 450 450.551 L 450 456.325 L 440 456.325 L 440 450.551 Z " fill="rgb(191,177,124)"/><path d=" M 440 450.551 L 450 450.551 L 450 456.325 L 440 456.325 L 440 450.551 Z " fill="rgb(191,177,124)"/><path d=" M 550 450.551 L 560 450.551 L 560 456.325 L 550 456.325 L 550 450.551 Z " fill="rgb(191,177,124)"/><path d=" M 425 470.758 L 435 470.758 L 435 476.532 L 425 476.532 L 425 470.758 Z " fill="rgb(191,177,124)"/><path d=" M 565 470.758 L 575 470.758 L 575 476.532 L 565 476.532 L 565 470.758 Z " fill="rgb(191,177,124)"/><path d=" M 580 514.107 L 520 398.637 L 580 479.466 L 580 514.107 Z " fill="rgb(255,242,219)"/><clipPath id="_clipPath_ZV2E8H9ap5R7RuBRMlLN9To8kEriqkCy"><path d=" M 580 514.107 L 520 398.637 L 580 479.466 L 580 514.107 Z " fill="rgb(255,242,219)"/></clipPath><g clip-path="url(#_clipPath_ZV2E8H9ap5R7RuBRMlLN9To8kEriqkCy)"><g id="Group"><line x1="583.153" y1="363.949" x2="583.153" y2="560.248" vector-effect="non-scaling-stroke" stroke-width="3" stroke="rgb(91,66,63)" stroke-linejoin="miter" stroke-linecap="square" stroke-miterlimit="3"/><line x1="550.108" y1="363.949" x2="550.108" y2="560.248" vector-effect="non-scaling-stroke" stroke-width="3" stroke="rgb(91,66,63)" stroke-linejoin="miter" stroke-linecap="square" stroke-miterlimit="3"/><line x1="521.194" y1="363.949" x2="521.194" y2="560.248" vector-effect="non-scaling-stroke" stroke-width="3" stroke="rgb(91,66,63)" stroke-linejoin="miter" stroke-linecap="square" stroke-miterlimit="3"/><line x1="570.761" y1="363.949" x2="570.761" y2="560.248" vector-effect="non-scaling-stroke" stroke-width="3" stroke="rgb(91,66,63)" stroke-linejoin="miter" stroke-linecap="square" stroke-miterlimit="3"/><line x1="541.847" y1="363.949" x2="541.847" y2="560.248" vector-effect="non-scaling-stroke" stroke-width="3" stroke="rgb(91,66,63)" stroke-linejoin="miter" stroke-linecap="square" stroke-miterlimit="3"/><line x1="574.892" y1="363.949" x2="574.892" y2="560.248" vector-effect="non-scaling-stroke" stroke-width="3" stroke="rgb(91,66,63)" stroke-linejoin="miter" stroke-linecap="square" stroke-miterlimit="3"/><line x1="512.932" y1="363.949" x2="512.932" y2="560.248" vector-effect="non-scaling-stroke" stroke-width="3" stroke="rgb(91,66,63)" stroke-linejoin="miter" stroke-linecap="square" stroke-miterlimit="3"/><line x1="508.802" y1="363.949" x2="508.802" y2="560.248" vector-effect="non-scaling-stroke" stroke-width="3" stroke="rgb(91,66,63)" stroke-linejoin="miter" stroke-linecap="square" stroke-miterlimit="3"/><line x1="566.631" y1="363.949" x2="566.631" y2="560.248" vector-effect="non-scaling-stroke" stroke-width="3" stroke="rgb(91,66,63)" stroke-linejoin="miter" stroke-linecap="square" stroke-miterlimit="3"/><line x1="504.671" y1="363.949" x2="504.671" y2="560.248" vector-effect="non-scaling-stroke" stroke-width="3" stroke="rgb(91,66,63)" stroke-linejoin="miter" stroke-linecap="square" stroke-miterlimit="3"/><line x1="554.239" y1="363.949" x2="554.239" y2="560.248" vector-effect="non-scaling-stroke" stroke-width="3" stroke="rgb(91,66,63)" stroke-linejoin="miter" stroke-linecap="square" stroke-miterlimit="3"/><line x1="620.329" y1="363.949" x2="620.329" y2="560.248" vector-effect="non-scaling-stroke" stroke-width="3" stroke="rgb(91,66,63)" stroke-linejoin="miter" stroke-linecap="square" stroke-miterlimit="3"/><path d=" M 591.415 363.949 L 591.415 415.462 L 591.415 560.248" fill="none" vector-effect="non-scaling-stroke" stroke-width="3" stroke="rgb(91,66,63)" stroke-linejoin="miter" stroke-linecap="square" stroke-miterlimit="3"/><line x1="587.284" y1="363.949" x2="587.284" y2="560.248" vector-effect="non-scaling-stroke" stroke-width="3" stroke="rgb(91,66,63)" stroke-linejoin="miter" stroke-linecap="square" stroke-miterlimit="3"/><line x1="579.023" y1="363.949" x2="579.023" y2="560.248" vector-effect="non-scaling-stroke" stroke-width="3" stroke="rgb(91,66,63)" stroke-linejoin="miter" stroke-linecap="square" stroke-miterlimit="3"/><line x1="533.585" y1="363.949" x2="533.585" y2="560.248" vector-effect="non-scaling-stroke" stroke-width="3" stroke="rgb(91,66,63)" stroke-linejoin="miter" stroke-linecap="square" stroke-miterlimit="3"/><line x1="529.455" y1="363.949" x2="529.455" y2="560.248" vector-effect="non-scaling-stroke" stroke-width="3" stroke="rgb(91,66,63)" stroke-linejoin="miter" stroke-linecap="square" stroke-miterlimit="3"/><line x1="517.063" y1="363.949" x2="517.063" y2="560.248" vector-effect="non-scaling-stroke" stroke-width="3" stroke="rgb(91,66,63)" stroke-linejoin="miter" stroke-linecap="square" stroke-miterlimit="3"/><line x1="525.324" y1="363.949" x2="525.324" y2="560.248" vector-effect="non-scaling-stroke" stroke-width="3" stroke="rgb(91,66,63)" stroke-linejoin="miter" stroke-linecap="square" stroke-miterlimit="3"/><line x1="537.716" y1="363.949" x2="537.716" y2="560.248" vector-effect="non-scaling-stroke" stroke-width="3" stroke="rgb(91,66,63)" stroke-linejoin="miter" stroke-linecap="square" stroke-miterlimit="3"/><line x1="545.977" y1="363.949" x2="545.977" y2="560.248" vector-effect="non-scaling-stroke" stroke-width="3" stroke="rgb(91,66,63)" stroke-linejoin="miter" stroke-linecap="square" stroke-miterlimit="3"/><line x1="558.369" y1="363.949" x2="558.369" y2="560.248" vector-effect="non-scaling-stroke" stroke-width="3" stroke="rgb(91,66,63)" stroke-linejoin="miter" stroke-linecap="square" stroke-miterlimit="3"/><line x1="562.5" y1="363.949" x2="562.5" y2="560.248" vector-effect="non-scaling-stroke" stroke-width="3" stroke="rgb(91,66,63)" stroke-linejoin="miter" stroke-linecap="square" stroke-miterlimit="3"/><line x1="595.545" y1="363.949" x2="595.545" y2="560.248" vector-effect="non-scaling-stroke" stroke-width="3" stroke="rgb(91,66,63)" stroke-linejoin="miter" stroke-linecap="square" stroke-miterlimit="3"/><line x1="599.676" y1="363.949" x2="599.676" y2="560.248" vector-effect="non-scaling-stroke" stroke-width="3" stroke="rgb(91,66,63)" stroke-linejoin="miter" stroke-linecap="square" stroke-miterlimit="3"/><line x1="603.806" y1="363.949" x2="603.806" y2="560.248" vector-effect="non-scaling-stroke" stroke-width="3" stroke="rgb(91,66,63)" stroke-linejoin="miter" stroke-linecap="square" stroke-miterlimit="3"/><line x1="607.937" y1="363.949" x2="607.937" y2="560.248" vector-effect="non-scaling-stroke" stroke-width="3" stroke="rgb(91,66,63)" stroke-linejoin="miter" stroke-linecap="square" stroke-miterlimit="3"/><line x1="612.068" y1="363.949" x2="612.068" y2="560.248" vector-effect="non-scaling-stroke" stroke-width="3" stroke="rgb(91,66,63)" stroke-linejoin="miter" stroke-linecap="square" stroke-miterlimit="3"/><line x1="616.198" y1="363.949" x2="616.198" y2="560.248" vector-effect="non-scaling-stroke" stroke-width="3" stroke="rgb(91,66,63)" stroke-linejoin="miter" stroke-linecap="square" stroke-miterlimit="3"/></g></g><path d=" M 420.5 514.107 L 480.5 398.637 L 420.5 479.466 L 420.5 514.107 Z " fill="rgb(255,242,219)"/><clipPath id="_clipPath_zPPwEMIwETSK64CW63Y5wckvH07ptCAt"><path d=" M 420.5 514.107 L 480.5 398.637 L 420.5 479.466 L 420.5 514.107 Z " fill="rgb(255,242,219)"/></clipPath><g clip-path="url(#_clipPath_zPPwEMIwETSK64CW63Y5wckvH07ptCAt)"><g id="Group"><line x1="417.347" y1="363.949" x2="417.347" y2="560.248" vector-effect="non-scaling-stroke" stroke-width="3" stroke="rgb(91,66,63)" stroke-linejoin="miter" stroke-linecap="square" stroke-miterlimit="3"/><line x1="450.392" y1="363.949" x2="450.392" y2="560.248" vector-effect="non-scaling-stroke" stroke-width="3" stroke="rgb(91,66,63)" stroke-linejoin="miter" stroke-linecap="square" stroke-miterlimit="3"/><line x1="479.306" y1="363.949" x2="479.306" y2="560.248" vector-effect="non-scaling-stroke" stroke-width="3" stroke="rgb(91,66,63)" stroke-linejoin="miter" stroke-linecap="square" stroke-miterlimit="3"/><line x1="429.739" y1="363.949" x2="429.739" y2="560.248" vector-effect="non-scaling-stroke" stroke-width="3" stroke="rgb(91,66,63)" stroke-linejoin="miter" stroke-linecap="square" stroke-miterlimit="3"/><line x1="458.653" y1="363.949" x2="458.653" y2="560.248" vector-effect="non-scaling-stroke" stroke-width="3" stroke="rgb(91,66,63)" stroke-linejoin="miter" stroke-linecap="square" stroke-miterlimit="3"/><line x1="425.608" y1="363.949" x2="425.608" y2="560.248" vector-effect="non-scaling-stroke" stroke-width="3" stroke="rgb(91,66,63)" stroke-linejoin="miter" stroke-linecap="square" stroke-miterlimit="3"/><line x1="487.568" y1="363.949" x2="487.568" y2="560.248" vector-effect="non-scaling-stroke" stroke-width="3" stroke="rgb(91,66,63)" stroke-linejoin="miter" stroke-linecap="square" stroke-miterlimit="3"/><line x1="491.698" y1="363.949" x2="491.698" y2="560.248" vector-effect="non-scaling-stroke" stroke-width="3" stroke="rgb(91,66,63)" stroke-linejoin="miter" stroke-linecap="square" stroke-miterlimit="3"/><line x1="433.869" y1="363.949" x2="433.869" y2="560.248" vector-effect="non-scaling-stroke" stroke-width="3" stroke="rgb(91,66,63)" stroke-linejoin="miter" stroke-linecap="square" stroke-miterlimit="3"/><line x1="495.829" y1="363.949" x2="495.829" y2="560.248" vector-effect="non-scaling-stroke" stroke-width="3" stroke="rgb(91,66,63)" stroke-linejoin="miter" stroke-linecap="square" stroke-miterlimit="3"/><line x1="446.261" y1="363.949" x2="446.261" y2="560.248" vector-effect="non-scaling-stroke" stroke-width="3" stroke="rgb(91,66,63)" stroke-linejoin="miter" stroke-linecap="square" stroke-miterlimit="3"/><line x1="380.171" y1="363.949" x2="380.171" y2="560.248" vector-effect="non-scaling-stroke" stroke-width="3" stroke="rgb(91,66,63)" stroke-linejoin="miter" stroke-linecap="square" stroke-miterlimit="3"/><path d=" M 409.085 363.949 L 409.085 415.462 L 409.085 560.248" fill="none" vector-effect="non-scaling-stroke" stroke-width="3" stroke="rgb(91,66,63)" stroke-linejoin="miter" stroke-linecap="square" stroke-miterlimit="3"/><line x1="413.216" y1="363.949" x2="413.216" y2="560.248" vector-effect="non-scaling-stroke" stroke-width="3" stroke="rgb(91,66,63)" stroke-linejoin="miter" stroke-linecap="square" stroke-miterlimit="3"/><line x1="421.477" y1="363.949" x2="421.477" y2="560.248" vector-effect="non-scaling-stroke" stroke-width="3" stroke="rgb(91,66,63)" stroke-linejoin="miter" stroke-linecap="square" stroke-miterlimit="3"/><line x1="466.915" y1="363.949" x2="466.915" y2="560.248" vector-effect="non-scaling-stroke" stroke-width="3" stroke="rgb(91,66,63)" stroke-linejoin="miter" stroke-linecap="square" stroke-miterlimit="3"/><line x1="471.045" y1="363.949" x2="471.045" y2="560.248" vector-effect="non-scaling-stroke" stroke-width="3" stroke="rgb(91,66,63)" stroke-linejoin="miter" stroke-linecap="square" stroke-miterlimit="3"/><line x1="483.437" y1="363.949" x2="483.437" y2="560.248" vector-effect="non-scaling-stroke" stroke-width="3" stroke="rgb(91,66,63)" stroke-linejoin="miter" stroke-linecap="square" stroke-miterlimit="3"/><line x1="475.176" y1="363.949" x2="475.176" y2="560.248" vector-effect="non-scaling-stroke" stroke-width="3" stroke="rgb(91,66,63)" stroke-linejoin="miter" stroke-linecap="square" stroke-miterlimit="3"/><line x1="462.784" y1="363.949" x2="462.784" y2="560.248" vector-effect="non-scaling-stroke" stroke-width="3" stroke="rgb(91,66,63)" stroke-linejoin="miter" stroke-linecap="square" stroke-miterlimit="3"/><line x1="454.523" y1="363.949" x2="454.523" y2="560.248" vector-effect="non-scaling-stroke" stroke-width="3" stroke="rgb(91,66,63)" stroke-linejoin="miter" stroke-linecap="square" stroke-miterlimit="3"/><line x1="442.131" y1="363.949" x2="442.131" y2="560.248" vector-effect="non-scaling-stroke" stroke-width="3" stroke="rgb(91,66,63)" stroke-linejoin="miter" stroke-linecap="square" stroke-miterlimit="3"/><line x1="438" y1="363.949" x2="438" y2="560.248" vector-effect="non-scaling-stroke" stroke-width="3" stroke="rgb(91,66,63)" stroke-linejoin="miter" stroke-linecap="square" stroke-miterlimit="3"/><line x1="404.955" y1="363.949" x2="404.955" y2="560.248" vector-effect="non-scaling-stroke" stroke-width="3" stroke="rgb(91,66,63)" stroke-linejoin="miter" stroke-linecap="square" stroke-miterlimit="3"/><line x1="400.824" y1="363.949" x2="400.824" y2="560.248" vector-effect="non-scaling-stroke" stroke-width="3" stroke="rgb(91,66,63)" stroke-linejoin="miter" stroke-linecap="square" stroke-miterlimit="3"/><line x1="396.694" y1="363.949" x2="396.694" y2="560.248" vector-effect="non-scaling-stroke" stroke-width="3" stroke="rgb(91,66,63)" stroke-linejoin="miter" stroke-linecap="square" stroke-miterlimit="3"/><line x1="392.563" y1="363.949" x2="392.563" y2="560.248" vector-effect="non-scaling-stroke" stroke-width="3" stroke="rgb(91,66,63)" stroke-linejoin="miter" stroke-linecap="square" stroke-miterlimit="3"/><line x1="388.432" y1="363.949" x2="388.432" y2="560.248" vector-effect="non-scaling-stroke" stroke-width="3" stroke="rgb(91,66,63)" stroke-linejoin="miter" stroke-linecap="square" stroke-miterlimit="3"/><line x1="384.302" y1="363.949" x2="384.302" y2="560.248" vector-effect="non-scaling-stroke" stroke-width="3" stroke="rgb(91,66,63)" stroke-linejoin="miter" stroke-linecap="square" stroke-miterlimit="3"/></g></g><path d=" M 500 375.308 L 520 386.855 L 500 398.402 L 480 386.855 L 500 375.308 Z " fill="rgb(91,66,63)"/><path d=" M 500 514.154 L 520 398.59 L 580 514.154 L 500 514.154 Z " fill="rgb(255,242,219)"/><clipPath id="_clipPath_i8E6YzT6zFiDJo1GqlrDLutBMcfyWVRL"><path d=" M 500 514.154 L 520 398.59 L 580 514.154 L 500 514.154 Z " fill="rgb(255,242,219)"/></clipPath><g clip-path="url(#_clipPath_i8E6YzT6zFiDJo1GqlrDLutBMcfyWVRL)"><g id="Group"><line x1="495" y1="459.818" x2="595" y2="459.818" vector-effect="non-scaling-stroke" stroke-width="3" stroke="rgb(91,66,63)" stroke-linejoin="miter" stroke-linecap="square" stroke-miterlimit="3"/><line x1="495" y1="486.508" x2="595" y2="486.508" vector-effect="non-scaling-stroke" stroke-width="3" stroke="rgb(91,66,63)" stroke-linejoin="miter" stroke-linecap="square" stroke-miterlimit="3"/><line x1="495" y1="526.544" x2="595" y2="526.544" vector-effect="non-scaling-stroke" stroke-width="3" stroke="rgb(91,66,63)" stroke-linejoin="miter" stroke-linecap="square" stroke-miterlimit="3"/><line x1="495" y1="499.853" x2="595" y2="499.853" vector-effect="non-scaling-stroke" stroke-width="3" stroke="rgb(91,66,63)" stroke-linejoin="miter" stroke-linecap="square" stroke-miterlimit="3"/><line x1="495" y1="504.302" x2="595" y2="504.302" vector-effect="non-scaling-stroke" stroke-width="3" stroke="rgb(91,66,63)" stroke-linejoin="miter" stroke-linecap="square" stroke-miterlimit="3"/><line x1="495" y1="508.75" x2="595" y2="508.75" vector-effect="non-scaling-stroke" stroke-width="3" stroke="rgb(91,66,63)" stroke-linejoin="miter" stroke-linecap="square" stroke-miterlimit="3"/><line x1="495" y1="535.44" x2="595" y2="535.44" vector-effect="non-scaling-stroke" stroke-width="3" stroke="rgb(91,66,63)" stroke-linejoin="miter" stroke-linecap="square" stroke-miterlimit="3"/><line x1="495" y1="539.889" x2="595" y2="539.889" vector-effect="non-scaling-stroke" stroke-width="3" stroke="rgb(91,66,63)" stroke-linejoin="miter" stroke-linecap="square" stroke-miterlimit="3"/><line x1="495" y1="468.715" x2="595" y2="468.715" vector-effect="non-scaling-stroke" stroke-width="3" stroke="rgb(91,66,63)" stroke-linejoin="miter" stroke-linecap="square" stroke-miterlimit="3"/><line x1="495" y1="455.369" x2="595" y2="455.369" vector-effect="non-scaling-stroke" stroke-width="3" stroke="rgb(91,66,63)" stroke-linejoin="miter" stroke-linecap="square" stroke-miterlimit="3"/><line x1="495" y1="495.405" x2="595" y2="495.405" vector-effect="non-scaling-stroke" stroke-width="3" stroke="rgb(91,66,63)" stroke-linejoin="miter" stroke-linecap="square" stroke-miterlimit="3"/><line x1="495" y1="446.473" x2="595" y2="446.473" vector-effect="non-scaling-stroke" stroke-width="3" stroke="rgb(91,66,63)" stroke-linejoin="miter" stroke-linecap="square" stroke-miterlimit="3"/><line x1="495" y1="464.266" x2="595" y2="464.266" vector-effect="non-scaling-stroke" stroke-width="3" stroke="rgb(91,66,63)" stroke-linejoin="miter" stroke-linecap="square" stroke-miterlimit="3"/><line x1="495" y1="424.231" x2="595" y2="424.231" vector-effect="non-scaling-stroke" stroke-width="3" stroke="rgb(91,66,63)" stroke-linejoin="miter" stroke-linecap="square" stroke-miterlimit="3"/><line x1="495" y1="477.611" x2="595" y2="477.611" vector-effect="non-scaling-stroke" stroke-width="3" stroke="rgb(91,66,63)" stroke-linejoin="miter" stroke-linecap="square" stroke-miterlimit="3"/><line x1="495" y1="513.198" x2="595" y2="513.198" vector-effect="non-scaling-stroke" stroke-width="3" stroke="rgb(91,66,63)" stroke-linejoin="miter" stroke-linecap="square" stroke-miterlimit="3"/><line x1="495" y1="517.647" x2="595" y2="517.647" vector-effect="non-scaling-stroke" stroke-width="3" stroke="rgb(91,66,63)" stroke-linejoin="miter" stroke-linecap="square" stroke-miterlimit="3"/><line x1="495" y1="530.992" x2="595" y2="530.992" vector-effect="non-scaling-stroke" stroke-width="3" stroke="rgb(91,66,63)" stroke-linejoin="miter" stroke-linecap="square" stroke-miterlimit="3"/><line x1="495" y1="522.095" x2="595" y2="522.095" vector-effect="non-scaling-stroke" stroke-width="3" stroke="rgb(91,66,63)" stroke-linejoin="miter" stroke-linecap="square" stroke-miterlimit="3"/><line x1="495" y1="473.163" x2="595" y2="473.163" vector-effect="non-scaling-stroke" stroke-width="3" stroke="rgb(91,66,63)" stroke-linejoin="miter" stroke-linecap="square" stroke-miterlimit="3"/><line x1="495" y1="482.06" x2="595" y2="482.06" vector-effect="non-scaling-stroke" stroke-width="3" stroke="rgb(91,66,63)" stroke-linejoin="miter" stroke-linecap="square" stroke-miterlimit="3"/><line x1="495" y1="490.956" x2="595" y2="490.956" vector-effect="non-scaling-stroke" stroke-width="3" stroke="rgb(91,66,63)" stroke-linejoin="miter" stroke-linecap="square" stroke-miterlimit="3"/><line x1="495" y1="442.024" x2="595" y2="442.024" vector-effect="non-scaling-stroke" stroke-width="3" stroke="rgb(91,66,63)" stroke-linejoin="miter" stroke-linecap="square" stroke-miterlimit="3"/><line x1="495" y1="437.576" x2="595" y2="437.576" vector-effect="non-scaling-stroke" stroke-width="3" stroke="rgb(91,66,63)" stroke-linejoin="miter" stroke-linecap="square" stroke-miterlimit="3"/><line x1="495" y1="433.127" x2="595" y2="433.127" vector-effect="non-scaling-stroke" stroke-width="3" stroke="rgb(91,66,63)" stroke-linejoin="miter" stroke-linecap="square" stroke-miterlimit="3"/><line x1="495" y1="450.921" x2="595" y2="450.921" vector-effect="non-scaling-stroke" stroke-width="3" stroke="rgb(91,66,63)" stroke-linejoin="miter" stroke-linecap="square" stroke-miterlimit="3"/><line x1="495" y1="428.679" x2="595" y2="428.679" vector-effect="non-scaling-stroke" stroke-width="3" stroke="rgb(91,66,63)" stroke-linejoin="miter" stroke-linecap="square" stroke-miterlimit="3"/></g></g><path d=" M 500 514.154 L 480 398.59 L 420 514.154 L 500 514.154 Z " fill="rgb(255,242,219)"/><clipPath id="_clipPath_kXqHE0qNWd9ZsRXFT31o4I7uZbh9V617"><path d=" M 500 514.154 L 480 398.59 L 420 514.154 L 500 514.154 Z " fill="rgb(255,242,219)"/></clipPath><g clip-path="url(#_clipPath_kXqHE0qNWd9ZsRXFT31o4I7uZbh9V617)"><g id="Group"><line x1="495" y1="457.177" x2="395" y2="457.177" vector-effect="non-scaling-stroke" stroke-width="3" stroke="rgb(91,66,63)" stroke-linejoin="miter" stroke-linecap="square" stroke-miterlimit="3"/><line x1="495" y1="483.867" x2="395" y2="483.867" vector-effect="non-scaling-stroke" stroke-width="3" stroke="rgb(91,66,63)" stroke-linejoin="miter" stroke-linecap="square" stroke-miterlimit="3"/><line x1="495" y1="523.903" x2="395" y2="523.903" vector-effect="non-scaling-stroke" stroke-width="3" stroke="rgb(91,66,63)" stroke-linejoin="miter" stroke-linecap="square" stroke-miterlimit="3"/><line x1="495" y1="497.212" x2="395" y2="497.212" vector-effect="non-scaling-stroke" stroke-width="3" stroke="rgb(91,66,63)" stroke-linejoin="miter" stroke-linecap="square" stroke-miterlimit="3"/><line x1="495" y1="501.661" x2="395" y2="501.661" vector-effect="non-scaling-stroke" stroke-width="3" stroke="rgb(91,66,63)" stroke-linejoin="miter" stroke-linecap="square" stroke-miterlimit="3"/><line x1="495" y1="506.109" x2="395" y2="506.109" vector-effect="non-scaling-stroke" stroke-width="3" stroke="rgb(91,66,63)" stroke-linejoin="miter" stroke-linecap="square" stroke-miterlimit="3"/><line x1="495" y1="532.799" x2="395" y2="532.799" vector-effect="non-scaling-stroke" stroke-width="3" stroke="rgb(91,66,63)" stroke-linejoin="miter" stroke-linecap="square" stroke-miterlimit="3"/><line x1="495" y1="537.248" x2="395" y2="537.248" vector-effect="non-scaling-stroke" stroke-width="3" stroke="rgb(91,66,63)" stroke-linejoin="miter" stroke-linecap="square" stroke-miterlimit="3"/><line x1="495" y1="466.074" x2="395" y2="466.074" vector-effect="non-scaling-stroke" stroke-width="3" stroke="rgb(91,66,63)" stroke-linejoin="miter" stroke-linecap="square" stroke-miterlimit="3"/><line x1="495" y1="452.728" x2="395" y2="452.728" vector-effect="non-scaling-stroke" stroke-width="3" stroke="rgb(91,66,63)" stroke-linejoin="miter" stroke-linecap="square" stroke-miterlimit="3"/><line x1="495" y1="492.764" x2="395" y2="492.764" vector-effect="non-scaling-stroke" stroke-width="3" stroke="rgb(91,66,63)" stroke-linejoin="miter" stroke-linecap="square" stroke-miterlimit="3"/><line x1="495" y1="443.832" x2="395" y2="443.832" vector-effect="non-scaling-stroke" stroke-width="3" stroke="rgb(91,66,63)" stroke-linejoin="miter" stroke-linecap="square" stroke-miterlimit="3"/><line x1="495" y1="461.625" x2="395" y2="461.625" vector-effect="non-scaling-stroke" stroke-width="3" stroke="rgb(91,66,63)" stroke-linejoin="miter" stroke-linecap="square" stroke-miterlimit="3"/><line x1="495" y1="421.59" x2="395" y2="421.59" vector-effect="non-scaling-stroke" stroke-width="3" stroke="rgb(91,66,63)" stroke-linejoin="miter" stroke-linecap="square" stroke-miterlimit="3"/><line x1="495" y1="474.97" x2="395" y2="474.97" vector-effect="non-scaling-stroke" stroke-width="3" stroke="rgb(91,66,63)" stroke-linejoin="miter" stroke-linecap="square" stroke-miterlimit="3"/><line x1="495" y1="510.557" x2="395" y2="510.557" vector-effect="non-scaling-stroke" stroke-width="3" stroke="rgb(91,66,63)" stroke-linejoin="miter" stroke-linecap="square" stroke-miterlimit="3"/><line x1="495" y1="515.006" x2="395" y2="515.006" vector-effect="non-scaling-stroke" stroke-width="3" stroke="rgb(91,66,63)" stroke-linejoin="miter" stroke-linecap="square" stroke-miterlimit="3"/><line x1="495" y1="528.351" x2="395" y2="528.351" vector-effect="non-scaling-stroke" stroke-width="3" stroke="rgb(91,66,63)" stroke-linejoin="miter" stroke-linecap="square" stroke-miterlimit="3"/><line x1="495" y1="519.454" x2="395" y2="519.454" vector-effect="non-scaling-stroke" stroke-width="3" stroke="rgb(91,66,63)" stroke-linejoin="miter" stroke-linecap="square" stroke-miterlimit="3"/><line x1="495" y1="470.522" x2="395" y2="470.522" vector-effect="non-scaling-stroke" stroke-width="3" stroke="rgb(91,66,63)" stroke-linejoin="miter" stroke-linecap="square" stroke-miterlimit="3"/><line x1="495" y1="479.419" x2="395" y2="479.419" vector-effect="non-scaling-stroke" stroke-width="3" stroke="rgb(91,66,63)" stroke-linejoin="miter" stroke-linecap="square" stroke-miterlimit="3"/><line x1="495" y1="488.315" x2="395" y2="488.315" vector-effect="non-scaling-stroke" stroke-width="3" stroke="rgb(91,66,63)" stroke-linejoin="miter" stroke-linecap="square" stroke-miterlimit="3"/><line x1="495" y1="439.383" x2="395" y2="439.383" vector-effect="non-scaling-stroke" stroke-width="3" stroke="rgb(91,66,63)" stroke-linejoin="miter" stroke-linecap="square" stroke-miterlimit="3"/><line x1="495" y1="434.935" x2="395" y2="434.935" vector-effect="non-scaling-stroke" stroke-width="3" stroke="rgb(91,66,63)" stroke-linejoin="miter" stroke-linecap="square" stroke-miterlimit="3"/><line x1="495" y1="430.486" x2="395" y2="430.486" vector-effect="non-scaling-stroke" stroke-width="3" stroke="rgb(91,66,63)" stroke-linejoin="miter" stroke-linecap="square" stroke-miterlimit="3"/><line x1="495" y1="448.28" x2="395" y2="448.28" vector-effect="non-scaling-stroke" stroke-width="3" stroke="rgb(91,66,63)" stroke-linejoin="miter" stroke-linecap="square" stroke-miterlimit="3"/><line x1="495" y1="426.038" x2="395" y2="426.038" vector-effect="non-scaling-stroke" stroke-width="3" stroke="rgb(91,66,63)" stroke-linejoin="miter" stroke-linecap="square" stroke-miterlimit="3"/></g></g><path d=" M 520 386.855 L 560 514.06 L 519.785 537.278 L 500 537.154 L 500 398.402 L 520 386.855 Z " fill="rgb(255,242,219)"/><clipPath id="_clipPath_5Zxwvctww2gNXXYIBbVNCLF5t4MgEZx4"><path d=" M 520 386.855 L 560 514.06 L 519.785 537.278 L 500 537.154 L 500 398.402 L 520 386.855 Z " fill="rgb(255,242,219)"/></clipPath><g clip-path="url(#_clipPath_5Zxwvctww2gNXXYIBbVNCLF5t4MgEZx4)"><g id="Group"><line x1="572.405" y1="370.478" x2="485.595" y2="420.117" vector-effect="non-scaling-stroke" stroke-width="3" stroke="rgb(91,66,63)" stroke-linejoin="miter" stroke-linecap="square" stroke-miterlimit="3"/><line x1="572.405" y1="504.234" x2="485.595" y2="553.873" vector-effect="non-scaling-stroke" stroke-width="3" stroke="rgb(91,66,63)" stroke-linejoin="miter" stroke-linecap="square" stroke-miterlimit="3"/><line x1="572.405" y1="442.5" x2="485.595" y2="492.139" vector-effect="non-scaling-stroke" stroke-width="3" stroke="rgb(91,66,63)" stroke-linejoin="miter" stroke-linecap="square" stroke-miterlimit="3"/><line x1="572.405" y1="488.801" x2="485.595" y2="538.439" vector-effect="non-scaling-stroke" stroke-width="3" stroke="rgb(91,66,63)" stroke-linejoin="miter" stroke-linecap="square" stroke-miterlimit="3"/><line x1="572.405" y1="483.656" x2="485.595" y2="533.295" vector-effect="non-scaling-stroke" stroke-width="3" stroke="rgb(91,66,63)" stroke-linejoin="miter" stroke-linecap="square" stroke-miterlimit="3"/><line x1="572.405" y1="478.512" x2="485.595" y2="528.15" vector-effect="non-scaling-stroke" stroke-width="3" stroke="rgb(91,66,63)" stroke-linejoin="miter" stroke-linecap="square" stroke-miterlimit="3"/><line x1="572.405" y1="473.367" x2="485.595" y2="523.006" vector-effect="non-scaling-stroke" stroke-width="3" stroke="rgb(91,66,63)" stroke-linejoin="miter" stroke-linecap="square" stroke-miterlimit="3"/><line x1="572.405" y1="468.223" x2="485.595" y2="517.862" vector-effect="non-scaling-stroke" stroke-width="3" stroke="rgb(91,66,63)" stroke-linejoin="miter" stroke-linecap="square" stroke-miterlimit="3"/><line x1="572.405" y1="421.923" x2="485.595" y2="471.561" vector-effect="non-scaling-stroke" stroke-width="3" stroke="rgb(91,66,63)" stroke-linejoin="miter" stroke-linecap="square" stroke-miterlimit="3"/><line x1="572.405" y1="406.489" x2="485.595" y2="456.128" vector-effect="non-scaling-stroke" stroke-width="3" stroke="rgb(91,66,63)" stroke-linejoin="miter" stroke-linecap="square" stroke-miterlimit="3"/><line x1="572.405" y1="452.789" x2="485.595" y2="502.428" vector-effect="non-scaling-stroke" stroke-width="3" stroke="rgb(91,66,63)" stroke-linejoin="miter" stroke-linecap="square" stroke-miterlimit="3"/><path d=" M 572.405 391.056 L 502.961 430.764 L 485.595 440.695" fill="none" vector-effect="non-scaling-stroke" stroke-width="3" stroke="rgb(91,66,63)" stroke-linejoin="miter" stroke-linecap="square" stroke-miterlimit="3"/><line x1="572.405" y1="380.767" x2="485.595" y2="430.406" vector-effect="non-scaling-stroke" stroke-width="3" stroke="rgb(91,66,63)" stroke-linejoin="miter" stroke-linecap="square" stroke-miterlimit="3"/><line x1="572.405" y1="365.334" x2="485.595" y2="414.972" vector-effect="non-scaling-stroke" stroke-width="3" stroke="rgb(91,66,63)" stroke-linejoin="miter" stroke-linecap="square" stroke-miterlimit="3"/><line x1="572.405" y1="375.622" x2="485.595" y2="425.261" vector-effect="non-scaling-stroke" stroke-width="3" stroke="rgb(91,66,63)" stroke-linejoin="miter" stroke-linecap="square" stroke-miterlimit="3"/><line x1="572.405" y1="401.345" x2="485.595" y2="450.984" vector-effect="non-scaling-stroke" stroke-width="3" stroke="rgb(91,66,63)" stroke-linejoin="miter" stroke-linecap="square" stroke-miterlimit="3"/><line x1="572.405" y1="427.067" x2="485.595" y2="476.706" vector-effect="non-scaling-stroke" stroke-width="3" stroke="rgb(91,66,63)" stroke-linejoin="miter" stroke-linecap="square" stroke-miterlimit="3"/><line x1="572.405" y1="493.945" x2="485.595" y2="543.584" vector-effect="non-scaling-stroke" stroke-width="3" stroke="rgb(91,66,63)" stroke-linejoin="miter" stroke-linecap="square" stroke-miterlimit="3"/><line x1="572.405" y1="457.934" x2="485.595" y2="507.573" vector-effect="non-scaling-stroke" stroke-width="3" stroke="rgb(91,66,63)" stroke-linejoin="miter" stroke-linecap="square" stroke-miterlimit="3"/><line x1="572.405" y1="411.634" x2="485.595" y2="461.272" vector-effect="non-scaling-stroke" stroke-width="3" stroke="rgb(91,66,63)" stroke-linejoin="miter" stroke-linecap="square" stroke-miterlimit="3"/><line x1="572.405" y1="463.078" x2="485.595" y2="512.717" vector-effect="non-scaling-stroke" stroke-width="3" stroke="rgb(91,66,63)" stroke-linejoin="miter" stroke-linecap="square" stroke-miterlimit="3"/><line x1="572.405" y1="447.645" x2="485.595" y2="497.284" vector-effect="non-scaling-stroke" stroke-width="3" stroke="rgb(91,66,63)" stroke-linejoin="miter" stroke-linecap="square" stroke-miterlimit="3"/><line x1="572.405" y1="396.2" x2="485.595" y2="445.839" vector-effect="non-scaling-stroke" stroke-width="3" stroke="rgb(91,66,63)" stroke-linejoin="miter" stroke-linecap="square" stroke-miterlimit="3"/><line x1="572.405" y1="416.778" x2="485.595" y2="466.417" vector-effect="non-scaling-stroke" stroke-width="3" stroke="rgb(91,66,63)" stroke-linejoin="miter" stroke-linecap="square" stroke-miterlimit="3"/><line x1="572.405" y1="499.09" x2="485.595" y2="548.728" vector-effect="non-scaling-stroke" stroke-width="3" stroke="rgb(91,66,63)" stroke-linejoin="miter" stroke-linecap="square" stroke-miterlimit="3"/><line x1="572.405" y1="432.212" x2="485.595" y2="481.85" vector-effect="non-scaling-stroke" stroke-width="3" stroke="rgb(91,66,63)" stroke-linejoin="miter" stroke-linecap="square" stroke-miterlimit="3"/><line x1="572.405" y1="437.356" x2="485.595" y2="486.995" vector-effect="non-scaling-stroke" stroke-width="3" stroke="rgb(91,66,63)" stroke-linejoin="miter" stroke-linecap="square" stroke-miterlimit="3"/><line x1="572.405" y1="385.911" x2="485.595" y2="435.55" vector-effect="non-scaling-stroke" stroke-width="3" stroke="rgb(91,66,63)" stroke-linejoin="miter" stroke-linecap="square" stroke-miterlimit="3"/></g></g><path d=" M 480 386.855 L 440 514.06 L 480.215 537.278 L 500 537.154 L 500 398.402 L 480 386.855 Z " fill="rgb(255,242,219)"/><clipPath id="_clipPath_ZIkMZX7tw04vFOmnB2mtu6Mbk6hZMRq1"><path d=" M 480 386.855 L 440 514.06 L 480.215 537.278 L 500 537.154 L 500 398.402 L 480 386.855 Z " fill="rgb(255,242,219)"/></clipPath><g clip-path="url(#_clipPath_ZIkMZX7tw04vFOmnB2mtu6Mbk6hZMRq1)"><g id="Group"><line x1="427.595" y1="370.478" x2="514.405" y2="420.117" vector-effect="non-scaling-stroke" stroke-width="3" stroke="rgb(91,66,63)" stroke-linejoin="miter" stroke-linecap="square" stroke-miterlimit="3"/><line x1="427.595" y1="504.234" x2="514.405" y2="553.873" vector-effect="non-scaling-stroke" stroke-width="3" stroke="rgb(91,66,63)" stroke-linejoin="miter" stroke-linecap="square" stroke-miterlimit="3"/><line x1="427.595" y1="442.5" x2="514.405" y2="492.139" vector-effect="non-scaling-stroke" stroke-width="3" stroke="rgb(91,66,63)" stroke-linejoin="miter" stroke-linecap="square" stroke-miterlimit="3"/><line x1="427.595" y1="488.801" x2="514.405" y2="538.439" vector-effect="non-scaling-stroke" stroke-width="3" stroke="rgb(91,66,63)" stroke-linejoin="miter" stroke-linecap="square" stroke-miterlimit="3"/><line x1="427.595" y1="483.656" x2="514.405" y2="533.295" vector-effect="non-scaling-stroke" stroke-width="3" stroke="rgb(91,66,63)" stroke-linejoin="miter" stroke-linecap="square" stroke-miterlimit="3"/><line x1="427.595" y1="478.512" x2="514.405" y2="528.15" vector-effect="non-scaling-stroke" stroke-width="3" stroke="rgb(91,66,63)" stroke-linejoin="miter" stroke-linecap="square" stroke-miterlimit="3"/><line x1="427.595" y1="473.367" x2="514.405" y2="523.006" vector-effect="non-scaling-stroke" stroke-width="3" stroke="rgb(91,66,63)" stroke-linejoin="miter" stroke-linecap="square" stroke-miterlimit="3"/><line x1="427.595" y1="468.223" x2="514.405" y2="517.862" vector-effect="non-scaling-stroke" stroke-width="3" stroke="rgb(91,66,63)" stroke-linejoin="miter" stroke-linecap="square" stroke-miterlimit="3"/><line x1="427.595" y1="421.923" x2="514.405" y2="471.561" vector-effect="non-scaling-stroke" stroke-width="3" stroke="rgb(91,66,63)" stroke-linejoin="miter" stroke-linecap="square" stroke-miterlimit="3"/><line x1="427.595" y1="406.489" x2="514.405" y2="456.128" vector-effect="non-scaling-stroke" stroke-width="3" stroke="rgb(91,66,63)" stroke-linejoin="miter" stroke-linecap="square" stroke-miterlimit="3"/><line x1="427.595" y1="452.789" x2="514.405" y2="502.428" vector-effect="non-scaling-stroke" stroke-width="3" stroke="rgb(91,66,63)" stroke-linejoin="miter" stroke-linecap="square" stroke-miterlimit="3"/><path d=" M 427.595 391.056 L 497.039 430.764 L 514.405 440.695" fill="none" vector-effect="non-scaling-stroke" stroke-width="3" stroke="rgb(91,66,63)" stroke-linejoin="miter" stroke-linecap="square" stroke-miterlimit="3"/><line x1="427.595" y1="380.767" x2="514.405" y2="430.406" vector-effect="non-scaling-stroke" stroke-width="3" stroke="rgb(91,66,63)" stroke-linejoin="miter" stroke-linecap="square" stroke-miterlimit="3"/><line x1="427.595" y1="365.334" x2="514.405" y2="414.972" vector-effect="non-scaling-stroke" stroke-width="3" stroke="rgb(91,66,63)" stroke-linejoin="miter" stroke-linecap="square" stroke-miterlimit="3"/><line x1="427.595" y1="375.622" x2="514.405" y2="425.261" vector-effect="non-scaling-stroke" stroke-width="3" stroke="rgb(91,66,63)" stroke-linejoin="miter" stroke-linecap="square" stroke-miterlimit="3"/><line x1="427.595" y1="401.345" x2="514.405" y2="450.984" vector-effect="non-scaling-stroke" stroke-width="3" stroke="rgb(91,66,63)" stroke-linejoin="miter" stroke-linecap="square" stroke-miterlimit="3"/><line x1="427.595" y1="427.067" x2="514.405" y2="476.706" vector-effect="non-scaling-stroke" stroke-width="3" stroke="rgb(91,66,63)" stroke-linejoin="miter" stroke-linecap="square" stroke-miterlimit="3"/><line x1="427.595" y1="493.945" x2="514.405" y2="543.584" vector-effect="non-scaling-stroke" stroke-width="3" stroke="rgb(91,66,63)" stroke-linejoin="miter" stroke-linecap="square" stroke-miterlimit="3"/><line x1="427.595" y1="457.934" x2="514.405" y2="507.573" vector-effect="non-scaling-stroke" stroke-width="3" stroke="rgb(91,66,63)" stroke-linejoin="miter" stroke-linecap="square" stroke-miterlimit="3"/><line x1="427.595" y1="411.634" x2="514.405" y2="461.272" vector-effect="non-scaling-stroke" stroke-width="3" stroke="rgb(91,66,63)" stroke-linejoin="miter" stroke-linecap="square" stroke-miterlimit="3"/><line x1="427.595" y1="463.078" x2="514.405" y2="512.717" vector-effect="non-scaling-stroke" stroke-width="3" stroke="rgb(91,66,63)" stroke-linejoin="miter" stroke-linecap="square" stroke-miterlimit="3"/><line x1="427.595" y1="447.645" x2="514.405" y2="497.284" vector-effect="non-scaling-stroke" stroke-width="3" stroke="rgb(91,66,63)" stroke-linejoin="miter" stroke-linecap="square" stroke-miterlimit="3"/><line x1="427.595" y1="396.2" x2="514.405" y2="445.839" vector-effect="non-scaling-stroke" stroke-width="3" stroke="rgb(91,66,63)" stroke-linejoin="miter" stroke-linecap="square" stroke-miterlimit="3"/><line x1="427.595" y1="416.778" x2="514.405" y2="466.417" vector-effect="non-scaling-stroke" stroke-width="3" stroke="rgb(91,66,63)" stroke-linejoin="miter" stroke-linecap="square" stroke-miterlimit="3"/><line x1="427.595" y1="499.09" x2="514.405" y2="548.728" vector-effect="non-scaling-stroke" stroke-width="3" stroke="rgb(91,66,63)" stroke-linejoin="miter" stroke-linecap="square" stroke-miterlimit="3"/><line x1="427.595" y1="432.212" x2="514.405" y2="481.85" vector-effect="non-scaling-stroke" stroke-width="3" stroke="rgb(91,66,63)" stroke-linejoin="miter" stroke-linecap="square" stroke-miterlimit="3"/><line x1="427.595" y1="437.356" x2="514.405" y2="486.995" vector-effect="non-scaling-stroke" stroke-width="3" stroke="rgb(91,66,63)" stroke-linejoin="miter" stroke-linecap="square" stroke-miterlimit="3"/><line x1="427.595" y1="385.911" x2="514.405" y2="435.55" vector-effect="non-scaling-stroke" stroke-width="3" stroke="rgb(91,66,63)" stroke-linejoin="miter" stroke-linecap="square" stroke-miterlimit="3"/></g></g><path d=" M 460 537.248 L 500 421.59 L 540 537.248 L 460 537.248 Z " fill="rgb(185,185,185)"/><path d=" M 460 537.248 L 500 421.59 L 540 537.248 L 460 537.248 Z " fill="rgb(255,242,219)"/><clipPath id="_clipPath_FJ6vFeGRAbVKefnroDKHsRYH6sRBoU2e"><path d=" M 460 537.248 L 500 421.59 L 540 537.248 L 460 537.248 Z " fill="rgb(255,242,219)"/></clipPath><g clip-path="url(#_clipPath_FJ6vFeGRAbVKefnroDKHsRYH6sRBoU2e)"><g id="Group"><line x1="450" y1="443.832" x2="550" y2="443.832" vector-effect="non-scaling-stroke" stroke-width="3" stroke="rgb(91,66,63)" stroke-linejoin="miter" stroke-linecap="square" stroke-miterlimit="3"/><line x1="450" y1="461.625" x2="550" y2="461.625" vector-effect="non-scaling-stroke" stroke-width="3" stroke="rgb(91,66,63)" stroke-linejoin="miter" stroke-linecap="square" stroke-miterlimit="3"/><line x1="450" y1="523.903" x2="550" y2="523.903" vector-effect="non-scaling-stroke" stroke-width="3" stroke="rgb(91,66,63)" stroke-linejoin="miter" stroke-linecap="square" stroke-miterlimit="3"/><path d=" M 450 466.074 L 503.333 466.074 L 550 466.074" fill="none" vector-effect="non-scaling-stroke" stroke-width="3" stroke="rgb(91,66,63)" stroke-linejoin="miter" stroke-linecap="square" stroke-miterlimit="3"/><line x1="450" y1="470.522" x2="550" y2="470.522" vector-effect="non-scaling-stroke" stroke-width="3" stroke="rgb(91,66,63)" stroke-linejoin="miter" stroke-linecap="square" stroke-miterlimit="3"/><line x1="450" y1="497.212" x2="550" y2="497.212" vector-effect="non-scaling-stroke" stroke-width="3" stroke="rgb(91,66,63)" stroke-linejoin="miter" stroke-linecap="square" stroke-miterlimit="3"/><line x1="450" y1="532.799" x2="550" y2="532.799" vector-effect="non-scaling-stroke" stroke-width="3" stroke="rgb(91,66,63)" stroke-linejoin="miter" stroke-linecap="square" stroke-miterlimit="3"/><line x1="450" y1="537.248" x2="550" y2="537.248" vector-effect="non-scaling-stroke" stroke-width="3" stroke="rgb(91,66,63)" stroke-linejoin="miter" stroke-linecap="square" stroke-miterlimit="3"/><line x1="450" y1="501.661" x2="550" y2="501.661" vector-effect="non-scaling-stroke" stroke-width="3" stroke="rgb(91,66,63)" stroke-linejoin="miter" stroke-linecap="square" stroke-miterlimit="3"/><line x1="450" y1="452.728" x2="550" y2="452.728" vector-effect="non-scaling-stroke" stroke-width="3" stroke="rgb(91,66,63)" stroke-linejoin="miter" stroke-linecap="square" stroke-miterlimit="3"/><line x1="450" y1="492.764" x2="550" y2="492.764" vector-effect="non-scaling-stroke" stroke-width="3" stroke="rgb(91,66,63)" stroke-linejoin="miter" stroke-linecap="square" stroke-miterlimit="3"/><line x1="450" y1="430.486" x2="550" y2="430.486" vector-effect="non-scaling-stroke" stroke-width="3" stroke="rgb(91,66,63)" stroke-linejoin="miter" stroke-linecap="square" stroke-miterlimit="3"/><line x1="450" y1="448.28" x2="550" y2="448.28" vector-effect="non-scaling-stroke" stroke-width="3" stroke="rgb(91,66,63)" stroke-linejoin="miter" stroke-linecap="square" stroke-miterlimit="3"/><line x1="450" y1="421.59" x2="550" y2="421.59" vector-effect="non-scaling-stroke" stroke-width="3" stroke="rgb(91,66,63)" stroke-linejoin="miter" stroke-linecap="square" stroke-miterlimit="3"/><line x1="450" y1="474.97" x2="550" y2="474.97" vector-effect="non-scaling-stroke" stroke-width="3" stroke="rgb(91,66,63)" stroke-linejoin="miter" stroke-linecap="square" stroke-miterlimit="3"/><line x1="450" y1="510.557" x2="550" y2="510.557" vector-effect="non-scaling-stroke" stroke-width="3" stroke="rgb(91,66,63)" stroke-linejoin="miter" stroke-linecap="square" stroke-miterlimit="3"/><line x1="450" y1="515.006" x2="550" y2="515.006" vector-effect="non-scaling-stroke" stroke-width="3" stroke="rgb(91,66,63)" stroke-linejoin="miter" stroke-linecap="square" stroke-miterlimit="3"/><line x1="450" y1="528.351" x2="550" y2="528.351" vector-effect="non-scaling-stroke" stroke-width="3" stroke="rgb(91,66,63)" stroke-linejoin="miter" stroke-linecap="square" stroke-miterlimit="3"/><line x1="450" y1="519.454" x2="550" y2="519.454" vector-effect="non-scaling-stroke" stroke-width="3" stroke="rgb(91,66,63)" stroke-linejoin="miter" stroke-linecap="square" stroke-miterlimit="3"/><line x1="450" y1="457.177" x2="550" y2="457.177" vector-effect="non-scaling-stroke" stroke-width="3" stroke="rgb(91,66,63)" stroke-linejoin="miter" stroke-linecap="square" stroke-miterlimit="3"/><line x1="450" y1="483.867" x2="550" y2="483.867" vector-effect="non-scaling-stroke" stroke-width="3" stroke="rgb(91,66,63)" stroke-linejoin="miter" stroke-linecap="square" stroke-miterlimit="3"/><line x1="450" y1="488.315" x2="550" y2="488.315" vector-effect="non-scaling-stroke" stroke-width="3" stroke="rgb(91,66,63)" stroke-linejoin="miter" stroke-linecap="square" stroke-miterlimit="3"/><line x1="450" y1="434.935" x2="550" y2="434.935" vector-effect="non-scaling-stroke" stroke-width="3" stroke="rgb(91,66,63)" stroke-linejoin="miter" stroke-linecap="square" stroke-miterlimit="3"/><line x1="450" y1="506.109" x2="550" y2="506.109" vector-effect="non-scaling-stroke" stroke-width="3" stroke="rgb(91,66,63)" stroke-linejoin="miter" stroke-linecap="square" stroke-miterlimit="3"/><line x1="450" y1="439.383" x2="550" y2="439.383" vector-effect="non-scaling-stroke" stroke-width="3" stroke="rgb(91,66,63)" stroke-linejoin="miter" stroke-linecap="square" stroke-miterlimit="3"/><line x1="450" y1="479.419" x2="550" y2="479.419" vector-effect="non-scaling-stroke" stroke-width="3" stroke="rgb(91,66,63)" stroke-linejoin="miter" stroke-linecap="square" stroke-miterlimit="3"/><line x1="450" y1="426.038" x2="550" y2="426.038" vector-effect="non-scaling-stroke" stroke-width="3" stroke="rgb(91,66,63)" stroke-linejoin="miter" stroke-linecap="square" stroke-miterlimit="3"/></g></g><g id="Group"><g id="Group"><path d=" M 520 387.043 L 560 508.286 L 557.5 509.73 L 517.5 388.486 L 520 387.043 Z " fill="rgb(91,66,63)"/><path d=" M 480 387.043 L 440 511.173 L 442.5 512.616 L 482.5 388.486 L 480 387.043 Z " fill="rgb(91,66,63)"/><path d=" M 465 522.72 L 500 421.684 L 535 522.72 L 535 531.38 L 500 430.344 L 465 531.38 L 465 522.72 Z " fill="rgb(91,66,63)"/><path d=" M 530 424.57 L 530 418.797 L 577.5 506.843 L 575 508.286 L 530 424.57 Z " fill="rgb(91,66,63)"/><path d=" M 470 424.57 L 470 418.797 L 422.5 506.843 L 425 508.286 L 470 424.57 Z " fill="rgb(91,66,63)"/><path d=" M 527.5 408.354 L 577.5 475.089 L 575 476.532 L 525 410.137 L 525 410.137 L 527.5 408.354 Z " fill="rgb(91,66,63)"/><path d=" M 472.5 408.354 L 422.5 475.089 L 425 476.532 L 475 410.137 L 475 410.137 L 472.5 408.354 Z " fill="rgb(91,66,63)"/></g><path d=" M 497.5 397.146 L 500 398.59 L 502.5 397.146 L 502.5 420.24 L 500 421.684 L 497.5 420.24 L 497.5 397.146 Z " fill="rgb(91,66,63)"/></g><rect x="560" y="508.286" width="20" height="5.774" transform="matrix(1,0,0,1,0,0)" fill="rgb(255,228,186)"/><rect x="420" y="508.286" width="20" height="5.868" transform="matrix(1,0,0,1,0,0)" fill="rgb(187,161,119)"/><path d=" M 465 534.267 L 460 531.38 L 460 519.833 L 465 522.72 L 465 534.267 Z " fill="rgb(187,161,119)"/><path d=" M 560 508.286 L 540 519.833 L 540 525.607 L 560 514.06 L 560 508.286 Z " fill="rgb(255,228,186)"/><path d=" M 440 508.286 L 460 519.833 L 460 525.607 L 440 514.06 L 440 508.286 Z " fill="rgb(187,161,119)"/><path d=" M 580 508.286 L 580 473.645 L 575 470.758 L 575 511.173 L 580 508.286 Z " fill="rgb(255,228,186)"/><path d=" M 420 508.286 L 420 473.645 L 425 470.758 L 425 511.173 L 420 508.286 Z " fill="rgb(187,161,119)"/><path d=" M 540 537.154 L 540 519.833 L 535 522.72 L 535 534.267 L 540 537.154 Z " fill="rgb(255,228,186)"/><path d=" M 525 493.852 L 550 479.419 L 550 485.192 L 530 496.739 L 530 508.286 L 525 505.399 L 525 493.852 Z " fill="rgb(255,228,186)"/><path d=" M 550 479.419 L 560 479.419 L 560 485.192 L 550 485.192" fill="rgb(255,228,186)"/><path d=" M 560 479.419 L 560 450.551 L 565 453.438 L 565 485.305 L 560 485.192" fill="rgb(255,228,186)"/><g id="Group"><path d=" M 475 493.852 L 450 479.419 L 450 485.192 L 470 496.739 L 470 508.286 L 475 505.399 L 475 493.852 Z " fill="rgb(187,161,119)"/><path d=" M 450 479.419 L 440 479.419 L 440 485.192 L 450 485.192" fill="rgb(187,161,119)"/><path d=" M 440 479.419 L 440 450.551 L 435 453.438 L 435 485.305 L 440 485.192" fill="rgb(187,161,119)"/></g><rect x="460" y="531.38" width="80" height="5.897" transform="matrix(1,0,0,1,0,0)" fill="rgb(253,217,159)"/><path d=" M 470 502.513 L 470 508.286 L 530 508.286 L 530 502.513 L 470 502.513 Z " fill="rgb(253,217,159)"/><path d=" M 500 421.684 L 527.5 405.467 L 525 401.476 L 500 415.91 L 500 421.684 Z " fill="rgb(255,228,186)"/><path d=" M 475 401.476 L 500 415.91 L 500 421.684 L 472.5 405.467 L 475 401.476 Z " fill="rgb(187,161,119)"/><path d=" M 500 398.25 L 500 404.023 L 522.5 391.033 L 520 386.703 L 500 398.25 Z " fill="rgb(255,228,186)"/><path d=" M 480 386.703 L 500 398.25 L 500 404.023 L 477.5 391.033 L 480 386.703 Z " fill="rgb(187,161,119)"/></g><g id="Group"><path d=" M 500 387.135 L 510 381.361 L 510 364.041 L 505 361.154 L 500 369.814 L 500 387.135 Z " fill="rgb(255,228,186)"/><path d=" M 500 387.135 L 490 381.361 L 490 364.041 L 495 361.154 L 500 369.814 L 500 387.135 Z " fill="rgb(187,161,119)"/><path d=" M 505 361.154 L 495 361.154 L 500 369.814 L 505 361.154 Z " fill="rgb(217,187,139)"/><path d=" M 505 349.607 L 505 361.154 L 495 361.154 L 495 349.607 L 500 340.947 L 505 349.607 Z " fill="rgb(255,223,172)"/><path d=" M 500 294.759 L 500 306.306 L 505 303.419 L 500 294.759 Z " fill="rgb(255,228,186)"/><path d=" M 500 294.759 L 495 303.419 L 500 306.306 L 500 294.759 Z " fill="rgb(253,217,159)"/><path d=" M 505 349.607 L 505 303.419 L 500 306.306 L 500 340.947 L 505 349.607 Z " fill="rgb(251,217,162)"/><path d=" M 495 349.607 L 500 340.947 L 500 306.306 L 495 303.419 L 495 349.607 Z " fill="rgb(187,161,119)"/></g></g></svg>