<?xml version="1.0" standalone="no"?><!-- Generator: Gravit.io --><svg xmlns="http://www.w3.org/2000/svg" xmlns:xlink="http://www.w3.org/1999/xlink" style="isolation:isolate" viewBox="415 444.902 170 507.726" width="170" height="507.726"><g id="boa-body"><g id="Group"><path d=" M 500 546.278 L 560 511.637 L 500 476.996 L 440 511.637 L 500 546.278 Z " fill="rgb(255,255,255)" vector-effect="non-scaling-stroke" stroke-width="1" stroke="rgb(0,0,0)" stroke-linejoin="miter" stroke-linecap="square" stroke-miterlimit="3"/><path d=" M 460 952.628 L 540 952.628 L 540 537.278 L 460 537.278 L 460 952.628 Z " fill="rgb(191,140,132)"/><path d=" M 560 917.987 L 580 917.987 L 580 514.184 L 560 514.184 L 560 917.987 Z " fill="rgb(210,155,146)"/><path d=" M 540 941.081 L 560 941.081 L 560 525.731 L 540 525.731 L 540 941.081 Z " fill="rgb(210,155,146)"/><path d=" M 440 941.081 L 460 941.081 L 460 525.731 L 440 525.731 L 440 941.081 Z " fill="rgb(159,116,110)"/><path d=" M 420 917.987 L 440 917.987 L 440 514.184 L 420 514.184 L 420 917.987 Z " fill="rgb(159,116,110)"/><path d=" M 460 537.278 L 540 537.278 L 540 525.731 L 560 525.731 L 560 514.184 L 580 514.184 L 580 467.996 L 560 467.996 L 560 456.449 L 540 456.449 L 540 444.902 L 460 444.902 L 460 456.449 L 440 456.449 L 440 467.996 L 420 467.996 L 420 514.184 L 440 514.184 L 440 525.731 L 460 525.731 L 460 537.278 Z " fill="rgb(123,89,85)"/><rect x="420" y="618.502" width="20" height="5.774" transform="matrix(1,0,0,1,0,0)" fill="rgb(123,89,85)"/><rect x="560" y="618.502" width="20" height="5.774" transform="matrix(1,0,0,1,0,0)" fill="rgb(159,116,110)"/><rect x="440" y="632.936" width="20" height="5.774" transform="matrix(1,0,0,1,0,0)" fill="rgb(123,89,85)"/><rect x="540" y="632.936" width="20" height="5.774" transform="matrix(1,0,0,1,0,0)" fill="rgb(159,116,110)"/><rect x="440" y="589.634" width="20" height="5.774" transform="matrix(1,0,0,1,0,0)" fill="rgb(123,89,85)"/><path d=" M 415 618.502 L 425 624.276 L 425 926.647 L 415 920.874 L 415 618.502 Z " fill="rgb(123,89,85)"/><path d=" M 585 618.502 L 575 624.276 L 575 926.647 L 585 920.874 L 585 618.502 Z " fill="rgb(238,179,169)"/><path d=" M 440 638.709 L 450 644.483 L 450 946.854 L 440 941.081 L 440 638.709 Z " fill="rgb(123,89,85)"/><path d=" M 540 638.709 L 550 644.483 L 550 946.854 L 540 941.081 L 540 638.709 Z " fill="rgb(159,116,110)"/><path d=" M 460 638.709 L 450 644.483 L 450 946.854 L 460 941.081 L 460 638.709 Z " fill="rgb(210,155,146)"/><path d=" M 560 638.709 L 550 644.483 L 550 946.854 L 560 941.081 L 560 638.709 Z " fill="rgb(238,179,169)"/><path d=" M 550 946.854 L 585 926.647 L 585 897.78 L 550 917.987 L 550 946.854 Z " fill="rgb(210,155,146)"/><path d=" M 450 946.854 L 415 926.647 L 415 897.78 L 450 917.987 L 450 946.854 Z " fill="rgb(191,140,132)"/><path d=" M 580 609.842 L 585 612.729 L 585 618.502 L 580 621.389 L 580 609.842 Z " fill="rgb(123,89,85)"/><path d=" M 420 609.842 L 415 612.729 L 415 618.502 L 420 621.389 L 420 609.842 Z " fill="rgb(91,66,63)"/><rect x="540" y="589.634" width="20" height="5.774" transform="matrix(1,0,0,1,0,0)" fill="rgb(159,116,110)"/></g><g id="Group"><g id="body-windows-color-2"><path d=" M 467.375 545.66 L 467.375 550.448 L 467.375 946.576" fill="none" vector-effect="non-scaling-stroke" stroke-width="3" stroke="rgb(59,43,41)" stroke-linejoin="miter" stroke-linecap="square" stroke-miterlimit="3"/><line x1="496.486" y1="545.66" x2="496.486" y2="946.576" vector-effect="non-scaling-stroke" stroke-width="3" stroke="rgb(59,43,41)" stroke-linejoin="miter" stroke-linecap="square" stroke-miterlimit="3"/><line x1="481.931" y1="545.66" x2="481.931" y2="946.576" vector-effect="non-scaling-stroke" stroke-width="3" stroke="rgb(59,43,41)" stroke-linejoin="miter" stroke-linecap="square" stroke-miterlimit="3"/><line x1="511.042" y1="545.66" x2="511.042" y2="946.576" vector-effect="non-scaling-stroke" stroke-width="3" stroke="rgb(59,43,41)" stroke-linejoin="miter" stroke-linecap="square" stroke-miterlimit="3"/><line x1="474.653" y1="545.66" x2="474.653" y2="946.576" vector-effect="non-scaling-stroke" stroke-width="3" stroke="rgb(59,43,41)" stroke-linejoin="miter" stroke-linecap="square" stroke-miterlimit="3"/><line x1="503.764" y1="545.66" x2="503.764" y2="946.576" vector-effect="non-scaling-stroke" stroke-width="3" stroke="rgb(59,43,41)" stroke-linejoin="miter" stroke-linecap="square" stroke-miterlimit="3"/><line x1="489.208" y1="545.66" x2="489.208" y2="946.576" vector-effect="non-scaling-stroke" stroke-width="3" stroke="rgb(59,43,41)" stroke-linejoin="miter" stroke-linecap="square" stroke-miterlimit="3"/><line x1="518.319" y1="545.66" x2="518.319" y2="946.576" vector-effect="non-scaling-stroke" stroke-width="3" stroke="rgb(59,43,41)" stroke-linejoin="miter" stroke-linecap="square" stroke-miterlimit="3"/><line x1="525.597" y1="545.66" x2="525.597" y2="946.576" vector-effect="non-scaling-stroke" stroke-width="3" stroke="rgb(59,43,41)" stroke-linejoin="miter" stroke-linecap="square" stroke-miterlimit="3"/><line x1="532.875" y1="545.66" x2="532.875" y2="946.576" vector-effect="non-scaling-stroke" stroke-width="3" stroke="rgb(59,43,41)" stroke-linejoin="miter" stroke-linecap="square" stroke-miterlimit="3"/></g><g id="body-windows-color-1"><path d=" M 546.847 535.065 L 546.847 543.4 L 546.847 584.139" fill="none" vector-effect="non-scaling-stroke" stroke-width="3" stroke="rgb(91,66,63)" stroke-linejoin="miter" stroke-linecap="square" stroke-miterlimit="3"/><path d=" M 554.125 535.065 L 554.125 543.9 L 554.125 584.139" fill="none" vector-effect="non-scaling-stroke" stroke-width="3" stroke="rgb(91,66,63)" stroke-linejoin="miter" stroke-linecap="square" stroke-miterlimit="3"/><path d=" M 546.847 600.903 L 546.847 605.806 L 546.847 629.771" fill="none" vector-effect="non-scaling-stroke" stroke-width="3" stroke="rgb(91,66,63)" stroke-linejoin="miter" stroke-linecap="square" stroke-miterlimit="3"/><path d=" M 554.125 600.903 L 554.125 606.101 L 554.125 629.771" fill="none" vector-effect="non-scaling-stroke" stroke-width="3" stroke="rgb(91,66,63)" stroke-linejoin="miter" stroke-linecap="square" stroke-miterlimit="3"/><path d=" M 565.125 629.771 L 570.125 629.771 L 570.125 634.582 L 565.125 634.582 L 565.125 629.771 Z " fill="rgb(91,66,63)"/><path d=" M 565.125 649.016 L 570.125 649.016 L 570.125 653.827 L 565.125 653.827 L 565.125 649.016 Z " fill="rgb(91,66,63)"/><path d=" M 565.125 639.393 L 570.125 639.393 L 570.125 644.204 L 565.125 644.204 L 565.125 639.393 Z " fill="rgb(91,66,63)"/><path d=" M 565.125 658.638 L 570.125 658.638 L 570.125 663.449 L 565.125 663.449 L 565.125 658.638 Z " fill="rgb(91,66,63)"/><path d=" M 565.125 668.261 L 570.125 668.261 L 570.125 673.072 L 565.125 673.072 L 565.125 668.261 Z " fill="rgb(91,66,63)"/><path d=" M 565.125 658.638 L 570.125 658.638 L 570.125 663.449 L 565.125 663.449 L 565.125 658.638 Z " fill="rgb(91,66,63)"/><path d=" M 565.125 677.883 L 570.125 677.883 L 570.125 682.694 L 565.125 682.694 L 565.125 677.883 Z " fill="rgb(91,66,63)"/><path d=" M 565.125 668.261 L 570.125 668.261 L 570.125 673.072 L 565.125 673.072 L 565.125 668.261 Z " fill="rgb(91,66,63)"/><path d=" M 565.125 687.506 L 570.125 687.506 L 570.125 692.317 L 565.125 692.317 L 565.125 687.506 Z " fill="rgb(91,66,63)"/><path d=" M 565.125 697.128 L 570.125 697.128 L 570.125 701.939 L 565.125 701.939 L 565.125 697.128 Z " fill="rgb(91,66,63)"/><path d=" M 565.125 735.862 L 570.125 735.862 L 570.125 740.673 L 565.125 740.673 L 565.125 735.862 Z " fill="rgb(91,66,63)"/><path d=" M 565.125 697.166 L 570.125 697.166 L 570.125 701.977 L 565.125 701.977 L 565.125 697.166 Z " fill="rgb(91,66,63)"/><path d=" M 565.125 716.411 L 570.125 716.411 L 570.125 721.222 L 565.125 721.222 L 565.125 716.411 Z " fill="rgb(91,66,63)"/><path d=" M 565.125 706.788 L 570.125 706.788 L 570.125 711.6 L 565.125 711.6 L 565.125 706.788 Z " fill="rgb(91,66,63)"/><path d=" M 565.125 726.033 L 570.125 726.033 L 570.125 730.845 L 565.125 730.845 L 565.125 726.033 Z " fill="rgb(91,66,63)"/><path d=" M 565.125 735.656 L 570.125 735.656 L 570.125 740.467 L 565.125 740.467 L 565.125 735.656 Z " fill="rgb(91,66,63)"/><path d=" M 565.125 726.033 L 570.125 726.033 L 570.125 730.845 L 565.125 730.845 L 565.125 726.033 Z " fill="rgb(91,66,63)"/><path d=" M 565.125 735.656 L 570.125 735.656 L 570.125 740.467 L 565.125 740.467 L 565.125 735.656 Z " fill="rgb(91,66,63)"/><path d=" M 565.125 755.145 L 570.125 755.145 L 570.125 759.956 L 565.125 759.956 L 565.125 755.145 Z " fill="rgb(91,66,63)"/><path d=" M 565.125 745.522 L 570.125 745.522 L 570.125 750.334 L 565.125 750.334 L 565.125 745.522 Z " fill="rgb(91,66,63)"/><path d=" M 565.125 764.767 L 570.125 764.767 L 570.125 769.579 L 565.125 769.579 L 565.125 764.767 Z " fill="rgb(91,66,63)"/><path d=" M 565.125 774.39 L 570.125 774.39 L 570.125 779.201 L 565.125 779.201 L 565.125 774.39 Z " fill="rgb(91,66,63)"/><path d=" M 565.125 764.767 L 570.125 764.767 L 570.125 769.579 L 565.125 769.579 L 565.125 764.767 Z " fill="rgb(91,66,63)"/><path d=" M 565.125 784.012 L 570.125 784.012 L 570.125 788.824 L 565.125 788.824 L 565.125 784.012 Z " fill="rgb(91,66,63)"/><path d=" M 565.125 774.39 L 570.125 774.39 L 570.125 779.201 L 565.125 779.201 L 565.125 774.39 Z " fill="rgb(91,66,63)"/><path d=" M 565.125 793.635 L 570.125 793.635 L 570.125 798.446 L 565.125 798.446 L 565.125 793.635 Z " fill="rgb(91,66,63)"/><path d=" M 565.125 803.257 L 570.125 803.257 L 570.125 808.069 L 565.125 808.069 L 565.125 803.257 Z " fill="rgb(91,66,63)"/><path d=" M 565.125 803.239 L 570.125 803.239 L 570.125 808.05 L 565.125 808.05 L 565.125 803.239 Z " fill="rgb(91,66,63)"/><path d=" M 565.125 822.484 L 570.125 822.484 L 570.125 827.295 L 565.125 827.295 L 565.125 822.484 Z " fill="rgb(91,66,63)"/><path d=" M 565.125 812.861 L 570.125 812.861 L 570.125 817.672 L 565.125 817.672 L 565.125 812.861 Z " fill="rgb(91,66,63)"/><path d=" M 565.125 832.106 L 570.125 832.106 L 570.125 836.917 L 565.125 836.917 L 565.125 832.106 Z " fill="rgb(91,66,63)"/><path d=" M 565.125 841.729 L 570.125 841.729 L 570.125 846.54 L 565.125 846.54 L 565.125 841.729 Z " fill="rgb(91,66,63)"/><path d=" M 565.125 832.106 L 570.125 832.106 L 570.125 836.917 L 565.125 836.917 L 565.125 832.106 Z " fill="rgb(91,66,63)"/><path d=" M 565.125 851.351 L 570.125 851.351 L 570.125 856.162 L 565.125 856.162 L 565.125 851.351 Z " fill="rgb(91,66,63)"/><path d=" M 565.125 841.729 L 570.125 841.729 L 570.125 846.54 L 565.125 846.54 L 565.125 841.729 Z " fill="rgb(91,66,63)"/><path d=" M 565.125 860.974 L 570.125 860.974 L 570.125 865.785 L 565.125 865.785 L 565.125 860.974 Z " fill="rgb(91,66,63)"/><path d=" M 565.125 870.596 L 570.125 870.596 L 570.125 875.407 L 565.125 875.407 L 565.125 870.596 Z " fill="rgb(91,66,63)"/><path d=" M 565.125 870.596 L 570.125 870.596 L 570.125 875.407 L 565.125 875.407 L 565.125 870.596 Z " fill="rgb(91,66,63)"/><path d=" M 565.125 889.841 L 570.125 889.841 L 570.125 894.652 L 565.125 894.652 L 565.125 889.841 Z " fill="rgb(91,66,63)"/><path d=" M 565.125 880.219 L 570.125 880.219 L 570.125 885.03 L 565.125 885.03 L 565.125 880.219 Z " fill="rgb(91,66,63)"/><path d=" M 565.125 899.464 L 570.125 899.464 L 570.125 904.275 L 565.125 904.275 L 565.125 899.464 Z " fill="rgb(91,66,63)"/><path d=" M 565.125 899.464 L 570.125 899.464 L 570.125 904.275 L 565.125 904.275 L 565.125 899.464 Z " fill="rgb(91,66,63)"/><path d=" M 566.375 523.961 L 573.875 523.961 L 573.875 529.734 L 566.375 529.734 L 566.375 523.961 Z " fill="rgb(91,66,63)"/><path d=" M 566.375 547.055 L 573.875 547.055 L 573.875 552.828 L 566.375 552.828 L 566.375 547.055 Z " fill="rgb(91,66,63)"/><path d=" M 566.375 535.508 L 573.875 535.508 L 573.875 541.281 L 566.375 541.281 L 566.375 535.508 Z " fill="rgb(91,66,63)"/><path d=" M 566.375 558.602 L 573.875 558.602 L 573.875 564.375 L 566.375 564.375 L 566.375 558.602 Z " fill="rgb(91,66,63)"/><path d=" M 566.375 581.696 L 573.875 581.696 L 573.875 587.469 L 566.375 587.469 L 566.375 581.696 Z " fill="rgb(91,66,63)"/><path d=" M 566.375 570.149 L 573.875 570.149 L 573.875 575.922 L 566.375 575.922 L 566.375 570.149 Z " fill="rgb(91,66,63)"/><path d=" M 566.375 593.243 L 573.875 593.243 L 573.875 599.016 L 566.375 599.016 L 566.375 593.243 Z " fill="rgb(91,66,63)"/><path d=" M 566.375 604.79 L 573.875 604.79 L 573.875 610.563 L 566.375 610.563 L 566.375 604.79 Z " fill="rgb(91,66,63)"/><path d=" M 556.375 645.926 L 553.875 647.369 L 553.875 912.448 L 556.375 910.77 L 556.375 645.926 Z " fill="rgb(91,66,63)"/><path d=" M 581.375 625.719 L 578.875 627.162 L 578.875 897.78 L 581.375 896.336 L 581.375 625.719 Z " fill="rgb(91,66,63)"/></g><path d=" M 456.375 645.926 L 453.875 647.369 L 453.875 912.448 L 456.375 910.77 L 456.375 645.926 Z " fill="rgb(91,66,63)"/><path d=" M 543.875 645.926 L 546.375 647.369 L 546.375 912.448 L 543.875 910.77 L 543.875 645.926 Z " fill="rgb(59,43,41)"/><g id="body-windows-color-3"><path d=" M 453.583 535.065 L 453.583 543.4 L 453.583 584.139" fill="none" vector-effect="non-scaling-stroke" stroke-width="3" stroke="rgb(28,20,19)" stroke-linejoin="miter" stroke-linecap="square" stroke-miterlimit="3"/><path d=" M 446.306 535.065 L 446.306 543.9 L 446.306 584.139" fill="none" vector-effect="non-scaling-stroke" stroke-width="3" stroke="rgb(28,20,19)" stroke-linejoin="miter" stroke-linecap="square" stroke-miterlimit="3"/><path d=" M 453.583 600.903 L 453.583 605.806 L 453.583 629.771" fill="none" vector-effect="non-scaling-stroke" stroke-width="3" stroke="rgb(28,20,19)" stroke-linejoin="miter" stroke-linecap="square" stroke-miterlimit="3"/><path d=" M 446.306 600.903 L 446.306 606.101 L 446.306 629.771" fill="none" vector-effect="non-scaling-stroke" stroke-width="3" stroke="rgb(28,20,19)" stroke-linejoin="miter" stroke-linecap="square" stroke-miterlimit="3"/><path d=" M 426.375 523.961 L 433.875 523.961 L 433.875 529.734 L 426.375 529.734 L 426.375 523.961 Z " fill="rgb(28,20,19)"/><path d=" M 426.375 547.055 L 433.875 547.055 L 433.875 552.828 L 426.375 552.828 L 426.375 547.055 Z " fill="rgb(28,20,19)"/><path d=" M 426.375 535.508 L 433.875 535.508 L 433.875 541.281 L 426.375 541.281 L 426.375 535.508 Z " fill="rgb(28,20,19)"/><path d=" M 426.375 558.602 L 433.875 558.602 L 433.875 564.375 L 426.375 564.375 L 426.375 558.602 Z " fill="rgb(28,20,19)"/><path d=" M 426.375 570.149 L 433.875 570.149 L 433.875 575.922 L 426.375 575.922 L 426.375 570.149 Z " fill="rgb(28,20,19)"/><path d=" M 426.375 558.602 L 433.875 558.602 L 433.875 564.375 L 426.375 564.375 L 426.375 558.602 Z " fill="rgb(28,20,19)"/><path d=" M 426.375 581.696 L 433.875 581.696 L 433.875 587.469 L 426.375 587.469 L 426.375 581.696 Z " fill="rgb(28,20,19)"/><path d=" M 426.375 570.149 L 433.875 570.149 L 433.875 575.922 L 426.375 575.922 L 426.375 570.149 Z " fill="rgb(28,20,19)"/><path d=" M 426.375 593.243 L 433.875 593.243 L 433.875 599.016 L 426.375 599.016 L 426.375 593.243 Z " fill="rgb(28,20,19)"/><path d=" M 426.375 604.79 L 433.875 604.79 L 433.875 610.563 L 426.375 610.563 L 426.375 604.79 Z " fill="rgb(28,20,19)"/><path d=" M 430.125 629.771 L 435.125 629.771 L 435.125 634.582 L 430.125 634.582 L 430.125 629.771 Z " fill="rgb(28,20,19)"/><path d=" M 430.125 649.016 L 435.125 649.016 L 435.125 653.827 L 430.125 653.827 L 430.125 649.016 Z " fill="rgb(28,20,19)"/><path d=" M 430.125 639.393 L 435.125 639.393 L 435.125 644.204 L 430.125 644.204 L 430.125 639.393 Z " fill="rgb(28,20,19)"/><path d=" M 430.125 658.638 L 435.125 658.638 L 435.125 663.449 L 430.125 663.449 L 430.125 658.638 Z " fill="rgb(28,20,19)"/><path d=" M 430.125 668.261 L 435.125 668.261 L 435.125 673.072 L 430.125 673.072 L 430.125 668.261 Z " fill="rgb(28,20,19)"/><path d=" M 430.125 658.638 L 435.125 658.638 L 435.125 663.449 L 430.125 663.449 L 430.125 658.638 Z " fill="rgb(28,20,19)"/><path d=" M 430.125 677.883 L 435.125 677.883 L 435.125 682.694 L 430.125 682.694 L 430.125 677.883 Z " fill="rgb(28,20,19)"/><path d=" M 430.125 668.261 L 435.125 668.261 L 435.125 673.072 L 430.125 673.072 L 430.125 668.261 Z " fill="rgb(28,20,19)"/><path d=" M 430.125 687.506 L 435.125 687.506 L 435.125 692.317 L 430.125 692.317 L 430.125 687.506 Z " fill="rgb(28,20,19)"/><path d=" M 430.125 697.128 L 435.125 697.128 L 435.125 701.939 L 430.125 701.939 L 430.125 697.128 Z " fill="rgb(28,20,19)"/><path d=" M 430.125 735.862 L 435.125 735.862 L 435.125 740.673 L 430.125 740.673 L 430.125 735.862 Z " fill="rgb(28,20,19)"/><path d=" M 430.125 697.166 L 435.125 697.166 L 435.125 701.977 L 430.125 701.977 L 430.125 697.166 Z " fill="rgb(28,20,19)"/><path d=" M 430.125 716.411 L 435.125 716.411 L 435.125 721.222 L 430.125 721.222 L 430.125 716.411 Z " fill="rgb(28,20,19)"/><path d=" M 430.125 706.788 L 435.125 706.788 L 435.125 711.6 L 430.125 711.6 L 430.125 706.788 Z " fill="rgb(28,20,19)"/><path d=" M 430.125 726.033 L 435.125 726.033 L 435.125 730.845 L 430.125 730.845 L 430.125 726.033 Z " fill="rgb(28,20,19)"/><path d=" M 430.125 735.656 L 435.125 735.656 L 435.125 740.467 L 430.125 740.467 L 430.125 735.656 Z " fill="rgb(28,20,19)"/><path d=" M 430.125 726.033 L 435.125 726.033 L 435.125 730.845 L 430.125 730.845 L 430.125 726.033 Z " fill="rgb(28,20,19)"/><path d=" M 430.125 735.656 L 435.125 735.656 L 435.125 740.467 L 430.125 740.467 L 430.125 735.656 Z " fill="rgb(28,20,19)"/><path d=" M 430.125 735.9 L 435.125 735.9 L 435.125 740.711 L 430.125 740.711 L 430.125 735.9 Z " fill="rgb(28,20,19)"/><path d=" M 430.125 755.145 L 435.125 755.145 L 435.125 759.956 L 430.125 759.956 L 430.125 755.145 Z " fill="rgb(28,20,19)"/><path d=" M 430.125 745.522 L 435.125 745.522 L 435.125 750.334 L 430.125 750.334 L 430.125 745.522 Z " fill="rgb(28,20,19)"/><path d=" M 430.125 764.767 L 435.125 764.767 L 435.125 769.579 L 430.125 769.579 L 430.125 764.767 Z " fill="rgb(28,20,19)"/><path d=" M 430.125 774.39 L 435.125 774.39 L 435.125 779.201 L 430.125 779.201 L 430.125 774.39 Z " fill="rgb(28,20,19)"/><path d=" M 430.125 764.767 L 435.125 764.767 L 435.125 769.579 L 430.125 769.579 L 430.125 764.767 Z " fill="rgb(28,20,19)"/><path d=" M 430.125 784.012 L 435.125 784.012 L 435.125 788.824 L 430.125 788.824 L 430.125 784.012 Z " fill="rgb(28,20,19)"/><path d=" M 430.125 774.39 L 435.125 774.39 L 435.125 779.201 L 430.125 779.201 L 430.125 774.39 Z " fill="rgb(28,20,19)"/><path d=" M 430.125 793.635 L 435.125 793.635 L 435.125 798.446 L 430.125 798.446 L 430.125 793.635 Z " fill="rgb(28,20,19)"/><path d=" M 430.125 803.257 L 435.125 803.257 L 435.125 808.069 L 430.125 808.069 L 430.125 803.257 Z " fill="rgb(28,20,19)"/><path d=" M 430.125 803.239 L 435.125 803.239 L 435.125 808.05 L 430.125 808.05 L 430.125 803.239 Z " fill="rgb(28,20,19)"/><path d=" M 430.125 822.484 L 435.125 822.484 L 435.125 827.295 L 430.125 827.295 L 430.125 822.484 Z " fill="rgb(28,20,19)"/><path d=" M 430.125 812.861 L 435.125 812.861 L 435.125 817.672 L 430.125 817.672 L 430.125 812.861 Z " fill="rgb(28,20,19)"/><path d=" M 430.125 832.106 L 435.125 832.106 L 435.125 836.917 L 430.125 836.917 L 430.125 832.106 Z " fill="rgb(28,20,19)"/><path d=" M 430.125 841.729 L 435.125 841.729 L 435.125 846.54 L 430.125 846.54 L 430.125 841.729 Z " fill="rgb(28,20,19)"/><path d=" M 430.125 832.106 L 435.125 832.106 L 435.125 836.917 L 430.125 836.917 L 430.125 832.106 Z " fill="rgb(28,20,19)"/><path d=" M 430.125 851.351 L 435.125 851.351 L 435.125 856.162 L 430.125 856.162 L 430.125 851.351 Z " fill="rgb(28,20,19)"/><path d=" M 430.125 841.729 L 435.125 841.729 L 435.125 846.54 L 430.125 846.54 L 430.125 841.729 Z " fill="rgb(28,20,19)"/><path d=" M 430.125 860.974 L 435.125 860.974 L 435.125 865.785 L 430.125 865.785 L 430.125 860.974 Z " fill="rgb(28,20,19)"/><path d=" M 430.125 870.596 L 435.125 870.596 L 435.125 875.407 L 430.125 875.407 L 430.125 870.596 Z " fill="rgb(28,20,19)"/><path d=" M 430.125 870.596 L 435.125 870.596 L 435.125 875.407 L 430.125 875.407 L 430.125 870.596 Z " fill="rgb(28,20,19)"/><path d=" M 430.125 889.841 L 435.125 889.841 L 435.125 894.652 L 430.125 894.652 L 430.125 889.841 Z " fill="rgb(28,20,19)"/><path d=" M 430.125 880.219 L 435.125 880.219 L 435.125 885.03 L 430.125 885.03 L 430.125 880.219 Z " fill="rgb(28,20,19)"/><path d=" M 430.125 899.464 L 435.125 899.464 L 435.125 904.275 L 430.125 904.275 L 430.125 899.464 Z " fill="rgb(28,20,19)"/><path d=" M 430.125 899.464 L 435.125 899.464 L 435.125 904.275 L 430.125 904.275 L 430.125 899.464 Z " fill="rgb(28,20,19)"/><path d=" M 418.625 625.719 L 421.125 627.162 L 421.125 897.78 L 418.625 896.336 L 418.625 625.719 Z " fill="rgb(28,20,19)"/><path d=" M 443.875 645.926 L 446.375 647.369 L 446.375 912.448 L 443.875 910.77 L 443.875 645.926 Z " fill="rgb(28,20,19)"/></g></g></g></svg>