<?xml version="1.0" standalone="no"?><!-- Generator: Gravit.io --><svg xmlns="http://www.w3.org/2000/svg" xmlns:xlink="http://www.w3.org/1999/xlink" style="isolation:isolate" viewBox="2372.131 679.961 162.75 423.115" width="162.75" height="423.115"><g id="body-curtainwall"><g id="boa-body"><g id="Group"><g id="body-windows-color-1"><path d=" M 2500.353 691.065 L 2500.353 699.4 L 2500.353 740.139" fill="none" vector-effect="non-scaling-stroke" stroke-width="3" stroke="rgb(91,66,63)" stroke-linejoin="miter" stroke-linecap="square" stroke-miterlimit="3"/><path d=" M 2507.631 691.065 L 2507.631 699.9 L 2507.631 740.139" fill="none" vector-effect="non-scaling-stroke" stroke-width="3" stroke="rgb(91,66,63)" stroke-linejoin="miter" stroke-linecap="square" stroke-miterlimit="3"/><path d=" M 2500.353 756.903 L 2500.353 761.806 L 2500.353 785.771" fill="none" vector-effect="non-scaling-stroke" stroke-width="3" stroke="rgb(91,66,63)" stroke-linejoin="miter" stroke-linecap="square" stroke-miterlimit="3"/><path d=" M 2507.631 756.903 L 2507.631 762.101 L 2507.631 785.771" fill="none" vector-effect="non-scaling-stroke" stroke-width="3" stroke="rgb(91,66,63)" stroke-linejoin="miter" stroke-linecap="square" stroke-miterlimit="3"/><path d=" M 2518.631 785.771 L 2523.631 785.771 L 2523.631 790.582 L 2518.631 790.582 L 2518.631 785.771 Z " fill="rgb(91,66,63)"/><path d=" M 2518.631 805.016 L 2523.631 805.016 L 2523.631 809.827 L 2518.631 809.827 L 2518.631 805.016 Z " fill="rgb(91,66,63)"/><path d=" M 2518.631 795.393 L 2523.631 795.393 L 2523.631 800.204 L 2518.631 800.204 L 2518.631 795.393 Z " fill="rgb(91,66,63)"/><path d=" M 2518.631 814.638 L 2523.631 814.638 L 2523.631 819.449 L 2518.631 819.449 L 2518.631 814.638 Z " fill="rgb(91,66,63)"/><path d=" M 2518.631 824.261 L 2523.631 824.261 L 2523.631 829.072 L 2518.631 829.072 L 2518.631 824.261 Z " fill="rgb(91,66,63)"/><path d=" M 2518.631 814.638 L 2523.631 814.638 L 2523.631 819.449 L 2518.631 819.449 L 2518.631 814.638 Z " fill="rgb(91,66,63)"/><path d=" M 2518.631 833.883 L 2523.631 833.883 L 2523.631 838.694 L 2518.631 838.694 L 2518.631 833.883 Z " fill="rgb(91,66,63)"/><path d=" M 2518.631 824.261 L 2523.631 824.261 L 2523.631 829.072 L 2518.631 829.072 L 2518.631 824.261 Z " fill="rgb(91,66,63)"/><path d=" M 2518.631 843.506 L 2523.631 843.506 L 2523.631 848.317 L 2518.631 848.317 L 2518.631 843.506 Z " fill="rgb(91,66,63)"/><path d=" M 2518.631 853.128 L 2523.631 853.128 L 2523.631 857.939 L 2518.631 857.939 L 2518.631 853.128 Z " fill="rgb(91,66,63)"/><path d=" M 2518.631 891.862 L 2523.631 891.862 L 2523.631 896.673 L 2518.631 896.673 L 2518.631 891.862 Z " fill="rgb(91,66,63)"/><path d=" M 2518.631 853.166 L 2523.631 853.166 L 2523.631 857.977 L 2518.631 857.977 L 2518.631 853.166 Z " fill="rgb(91,66,63)"/><path d=" M 2518.631 872.411 L 2523.631 872.411 L 2523.631 877.222 L 2518.631 877.222 L 2518.631 872.411 Z " fill="rgb(91,66,63)"/><path d=" M 2518.631 862.788 L 2523.631 862.788 L 2523.631 867.6 L 2518.631 867.6 L 2518.631 862.788 Z " fill="rgb(91,66,63)"/><path d=" M 2518.631 882.033 L 2523.631 882.033 L 2523.631 886.845 L 2518.631 886.845 L 2518.631 882.033 Z " fill="rgb(91,66,63)"/><path d=" M 2518.631 891.656 L 2523.631 891.656 L 2523.631 896.467 L 2518.631 896.467 L 2518.631 891.656 Z " fill="rgb(91,66,63)"/><path d=" M 2518.631 882.033 L 2523.631 882.033 L 2523.631 886.845 L 2518.631 886.845 L 2518.631 882.033 Z " fill="rgb(91,66,63)"/><path d=" M 2518.631 891.656 L 2523.631 891.656 L 2523.631 896.467 L 2518.631 896.467 L 2518.631 891.656 Z " fill="rgb(91,66,63)"/><path d=" M 2518.631 911.145 L 2523.631 911.145 L 2523.631 915.956 L 2518.631 915.956 L 2518.631 911.145 Z " fill="rgb(91,66,63)"/><path d=" M 2518.631 901.522 L 2523.631 901.522 L 2523.631 906.334 L 2518.631 906.334 L 2518.631 901.522 Z " fill="rgb(91,66,63)"/><path d=" M 2518.631 920.767 L 2523.631 920.767 L 2523.631 925.579 L 2518.631 925.579 L 2518.631 920.767 Z " fill="rgb(91,66,63)"/><path d=" M 2518.631 930.39 L 2523.631 930.39 L 2523.631 935.201 L 2518.631 935.201 L 2518.631 930.39 Z " fill="rgb(91,66,63)"/><path d=" M 2518.631 920.767 L 2523.631 920.767 L 2523.631 925.579 L 2518.631 925.579 L 2518.631 920.767 Z " fill="rgb(91,66,63)"/><path d=" M 2518.631 940.012 L 2523.631 940.012 L 2523.631 944.824 L 2518.631 944.824 L 2518.631 940.012 Z " fill="rgb(91,66,63)"/><path d=" M 2518.631 930.39 L 2523.631 930.39 L 2523.631 935.201 L 2518.631 935.201 L 2518.631 930.39 Z " fill="rgb(91,66,63)"/><path d=" M 2518.631 949.635 L 2523.631 949.635 L 2523.631 954.446 L 2518.631 954.446 L 2518.631 949.635 Z " fill="rgb(91,66,63)"/><path d=" M 2518.631 959.257 L 2523.631 959.257 L 2523.631 964.069 L 2518.631 964.069 L 2518.631 959.257 Z " fill="rgb(91,66,63)"/><path d=" M 2518.631 959.239 L 2523.631 959.239 L 2523.631 964.05 L 2518.631 964.05 L 2518.631 959.239 Z " fill="rgb(91,66,63)"/><path d=" M 2518.631 978.484 L 2523.631 978.484 L 2523.631 983.295 L 2518.631 983.295 L 2518.631 978.484 Z " fill="rgb(91,66,63)"/><path d=" M 2518.631 968.861 L 2523.631 968.861 L 2523.631 973.672 L 2518.631 973.672 L 2518.631 968.861 Z " fill="rgb(91,66,63)"/><path d=" M 2518.631 988.106 L 2523.631 988.106 L 2523.631 992.917 L 2518.631 992.917 L 2518.631 988.106 Z " fill="rgb(91,66,63)"/><path d=" M 2518.631 997.729 L 2523.631 997.729 L 2523.631 1002.54 L 2518.631 1002.54 L 2518.631 997.729 Z " fill="rgb(91,66,63)"/><path d=" M 2518.631 988.106 L 2523.631 988.106 L 2523.631 992.917 L 2518.631 992.917 L 2518.631 988.106 Z " fill="rgb(91,66,63)"/><path d=" M 2518.631 1007.351 L 2523.631 1007.351 L 2523.631 1012.162 L 2518.631 1012.162 L 2518.631 1007.351 Z " fill="rgb(91,66,63)"/><path d=" M 2518.631 997.729 L 2523.631 997.729 L 2523.631 1002.54 L 2518.631 1002.54 L 2518.631 997.729 Z " fill="rgb(91,66,63)"/><path d=" M 2518.631 1016.974 L 2523.631 1016.974 L 2523.631 1021.785 L 2518.631 1021.785 L 2518.631 1016.974 Z " fill="rgb(91,66,63)"/><path d=" M 2518.631 1026.596 L 2523.631 1026.596 L 2523.631 1031.407 L 2518.631 1031.407 L 2518.631 1026.596 Z " fill="rgb(91,66,63)"/><path d=" M 2518.631 1026.596 L 2523.631 1026.596 L 2523.631 1031.407 L 2518.631 1031.407 L 2518.631 1026.596 Z " fill="rgb(91,66,63)"/><path d=" M 2518.631 1045.841 L 2523.631 1045.841 L 2523.631 1050.652 L 2518.631 1050.652 L 2518.631 1045.841 Z " fill="rgb(91,66,63)"/><path d=" M 2518.631 1036.219 L 2523.631 1036.219 L 2523.631 1041.03 L 2518.631 1041.03 L 2518.631 1036.219 Z " fill="rgb(91,66,63)"/><path d=" M 2518.631 1055.464 L 2523.631 1055.464 L 2523.631 1060.275 L 2518.631 1060.275 L 2518.631 1055.464 Z " fill="rgb(91,66,63)"/><path d=" M 2518.631 1055.464 L 2523.631 1055.464 L 2523.631 1060.275 L 2518.631 1060.275 L 2518.631 1055.464 Z " fill="rgb(91,66,63)"/><path d=" M 2519.881 679.961 L 2527.381 679.961 L 2527.381 685.734 L 2519.881 685.734 L 2519.881 679.961 Z " fill="rgb(91,66,63)"/><path d=" M 2519.881 703.055 L 2527.381 703.055 L 2527.381 708.828 L 2519.881 708.828 L 2519.881 703.055 Z " fill="rgb(91,66,63)"/><path d=" M 2519.881 691.508 L 2527.381 691.508 L 2527.381 697.281 L 2519.881 697.281 L 2519.881 691.508 Z " fill="rgb(91,66,63)"/><path d=" M 2519.881 714.602 L 2527.381 714.602 L 2527.381 720.375 L 2519.881 720.375 L 2519.881 714.602 Z " fill="rgb(91,66,63)"/><path d=" M 2519.881 737.696 L 2527.381 737.696 L 2527.381 743.469 L 2519.881 743.469 L 2519.881 737.696 Z " fill="rgb(91,66,63)"/><path d=" M 2519.881 726.149 L 2527.381 726.149 L 2527.381 731.922 L 2519.881 731.922 L 2519.881 726.149 Z " fill="rgb(91,66,63)"/><path d=" M 2519.881 749.243 L 2527.381 749.243 L 2527.381 755.016 L 2519.881 755.016 L 2519.881 749.243 Z " fill="rgb(91,66,63)"/><path d=" M 2519.881 760.79 L 2527.381 760.79 L 2527.381 766.563 L 2519.881 766.563 L 2519.881 760.79 Z " fill="rgb(91,66,63)"/><path d=" M 2509.881 801.926 L 2507.381 803.369 L 2507.381 1068.448 L 2509.881 1066.77 L 2509.881 801.926 Z " fill="rgb(91,66,63)"/><path d=" M 2534.881 781.719 L 2532.381 783.162 L 2532.381 1053.78 L 2534.881 1052.336 L 2534.881 781.719 Z " fill="rgb(91,66,63)"/></g><path d=" M 2409.881 801.926 L 2407.381 803.369 L 2407.381 1068.448 L 2409.881 1066.77 L 2409.881 801.926 Z " fill="rgb(91,66,63)"/><path d=" M 2497.381 801.926 L 2499.881 803.369 L 2499.881 1068.448 L 2497.381 1066.77 L 2497.381 801.926 Z " fill="rgb(59,43,41)"/><g id="body-windows-color-3"><path d=" M 2407.089 691.065 L 2407.089 699.4 L 2407.089 740.139" fill="none" vector-effect="non-scaling-stroke" stroke-width="3" stroke="rgb(28,20,19)" stroke-linejoin="miter" stroke-linecap="square" stroke-miterlimit="3"/><path d=" M 2399.811 691.065 L 2399.811 699.9 L 2399.811 740.139" fill="none" vector-effect="non-scaling-stroke" stroke-width="3" stroke="rgb(28,20,19)" stroke-linejoin="miter" stroke-linecap="square" stroke-miterlimit="3"/><path d=" M 2407.089 756.903 L 2407.089 761.806 L 2407.089 785.771" fill="none" vector-effect="non-scaling-stroke" stroke-width="3" stroke="rgb(28,20,19)" stroke-linejoin="miter" stroke-linecap="square" stroke-miterlimit="3"/><path d=" M 2399.811 756.903 L 2399.811 762.101 L 2399.811 785.771" fill="none" vector-effect="non-scaling-stroke" stroke-width="3" stroke="rgb(28,20,19)" stroke-linejoin="miter" stroke-linecap="square" stroke-miterlimit="3"/><path d=" M 2379.881 679.961 L 2387.381 679.961 L 2387.381 685.734 L 2379.881 685.734 L 2379.881 679.961 Z " fill="rgb(28,20,19)"/><path d=" M 2379.881 703.055 L 2387.381 703.055 L 2387.381 708.828 L 2379.881 708.828 L 2379.881 703.055 Z " fill="rgb(28,20,19)"/><path d=" M 2379.881 691.508 L 2387.381 691.508 L 2387.381 697.281 L 2379.881 697.281 L 2379.881 691.508 Z " fill="rgb(28,20,19)"/><path d=" M 2379.881 714.602 L 2387.381 714.602 L 2387.381 720.375 L 2379.881 720.375 L 2379.881 714.602 Z " fill="rgb(28,20,19)"/><path d=" M 2379.881 726.149 L 2387.381 726.149 L 2387.381 731.922 L 2379.881 731.922 L 2379.881 726.149 Z " fill="rgb(28,20,19)"/><path d=" M 2379.881 714.602 L 2387.381 714.602 L 2387.381 720.375 L 2379.881 720.375 L 2379.881 714.602 Z " fill="rgb(28,20,19)"/><path d=" M 2379.881 737.696 L 2387.381 737.696 L 2387.381 743.469 L 2379.881 743.469 L 2379.881 737.696 Z " fill="rgb(28,20,19)"/><path d=" M 2379.881 726.149 L 2387.381 726.149 L 2387.381 731.922 L 2379.881 731.922 L 2379.881 726.149 Z " fill="rgb(28,20,19)"/><path d=" M 2379.881 749.243 L 2387.381 749.243 L 2387.381 755.016 L 2379.881 755.016 L 2379.881 749.243 Z " fill="rgb(28,20,19)"/><path d=" M 2379.881 760.79 L 2387.381 760.79 L 2387.381 766.563 L 2379.881 766.563 L 2379.881 760.79 Z " fill="rgb(28,20,19)"/><path d=" M 2383.631 785.771 L 2388.631 785.771 L 2388.631 790.582 L 2383.631 790.582 L 2383.631 785.771 Z " fill="rgb(28,20,19)"/><path d=" M 2383.631 805.016 L 2388.631 805.016 L 2388.631 809.827 L 2383.631 809.827 L 2383.631 805.016 Z " fill="rgb(28,20,19)"/><path d=" M 2383.631 795.393 L 2388.631 795.393 L 2388.631 800.204 L 2383.631 800.204 L 2383.631 795.393 Z " fill="rgb(28,20,19)"/><path d=" M 2383.631 814.638 L 2388.631 814.638 L 2388.631 819.449 L 2383.631 819.449 L 2383.631 814.638 Z " fill="rgb(28,20,19)"/><path d=" M 2383.631 824.261 L 2388.631 824.261 L 2388.631 829.072 L 2383.631 829.072 L 2383.631 824.261 Z " fill="rgb(28,20,19)"/><path d=" M 2383.631 814.638 L 2388.631 814.638 L 2388.631 819.449 L 2383.631 819.449 L 2383.631 814.638 Z " fill="rgb(28,20,19)"/><path d=" M 2383.631 833.883 L 2388.631 833.883 L 2388.631 838.694 L 2383.631 838.694 L 2383.631 833.883 Z " fill="rgb(28,20,19)"/><path d=" M 2383.631 824.261 L 2388.631 824.261 L 2388.631 829.072 L 2383.631 829.072 L 2383.631 824.261 Z " fill="rgb(28,20,19)"/><path d=" M 2383.631 843.506 L 2388.631 843.506 L 2388.631 848.317 L 2383.631 848.317 L 2383.631 843.506 Z " fill="rgb(28,20,19)"/><path d=" M 2383.631 853.128 L 2388.631 853.128 L 2388.631 857.939 L 2383.631 857.939 L 2383.631 853.128 Z " fill="rgb(28,20,19)"/><path d=" M 2383.631 891.862 L 2388.631 891.862 L 2388.631 896.673 L 2383.631 896.673 L 2383.631 891.862 Z " fill="rgb(28,20,19)"/><path d=" M 2383.631 853.166 L 2388.631 853.166 L 2388.631 857.977 L 2383.631 857.977 L 2383.631 853.166 Z " fill="rgb(28,20,19)"/><path d=" M 2383.631 872.411 L 2388.631 872.411 L 2388.631 877.222 L 2383.631 877.222 L 2383.631 872.411 Z " fill="rgb(28,20,19)"/><path d=" M 2383.631 862.788 L 2388.631 862.788 L 2388.631 867.6 L 2383.631 867.6 L 2383.631 862.788 Z " fill="rgb(28,20,19)"/><path d=" M 2383.631 882.033 L 2388.631 882.033 L 2388.631 886.845 L 2383.631 886.845 L 2383.631 882.033 Z " fill="rgb(28,20,19)"/><path d=" M 2383.631 891.656 L 2388.631 891.656 L 2388.631 896.467 L 2383.631 896.467 L 2383.631 891.656 Z " fill="rgb(28,20,19)"/><path d=" M 2383.631 882.033 L 2388.631 882.033 L 2388.631 886.845 L 2383.631 886.845 L 2383.631 882.033 Z " fill="rgb(28,20,19)"/><path d=" M 2383.631 891.656 L 2388.631 891.656 L 2388.631 896.467 L 2383.631 896.467 L 2383.631 891.656 Z " fill="rgb(28,20,19)"/><path d=" M 2383.631 891.9 L 2388.631 891.9 L 2388.631 896.711 L 2383.631 896.711 L 2383.631 891.9 Z " fill="rgb(28,20,19)"/><path d=" M 2383.631 911.145 L 2388.631 911.145 L 2388.631 915.956 L 2383.631 915.956 L 2383.631 911.145 Z " fill="rgb(28,20,19)"/><path d=" M 2383.631 901.522 L 2388.631 901.522 L 2388.631 906.334 L 2383.631 906.334 L 2383.631 901.522 Z " fill="rgb(28,20,19)"/><path d=" M 2383.631 920.767 L 2388.631 920.767 L 2388.631 925.579 L 2383.631 925.579 L 2383.631 920.767 Z " fill="rgb(28,20,19)"/><path d=" M 2383.631 930.39 L 2388.631 930.39 L 2388.631 935.201 L 2383.631 935.201 L 2383.631 930.39 Z " fill="rgb(28,20,19)"/><path d=" M 2383.631 920.767 L 2388.631 920.767 L 2388.631 925.579 L 2383.631 925.579 L 2383.631 920.767 Z " fill="rgb(28,20,19)"/><path d=" M 2383.631 940.012 L 2388.631 940.012 L 2388.631 944.824 L 2383.631 944.824 L 2383.631 940.012 Z " fill="rgb(28,20,19)"/><path d=" M 2383.631 930.39 L 2388.631 930.39 L 2388.631 935.201 L 2383.631 935.201 L 2383.631 930.39 Z " fill="rgb(28,20,19)"/><path d=" M 2383.631 949.635 L 2388.631 949.635 L 2388.631 954.446 L 2383.631 954.446 L 2383.631 949.635 Z " fill="rgb(28,20,19)"/><path d=" M 2383.631 959.257 L 2388.631 959.257 L 2388.631 964.069 L 2383.631 964.069 L 2383.631 959.257 Z " fill="rgb(28,20,19)"/><path d=" M 2383.631 959.239 L 2388.631 959.239 L 2388.631 964.05 L 2383.631 964.05 L 2383.631 959.239 Z " fill="rgb(28,20,19)"/><path d=" M 2383.631 978.484 L 2388.631 978.484 L 2388.631 983.295 L 2383.631 983.295 L 2383.631 978.484 Z " fill="rgb(28,20,19)"/><path d=" M 2383.631 968.861 L 2388.631 968.861 L 2388.631 973.672 L 2383.631 973.672 L 2383.631 968.861 Z " fill="rgb(28,20,19)"/><path d=" M 2383.631 988.106 L 2388.631 988.106 L 2388.631 992.917 L 2383.631 992.917 L 2383.631 988.106 Z " fill="rgb(28,20,19)"/><path d=" M 2383.631 997.729 L 2388.631 997.729 L 2388.631 1002.54 L 2383.631 1002.54 L 2383.631 997.729 Z " fill="rgb(28,20,19)"/><path d=" M 2383.631 988.106 L 2388.631 988.106 L 2388.631 992.917 L 2383.631 992.917 L 2383.631 988.106 Z " fill="rgb(28,20,19)"/><path d=" M 2383.631 1007.351 L 2388.631 1007.351 L 2388.631 1012.162 L 2383.631 1012.162 L 2383.631 1007.351 Z " fill="rgb(28,20,19)"/><path d=" M 2383.631 997.729 L 2388.631 997.729 L 2388.631 1002.54 L 2383.631 1002.54 L 2383.631 997.729 Z " fill="rgb(28,20,19)"/><path d=" M 2383.631 1016.974 L 2388.631 1016.974 L 2388.631 1021.785 L 2383.631 1021.785 L 2383.631 1016.974 Z " fill="rgb(28,20,19)"/><path d=" M 2383.631 1026.596 L 2388.631 1026.596 L 2388.631 1031.407 L 2383.631 1031.407 L 2383.631 1026.596 Z " fill="rgb(28,20,19)"/><path d=" M 2383.631 1026.596 L 2388.631 1026.596 L 2388.631 1031.407 L 2383.631 1031.407 L 2383.631 1026.596 Z " fill="rgb(28,20,19)"/><path d=" M 2383.631 1045.841 L 2388.631 1045.841 L 2388.631 1050.652 L 2383.631 1050.652 L 2383.631 1045.841 Z " fill="rgb(28,20,19)"/><path d=" M 2383.631 1036.219 L 2388.631 1036.219 L 2388.631 1041.03 L 2383.631 1041.03 L 2383.631 1036.219 Z " fill="rgb(28,20,19)"/><path d=" M 2383.631 1055.464 L 2388.631 1055.464 L 2388.631 1060.275 L 2383.631 1060.275 L 2383.631 1055.464 Z " fill="rgb(28,20,19)"/><path d=" M 2383.631 1055.464 L 2388.631 1055.464 L 2388.631 1060.275 L 2383.631 1060.275 L 2383.631 1055.464 Z " fill="rgb(28,20,19)"/><path d=" M 2372.131 781.719 L 2374.631 783.162 L 2374.631 1053.78 L 2372.131 1052.336 L 2372.131 781.719 Z " fill="rgb(28,20,19)"/><path d=" M 2397.381 801.926 L 2399.881 803.369 L 2399.881 1068.448 L 2397.381 1066.77 L 2397.381 801.926 Z " fill="rgb(28,20,19)"/></g></g></g><g id="body-curtainwall-right"><g id="body-windows-curtainwall-right"><path d=" M 2413.506 1102.576 L 2493.506 1102.576 L 2493.506 703.076 L 2413.506 703.076 L 2413.506 1102.576 Z " fill="none" vector-effect="non-scaling-stroke" stroke-width="1" stroke="rgb(0,0,0)" stroke-linejoin="round" stroke-linecap="round" stroke-miterlimit="3"/><line x1="2413.506" y1="714.493" x2="2493.506" y2="714.493" vector-effect="non-scaling-stroke" stroke-width="1" stroke="rgb(0,0,0)" stroke-linejoin="miter" stroke-linecap="square" stroke-miterlimit="3"/><line x1="2413.506" y1="748.744" x2="2493.506" y2="748.744" vector-effect="non-scaling-stroke" stroke-width="1" stroke="rgb(0,0,0)" stroke-linejoin="miter" stroke-linecap="square" stroke-miterlimit="3"/><line x1="2413.506" y1="1068.423" x2="2493.506" y2="1068.423" vector-effect="non-scaling-stroke" stroke-width="1" stroke="rgb(0,0,0)" stroke-linejoin="miter" stroke-linecap="square" stroke-miterlimit="3"/><line x1="2413.506" y1="794.413" x2="2493.506" y2="794.413" vector-effect="non-scaling-stroke" stroke-width="1" stroke="rgb(0,0,0)" stroke-linejoin="miter" stroke-linecap="square" stroke-miterlimit="3"/><line x1="2413.506" y1="1057.006" x2="2493.506" y2="1057.006" vector-effect="non-scaling-stroke" stroke-width="1" stroke="rgb(0,0,0)" stroke-linejoin="miter" stroke-linecap="square" stroke-miterlimit="3"/><line x1="2413.506" y1="840.081" x2="2493.506" y2="840.081" vector-effect="non-scaling-stroke" stroke-width="1" stroke="rgb(0,0,0)" stroke-linejoin="miter" stroke-linecap="square" stroke-miterlimit="3"/><line x1="2413.506" y1="862.915" x2="2493.506" y2="862.915" vector-effect="non-scaling-stroke" stroke-width="1" stroke="rgb(0,0,0)" stroke-linejoin="miter" stroke-linecap="square" stroke-miterlimit="3"/><line x1="2413.506" y1="897.167" x2="2493.506" y2="897.167" vector-effect="non-scaling-stroke" stroke-width="1" stroke="rgb(0,0,0)" stroke-linejoin="miter" stroke-linecap="square" stroke-miterlimit="3"/><line x1="2413.506" y1="1011.338" x2="2493.506" y2="1011.338" vector-effect="non-scaling-stroke" stroke-width="1" stroke="rgb(0,0,0)" stroke-linejoin="miter" stroke-linecap="square" stroke-miterlimit="3"/><line x1="2413.506" y1="942.835" x2="2493.506" y2="942.835" vector-effect="non-scaling-stroke" stroke-width="1" stroke="rgb(0,0,0)" stroke-linejoin="miter" stroke-linecap="square" stroke-miterlimit="3"/><line x1="2413.506" y1="965.669" x2="2493.506" y2="965.669" vector-effect="non-scaling-stroke" stroke-width="1" stroke="rgb(0,0,0)" stroke-linejoin="miter" stroke-linecap="square" stroke-miterlimit="3"/><line x1="2413.506" y1="1091.257" x2="2493.506" y2="1091.257" vector-effect="non-scaling-stroke" stroke-width="1" stroke="rgb(0,0,0)" stroke-linejoin="miter" stroke-linecap="square" stroke-miterlimit="3"/><line x1="2413.506" y1="954.252" x2="2493.506" y2="954.252" vector-effect="non-scaling-stroke" stroke-width="1" stroke="rgb(0,0,0)" stroke-linejoin="miter" stroke-linecap="square" stroke-miterlimit="3"/><line x1="2413.506" y1="999.92" x2="2493.506" y2="999.92" vector-effect="non-scaling-stroke" stroke-width="1" stroke="rgb(0,0,0)" stroke-linejoin="miter" stroke-linecap="square" stroke-miterlimit="3"/><line x1="2413.506" y1="931.418" x2="2493.506" y2="931.418" vector-effect="non-scaling-stroke" stroke-width="1" stroke="rgb(0,0,0)" stroke-linejoin="miter" stroke-linecap="square" stroke-miterlimit="3"/><line x1="2413.506" y1="725.91" x2="2493.506" y2="725.91" vector-effect="non-scaling-stroke" stroke-width="1" stroke="rgb(0,0,0)" stroke-linejoin="miter" stroke-linecap="square" stroke-miterlimit="3"/><line x1="2413.506" y1="1022.755" x2="2493.506" y2="1022.755" vector-effect="non-scaling-stroke" stroke-width="1" stroke="rgb(0,0,0)" stroke-linejoin="miter" stroke-linecap="square" stroke-miterlimit="3"/><line x1="2413.506" y1="885.75" x2="2493.506" y2="885.75" vector-effect="non-scaling-stroke" stroke-width="1" stroke="rgb(0,0,0)" stroke-linejoin="miter" stroke-linecap="square" stroke-miterlimit="3"/><line x1="2413.506" y1="874.332" x2="2493.506" y2="874.332" vector-effect="non-scaling-stroke" stroke-width="1" stroke="rgb(0,0,0)" stroke-linejoin="miter" stroke-linecap="square" stroke-miterlimit="3"/><line x1="2413.506" y1="1079.84" x2="2493.506" y2="1079.84" vector-effect="non-scaling-stroke" stroke-width="1" stroke="rgb(0,0,0)" stroke-linejoin="miter" stroke-linecap="square" stroke-miterlimit="3"/><line x1="2413.506" y1="851.498" x2="2493.506" y2="851.498" vector-effect="non-scaling-stroke" stroke-width="1" stroke="rgb(0,0,0)" stroke-linejoin="miter" stroke-linecap="square" stroke-miterlimit="3"/><line x1="2413.506" y1="977.086" x2="2493.506" y2="977.086" vector-effect="non-scaling-stroke" stroke-width="1" stroke="rgb(0,0,0)" stroke-linejoin="miter" stroke-linecap="square" stroke-miterlimit="3"/><line x1="2413.506" y1="828.664" x2="2493.506" y2="828.664" vector-effect="non-scaling-stroke" stroke-width="1" stroke="rgb(0,0,0)" stroke-linejoin="miter" stroke-linecap="square" stroke-miterlimit="3"/><line x1="2413.506" y1="817.247" x2="2493.506" y2="817.247" vector-effect="non-scaling-stroke" stroke-width="1" stroke="rgb(0,0,0)" stroke-linejoin="miter" stroke-linecap="square" stroke-miterlimit="3"/><line x1="2413.506" y1="805.83" x2="2493.506" y2="805.83" vector-effect="non-scaling-stroke" stroke-width="1" stroke="rgb(0,0,0)" stroke-linejoin="miter" stroke-linecap="square" stroke-miterlimit="3"/><line x1="2413.506" y1="1045.589" x2="2493.506" y2="1045.589" vector-effect="non-scaling-stroke" stroke-width="1" stroke="rgb(0,0,0)" stroke-linejoin="miter" stroke-linecap="square" stroke-miterlimit="3"/><line x1="2413.506" y1="782.996" x2="2493.506" y2="782.996" vector-effect="non-scaling-stroke" stroke-width="1" stroke="rgb(0,0,0)" stroke-linejoin="miter" stroke-linecap="square" stroke-miterlimit="3"/><line x1="2413.506" y1="771.579" x2="2493.506" y2="771.579" vector-effect="non-scaling-stroke" stroke-width="1" stroke="rgb(0,0,0)" stroke-linejoin="miter" stroke-linecap="square" stroke-miterlimit="3"/><line x1="2413.506" y1="760.162" x2="2493.506" y2="760.162" vector-effect="non-scaling-stroke" stroke-width="1" stroke="rgb(0,0,0)" stroke-linejoin="miter" stroke-linecap="square" stroke-miterlimit="3"/><line x1="2413.506" y1="1034.172" x2="2493.506" y2="1034.172" vector-effect="non-scaling-stroke" stroke-width="1" stroke="rgb(0,0,0)" stroke-linejoin="miter" stroke-linecap="square" stroke-miterlimit="3"/><line x1="2413.506" y1="920.001" x2="2493.506" y2="920.001" vector-effect="non-scaling-stroke" stroke-width="1" stroke="rgb(0,0,0)" stroke-linejoin="miter" stroke-linecap="square" stroke-miterlimit="3"/><line x1="2413.506" y1="737.327" x2="2493.506" y2="737.327" vector-effect="non-scaling-stroke" stroke-width="1" stroke="rgb(0,0,0)" stroke-linejoin="miter" stroke-linecap="square" stroke-miterlimit="3"/><line x1="2413.506" y1="908.584" x2="2493.506" y2="908.584" vector-effect="non-scaling-stroke" stroke-width="1" stroke="rgb(0,0,0)" stroke-linejoin="miter" stroke-linecap="square" stroke-miterlimit="3"/><line x1="2413.506" y1="988.503" x2="2493.506" y2="988.503" vector-effect="non-scaling-stroke" stroke-width="1" stroke="rgb(0,0,0)" stroke-linejoin="miter" stroke-linecap="square" stroke-miterlimit="3"/><line x1="2418.839" y1="703.076" x2="2418.839" y2="1102.426" vector-effect="non-scaling-stroke" stroke-width="1" stroke="rgb(0,0,0)" stroke-linejoin="miter" stroke-linecap="square" stroke-miterlimit="3"/><line x1="2456.172" y1="703.076" x2="2456.172" y2="1102.426" vector-effect="non-scaling-stroke" stroke-width="1" stroke="rgb(0,0,0)" stroke-linejoin="miter" stroke-linecap="square" stroke-miterlimit="3"/><line x1="2424.172" y1="703.076" x2="2424.172" y2="1102.426" vector-effect="non-scaling-stroke" stroke-width="1" stroke="rgb(0,0,0)" stroke-linejoin="miter" stroke-linecap="square" stroke-miterlimit="3"/><line x1="2466.839" y1="703.076" x2="2466.839" y2="1102.426" vector-effect="non-scaling-stroke" stroke-width="1" stroke="rgb(0,0,0)" stroke-linejoin="miter" stroke-linecap="square" stroke-miterlimit="3"/><line x1="2434.839" y1="703.076" x2="2434.839" y2="1102.426" vector-effect="non-scaling-stroke" stroke-width="1" stroke="rgb(0,0,0)" stroke-linejoin="miter" stroke-linecap="square" stroke-miterlimit="3"/><line x1="2482.839" y1="703.076" x2="2482.839" y2="1102.426" vector-effect="non-scaling-stroke" stroke-width="1" stroke="rgb(0,0,0)" stroke-linejoin="miter" stroke-linecap="square" stroke-miterlimit="3"/><line x1="2450.839" y1="703.076" x2="2450.839" y2="1102.426" vector-effect="non-scaling-stroke" stroke-width="1" stroke="rgb(0,0,0)" stroke-linejoin="miter" stroke-linecap="square" stroke-miterlimit="3"/><line x1="2488.172" y1="703.076" x2="2488.172" y2="1102.426" vector-effect="non-scaling-stroke" stroke-width="1" stroke="rgb(0,0,0)" stroke-linejoin="miter" stroke-linecap="square" stroke-miterlimit="3"/><line x1="2461.506" y1="703.076" x2="2461.506" y2="1102.426" vector-effect="non-scaling-stroke" stroke-width="1" stroke="rgb(0,0,0)" stroke-linejoin="miter" stroke-linecap="square" stroke-miterlimit="3"/><line x1="2429.506" y1="703.076" x2="2429.506" y2="1102.426" vector-effect="non-scaling-stroke" stroke-width="1" stroke="rgb(0,0,0)" stroke-linejoin="miter" stroke-linecap="square" stroke-miterlimit="3"/><line x1="2472.172" y1="703.076" x2="2472.172" y2="1102.426" vector-effect="non-scaling-stroke" stroke-width="1" stroke="rgb(0,0,0)" stroke-linejoin="miter" stroke-linecap="square" stroke-miterlimit="3"/><line x1="2440.172" y1="703.076" x2="2440.172" y2="1102.426" vector-effect="non-scaling-stroke" stroke-width="1" stroke="rgb(0,0,0)" stroke-linejoin="miter" stroke-linecap="square" stroke-miterlimit="3"/><line x1="2477.506" y1="703.076" x2="2477.506" y2="1102.426" vector-effect="non-scaling-stroke" stroke-width="1" stroke="rgb(0,0,0)" stroke-linejoin="miter" stroke-linecap="square" stroke-miterlimit="3"/><line x1="2445.506" y1="703.076" x2="2445.506" y2="1102.426" vector-effect="non-scaling-stroke" stroke-width="1" stroke="rgb(0,0,0)" stroke-linejoin="miter" stroke-linecap="square" stroke-miterlimit="3"/></g></g></g></svg>