<?xml version="1.0" standalone="no"?><!-- Generator: Gravit.io --><svg xmlns="http://www.w3.org/2000/svg" xmlns:xlink="http://www.w3.org/1999/xlink" style="isolation:isolate" viewBox="1805.835 679.961 162.75 422.615" width="162.75" height="422.615"><g id="body-windows-rectangle"><g id="boa-body"><g id="Group"><g id="body-windows-color-1"><path d=" M 1934.057 691.065 L 1934.057 699.4 L 1934.057 740.139" fill="none" vector-effect="non-scaling-stroke" stroke-width="3" stroke="rgb(91,66,63)" stroke-linejoin="miter" stroke-linecap="square" stroke-miterlimit="3"/><path d=" M 1941.335 691.065 L 1941.335 699.9 L 1941.335 740.139" fill="none" vector-effect="non-scaling-stroke" stroke-width="3" stroke="rgb(91,66,63)" stroke-linejoin="miter" stroke-linecap="square" stroke-miterlimit="3"/><path d=" M 1934.057 756.903 L 1934.057 761.806 L 1934.057 785.771" fill="none" vector-effect="non-scaling-stroke" stroke-width="3" stroke="rgb(91,66,63)" stroke-linejoin="miter" stroke-linecap="square" stroke-miterlimit="3"/><path d=" M 1941.335 756.903 L 1941.335 762.101 L 1941.335 785.771" fill="none" vector-effect="non-scaling-stroke" stroke-width="3" stroke="rgb(91,66,63)" stroke-linejoin="miter" stroke-linecap="square" stroke-miterlimit="3"/><path d=" M 1952.335 785.771 L 1957.335 785.771 L 1957.335 790.582 L 1952.335 790.582 L 1952.335 785.771 Z " fill="rgb(91,66,63)"/><path d=" M 1952.335 805.016 L 1957.335 805.016 L 1957.335 809.827 L 1952.335 809.827 L 1952.335 805.016 Z " fill="rgb(91,66,63)"/><path d=" M 1952.335 795.393 L 1957.335 795.393 L 1957.335 800.204 L 1952.335 800.204 L 1952.335 795.393 Z " fill="rgb(91,66,63)"/><path d=" M 1952.335 814.638 L 1957.335 814.638 L 1957.335 819.449 L 1952.335 819.449 L 1952.335 814.638 Z " fill="rgb(91,66,63)"/><path d=" M 1952.335 824.261 L 1957.335 824.261 L 1957.335 829.072 L 1952.335 829.072 L 1952.335 824.261 Z " fill="rgb(91,66,63)"/><path d=" M 1952.335 814.638 L 1957.335 814.638 L 1957.335 819.449 L 1952.335 819.449 L 1952.335 814.638 Z " fill="rgb(91,66,63)"/><path d=" M 1952.335 833.883 L 1957.335 833.883 L 1957.335 838.694 L 1952.335 838.694 L 1952.335 833.883 Z " fill="rgb(91,66,63)"/><path d=" M 1952.335 824.261 L 1957.335 824.261 L 1957.335 829.072 L 1952.335 829.072 L 1952.335 824.261 Z " fill="rgb(91,66,63)"/><path d=" M 1952.335 843.506 L 1957.335 843.506 L 1957.335 848.317 L 1952.335 848.317 L 1952.335 843.506 Z " fill="rgb(91,66,63)"/><path d=" M 1952.335 853.128 L 1957.335 853.128 L 1957.335 857.939 L 1952.335 857.939 L 1952.335 853.128 Z " fill="rgb(91,66,63)"/><path d=" M 1952.335 891.862 L 1957.335 891.862 L 1957.335 896.673 L 1952.335 896.673 L 1952.335 891.862 Z " fill="rgb(91,66,63)"/><path d=" M 1952.335 853.166 L 1957.335 853.166 L 1957.335 857.977 L 1952.335 857.977 L 1952.335 853.166 Z " fill="rgb(91,66,63)"/><path d=" M 1952.335 872.411 L 1957.335 872.411 L 1957.335 877.222 L 1952.335 877.222 L 1952.335 872.411 Z " fill="rgb(91,66,63)"/><path d=" M 1952.335 862.788 L 1957.335 862.788 L 1957.335 867.6 L 1952.335 867.6 L 1952.335 862.788 Z " fill="rgb(91,66,63)"/><path d=" M 1952.335 882.033 L 1957.335 882.033 L 1957.335 886.845 L 1952.335 886.845 L 1952.335 882.033 Z " fill="rgb(91,66,63)"/><path d=" M 1952.335 891.656 L 1957.335 891.656 L 1957.335 896.467 L 1952.335 896.467 L 1952.335 891.656 Z " fill="rgb(91,66,63)"/><path d=" M 1952.335 882.033 L 1957.335 882.033 L 1957.335 886.845 L 1952.335 886.845 L 1952.335 882.033 Z " fill="rgb(91,66,63)"/><path d=" M 1952.335 891.656 L 1957.335 891.656 L 1957.335 896.467 L 1952.335 896.467 L 1952.335 891.656 Z " fill="rgb(91,66,63)"/><path d=" M 1952.335 911.145 L 1957.335 911.145 L 1957.335 915.956 L 1952.335 915.956 L 1952.335 911.145 Z " fill="rgb(91,66,63)"/><path d=" M 1952.335 901.522 L 1957.335 901.522 L 1957.335 906.334 L 1952.335 906.334 L 1952.335 901.522 Z " fill="rgb(91,66,63)"/><path d=" M 1952.335 920.767 L 1957.335 920.767 L 1957.335 925.579 L 1952.335 925.579 L 1952.335 920.767 Z " fill="rgb(91,66,63)"/><path d=" M 1952.335 930.39 L 1957.335 930.39 L 1957.335 935.201 L 1952.335 935.201 L 1952.335 930.39 Z " fill="rgb(91,66,63)"/><path d=" M 1952.335 920.767 L 1957.335 920.767 L 1957.335 925.579 L 1952.335 925.579 L 1952.335 920.767 Z " fill="rgb(91,66,63)"/><path d=" M 1952.335 940.012 L 1957.335 940.012 L 1957.335 944.824 L 1952.335 944.824 L 1952.335 940.012 Z " fill="rgb(91,66,63)"/><path d=" M 1952.335 930.39 L 1957.335 930.39 L 1957.335 935.201 L 1952.335 935.201 L 1952.335 930.39 Z " fill="rgb(91,66,63)"/><path d=" M 1952.335 949.635 L 1957.335 949.635 L 1957.335 954.446 L 1952.335 954.446 L 1952.335 949.635 Z " fill="rgb(91,66,63)"/><path d=" M 1952.335 959.257 L 1957.335 959.257 L 1957.335 964.069 L 1952.335 964.069 L 1952.335 959.257 Z " fill="rgb(91,66,63)"/><path d=" M 1952.335 959.239 L 1957.335 959.239 L 1957.335 964.05 L 1952.335 964.05 L 1952.335 959.239 Z " fill="rgb(91,66,63)"/><path d=" M 1952.335 978.484 L 1957.335 978.484 L 1957.335 983.295 L 1952.335 983.295 L 1952.335 978.484 Z " fill="rgb(91,66,63)"/><path d=" M 1952.335 968.861 L 1957.335 968.861 L 1957.335 973.672 L 1952.335 973.672 L 1952.335 968.861 Z " fill="rgb(91,66,63)"/><path d=" M 1952.335 988.106 L 1957.335 988.106 L 1957.335 992.917 L 1952.335 992.917 L 1952.335 988.106 Z " fill="rgb(91,66,63)"/><path d=" M 1952.335 997.729 L 1957.335 997.729 L 1957.335 1002.54 L 1952.335 1002.54 L 1952.335 997.729 Z " fill="rgb(91,66,63)"/><path d=" M 1952.335 988.106 L 1957.335 988.106 L 1957.335 992.917 L 1952.335 992.917 L 1952.335 988.106 Z " fill="rgb(91,66,63)"/><path d=" M 1952.335 1007.351 L 1957.335 1007.351 L 1957.335 1012.162 L 1952.335 1012.162 L 1952.335 1007.351 Z " fill="rgb(91,66,63)"/><path d=" M 1952.335 997.729 L 1957.335 997.729 L 1957.335 1002.54 L 1952.335 1002.54 L 1952.335 997.729 Z " fill="rgb(91,66,63)"/><path d=" M 1952.335 1016.974 L 1957.335 1016.974 L 1957.335 1021.785 L 1952.335 1021.785 L 1952.335 1016.974 Z " fill="rgb(91,66,63)"/><path d=" M 1952.335 1026.596 L 1957.335 1026.596 L 1957.335 1031.407 L 1952.335 1031.407 L 1952.335 1026.596 Z " fill="rgb(91,66,63)"/><path d=" M 1952.335 1026.596 L 1957.335 1026.596 L 1957.335 1031.407 L 1952.335 1031.407 L 1952.335 1026.596 Z " fill="rgb(91,66,63)"/><path d=" M 1952.335 1045.841 L 1957.335 1045.841 L 1957.335 1050.652 L 1952.335 1050.652 L 1952.335 1045.841 Z " fill="rgb(91,66,63)"/><path d=" M 1952.335 1036.219 L 1957.335 1036.219 L 1957.335 1041.03 L 1952.335 1041.03 L 1952.335 1036.219 Z " fill="rgb(91,66,63)"/><path d=" M 1952.335 1055.464 L 1957.335 1055.464 L 1957.335 1060.275 L 1952.335 1060.275 L 1952.335 1055.464 Z " fill="rgb(91,66,63)"/><path d=" M 1952.335 1055.464 L 1957.335 1055.464 L 1957.335 1060.275 L 1952.335 1060.275 L 1952.335 1055.464 Z " fill="rgb(91,66,63)"/><path d=" M 1953.585 679.961 L 1961.085 679.961 L 1961.085 685.734 L 1953.585 685.734 L 1953.585 679.961 Z " fill="rgb(91,66,63)"/><path d=" M 1953.585 703.055 L 1961.085 703.055 L 1961.085 708.828 L 1953.585 708.828 L 1953.585 703.055 Z " fill="rgb(91,66,63)"/><path d=" M 1953.585 691.508 L 1961.085 691.508 L 1961.085 697.281 L 1953.585 697.281 L 1953.585 691.508 Z " fill="rgb(91,66,63)"/><path d=" M 1953.585 714.602 L 1961.085 714.602 L 1961.085 720.375 L 1953.585 720.375 L 1953.585 714.602 Z " fill="rgb(91,66,63)"/><path d=" M 1953.585 737.696 L 1961.085 737.696 L 1961.085 743.469 L 1953.585 743.469 L 1953.585 737.696 Z " fill="rgb(91,66,63)"/><path d=" M 1953.585 726.149 L 1961.085 726.149 L 1961.085 731.922 L 1953.585 731.922 L 1953.585 726.149 Z " fill="rgb(91,66,63)"/><path d=" M 1953.585 749.243 L 1961.085 749.243 L 1961.085 755.016 L 1953.585 755.016 L 1953.585 749.243 Z " fill="rgb(91,66,63)"/><path d=" M 1953.585 760.79 L 1961.085 760.79 L 1961.085 766.563 L 1953.585 766.563 L 1953.585 760.79 Z " fill="rgb(91,66,63)"/><path d=" M 1943.585 801.926 L 1941.085 803.369 L 1941.085 1068.448 L 1943.585 1066.77 L 1943.585 801.926 Z " fill="rgb(91,66,63)"/><path d=" M 1968.585 781.719 L 1966.085 783.162 L 1966.085 1053.78 L 1968.585 1052.336 L 1968.585 781.719 Z " fill="rgb(91,66,63)"/></g><path d=" M 1843.585 801.926 L 1841.085 803.369 L 1841.085 1068.448 L 1843.585 1066.77 L 1843.585 801.926 Z " fill="rgb(91,66,63)"/><path d=" M 1931.085 801.926 L 1933.585 803.369 L 1933.585 1068.448 L 1931.085 1066.77 L 1931.085 801.926 Z " fill="rgb(59,43,41)"/><g id="body-windows-color-3"><path d=" M 1840.794 691.065 L 1840.794 699.4 L 1840.794 740.139" fill="none" vector-effect="non-scaling-stroke" stroke-width="3" stroke="rgb(28,20,19)" stroke-linejoin="miter" stroke-linecap="square" stroke-miterlimit="3"/><path d=" M 1833.516 691.065 L 1833.516 699.9 L 1833.516 740.139" fill="none" vector-effect="non-scaling-stroke" stroke-width="3" stroke="rgb(28,20,19)" stroke-linejoin="miter" stroke-linecap="square" stroke-miterlimit="3"/><path d=" M 1840.794 756.903 L 1840.794 761.806 L 1840.794 785.771" fill="none" vector-effect="non-scaling-stroke" stroke-width="3" stroke="rgb(28,20,19)" stroke-linejoin="miter" stroke-linecap="square" stroke-miterlimit="3"/><path d=" M 1833.516 756.903 L 1833.516 762.101 L 1833.516 785.771" fill="none" vector-effect="non-scaling-stroke" stroke-width="3" stroke="rgb(28,20,19)" stroke-linejoin="miter" stroke-linecap="square" stroke-miterlimit="3"/><path d=" M 1813.585 679.961 L 1821.085 679.961 L 1821.085 685.734 L 1813.585 685.734 L 1813.585 679.961 Z " fill="rgb(28,20,19)"/><path d=" M 1813.585 703.055 L 1821.085 703.055 L 1821.085 708.828 L 1813.585 708.828 L 1813.585 703.055 Z " fill="rgb(28,20,19)"/><path d=" M 1813.585 691.508 L 1821.085 691.508 L 1821.085 697.281 L 1813.585 697.281 L 1813.585 691.508 Z " fill="rgb(28,20,19)"/><path d=" M 1813.585 714.602 L 1821.085 714.602 L 1821.085 720.375 L 1813.585 720.375 L 1813.585 714.602 Z " fill="rgb(28,20,19)"/><path d=" M 1813.585 726.149 L 1821.085 726.149 L 1821.085 731.922 L 1813.585 731.922 L 1813.585 726.149 Z " fill="rgb(28,20,19)"/><path d=" M 1813.585 714.602 L 1821.085 714.602 L 1821.085 720.375 L 1813.585 720.375 L 1813.585 714.602 Z " fill="rgb(28,20,19)"/><path d=" M 1813.585 737.696 L 1821.085 737.696 L 1821.085 743.469 L 1813.585 743.469 L 1813.585 737.696 Z " fill="rgb(28,20,19)"/><path d=" M 1813.585 726.149 L 1821.085 726.149 L 1821.085 731.922 L 1813.585 731.922 L 1813.585 726.149 Z " fill="rgb(28,20,19)"/><path d=" M 1813.585 749.243 L 1821.085 749.243 L 1821.085 755.016 L 1813.585 755.016 L 1813.585 749.243 Z " fill="rgb(28,20,19)"/><path d=" M 1813.585 760.79 L 1821.085 760.79 L 1821.085 766.563 L 1813.585 766.563 L 1813.585 760.79 Z " fill="rgb(28,20,19)"/><path d=" M 1817.335 785.771 L 1822.335 785.771 L 1822.335 790.582 L 1817.335 790.582 L 1817.335 785.771 Z " fill="rgb(28,20,19)"/><path d=" M 1817.335 805.016 L 1822.335 805.016 L 1822.335 809.827 L 1817.335 809.827 L 1817.335 805.016 Z " fill="rgb(28,20,19)"/><path d=" M 1817.335 795.393 L 1822.335 795.393 L 1822.335 800.204 L 1817.335 800.204 L 1817.335 795.393 Z " fill="rgb(28,20,19)"/><path d=" M 1817.335 814.638 L 1822.335 814.638 L 1822.335 819.449 L 1817.335 819.449 L 1817.335 814.638 Z " fill="rgb(28,20,19)"/><path d=" M 1817.335 824.261 L 1822.335 824.261 L 1822.335 829.072 L 1817.335 829.072 L 1817.335 824.261 Z " fill="rgb(28,20,19)"/><path d=" M 1817.335 814.638 L 1822.335 814.638 L 1822.335 819.449 L 1817.335 819.449 L 1817.335 814.638 Z " fill="rgb(28,20,19)"/><path d=" M 1817.335 833.883 L 1822.335 833.883 L 1822.335 838.694 L 1817.335 838.694 L 1817.335 833.883 Z " fill="rgb(28,20,19)"/><path d=" M 1817.335 824.261 L 1822.335 824.261 L 1822.335 829.072 L 1817.335 829.072 L 1817.335 824.261 Z " fill="rgb(28,20,19)"/><path d=" M 1817.335 843.506 L 1822.335 843.506 L 1822.335 848.317 L 1817.335 848.317 L 1817.335 843.506 Z " fill="rgb(28,20,19)"/><path d=" M 1817.335 853.128 L 1822.335 853.128 L 1822.335 857.939 L 1817.335 857.939 L 1817.335 853.128 Z " fill="rgb(28,20,19)"/><path d=" M 1817.335 891.862 L 1822.335 891.862 L 1822.335 896.673 L 1817.335 896.673 L 1817.335 891.862 Z " fill="rgb(28,20,19)"/><path d=" M 1817.335 853.166 L 1822.335 853.166 L 1822.335 857.977 L 1817.335 857.977 L 1817.335 853.166 Z " fill="rgb(28,20,19)"/><path d=" M 1817.335 872.411 L 1822.335 872.411 L 1822.335 877.222 L 1817.335 877.222 L 1817.335 872.411 Z " fill="rgb(28,20,19)"/><path d=" M 1817.335 862.788 L 1822.335 862.788 L 1822.335 867.6 L 1817.335 867.6 L 1817.335 862.788 Z " fill="rgb(28,20,19)"/><path d=" M 1817.335 882.033 L 1822.335 882.033 L 1822.335 886.845 L 1817.335 886.845 L 1817.335 882.033 Z " fill="rgb(28,20,19)"/><path d=" M 1817.335 891.656 L 1822.335 891.656 L 1822.335 896.467 L 1817.335 896.467 L 1817.335 891.656 Z " fill="rgb(28,20,19)"/><path d=" M 1817.335 882.033 L 1822.335 882.033 L 1822.335 886.845 L 1817.335 886.845 L 1817.335 882.033 Z " fill="rgb(28,20,19)"/><path d=" M 1817.335 891.656 L 1822.335 891.656 L 1822.335 896.467 L 1817.335 896.467 L 1817.335 891.656 Z " fill="rgb(28,20,19)"/><path d=" M 1817.335 891.9 L 1822.335 891.9 L 1822.335 896.711 L 1817.335 896.711 L 1817.335 891.9 Z " fill="rgb(28,20,19)"/><path d=" M 1817.335 911.145 L 1822.335 911.145 L 1822.335 915.956 L 1817.335 915.956 L 1817.335 911.145 Z " fill="rgb(28,20,19)"/><path d=" M 1817.335 901.522 L 1822.335 901.522 L 1822.335 906.334 L 1817.335 906.334 L 1817.335 901.522 Z " fill="rgb(28,20,19)"/><path d=" M 1817.335 920.767 L 1822.335 920.767 L 1822.335 925.579 L 1817.335 925.579 L 1817.335 920.767 Z " fill="rgb(28,20,19)"/><path d=" M 1817.335 930.39 L 1822.335 930.39 L 1822.335 935.201 L 1817.335 935.201 L 1817.335 930.39 Z " fill="rgb(28,20,19)"/><path d=" M 1817.335 920.767 L 1822.335 920.767 L 1822.335 925.579 L 1817.335 925.579 L 1817.335 920.767 Z " fill="rgb(28,20,19)"/><path d=" M 1817.335 940.012 L 1822.335 940.012 L 1822.335 944.824 L 1817.335 944.824 L 1817.335 940.012 Z " fill="rgb(28,20,19)"/><path d=" M 1817.335 930.39 L 1822.335 930.39 L 1822.335 935.201 L 1817.335 935.201 L 1817.335 930.39 Z " fill="rgb(28,20,19)"/><path d=" M 1817.335 949.635 L 1822.335 949.635 L 1822.335 954.446 L 1817.335 954.446 L 1817.335 949.635 Z " fill="rgb(28,20,19)"/><path d=" M 1817.335 959.257 L 1822.335 959.257 L 1822.335 964.069 L 1817.335 964.069 L 1817.335 959.257 Z " fill="rgb(28,20,19)"/><path d=" M 1817.335 959.239 L 1822.335 959.239 L 1822.335 964.05 L 1817.335 964.05 L 1817.335 959.239 Z " fill="rgb(28,20,19)"/><path d=" M 1817.335 978.484 L 1822.335 978.484 L 1822.335 983.295 L 1817.335 983.295 L 1817.335 978.484 Z " fill="rgb(28,20,19)"/><path d=" M 1817.335 968.861 L 1822.335 968.861 L 1822.335 973.672 L 1817.335 973.672 L 1817.335 968.861 Z " fill="rgb(28,20,19)"/><path d=" M 1817.335 988.106 L 1822.335 988.106 L 1822.335 992.917 L 1817.335 992.917 L 1817.335 988.106 Z " fill="rgb(28,20,19)"/><path d=" M 1817.335 997.729 L 1822.335 997.729 L 1822.335 1002.54 L 1817.335 1002.54 L 1817.335 997.729 Z " fill="rgb(28,20,19)"/><path d=" M 1817.335 988.106 L 1822.335 988.106 L 1822.335 992.917 L 1817.335 992.917 L 1817.335 988.106 Z " fill="rgb(28,20,19)"/><path d=" M 1817.335 1007.351 L 1822.335 1007.351 L 1822.335 1012.162 L 1817.335 1012.162 L 1817.335 1007.351 Z " fill="rgb(28,20,19)"/><path d=" M 1817.335 997.729 L 1822.335 997.729 L 1822.335 1002.54 L 1817.335 1002.54 L 1817.335 997.729 Z " fill="rgb(28,20,19)"/><path d=" M 1817.335 1016.974 L 1822.335 1016.974 L 1822.335 1021.785 L 1817.335 1021.785 L 1817.335 1016.974 Z " fill="rgb(28,20,19)"/><path d=" M 1817.335 1026.596 L 1822.335 1026.596 L 1822.335 1031.407 L 1817.335 1031.407 L 1817.335 1026.596 Z " fill="rgb(28,20,19)"/><path d=" M 1817.335 1026.596 L 1822.335 1026.596 L 1822.335 1031.407 L 1817.335 1031.407 L 1817.335 1026.596 Z " fill="rgb(28,20,19)"/><path d=" M 1817.335 1045.841 L 1822.335 1045.841 L 1822.335 1050.652 L 1817.335 1050.652 L 1817.335 1045.841 Z " fill="rgb(28,20,19)"/><path d=" M 1817.335 1036.219 L 1822.335 1036.219 L 1822.335 1041.03 L 1817.335 1041.03 L 1817.335 1036.219 Z " fill="rgb(28,20,19)"/><path d=" M 1817.335 1055.464 L 1822.335 1055.464 L 1822.335 1060.275 L 1817.335 1060.275 L 1817.335 1055.464 Z " fill="rgb(28,20,19)"/><path d=" M 1817.335 1055.464 L 1822.335 1055.464 L 1822.335 1060.275 L 1817.335 1060.275 L 1817.335 1055.464 Z " fill="rgb(28,20,19)"/><path d=" M 1805.835 781.719 L 1808.335 783.162 L 1808.335 1053.78 L 1805.835 1052.336 L 1805.835 781.719 Z " fill="rgb(28,20,19)"/><path d=" M 1831.085 801.926 L 1833.585 803.369 L 1833.585 1068.448 L 1831.085 1066.77 L 1831.085 801.926 Z " fill="rgb(28,20,19)"/></g></g></g><g id="body-windows-color-2"><g id="Group"><path d=" M 1854.71 703.223 L 1859.71 703.223 L 1859.71 708.035 L 1854.71 708.035 L 1854.71 703.223 Z " fill="rgb(59,43,41)"/><path d=" M 1854.71 722.468 L 1859.71 722.468 L 1859.71 727.28 L 1854.71 727.28 L 1854.71 722.468 Z " fill="rgb(59,43,41)"/><path d=" M 1854.71 712.846 L 1859.71 712.846 L 1859.71 717.657 L 1854.71 717.657 L 1854.71 712.846 Z " fill="rgb(59,43,41)"/><path d=" M 1854.71 732.091 L 1859.71 732.091 L 1859.71 736.902 L 1854.71 736.902 L 1854.71 732.091 Z " fill="rgb(59,43,41)"/><path d=" M 1854.71 741.713 L 1859.71 741.713 L 1859.71 746.525 L 1854.71 746.525 L 1854.71 741.713 Z " fill="rgb(59,43,41)"/><path d=" M 1854.71 732.091 L 1859.71 732.091 L 1859.71 736.902 L 1854.71 736.902 L 1854.71 732.091 Z " fill="rgb(59,43,41)"/><path d=" M 1854.71 751.336 L 1859.71 751.336 L 1859.71 756.147 L 1854.71 756.147 L 1854.71 751.336 Z " fill="rgb(59,43,41)"/><path d=" M 1854.71 741.713 L 1859.71 741.713 L 1859.71 746.525 L 1854.71 746.525 L 1854.71 741.713 Z " fill="rgb(59,43,41)"/><path d=" M 1854.71 760.958 L 1859.71 760.958 L 1859.71 765.77 L 1854.71 765.77 L 1854.71 760.958 Z " fill="rgb(59,43,41)"/><path d=" M 1854.71 770.581 L 1859.71 770.581 L 1859.71 775.392 L 1854.71 775.392 L 1854.71 770.581 Z " fill="rgb(59,43,41)"/><path d=" M 1854.71 837.957 L 1859.71 837.957 L 1859.71 842.768 L 1854.71 842.768 L 1854.71 837.957 Z " fill="rgb(59,43,41)"/><path d=" M 1854.71 857.202 L 1859.71 857.202 L 1859.71 862.013 L 1854.71 862.013 L 1854.71 857.202 Z " fill="rgb(59,43,41)"/><path d=" M 1854.71 847.58 L 1859.71 847.58 L 1859.71 852.391 L 1854.71 852.391 L 1854.71 847.58 Z " fill="rgb(59,43,41)"/><path d=" M 1854.71 866.825 L 1859.71 866.825 L 1859.71 871.636 L 1854.71 871.636 L 1854.71 866.825 Z " fill="rgb(59,43,41)"/><path d=" M 1854.71 876.447 L 1859.71 876.447 L 1859.71 881.258 L 1854.71 881.258 L 1854.71 876.447 Z " fill="rgb(59,43,41)"/><path d=" M 1854.71 1068.86 L 1859.71 1068.86 L 1859.71 1073.671 L 1854.71 1073.671 L 1854.71 1068.86 Z " fill="rgb(59,43,41)"/><path d=" M 1854.71 866.825 L 1859.71 866.825 L 1859.71 871.636 L 1854.71 871.636 L 1854.71 866.825 Z " fill="rgb(59,43,41)"/><path d=" M 1854.71 886.07 L 1859.71 886.07 L 1859.71 890.881 L 1854.71 890.881 L 1854.71 886.07 Z " fill="rgb(59,43,41)"/><path d=" M 1854.71 1078.482 L 1859.71 1078.482 L 1859.71 1083.293 L 1854.71 1083.293 L 1854.71 1078.482 Z " fill="rgb(59,43,41)"/><path d=" M 1854.71 876.447 L 1859.71 876.447 L 1859.71 881.258 L 1854.71 881.258 L 1854.71 876.447 Z " fill="rgb(59,43,41)"/><path d=" M 1854.71 1068.86 L 1859.71 1068.86 L 1859.71 1073.671 L 1854.71 1073.671 L 1854.71 1068.86 Z " fill="rgb(59,43,41)"/><path d=" M 1854.71 895.692 L 1859.71 895.692 L 1859.71 900.503 L 1854.71 900.503 L 1854.71 895.692 Z " fill="rgb(59,43,41)"/><path d=" M 1854.71 1088.105 L 1859.71 1088.105 L 1859.71 1092.916 L 1854.71 1092.916 L 1854.71 1088.105 Z " fill="rgb(59,43,41)"/><path d=" M 1854.71 905.315 L 1859.71 905.315 L 1859.71 910.126 L 1854.71 910.126 L 1854.71 905.315 Z " fill="rgb(59,43,41)"/><path d=" M 1854.71 1097.727 L 1859.71 1097.727 L 1859.71 1102.538 L 1854.71 1102.538 L 1854.71 1097.727 Z " fill="rgb(59,43,41)"/><path d=" M 1854.71 770.619 L 1859.71 770.619 L 1859.71 775.43 L 1854.71 775.43 L 1854.71 770.619 Z " fill="rgb(59,43,41)"/><path d=" M 1854.71 789.864 L 1859.71 789.864 L 1859.71 794.675 L 1854.71 794.675 L 1854.71 789.864 Z " fill="rgb(59,43,41)"/><path d=" M 1854.71 780.241 L 1859.71 780.241 L 1859.71 785.052 L 1854.71 785.052 L 1854.71 780.241 Z " fill="rgb(59,43,41)"/><path d=" M 1854.71 799.486 L 1859.71 799.486 L 1859.71 804.297 L 1854.71 804.297 L 1854.71 799.486 Z " fill="rgb(59,43,41)"/><path d=" M 1854.71 809.109 L 1859.71 809.109 L 1859.71 813.92 L 1854.71 813.92 L 1854.71 809.109 Z " fill="rgb(59,43,41)"/><path d=" M 1854.71 799.486 L 1859.71 799.486 L 1859.71 804.297 L 1854.71 804.297 L 1854.71 799.486 Z " fill="rgb(59,43,41)"/><path d=" M 1854.71 818.731 L 1859.71 818.731 L 1859.71 823.542 L 1854.71 823.542 L 1854.71 818.731 Z " fill="rgb(59,43,41)"/><path d=" M 1854.71 809.109 L 1859.71 809.109 L 1859.71 813.92 L 1854.71 813.92 L 1854.71 809.109 Z " fill="rgb(59,43,41)"/><path d=" M 1854.71 828.354 L 1859.71 828.354 L 1859.71 833.165 L 1854.71 833.165 L 1854.71 828.354 Z " fill="rgb(59,43,41)"/><path d=" M 1854.71 837.976 L 1859.71 837.976 L 1859.71 842.787 L 1854.71 842.787 L 1854.71 837.976 Z " fill="rgb(59,43,41)"/><path d=" M 1854.71 905.353 L 1859.71 905.353 L 1859.71 910.164 L 1854.71 910.164 L 1854.71 905.353 Z " fill="rgb(59,43,41)"/><path d=" M 1854.71 1097.765 L 1859.71 1097.765 L 1859.71 1102.576 L 1854.71 1102.576 L 1854.71 1097.765 Z " fill="rgb(59,43,41)"/><path d=" M 1854.71 924.598 L 1859.71 924.598 L 1859.71 929.409 L 1854.71 929.409 L 1854.71 924.598 Z " fill="rgb(59,43,41)"/><path d=" M 1854.71 914.975 L 1859.71 914.975 L 1859.71 919.786 L 1854.71 919.786 L 1854.71 914.975 Z " fill="rgb(59,43,41)"/><path d=" M 1854.71 934.22 L 1859.71 934.22 L 1859.71 939.031 L 1854.71 939.031 L 1854.71 934.22 Z " fill="rgb(59,43,41)"/><path d=" M 1854.71 943.843 L 1859.71 943.843 L 1859.71 948.654 L 1854.71 948.654 L 1854.71 943.843 Z " fill="rgb(59,43,41)"/><path d=" M 1854.71 934.22 L 1859.71 934.22 L 1859.71 939.031 L 1854.71 939.031 L 1854.71 934.22 Z " fill="rgb(59,43,41)"/><path d=" M 1854.71 953.465 L 1859.71 953.465 L 1859.71 958.276 L 1854.71 958.276 L 1854.71 953.465 Z " fill="rgb(59,43,41)"/><path d=" M 1854.71 943.843 L 1859.71 943.843 L 1859.71 948.654 L 1854.71 948.654 L 1854.71 943.843 Z " fill="rgb(59,43,41)"/><path d=" M 1854.71 963.088 L 1859.71 963.088 L 1859.71 967.899 L 1854.71 967.899 L 1854.71 963.088 Z " fill="rgb(59,43,41)"/><path d=" M 1854.71 972.71 L 1859.71 972.71 L 1859.71 977.521 L 1854.71 977.521 L 1854.71 972.71 Z " fill="rgb(59,43,41)"/><path d=" M 1854.71 972.691 L 1859.71 972.691 L 1859.71 977.502 L 1854.71 977.502 L 1854.71 972.691 Z " fill="rgb(59,43,41)"/><path d=" M 1854.71 991.936 L 1859.71 991.936 L 1859.71 996.747 L 1854.71 996.747 L 1854.71 991.936 Z " fill="rgb(59,43,41)"/><path d=" M 1854.71 982.314 L 1859.71 982.314 L 1859.71 987.125 L 1854.71 987.125 L 1854.71 982.314 Z " fill="rgb(59,43,41)"/><path d=" M 1854.71 1001.559 L 1859.71 1001.559 L 1859.71 1006.37 L 1854.71 1006.37 L 1854.71 1001.559 Z " fill="rgb(59,43,41)"/><path d=" M 1854.71 1011.181 L 1859.71 1011.181 L 1859.71 1015.992 L 1854.71 1015.992 L 1854.71 1011.181 Z " fill="rgb(59,43,41)"/><path d=" M 1854.71 1001.559 L 1859.71 1001.559 L 1859.71 1006.37 L 1854.71 1006.37 L 1854.71 1001.559 Z " fill="rgb(59,43,41)"/><path d=" M 1854.71 1020.804 L 1859.71 1020.804 L 1859.71 1025.615 L 1854.71 1025.615 L 1854.71 1020.804 Z " fill="rgb(59,43,41)"/><path d=" M 1854.71 1011.181 L 1859.71 1011.181 L 1859.71 1015.992 L 1854.71 1015.992 L 1854.71 1011.181 Z " fill="rgb(59,43,41)"/><path d=" M 1854.71 1030.426 L 1859.71 1030.426 L 1859.71 1035.237 L 1854.71 1035.237 L 1854.71 1030.426 Z " fill="rgb(59,43,41)"/><path d=" M 1854.71 1040.049 L 1859.71 1040.049 L 1859.71 1044.86 L 1854.71 1044.86 L 1854.71 1040.049 Z " fill="rgb(59,43,41)"/><path d=" M 1854.71 1040.049 L 1859.71 1040.049 L 1859.71 1044.86 L 1854.71 1044.86 L 1854.71 1040.049 Z " fill="rgb(59,43,41)"/><path d=" M 1854.71 1059.294 L 1859.71 1059.294 L 1859.71 1064.105 L 1854.71 1064.105 L 1854.71 1059.294 Z " fill="rgb(59,43,41)"/><path d=" M 1854.71 1049.671 L 1859.71 1049.671 L 1859.71 1054.482 L 1854.71 1054.482 L 1854.71 1049.671 Z " fill="rgb(59,43,41)"/><path d=" M 1854.71 1068.916 L 1859.71 1068.916 L 1859.71 1073.727 L 1854.71 1073.727 L 1854.71 1068.916 Z " fill="rgb(59,43,41)"/></g><g id="Group"><path d=" M 1866.71 703.223 L 1871.71 703.223 L 1871.71 708.035 L 1866.71 708.035 L 1866.71 703.223 Z " fill="rgb(59,43,41)"/><path d=" M 1866.71 722.468 L 1871.71 722.468 L 1871.71 727.28 L 1866.71 727.28 L 1866.71 722.468 Z " fill="rgb(59,43,41)"/><path d=" M 1866.71 712.846 L 1871.71 712.846 L 1871.71 717.657 L 1866.71 717.657 L 1866.71 712.846 Z " fill="rgb(59,43,41)"/><path d=" M 1866.71 732.091 L 1871.71 732.091 L 1871.71 736.902 L 1866.71 736.902 L 1866.71 732.091 Z " fill="rgb(59,43,41)"/><path d=" M 1866.71 741.713 L 1871.71 741.713 L 1871.71 746.525 L 1866.71 746.525 L 1866.71 741.713 Z " fill="rgb(59,43,41)"/><path d=" M 1866.71 732.091 L 1871.71 732.091 L 1871.71 736.902 L 1866.71 736.902 L 1866.71 732.091 Z " fill="rgb(59,43,41)"/><path d=" M 1866.71 751.336 L 1871.71 751.336 L 1871.71 756.147 L 1866.71 756.147 L 1866.71 751.336 Z " fill="rgb(59,43,41)"/><path d=" M 1866.71 741.713 L 1871.71 741.713 L 1871.71 746.525 L 1866.71 746.525 L 1866.71 741.713 Z " fill="rgb(59,43,41)"/><path d=" M 1866.71 760.958 L 1871.71 760.958 L 1871.71 765.77 L 1866.71 765.77 L 1866.71 760.958 Z " fill="rgb(59,43,41)"/><path d=" M 1866.71 770.581 L 1871.71 770.581 L 1871.71 775.392 L 1866.71 775.392 L 1866.71 770.581 Z " fill="rgb(59,43,41)"/><path d=" M 1866.71 837.957 L 1871.71 837.957 L 1871.71 842.768 L 1866.71 842.768 L 1866.71 837.957 Z " fill="rgb(59,43,41)"/><path d=" M 1866.71 857.202 L 1871.71 857.202 L 1871.71 862.013 L 1866.71 862.013 L 1866.71 857.202 Z " fill="rgb(59,43,41)"/><path d=" M 1866.71 847.58 L 1871.71 847.58 L 1871.71 852.391 L 1866.71 852.391 L 1866.71 847.58 Z " fill="rgb(59,43,41)"/><path d=" M 1866.71 866.825 L 1871.71 866.825 L 1871.71 871.636 L 1866.71 871.636 L 1866.71 866.825 Z " fill="rgb(59,43,41)"/><path d=" M 1866.71 876.447 L 1871.71 876.447 L 1871.71 881.258 L 1866.71 881.258 L 1866.71 876.447 Z " fill="rgb(59,43,41)"/><path d=" M 1866.71 1068.86 L 1871.71 1068.86 L 1871.71 1073.671 L 1866.71 1073.671 L 1866.71 1068.86 Z " fill="rgb(59,43,41)"/><path d=" M 1866.71 866.825 L 1871.71 866.825 L 1871.71 871.636 L 1866.71 871.636 L 1866.71 866.825 Z " fill="rgb(59,43,41)"/><path d=" M 1866.71 886.07 L 1871.71 886.07 L 1871.71 890.881 L 1866.71 890.881 L 1866.71 886.07 Z " fill="rgb(59,43,41)"/><path d=" M 1866.71 1078.482 L 1871.71 1078.482 L 1871.71 1083.293 L 1866.71 1083.293 L 1866.71 1078.482 Z " fill="rgb(59,43,41)"/><path d=" M 1866.71 876.447 L 1871.71 876.447 L 1871.71 881.258 L 1866.71 881.258 L 1866.71 876.447 Z " fill="rgb(59,43,41)"/><path d=" M 1866.71 1068.86 L 1871.71 1068.86 L 1871.71 1073.671 L 1866.71 1073.671 L 1866.71 1068.86 Z " fill="rgb(59,43,41)"/><path d=" M 1866.71 895.692 L 1871.71 895.692 L 1871.71 900.503 L 1866.71 900.503 L 1866.71 895.692 Z " fill="rgb(59,43,41)"/><path d=" M 1866.71 1088.105 L 1871.71 1088.105 L 1871.71 1092.916 L 1866.71 1092.916 L 1866.71 1088.105 Z " fill="rgb(59,43,41)"/><path d=" M 1866.71 905.315 L 1871.71 905.315 L 1871.71 910.126 L 1866.71 910.126 L 1866.71 905.315 Z " fill="rgb(59,43,41)"/><path d=" M 1866.71 1097.727 L 1871.71 1097.727 L 1871.71 1102.538 L 1866.71 1102.538 L 1866.71 1097.727 Z " fill="rgb(59,43,41)"/><path d=" M 1866.71 770.619 L 1871.71 770.619 L 1871.71 775.43 L 1866.71 775.43 L 1866.71 770.619 Z " fill="rgb(59,43,41)"/><path d=" M 1866.71 789.864 L 1871.71 789.864 L 1871.71 794.675 L 1866.71 794.675 L 1866.71 789.864 Z " fill="rgb(59,43,41)"/><path d=" M 1866.71 780.241 L 1871.71 780.241 L 1871.71 785.052 L 1866.71 785.052 L 1866.71 780.241 Z " fill="rgb(59,43,41)"/><path d=" M 1866.71 799.486 L 1871.71 799.486 L 1871.71 804.297 L 1866.71 804.297 L 1866.71 799.486 Z " fill="rgb(59,43,41)"/><path d=" M 1866.71 809.109 L 1871.71 809.109 L 1871.71 813.92 L 1866.71 813.92 L 1866.71 809.109 Z " fill="rgb(59,43,41)"/><path d=" M 1866.71 799.486 L 1871.71 799.486 L 1871.71 804.297 L 1866.71 804.297 L 1866.71 799.486 Z " fill="rgb(59,43,41)"/><path d=" M 1866.71 818.731 L 1871.71 818.731 L 1871.71 823.542 L 1866.71 823.542 L 1866.71 818.731 Z " fill="rgb(59,43,41)"/><path d=" M 1866.71 809.109 L 1871.71 809.109 L 1871.71 813.92 L 1866.71 813.92 L 1866.71 809.109 Z " fill="rgb(59,43,41)"/><path d=" M 1866.71 828.354 L 1871.71 828.354 L 1871.71 833.165 L 1866.71 833.165 L 1866.71 828.354 Z " fill="rgb(59,43,41)"/><path d=" M 1866.71 837.976 L 1871.71 837.976 L 1871.71 842.787 L 1866.71 842.787 L 1866.71 837.976 Z " fill="rgb(59,43,41)"/><path d=" M 1866.71 905.353 L 1871.71 905.353 L 1871.71 910.164 L 1866.71 910.164 L 1866.71 905.353 Z " fill="rgb(59,43,41)"/><path d=" M 1866.71 1097.765 L 1871.71 1097.765 L 1871.71 1102.576 L 1866.71 1102.576 L 1866.71 1097.765 Z " fill="rgb(59,43,41)"/><path d=" M 1866.71 924.598 L 1871.71 924.598 L 1871.71 929.409 L 1866.71 929.409 L 1866.71 924.598 Z " fill="rgb(59,43,41)"/><path d=" M 1866.71 914.975 L 1871.71 914.975 L 1871.71 919.786 L 1866.71 919.786 L 1866.71 914.975 Z " fill="rgb(59,43,41)"/><path d=" M 1866.71 934.22 L 1871.71 934.22 L 1871.71 939.031 L 1866.71 939.031 L 1866.71 934.22 Z " fill="rgb(59,43,41)"/><path d=" M 1866.71 943.843 L 1871.71 943.843 L 1871.71 948.654 L 1866.71 948.654 L 1866.71 943.843 Z " fill="rgb(59,43,41)"/><path d=" M 1866.71 934.22 L 1871.71 934.22 L 1871.71 939.031 L 1866.71 939.031 L 1866.71 934.22 Z " fill="rgb(59,43,41)"/><path d=" M 1866.71 953.465 L 1871.71 953.465 L 1871.71 958.276 L 1866.71 958.276 L 1866.71 953.465 Z " fill="rgb(59,43,41)"/><path d=" M 1866.71 943.843 L 1871.71 943.843 L 1871.71 948.654 L 1866.71 948.654 L 1866.71 943.843 Z " fill="rgb(59,43,41)"/><path d=" M 1866.71 963.088 L 1871.71 963.088 L 1871.71 967.899 L 1866.71 967.899 L 1866.71 963.088 Z " fill="rgb(59,43,41)"/><path d=" M 1866.71 972.71 L 1871.71 972.71 L 1871.71 977.521 L 1866.71 977.521 L 1866.71 972.71 Z " fill="rgb(59,43,41)"/><path d=" M 1866.71 972.691 L 1871.71 972.691 L 1871.71 977.502 L 1866.71 977.502 L 1866.71 972.691 Z " fill="rgb(59,43,41)"/><path d=" M 1866.71 991.936 L 1871.71 991.936 L 1871.71 996.747 L 1866.71 996.747 L 1866.71 991.936 Z " fill="rgb(59,43,41)"/><path d=" M 1866.71 982.314 L 1871.71 982.314 L 1871.71 987.125 L 1866.71 987.125 L 1866.71 982.314 Z " fill="rgb(59,43,41)"/><path d=" M 1866.71 1001.559 L 1871.71 1001.559 L 1871.71 1006.37 L 1866.71 1006.37 L 1866.71 1001.559 Z " fill="rgb(59,43,41)"/><path d=" M 1866.71 1011.181 L 1871.71 1011.181 L 1871.71 1015.992 L 1866.71 1015.992 L 1866.71 1011.181 Z " fill="rgb(59,43,41)"/><path d=" M 1866.71 1001.559 L 1871.71 1001.559 L 1871.71 1006.37 L 1866.71 1006.37 L 1866.71 1001.559 Z " fill="rgb(59,43,41)"/><path d=" M 1866.71 1020.804 L 1871.71 1020.804 L 1871.71 1025.615 L 1866.71 1025.615 L 1866.71 1020.804 Z " fill="rgb(59,43,41)"/><path d=" M 1866.71 1011.181 L 1871.71 1011.181 L 1871.71 1015.992 L 1866.71 1015.992 L 1866.71 1011.181 Z " fill="rgb(59,43,41)"/><path d=" M 1866.71 1030.426 L 1871.71 1030.426 L 1871.71 1035.237 L 1866.71 1035.237 L 1866.71 1030.426 Z " fill="rgb(59,43,41)"/><path d=" M 1866.71 1040.049 L 1871.71 1040.049 L 1871.71 1044.86 L 1866.71 1044.86 L 1866.71 1040.049 Z " fill="rgb(59,43,41)"/><path d=" M 1866.71 1040.049 L 1871.71 1040.049 L 1871.71 1044.86 L 1866.71 1044.86 L 1866.71 1040.049 Z " fill="rgb(59,43,41)"/><path d=" M 1866.71 1059.294 L 1871.71 1059.294 L 1871.71 1064.105 L 1866.71 1064.105 L 1866.71 1059.294 Z " fill="rgb(59,43,41)"/><path d=" M 1866.71 1049.671 L 1871.71 1049.671 L 1871.71 1054.482 L 1866.71 1054.482 L 1866.71 1049.671 Z " fill="rgb(59,43,41)"/><path d=" M 1866.71 1068.916 L 1871.71 1068.916 L 1871.71 1073.727 L 1866.71 1073.727 L 1866.71 1068.916 Z " fill="rgb(59,43,41)"/></g><g id="Group"><path d=" M 1878.71 703.223 L 1883.71 703.223 L 1883.71 708.035 L 1878.71 708.035 L 1878.71 703.223 Z " fill="rgb(59,43,41)"/><path d=" M 1878.71 722.468 L 1883.71 722.468 L 1883.71 727.28 L 1878.71 727.28 L 1878.71 722.468 Z " fill="rgb(59,43,41)"/><path d=" M 1878.71 712.846 L 1883.71 712.846 L 1883.71 717.657 L 1878.71 717.657 L 1878.71 712.846 Z " fill="rgb(59,43,41)"/><path d=" M 1878.71 732.091 L 1883.71 732.091 L 1883.71 736.902 L 1878.71 736.902 L 1878.71 732.091 Z " fill="rgb(59,43,41)"/><path d=" M 1878.71 741.713 L 1883.71 741.713 L 1883.71 746.525 L 1878.71 746.525 L 1878.71 741.713 Z " fill="rgb(59,43,41)"/><path d=" M 1878.71 732.091 L 1883.71 732.091 L 1883.71 736.902 L 1878.71 736.902 L 1878.71 732.091 Z " fill="rgb(59,43,41)"/><path d=" M 1878.71 751.336 L 1883.71 751.336 L 1883.71 756.147 L 1878.71 756.147 L 1878.71 751.336 Z " fill="rgb(59,43,41)"/><path d=" M 1878.71 741.713 L 1883.71 741.713 L 1883.71 746.525 L 1878.71 746.525 L 1878.71 741.713 Z " fill="rgb(59,43,41)"/><path d=" M 1878.71 760.958 L 1883.71 760.958 L 1883.71 765.77 L 1878.71 765.77 L 1878.71 760.958 Z " fill="rgb(59,43,41)"/><path d=" M 1878.71 770.581 L 1883.71 770.581 L 1883.71 775.392 L 1878.71 775.392 L 1878.71 770.581 Z " fill="rgb(59,43,41)"/><path d=" M 1878.71 837.957 L 1883.71 837.957 L 1883.71 842.768 L 1878.71 842.768 L 1878.71 837.957 Z " fill="rgb(59,43,41)"/><path d=" M 1878.71 857.202 L 1883.71 857.202 L 1883.71 862.013 L 1878.71 862.013 L 1878.71 857.202 Z " fill="rgb(59,43,41)"/><path d=" M 1878.71 847.58 L 1883.71 847.58 L 1883.71 852.391 L 1878.71 852.391 L 1878.71 847.58 Z " fill="rgb(59,43,41)"/><path d=" M 1878.71 866.825 L 1883.71 866.825 L 1883.71 871.636 L 1878.71 871.636 L 1878.71 866.825 Z " fill="rgb(59,43,41)"/><path d=" M 1878.71 876.447 L 1883.71 876.447 L 1883.71 881.258 L 1878.71 881.258 L 1878.71 876.447 Z " fill="rgb(59,43,41)"/><path d=" M 1878.71 1068.86 L 1883.71 1068.86 L 1883.71 1073.671 L 1878.71 1073.671 L 1878.71 1068.86 Z " fill="rgb(59,43,41)"/><path d=" M 1878.71 866.825 L 1883.71 866.825 L 1883.71 871.636 L 1878.71 871.636 L 1878.71 866.825 Z " fill="rgb(59,43,41)"/><path d=" M 1878.71 886.07 L 1883.71 886.07 L 1883.71 890.881 L 1878.71 890.881 L 1878.71 886.07 Z " fill="rgb(59,43,41)"/><path d=" M 1878.71 1078.482 L 1883.71 1078.482 L 1883.71 1083.293 L 1878.71 1083.293 L 1878.71 1078.482 Z " fill="rgb(59,43,41)"/><path d=" M 1878.71 876.447 L 1883.71 876.447 L 1883.71 881.258 L 1878.71 881.258 L 1878.71 876.447 Z " fill="rgb(59,43,41)"/><path d=" M 1878.71 1068.86 L 1883.71 1068.86 L 1883.71 1073.671 L 1878.71 1073.671 L 1878.71 1068.86 Z " fill="rgb(59,43,41)"/><path d=" M 1878.71 895.692 L 1883.71 895.692 L 1883.71 900.503 L 1878.71 900.503 L 1878.71 895.692 Z " fill="rgb(59,43,41)"/><path d=" M 1878.71 1088.105 L 1883.71 1088.105 L 1883.71 1092.916 L 1878.71 1092.916 L 1878.71 1088.105 Z " fill="rgb(59,43,41)"/><path d=" M 1878.71 905.315 L 1883.71 905.315 L 1883.71 910.126 L 1878.71 910.126 L 1878.71 905.315 Z " fill="rgb(59,43,41)"/><path d=" M 1878.71 1097.727 L 1883.71 1097.727 L 1883.71 1102.538 L 1878.71 1102.538 L 1878.71 1097.727 Z " fill="rgb(59,43,41)"/><path d=" M 1878.71 770.619 L 1883.71 770.619 L 1883.71 775.43 L 1878.71 775.43 L 1878.71 770.619 Z " fill="rgb(59,43,41)"/><path d=" M 1878.71 789.864 L 1883.71 789.864 L 1883.71 794.675 L 1878.71 794.675 L 1878.71 789.864 Z " fill="rgb(59,43,41)"/><path d=" M 1878.71 780.241 L 1883.71 780.241 L 1883.71 785.052 L 1878.71 785.052 L 1878.71 780.241 Z " fill="rgb(59,43,41)"/><path d=" M 1878.71 799.486 L 1883.71 799.486 L 1883.71 804.297 L 1878.71 804.297 L 1878.71 799.486 Z " fill="rgb(59,43,41)"/><path d=" M 1878.71 809.109 L 1883.71 809.109 L 1883.71 813.92 L 1878.71 813.92 L 1878.71 809.109 Z " fill="rgb(59,43,41)"/><path d=" M 1878.71 799.486 L 1883.71 799.486 L 1883.71 804.297 L 1878.71 804.297 L 1878.71 799.486 Z " fill="rgb(59,43,41)"/><path d=" M 1878.71 818.731 L 1883.71 818.731 L 1883.71 823.542 L 1878.71 823.542 L 1878.71 818.731 Z " fill="rgb(59,43,41)"/><path d=" M 1878.71 809.109 L 1883.71 809.109 L 1883.71 813.92 L 1878.71 813.92 L 1878.71 809.109 Z " fill="rgb(59,43,41)"/><path d=" M 1878.71 828.354 L 1883.71 828.354 L 1883.71 833.165 L 1878.71 833.165 L 1878.71 828.354 Z " fill="rgb(59,43,41)"/><path d=" M 1878.71 837.976 L 1883.71 837.976 L 1883.71 842.787 L 1878.71 842.787 L 1878.71 837.976 Z " fill="rgb(59,43,41)"/><path d=" M 1878.71 905.353 L 1883.71 905.353 L 1883.71 910.164 L 1878.71 910.164 L 1878.71 905.353 Z " fill="rgb(59,43,41)"/><path d=" M 1878.71 1097.765 L 1883.71 1097.765 L 1883.71 1102.576 L 1878.71 1102.576 L 1878.71 1097.765 Z " fill="rgb(59,43,41)"/><path d=" M 1878.71 924.598 L 1883.71 924.598 L 1883.71 929.409 L 1878.71 929.409 L 1878.71 924.598 Z " fill="rgb(59,43,41)"/><path d=" M 1878.71 914.975 L 1883.71 914.975 L 1883.71 919.786 L 1878.71 919.786 L 1878.71 914.975 Z " fill="rgb(59,43,41)"/><path d=" M 1878.71 934.22 L 1883.71 934.22 L 1883.71 939.031 L 1878.71 939.031 L 1878.71 934.22 Z " fill="rgb(59,43,41)"/><path d=" M 1878.71 943.843 L 1883.71 943.843 L 1883.71 948.654 L 1878.71 948.654 L 1878.71 943.843 Z " fill="rgb(59,43,41)"/><path d=" M 1878.71 934.22 L 1883.71 934.22 L 1883.71 939.031 L 1878.71 939.031 L 1878.71 934.22 Z " fill="rgb(59,43,41)"/><path d=" M 1878.71 953.465 L 1883.71 953.465 L 1883.71 958.276 L 1878.71 958.276 L 1878.71 953.465 Z " fill="rgb(59,43,41)"/><path d=" M 1878.71 943.843 L 1883.71 943.843 L 1883.71 948.654 L 1878.71 948.654 L 1878.71 943.843 Z " fill="rgb(59,43,41)"/><path d=" M 1878.71 963.088 L 1883.71 963.088 L 1883.71 967.899 L 1878.71 967.899 L 1878.71 963.088 Z " fill="rgb(59,43,41)"/><path d=" M 1878.71 972.71 L 1883.71 972.71 L 1883.71 977.521 L 1878.71 977.521 L 1878.71 972.71 Z " fill="rgb(59,43,41)"/><path d=" M 1878.71 972.691 L 1883.71 972.691 L 1883.71 977.502 L 1878.71 977.502 L 1878.71 972.691 Z " fill="rgb(59,43,41)"/><path d=" M 1878.71 991.936 L 1883.71 991.936 L 1883.71 996.747 L 1878.71 996.747 L 1878.71 991.936 Z " fill="rgb(59,43,41)"/><path d=" M 1878.71 982.314 L 1883.71 982.314 L 1883.71 987.125 L 1878.71 987.125 L 1878.71 982.314 Z " fill="rgb(59,43,41)"/><path d=" M 1878.71 1001.559 L 1883.71 1001.559 L 1883.71 1006.37 L 1878.71 1006.37 L 1878.71 1001.559 Z " fill="rgb(59,43,41)"/><path d=" M 1878.71 1011.181 L 1883.71 1011.181 L 1883.71 1015.992 L 1878.71 1015.992 L 1878.71 1011.181 Z " fill="rgb(59,43,41)"/><path d=" M 1878.71 1001.559 L 1883.71 1001.559 L 1883.71 1006.37 L 1878.71 1006.37 L 1878.71 1001.559 Z " fill="rgb(59,43,41)"/><path d=" M 1878.71 1020.804 L 1883.71 1020.804 L 1883.71 1025.615 L 1878.71 1025.615 L 1878.71 1020.804 Z " fill="rgb(59,43,41)"/><path d=" M 1878.71 1011.181 L 1883.71 1011.181 L 1883.71 1015.992 L 1878.71 1015.992 L 1878.71 1011.181 Z " fill="rgb(59,43,41)"/><path d=" M 1878.71 1030.426 L 1883.71 1030.426 L 1883.71 1035.237 L 1878.71 1035.237 L 1878.71 1030.426 Z " fill="rgb(59,43,41)"/><path d=" M 1878.71 1040.049 L 1883.71 1040.049 L 1883.71 1044.86 L 1878.71 1044.86 L 1878.71 1040.049 Z " fill="rgb(59,43,41)"/><path d=" M 1878.71 1040.049 L 1883.71 1040.049 L 1883.71 1044.86 L 1878.71 1044.86 L 1878.71 1040.049 Z " fill="rgb(59,43,41)"/><path d=" M 1878.71 1059.294 L 1883.71 1059.294 L 1883.71 1064.105 L 1878.71 1064.105 L 1878.71 1059.294 Z " fill="rgb(59,43,41)"/><path d=" M 1878.71 1049.671 L 1883.71 1049.671 L 1883.71 1054.482 L 1878.71 1054.482 L 1878.71 1049.671 Z " fill="rgb(59,43,41)"/><path d=" M 1878.71 1068.916 L 1883.71 1068.916 L 1883.71 1073.727 L 1878.71 1073.727 L 1878.71 1068.916 Z " fill="rgb(59,43,41)"/></g><g id="Group"><path d=" M 1890.71 703.223 L 1895.71 703.223 L 1895.71 708.035 L 1890.71 708.035 L 1890.71 703.223 Z " fill="rgb(59,43,41)"/><path d=" M 1890.71 722.468 L 1895.71 722.468 L 1895.71 727.28 L 1890.71 727.28 L 1890.71 722.468 Z " fill="rgb(59,43,41)"/><path d=" M 1890.71 712.846 L 1895.71 712.846 L 1895.71 717.657 L 1890.71 717.657 L 1890.71 712.846 Z " fill="rgb(59,43,41)"/><path d=" M 1890.71 732.091 L 1895.71 732.091 L 1895.71 736.902 L 1890.71 736.902 L 1890.71 732.091 Z " fill="rgb(59,43,41)"/><path d=" M 1890.71 741.713 L 1895.71 741.713 L 1895.71 746.525 L 1890.71 746.525 L 1890.71 741.713 Z " fill="rgb(59,43,41)"/><path d=" M 1890.71 732.091 L 1895.71 732.091 L 1895.71 736.902 L 1890.71 736.902 L 1890.71 732.091 Z " fill="rgb(59,43,41)"/><path d=" M 1890.71 751.336 L 1895.71 751.336 L 1895.71 756.147 L 1890.71 756.147 L 1890.71 751.336 Z " fill="rgb(59,43,41)"/><path d=" M 1890.71 741.713 L 1895.71 741.713 L 1895.71 746.525 L 1890.71 746.525 L 1890.71 741.713 Z " fill="rgb(59,43,41)"/><path d=" M 1890.71 760.958 L 1895.71 760.958 L 1895.71 765.77 L 1890.71 765.77 L 1890.71 760.958 Z " fill="rgb(59,43,41)"/><path d=" M 1890.71 770.581 L 1895.71 770.581 L 1895.71 775.392 L 1890.71 775.392 L 1890.71 770.581 Z " fill="rgb(59,43,41)"/><path d=" M 1890.71 837.957 L 1895.71 837.957 L 1895.71 842.768 L 1890.71 842.768 L 1890.71 837.957 Z " fill="rgb(59,43,41)"/><path d=" M 1890.71 857.202 L 1895.71 857.202 L 1895.71 862.013 L 1890.71 862.013 L 1890.71 857.202 Z " fill="rgb(59,43,41)"/><path d=" M 1890.71 847.58 L 1895.71 847.58 L 1895.71 852.391 L 1890.71 852.391 L 1890.71 847.58 Z " fill="rgb(59,43,41)"/><path d=" M 1890.71 866.825 L 1895.71 866.825 L 1895.71 871.636 L 1890.71 871.636 L 1890.71 866.825 Z " fill="rgb(59,43,41)"/><path d=" M 1890.71 876.447 L 1895.71 876.447 L 1895.71 881.258 L 1890.71 881.258 L 1890.71 876.447 Z " fill="rgb(59,43,41)"/><path d=" M 1890.71 1068.86 L 1895.71 1068.86 L 1895.71 1073.671 L 1890.71 1073.671 L 1890.71 1068.86 Z " fill="rgb(59,43,41)"/><path d=" M 1890.71 866.825 L 1895.71 866.825 L 1895.71 871.636 L 1890.71 871.636 L 1890.71 866.825 Z " fill="rgb(59,43,41)"/><path d=" M 1890.71 886.07 L 1895.71 886.07 L 1895.71 890.881 L 1890.71 890.881 L 1890.71 886.07 Z " fill="rgb(59,43,41)"/><path d=" M 1890.71 1078.482 L 1895.71 1078.482 L 1895.71 1083.293 L 1890.71 1083.293 L 1890.71 1078.482 Z " fill="rgb(59,43,41)"/><path d=" M 1890.71 876.447 L 1895.71 876.447 L 1895.71 881.258 L 1890.71 881.258 L 1890.71 876.447 Z " fill="rgb(59,43,41)"/><path d=" M 1890.71 1068.86 L 1895.71 1068.86 L 1895.71 1073.671 L 1890.71 1073.671 L 1890.71 1068.86 Z " fill="rgb(59,43,41)"/><path d=" M 1890.71 895.692 L 1895.71 895.692 L 1895.71 900.503 L 1890.71 900.503 L 1890.71 895.692 Z " fill="rgb(59,43,41)"/><path d=" M 1890.71 1088.105 L 1895.71 1088.105 L 1895.71 1092.916 L 1890.71 1092.916 L 1890.71 1088.105 Z " fill="rgb(59,43,41)"/><path d=" M 1890.71 905.315 L 1895.71 905.315 L 1895.71 910.126 L 1890.71 910.126 L 1890.71 905.315 Z " fill="rgb(59,43,41)"/><path d=" M 1890.71 1097.727 L 1895.71 1097.727 L 1895.71 1102.538 L 1890.71 1102.538 L 1890.71 1097.727 Z " fill="rgb(59,43,41)"/><path d=" M 1890.71 770.619 L 1895.71 770.619 L 1895.71 775.43 L 1890.71 775.43 L 1890.71 770.619 Z " fill="rgb(59,43,41)"/><path d=" M 1890.71 789.864 L 1895.71 789.864 L 1895.71 794.675 L 1890.71 794.675 L 1890.71 789.864 Z " fill="rgb(59,43,41)"/><path d=" M 1890.71 780.241 L 1895.71 780.241 L 1895.71 785.052 L 1890.71 785.052 L 1890.71 780.241 Z " fill="rgb(59,43,41)"/><path d=" M 1890.71 799.486 L 1895.71 799.486 L 1895.71 804.297 L 1890.71 804.297 L 1890.71 799.486 Z " fill="rgb(59,43,41)"/><path d=" M 1890.71 809.109 L 1895.71 809.109 L 1895.71 813.92 L 1890.71 813.92 L 1890.71 809.109 Z " fill="rgb(59,43,41)"/><path d=" M 1890.71 799.486 L 1895.71 799.486 L 1895.71 804.297 L 1890.71 804.297 L 1890.71 799.486 Z " fill="rgb(59,43,41)"/><path d=" M 1890.71 818.731 L 1895.71 818.731 L 1895.71 823.542 L 1890.71 823.542 L 1890.71 818.731 Z " fill="rgb(59,43,41)"/><path d=" M 1890.71 809.109 L 1895.71 809.109 L 1895.71 813.92 L 1890.71 813.92 L 1890.71 809.109 Z " fill="rgb(59,43,41)"/><path d=" M 1890.71 828.354 L 1895.71 828.354 L 1895.71 833.165 L 1890.71 833.165 L 1890.71 828.354 Z " fill="rgb(59,43,41)"/><path d=" M 1890.71 837.976 L 1895.71 837.976 L 1895.71 842.787 L 1890.71 842.787 L 1890.71 837.976 Z " fill="rgb(59,43,41)"/><path d=" M 1890.71 905.353 L 1895.71 905.353 L 1895.71 910.164 L 1890.71 910.164 L 1890.71 905.353 Z " fill="rgb(59,43,41)"/><path d=" M 1890.71 1097.765 L 1895.71 1097.765 L 1895.71 1102.576 L 1890.71 1102.576 L 1890.71 1097.765 Z " fill="rgb(59,43,41)"/><path d=" M 1890.71 924.598 L 1895.71 924.598 L 1895.71 929.409 L 1890.71 929.409 L 1890.71 924.598 Z " fill="rgb(59,43,41)"/><path d=" M 1890.71 914.975 L 1895.71 914.975 L 1895.71 919.786 L 1890.71 919.786 L 1890.71 914.975 Z " fill="rgb(59,43,41)"/><path d=" M 1890.71 934.22 L 1895.71 934.22 L 1895.71 939.031 L 1890.71 939.031 L 1890.71 934.22 Z " fill="rgb(59,43,41)"/><path d=" M 1890.71 943.843 L 1895.71 943.843 L 1895.71 948.654 L 1890.71 948.654 L 1890.71 943.843 Z " fill="rgb(59,43,41)"/><path d=" M 1890.71 934.22 L 1895.71 934.22 L 1895.71 939.031 L 1890.71 939.031 L 1890.71 934.22 Z " fill="rgb(59,43,41)"/><path d=" M 1890.71 953.465 L 1895.71 953.465 L 1895.71 958.276 L 1890.71 958.276 L 1890.71 953.465 Z " fill="rgb(59,43,41)"/><path d=" M 1890.71 943.843 L 1895.71 943.843 L 1895.71 948.654 L 1890.71 948.654 L 1890.71 943.843 Z " fill="rgb(59,43,41)"/><path d=" M 1890.71 963.088 L 1895.71 963.088 L 1895.71 967.899 L 1890.71 967.899 L 1890.71 963.088 Z " fill="rgb(59,43,41)"/><path d=" M 1890.71 972.71 L 1895.71 972.71 L 1895.71 977.521 L 1890.71 977.521 L 1890.71 972.71 Z " fill="rgb(59,43,41)"/><path d=" M 1890.71 972.691 L 1895.71 972.691 L 1895.71 977.502 L 1890.71 977.502 L 1890.71 972.691 Z " fill="rgb(59,43,41)"/><path d=" M 1890.71 991.936 L 1895.71 991.936 L 1895.71 996.747 L 1890.71 996.747 L 1890.71 991.936 Z " fill="rgb(59,43,41)"/><path d=" M 1890.71 982.314 L 1895.71 982.314 L 1895.71 987.125 L 1890.71 987.125 L 1890.71 982.314 Z " fill="rgb(59,43,41)"/><path d=" M 1890.71 1001.559 L 1895.71 1001.559 L 1895.71 1006.37 L 1890.71 1006.37 L 1890.71 1001.559 Z " fill="rgb(59,43,41)"/><path d=" M 1890.71 1011.181 L 1895.71 1011.181 L 1895.71 1015.992 L 1890.71 1015.992 L 1890.71 1011.181 Z " fill="rgb(59,43,41)"/><path d=" M 1890.71 1001.559 L 1895.71 1001.559 L 1895.71 1006.37 L 1890.71 1006.37 L 1890.71 1001.559 Z " fill="rgb(59,43,41)"/><path d=" M 1890.71 1020.804 L 1895.71 1020.804 L 1895.71 1025.615 L 1890.71 1025.615 L 1890.71 1020.804 Z " fill="rgb(59,43,41)"/><path d=" M 1890.71 1011.181 L 1895.71 1011.181 L 1895.71 1015.992 L 1890.71 1015.992 L 1890.71 1011.181 Z " fill="rgb(59,43,41)"/><path d=" M 1890.71 1030.426 L 1895.71 1030.426 L 1895.71 1035.237 L 1890.71 1035.237 L 1890.71 1030.426 Z " fill="rgb(59,43,41)"/><path d=" M 1890.71 1040.049 L 1895.71 1040.049 L 1895.71 1044.86 L 1890.71 1044.86 L 1890.71 1040.049 Z " fill="rgb(59,43,41)"/><path d=" M 1890.71 1040.049 L 1895.71 1040.049 L 1895.71 1044.86 L 1890.71 1044.86 L 1890.71 1040.049 Z " fill="rgb(59,43,41)"/><path d=" M 1890.71 1059.294 L 1895.71 1059.294 L 1895.71 1064.105 L 1890.71 1064.105 L 1890.71 1059.294 Z " fill="rgb(59,43,41)"/><path d=" M 1890.71 1049.671 L 1895.71 1049.671 L 1895.71 1054.482 L 1890.71 1054.482 L 1890.71 1049.671 Z " fill="rgb(59,43,41)"/><path d=" M 1890.71 1068.916 L 1895.71 1068.916 L 1895.71 1073.727 L 1890.71 1073.727 L 1890.71 1068.916 Z " fill="rgb(59,43,41)"/></g><g id="Group"><path d=" M 1902.71 703.223 L 1907.71 703.223 L 1907.71 708.035 L 1902.71 708.035 L 1902.71 703.223 Z " fill="rgb(59,43,41)"/><path d=" M 1902.71 722.468 L 1907.71 722.468 L 1907.71 727.28 L 1902.71 727.28 L 1902.71 722.468 Z " fill="rgb(59,43,41)"/><path d=" M 1902.71 712.846 L 1907.71 712.846 L 1907.71 717.657 L 1902.71 717.657 L 1902.71 712.846 Z " fill="rgb(59,43,41)"/><path d=" M 1902.71 732.091 L 1907.71 732.091 L 1907.71 736.902 L 1902.71 736.902 L 1902.71 732.091 Z " fill="rgb(59,43,41)"/><path d=" M 1902.71 741.713 L 1907.71 741.713 L 1907.71 746.525 L 1902.71 746.525 L 1902.71 741.713 Z " fill="rgb(59,43,41)"/><path d=" M 1902.71 732.091 L 1907.71 732.091 L 1907.71 736.902 L 1902.71 736.902 L 1902.71 732.091 Z " fill="rgb(59,43,41)"/><path d=" M 1902.71 751.336 L 1907.71 751.336 L 1907.71 756.147 L 1902.71 756.147 L 1902.71 751.336 Z " fill="rgb(59,43,41)"/><path d=" M 1902.71 741.713 L 1907.71 741.713 L 1907.71 746.525 L 1902.71 746.525 L 1902.71 741.713 Z " fill="rgb(59,43,41)"/><path d=" M 1902.71 760.958 L 1907.71 760.958 L 1907.71 765.77 L 1902.71 765.77 L 1902.71 760.958 Z " fill="rgb(59,43,41)"/><path d=" M 1902.71 770.581 L 1907.71 770.581 L 1907.71 775.392 L 1902.71 775.392 L 1902.71 770.581 Z " fill="rgb(59,43,41)"/><path d=" M 1902.71 837.957 L 1907.71 837.957 L 1907.71 842.768 L 1902.71 842.768 L 1902.71 837.957 Z " fill="rgb(59,43,41)"/><path d=" M 1902.71 857.202 L 1907.71 857.202 L 1907.71 862.013 L 1902.71 862.013 L 1902.71 857.202 Z " fill="rgb(59,43,41)"/><path d=" M 1902.71 847.58 L 1907.71 847.58 L 1907.71 852.391 L 1902.71 852.391 L 1902.71 847.58 Z " fill="rgb(59,43,41)"/><path d=" M 1902.71 866.825 L 1907.71 866.825 L 1907.71 871.636 L 1902.71 871.636 L 1902.71 866.825 Z " fill="rgb(59,43,41)"/><path d=" M 1902.71 876.447 L 1907.71 876.447 L 1907.71 881.258 L 1902.71 881.258 L 1902.71 876.447 Z " fill="rgb(59,43,41)"/><path d=" M 1902.71 1068.86 L 1907.71 1068.86 L 1907.71 1073.671 L 1902.71 1073.671 L 1902.71 1068.86 Z " fill="rgb(59,43,41)"/><path d=" M 1902.71 866.825 L 1907.71 866.825 L 1907.71 871.636 L 1902.71 871.636 L 1902.71 866.825 Z " fill="rgb(59,43,41)"/><path d=" M 1902.71 886.07 L 1907.71 886.07 L 1907.71 890.881 L 1902.71 890.881 L 1902.71 886.07 Z " fill="rgb(59,43,41)"/><path d=" M 1902.71 1078.482 L 1907.71 1078.482 L 1907.71 1083.293 L 1902.71 1083.293 L 1902.71 1078.482 Z " fill="rgb(59,43,41)"/><path d=" M 1902.71 876.447 L 1907.71 876.447 L 1907.71 881.258 L 1902.71 881.258 L 1902.71 876.447 Z " fill="rgb(59,43,41)"/><path d=" M 1902.71 1068.86 L 1907.71 1068.86 L 1907.71 1073.671 L 1902.71 1073.671 L 1902.71 1068.86 Z " fill="rgb(59,43,41)"/><path d=" M 1902.71 895.692 L 1907.71 895.692 L 1907.71 900.503 L 1902.71 900.503 L 1902.71 895.692 Z " fill="rgb(59,43,41)"/><path d=" M 1902.71 1088.105 L 1907.71 1088.105 L 1907.71 1092.916 L 1902.71 1092.916 L 1902.71 1088.105 Z " fill="rgb(59,43,41)"/><path d=" M 1902.71 905.315 L 1907.71 905.315 L 1907.71 910.126 L 1902.71 910.126 L 1902.71 905.315 Z " fill="rgb(59,43,41)"/><path d=" M 1902.71 1097.727 L 1907.71 1097.727 L 1907.71 1102.538 L 1902.71 1102.538 L 1902.71 1097.727 Z " fill="rgb(59,43,41)"/><path d=" M 1902.71 770.619 L 1907.71 770.619 L 1907.71 775.43 L 1902.71 775.43 L 1902.71 770.619 Z " fill="rgb(59,43,41)"/><path d=" M 1902.71 789.864 L 1907.71 789.864 L 1907.71 794.675 L 1902.71 794.675 L 1902.71 789.864 Z " fill="rgb(59,43,41)"/><path d=" M 1902.71 780.241 L 1907.71 780.241 L 1907.71 785.052 L 1902.71 785.052 L 1902.71 780.241 Z " fill="rgb(59,43,41)"/><path d=" M 1902.71 799.486 L 1907.71 799.486 L 1907.71 804.297 L 1902.71 804.297 L 1902.71 799.486 Z " fill="rgb(59,43,41)"/><path d=" M 1902.71 809.109 L 1907.71 809.109 L 1907.71 813.92 L 1902.71 813.92 L 1902.71 809.109 Z " fill="rgb(59,43,41)"/><path d=" M 1902.71 799.486 L 1907.71 799.486 L 1907.71 804.297 L 1902.71 804.297 L 1902.71 799.486 Z " fill="rgb(59,43,41)"/><path d=" M 1902.71 818.731 L 1907.71 818.731 L 1907.71 823.542 L 1902.71 823.542 L 1902.71 818.731 Z " fill="rgb(59,43,41)"/><path d=" M 1902.71 809.109 L 1907.71 809.109 L 1907.71 813.92 L 1902.71 813.92 L 1902.71 809.109 Z " fill="rgb(59,43,41)"/><path d=" M 1902.71 828.354 L 1907.71 828.354 L 1907.71 833.165 L 1902.71 833.165 L 1902.71 828.354 Z " fill="rgb(59,43,41)"/><path d=" M 1902.71 837.976 L 1907.71 837.976 L 1907.71 842.787 L 1902.71 842.787 L 1902.71 837.976 Z " fill="rgb(59,43,41)"/><path d=" M 1902.71 905.353 L 1907.71 905.353 L 1907.71 910.164 L 1902.71 910.164 L 1902.71 905.353 Z " fill="rgb(59,43,41)"/><path d=" M 1902.71 1097.765 L 1907.71 1097.765 L 1907.71 1102.576 L 1902.71 1102.576 L 1902.71 1097.765 Z " fill="rgb(59,43,41)"/><path d=" M 1902.71 924.598 L 1907.71 924.598 L 1907.71 929.409 L 1902.71 929.409 L 1902.71 924.598 Z " fill="rgb(59,43,41)"/><path d=" M 1902.71 914.975 L 1907.71 914.975 L 1907.71 919.786 L 1902.71 919.786 L 1902.71 914.975 Z " fill="rgb(59,43,41)"/><path d=" M 1902.71 934.22 L 1907.71 934.22 L 1907.71 939.031 L 1902.71 939.031 L 1902.71 934.22 Z " fill="rgb(59,43,41)"/><path d=" M 1902.71 943.843 L 1907.71 943.843 L 1907.71 948.654 L 1902.71 948.654 L 1902.71 943.843 Z " fill="rgb(59,43,41)"/><path d=" M 1902.71 934.22 L 1907.71 934.22 L 1907.71 939.031 L 1902.71 939.031 L 1902.71 934.22 Z " fill="rgb(59,43,41)"/><path d=" M 1902.71 953.465 L 1907.71 953.465 L 1907.71 958.276 L 1902.71 958.276 L 1902.71 953.465 Z " fill="rgb(59,43,41)"/><path d=" M 1902.71 943.843 L 1907.71 943.843 L 1907.71 948.654 L 1902.71 948.654 L 1902.71 943.843 Z " fill="rgb(59,43,41)"/><path d=" M 1902.71 963.088 L 1907.71 963.088 L 1907.71 967.899 L 1902.71 967.899 L 1902.71 963.088 Z " fill="rgb(59,43,41)"/><path d=" M 1902.71 972.71 L 1907.71 972.71 L 1907.71 977.521 L 1902.71 977.521 L 1902.71 972.71 Z " fill="rgb(59,43,41)"/><path d=" M 1902.71 972.691 L 1907.71 972.691 L 1907.71 977.502 L 1902.71 977.502 L 1902.71 972.691 Z " fill="rgb(59,43,41)"/><path d=" M 1902.71 991.936 L 1907.71 991.936 L 1907.71 996.747 L 1902.71 996.747 L 1902.71 991.936 Z " fill="rgb(59,43,41)"/><path d=" M 1902.71 982.314 L 1907.71 982.314 L 1907.71 987.125 L 1902.71 987.125 L 1902.71 982.314 Z " fill="rgb(59,43,41)"/><path d=" M 1902.71 1001.559 L 1907.71 1001.559 L 1907.71 1006.37 L 1902.71 1006.37 L 1902.71 1001.559 Z " fill="rgb(59,43,41)"/><path d=" M 1902.71 1011.181 L 1907.71 1011.181 L 1907.71 1015.992 L 1902.71 1015.992 L 1902.71 1011.181 Z " fill="rgb(59,43,41)"/><path d=" M 1902.71 1001.559 L 1907.71 1001.559 L 1907.71 1006.37 L 1902.71 1006.37 L 1902.71 1001.559 Z " fill="rgb(59,43,41)"/><path d=" M 1902.71 1020.804 L 1907.71 1020.804 L 1907.71 1025.615 L 1902.71 1025.615 L 1902.71 1020.804 Z " fill="rgb(59,43,41)"/><path d=" M 1902.71 1011.181 L 1907.71 1011.181 L 1907.71 1015.992 L 1902.71 1015.992 L 1902.71 1011.181 Z " fill="rgb(59,43,41)"/><path d=" M 1902.71 1030.426 L 1907.71 1030.426 L 1907.71 1035.237 L 1902.71 1035.237 L 1902.71 1030.426 Z " fill="rgb(59,43,41)"/><path d=" M 1902.71 1040.049 L 1907.71 1040.049 L 1907.71 1044.86 L 1902.71 1044.86 L 1902.71 1040.049 Z " fill="rgb(59,43,41)"/><path d=" M 1902.71 1040.049 L 1907.71 1040.049 L 1907.71 1044.86 L 1902.71 1044.86 L 1902.71 1040.049 Z " fill="rgb(59,43,41)"/><path d=" M 1902.71 1059.294 L 1907.71 1059.294 L 1907.71 1064.105 L 1902.71 1064.105 L 1902.71 1059.294 Z " fill="rgb(59,43,41)"/><path d=" M 1902.71 1049.671 L 1907.71 1049.671 L 1907.71 1054.482 L 1902.71 1054.482 L 1902.71 1049.671 Z " fill="rgb(59,43,41)"/><path d=" M 1902.71 1068.916 L 1907.71 1068.916 L 1907.71 1073.727 L 1902.71 1073.727 L 1902.71 1068.916 Z " fill="rgb(59,43,41)"/></g><g id="Group"><path d=" M 1914.71 703.223 L 1919.71 703.223 L 1919.71 708.035 L 1914.71 708.035 L 1914.71 703.223 Z " fill="rgb(59,43,41)"/><path d=" M 1914.71 722.468 L 1919.71 722.468 L 1919.71 727.28 L 1914.71 727.28 L 1914.71 722.468 Z " fill="rgb(59,43,41)"/><path d=" M 1914.71 712.846 L 1919.71 712.846 L 1919.71 717.657 L 1914.71 717.657 L 1914.71 712.846 Z " fill="rgb(59,43,41)"/><path d=" M 1914.71 732.091 L 1919.71 732.091 L 1919.71 736.902 L 1914.71 736.902 L 1914.71 732.091 Z " fill="rgb(59,43,41)"/><path d=" M 1914.71 741.713 L 1919.71 741.713 L 1919.71 746.525 L 1914.71 746.525 L 1914.71 741.713 Z " fill="rgb(59,43,41)"/><path d=" M 1914.71 732.091 L 1919.71 732.091 L 1919.71 736.902 L 1914.71 736.902 L 1914.71 732.091 Z " fill="rgb(59,43,41)"/><path d=" M 1914.71 751.336 L 1919.71 751.336 L 1919.71 756.147 L 1914.71 756.147 L 1914.71 751.336 Z " fill="rgb(59,43,41)"/><path d=" M 1914.71 741.713 L 1919.71 741.713 L 1919.71 746.525 L 1914.71 746.525 L 1914.71 741.713 Z " fill="rgb(59,43,41)"/><path d=" M 1914.71 760.958 L 1919.71 760.958 L 1919.71 765.77 L 1914.71 765.77 L 1914.71 760.958 Z " fill="rgb(59,43,41)"/><path d=" M 1914.71 770.581 L 1919.71 770.581 L 1919.71 775.392 L 1914.71 775.392 L 1914.71 770.581 Z " fill="rgb(59,43,41)"/><path d=" M 1914.71 837.957 L 1919.71 837.957 L 1919.71 842.768 L 1914.71 842.768 L 1914.71 837.957 Z " fill="rgb(59,43,41)"/><path d=" M 1914.71 857.202 L 1919.71 857.202 L 1919.71 862.013 L 1914.71 862.013 L 1914.71 857.202 Z " fill="rgb(59,43,41)"/><path d=" M 1914.71 847.58 L 1919.71 847.58 L 1919.71 852.391 L 1914.71 852.391 L 1914.71 847.58 Z " fill="rgb(59,43,41)"/><path d=" M 1914.71 866.825 L 1919.71 866.825 L 1919.71 871.636 L 1914.71 871.636 L 1914.71 866.825 Z " fill="rgb(59,43,41)"/><path d=" M 1914.71 876.447 L 1919.71 876.447 L 1919.71 881.258 L 1914.71 881.258 L 1914.71 876.447 Z " fill="rgb(59,43,41)"/><path d=" M 1914.71 1068.86 L 1919.71 1068.86 L 1919.71 1073.671 L 1914.71 1073.671 L 1914.71 1068.86 Z " fill="rgb(59,43,41)"/><path d=" M 1914.71 866.825 L 1919.71 866.825 L 1919.71 871.636 L 1914.71 871.636 L 1914.71 866.825 Z " fill="rgb(59,43,41)"/><path d=" M 1914.71 886.07 L 1919.71 886.07 L 1919.71 890.881 L 1914.71 890.881 L 1914.71 886.07 Z " fill="rgb(59,43,41)"/><path d=" M 1914.71 1078.482 L 1919.71 1078.482 L 1919.71 1083.293 L 1914.71 1083.293 L 1914.71 1078.482 Z " fill="rgb(59,43,41)"/><path d=" M 1914.71 876.447 L 1919.71 876.447 L 1919.71 881.258 L 1914.71 881.258 L 1914.71 876.447 Z " fill="rgb(59,43,41)"/><path d=" M 1914.71 1068.86 L 1919.71 1068.86 L 1919.71 1073.671 L 1914.71 1073.671 L 1914.71 1068.86 Z " fill="rgb(59,43,41)"/><path d=" M 1914.71 895.692 L 1919.71 895.692 L 1919.71 900.503 L 1914.71 900.503 L 1914.71 895.692 Z " fill="rgb(59,43,41)"/><path d=" M 1914.71 1088.105 L 1919.71 1088.105 L 1919.71 1092.916 L 1914.71 1092.916 L 1914.71 1088.105 Z " fill="rgb(59,43,41)"/><path d=" M 1914.71 905.315 L 1919.71 905.315 L 1919.71 910.126 L 1914.71 910.126 L 1914.71 905.315 Z " fill="rgb(59,43,41)"/><path d=" M 1914.71 1097.727 L 1919.71 1097.727 L 1919.71 1102.538 L 1914.71 1102.538 L 1914.71 1097.727 Z " fill="rgb(59,43,41)"/><path d=" M 1914.71 770.619 L 1919.71 770.619 L 1919.71 775.43 L 1914.71 775.43 L 1914.71 770.619 Z " fill="rgb(59,43,41)"/><path d=" M 1914.71 789.864 L 1919.71 789.864 L 1919.71 794.675 L 1914.71 794.675 L 1914.71 789.864 Z " fill="rgb(59,43,41)"/><path d=" M 1914.71 780.241 L 1919.71 780.241 L 1919.71 785.052 L 1914.71 785.052 L 1914.71 780.241 Z " fill="rgb(59,43,41)"/><path d=" M 1914.71 799.486 L 1919.71 799.486 L 1919.71 804.297 L 1914.71 804.297 L 1914.71 799.486 Z " fill="rgb(59,43,41)"/><path d=" M 1914.71 809.109 L 1919.71 809.109 L 1919.71 813.92 L 1914.71 813.92 L 1914.71 809.109 Z " fill="rgb(59,43,41)"/><path d=" M 1914.71 799.486 L 1919.71 799.486 L 1919.71 804.297 L 1914.71 804.297 L 1914.71 799.486 Z " fill="rgb(59,43,41)"/><path d=" M 1914.71 818.731 L 1919.71 818.731 L 1919.71 823.542 L 1914.71 823.542 L 1914.71 818.731 Z " fill="rgb(59,43,41)"/><path d=" M 1914.71 809.109 L 1919.71 809.109 L 1919.71 813.92 L 1914.71 813.92 L 1914.71 809.109 Z " fill="rgb(59,43,41)"/><path d=" M 1914.71 828.354 L 1919.71 828.354 L 1919.71 833.165 L 1914.71 833.165 L 1914.71 828.354 Z " fill="rgb(59,43,41)"/><path d=" M 1914.71 837.976 L 1919.71 837.976 L 1919.71 842.787 L 1914.71 842.787 L 1914.71 837.976 Z " fill="rgb(59,43,41)"/><path d=" M 1914.71 905.353 L 1919.71 905.353 L 1919.71 910.164 L 1914.71 910.164 L 1914.71 905.353 Z " fill="rgb(59,43,41)"/><path d=" M 1914.71 1097.765 L 1919.71 1097.765 L 1919.71 1102.576 L 1914.71 1102.576 L 1914.71 1097.765 Z " fill="rgb(59,43,41)"/><path d=" M 1914.71 924.598 L 1919.71 924.598 L 1919.71 929.409 L 1914.71 929.409 L 1914.71 924.598 Z " fill="rgb(59,43,41)"/><path d=" M 1914.71 914.975 L 1919.71 914.975 L 1919.71 919.786 L 1914.71 919.786 L 1914.71 914.975 Z " fill="rgb(59,43,41)"/><path d=" M 1914.71 934.22 L 1919.71 934.22 L 1919.71 939.031 L 1914.71 939.031 L 1914.71 934.22 Z " fill="rgb(59,43,41)"/><path d=" M 1914.71 943.843 L 1919.71 943.843 L 1919.71 948.654 L 1914.71 948.654 L 1914.71 943.843 Z " fill="rgb(59,43,41)"/><path d=" M 1914.71 934.22 L 1919.71 934.22 L 1919.71 939.031 L 1914.71 939.031 L 1914.71 934.22 Z " fill="rgb(59,43,41)"/><path d=" M 1914.71 953.465 L 1919.71 953.465 L 1919.71 958.276 L 1914.71 958.276 L 1914.71 953.465 Z " fill="rgb(59,43,41)"/><path d=" M 1914.71 943.843 L 1919.71 943.843 L 1919.71 948.654 L 1914.71 948.654 L 1914.71 943.843 Z " fill="rgb(59,43,41)"/><path d=" M 1914.71 963.088 L 1919.71 963.088 L 1919.71 967.899 L 1914.71 967.899 L 1914.71 963.088 Z " fill="rgb(59,43,41)"/><path d=" M 1914.71 972.71 L 1919.71 972.71 L 1919.71 977.521 L 1914.71 977.521 L 1914.71 972.71 Z " fill="rgb(59,43,41)"/><path d=" M 1914.71 972.691 L 1919.71 972.691 L 1919.71 977.502 L 1914.71 977.502 L 1914.71 972.691 Z " fill="rgb(59,43,41)"/><path d=" M 1914.71 991.936 L 1919.71 991.936 L 1919.71 996.747 L 1914.71 996.747 L 1914.71 991.936 Z " fill="rgb(59,43,41)"/><path d=" M 1914.71 982.314 L 1919.71 982.314 L 1919.71 987.125 L 1914.71 987.125 L 1914.71 982.314 Z " fill="rgb(59,43,41)"/><path d=" M 1914.71 1001.559 L 1919.71 1001.559 L 1919.71 1006.37 L 1914.71 1006.37 L 1914.71 1001.559 Z " fill="rgb(59,43,41)"/><path d=" M 1914.71 1011.181 L 1919.71 1011.181 L 1919.71 1015.992 L 1914.71 1015.992 L 1914.71 1011.181 Z " fill="rgb(59,43,41)"/><path d=" M 1914.71 1001.559 L 1919.71 1001.559 L 1919.71 1006.37 L 1914.71 1006.37 L 1914.71 1001.559 Z " fill="rgb(59,43,41)"/><path d=" M 1914.71 1020.804 L 1919.71 1020.804 L 1919.71 1025.615 L 1914.71 1025.615 L 1914.71 1020.804 Z " fill="rgb(59,43,41)"/><path d=" M 1914.71 1011.181 L 1919.71 1011.181 L 1919.71 1015.992 L 1914.71 1015.992 L 1914.71 1011.181 Z " fill="rgb(59,43,41)"/><path d=" M 1914.71 1030.426 L 1919.71 1030.426 L 1919.71 1035.237 L 1914.71 1035.237 L 1914.71 1030.426 Z " fill="rgb(59,43,41)"/><path d=" M 1914.71 1040.049 L 1919.71 1040.049 L 1919.71 1044.86 L 1914.71 1044.86 L 1914.71 1040.049 Z " fill="rgb(59,43,41)"/><path d=" M 1914.71 1040.049 L 1919.71 1040.049 L 1919.71 1044.86 L 1914.71 1044.86 L 1914.71 1040.049 Z " fill="rgb(59,43,41)"/><path d=" M 1914.71 1059.294 L 1919.71 1059.294 L 1919.71 1064.105 L 1914.71 1064.105 L 1914.71 1059.294 Z " fill="rgb(59,43,41)"/><path d=" M 1914.71 1049.671 L 1919.71 1049.671 L 1919.71 1054.482 L 1914.71 1054.482 L 1914.71 1049.671 Z " fill="rgb(59,43,41)"/><path d=" M 1914.71 1068.916 L 1919.71 1068.916 L 1919.71 1073.727 L 1914.71 1073.727 L 1914.71 1068.916 Z " fill="rgb(59,43,41)"/></g></g></g></svg>