<?xml version="1.0" standalone="no"?><!-- Generator: Gravit.io --><svg xmlns="http://www.w3.org/2000/svg" xmlns:xlink="http://www.w3.org/1999/xlink" style="isolation:isolate" viewBox="1464.443 679.961 162.75 424.115" width="162.75" height="424.115"><g id="body-windows-horizontal"><g id="boa-body"><g id="Group"><g id="body-windows-color-1"><path d=" M 1592.665 691.065 L 1592.665 699.4 L 1592.665 740.139" fill="none" vector-effect="non-scaling-stroke" stroke-width="3" stroke="rgb(91,66,63)" stroke-linejoin="miter" stroke-linecap="square" stroke-miterlimit="3"/><path d=" M 1599.943 691.065 L 1599.943 699.9 L 1599.943 740.139" fill="none" vector-effect="non-scaling-stroke" stroke-width="3" stroke="rgb(91,66,63)" stroke-linejoin="miter" stroke-linecap="square" stroke-miterlimit="3"/><path d=" M 1592.665 756.903 L 1592.665 761.806 L 1592.665 785.771" fill="none" vector-effect="non-scaling-stroke" stroke-width="3" stroke="rgb(91,66,63)" stroke-linejoin="miter" stroke-linecap="square" stroke-miterlimit="3"/><path d=" M 1599.943 756.903 L 1599.943 762.101 L 1599.943 785.771" fill="none" vector-effect="non-scaling-stroke" stroke-width="3" stroke="rgb(91,66,63)" stroke-linejoin="miter" stroke-linecap="square" stroke-miterlimit="3"/><path d=" M 1610.943 785.771 L 1615.943 785.771 L 1615.943 790.582 L 1610.943 790.582 L 1610.943 785.771 Z " fill="rgb(91,66,63)"/><path d=" M 1610.943 805.016 L 1615.943 805.016 L 1615.943 809.827 L 1610.943 809.827 L 1610.943 805.016 Z " fill="rgb(91,66,63)"/><path d=" M 1610.943 795.393 L 1615.943 795.393 L 1615.943 800.204 L 1610.943 800.204 L 1610.943 795.393 Z " fill="rgb(91,66,63)"/><path d=" M 1610.943 814.638 L 1615.943 814.638 L 1615.943 819.449 L 1610.943 819.449 L 1610.943 814.638 Z " fill="rgb(91,66,63)"/><path d=" M 1610.943 824.261 L 1615.943 824.261 L 1615.943 829.072 L 1610.943 829.072 L 1610.943 824.261 Z " fill="rgb(91,66,63)"/><path d=" M 1610.943 814.638 L 1615.943 814.638 L 1615.943 819.449 L 1610.943 819.449 L 1610.943 814.638 Z " fill="rgb(91,66,63)"/><path d=" M 1610.943 833.883 L 1615.943 833.883 L 1615.943 838.694 L 1610.943 838.694 L 1610.943 833.883 Z " fill="rgb(91,66,63)"/><path d=" M 1610.943 824.261 L 1615.943 824.261 L 1615.943 829.072 L 1610.943 829.072 L 1610.943 824.261 Z " fill="rgb(91,66,63)"/><path d=" M 1610.943 843.506 L 1615.943 843.506 L 1615.943 848.317 L 1610.943 848.317 L 1610.943 843.506 Z " fill="rgb(91,66,63)"/><path d=" M 1610.943 853.128 L 1615.943 853.128 L 1615.943 857.939 L 1610.943 857.939 L 1610.943 853.128 Z " fill="rgb(91,66,63)"/><path d=" M 1610.943 891.862 L 1615.943 891.862 L 1615.943 896.673 L 1610.943 896.673 L 1610.943 891.862 Z " fill="rgb(91,66,63)"/><path d=" M 1610.943 853.166 L 1615.943 853.166 L 1615.943 857.977 L 1610.943 857.977 L 1610.943 853.166 Z " fill="rgb(91,66,63)"/><path d=" M 1610.943 872.411 L 1615.943 872.411 L 1615.943 877.222 L 1610.943 877.222 L 1610.943 872.411 Z " fill="rgb(91,66,63)"/><path d=" M 1610.943 862.788 L 1615.943 862.788 L 1615.943 867.6 L 1610.943 867.6 L 1610.943 862.788 Z " fill="rgb(91,66,63)"/><path d=" M 1610.943 882.033 L 1615.943 882.033 L 1615.943 886.845 L 1610.943 886.845 L 1610.943 882.033 Z " fill="rgb(91,66,63)"/><path d=" M 1610.943 891.656 L 1615.943 891.656 L 1615.943 896.467 L 1610.943 896.467 L 1610.943 891.656 Z " fill="rgb(91,66,63)"/><path d=" M 1610.943 882.033 L 1615.943 882.033 L 1615.943 886.845 L 1610.943 886.845 L 1610.943 882.033 Z " fill="rgb(91,66,63)"/><path d=" M 1610.943 891.656 L 1615.943 891.656 L 1615.943 896.467 L 1610.943 896.467 L 1610.943 891.656 Z " fill="rgb(91,66,63)"/><path d=" M 1610.943 911.145 L 1615.943 911.145 L 1615.943 915.956 L 1610.943 915.956 L 1610.943 911.145 Z " fill="rgb(91,66,63)"/><path d=" M 1610.943 901.522 L 1615.943 901.522 L 1615.943 906.334 L 1610.943 906.334 L 1610.943 901.522 Z " fill="rgb(91,66,63)"/><path d=" M 1610.943 920.767 L 1615.943 920.767 L 1615.943 925.579 L 1610.943 925.579 L 1610.943 920.767 Z " fill="rgb(91,66,63)"/><path d=" M 1610.943 930.39 L 1615.943 930.39 L 1615.943 935.201 L 1610.943 935.201 L 1610.943 930.39 Z " fill="rgb(91,66,63)"/><path d=" M 1610.943 920.767 L 1615.943 920.767 L 1615.943 925.579 L 1610.943 925.579 L 1610.943 920.767 Z " fill="rgb(91,66,63)"/><path d=" M 1610.943 940.012 L 1615.943 940.012 L 1615.943 944.824 L 1610.943 944.824 L 1610.943 940.012 Z " fill="rgb(91,66,63)"/><path d=" M 1610.943 930.39 L 1615.943 930.39 L 1615.943 935.201 L 1610.943 935.201 L 1610.943 930.39 Z " fill="rgb(91,66,63)"/><path d=" M 1610.943 949.635 L 1615.943 949.635 L 1615.943 954.446 L 1610.943 954.446 L 1610.943 949.635 Z " fill="rgb(91,66,63)"/><path d=" M 1610.943 959.257 L 1615.943 959.257 L 1615.943 964.069 L 1610.943 964.069 L 1610.943 959.257 Z " fill="rgb(91,66,63)"/><path d=" M 1610.943 959.239 L 1615.943 959.239 L 1615.943 964.05 L 1610.943 964.05 L 1610.943 959.239 Z " fill="rgb(91,66,63)"/><path d=" M 1610.943 978.484 L 1615.943 978.484 L 1615.943 983.295 L 1610.943 983.295 L 1610.943 978.484 Z " fill="rgb(91,66,63)"/><path d=" M 1610.943 968.861 L 1615.943 968.861 L 1615.943 973.672 L 1610.943 973.672 L 1610.943 968.861 Z " fill="rgb(91,66,63)"/><path d=" M 1610.943 988.106 L 1615.943 988.106 L 1615.943 992.917 L 1610.943 992.917 L 1610.943 988.106 Z " fill="rgb(91,66,63)"/><path d=" M 1610.943 997.729 L 1615.943 997.729 L 1615.943 1002.54 L 1610.943 1002.54 L 1610.943 997.729 Z " fill="rgb(91,66,63)"/><path d=" M 1610.943 988.106 L 1615.943 988.106 L 1615.943 992.917 L 1610.943 992.917 L 1610.943 988.106 Z " fill="rgb(91,66,63)"/><path d=" M 1610.943 1007.351 L 1615.943 1007.351 L 1615.943 1012.162 L 1610.943 1012.162 L 1610.943 1007.351 Z " fill="rgb(91,66,63)"/><path d=" M 1610.943 997.729 L 1615.943 997.729 L 1615.943 1002.54 L 1610.943 1002.54 L 1610.943 997.729 Z " fill="rgb(91,66,63)"/><path d=" M 1610.943 1016.974 L 1615.943 1016.974 L 1615.943 1021.785 L 1610.943 1021.785 L 1610.943 1016.974 Z " fill="rgb(91,66,63)"/><path d=" M 1610.943 1026.596 L 1615.943 1026.596 L 1615.943 1031.407 L 1610.943 1031.407 L 1610.943 1026.596 Z " fill="rgb(91,66,63)"/><path d=" M 1610.943 1026.596 L 1615.943 1026.596 L 1615.943 1031.407 L 1610.943 1031.407 L 1610.943 1026.596 Z " fill="rgb(91,66,63)"/><path d=" M 1610.943 1045.841 L 1615.943 1045.841 L 1615.943 1050.652 L 1610.943 1050.652 L 1610.943 1045.841 Z " fill="rgb(91,66,63)"/><path d=" M 1610.943 1036.219 L 1615.943 1036.219 L 1615.943 1041.03 L 1610.943 1041.03 L 1610.943 1036.219 Z " fill="rgb(91,66,63)"/><path d=" M 1610.943 1055.464 L 1615.943 1055.464 L 1615.943 1060.275 L 1610.943 1060.275 L 1610.943 1055.464 Z " fill="rgb(91,66,63)"/><path d=" M 1610.943 1055.464 L 1615.943 1055.464 L 1615.943 1060.275 L 1610.943 1060.275 L 1610.943 1055.464 Z " fill="rgb(91,66,63)"/><path d=" M 1612.193 679.961 L 1619.693 679.961 L 1619.693 685.734 L 1612.193 685.734 L 1612.193 679.961 Z " fill="rgb(91,66,63)"/><path d=" M 1612.193 703.055 L 1619.693 703.055 L 1619.693 708.828 L 1612.193 708.828 L 1612.193 703.055 Z " fill="rgb(91,66,63)"/><path d=" M 1612.193 691.508 L 1619.693 691.508 L 1619.693 697.281 L 1612.193 697.281 L 1612.193 691.508 Z " fill="rgb(91,66,63)"/><path d=" M 1612.193 714.602 L 1619.693 714.602 L 1619.693 720.375 L 1612.193 720.375 L 1612.193 714.602 Z " fill="rgb(91,66,63)"/><path d=" M 1612.193 737.696 L 1619.693 737.696 L 1619.693 743.469 L 1612.193 743.469 L 1612.193 737.696 Z " fill="rgb(91,66,63)"/><path d=" M 1612.193 726.149 L 1619.693 726.149 L 1619.693 731.922 L 1612.193 731.922 L 1612.193 726.149 Z " fill="rgb(91,66,63)"/><path d=" M 1612.193 749.243 L 1619.693 749.243 L 1619.693 755.016 L 1612.193 755.016 L 1612.193 749.243 Z " fill="rgb(91,66,63)"/><path d=" M 1612.193 760.79 L 1619.693 760.79 L 1619.693 766.563 L 1612.193 766.563 L 1612.193 760.79 Z " fill="rgb(91,66,63)"/><path d=" M 1602.193 801.926 L 1599.693 803.369 L 1599.693 1068.448 L 1602.193 1066.77 L 1602.193 801.926 Z " fill="rgb(91,66,63)"/><path d=" M 1627.193 781.719 L 1624.693 783.162 L 1624.693 1053.78 L 1627.193 1052.336 L 1627.193 781.719 Z " fill="rgb(91,66,63)"/></g><path d=" M 1502.193 801.926 L 1499.693 803.369 L 1499.693 1068.448 L 1502.193 1066.77 L 1502.193 801.926 Z " fill="rgb(91,66,63)"/><path d=" M 1589.693 801.926 L 1592.193 803.369 L 1592.193 1068.448 L 1589.693 1066.77 L 1589.693 801.926 Z " fill="rgb(59,43,41)"/><g id="body-windows-color-3"><path d=" M 1499.402 691.065 L 1499.402 699.4 L 1499.402 740.139" fill="none" vector-effect="non-scaling-stroke" stroke-width="3" stroke="rgb(28,20,19)" stroke-linejoin="miter" stroke-linecap="square" stroke-miterlimit="3"/><path d=" M 1492.124 691.065 L 1492.124 699.9 L 1492.124 740.139" fill="none" vector-effect="non-scaling-stroke" stroke-width="3" stroke="rgb(28,20,19)" stroke-linejoin="miter" stroke-linecap="square" stroke-miterlimit="3"/><path d=" M 1499.402 756.903 L 1499.402 761.806 L 1499.402 785.771" fill="none" vector-effect="non-scaling-stroke" stroke-width="3" stroke="rgb(28,20,19)" stroke-linejoin="miter" stroke-linecap="square" stroke-miterlimit="3"/><path d=" M 1492.124 756.903 L 1492.124 762.101 L 1492.124 785.771" fill="none" vector-effect="non-scaling-stroke" stroke-width="3" stroke="rgb(28,20,19)" stroke-linejoin="miter" stroke-linecap="square" stroke-miterlimit="3"/><path d=" M 1472.193 679.961 L 1479.693 679.961 L 1479.693 685.734 L 1472.193 685.734 L 1472.193 679.961 Z " fill="rgb(28,20,19)"/><path d=" M 1472.193 703.055 L 1479.693 703.055 L 1479.693 708.828 L 1472.193 708.828 L 1472.193 703.055 Z " fill="rgb(28,20,19)"/><path d=" M 1472.193 691.508 L 1479.693 691.508 L 1479.693 697.281 L 1472.193 697.281 L 1472.193 691.508 Z " fill="rgb(28,20,19)"/><path d=" M 1472.193 714.602 L 1479.693 714.602 L 1479.693 720.375 L 1472.193 720.375 L 1472.193 714.602 Z " fill="rgb(28,20,19)"/><path d=" M 1472.193 726.149 L 1479.693 726.149 L 1479.693 731.922 L 1472.193 731.922 L 1472.193 726.149 Z " fill="rgb(28,20,19)"/><path d=" M 1472.193 714.602 L 1479.693 714.602 L 1479.693 720.375 L 1472.193 720.375 L 1472.193 714.602 Z " fill="rgb(28,20,19)"/><path d=" M 1472.193 737.696 L 1479.693 737.696 L 1479.693 743.469 L 1472.193 743.469 L 1472.193 737.696 Z " fill="rgb(28,20,19)"/><path d=" M 1472.193 726.149 L 1479.693 726.149 L 1479.693 731.922 L 1472.193 731.922 L 1472.193 726.149 Z " fill="rgb(28,20,19)"/><path d=" M 1472.193 749.243 L 1479.693 749.243 L 1479.693 755.016 L 1472.193 755.016 L 1472.193 749.243 Z " fill="rgb(28,20,19)"/><path d=" M 1472.193 760.79 L 1479.693 760.79 L 1479.693 766.563 L 1472.193 766.563 L 1472.193 760.79 Z " fill="rgb(28,20,19)"/><path d=" M 1475.943 785.771 L 1480.943 785.771 L 1480.943 790.582 L 1475.943 790.582 L 1475.943 785.771 Z " fill="rgb(28,20,19)"/><path d=" M 1475.943 805.016 L 1480.943 805.016 L 1480.943 809.827 L 1475.943 809.827 L 1475.943 805.016 Z " fill="rgb(28,20,19)"/><path d=" M 1475.943 795.393 L 1480.943 795.393 L 1480.943 800.204 L 1475.943 800.204 L 1475.943 795.393 Z " fill="rgb(28,20,19)"/><path d=" M 1475.943 814.638 L 1480.943 814.638 L 1480.943 819.449 L 1475.943 819.449 L 1475.943 814.638 Z " fill="rgb(28,20,19)"/><path d=" M 1475.943 824.261 L 1480.943 824.261 L 1480.943 829.072 L 1475.943 829.072 L 1475.943 824.261 Z " fill="rgb(28,20,19)"/><path d=" M 1475.943 814.638 L 1480.943 814.638 L 1480.943 819.449 L 1475.943 819.449 L 1475.943 814.638 Z " fill="rgb(28,20,19)"/><path d=" M 1475.943 833.883 L 1480.943 833.883 L 1480.943 838.694 L 1475.943 838.694 L 1475.943 833.883 Z " fill="rgb(28,20,19)"/><path d=" M 1475.943 824.261 L 1480.943 824.261 L 1480.943 829.072 L 1475.943 829.072 L 1475.943 824.261 Z " fill="rgb(28,20,19)"/><path d=" M 1475.943 843.506 L 1480.943 843.506 L 1480.943 848.317 L 1475.943 848.317 L 1475.943 843.506 Z " fill="rgb(28,20,19)"/><path d=" M 1475.943 853.128 L 1480.943 853.128 L 1480.943 857.939 L 1475.943 857.939 L 1475.943 853.128 Z " fill="rgb(28,20,19)"/><path d=" M 1475.943 891.862 L 1480.943 891.862 L 1480.943 896.673 L 1475.943 896.673 L 1475.943 891.862 Z " fill="rgb(28,20,19)"/><path d=" M 1475.943 853.166 L 1480.943 853.166 L 1480.943 857.977 L 1475.943 857.977 L 1475.943 853.166 Z " fill="rgb(28,20,19)"/><path d=" M 1475.943 872.411 L 1480.943 872.411 L 1480.943 877.222 L 1475.943 877.222 L 1475.943 872.411 Z " fill="rgb(28,20,19)"/><path d=" M 1475.943 862.788 L 1480.943 862.788 L 1480.943 867.6 L 1475.943 867.6 L 1475.943 862.788 Z " fill="rgb(28,20,19)"/><path d=" M 1475.943 882.033 L 1480.943 882.033 L 1480.943 886.845 L 1475.943 886.845 L 1475.943 882.033 Z " fill="rgb(28,20,19)"/><path d=" M 1475.943 891.656 L 1480.943 891.656 L 1480.943 896.467 L 1475.943 896.467 L 1475.943 891.656 Z " fill="rgb(28,20,19)"/><path d=" M 1475.943 882.033 L 1480.943 882.033 L 1480.943 886.845 L 1475.943 886.845 L 1475.943 882.033 Z " fill="rgb(28,20,19)"/><path d=" M 1475.943 891.656 L 1480.943 891.656 L 1480.943 896.467 L 1475.943 896.467 L 1475.943 891.656 Z " fill="rgb(28,20,19)"/><path d=" M 1475.943 891.9 L 1480.943 891.9 L 1480.943 896.711 L 1475.943 896.711 L 1475.943 891.9 Z " fill="rgb(28,20,19)"/><path d=" M 1475.943 911.145 L 1480.943 911.145 L 1480.943 915.956 L 1475.943 915.956 L 1475.943 911.145 Z " fill="rgb(28,20,19)"/><path d=" M 1475.943 901.522 L 1480.943 901.522 L 1480.943 906.334 L 1475.943 906.334 L 1475.943 901.522 Z " fill="rgb(28,20,19)"/><path d=" M 1475.943 920.767 L 1480.943 920.767 L 1480.943 925.579 L 1475.943 925.579 L 1475.943 920.767 Z " fill="rgb(28,20,19)"/><path d=" M 1475.943 930.39 L 1480.943 930.39 L 1480.943 935.201 L 1475.943 935.201 L 1475.943 930.39 Z " fill="rgb(28,20,19)"/><path d=" M 1475.943 920.767 L 1480.943 920.767 L 1480.943 925.579 L 1475.943 925.579 L 1475.943 920.767 Z " fill="rgb(28,20,19)"/><path d=" M 1475.943 940.012 L 1480.943 940.012 L 1480.943 944.824 L 1475.943 944.824 L 1475.943 940.012 Z " fill="rgb(28,20,19)"/><path d=" M 1475.943 930.39 L 1480.943 930.39 L 1480.943 935.201 L 1475.943 935.201 L 1475.943 930.39 Z " fill="rgb(28,20,19)"/><path d=" M 1475.943 949.635 L 1480.943 949.635 L 1480.943 954.446 L 1475.943 954.446 L 1475.943 949.635 Z " fill="rgb(28,20,19)"/><path d=" M 1475.943 959.257 L 1480.943 959.257 L 1480.943 964.069 L 1475.943 964.069 L 1475.943 959.257 Z " fill="rgb(28,20,19)"/><path d=" M 1475.943 959.239 L 1480.943 959.239 L 1480.943 964.05 L 1475.943 964.05 L 1475.943 959.239 Z " fill="rgb(28,20,19)"/><path d=" M 1475.943 978.484 L 1480.943 978.484 L 1480.943 983.295 L 1475.943 983.295 L 1475.943 978.484 Z " fill="rgb(28,20,19)"/><path d=" M 1475.943 968.861 L 1480.943 968.861 L 1480.943 973.672 L 1475.943 973.672 L 1475.943 968.861 Z " fill="rgb(28,20,19)"/><path d=" M 1475.943 988.106 L 1480.943 988.106 L 1480.943 992.917 L 1475.943 992.917 L 1475.943 988.106 Z " fill="rgb(28,20,19)"/><path d=" M 1475.943 997.729 L 1480.943 997.729 L 1480.943 1002.54 L 1475.943 1002.54 L 1475.943 997.729 Z " fill="rgb(28,20,19)"/><path d=" M 1475.943 988.106 L 1480.943 988.106 L 1480.943 992.917 L 1475.943 992.917 L 1475.943 988.106 Z " fill="rgb(28,20,19)"/><path d=" M 1475.943 1007.351 L 1480.943 1007.351 L 1480.943 1012.162 L 1475.943 1012.162 L 1475.943 1007.351 Z " fill="rgb(28,20,19)"/><path d=" M 1475.943 997.729 L 1480.943 997.729 L 1480.943 1002.54 L 1475.943 1002.54 L 1475.943 997.729 Z " fill="rgb(28,20,19)"/><path d=" M 1475.943 1016.974 L 1480.943 1016.974 L 1480.943 1021.785 L 1475.943 1021.785 L 1475.943 1016.974 Z " fill="rgb(28,20,19)"/><path d=" M 1475.943 1026.596 L 1480.943 1026.596 L 1480.943 1031.407 L 1475.943 1031.407 L 1475.943 1026.596 Z " fill="rgb(28,20,19)"/><path d=" M 1475.943 1026.596 L 1480.943 1026.596 L 1480.943 1031.407 L 1475.943 1031.407 L 1475.943 1026.596 Z " fill="rgb(28,20,19)"/><path d=" M 1475.943 1045.841 L 1480.943 1045.841 L 1480.943 1050.652 L 1475.943 1050.652 L 1475.943 1045.841 Z " fill="rgb(28,20,19)"/><path d=" M 1475.943 1036.219 L 1480.943 1036.219 L 1480.943 1041.03 L 1475.943 1041.03 L 1475.943 1036.219 Z " fill="rgb(28,20,19)"/><path d=" M 1475.943 1055.464 L 1480.943 1055.464 L 1480.943 1060.275 L 1475.943 1060.275 L 1475.943 1055.464 Z " fill="rgb(28,20,19)"/><path d=" M 1475.943 1055.464 L 1480.943 1055.464 L 1480.943 1060.275 L 1475.943 1060.275 L 1475.943 1055.464 Z " fill="rgb(28,20,19)"/><path d=" M 1464.443 781.719 L 1466.943 783.162 L 1466.943 1053.78 L 1464.443 1052.336 L 1464.443 781.719 Z " fill="rgb(28,20,19)"/><path d=" M 1489.693 801.926 L 1492.193 803.369 L 1492.193 1068.448 L 1489.693 1066.77 L 1489.693 801.926 Z " fill="rgb(28,20,19)"/></g></g></g><g id="body-windows-color-2"><line x1="1513.318" y1="709.034" x2="1578.318" y2="709.034" vector-effect="non-scaling-stroke" stroke-width="3" stroke="rgb(59,43,41)" stroke-linejoin="miter" stroke-linecap="square" stroke-miterlimit="3"/><line x1="1513.318" y1="909.518" x2="1578.318" y2="909.518" vector-effect="non-scaling-stroke" stroke-width="3" stroke="rgb(59,43,41)" stroke-linejoin="miter" stroke-linecap="square" stroke-miterlimit="3"/><line x1="1513.318" y1="768.437" x2="1578.318" y2="768.437" vector-effect="non-scaling-stroke" stroke-width="3" stroke="rgb(59,43,41)" stroke-linejoin="miter" stroke-linecap="square" stroke-miterlimit="3"/><line x1="1513.318" y1="1028.323" x2="1578.318" y2="1028.323" vector-effect="non-scaling-stroke" stroke-width="3" stroke="rgb(59,43,41)" stroke-linejoin="miter" stroke-linecap="square" stroke-miterlimit="3"/><line x1="1513.318" y1="761.012" x2="1578.318" y2="761.012" vector-effect="non-scaling-stroke" stroke-width="3" stroke="rgb(59,43,41)" stroke-linejoin="miter" stroke-linecap="square" stroke-miterlimit="3"/><line x1="1513.318" y1="738.736" x2="1578.318" y2="738.736" vector-effect="non-scaling-stroke" stroke-width="3" stroke="rgb(59,43,41)" stroke-linejoin="miter" stroke-linecap="square" stroke-miterlimit="3"/><line x1="1513.318" y1="746.161" x2="1578.318" y2="746.161" vector-effect="non-scaling-stroke" stroke-width="3" stroke="rgb(59,43,41)" stroke-linejoin="miter" stroke-linecap="square" stroke-miterlimit="3"/><line x1="1513.318" y1="753.586" x2="1578.318" y2="753.586" vector-effect="non-scaling-stroke" stroke-width="3" stroke="rgb(59,43,41)" stroke-linejoin="miter" stroke-linecap="square" stroke-miterlimit="3"/><line x1="1513.318" y1="812.989" x2="1578.318" y2="812.989" vector-effect="non-scaling-stroke" stroke-width="3" stroke="rgb(59,43,41)" stroke-linejoin="miter" stroke-linecap="square" stroke-miterlimit="3"/><line x1="1513.318" y1="820.414" x2="1578.318" y2="820.414" vector-effect="non-scaling-stroke" stroke-width="3" stroke="rgb(59,43,41)" stroke-linejoin="miter" stroke-linecap="square" stroke-miterlimit="3"/><line x1="1513.318" y1="783.288" x2="1578.318" y2="783.288" vector-effect="non-scaling-stroke" stroke-width="3" stroke="rgb(59,43,41)" stroke-linejoin="miter" stroke-linecap="square" stroke-miterlimit="3"/><line x1="1513.318" y1="879.817" x2="1578.318" y2="879.817" vector-effect="non-scaling-stroke" stroke-width="3" stroke="rgb(59,43,41)" stroke-linejoin="miter" stroke-linecap="square" stroke-miterlimit="3"/><line x1="1513.318" y1="842.69" x2="1578.318" y2="842.69" vector-effect="non-scaling-stroke" stroke-width="3" stroke="rgb(59,43,41)" stroke-linejoin="miter" stroke-linecap="square" stroke-miterlimit="3"/><line x1="1513.318" y1="850.115" x2="1578.318" y2="850.115" vector-effect="non-scaling-stroke" stroke-width="3" stroke="rgb(59,43,41)" stroke-linejoin="miter" stroke-linecap="square" stroke-miterlimit="3"/><line x1="1513.318" y1="857.541" x2="1578.318" y2="857.541" vector-effect="non-scaling-stroke" stroke-width="3" stroke="rgb(59,43,41)" stroke-linejoin="miter" stroke-linecap="square" stroke-miterlimit="3"/><line x1="1513.318" y1="887.242" x2="1578.318" y2="887.242" vector-effect="non-scaling-stroke" stroke-width="3" stroke="rgb(59,43,41)" stroke-linejoin="miter" stroke-linecap="square" stroke-miterlimit="3"/><line x1="1513.318" y1="894.667" x2="1578.318" y2="894.667" vector-effect="non-scaling-stroke" stroke-width="3" stroke="rgb(59,43,41)" stroke-linejoin="miter" stroke-linecap="square" stroke-miterlimit="3"/><line x1="1513.318" y1="835.265" x2="1578.318" y2="835.265" vector-effect="non-scaling-stroke" stroke-width="3" stroke="rgb(59,43,41)" stroke-linejoin="miter" stroke-linecap="square" stroke-miterlimit="3"/><line x1="1513.318" y1="968.92" x2="1578.318" y2="968.92" vector-effect="non-scaling-stroke" stroke-width="3" stroke="rgb(59,43,41)" stroke-linejoin="miter" stroke-linecap="square" stroke-miterlimit="3"/><line x1="1513.318" y1="916.943" x2="1578.318" y2="916.943" vector-effect="non-scaling-stroke" stroke-width="3" stroke="rgb(59,43,41)" stroke-linejoin="miter" stroke-linecap="square" stroke-miterlimit="3"/><line x1="1513.318" y1="924.369" x2="1578.318" y2="924.369" vector-effect="non-scaling-stroke" stroke-width="3" stroke="rgb(59,43,41)" stroke-linejoin="miter" stroke-linecap="square" stroke-miterlimit="3"/><line x1="1513.318" y1="931.794" x2="1578.318" y2="931.794" vector-effect="non-scaling-stroke" stroke-width="3" stroke="rgb(59,43,41)" stroke-linejoin="miter" stroke-linecap="square" stroke-miterlimit="3"/><line x1="1513.318" y1="939.219" x2="1578.318" y2="939.219" vector-effect="non-scaling-stroke" stroke-width="3" stroke="rgb(59,43,41)" stroke-linejoin="miter" stroke-linecap="square" stroke-miterlimit="3"/><line x1="1513.318" y1="954.07" x2="1578.318" y2="954.07" vector-effect="non-scaling-stroke" stroke-width="3" stroke="rgb(59,43,41)" stroke-linejoin="miter" stroke-linecap="square" stroke-miterlimit="3"/><line x1="1513.318" y1="1058.024" x2="1578.318" y2="1058.024" vector-effect="non-scaling-stroke" stroke-width="3" stroke="rgb(59,43,41)" stroke-linejoin="miter" stroke-linecap="square" stroke-miterlimit="3"/><line x1="1513.318" y1="1065.45" x2="1578.318" y2="1065.45" vector-effect="non-scaling-stroke" stroke-width="3" stroke="rgb(59,43,41)" stroke-linejoin="miter" stroke-linecap="square" stroke-miterlimit="3"/><line x1="1513.318" y1="716.46" x2="1578.318" y2="716.46" vector-effect="non-scaling-stroke" stroke-width="3" stroke="rgb(59,43,41)" stroke-linejoin="miter" stroke-linecap="square" stroke-miterlimit="3"/><line x1="1513.318" y1="701.609" x2="1578.318" y2="701.609" vector-effect="non-scaling-stroke" stroke-width="3" stroke="rgb(59,43,41)" stroke-linejoin="miter" stroke-linecap="square" stroke-miterlimit="3"/><line x1="1513.318" y1="1035.748" x2="1578.318" y2="1035.748" vector-effect="non-scaling-stroke" stroke-width="3" stroke="rgb(59,43,41)" stroke-linejoin="miter" stroke-linecap="square" stroke-miterlimit="3"/><line x1="1513.318" y1="723.885" x2="1578.318" y2="723.885" vector-effect="non-scaling-stroke" stroke-width="3" stroke="rgb(59,43,41)" stroke-linejoin="miter" stroke-linecap="square" stroke-miterlimit="3"/><line x1="1513.318" y1="1043.174" x2="1578.318" y2="1043.174" vector-effect="non-scaling-stroke" stroke-width="3" stroke="rgb(59,43,41)" stroke-linejoin="miter" stroke-linecap="square" stroke-miterlimit="3"/><line x1="1513.318" y1="1050.599" x2="1578.318" y2="1050.599" vector-effect="non-scaling-stroke" stroke-width="3" stroke="rgb(59,43,41)" stroke-linejoin="miter" stroke-linecap="square" stroke-miterlimit="3"/><line x1="1513.318" y1="775.862" x2="1578.318" y2="775.862" vector-effect="non-scaling-stroke" stroke-width="3" stroke="rgb(59,43,41)" stroke-linejoin="miter" stroke-linecap="square" stroke-miterlimit="3"/><line x1="1513.318" y1="946.644" x2="1578.318" y2="946.644" vector-effect="non-scaling-stroke" stroke-width="3" stroke="rgb(59,43,41)" stroke-linejoin="miter" stroke-linecap="square" stroke-miterlimit="3"/><line x1="1513.318" y1="1020.898" x2="1578.318" y2="1020.898" vector-effect="non-scaling-stroke" stroke-width="3" stroke="rgb(59,43,41)" stroke-linejoin="miter" stroke-linecap="square" stroke-miterlimit="3"/><line x1="1513.318" y1="1072.875" x2="1578.318" y2="1072.875" vector-effect="non-scaling-stroke" stroke-width="3" stroke="rgb(59,43,41)" stroke-linejoin="miter" stroke-linecap="square" stroke-miterlimit="3"/><line x1="1513.318" y1="827.839" x2="1578.318" y2="827.839" vector-effect="non-scaling-stroke" stroke-width="3" stroke="rgb(59,43,41)" stroke-linejoin="miter" stroke-linecap="square" stroke-miterlimit="3"/><line x1="1513.318" y1="1080.3" x2="1578.318" y2="1080.3" vector-effect="non-scaling-stroke" stroke-width="3" stroke="rgb(59,43,41)" stroke-linejoin="miter" stroke-linecap="square" stroke-miterlimit="3"/><line x1="1513.318" y1="1087.725" x2="1578.318" y2="1087.725" vector-effect="non-scaling-stroke" stroke-width="3" stroke="rgb(59,43,41)" stroke-linejoin="miter" stroke-linecap="square" stroke-miterlimit="3"/><line x1="1513.318" y1="1095.151" x2="1578.318" y2="1095.151" vector-effect="non-scaling-stroke" stroke-width="3" stroke="rgb(59,43,41)" stroke-linejoin="miter" stroke-linecap="square" stroke-miterlimit="3"/><line x1="1513.318" y1="1102.576" x2="1578.318" y2="1102.576" vector-effect="non-scaling-stroke" stroke-width="3" stroke="rgb(59,43,41)" stroke-linejoin="miter" stroke-linecap="square" stroke-miterlimit="3"/><line x1="1513.318" y1="902.093" x2="1578.318" y2="902.093" vector-effect="non-scaling-stroke" stroke-width="3" stroke="rgb(59,43,41)" stroke-linejoin="miter" stroke-linecap="square" stroke-miterlimit="3"/><line x1="1513.318" y1="1013.472" x2="1578.318" y2="1013.472" vector-effect="non-scaling-stroke" stroke-width="3" stroke="rgb(59,43,41)" stroke-linejoin="miter" stroke-linecap="square" stroke-miterlimit="3"/><line x1="1513.318" y1="1006.047" x2="1578.318" y2="1006.047" vector-effect="non-scaling-stroke" stroke-width="3" stroke="rgb(59,43,41)" stroke-linejoin="miter" stroke-linecap="square" stroke-miterlimit="3"/><line x1="1513.318" y1="998.622" x2="1578.318" y2="998.622" vector-effect="non-scaling-stroke" stroke-width="3" stroke="rgb(59,43,41)" stroke-linejoin="miter" stroke-linecap="square" stroke-miterlimit="3"/><line x1="1513.318" y1="991.196" x2="1578.318" y2="991.196" vector-effect="non-scaling-stroke" stroke-width="3" stroke="rgb(59,43,41)" stroke-linejoin="miter" stroke-linecap="square" stroke-miterlimit="3"/><line x1="1513.318" y1="983.771" x2="1578.318" y2="983.771" vector-effect="non-scaling-stroke" stroke-width="3" stroke="rgb(59,43,41)" stroke-linejoin="miter" stroke-linecap="square" stroke-miterlimit="3"/><line x1="1513.318" y1="976.346" x2="1578.318" y2="976.346" vector-effect="non-scaling-stroke" stroke-width="3" stroke="rgb(59,43,41)" stroke-linejoin="miter" stroke-linecap="square" stroke-miterlimit="3"/><line x1="1513.318" y1="961.495" x2="1578.318" y2="961.495" vector-effect="non-scaling-stroke" stroke-width="3" stroke="rgb(59,43,41)" stroke-linejoin="miter" stroke-linecap="square" stroke-miterlimit="3"/><line x1="1513.318" y1="872.391" x2="1578.318" y2="872.391" vector-effect="non-scaling-stroke" stroke-width="3" stroke="rgb(59,43,41)" stroke-linejoin="miter" stroke-linecap="square" stroke-miterlimit="3"/><line x1="1513.318" y1="864.966" x2="1578.318" y2="864.966" vector-effect="non-scaling-stroke" stroke-width="3" stroke="rgb(59,43,41)" stroke-linejoin="miter" stroke-linecap="square" stroke-miterlimit="3"/><line x1="1513.318" y1="805.564" x2="1578.318" y2="805.564" vector-effect="non-scaling-stroke" stroke-width="3" stroke="rgb(59,43,41)" stroke-linejoin="miter" stroke-linecap="square" stroke-miterlimit="3"/><line x1="1513.318" y1="798.138" x2="1578.318" y2="798.138" vector-effect="non-scaling-stroke" stroke-width="3" stroke="rgb(59,43,41)" stroke-linejoin="miter" stroke-linecap="square" stroke-miterlimit="3"/><line x1="1513.318" y1="790.713" x2="1578.318" y2="790.713" vector-effect="non-scaling-stroke" stroke-width="3" stroke="rgb(59,43,41)" stroke-linejoin="miter" stroke-linecap="square" stroke-miterlimit="3"/><line x1="1513.318" y1="731.31" x2="1578.318" y2="731.31" vector-effect="non-scaling-stroke" stroke-width="3" stroke="rgb(59,43,41)" stroke-linejoin="miter" stroke-linecap="square" stroke-miterlimit="3"/></g></g></svg>