<?xml version="1.0" standalone="no"?><!-- Generator: Gravit.io --><svg xmlns="http://www.w3.org/2000/svg" xmlns:xlink="http://www.w3.org/1999/xlink" style="isolation:isolate" viewBox="388.4 383.269 181.6 500.077" width="181.6" height="500.077"><g id="aon-body"><path d=" M 389.619 442.058 L 467.749 487.166 L 478.4 481.769 L 488.186 487.666 L 568.393 441.359 L 558.4 435.581 L 570 430.731 L 487.793 383.269 L 478.4 389.393 L 469.008 383.269 L 388.589 429.699 L 398.4 435.581 L 389.619 442.058 Z " fill="rgb(247,247,247)"/><path d=" M 488.4 487.543 L 488.4 883.346 L 568.4 837.158 L 568.4 441.355 L 488.4 487.543 Z " fill="rgb(240,238,238)"/><path d=" M 388.4 441.355 L 388.4 837.158 L 468.4 883.346 L 468.4 487.543 L 388.4 441.355 Z " fill="rgb(208,207,207)"/><path d=" M 568.4 429.808 L 568.4 441.355 L 558.4 435.581 L 568.4 429.808 Z " fill="rgb(208,207,207)"/><path d=" M 388.4 441.355 L 398.4 435.581 L 388.4 429.808 L 388.4 441.355 Z " fill="rgb(185,185,185)"/><path d=" M 478.4 877.572 L 478.4 481.769 L 488.4 487.543 L 488.4 883.346 L 478.4 877.572 Z " fill="rgb(208,207,207)"/><path d=" M 468.4 883.346 L 468.4 487.543 L 478.4 481.769 L 478.4 877.572 L 468.4 883.346 Z " fill="rgb(240,238,238)"/><clipPath id="_clipPath_ZZd7PtURofztojq9C3uJ3HAktYKMKARQ"><path d=" M 493.4 496.203 L 563.4 455.788 L 563.4 828.498 L 493.4 868.912 L 493.4 496.203 Z " fill="rgb(255,255,255)"/></clipPath><g clip-path="url(#_clipPath_ZZd7PtURofztojq9C3uJ3HAktYKMKARQ)"><g id="body-windows-right"><line x1="496.4" y1="877.572" x2="496.4" y2="271.355" vector-effect="non-scaling-stroke" stroke-width="2.524" stroke="rgb(145,145,145)" stroke-linejoin="miter" stroke-linecap="square" stroke-miterlimit="3"/><line x1="502.9" y1="877.572" x2="502.9" y2="271.355" vector-effect="non-scaling-stroke" stroke-width="2.524" stroke="rgb(145,145,145)" stroke-linejoin="miter" stroke-linecap="square" stroke-miterlimit="3"/><line x1="509.4" y1="877.572" x2="509.4" y2="271.355" vector-effect="non-scaling-stroke" stroke-width="2.524" stroke="rgb(145,145,145)" stroke-linejoin="miter" stroke-linecap="square" stroke-miterlimit="3"/><line x1="515.9" y1="877.572" x2="515.9" y2="271.355" vector-effect="non-scaling-stroke" stroke-width="2.524" stroke="rgb(145,145,145)" stroke-linejoin="miter" stroke-linecap="square" stroke-miterlimit="3"/><line x1="522.4" y1="877.572" x2="522.4" y2="271.355" vector-effect="non-scaling-stroke" stroke-width="2.524" stroke="rgb(145,145,145)" stroke-linejoin="miter" stroke-linecap="square" stroke-miterlimit="3"/><line x1="528.9" y1="877.572" x2="528.9" y2="271.355" vector-effect="non-scaling-stroke" stroke-width="2.524" stroke="rgb(145,145,145)" stroke-linejoin="miter" stroke-linecap="square" stroke-miterlimit="3"/><line x1="561.4" y1="877.572" x2="561.4" y2="271.355" vector-effect="non-scaling-stroke" stroke-width="2.524" stroke="rgb(145,145,145)" stroke-linejoin="miter" stroke-linecap="square" stroke-miterlimit="3"/><line x1="554.9" y1="877.572" x2="554.9" y2="271.355" vector-effect="non-scaling-stroke" stroke-width="2.524" stroke="rgb(145,145,145)" stroke-linejoin="miter" stroke-linecap="square" stroke-miterlimit="3"/><line x1="541.9" y1="877.572" x2="541.9" y2="271.355" vector-effect="non-scaling-stroke" stroke-width="2.524" stroke="rgb(145,145,145)" stroke-linejoin="miter" stroke-linecap="square" stroke-miterlimit="3"/><line x1="535.4" y1="877.572" x2="535.4" y2="271.355" vector-effect="non-scaling-stroke" stroke-width="2.524" stroke="rgb(145,145,145)" stroke-linejoin="miter" stroke-linecap="square" stroke-miterlimit="3"/><line x1="548.4" y1="877.572" x2="548.4" y2="271.355" vector-effect="non-scaling-stroke" stroke-width="2.524" stroke="rgb(145,145,145)" stroke-linejoin="miter" stroke-linecap="square" stroke-miterlimit="3"/></g></g><clipPath id="_clipPath_nurf7Mdx5WPv2Lo8FRNOnSovJ1277TaZ"><path d=" M 463.4 496.203 L 393.4 455.788 L 393.4 828.498 L 463.4 868.912 L 463.4 496.203 Z " fill="rgb(255,255,255)"/></clipPath><g clip-path="url(#_clipPath_nurf7Mdx5WPv2Lo8FRNOnSovJ1277TaZ)"><g id="body-windows-left"><line x1="460.4" y1="894.893" x2="460.4" y2="271.355" vector-effect="non-scaling-stroke" stroke-width="2.56" stroke="rgb(98,98,98)" stroke-linejoin="miter" stroke-linecap="square" stroke-miterlimit="3"/><line x1="453.9" y1="894.893" x2="453.9" y2="271.355" vector-effect="non-scaling-stroke" stroke-width="2.56" stroke="rgb(98,98,98)" stroke-linejoin="miter" stroke-linecap="square" stroke-miterlimit="3"/><line x1="447.4" y1="894.893" x2="447.4" y2="271.355" vector-effect="non-scaling-stroke" stroke-width="2.56" stroke="rgb(98,98,98)" stroke-linejoin="miter" stroke-linecap="square" stroke-miterlimit="3"/><line x1="440.9" y1="894.893" x2="440.9" y2="271.355" vector-effect="non-scaling-stroke" stroke-width="2.56" stroke="rgb(98,98,98)" stroke-linejoin="miter" stroke-linecap="square" stroke-miterlimit="3"/><line x1="434.4" y1="894.893" x2="434.4" y2="271.355" vector-effect="non-scaling-stroke" stroke-width="2.56" stroke="rgb(98,98,98)" stroke-linejoin="miter" stroke-linecap="square" stroke-miterlimit="3"/><line x1="427.9" y1="894.893" x2="427.9" y2="271.355" vector-effect="non-scaling-stroke" stroke-width="2.56" stroke="rgb(98,98,98)" stroke-linejoin="miter" stroke-linecap="square" stroke-miterlimit="3"/><line x1="395.4" y1="894.893" x2="395.4" y2="271.355" vector-effect="non-scaling-stroke" stroke-width="2.56" stroke="rgb(98,98,98)" stroke-linejoin="miter" stroke-linecap="square" stroke-miterlimit="3"/><line x1="401.9" y1="894.893" x2="401.9" y2="271.355" vector-effect="non-scaling-stroke" stroke-width="2.56" stroke="rgb(98,98,98)" stroke-linejoin="miter" stroke-linecap="square" stroke-miterlimit="3"/><line x1="414.9" y1="894.893" x2="414.9" y2="271.355" vector-effect="non-scaling-stroke" stroke-width="2.56" stroke="rgb(98,98,98)" stroke-linejoin="miter" stroke-linecap="square" stroke-miterlimit="3"/><line x1="421.4" y1="894.893" x2="421.4" y2="271.355" vector-effect="non-scaling-stroke" stroke-width="2.56" stroke="rgb(98,98,98)" stroke-linejoin="miter" stroke-linecap="square" stroke-miterlimit="3"/><line x1="408.4" y1="894.893" x2="408.4" y2="271.355" vector-effect="non-scaling-stroke" stroke-width="2.56" stroke="rgb(98,98,98)" stroke-linejoin="miter" stroke-linecap="square" stroke-miterlimit="3"/></g></g></g></svg>