<?xml version="1.0" standalone="no"?><!-- Generator: Gravit.io --><svg xmlns="http://www.w3.org/2000/svg" xmlns:xlink="http://www.w3.org/1999/xlink" style="isolation:isolate" viewBox="1226.693 -331.976 226.614 390.132" width="226.614" height="390.132"><g id="ch-hancock-roof"><path d=" M 1310 54.848 L 1450 -25.981 L 1370 -72.169 L 1230 8.66 L 1310 54.848 Z " fill="rgb(164,164,164)" vector-effect="non-scaling-stroke" stroke-width="6.614" stroke="rgb(51,51,51)" stroke-linejoin="round" stroke-linecap="square" stroke-miterlimit="3"/><path d=" M 1250 8.66 L 1310 43.301 L 1430 -25.981 L 1370 -60.622 L 1250 8.66 Z " fill="rgb(128,128,128)"/><path d=" M 1310 31.754 L 1410 -25.981 L 1410 -43.301 L 1310 14.434 L 1310 31.754 Z " fill="rgb(102,102,102)"/><path d=" M 1410 -43.301 L 1370 -66.395 L 1270 -8.66 L 1310 14.434 L 1410 -43.301 Z " fill="rgb(164,164,164)"/><path d=" M 1310 8.66 L 1400 -43.301 L 1370 -60.622 L 1280 -8.66 L 1310 8.66 Z " fill="rgb(128,128,128)"/><g id="Antena 1"><path d=" M 1299.051 -7.4 C 1299.051 -9.507 1302.014 -11.218 1305.665 -11.218 C 1309.315 -11.218 1312.278 -9.507 1312.278 -7.4 C 1312.278 -5.292 1309.315 -3.581 1305.665 -3.581 C 1302.014 -3.581 1299.051 -5.292 1299.051 -7.4 Z " fill="rgb(232,232,232)"/><rect x="1299.051" y="-91.408" width="13.228" height="84.008" transform="matrix(1,0,0,1,0,0)" fill="rgb(232,232,232)"/><path d=" M 1299.051 -91.408 C 1299.051 -93.515 1302.014 -95.226 1305.665 -95.226 C 1309.315 -95.226 1312.278 -93.515 1312.278 -91.408 C 1312.278 -89.3 1309.315 -87.589 1305.665 -87.589 C 1302.014 -87.589 1299.051 -89.3 1299.051 -91.408 Z " fill="rgb(255,255,255)"/><path d=" M 1301.806 -92.462 C 1301.806 -93.692 1303.535 -94.69 1305.665 -94.69 C 1307.794 -94.69 1309.523 -93.692 1309.523 -92.462 C 1309.523 -91.233 1307.794 -90.235 1305.665 -90.235 C 1303.535 -90.235 1301.806 -91.233 1301.806 -92.462 Z " fill="rgb(232,232,232)"/><rect x="1301.806" y="-289.972" width="7.716" height="197.51" transform="matrix(1,0,0,1,0,0)" fill="rgb(232,232,232)"/><path d=" M 1301.806 -290.942 C 1301.806 -292.171 1303.535 -293.169 1305.665 -293.169 C 1307.794 -293.169 1309.523 -292.171 1309.523 -290.942 C 1309.523 -289.712 1307.794 -288.714 1305.665 -288.714 C 1303.535 -288.714 1301.806 -289.712 1301.806 -290.942 Z " fill="rgb(255,255,255)"/></g><g id="Antena 2"><path d=" M 1365.19 -46.207 C 1365.19 -48.314 1368.153 -50.025 1371.804 -50.025 C 1375.454 -50.025 1378.418 -48.314 1378.418 -46.207 C 1378.418 -44.099 1375.454 -42.388 1371.804 -42.388 C 1368.153 -42.388 1365.19 -44.099 1365.19 -46.207 Z " fill="rgb(232,232,232)"/><rect x="1365.19" y="-130.215" width="13.228" height="84.008" transform="matrix(1,0,0,1,0,0)" fill="rgb(232,232,232)"/><path d=" M 1365.19 -130.215 C 1365.19 -132.322 1368.153 -134.034 1371.804 -134.034 C 1375.454 -134.034 1378.418 -132.322 1378.418 -130.215 C 1378.418 -128.107 1375.454 -126.396 1371.804 -126.396 C 1368.153 -126.396 1365.19 -128.107 1365.19 -130.215 Z " fill="rgb(255,255,255)"/><path d=" M 1367.946 -131.269 C 1367.946 -132.499 1369.674 -133.497 1371.804 -133.497 C 1373.933 -133.497 1375.662 -132.499 1375.662 -131.269 C 1375.662 -130.04 1373.933 -129.042 1371.804 -129.042 C 1369.674 -129.042 1367.946 -130.04 1367.946 -131.269 Z " fill="rgb(232,232,232)"/><rect x="1367.946" y="-328.78" width="7.716" height="197.51" transform="matrix(1,0,0,1,0,0)" fill="rgb(232,232,232)"/><path d=" M 1367.946 -329.749 C 1367.946 -330.978 1369.674 -331.976 1371.804 -331.976 C 1373.933 -331.976 1375.662 -330.978 1375.662 -329.749 C 1375.662 -328.52 1373.933 -327.521 1371.804 -327.521 C 1369.674 -327.521 1367.946 -328.52 1367.946 -329.749 Z " fill="rgb(255,255,255)"/></g><path d=" M 1270 -8.66 L 1270 8.66 L 1310 31.754 L 1310 14.434 L 1270 -8.66 Z " fill="rgb(75,75,75)"/></g></svg>