<?xml version="1.0" standalone="no"?><!-- Generator: Gravit.io --><svg xmlns="http://www.w3.org/2000/svg" xmlns:xlink="http://www.w3.org/1999/xlink" style="isolation:isolate" viewBox="1180 1108.513 290 202.073" width="290" height="202.073"><g id="chi-hancock-base"><path d=" M 1310 1275.944 L 1310 1310.585 L 1470 1218.209 L 1470 1183.568 L 1310 1275.944 Z " fill="rgb(162,162,162)"/><path d=" M 1180 1200.889 L 1180 1235.53 L 1310 1310.585 L 1310 1275.944 L 1180 1200.889 Z " fill="rgb(139,139,139)"/><g id="base-windows-left"><path d=" M 1299.051 1296.311 L 1299.051 1303.948 L 1285.823 1296.311 L 1285.823 1288.674 L 1299.051 1296.311 Z " fill="rgb(51,51,51)"/><path d=" M 1226.297 1254.307 L 1226.297 1261.944 L 1213.07 1254.307 L 1213.07 1246.67 L 1226.297 1254.307 Z " fill="rgb(51,51,51)"/><path d=" M 1279.209 1284.855 L 1279.209 1292.492 L 1265.981 1284.855 L 1265.981 1277.218 L 1279.209 1284.855 Z " fill="rgb(51,51,51)"/><path d=" M 1206.456 1242.851 L 1206.456 1250.488 L 1193.228 1242.851 L 1193.228 1235.214 L 1206.456 1242.851 Z " fill="rgb(51,51,51)"/></g><g id="base-windows-right"><path d=" M 1325.506 1293.936 L 1325.506 1301.573 L 1338.734 1293.936 L 1338.734 1286.299 L 1325.506 1293.936 Z " fill="rgb(51,51,51)"/><path d=" M 1424.715 1236.658 L 1424.715 1244.295 L 1437.943 1236.658 L 1437.943 1229.021 L 1424.715 1236.658 Z " fill="rgb(51,51,51)"/><path d=" M 1385.032 1259.569 L 1385.032 1267.206 L 1398.259 1259.569 L 1398.259 1251.932 L 1385.032 1259.569 Z " fill="rgb(51,51,51)"/><path d=" M 1345.348 1282.48 L 1345.348 1290.117 L 1358.576 1282.48 L 1358.576 1274.843 L 1345.348 1282.48 Z " fill="rgb(51,51,51)"/><path d=" M 1444.557 1225.202 L 1444.557 1232.839 L 1457.785 1225.202 L 1457.785 1217.565 L 1444.557 1225.202 Z " fill="rgb(51,51,51)"/></g><path d=" M 1180 1200.889 L 1340 1108.513 L 1470 1183.568 L 1310 1275.944 L 1180 1200.889 Z " fill="rgb(232,232,232)"/></g></svg>