<?xml version="1.0" standalone="no"?><!-- Generator: Gravit.io --><svg xmlns="http://www.w3.org/2000/svg" xmlns:xlink="http://www.w3.org/1999/xlink" style="isolation:isolate" viewBox="420 136.109 160 242.519" width="160" height="242.519"><g id="boa-crown"><g id="Group"><path d=" M 440 291.902 L 450 291.902 L 450 297.675 L 440 297.675 L 440 291.902 Z " fill="rgb(191,177,124)"/><path d=" M 440 291.902 L 450 291.902 L 450 297.675 L 440 297.675 L 440 291.902 Z " fill="rgb(191,177,124)"/><path d=" M 440 291.902 L 450 291.902 L 450 297.675 L 440 297.675 L 440 291.902 Z " fill="rgb(191,177,124)"/><path d=" M 550 291.902 L 560 291.902 L 560 297.675 L 550 297.675 L 550 291.902 Z " fill="rgb(191,177,124)"/><path d=" M 425 312.109 L 435 312.109 L 435 317.882 L 425 317.882 L 425 312.109 Z " fill="rgb(191,177,124)"/><path d=" M 565 312.109 L 575 312.109 L 575 317.882 L 565 317.882 L 565 312.109 Z " fill="rgb(191,177,124)"/><path d=" M 580 355.457 L 520 239.987 L 580 320.816 L 580 355.457 Z " fill="rgb(255,242,219)"/><clipPath id="_clipPath_FpLePMa5YIoxql1q7IB5zFrQwVCbKgsq"><path d=" M 580 355.457 L 520 239.987 L 580 320.816 L 580 355.457 Z " fill="rgb(255,242,219)"/></clipPath><g clip-path="url(#_clipPath_FpLePMa5YIoxql1q7IB5zFrQwVCbKgsq)"><g id="Group"><line x1="583.153" y1="205.299" x2="583.153" y2="401.598" vector-effect="non-scaling-stroke" stroke-width="3" stroke="rgb(91,66,63)" stroke-linejoin="miter" stroke-linecap="square" stroke-miterlimit="3"/><line x1="550.108" y1="205.299" x2="550.108" y2="401.598" vector-effect="non-scaling-stroke" stroke-width="3" stroke="rgb(91,66,63)" stroke-linejoin="miter" stroke-linecap="square" stroke-miterlimit="3"/><line x1="521.194" y1="205.299" x2="521.194" y2="401.598" vector-effect="non-scaling-stroke" stroke-width="3" stroke="rgb(91,66,63)" stroke-linejoin="miter" stroke-linecap="square" stroke-miterlimit="3"/><line x1="570.761" y1="205.299" x2="570.761" y2="401.598" vector-effect="non-scaling-stroke" stroke-width="3" stroke="rgb(91,66,63)" stroke-linejoin="miter" stroke-linecap="square" stroke-miterlimit="3"/><line x1="541.847" y1="205.299" x2="541.847" y2="401.598" vector-effect="non-scaling-stroke" stroke-width="3" stroke="rgb(91,66,63)" stroke-linejoin="miter" stroke-linecap="square" stroke-miterlimit="3"/><line x1="574.892" y1="205.299" x2="574.892" y2="401.598" vector-effect="non-scaling-stroke" stroke-width="3" stroke="rgb(91,66,63)" stroke-linejoin="miter" stroke-linecap="square" stroke-miterlimit="3"/><line x1="512.932" y1="205.299" x2="512.932" y2="401.598" vector-effect="non-scaling-stroke" stroke-width="3" stroke="rgb(91,66,63)" stroke-linejoin="miter" stroke-linecap="square" stroke-miterlimit="3"/><line x1="508.802" y1="205.299" x2="508.802" y2="401.598" vector-effect="non-scaling-stroke" stroke-width="3" stroke="rgb(91,66,63)" stroke-linejoin="miter" stroke-linecap="square" stroke-miterlimit="3"/><line x1="566.631" y1="205.299" x2="566.631" y2="401.598" vector-effect="non-scaling-stroke" stroke-width="3" stroke="rgb(91,66,63)" stroke-linejoin="miter" stroke-linecap="square" stroke-miterlimit="3"/><line x1="504.671" y1="205.299" x2="504.671" y2="401.598" vector-effect="non-scaling-stroke" stroke-width="3" stroke="rgb(91,66,63)" stroke-linejoin="miter" stroke-linecap="square" stroke-miterlimit="3"/><line x1="554.239" y1="205.299" x2="554.239" y2="401.598" vector-effect="non-scaling-stroke" stroke-width="3" stroke="rgb(91,66,63)" stroke-linejoin="miter" stroke-linecap="square" stroke-miterlimit="3"/><line x1="620.329" y1="205.299" x2="620.329" y2="401.598" vector-effect="non-scaling-stroke" stroke-width="3" stroke="rgb(91,66,63)" stroke-linejoin="miter" stroke-linecap="square" stroke-miterlimit="3"/><path d=" M 591.415 205.299 L 591.415 256.813 L 591.415 401.598" fill="none" vector-effect="non-scaling-stroke" stroke-width="3" stroke="rgb(91,66,63)" stroke-linejoin="miter" stroke-linecap="square" stroke-miterlimit="3"/><line x1="587.284" y1="205.299" x2="587.284" y2="401.598" vector-effect="non-scaling-stroke" stroke-width="3" stroke="rgb(91,66,63)" stroke-linejoin="miter" stroke-linecap="square" stroke-miterlimit="3"/><line x1="579.023" y1="205.299" x2="579.023" y2="401.598" vector-effect="non-scaling-stroke" stroke-width="3" stroke="rgb(91,66,63)" stroke-linejoin="miter" stroke-linecap="square" stroke-miterlimit="3"/><line x1="533.585" y1="205.299" x2="533.585" y2="401.598" vector-effect="non-scaling-stroke" stroke-width="3" stroke="rgb(91,66,63)" stroke-linejoin="miter" stroke-linecap="square" stroke-miterlimit="3"/><line x1="529.455" y1="205.299" x2="529.455" y2="401.598" vector-effect="non-scaling-stroke" stroke-width="3" stroke="rgb(91,66,63)" stroke-linejoin="miter" stroke-linecap="square" stroke-miterlimit="3"/><line x1="517.063" y1="205.299" x2="517.063" y2="401.598" vector-effect="non-scaling-stroke" stroke-width="3" stroke="rgb(91,66,63)" stroke-linejoin="miter" stroke-linecap="square" stroke-miterlimit="3"/><line x1="525.324" y1="205.299" x2="525.324" y2="401.598" vector-effect="non-scaling-stroke" stroke-width="3" stroke="rgb(91,66,63)" stroke-linejoin="miter" stroke-linecap="square" stroke-miterlimit="3"/><line x1="537.716" y1="205.299" x2="537.716" y2="401.598" vector-effect="non-scaling-stroke" stroke-width="3" stroke="rgb(91,66,63)" stroke-linejoin="miter" stroke-linecap="square" stroke-miterlimit="3"/><line x1="545.977" y1="205.299" x2="545.977" y2="401.598" vector-effect="non-scaling-stroke" stroke-width="3" stroke="rgb(91,66,63)" stroke-linejoin="miter" stroke-linecap="square" stroke-miterlimit="3"/><line x1="558.369" y1="205.299" x2="558.369" y2="401.598" vector-effect="non-scaling-stroke" stroke-width="3" stroke="rgb(91,66,63)" stroke-linejoin="miter" stroke-linecap="square" stroke-miterlimit="3"/><line x1="562.5" y1="205.299" x2="562.5" y2="401.598" vector-effect="non-scaling-stroke" stroke-width="3" stroke="rgb(91,66,63)" stroke-linejoin="miter" stroke-linecap="square" stroke-miterlimit="3"/><line x1="595.545" y1="205.299" x2="595.545" y2="401.598" vector-effect="non-scaling-stroke" stroke-width="3" stroke="rgb(91,66,63)" stroke-linejoin="miter" stroke-linecap="square" stroke-miterlimit="3"/><line x1="599.676" y1="205.299" x2="599.676" y2="401.598" vector-effect="non-scaling-stroke" stroke-width="3" stroke="rgb(91,66,63)" stroke-linejoin="miter" stroke-linecap="square" stroke-miterlimit="3"/><line x1="603.806" y1="205.299" x2="603.806" y2="401.598" vector-effect="non-scaling-stroke" stroke-width="3" stroke="rgb(91,66,63)" stroke-linejoin="miter" stroke-linecap="square" stroke-miterlimit="3"/><line x1="607.937" y1="205.299" x2="607.937" y2="401.598" vector-effect="non-scaling-stroke" stroke-width="3" stroke="rgb(91,66,63)" stroke-linejoin="miter" stroke-linecap="square" stroke-miterlimit="3"/><line x1="612.068" y1="205.299" x2="612.068" y2="401.598" vector-effect="non-scaling-stroke" stroke-width="3" stroke="rgb(91,66,63)" stroke-linejoin="miter" stroke-linecap="square" stroke-miterlimit="3"/><line x1="616.198" y1="205.299" x2="616.198" y2="401.598" vector-effect="non-scaling-stroke" stroke-width="3" stroke="rgb(91,66,63)" stroke-linejoin="miter" stroke-linecap="square" stroke-miterlimit="3"/></g></g><path d=" M 420.5 355.457 L 480.5 239.987 L 420.5 320.816 L 420.5 355.457 Z " fill="rgb(255,242,219)"/><clipPath id="_clipPath_P6UgUfhgPLAB2MkF1Gk180PwLpTKhbD4"><path d=" M 420.5 355.457 L 480.5 239.987 L 420.5 320.816 L 420.5 355.457 Z " fill="rgb(255,242,219)"/></clipPath><g clip-path="url(#_clipPath_P6UgUfhgPLAB2MkF1Gk180PwLpTKhbD4)"><g id="Group"><line x1="417.347" y1="205.299" x2="417.347" y2="401.598" vector-effect="non-scaling-stroke" stroke-width="3" stroke="rgb(91,66,63)" stroke-linejoin="miter" stroke-linecap="square" stroke-miterlimit="3"/><line x1="450.392" y1="205.299" x2="450.392" y2="401.598" vector-effect="non-scaling-stroke" stroke-width="3" stroke="rgb(91,66,63)" stroke-linejoin="miter" stroke-linecap="square" stroke-miterlimit="3"/><line x1="479.306" y1="205.299" x2="479.306" y2="401.598" vector-effect="non-scaling-stroke" stroke-width="3" stroke="rgb(91,66,63)" stroke-linejoin="miter" stroke-linecap="square" stroke-miterlimit="3"/><line x1="429.739" y1="205.299" x2="429.739" y2="401.598" vector-effect="non-scaling-stroke" stroke-width="3" stroke="rgb(91,66,63)" stroke-linejoin="miter" stroke-linecap="square" stroke-miterlimit="3"/><line x1="458.653" y1="205.299" x2="458.653" y2="401.598" vector-effect="non-scaling-stroke" stroke-width="3" stroke="rgb(91,66,63)" stroke-linejoin="miter" stroke-linecap="square" stroke-miterlimit="3"/><line x1="425.608" y1="205.299" x2="425.608" y2="401.598" vector-effect="non-scaling-stroke" stroke-width="3" stroke="rgb(91,66,63)" stroke-linejoin="miter" stroke-linecap="square" stroke-miterlimit="3"/><line x1="487.568" y1="205.299" x2="487.568" y2="401.598" vector-effect="non-scaling-stroke" stroke-width="3" stroke="rgb(91,66,63)" stroke-linejoin="miter" stroke-linecap="square" stroke-miterlimit="3"/><line x1="491.698" y1="205.299" x2="491.698" y2="401.598" vector-effect="non-scaling-stroke" stroke-width="3" stroke="rgb(91,66,63)" stroke-linejoin="miter" stroke-linecap="square" stroke-miterlimit="3"/><line x1="433.869" y1="205.299" x2="433.869" y2="401.598" vector-effect="non-scaling-stroke" stroke-width="3" stroke="rgb(91,66,63)" stroke-linejoin="miter" stroke-linecap="square" stroke-miterlimit="3"/><line x1="495.829" y1="205.299" x2="495.829" y2="401.598" vector-effect="non-scaling-stroke" stroke-width="3" stroke="rgb(91,66,63)" stroke-linejoin="miter" stroke-linecap="square" stroke-miterlimit="3"/><line x1="446.261" y1="205.299" x2="446.261" y2="401.598" vector-effect="non-scaling-stroke" stroke-width="3" stroke="rgb(91,66,63)" stroke-linejoin="miter" stroke-linecap="square" stroke-miterlimit="3"/><line x1="380.171" y1="205.299" x2="380.171" y2="401.598" vector-effect="non-scaling-stroke" stroke-width="3" stroke="rgb(91,66,63)" stroke-linejoin="miter" stroke-linecap="square" stroke-miterlimit="3"/><path d=" M 409.085 205.299 L 409.085 256.813 L 409.085 401.598" fill="none" vector-effect="non-scaling-stroke" stroke-width="3" stroke="rgb(91,66,63)" stroke-linejoin="miter" stroke-linecap="square" stroke-miterlimit="3"/><line x1="413.216" y1="205.299" x2="413.216" y2="401.598" vector-effect="non-scaling-stroke" stroke-width="3" stroke="rgb(91,66,63)" stroke-linejoin="miter" stroke-linecap="square" stroke-miterlimit="3"/><line x1="421.477" y1="205.299" x2="421.477" y2="401.598" vector-effect="non-scaling-stroke" stroke-width="3" stroke="rgb(91,66,63)" stroke-linejoin="miter" stroke-linecap="square" stroke-miterlimit="3"/><line x1="466.915" y1="205.299" x2="466.915" y2="401.598" vector-effect="non-scaling-stroke" stroke-width="3" stroke="rgb(91,66,63)" stroke-linejoin="miter" stroke-linecap="square" stroke-miterlimit="3"/><line x1="471.045" y1="205.299" x2="471.045" y2="401.598" vector-effect="non-scaling-stroke" stroke-width="3" stroke="rgb(91,66,63)" stroke-linejoin="miter" stroke-linecap="square" stroke-miterlimit="3"/><line x1="483.437" y1="205.299" x2="483.437" y2="401.598" vector-effect="non-scaling-stroke" stroke-width="3" stroke="rgb(91,66,63)" stroke-linejoin="miter" stroke-linecap="square" stroke-miterlimit="3"/><line x1="475.176" y1="205.299" x2="475.176" y2="401.598" vector-effect="non-scaling-stroke" stroke-width="3" stroke="rgb(91,66,63)" stroke-linejoin="miter" stroke-linecap="square" stroke-miterlimit="3"/><line x1="462.784" y1="205.299" x2="462.784" y2="401.598" vector-effect="non-scaling-stroke" stroke-width="3" stroke="rgb(91,66,63)" stroke-linejoin="miter" stroke-linecap="square" stroke-miterlimit="3"/><line x1="454.523" y1="205.299" x2="454.523" y2="401.598" vector-effect="non-scaling-stroke" stroke-width="3" stroke="rgb(91,66,63)" stroke-linejoin="miter" stroke-linecap="square" stroke-miterlimit="3"/><line x1="442.131" y1="205.299" x2="442.131" y2="401.598" vector-effect="non-scaling-stroke" stroke-width="3" stroke="rgb(91,66,63)" stroke-linejoin="miter" stroke-linecap="square" stroke-miterlimit="3"/><line x1="438" y1="205.299" x2="438" y2="401.598" vector-effect="non-scaling-stroke" stroke-width="3" stroke="rgb(91,66,63)" stroke-linejoin="miter" stroke-linecap="square" stroke-miterlimit="3"/><line x1="404.955" y1="205.299" x2="404.955" y2="401.598" vector-effect="non-scaling-stroke" stroke-width="3" stroke="rgb(91,66,63)" stroke-linejoin="miter" stroke-linecap="square" stroke-miterlimit="3"/><line x1="400.824" y1="205.299" x2="400.824" y2="401.598" vector-effect="non-scaling-stroke" stroke-width="3" stroke="rgb(91,66,63)" stroke-linejoin="miter" stroke-linecap="square" stroke-miterlimit="3"/><line x1="396.694" y1="205.299" x2="396.694" y2="401.598" vector-effect="non-scaling-stroke" stroke-width="3" stroke="rgb(91,66,63)" stroke-linejoin="miter" stroke-linecap="square" stroke-miterlimit="3"/><line x1="392.563" y1="205.299" x2="392.563" y2="401.598" vector-effect="non-scaling-stroke" stroke-width="3" stroke="rgb(91,66,63)" stroke-linejoin="miter" stroke-linecap="square" stroke-miterlimit="3"/><line x1="388.432" y1="205.299" x2="388.432" y2="401.598" vector-effect="non-scaling-stroke" stroke-width="3" stroke="rgb(91,66,63)" stroke-linejoin="miter" stroke-linecap="square" stroke-miterlimit="3"/><line x1="384.302" y1="205.299" x2="384.302" y2="401.598" vector-effect="non-scaling-stroke" stroke-width="3" stroke="rgb(91,66,63)" stroke-linejoin="miter" stroke-linecap="square" stroke-miterlimit="3"/></g></g><path d=" M 500 216.658 L 520 228.205 L 500 239.752 L 480 228.205 L 500 216.658 Z " fill="rgb(91,66,63)"/><path d=" M 500 355.504 L 520 239.94 L 580 355.504 L 500 355.504 Z " fill="rgb(255,242,219)"/><clipPath id="_clipPath_RyetXgInV1mFYnZawwpAf4CKOjOJMJmh"><path d=" M 500 355.504 L 520 239.94 L 580 355.504 L 500 355.504 Z " fill="rgb(255,242,219)"/></clipPath><g clip-path="url(#_clipPath_RyetXgInV1mFYnZawwpAf4CKOjOJMJmh)"><g id="Group"><line x1="495" y1="301.168" x2="595" y2="301.168" vector-effect="non-scaling-stroke" stroke-width="3" stroke="rgb(91,66,63)" stroke-linejoin="miter" stroke-linecap="square" stroke-miterlimit="3"/><line x1="495" y1="327.859" x2="595" y2="327.859" vector-effect="non-scaling-stroke" stroke-width="3" stroke="rgb(91,66,63)" stroke-linejoin="miter" stroke-linecap="square" stroke-miterlimit="3"/><line x1="495" y1="367.894" x2="595" y2="367.894" vector-effect="non-scaling-stroke" stroke-width="3" stroke="rgb(91,66,63)" stroke-linejoin="miter" stroke-linecap="square" stroke-miterlimit="3"/><line x1="495" y1="341.204" x2="595" y2="341.204" vector-effect="non-scaling-stroke" stroke-width="3" stroke="rgb(91,66,63)" stroke-linejoin="miter" stroke-linecap="square" stroke-miterlimit="3"/><line x1="495" y1="345.652" x2="595" y2="345.652" vector-effect="non-scaling-stroke" stroke-width="3" stroke="rgb(91,66,63)" stroke-linejoin="miter" stroke-linecap="square" stroke-miterlimit="3"/><line x1="495" y1="350.1" x2="595" y2="350.1" vector-effect="non-scaling-stroke" stroke-width="3" stroke="rgb(91,66,63)" stroke-linejoin="miter" stroke-linecap="square" stroke-miterlimit="3"/><line x1="495" y1="376.791" x2="595" y2="376.791" vector-effect="non-scaling-stroke" stroke-width="3" stroke="rgb(91,66,63)" stroke-linejoin="miter" stroke-linecap="square" stroke-miterlimit="3"/><line x1="495" y1="381.239" x2="595" y2="381.239" vector-effect="non-scaling-stroke" stroke-width="3" stroke="rgb(91,66,63)" stroke-linejoin="miter" stroke-linecap="square" stroke-miterlimit="3"/><line x1="495" y1="310.065" x2="595" y2="310.065" vector-effect="non-scaling-stroke" stroke-width="3" stroke="rgb(91,66,63)" stroke-linejoin="miter" stroke-linecap="square" stroke-miterlimit="3"/><line x1="495" y1="296.72" x2="595" y2="296.72" vector-effect="non-scaling-stroke" stroke-width="3" stroke="rgb(91,66,63)" stroke-linejoin="miter" stroke-linecap="square" stroke-miterlimit="3"/><line x1="495" y1="336.755" x2="595" y2="336.755" vector-effect="non-scaling-stroke" stroke-width="3" stroke="rgb(91,66,63)" stroke-linejoin="miter" stroke-linecap="square" stroke-miterlimit="3"/><line x1="495" y1="287.823" x2="595" y2="287.823" vector-effect="non-scaling-stroke" stroke-width="3" stroke="rgb(91,66,63)" stroke-linejoin="miter" stroke-linecap="square" stroke-miterlimit="3"/><line x1="495" y1="305.617" x2="595" y2="305.617" vector-effect="non-scaling-stroke" stroke-width="3" stroke="rgb(91,66,63)" stroke-linejoin="miter" stroke-linecap="square" stroke-miterlimit="3"/><line x1="495" y1="265.581" x2="595" y2="265.581" vector-effect="non-scaling-stroke" stroke-width="3" stroke="rgb(91,66,63)" stroke-linejoin="miter" stroke-linecap="square" stroke-miterlimit="3"/><line x1="495" y1="318.962" x2="595" y2="318.962" vector-effect="non-scaling-stroke" stroke-width="3" stroke="rgb(91,66,63)" stroke-linejoin="miter" stroke-linecap="square" stroke-miterlimit="3"/><line x1="495" y1="354.549" x2="595" y2="354.549" vector-effect="non-scaling-stroke" stroke-width="3" stroke="rgb(91,66,63)" stroke-linejoin="miter" stroke-linecap="square" stroke-miterlimit="3"/><line x1="495" y1="358.997" x2="595" y2="358.997" vector-effect="non-scaling-stroke" stroke-width="3" stroke="rgb(91,66,63)" stroke-linejoin="miter" stroke-linecap="square" stroke-miterlimit="3"/><line x1="495" y1="372.342" x2="595" y2="372.342" vector-effect="non-scaling-stroke" stroke-width="3" stroke="rgb(91,66,63)" stroke-linejoin="miter" stroke-linecap="square" stroke-miterlimit="3"/><line x1="495" y1="363.446" x2="595" y2="363.446" vector-effect="non-scaling-stroke" stroke-width="3" stroke="rgb(91,66,63)" stroke-linejoin="miter" stroke-linecap="square" stroke-miterlimit="3"/><line x1="495" y1="314.513" x2="595" y2="314.513" vector-effect="non-scaling-stroke" stroke-width="3" stroke="rgb(91,66,63)" stroke-linejoin="miter" stroke-linecap="square" stroke-miterlimit="3"/><line x1="495" y1="323.41" x2="595" y2="323.41" vector-effect="non-scaling-stroke" stroke-width="3" stroke="rgb(91,66,63)" stroke-linejoin="miter" stroke-linecap="square" stroke-miterlimit="3"/><line x1="495" y1="332.307" x2="595" y2="332.307" vector-effect="non-scaling-stroke" stroke-width="3" stroke="rgb(91,66,63)" stroke-linejoin="miter" stroke-linecap="square" stroke-miterlimit="3"/><line x1="495" y1="283.375" x2="595" y2="283.375" vector-effect="non-scaling-stroke" stroke-width="3" stroke="rgb(91,66,63)" stroke-linejoin="miter" stroke-linecap="square" stroke-miterlimit="3"/><line x1="495" y1="278.926" x2="595" y2="278.926" vector-effect="non-scaling-stroke" stroke-width="3" stroke="rgb(91,66,63)" stroke-linejoin="miter" stroke-linecap="square" stroke-miterlimit="3"/><line x1="495" y1="274.478" x2="595" y2="274.478" vector-effect="non-scaling-stroke" stroke-width="3" stroke="rgb(91,66,63)" stroke-linejoin="miter" stroke-linecap="square" stroke-miterlimit="3"/><line x1="495" y1="292.271" x2="595" y2="292.271" vector-effect="non-scaling-stroke" stroke-width="3" stroke="rgb(91,66,63)" stroke-linejoin="miter" stroke-linecap="square" stroke-miterlimit="3"/><line x1="495" y1="270.03" x2="595" y2="270.03" vector-effect="non-scaling-stroke" stroke-width="3" stroke="rgb(91,66,63)" stroke-linejoin="miter" stroke-linecap="square" stroke-miterlimit="3"/></g></g><path d=" M 500 355.504 L 480 239.94 L 420 355.504 L 500 355.504 Z " fill="rgb(255,242,219)"/><clipPath id="_clipPath_H30Cw7av39kl1cpCjFap4G6KM6phBfGx"><path d=" M 500 355.504 L 480 239.94 L 420 355.504 L 500 355.504 Z " fill="rgb(255,242,219)"/></clipPath><g clip-path="url(#_clipPath_H30Cw7av39kl1cpCjFap4G6KM6phBfGx)"><g id="Group"><line x1="495" y1="298.527" x2="395" y2="298.527" vector-effect="non-scaling-stroke" stroke-width="3" stroke="rgb(91,66,63)" stroke-linejoin="miter" stroke-linecap="square" stroke-miterlimit="3"/><line x1="495" y1="325.218" x2="395" y2="325.218" vector-effect="non-scaling-stroke" stroke-width="3" stroke="rgb(91,66,63)" stroke-linejoin="miter" stroke-linecap="square" stroke-miterlimit="3"/><line x1="495" y1="365.253" x2="395" y2="365.253" vector-effect="non-scaling-stroke" stroke-width="3" stroke="rgb(91,66,63)" stroke-linejoin="miter" stroke-linecap="square" stroke-miterlimit="3"/><line x1="495" y1="338.563" x2="395" y2="338.563" vector-effect="non-scaling-stroke" stroke-width="3" stroke="rgb(91,66,63)" stroke-linejoin="miter" stroke-linecap="square" stroke-miterlimit="3"/><line x1="495" y1="343.011" x2="395" y2="343.011" vector-effect="non-scaling-stroke" stroke-width="3" stroke="rgb(91,66,63)" stroke-linejoin="miter" stroke-linecap="square" stroke-miterlimit="3"/><line x1="495" y1="347.459" x2="395" y2="347.459" vector-effect="non-scaling-stroke" stroke-width="3" stroke="rgb(91,66,63)" stroke-linejoin="miter" stroke-linecap="square" stroke-miterlimit="3"/><line x1="495" y1="374.15" x2="395" y2="374.15" vector-effect="non-scaling-stroke" stroke-width="3" stroke="rgb(91,66,63)" stroke-linejoin="miter" stroke-linecap="square" stroke-miterlimit="3"/><line x1="495" y1="378.598" x2="395" y2="378.598" vector-effect="non-scaling-stroke" stroke-width="3" stroke="rgb(91,66,63)" stroke-linejoin="miter" stroke-linecap="square" stroke-miterlimit="3"/><line x1="495" y1="307.424" x2="395" y2="307.424" vector-effect="non-scaling-stroke" stroke-width="3" stroke="rgb(91,66,63)" stroke-linejoin="miter" stroke-linecap="square" stroke-miterlimit="3"/><line x1="495" y1="294.079" x2="395" y2="294.079" vector-effect="non-scaling-stroke" stroke-width="3" stroke="rgb(91,66,63)" stroke-linejoin="miter" stroke-linecap="square" stroke-miterlimit="3"/><line x1="495" y1="334.114" x2="395" y2="334.114" vector-effect="non-scaling-stroke" stroke-width="3" stroke="rgb(91,66,63)" stroke-linejoin="miter" stroke-linecap="square" stroke-miterlimit="3"/><line x1="495" y1="285.182" x2="395" y2="285.182" vector-effect="non-scaling-stroke" stroke-width="3" stroke="rgb(91,66,63)" stroke-linejoin="miter" stroke-linecap="square" stroke-miterlimit="3"/><line x1="495" y1="302.976" x2="395" y2="302.976" vector-effect="non-scaling-stroke" stroke-width="3" stroke="rgb(91,66,63)" stroke-linejoin="miter" stroke-linecap="square" stroke-miterlimit="3"/><line x1="495" y1="262.94" x2="395" y2="262.94" vector-effect="non-scaling-stroke" stroke-width="3" stroke="rgb(91,66,63)" stroke-linejoin="miter" stroke-linecap="square" stroke-miterlimit="3"/><line x1="495" y1="316.321" x2="395" y2="316.321" vector-effect="non-scaling-stroke" stroke-width="3" stroke="rgb(91,66,63)" stroke-linejoin="miter" stroke-linecap="square" stroke-miterlimit="3"/><line x1="495" y1="351.908" x2="395" y2="351.908" vector-effect="non-scaling-stroke" stroke-width="3" stroke="rgb(91,66,63)" stroke-linejoin="miter" stroke-linecap="square" stroke-miterlimit="3"/><line x1="495" y1="356.356" x2="395" y2="356.356" vector-effect="non-scaling-stroke" stroke-width="3" stroke="rgb(91,66,63)" stroke-linejoin="miter" stroke-linecap="square" stroke-miterlimit="3"/><line x1="495" y1="369.701" x2="395" y2="369.701" vector-effect="non-scaling-stroke" stroke-width="3" stroke="rgb(91,66,63)" stroke-linejoin="miter" stroke-linecap="square" stroke-miterlimit="3"/><line x1="495" y1="360.805" x2="395" y2="360.805" vector-effect="non-scaling-stroke" stroke-width="3" stroke="rgb(91,66,63)" stroke-linejoin="miter" stroke-linecap="square" stroke-miterlimit="3"/><line x1="495" y1="311.872" x2="395" y2="311.872" vector-effect="non-scaling-stroke" stroke-width="3" stroke="rgb(91,66,63)" stroke-linejoin="miter" stroke-linecap="square" stroke-miterlimit="3"/><line x1="495" y1="320.769" x2="395" y2="320.769" vector-effect="non-scaling-stroke" stroke-width="3" stroke="rgb(91,66,63)" stroke-linejoin="miter" stroke-linecap="square" stroke-miterlimit="3"/><line x1="495" y1="329.666" x2="395" y2="329.666" vector-effect="non-scaling-stroke" stroke-width="3" stroke="rgb(91,66,63)" stroke-linejoin="miter" stroke-linecap="square" stroke-miterlimit="3"/><line x1="495" y1="280.734" x2="395" y2="280.734" vector-effect="non-scaling-stroke" stroke-width="3" stroke="rgb(91,66,63)" stroke-linejoin="miter" stroke-linecap="square" stroke-miterlimit="3"/><line x1="495" y1="276.285" x2="395" y2="276.285" vector-effect="non-scaling-stroke" stroke-width="3" stroke="rgb(91,66,63)" stroke-linejoin="miter" stroke-linecap="square" stroke-miterlimit="3"/><line x1="495" y1="271.837" x2="395" y2="271.837" vector-effect="non-scaling-stroke" stroke-width="3" stroke="rgb(91,66,63)" stroke-linejoin="miter" stroke-linecap="square" stroke-miterlimit="3"/><line x1="495" y1="289.63" x2="395" y2="289.63" vector-effect="non-scaling-stroke" stroke-width="3" stroke="rgb(91,66,63)" stroke-linejoin="miter" stroke-linecap="square" stroke-miterlimit="3"/><line x1="495" y1="267.389" x2="395" y2="267.389" vector-effect="non-scaling-stroke" stroke-width="3" stroke="rgb(91,66,63)" stroke-linejoin="miter" stroke-linecap="square" stroke-miterlimit="3"/></g></g><path d=" M 520 228.205 L 560 355.41 L 519.785 378.628 L 500 378.504 L 500 239.752 L 520 228.205 Z " fill="rgb(255,242,219)"/><clipPath id="_clipPath_SZ4UGVFclJmgijg6sz7i7WscOhccXHCs"><path d=" M 520 228.205 L 560 355.41 L 519.785 378.628 L 500 378.504 L 500 239.752 L 520 228.205 Z " fill="rgb(255,242,219)"/></clipPath><g clip-path="url(#_clipPath_SZ4UGVFclJmgijg6sz7i7WscOhccXHCs)"><g id="Group"><line x1="572.405" y1="211.829" x2="485.595" y2="261.467" vector-effect="non-scaling-stroke" stroke-width="3" stroke="rgb(91,66,63)" stroke-linejoin="miter" stroke-linecap="square" stroke-miterlimit="3"/><line x1="572.405" y1="345.584" x2="485.595" y2="395.223" vector-effect="non-scaling-stroke" stroke-width="3" stroke="rgb(91,66,63)" stroke-linejoin="miter" stroke-linecap="square" stroke-miterlimit="3"/><line x1="572.405" y1="283.851" x2="485.595" y2="333.49" vector-effect="non-scaling-stroke" stroke-width="3" stroke="rgb(91,66,63)" stroke-linejoin="miter" stroke-linecap="square" stroke-miterlimit="3"/><line x1="572.405" y1="330.151" x2="485.595" y2="379.79" vector-effect="non-scaling-stroke" stroke-width="3" stroke="rgb(91,66,63)" stroke-linejoin="miter" stroke-linecap="square" stroke-miterlimit="3"/><line x1="572.405" y1="325.007" x2="485.595" y2="374.645" vector-effect="non-scaling-stroke" stroke-width="3" stroke="rgb(91,66,63)" stroke-linejoin="miter" stroke-linecap="square" stroke-miterlimit="3"/><line x1="572.405" y1="319.862" x2="485.595" y2="369.501" vector-effect="non-scaling-stroke" stroke-width="3" stroke="rgb(91,66,63)" stroke-linejoin="miter" stroke-linecap="square" stroke-miterlimit="3"/><line x1="572.405" y1="314.718" x2="485.595" y2="364.356" vector-effect="non-scaling-stroke" stroke-width="3" stroke="rgb(91,66,63)" stroke-linejoin="miter" stroke-linecap="square" stroke-miterlimit="3"/><line x1="572.405" y1="309.573" x2="485.595" y2="359.212" vector-effect="non-scaling-stroke" stroke-width="3" stroke="rgb(91,66,63)" stroke-linejoin="miter" stroke-linecap="square" stroke-miterlimit="3"/><line x1="572.405" y1="263.273" x2="485.595" y2="312.912" vector-effect="non-scaling-stroke" stroke-width="3" stroke="rgb(91,66,63)" stroke-linejoin="miter" stroke-linecap="square" stroke-miterlimit="3"/><line x1="572.405" y1="247.84" x2="485.595" y2="297.479" vector-effect="non-scaling-stroke" stroke-width="3" stroke="rgb(91,66,63)" stroke-linejoin="miter" stroke-linecap="square" stroke-miterlimit="3"/><line x1="572.405" y1="294.14" x2="485.595" y2="343.779" vector-effect="non-scaling-stroke" stroke-width="3" stroke="rgb(91,66,63)" stroke-linejoin="miter" stroke-linecap="square" stroke-miterlimit="3"/><path d=" M 572.405 232.406 L 502.961 272.115 L 485.595 282.045" fill="none" vector-effect="non-scaling-stroke" stroke-width="3" stroke="rgb(91,66,63)" stroke-linejoin="miter" stroke-linecap="square" stroke-miterlimit="3"/><line x1="572.405" y1="222.117" x2="485.595" y2="271.756" vector-effect="non-scaling-stroke" stroke-width="3" stroke="rgb(91,66,63)" stroke-linejoin="miter" stroke-linecap="square" stroke-miterlimit="3"/><line x1="572.405" y1="206.684" x2="485.595" y2="256.323" vector-effect="non-scaling-stroke" stroke-width="3" stroke="rgb(91,66,63)" stroke-linejoin="miter" stroke-linecap="square" stroke-miterlimit="3"/><line x1="572.405" y1="216.973" x2="485.595" y2="266.612" vector-effect="non-scaling-stroke" stroke-width="3" stroke="rgb(91,66,63)" stroke-linejoin="miter" stroke-linecap="square" stroke-miterlimit="3"/><line x1="572.405" y1="242.695" x2="485.595" y2="292.334" vector-effect="non-scaling-stroke" stroke-width="3" stroke="rgb(91,66,63)" stroke-linejoin="miter" stroke-linecap="square" stroke-miterlimit="3"/><line x1="572.405" y1="268.418" x2="485.595" y2="318.056" vector-effect="non-scaling-stroke" stroke-width="3" stroke="rgb(91,66,63)" stroke-linejoin="miter" stroke-linecap="square" stroke-miterlimit="3"/><line x1="572.405" y1="335.296" x2="485.595" y2="384.934" vector-effect="non-scaling-stroke" stroke-width="3" stroke="rgb(91,66,63)" stroke-linejoin="miter" stroke-linecap="square" stroke-miterlimit="3"/><line x1="572.405" y1="299.284" x2="485.595" y2="348.923" vector-effect="non-scaling-stroke" stroke-width="3" stroke="rgb(91,66,63)" stroke-linejoin="miter" stroke-linecap="square" stroke-miterlimit="3"/><line x1="572.405" y1="252.984" x2="485.595" y2="302.623" vector-effect="non-scaling-stroke" stroke-width="3" stroke="rgb(91,66,63)" stroke-linejoin="miter" stroke-linecap="square" stroke-miterlimit="3"/><line x1="572.405" y1="304.429" x2="485.595" y2="354.068" vector-effect="non-scaling-stroke" stroke-width="3" stroke="rgb(91,66,63)" stroke-linejoin="miter" stroke-linecap="square" stroke-miterlimit="3"/><line x1="572.405" y1="288.995" x2="485.595" y2="338.634" vector-effect="non-scaling-stroke" stroke-width="3" stroke="rgb(91,66,63)" stroke-linejoin="miter" stroke-linecap="square" stroke-miterlimit="3"/><line x1="572.405" y1="237.551" x2="485.595" y2="287.19" vector-effect="non-scaling-stroke" stroke-width="3" stroke="rgb(91,66,63)" stroke-linejoin="miter" stroke-linecap="square" stroke-miterlimit="3"/><line x1="572.405" y1="258.129" x2="485.595" y2="307.767" vector-effect="non-scaling-stroke" stroke-width="3" stroke="rgb(91,66,63)" stroke-linejoin="miter" stroke-linecap="square" stroke-miterlimit="3"/><line x1="572.405" y1="340.44" x2="485.595" y2="390.079" vector-effect="non-scaling-stroke" stroke-width="3" stroke="rgb(91,66,63)" stroke-linejoin="miter" stroke-linecap="square" stroke-miterlimit="3"/><line x1="572.405" y1="273.562" x2="485.595" y2="323.201" vector-effect="non-scaling-stroke" stroke-width="3" stroke="rgb(91,66,63)" stroke-linejoin="miter" stroke-linecap="square" stroke-miterlimit="3"/><line x1="572.405" y1="278.706" x2="485.595" y2="328.345" vector-effect="non-scaling-stroke" stroke-width="3" stroke="rgb(91,66,63)" stroke-linejoin="miter" stroke-linecap="square" stroke-miterlimit="3"/><line x1="572.405" y1="227.262" x2="485.595" y2="276.901" vector-effect="non-scaling-stroke" stroke-width="3" stroke="rgb(91,66,63)" stroke-linejoin="miter" stroke-linecap="square" stroke-miterlimit="3"/></g></g><path d=" M 480 228.205 L 440 355.41 L 480.215 378.628 L 500 378.504 L 500 239.752 L 480 228.205 Z " fill="rgb(255,242,219)"/><clipPath id="_clipPath_dcxmtY48PNyNX0Bh3Xy72DC7q0vmbMLr"><path d=" M 480 228.205 L 440 355.41 L 480.215 378.628 L 500 378.504 L 500 239.752 L 480 228.205 Z " fill="rgb(255,242,219)"/></clipPath><g clip-path="url(#_clipPath_dcxmtY48PNyNX0Bh3Xy72DC7q0vmbMLr)"><g id="Group"><line x1="427.595" y1="211.829" x2="514.405" y2="261.467" vector-effect="non-scaling-stroke" stroke-width="3" stroke="rgb(91,66,63)" stroke-linejoin="miter" stroke-linecap="square" stroke-miterlimit="3"/><line x1="427.595" y1="345.584" x2="514.405" y2="395.223" vector-effect="non-scaling-stroke" stroke-width="3" stroke="rgb(91,66,63)" stroke-linejoin="miter" stroke-linecap="square" stroke-miterlimit="3"/><line x1="427.595" y1="283.851" x2="514.405" y2="333.49" vector-effect="non-scaling-stroke" stroke-width="3" stroke="rgb(91,66,63)" stroke-linejoin="miter" stroke-linecap="square" stroke-miterlimit="3"/><line x1="427.595" y1="330.151" x2="514.405" y2="379.79" vector-effect="non-scaling-stroke" stroke-width="3" stroke="rgb(91,66,63)" stroke-linejoin="miter" stroke-linecap="square" stroke-miterlimit="3"/><line x1="427.595" y1="325.007" x2="514.405" y2="374.645" vector-effect="non-scaling-stroke" stroke-width="3" stroke="rgb(91,66,63)" stroke-linejoin="miter" stroke-linecap="square" stroke-miterlimit="3"/><line x1="427.595" y1="319.862" x2="514.405" y2="369.501" vector-effect="non-scaling-stroke" stroke-width="3" stroke="rgb(91,66,63)" stroke-linejoin="miter" stroke-linecap="square" stroke-miterlimit="3"/><line x1="427.595" y1="314.718" x2="514.405" y2="364.356" vector-effect="non-scaling-stroke" stroke-width="3" stroke="rgb(91,66,63)" stroke-linejoin="miter" stroke-linecap="square" stroke-miterlimit="3"/><line x1="427.595" y1="309.573" x2="514.405" y2="359.212" vector-effect="non-scaling-stroke" stroke-width="3" stroke="rgb(91,66,63)" stroke-linejoin="miter" stroke-linecap="square" stroke-miterlimit="3"/><line x1="427.595" y1="263.273" x2="514.405" y2="312.912" vector-effect="non-scaling-stroke" stroke-width="3" stroke="rgb(91,66,63)" stroke-linejoin="miter" stroke-linecap="square" stroke-miterlimit="3"/><line x1="427.595" y1="247.84" x2="514.405" y2="297.479" vector-effect="non-scaling-stroke" stroke-width="3" stroke="rgb(91,66,63)" stroke-linejoin="miter" stroke-linecap="square" stroke-miterlimit="3"/><line x1="427.595" y1="294.14" x2="514.405" y2="343.779" vector-effect="non-scaling-stroke" stroke-width="3" stroke="rgb(91,66,63)" stroke-linejoin="miter" stroke-linecap="square" stroke-miterlimit="3"/><path d=" M 427.595 232.406 L 497.039 272.115 L 514.405 282.045" fill="none" vector-effect="non-scaling-stroke" stroke-width="3" stroke="rgb(91,66,63)" stroke-linejoin="miter" stroke-linecap="square" stroke-miterlimit="3"/><line x1="427.595" y1="222.117" x2="514.405" y2="271.756" vector-effect="non-scaling-stroke" stroke-width="3" stroke="rgb(91,66,63)" stroke-linejoin="miter" stroke-linecap="square" stroke-miterlimit="3"/><line x1="427.595" y1="206.684" x2="514.405" y2="256.323" vector-effect="non-scaling-stroke" stroke-width="3" stroke="rgb(91,66,63)" stroke-linejoin="miter" stroke-linecap="square" stroke-miterlimit="3"/><line x1="427.595" y1="216.973" x2="514.405" y2="266.612" vector-effect="non-scaling-stroke" stroke-width="3" stroke="rgb(91,66,63)" stroke-linejoin="miter" stroke-linecap="square" stroke-miterlimit="3"/><line x1="427.595" y1="242.695" x2="514.405" y2="292.334" vector-effect="non-scaling-stroke" stroke-width="3" stroke="rgb(91,66,63)" stroke-linejoin="miter" stroke-linecap="square" stroke-miterlimit="3"/><line x1="427.595" y1="268.418" x2="514.405" y2="318.056" vector-effect="non-scaling-stroke" stroke-width="3" stroke="rgb(91,66,63)" stroke-linejoin="miter" stroke-linecap="square" stroke-miterlimit="3"/><line x1="427.595" y1="335.296" x2="514.405" y2="384.934" vector-effect="non-scaling-stroke" stroke-width="3" stroke="rgb(91,66,63)" stroke-linejoin="miter" stroke-linecap="square" stroke-miterlimit="3"/><line x1="427.595" y1="299.284" x2="514.405" y2="348.923" vector-effect="non-scaling-stroke" stroke-width="3" stroke="rgb(91,66,63)" stroke-linejoin="miter" stroke-linecap="square" stroke-miterlimit="3"/><line x1="427.595" y1="252.984" x2="514.405" y2="302.623" vector-effect="non-scaling-stroke" stroke-width="3" stroke="rgb(91,66,63)" stroke-linejoin="miter" stroke-linecap="square" stroke-miterlimit="3"/><line x1="427.595" y1="304.429" x2="514.405" y2="354.068" vector-effect="non-scaling-stroke" stroke-width="3" stroke="rgb(91,66,63)" stroke-linejoin="miter" stroke-linecap="square" stroke-miterlimit="3"/><line x1="427.595" y1="288.995" x2="514.405" y2="338.634" vector-effect="non-scaling-stroke" stroke-width="3" stroke="rgb(91,66,63)" stroke-linejoin="miter" stroke-linecap="square" stroke-miterlimit="3"/><line x1="427.595" y1="237.551" x2="514.405" y2="287.19" vector-effect="non-scaling-stroke" stroke-width="3" stroke="rgb(91,66,63)" stroke-linejoin="miter" stroke-linecap="square" stroke-miterlimit="3"/><line x1="427.595" y1="258.129" x2="514.405" y2="307.767" vector-effect="non-scaling-stroke" stroke-width="3" stroke="rgb(91,66,63)" stroke-linejoin="miter" stroke-linecap="square" stroke-miterlimit="3"/><line x1="427.595" y1="340.44" x2="514.405" y2="390.079" vector-effect="non-scaling-stroke" stroke-width="3" stroke="rgb(91,66,63)" stroke-linejoin="miter" stroke-linecap="square" stroke-miterlimit="3"/><line x1="427.595" y1="273.562" x2="514.405" y2="323.201" vector-effect="non-scaling-stroke" stroke-width="3" stroke="rgb(91,66,63)" stroke-linejoin="miter" stroke-linecap="square" stroke-miterlimit="3"/><line x1="427.595" y1="278.706" x2="514.405" y2="328.345" vector-effect="non-scaling-stroke" stroke-width="3" stroke="rgb(91,66,63)" stroke-linejoin="miter" stroke-linecap="square" stroke-miterlimit="3"/><line x1="427.595" y1="227.262" x2="514.405" y2="276.901" vector-effect="non-scaling-stroke" stroke-width="3" stroke="rgb(91,66,63)" stroke-linejoin="miter" stroke-linecap="square" stroke-miterlimit="3"/></g></g><path d=" M 460 378.598 L 500 262.94 L 540 378.598 L 460 378.598 Z " fill="rgb(185,185,185)"/><path d=" M 460 378.598 L 500 262.94 L 540 378.598 L 460 378.598 Z " fill="rgb(255,242,219)"/><clipPath id="_clipPath_wNcxIVs28lUiGwgfDWR7H6cbm5tHgbey"><path d=" M 460 378.598 L 500 262.94 L 540 378.598 L 460 378.598 Z " fill="rgb(255,242,219)"/></clipPath><g clip-path="url(#_clipPath_wNcxIVs28lUiGwgfDWR7H6cbm5tHgbey)"><g id="Group"><line x1="450" y1="285.182" x2="550" y2="285.182" vector-effect="non-scaling-stroke" stroke-width="3" stroke="rgb(91,66,63)" stroke-linejoin="miter" stroke-linecap="square" stroke-miterlimit="3"/><line x1="450" y1="302.976" x2="550" y2="302.976" vector-effect="non-scaling-stroke" stroke-width="3" stroke="rgb(91,66,63)" stroke-linejoin="miter" stroke-linecap="square" stroke-miterlimit="3"/><line x1="450" y1="365.253" x2="550" y2="365.253" vector-effect="non-scaling-stroke" stroke-width="3" stroke="rgb(91,66,63)" stroke-linejoin="miter" stroke-linecap="square" stroke-miterlimit="3"/><path d=" M 450 307.424 L 503.333 307.424 L 550 307.424" fill="none" vector-effect="non-scaling-stroke" stroke-width="3" stroke="rgb(91,66,63)" stroke-linejoin="miter" stroke-linecap="square" stroke-miterlimit="3"/><line x1="450" y1="311.872" x2="550" y2="311.872" vector-effect="non-scaling-stroke" stroke-width="3" stroke="rgb(91,66,63)" stroke-linejoin="miter" stroke-linecap="square" stroke-miterlimit="3"/><line x1="450" y1="338.563" x2="550" y2="338.563" vector-effect="non-scaling-stroke" stroke-width="3" stroke="rgb(91,66,63)" stroke-linejoin="miter" stroke-linecap="square" stroke-miterlimit="3"/><line x1="450" y1="374.15" x2="550" y2="374.15" vector-effect="non-scaling-stroke" stroke-width="3" stroke="rgb(91,66,63)" stroke-linejoin="miter" stroke-linecap="square" stroke-miterlimit="3"/><line x1="450" y1="378.598" x2="550" y2="378.598" vector-effect="non-scaling-stroke" stroke-width="3" stroke="rgb(91,66,63)" stroke-linejoin="miter" stroke-linecap="square" stroke-miterlimit="3"/><line x1="450" y1="343.011" x2="550" y2="343.011" vector-effect="non-scaling-stroke" stroke-width="3" stroke="rgb(91,66,63)" stroke-linejoin="miter" stroke-linecap="square" stroke-miterlimit="3"/><line x1="450" y1="294.079" x2="550" y2="294.079" vector-effect="non-scaling-stroke" stroke-width="3" stroke="rgb(91,66,63)" stroke-linejoin="miter" stroke-linecap="square" stroke-miterlimit="3"/><line x1="450" y1="334.114" x2="550" y2="334.114" vector-effect="non-scaling-stroke" stroke-width="3" stroke="rgb(91,66,63)" stroke-linejoin="miter" stroke-linecap="square" stroke-miterlimit="3"/><line x1="450" y1="271.837" x2="550" y2="271.837" vector-effect="non-scaling-stroke" stroke-width="3" stroke="rgb(91,66,63)" stroke-linejoin="miter" stroke-linecap="square" stroke-miterlimit="3"/><line x1="450" y1="289.63" x2="550" y2="289.63" vector-effect="non-scaling-stroke" stroke-width="3" stroke="rgb(91,66,63)" stroke-linejoin="miter" stroke-linecap="square" stroke-miterlimit="3"/><line x1="450" y1="262.94" x2="550" y2="262.94" vector-effect="non-scaling-stroke" stroke-width="3" stroke="rgb(91,66,63)" stroke-linejoin="miter" stroke-linecap="square" stroke-miterlimit="3"/><line x1="450" y1="316.321" x2="550" y2="316.321" vector-effect="non-scaling-stroke" stroke-width="3" stroke="rgb(91,66,63)" stroke-linejoin="miter" stroke-linecap="square" stroke-miterlimit="3"/><line x1="450" y1="351.908" x2="550" y2="351.908" vector-effect="non-scaling-stroke" stroke-width="3" stroke="rgb(91,66,63)" stroke-linejoin="miter" stroke-linecap="square" stroke-miterlimit="3"/><line x1="450" y1="356.356" x2="550" y2="356.356" vector-effect="non-scaling-stroke" stroke-width="3" stroke="rgb(91,66,63)" stroke-linejoin="miter" stroke-linecap="square" stroke-miterlimit="3"/><line x1="450" y1="369.701" x2="550" y2="369.701" vector-effect="non-scaling-stroke" stroke-width="3" stroke="rgb(91,66,63)" stroke-linejoin="miter" stroke-linecap="square" stroke-miterlimit="3"/><line x1="450" y1="360.805" x2="550" y2="360.805" vector-effect="non-scaling-stroke" stroke-width="3" stroke="rgb(91,66,63)" stroke-linejoin="miter" stroke-linecap="square" stroke-miterlimit="3"/><line x1="450" y1="298.527" x2="550" y2="298.527" vector-effect="non-scaling-stroke" stroke-width="3" stroke="rgb(91,66,63)" stroke-linejoin="miter" stroke-linecap="square" stroke-miterlimit="3"/><line x1="450" y1="325.218" x2="550" y2="325.218" vector-effect="non-scaling-stroke" stroke-width="3" stroke="rgb(91,66,63)" stroke-linejoin="miter" stroke-linecap="square" stroke-miterlimit="3"/><line x1="450" y1="329.666" x2="550" y2="329.666" vector-effect="non-scaling-stroke" stroke-width="3" stroke="rgb(91,66,63)" stroke-linejoin="miter" stroke-linecap="square" stroke-miterlimit="3"/><line x1="450" y1="276.285" x2="550" y2="276.285" vector-effect="non-scaling-stroke" stroke-width="3" stroke="rgb(91,66,63)" stroke-linejoin="miter" stroke-linecap="square" stroke-miterlimit="3"/><line x1="450" y1="347.459" x2="550" y2="347.459" vector-effect="non-scaling-stroke" stroke-width="3" stroke="rgb(91,66,63)" stroke-linejoin="miter" stroke-linecap="square" stroke-miterlimit="3"/><line x1="450" y1="280.734" x2="550" y2="280.734" vector-effect="non-scaling-stroke" stroke-width="3" stroke="rgb(91,66,63)" stroke-linejoin="miter" stroke-linecap="square" stroke-miterlimit="3"/><line x1="450" y1="320.769" x2="550" y2="320.769" vector-effect="non-scaling-stroke" stroke-width="3" stroke="rgb(91,66,63)" stroke-linejoin="miter" stroke-linecap="square" stroke-miterlimit="3"/><line x1="450" y1="267.389" x2="550" y2="267.389" vector-effect="non-scaling-stroke" stroke-width="3" stroke="rgb(91,66,63)" stroke-linejoin="miter" stroke-linecap="square" stroke-miterlimit="3"/></g></g><g id="Group"><g id="Group"><path d=" M 520 228.393 L 560 349.637 L 557.5 351.08 L 517.5 229.837 L 520 228.393 Z " fill="rgb(91,66,63)"/><path d=" M 480 228.393 L 440 352.523 L 442.5 353.967 L 482.5 229.837 L 480 228.393 Z " fill="rgb(91,66,63)"/><path d=" M 465 364.07 L 500 263.034 L 535 364.07 L 535 372.731 L 500 271.694 L 465 372.731 L 465 364.07 Z " fill="rgb(91,66,63)"/><path d=" M 530 265.921 L 530 260.147 L 577.5 348.193 L 575 349.637 L 530 265.921 Z " fill="rgb(91,66,63)"/><path d=" M 470 265.921 L 470 260.147 L 422.5 348.193 L 425 349.637 L 470 265.921 Z " fill="rgb(91,66,63)"/><path d=" M 527.5 249.704 L 577.5 316.439 L 575 317.882 L 525 251.487 L 525 251.487 L 527.5 249.704 Z " fill="rgb(91,66,63)"/><path d=" M 472.5 249.704 L 422.5 316.439 L 425 317.882 L 475 251.487 L 475 251.487 L 472.5 249.704 Z " fill="rgb(91,66,63)"/></g><path d=" M 497.5 238.497 L 500 239.94 L 502.5 238.497 L 502.5 261.591 L 500 263.034 L 497.5 261.591 L 497.5 238.497 Z " fill="rgb(91,66,63)"/></g><rect x="560" y="349.637" width="20" height="5.774" transform="matrix(1,0,0,1,0,0)" fill="rgb(255,228,186)"/><rect x="420" y="349.637" width="20" height="5.868" transform="matrix(1,0,0,1,0,0)" fill="rgb(187,161,119)"/><path d=" M 465 375.617 L 460 372.731 L 460 361.184 L 465 364.07 L 465 375.617 Z " fill="rgb(187,161,119)"/><path d=" M 560 349.637 L 540 361.184 L 540 366.957 L 560 355.41 L 560 349.637 Z " fill="rgb(255,228,186)"/><path d=" M 440 349.637 L 460 361.184 L 460 366.957 L 440 355.41 L 440 349.637 Z " fill="rgb(187,161,119)"/><path d=" M 580 349.637 L 580 314.996 L 575 312.109 L 575 352.523 L 580 349.637 Z " fill="rgb(255,228,186)"/><path d=" M 420 349.637 L 420 314.996 L 425 312.109 L 425 352.523 L 420 349.637 Z " fill="rgb(187,161,119)"/><path d=" M 540 378.504 L 540 361.184 L 535 364.07 L 535 375.617 L 540 378.504 Z " fill="rgb(255,228,186)"/><path d=" M 525 335.203 L 550 320.769 L 550 326.543 L 530 338.09 L 530 349.637 L 525 346.75 L 525 335.203 Z " fill="rgb(255,228,186)"/><path d=" M 550 320.769 L 560 320.769 L 560 326.543 L 550 326.543" fill="rgb(255,228,186)"/><path d=" M 560 320.769 L 560 291.902 L 565 294.788 L 565 326.656 L 560 326.543" fill="rgb(255,228,186)"/><g id="Group"><path d=" M 475 335.203 L 450 320.769 L 450 326.543 L 470 338.09 L 470 349.637 L 475 346.75 L 475 335.203 Z " fill="rgb(187,161,119)"/><path d=" M 450 320.769 L 440 320.769 L 440 326.543 L 450 326.543" fill="rgb(187,161,119)"/><path d=" M 440 320.769 L 440 291.902 L 435 294.788 L 435 326.656 L 440 326.543" fill="rgb(187,161,119)"/></g><rect x="460" y="372.731" width="80" height="5.897" transform="matrix(1,0,0,1,0,0)" fill="rgb(253,217,159)"/><path d=" M 470 343.863 L 470 349.637 L 530 349.637 L 530 343.863 L 470 343.863 Z " fill="rgb(253,217,159)"/><path d=" M 500 263.034 L 527.5 246.817 L 525 242.827 L 500 257.261 L 500 263.034 Z " fill="rgb(255,228,186)"/><path d=" M 475 242.827 L 500 257.261 L 500 263.034 L 472.5 246.817 L 475 242.827 Z " fill="rgb(187,161,119)"/><path d=" M 500 239.6 L 500 245.374 L 522.5 232.384 L 520 228.053 L 500 239.6 Z " fill="rgb(255,228,186)"/><path d=" M 480 228.053 L 500 239.6 L 500 245.374 L 477.5 232.384 L 480 228.053 Z " fill="rgb(187,161,119)"/></g><g id="Group"><path d=" M 500 228.485 L 510 222.712 L 510 205.391 L 505 202.504 L 500 211.165 L 500 228.485 Z " fill="rgb(255,228,186)"/><path d=" M 500 228.485 L 490 222.712 L 490 205.391 L 495 202.504 L 500 211.165 L 500 228.485 Z " fill="rgb(187,161,119)"/><path d=" M 505 202.504 L 495 202.504 L 500 211.165 L 505 202.504 Z " fill="rgb(217,187,139)"/><path d=" M 505 190.957 L 505 202.504 L 495 202.504 L 495 190.957 L 500 182.297 L 505 190.957 Z " fill="rgb(255,223,172)"/><path d=" M 500 136.109 L 500 147.656 L 505 144.769 L 500 136.109 Z " fill="rgb(255,228,186)"/><path d=" M 500 136.109 L 495 144.769 L 500 147.656 L 500 136.109 Z " fill="rgb(253,217,159)"/><path d=" M 505 190.957 L 505 144.769 L 500 147.656 L 500 182.297 L 505 190.957 Z " fill="rgb(251,217,162)"/><path d=" M 495 190.957 L 500 182.297 L 500 147.656 L 495 144.769 L 495 190.957 Z " fill="rgb(187,161,119)"/></g></g></svg>