<?xml version="1.0" standalone="no"?><!-- Generator: Gravit.io --><svg xmlns="http://www.w3.org/2000/svg" xmlns:xlink="http://www.w3.org/1999/xlink" style="isolation:isolate" viewBox="1118.322 357.957 162.75 593.119" width="162.75" height="593.119"><g id="body-windows-vertical"><g id="body-windows-color-2"><path d=" M 1167.072 383.66 L 1167.072 388.448 L 1167.072 946.576" fill="none" vector-effect="non-scaling-stroke" stroke-width="3" stroke="rgb(59,43,41)" stroke-linejoin="miter" stroke-linecap="square" stroke-miterlimit="3"/><line x1="1196.183" y1="383.66" x2="1196.183" y2="946.576" vector-effect="non-scaling-stroke" stroke-width="3" stroke="rgb(59,43,41)" stroke-linejoin="miter" stroke-linecap="square" stroke-miterlimit="3"/><line x1="1181.628" y1="383.66" x2="1181.628" y2="946.576" vector-effect="non-scaling-stroke" stroke-width="3" stroke="rgb(59,43,41)" stroke-linejoin="miter" stroke-linecap="square" stroke-miterlimit="3"/><line x1="1210.739" y1="383.66" x2="1210.739" y2="946.576" vector-effect="non-scaling-stroke" stroke-width="3" stroke="rgb(59,43,41)" stroke-linejoin="miter" stroke-linecap="square" stroke-miterlimit="3"/><line x1="1174.35" y1="383.66" x2="1174.35" y2="946.576" vector-effect="non-scaling-stroke" stroke-width="3" stroke="rgb(59,43,41)" stroke-linejoin="miter" stroke-linecap="square" stroke-miterlimit="3"/><line x1="1203.461" y1="383.66" x2="1203.461" y2="946.576" vector-effect="non-scaling-stroke" stroke-width="3" stroke="rgb(59,43,41)" stroke-linejoin="miter" stroke-linecap="square" stroke-miterlimit="3"/><line x1="1188.905" y1="383.66" x2="1188.905" y2="946.576" vector-effect="non-scaling-stroke" stroke-width="3" stroke="rgb(59,43,41)" stroke-linejoin="miter" stroke-linecap="square" stroke-miterlimit="3"/><line x1="1218.016" y1="383.66" x2="1218.016" y2="946.576" vector-effect="non-scaling-stroke" stroke-width="3" stroke="rgb(59,43,41)" stroke-linejoin="miter" stroke-linecap="square" stroke-miterlimit="3"/><line x1="1225.294" y1="383.66" x2="1225.294" y2="946.576" vector-effect="non-scaling-stroke" stroke-width="3" stroke="rgb(59,43,41)" stroke-linejoin="miter" stroke-linecap="square" stroke-miterlimit="3"/><line x1="1232.572" y1="383.66" x2="1232.572" y2="946.576" vector-effect="non-scaling-stroke" stroke-width="3" stroke="rgb(59,43,41)" stroke-linejoin="miter" stroke-linecap="square" stroke-miterlimit="3"/></g><g id="body-windows-color-1"><path d=" M 1246.544 373.113 L 1246.544 381.448 L 1246.544 422.187" fill="none" vector-effect="non-scaling-stroke" stroke-width="3" stroke="rgb(91,66,63)" stroke-linejoin="miter" stroke-linecap="square" stroke-miterlimit="3"/><path d=" M 1253.822 373.113 L 1253.822 381.948 L 1253.822 422.187" fill="none" vector-effect="non-scaling-stroke" stroke-width="3" stroke="rgb(91,66,63)" stroke-linejoin="miter" stroke-linecap="square" stroke-miterlimit="3"/><path d=" M 1246.544 439.065 L 1246.544 447.4 L 1246.544 488.139" fill="none" vector-effect="non-scaling-stroke" stroke-width="3" stroke="rgb(91,66,63)" stroke-linejoin="miter" stroke-linecap="square" stroke-miterlimit="3"/><path d=" M 1253.822 439.065 L 1253.822 447.9 L 1253.822 488.139" fill="none" vector-effect="non-scaling-stroke" stroke-width="3" stroke="rgb(91,66,63)" stroke-linejoin="miter" stroke-linecap="square" stroke-miterlimit="3"/><path d=" M 1246.544 504.903 L 1246.544 509.806 L 1246.544 533.771" fill="none" vector-effect="non-scaling-stroke" stroke-width="3" stroke="rgb(91,66,63)" stroke-linejoin="miter" stroke-linecap="square" stroke-miterlimit="3"/><path d=" M 1253.822 504.903 L 1253.822 510.101 L 1253.822 533.771" fill="none" vector-effect="non-scaling-stroke" stroke-width="3" stroke="rgb(91,66,63)" stroke-linejoin="miter" stroke-linecap="square" stroke-miterlimit="3"/><path d=" M 1266.072 357.957 L 1273.572 357.957 L 1273.572 363.731 L 1266.072 363.731 L 1266.072 357.957 Z " fill="rgb(91,66,63)"/><path d=" M 1266.072 381.051 L 1273.572 381.051 L 1273.572 386.825 L 1266.072 386.825 L 1266.072 381.051 Z " fill="rgb(91,66,63)"/><path d=" M 1266.072 369.504 L 1273.572 369.504 L 1273.572 375.278 L 1266.072 375.278 L 1266.072 369.504 Z " fill="rgb(91,66,63)"/><path d=" M 1266.072 392.598 L 1273.572 392.598 L 1273.572 398.372 L 1266.072 398.372 L 1266.072 392.598 Z " fill="rgb(91,66,63)"/><path d=" M 1266.072 404.145 L 1273.572 404.145 L 1273.572 409.919 L 1266.072 409.919 L 1266.072 404.145 Z " fill="rgb(91,66,63)"/><path d=" M 1264.822 533.771 L 1269.822 533.771 L 1269.822 538.582 L 1264.822 538.582 L 1264.822 533.771 Z " fill="rgb(91,66,63)"/><path d=" M 1264.822 553.016 L 1269.822 553.016 L 1269.822 557.827 L 1264.822 557.827 L 1264.822 553.016 Z " fill="rgb(91,66,63)"/><path d=" M 1264.822 543.393 L 1269.822 543.393 L 1269.822 548.204 L 1264.822 548.204 L 1264.822 543.393 Z " fill="rgb(91,66,63)"/><path d=" M 1264.822 562.638 L 1269.822 562.638 L 1269.822 567.449 L 1264.822 567.449 L 1264.822 562.638 Z " fill="rgb(91,66,63)"/><path d=" M 1264.822 572.261 L 1269.822 572.261 L 1269.822 577.072 L 1264.822 577.072 L 1264.822 572.261 Z " fill="rgb(91,66,63)"/><path d=" M 1264.822 562.638 L 1269.822 562.638 L 1269.822 567.449 L 1264.822 567.449 L 1264.822 562.638 Z " fill="rgb(91,66,63)"/><path d=" M 1264.822 581.883 L 1269.822 581.883 L 1269.822 586.694 L 1264.822 586.694 L 1264.822 581.883 Z " fill="rgb(91,66,63)"/><path d=" M 1264.822 572.261 L 1269.822 572.261 L 1269.822 577.072 L 1264.822 577.072 L 1264.822 572.261 Z " fill="rgb(91,66,63)"/><path d=" M 1264.822 591.506 L 1269.822 591.506 L 1269.822 596.317 L 1264.822 596.317 L 1264.822 591.506 Z " fill="rgb(91,66,63)"/><path d=" M 1264.822 601.128 L 1269.822 601.128 L 1269.822 605.939 L 1264.822 605.939 L 1264.822 601.128 Z " fill="rgb(91,66,63)"/><path d=" M 1264.822 668.505 L 1269.822 668.505 L 1269.822 673.316 L 1264.822 673.316 L 1264.822 668.505 Z " fill="rgb(91,66,63)"/><path d=" M 1264.822 687.75 L 1269.822 687.75 L 1269.822 692.561 L 1264.822 692.561 L 1264.822 687.75 Z " fill="rgb(91,66,63)"/><path d=" M 1264.822 678.127 L 1269.822 678.127 L 1269.822 682.938 L 1264.822 682.938 L 1264.822 678.127 Z " fill="rgb(91,66,63)"/><path d=" M 1264.822 697.372 L 1269.822 697.372 L 1269.822 702.183 L 1264.822 702.183 L 1264.822 697.372 Z " fill="rgb(91,66,63)"/><path d=" M 1264.822 706.995 L 1269.822 706.995 L 1269.822 711.806 L 1264.822 711.806 L 1264.822 706.995 Z " fill="rgb(91,66,63)"/><path d=" M 1264.822 697.372 L 1269.822 697.372 L 1269.822 702.183 L 1264.822 702.183 L 1264.822 697.372 Z " fill="rgb(91,66,63)"/><path d=" M 1264.822 716.617 L 1269.822 716.617 L 1269.822 721.428 L 1264.822 721.428 L 1264.822 716.617 Z " fill="rgb(91,66,63)"/><path d=" M 1264.822 706.995 L 1269.822 706.995 L 1269.822 711.806 L 1264.822 711.806 L 1264.822 706.995 Z " fill="rgb(91,66,63)"/><path d=" M 1264.822 726.24 L 1269.822 726.24 L 1269.822 731.051 L 1264.822 731.051 L 1264.822 726.24 Z " fill="rgb(91,66,63)"/><path d=" M 1264.822 735.862 L 1269.822 735.862 L 1269.822 740.673 L 1264.822 740.673 L 1264.822 735.862 Z " fill="rgb(91,66,63)"/><path d=" M 1264.822 601.166 L 1269.822 601.166 L 1269.822 605.977 L 1264.822 605.977 L 1264.822 601.166 Z " fill="rgb(91,66,63)"/><path d=" M 1264.822 620.411 L 1269.822 620.411 L 1269.822 625.222 L 1264.822 625.222 L 1264.822 620.411 Z " fill="rgb(91,66,63)"/><path d=" M 1264.822 610.788 L 1269.822 610.788 L 1269.822 615.6 L 1264.822 615.6 L 1264.822 610.788 Z " fill="rgb(91,66,63)"/><path d=" M 1264.822 630.033 L 1269.822 630.033 L 1269.822 634.845 L 1264.822 634.845 L 1264.822 630.033 Z " fill="rgb(91,66,63)"/><path d=" M 1264.822 639.656 L 1269.822 639.656 L 1269.822 644.467 L 1264.822 644.467 L 1264.822 639.656 Z " fill="rgb(91,66,63)"/><path d=" M 1264.822 630.033 L 1269.822 630.033 L 1269.822 634.845 L 1264.822 634.845 L 1264.822 630.033 Z " fill="rgb(91,66,63)"/><path d=" M 1264.822 649.278 L 1269.822 649.278 L 1269.822 654.09 L 1264.822 654.09 L 1264.822 649.278 Z " fill="rgb(91,66,63)"/><path d=" M 1264.822 639.656 L 1269.822 639.656 L 1269.822 644.467 L 1264.822 644.467 L 1264.822 639.656 Z " fill="rgb(91,66,63)"/><path d=" M 1264.822 658.901 L 1269.822 658.901 L 1269.822 663.712 L 1264.822 663.712 L 1264.822 658.901 Z " fill="rgb(91,66,63)"/><path d=" M 1264.822 668.523 L 1269.822 668.523 L 1269.822 673.335 L 1264.822 673.335 L 1264.822 668.523 Z " fill="rgb(91,66,63)"/><path d=" M 1264.822 735.9 L 1269.822 735.9 L 1269.822 740.711 L 1264.822 740.711 L 1264.822 735.9 Z " fill="rgb(91,66,63)"/><path d=" M 1264.822 755.145 L 1269.822 755.145 L 1269.822 759.956 L 1264.822 759.956 L 1264.822 755.145 Z " fill="rgb(91,66,63)"/><path d=" M 1264.822 745.522 L 1269.822 745.522 L 1269.822 750.334 L 1264.822 750.334 L 1264.822 745.522 Z " fill="rgb(91,66,63)"/><path d=" M 1264.822 764.767 L 1269.822 764.767 L 1269.822 769.579 L 1264.822 769.579 L 1264.822 764.767 Z " fill="rgb(91,66,63)"/><path d=" M 1264.822 774.39 L 1269.822 774.39 L 1269.822 779.201 L 1264.822 779.201 L 1264.822 774.39 Z " fill="rgb(91,66,63)"/><path d=" M 1264.822 764.767 L 1269.822 764.767 L 1269.822 769.579 L 1264.822 769.579 L 1264.822 764.767 Z " fill="rgb(91,66,63)"/><path d=" M 1264.822 784.012 L 1269.822 784.012 L 1269.822 788.824 L 1264.822 788.824 L 1264.822 784.012 Z " fill="rgb(91,66,63)"/><path d=" M 1264.822 774.39 L 1269.822 774.39 L 1269.822 779.201 L 1264.822 779.201 L 1264.822 774.39 Z " fill="rgb(91,66,63)"/><path d=" M 1264.822 793.635 L 1269.822 793.635 L 1269.822 798.446 L 1264.822 798.446 L 1264.822 793.635 Z " fill="rgb(91,66,63)"/><path d=" M 1264.822 803.257 L 1269.822 803.257 L 1269.822 808.069 L 1264.822 808.069 L 1264.822 803.257 Z " fill="rgb(91,66,63)"/><path d=" M 1264.822 803.239 L 1269.822 803.239 L 1269.822 808.05 L 1264.822 808.05 L 1264.822 803.239 Z " fill="rgb(91,66,63)"/><path d=" M 1264.822 822.484 L 1269.822 822.484 L 1269.822 827.295 L 1264.822 827.295 L 1264.822 822.484 Z " fill="rgb(91,66,63)"/><path d=" M 1264.822 812.861 L 1269.822 812.861 L 1269.822 817.672 L 1264.822 817.672 L 1264.822 812.861 Z " fill="rgb(91,66,63)"/><path d=" M 1264.822 832.106 L 1269.822 832.106 L 1269.822 836.917 L 1264.822 836.917 L 1264.822 832.106 Z " fill="rgb(91,66,63)"/><path d=" M 1264.822 841.729 L 1269.822 841.729 L 1269.822 846.54 L 1264.822 846.54 L 1264.822 841.729 Z " fill="rgb(91,66,63)"/><path d=" M 1264.822 832.106 L 1269.822 832.106 L 1269.822 836.917 L 1264.822 836.917 L 1264.822 832.106 Z " fill="rgb(91,66,63)"/><path d=" M 1264.822 851.351 L 1269.822 851.351 L 1269.822 856.162 L 1264.822 856.162 L 1264.822 851.351 Z " fill="rgb(91,66,63)"/><path d=" M 1264.822 841.729 L 1269.822 841.729 L 1269.822 846.54 L 1264.822 846.54 L 1264.822 841.729 Z " fill="rgb(91,66,63)"/><path d=" M 1264.822 860.974 L 1269.822 860.974 L 1269.822 865.785 L 1264.822 865.785 L 1264.822 860.974 Z " fill="rgb(91,66,63)"/><path d=" M 1264.822 870.596 L 1269.822 870.596 L 1269.822 875.407 L 1264.822 875.407 L 1264.822 870.596 Z " fill="rgb(91,66,63)"/><path d=" M 1264.822 870.596 L 1269.822 870.596 L 1269.822 875.407 L 1264.822 875.407 L 1264.822 870.596 Z " fill="rgb(91,66,63)"/><path d=" M 1264.822 889.841 L 1269.822 889.841 L 1269.822 894.652 L 1264.822 894.652 L 1264.822 889.841 Z " fill="rgb(91,66,63)"/><path d=" M 1264.822 880.219 L 1269.822 880.219 L 1269.822 885.03 L 1264.822 885.03 L 1264.822 880.219 Z " fill="rgb(91,66,63)"/><path d=" M 1264.822 899.464 L 1269.822 899.464 L 1269.822 904.275 L 1264.822 904.275 L 1264.822 899.464 Z " fill="rgb(91,66,63)"/><path d=" M 1264.822 899.464 L 1269.822 899.464 L 1269.822 904.275 L 1264.822 904.275 L 1264.822 899.464 Z " fill="rgb(91,66,63)"/><path d=" M 1266.072 427.961 L 1273.572 427.961 L 1273.572 433.734 L 1266.072 433.734 L 1266.072 427.961 Z " fill="rgb(91,66,63)"/><path d=" M 1266.072 451.055 L 1273.572 451.055 L 1273.572 456.828 L 1266.072 456.828 L 1266.072 451.055 Z " fill="rgb(91,66,63)"/><path d=" M 1266.072 439.508 L 1273.572 439.508 L 1273.572 445.281 L 1266.072 445.281 L 1266.072 439.508 Z " fill="rgb(91,66,63)"/><path d=" M 1266.072 462.602 L 1273.572 462.602 L 1273.572 468.375 L 1266.072 468.375 L 1266.072 462.602 Z " fill="rgb(91,66,63)"/><path d=" M 1266.072 485.696 L 1273.572 485.696 L 1273.572 491.469 L 1266.072 491.469 L 1266.072 485.696 Z " fill="rgb(91,66,63)"/><path d=" M 1266.072 474.149 L 1273.572 474.149 L 1273.572 479.922 L 1266.072 479.922 L 1266.072 474.149 Z " fill="rgb(91,66,63)"/><path d=" M 1266.072 497.243 L 1273.572 497.243 L 1273.572 503.016 L 1266.072 503.016 L 1266.072 497.243 Z " fill="rgb(91,66,63)"/><path d=" M 1266.072 508.79 L 1273.572 508.79 L 1273.572 514.563 L 1266.072 514.563 L 1266.072 508.79 Z " fill="rgb(91,66,63)"/><path d=" M 1256.072 549.926 L 1253.572 551.369 L 1253.572 912.448 L 1256.072 910.77 L 1256.072 549.926 Z " fill="rgb(91,66,63)"/><path d=" M 1281.072 529.719 L 1278.572 531.162 L 1278.572 897.78 L 1281.072 896.336 L 1281.072 529.719 Z " fill="rgb(91,66,63)"/></g><path d=" M 1156.072 549.926 L 1153.572 551.369 L 1153.572 912.448 L 1156.072 910.77 L 1156.072 549.926 Z " fill="rgb(91,66,63)"/><path d=" M 1243.572 549.926 L 1246.072 551.369 L 1246.072 912.448 L 1243.572 910.77 L 1243.572 549.926 Z " fill="rgb(59,43,41)"/><g id="body-windows-color-3"><path d=" M 1153.28 373.113 L 1153.28 381.448 L 1153.28 422.187" fill="none" vector-effect="non-scaling-stroke" stroke-width="3" stroke="rgb(28,20,19)" stroke-linejoin="miter" stroke-linecap="square" stroke-miterlimit="3"/><path d=" M 1146.003 373.113 L 1146.003 381.948 L 1146.003 422.187" fill="none" vector-effect="non-scaling-stroke" stroke-width="3" stroke="rgb(28,20,19)" stroke-linejoin="miter" stroke-linecap="square" stroke-miterlimit="3"/><path d=" M 1153.28 439.065 L 1153.28 447.4 L 1153.28 488.139" fill="none" vector-effect="non-scaling-stroke" stroke-width="3" stroke="rgb(28,20,19)" stroke-linejoin="miter" stroke-linecap="square" stroke-miterlimit="3"/><path d=" M 1146.003 439.065 L 1146.003 447.9 L 1146.003 488.139" fill="none" vector-effect="non-scaling-stroke" stroke-width="3" stroke="rgb(28,20,19)" stroke-linejoin="miter" stroke-linecap="square" stroke-miterlimit="3"/><path d=" M 1153.28 504.903 L 1153.28 509.806 L 1153.28 533.771" fill="none" vector-effect="non-scaling-stroke" stroke-width="3" stroke="rgb(28,20,19)" stroke-linejoin="miter" stroke-linecap="square" stroke-miterlimit="3"/><path d=" M 1146.003 504.903 L 1146.003 510.101 L 1146.003 533.771" fill="none" vector-effect="non-scaling-stroke" stroke-width="3" stroke="rgb(28,20,19)" stroke-linejoin="miter" stroke-linecap="square" stroke-miterlimit="3"/><path d=" M 1126.072 357.957 L 1133.572 357.957 L 1133.572 363.731 L 1126.072 363.731 L 1126.072 357.957 Z " fill="rgb(28,20,19)"/><path d=" M 1126.072 381.051 L 1133.572 381.051 L 1133.572 386.825 L 1126.072 386.825 L 1126.072 381.051 Z " fill="rgb(28,20,19)"/><path d=" M 1126.072 369.504 L 1133.572 369.504 L 1133.572 375.278 L 1126.072 375.278 L 1126.072 369.504 Z " fill="rgb(28,20,19)"/><path d=" M 1126.072 392.598 L 1133.572 392.598 L 1133.572 398.372 L 1126.072 398.372 L 1126.072 392.598 Z " fill="rgb(28,20,19)"/><path d=" M 1126.072 404.145 L 1133.572 404.145 L 1133.572 409.919 L 1126.072 409.919 L 1126.072 404.145 Z " fill="rgb(28,20,19)"/><path d=" M 1126.072 427.961 L 1133.572 427.961 L 1133.572 433.734 L 1126.072 433.734 L 1126.072 427.961 Z " fill="rgb(28,20,19)"/><path d=" M 1126.072 451.055 L 1133.572 451.055 L 1133.572 456.828 L 1126.072 456.828 L 1126.072 451.055 Z " fill="rgb(28,20,19)"/><path d=" M 1126.072 439.508 L 1133.572 439.508 L 1133.572 445.281 L 1126.072 445.281 L 1126.072 439.508 Z " fill="rgb(28,20,19)"/><path d=" M 1126.072 462.602 L 1133.572 462.602 L 1133.572 468.375 L 1126.072 468.375 L 1126.072 462.602 Z " fill="rgb(28,20,19)"/><path d=" M 1126.072 474.149 L 1133.572 474.149 L 1133.572 479.922 L 1126.072 479.922 L 1126.072 474.149 Z " fill="rgb(28,20,19)"/><path d=" M 1126.072 462.602 L 1133.572 462.602 L 1133.572 468.375 L 1126.072 468.375 L 1126.072 462.602 Z " fill="rgb(28,20,19)"/><path d=" M 1126.072 485.696 L 1133.572 485.696 L 1133.572 491.469 L 1126.072 491.469 L 1126.072 485.696 Z " fill="rgb(28,20,19)"/><path d=" M 1126.072 474.149 L 1133.572 474.149 L 1133.572 479.922 L 1126.072 479.922 L 1126.072 474.149 Z " fill="rgb(28,20,19)"/><path d=" M 1126.072 497.243 L 1133.572 497.243 L 1133.572 503.016 L 1126.072 503.016 L 1126.072 497.243 Z " fill="rgb(28,20,19)"/><path d=" M 1126.072 508.79 L 1133.572 508.79 L 1133.572 514.563 L 1126.072 514.563 L 1126.072 508.79 Z " fill="rgb(28,20,19)"/><path d=" M 1129.822 533.771 L 1134.822 533.771 L 1134.822 538.582 L 1129.822 538.582 L 1129.822 533.771 Z " fill="rgb(28,20,19)"/><path d=" M 1129.822 553.016 L 1134.822 553.016 L 1134.822 557.827 L 1129.822 557.827 L 1129.822 553.016 Z " fill="rgb(28,20,19)"/><path d=" M 1129.822 543.393 L 1134.822 543.393 L 1134.822 548.204 L 1129.822 548.204 L 1129.822 543.393 Z " fill="rgb(28,20,19)"/><path d=" M 1129.822 562.638 L 1134.822 562.638 L 1134.822 567.449 L 1129.822 567.449 L 1129.822 562.638 Z " fill="rgb(28,20,19)"/><path d=" M 1129.822 572.261 L 1134.822 572.261 L 1134.822 577.072 L 1129.822 577.072 L 1129.822 572.261 Z " fill="rgb(28,20,19)"/><path d=" M 1129.822 562.638 L 1134.822 562.638 L 1134.822 567.449 L 1129.822 567.449 L 1129.822 562.638 Z " fill="rgb(28,20,19)"/><path d=" M 1129.822 581.883 L 1134.822 581.883 L 1134.822 586.694 L 1129.822 586.694 L 1129.822 581.883 Z " fill="rgb(28,20,19)"/><path d=" M 1129.822 572.261 L 1134.822 572.261 L 1134.822 577.072 L 1129.822 577.072 L 1129.822 572.261 Z " fill="rgb(28,20,19)"/><path d=" M 1129.822 591.506 L 1134.822 591.506 L 1134.822 596.317 L 1129.822 596.317 L 1129.822 591.506 Z " fill="rgb(28,20,19)"/><path d=" M 1129.822 601.128 L 1134.822 601.128 L 1134.822 605.939 L 1129.822 605.939 L 1129.822 601.128 Z " fill="rgb(28,20,19)"/><path d=" M 1129.822 668.505 L 1134.822 668.505 L 1134.822 673.316 L 1129.822 673.316 L 1129.822 668.505 Z " fill="rgb(28,20,19)"/><path d=" M 1129.822 687.75 L 1134.822 687.75 L 1134.822 692.561 L 1129.822 692.561 L 1129.822 687.75 Z " fill="rgb(28,20,19)"/><path d=" M 1129.822 678.127 L 1134.822 678.127 L 1134.822 682.938 L 1129.822 682.938 L 1129.822 678.127 Z " fill="rgb(28,20,19)"/><path d=" M 1129.822 697.372 L 1134.822 697.372 L 1134.822 702.183 L 1129.822 702.183 L 1129.822 697.372 Z " fill="rgb(28,20,19)"/><path d=" M 1129.822 706.995 L 1134.822 706.995 L 1134.822 711.806 L 1129.822 711.806 L 1129.822 706.995 Z " fill="rgb(28,20,19)"/><path d=" M 1129.822 697.372 L 1134.822 697.372 L 1134.822 702.183 L 1129.822 702.183 L 1129.822 697.372 Z " fill="rgb(28,20,19)"/><path d=" M 1129.822 716.617 L 1134.822 716.617 L 1134.822 721.428 L 1129.822 721.428 L 1129.822 716.617 Z " fill="rgb(28,20,19)"/><path d=" M 1129.822 706.995 L 1134.822 706.995 L 1134.822 711.806 L 1129.822 711.806 L 1129.822 706.995 Z " fill="rgb(28,20,19)"/><path d=" M 1129.822 726.24 L 1134.822 726.24 L 1134.822 731.051 L 1129.822 731.051 L 1129.822 726.24 Z " fill="rgb(28,20,19)"/><path d=" M 1129.822 735.862 L 1134.822 735.862 L 1134.822 740.673 L 1129.822 740.673 L 1129.822 735.862 Z " fill="rgb(28,20,19)"/><path d=" M 1129.822 601.166 L 1134.822 601.166 L 1134.822 605.977 L 1129.822 605.977 L 1129.822 601.166 Z " fill="rgb(28,20,19)"/><path d=" M 1129.822 620.411 L 1134.822 620.411 L 1134.822 625.222 L 1129.822 625.222 L 1129.822 620.411 Z " fill="rgb(28,20,19)"/><path d=" M 1129.822 610.788 L 1134.822 610.788 L 1134.822 615.6 L 1129.822 615.6 L 1129.822 610.788 Z " fill="rgb(28,20,19)"/><path d=" M 1129.822 630.033 L 1134.822 630.033 L 1134.822 634.845 L 1129.822 634.845 L 1129.822 630.033 Z " fill="rgb(28,20,19)"/><path d=" M 1129.822 639.656 L 1134.822 639.656 L 1134.822 644.467 L 1129.822 644.467 L 1129.822 639.656 Z " fill="rgb(28,20,19)"/><path d=" M 1129.822 630.033 L 1134.822 630.033 L 1134.822 634.845 L 1129.822 634.845 L 1129.822 630.033 Z " fill="rgb(28,20,19)"/><path d=" M 1129.822 649.278 L 1134.822 649.278 L 1134.822 654.09 L 1129.822 654.09 L 1129.822 649.278 Z " fill="rgb(28,20,19)"/><path d=" M 1129.822 639.656 L 1134.822 639.656 L 1134.822 644.467 L 1129.822 644.467 L 1129.822 639.656 Z " fill="rgb(28,20,19)"/><path d=" M 1129.822 658.901 L 1134.822 658.901 L 1134.822 663.712 L 1129.822 663.712 L 1129.822 658.901 Z " fill="rgb(28,20,19)"/><path d=" M 1129.822 668.523 L 1134.822 668.523 L 1134.822 673.335 L 1129.822 673.335 L 1129.822 668.523 Z " fill="rgb(28,20,19)"/><path d=" M 1129.822 735.9 L 1134.822 735.9 L 1134.822 740.711 L 1129.822 740.711 L 1129.822 735.9 Z " fill="rgb(28,20,19)"/><path d=" M 1129.822 755.145 L 1134.822 755.145 L 1134.822 759.956 L 1129.822 759.956 L 1129.822 755.145 Z " fill="rgb(28,20,19)"/><path d=" M 1129.822 745.522 L 1134.822 745.522 L 1134.822 750.334 L 1129.822 750.334 L 1129.822 745.522 Z " fill="rgb(28,20,19)"/><path d=" M 1129.822 764.767 L 1134.822 764.767 L 1134.822 769.579 L 1129.822 769.579 L 1129.822 764.767 Z " fill="rgb(28,20,19)"/><path d=" M 1129.822 774.39 L 1134.822 774.39 L 1134.822 779.201 L 1129.822 779.201 L 1129.822 774.39 Z " fill="rgb(28,20,19)"/><path d=" M 1129.822 764.767 L 1134.822 764.767 L 1134.822 769.579 L 1129.822 769.579 L 1129.822 764.767 Z " fill="rgb(28,20,19)"/><path d=" M 1129.822 784.012 L 1134.822 784.012 L 1134.822 788.824 L 1129.822 788.824 L 1129.822 784.012 Z " fill="rgb(28,20,19)"/><path d=" M 1129.822 774.39 L 1134.822 774.39 L 1134.822 779.201 L 1129.822 779.201 L 1129.822 774.39 Z " fill="rgb(28,20,19)"/><path d=" M 1129.822 793.635 L 1134.822 793.635 L 1134.822 798.446 L 1129.822 798.446 L 1129.822 793.635 Z " fill="rgb(28,20,19)"/><path d=" M 1129.822 803.257 L 1134.822 803.257 L 1134.822 808.069 L 1129.822 808.069 L 1129.822 803.257 Z " fill="rgb(28,20,19)"/><path d=" M 1129.822 803.239 L 1134.822 803.239 L 1134.822 808.05 L 1129.822 808.05 L 1129.822 803.239 Z " fill="rgb(28,20,19)"/><path d=" M 1129.822 822.484 L 1134.822 822.484 L 1134.822 827.295 L 1129.822 827.295 L 1129.822 822.484 Z " fill="rgb(28,20,19)"/><path d=" M 1129.822 812.861 L 1134.822 812.861 L 1134.822 817.672 L 1129.822 817.672 L 1129.822 812.861 Z " fill="rgb(28,20,19)"/><path d=" M 1129.822 832.106 L 1134.822 832.106 L 1134.822 836.917 L 1129.822 836.917 L 1129.822 832.106 Z " fill="rgb(28,20,19)"/><path d=" M 1129.822 841.729 L 1134.822 841.729 L 1134.822 846.54 L 1129.822 846.54 L 1129.822 841.729 Z " fill="rgb(28,20,19)"/><path d=" M 1129.822 832.106 L 1134.822 832.106 L 1134.822 836.917 L 1129.822 836.917 L 1129.822 832.106 Z " fill="rgb(28,20,19)"/><path d=" M 1129.822 851.351 L 1134.822 851.351 L 1134.822 856.162 L 1129.822 856.162 L 1129.822 851.351 Z " fill="rgb(28,20,19)"/><path d=" M 1129.822 841.729 L 1134.822 841.729 L 1134.822 846.54 L 1129.822 846.54 L 1129.822 841.729 Z " fill="rgb(28,20,19)"/><path d=" M 1129.822 860.974 L 1134.822 860.974 L 1134.822 865.785 L 1129.822 865.785 L 1129.822 860.974 Z " fill="rgb(28,20,19)"/><path d=" M 1129.822 870.596 L 1134.822 870.596 L 1134.822 875.407 L 1129.822 875.407 L 1129.822 870.596 Z " fill="rgb(28,20,19)"/><path d=" M 1129.822 870.596 L 1134.822 870.596 L 1134.822 875.407 L 1129.822 875.407 L 1129.822 870.596 Z " fill="rgb(28,20,19)"/><path d=" M 1129.822 889.841 L 1134.822 889.841 L 1134.822 894.652 L 1129.822 894.652 L 1129.822 889.841 Z " fill="rgb(28,20,19)"/><path d=" M 1129.822 880.219 L 1134.822 880.219 L 1134.822 885.03 L 1129.822 885.03 L 1129.822 880.219 Z " fill="rgb(28,20,19)"/><path d=" M 1129.822 899.464 L 1134.822 899.464 L 1134.822 904.275 L 1129.822 904.275 L 1129.822 899.464 Z " fill="rgb(28,20,19)"/><path d=" M 1129.822 899.464 L 1134.822 899.464 L 1134.822 904.275 L 1129.822 904.275 L 1129.822 899.464 Z " fill="rgb(28,20,19)"/><path d=" M 1118.322 529.719 L 1120.822 531.162 L 1120.822 897.78 L 1118.322 896.336 L 1118.322 529.719 Z " fill="rgb(28,20,19)"/><path d=" M 1143.572 549.926 L 1146.072 551.369 L 1146.072 912.448 L 1143.572 910.77 L 1143.572 549.926 Z " fill="rgb(28,20,19)"/></g></g></svg>