<?xml version="1.0" standalone="no"?><!-- Generator: Gravit.io --><svg xmlns="http://www.w3.org/2000/svg" xmlns:xlink="http://www.w3.org/1999/xlink" style="isolation:isolate" viewBox="1389.413 357.957 162.75 590.119" width="162.75" height="590.119"><g id="body-windows-horizontal"><g id="body-windows-color-1"><path d=" M 1517.635 373.113 L 1517.635 381.448 L 1517.635 422.187" fill="none" vector-effect="non-scaling-stroke" stroke-width="3" stroke="rgb(91,66,63)" stroke-linejoin="miter" stroke-linecap="square" stroke-miterlimit="3"/><path d=" M 1524.913 373.113 L 1524.913 381.948 L 1524.913 422.187" fill="none" vector-effect="non-scaling-stroke" stroke-width="3" stroke="rgb(91,66,63)" stroke-linejoin="miter" stroke-linecap="square" stroke-miterlimit="3"/><path d=" M 1517.635 439.065 L 1517.635 447.4 L 1517.635 488.139" fill="none" vector-effect="non-scaling-stroke" stroke-width="3" stroke="rgb(91,66,63)" stroke-linejoin="miter" stroke-linecap="square" stroke-miterlimit="3"/><path d=" M 1524.913 439.065 L 1524.913 447.9 L 1524.913 488.139" fill="none" vector-effect="non-scaling-stroke" stroke-width="3" stroke="rgb(91,66,63)" stroke-linejoin="miter" stroke-linecap="square" stroke-miterlimit="3"/><path d=" M 1517.635 504.903 L 1517.635 509.806 L 1517.635 533.771" fill="none" vector-effect="non-scaling-stroke" stroke-width="3" stroke="rgb(91,66,63)" stroke-linejoin="miter" stroke-linecap="square" stroke-miterlimit="3"/><path d=" M 1524.913 504.903 L 1524.913 510.101 L 1524.913 533.771" fill="none" vector-effect="non-scaling-stroke" stroke-width="3" stroke="rgb(91,66,63)" stroke-linejoin="miter" stroke-linecap="square" stroke-miterlimit="3"/><path d=" M 1537.163 357.957 L 1544.663 357.957 L 1544.663 363.731 L 1537.163 363.731 L 1537.163 357.957 Z " fill="rgb(91,66,63)"/><path d=" M 1537.163 381.051 L 1544.663 381.051 L 1544.663 386.825 L 1537.163 386.825 L 1537.163 381.051 Z " fill="rgb(91,66,63)"/><path d=" M 1537.163 369.504 L 1544.663 369.504 L 1544.663 375.278 L 1537.163 375.278 L 1537.163 369.504 Z " fill="rgb(91,66,63)"/><path d=" M 1537.163 392.598 L 1544.663 392.598 L 1544.663 398.372 L 1537.163 398.372 L 1537.163 392.598 Z " fill="rgb(91,66,63)"/><path d=" M 1537.163 404.145 L 1544.663 404.145 L 1544.663 409.919 L 1537.163 409.919 L 1537.163 404.145 Z " fill="rgb(91,66,63)"/><path d=" M 1535.913 533.771 L 1540.913 533.771 L 1540.913 538.582 L 1535.913 538.582 L 1535.913 533.771 Z " fill="rgb(91,66,63)"/><path d=" M 1535.913 553.016 L 1540.913 553.016 L 1540.913 557.827 L 1535.913 557.827 L 1535.913 553.016 Z " fill="rgb(91,66,63)"/><path d=" M 1535.913 543.393 L 1540.913 543.393 L 1540.913 548.204 L 1535.913 548.204 L 1535.913 543.393 Z " fill="rgb(91,66,63)"/><path d=" M 1535.913 562.638 L 1540.913 562.638 L 1540.913 567.449 L 1535.913 567.449 L 1535.913 562.638 Z " fill="rgb(91,66,63)"/><path d=" M 1535.913 572.261 L 1540.913 572.261 L 1540.913 577.072 L 1535.913 577.072 L 1535.913 572.261 Z " fill="rgb(91,66,63)"/><path d=" M 1535.913 562.638 L 1540.913 562.638 L 1540.913 567.449 L 1535.913 567.449 L 1535.913 562.638 Z " fill="rgb(91,66,63)"/><path d=" M 1535.913 581.883 L 1540.913 581.883 L 1540.913 586.694 L 1535.913 586.694 L 1535.913 581.883 Z " fill="rgb(91,66,63)"/><path d=" M 1535.913 572.261 L 1540.913 572.261 L 1540.913 577.072 L 1535.913 577.072 L 1535.913 572.261 Z " fill="rgb(91,66,63)"/><path d=" M 1535.913 591.506 L 1540.913 591.506 L 1540.913 596.317 L 1535.913 596.317 L 1535.913 591.506 Z " fill="rgb(91,66,63)"/><path d=" M 1535.913 601.128 L 1540.913 601.128 L 1540.913 605.939 L 1535.913 605.939 L 1535.913 601.128 Z " fill="rgb(91,66,63)"/><path d=" M 1535.913 668.505 L 1540.913 668.505 L 1540.913 673.316 L 1535.913 673.316 L 1535.913 668.505 Z " fill="rgb(91,66,63)"/><path d=" M 1535.913 687.75 L 1540.913 687.75 L 1540.913 692.561 L 1535.913 692.561 L 1535.913 687.75 Z " fill="rgb(91,66,63)"/><path d=" M 1535.913 678.127 L 1540.913 678.127 L 1540.913 682.938 L 1535.913 682.938 L 1535.913 678.127 Z " fill="rgb(91,66,63)"/><path d=" M 1535.913 697.372 L 1540.913 697.372 L 1540.913 702.183 L 1535.913 702.183 L 1535.913 697.372 Z " fill="rgb(91,66,63)"/><path d=" M 1535.913 706.995 L 1540.913 706.995 L 1540.913 711.806 L 1535.913 711.806 L 1535.913 706.995 Z " fill="rgb(91,66,63)"/><path d=" M 1535.913 697.372 L 1540.913 697.372 L 1540.913 702.183 L 1535.913 702.183 L 1535.913 697.372 Z " fill="rgb(91,66,63)"/><path d=" M 1535.913 716.617 L 1540.913 716.617 L 1540.913 721.428 L 1535.913 721.428 L 1535.913 716.617 Z " fill="rgb(91,66,63)"/><path d=" M 1535.913 706.995 L 1540.913 706.995 L 1540.913 711.806 L 1535.913 711.806 L 1535.913 706.995 Z " fill="rgb(91,66,63)"/><path d=" M 1535.913 726.24 L 1540.913 726.24 L 1540.913 731.051 L 1535.913 731.051 L 1535.913 726.24 Z " fill="rgb(91,66,63)"/><path d=" M 1535.913 735.862 L 1540.913 735.862 L 1540.913 740.673 L 1535.913 740.673 L 1535.913 735.862 Z " fill="rgb(91,66,63)"/><path d=" M 1535.913 601.166 L 1540.913 601.166 L 1540.913 605.977 L 1535.913 605.977 L 1535.913 601.166 Z " fill="rgb(91,66,63)"/><path d=" M 1535.913 620.411 L 1540.913 620.411 L 1540.913 625.222 L 1535.913 625.222 L 1535.913 620.411 Z " fill="rgb(91,66,63)"/><path d=" M 1535.913 610.788 L 1540.913 610.788 L 1540.913 615.6 L 1535.913 615.6 L 1535.913 610.788 Z " fill="rgb(91,66,63)"/><path d=" M 1535.913 630.033 L 1540.913 630.033 L 1540.913 634.845 L 1535.913 634.845 L 1535.913 630.033 Z " fill="rgb(91,66,63)"/><path d=" M 1535.913 639.656 L 1540.913 639.656 L 1540.913 644.467 L 1535.913 644.467 L 1535.913 639.656 Z " fill="rgb(91,66,63)"/><path d=" M 1535.913 630.033 L 1540.913 630.033 L 1540.913 634.845 L 1535.913 634.845 L 1535.913 630.033 Z " fill="rgb(91,66,63)"/><path d=" M 1535.913 649.278 L 1540.913 649.278 L 1540.913 654.09 L 1535.913 654.09 L 1535.913 649.278 Z " fill="rgb(91,66,63)"/><path d=" M 1535.913 639.656 L 1540.913 639.656 L 1540.913 644.467 L 1535.913 644.467 L 1535.913 639.656 Z " fill="rgb(91,66,63)"/><path d=" M 1535.913 658.901 L 1540.913 658.901 L 1540.913 663.712 L 1535.913 663.712 L 1535.913 658.901 Z " fill="rgb(91,66,63)"/><path d=" M 1535.913 668.523 L 1540.913 668.523 L 1540.913 673.335 L 1535.913 673.335 L 1535.913 668.523 Z " fill="rgb(91,66,63)"/><path d=" M 1535.913 735.9 L 1540.913 735.9 L 1540.913 740.711 L 1535.913 740.711 L 1535.913 735.9 Z " fill="rgb(91,66,63)"/><path d=" M 1535.913 755.145 L 1540.913 755.145 L 1540.913 759.956 L 1535.913 759.956 L 1535.913 755.145 Z " fill="rgb(91,66,63)"/><path d=" M 1535.913 745.522 L 1540.913 745.522 L 1540.913 750.334 L 1535.913 750.334 L 1535.913 745.522 Z " fill="rgb(91,66,63)"/><path d=" M 1535.913 764.767 L 1540.913 764.767 L 1540.913 769.579 L 1535.913 769.579 L 1535.913 764.767 Z " fill="rgb(91,66,63)"/><path d=" M 1535.913 774.39 L 1540.913 774.39 L 1540.913 779.201 L 1535.913 779.201 L 1535.913 774.39 Z " fill="rgb(91,66,63)"/><path d=" M 1535.913 764.767 L 1540.913 764.767 L 1540.913 769.579 L 1535.913 769.579 L 1535.913 764.767 Z " fill="rgb(91,66,63)"/><path d=" M 1535.913 784.012 L 1540.913 784.012 L 1540.913 788.824 L 1535.913 788.824 L 1535.913 784.012 Z " fill="rgb(91,66,63)"/><path d=" M 1535.913 774.39 L 1540.913 774.39 L 1540.913 779.201 L 1535.913 779.201 L 1535.913 774.39 Z " fill="rgb(91,66,63)"/><path d=" M 1535.913 793.635 L 1540.913 793.635 L 1540.913 798.446 L 1535.913 798.446 L 1535.913 793.635 Z " fill="rgb(91,66,63)"/><path d=" M 1535.913 803.257 L 1540.913 803.257 L 1540.913 808.069 L 1535.913 808.069 L 1535.913 803.257 Z " fill="rgb(91,66,63)"/><path d=" M 1535.913 803.239 L 1540.913 803.239 L 1540.913 808.05 L 1535.913 808.05 L 1535.913 803.239 Z " fill="rgb(91,66,63)"/><path d=" M 1535.913 822.484 L 1540.913 822.484 L 1540.913 827.295 L 1535.913 827.295 L 1535.913 822.484 Z " fill="rgb(91,66,63)"/><path d=" M 1535.913 812.861 L 1540.913 812.861 L 1540.913 817.672 L 1535.913 817.672 L 1535.913 812.861 Z " fill="rgb(91,66,63)"/><path d=" M 1535.913 832.106 L 1540.913 832.106 L 1540.913 836.917 L 1535.913 836.917 L 1535.913 832.106 Z " fill="rgb(91,66,63)"/><path d=" M 1535.913 841.729 L 1540.913 841.729 L 1540.913 846.54 L 1535.913 846.54 L 1535.913 841.729 Z " fill="rgb(91,66,63)"/><path d=" M 1535.913 832.106 L 1540.913 832.106 L 1540.913 836.917 L 1535.913 836.917 L 1535.913 832.106 Z " fill="rgb(91,66,63)"/><path d=" M 1535.913 851.351 L 1540.913 851.351 L 1540.913 856.162 L 1535.913 856.162 L 1535.913 851.351 Z " fill="rgb(91,66,63)"/><path d=" M 1535.913 841.729 L 1540.913 841.729 L 1540.913 846.54 L 1535.913 846.54 L 1535.913 841.729 Z " fill="rgb(91,66,63)"/><path d=" M 1535.913 860.974 L 1540.913 860.974 L 1540.913 865.785 L 1535.913 865.785 L 1535.913 860.974 Z " fill="rgb(91,66,63)"/><path d=" M 1535.913 870.596 L 1540.913 870.596 L 1540.913 875.407 L 1535.913 875.407 L 1535.913 870.596 Z " fill="rgb(91,66,63)"/><path d=" M 1535.913 870.596 L 1540.913 870.596 L 1540.913 875.407 L 1535.913 875.407 L 1535.913 870.596 Z " fill="rgb(91,66,63)"/><path d=" M 1535.913 889.841 L 1540.913 889.841 L 1540.913 894.652 L 1535.913 894.652 L 1535.913 889.841 Z " fill="rgb(91,66,63)"/><path d=" M 1535.913 880.219 L 1540.913 880.219 L 1540.913 885.03 L 1535.913 885.03 L 1535.913 880.219 Z " fill="rgb(91,66,63)"/><path d=" M 1535.913 899.464 L 1540.913 899.464 L 1540.913 904.275 L 1535.913 904.275 L 1535.913 899.464 Z " fill="rgb(91,66,63)"/><path d=" M 1535.913 899.464 L 1540.913 899.464 L 1540.913 904.275 L 1535.913 904.275 L 1535.913 899.464 Z " fill="rgb(91,66,63)"/><path d=" M 1537.163 427.961 L 1544.663 427.961 L 1544.663 433.734 L 1537.163 433.734 L 1537.163 427.961 Z " fill="rgb(91,66,63)"/><path d=" M 1537.163 451.055 L 1544.663 451.055 L 1544.663 456.828 L 1537.163 456.828 L 1537.163 451.055 Z " fill="rgb(91,66,63)"/><path d=" M 1537.163 439.508 L 1544.663 439.508 L 1544.663 445.281 L 1537.163 445.281 L 1537.163 439.508 Z " fill="rgb(91,66,63)"/><path d=" M 1537.163 462.602 L 1544.663 462.602 L 1544.663 468.375 L 1537.163 468.375 L 1537.163 462.602 Z " fill="rgb(91,66,63)"/><path d=" M 1537.163 485.696 L 1544.663 485.696 L 1544.663 491.469 L 1537.163 491.469 L 1537.163 485.696 Z " fill="rgb(91,66,63)"/><path d=" M 1537.163 474.149 L 1544.663 474.149 L 1544.663 479.922 L 1537.163 479.922 L 1537.163 474.149 Z " fill="rgb(91,66,63)"/><path d=" M 1537.163 497.243 L 1544.663 497.243 L 1544.663 503.016 L 1537.163 503.016 L 1537.163 497.243 Z " fill="rgb(91,66,63)"/><path d=" M 1537.163 508.79 L 1544.663 508.79 L 1544.663 514.563 L 1537.163 514.563 L 1537.163 508.79 Z " fill="rgb(91,66,63)"/><path d=" M 1527.163 549.926 L 1524.663 551.369 L 1524.663 912.448 L 1527.163 910.77 L 1527.163 549.926 Z " fill="rgb(91,66,63)"/><path d=" M 1552.163 529.719 L 1549.663 531.162 L 1549.663 897.78 L 1552.163 896.336 L 1552.163 529.719 Z " fill="rgb(91,66,63)"/></g><path d=" M 1427.163 549.926 L 1424.663 551.369 L 1424.663 912.448 L 1427.163 910.77 L 1427.163 549.926 Z " fill="rgb(91,66,63)"/><path d=" M 1514.663 549.926 L 1517.163 551.369 L 1517.163 912.448 L 1514.663 910.77 L 1514.663 549.926 Z " fill="rgb(59,43,41)"/><g id="body-windows-color-3"><path d=" M 1424.371 373.113 L 1424.371 381.448 L 1424.371 422.187" fill="none" vector-effect="non-scaling-stroke" stroke-width="3" stroke="rgb(28,20,19)" stroke-linejoin="miter" stroke-linecap="square" stroke-miterlimit="3"/><path d=" M 1417.093 373.113 L 1417.093 381.948 L 1417.093 422.187" fill="none" vector-effect="non-scaling-stroke" stroke-width="3" stroke="rgb(28,20,19)" stroke-linejoin="miter" stroke-linecap="square" stroke-miterlimit="3"/><path d=" M 1424.371 439.065 L 1424.371 447.4 L 1424.371 488.139" fill="none" vector-effect="non-scaling-stroke" stroke-width="3" stroke="rgb(28,20,19)" stroke-linejoin="miter" stroke-linecap="square" stroke-miterlimit="3"/><path d=" M 1417.093 439.065 L 1417.093 447.9 L 1417.093 488.139" fill="none" vector-effect="non-scaling-stroke" stroke-width="3" stroke="rgb(28,20,19)" stroke-linejoin="miter" stroke-linecap="square" stroke-miterlimit="3"/><path d=" M 1424.371 504.903 L 1424.371 509.806 L 1424.371 533.771" fill="none" vector-effect="non-scaling-stroke" stroke-width="3" stroke="rgb(28,20,19)" stroke-linejoin="miter" stroke-linecap="square" stroke-miterlimit="3"/><path d=" M 1417.093 504.903 L 1417.093 510.101 L 1417.093 533.771" fill="none" vector-effect="non-scaling-stroke" stroke-width="3" stroke="rgb(28,20,19)" stroke-linejoin="miter" stroke-linecap="square" stroke-miterlimit="3"/><path d=" M 1397.163 357.957 L 1404.663 357.957 L 1404.663 363.731 L 1397.163 363.731 L 1397.163 357.957 Z " fill="rgb(28,20,19)"/><path d=" M 1397.163 381.051 L 1404.663 381.051 L 1404.663 386.825 L 1397.163 386.825 L 1397.163 381.051 Z " fill="rgb(28,20,19)"/><path d=" M 1397.163 369.504 L 1404.663 369.504 L 1404.663 375.278 L 1397.163 375.278 L 1397.163 369.504 Z " fill="rgb(28,20,19)"/><path d=" M 1397.163 392.598 L 1404.663 392.598 L 1404.663 398.372 L 1397.163 398.372 L 1397.163 392.598 Z " fill="rgb(28,20,19)"/><path d=" M 1397.163 404.145 L 1404.663 404.145 L 1404.663 409.919 L 1397.163 409.919 L 1397.163 404.145 Z " fill="rgb(28,20,19)"/><path d=" M 1397.163 427.961 L 1404.663 427.961 L 1404.663 433.734 L 1397.163 433.734 L 1397.163 427.961 Z " fill="rgb(28,20,19)"/><path d=" M 1397.163 451.055 L 1404.663 451.055 L 1404.663 456.828 L 1397.163 456.828 L 1397.163 451.055 Z " fill="rgb(28,20,19)"/><path d=" M 1397.163 439.508 L 1404.663 439.508 L 1404.663 445.281 L 1397.163 445.281 L 1397.163 439.508 Z " fill="rgb(28,20,19)"/><path d=" M 1397.163 462.602 L 1404.663 462.602 L 1404.663 468.375 L 1397.163 468.375 L 1397.163 462.602 Z " fill="rgb(28,20,19)"/><path d=" M 1397.163 474.149 L 1404.663 474.149 L 1404.663 479.922 L 1397.163 479.922 L 1397.163 474.149 Z " fill="rgb(28,20,19)"/><path d=" M 1397.163 462.602 L 1404.663 462.602 L 1404.663 468.375 L 1397.163 468.375 L 1397.163 462.602 Z " fill="rgb(28,20,19)"/><path d=" M 1397.163 485.696 L 1404.663 485.696 L 1404.663 491.469 L 1397.163 491.469 L 1397.163 485.696 Z " fill="rgb(28,20,19)"/><path d=" M 1397.163 474.149 L 1404.663 474.149 L 1404.663 479.922 L 1397.163 479.922 L 1397.163 474.149 Z " fill="rgb(28,20,19)"/><path d=" M 1397.163 497.243 L 1404.663 497.243 L 1404.663 503.016 L 1397.163 503.016 L 1397.163 497.243 Z " fill="rgb(28,20,19)"/><path d=" M 1397.163 508.79 L 1404.663 508.79 L 1404.663 514.563 L 1397.163 514.563 L 1397.163 508.79 Z " fill="rgb(28,20,19)"/><path d=" M 1400.913 533.771 L 1405.913 533.771 L 1405.913 538.582 L 1400.913 538.582 L 1400.913 533.771 Z " fill="rgb(28,20,19)"/><path d=" M 1400.913 553.016 L 1405.913 553.016 L 1405.913 557.827 L 1400.913 557.827 L 1400.913 553.016 Z " fill="rgb(28,20,19)"/><path d=" M 1400.913 543.393 L 1405.913 543.393 L 1405.913 548.204 L 1400.913 548.204 L 1400.913 543.393 Z " fill="rgb(28,20,19)"/><path d=" M 1400.913 562.638 L 1405.913 562.638 L 1405.913 567.449 L 1400.913 567.449 L 1400.913 562.638 Z " fill="rgb(28,20,19)"/><path d=" M 1400.913 572.261 L 1405.913 572.261 L 1405.913 577.072 L 1400.913 577.072 L 1400.913 572.261 Z " fill="rgb(28,20,19)"/><path d=" M 1400.913 562.638 L 1405.913 562.638 L 1405.913 567.449 L 1400.913 567.449 L 1400.913 562.638 Z " fill="rgb(28,20,19)"/><path d=" M 1400.913 581.883 L 1405.913 581.883 L 1405.913 586.694 L 1400.913 586.694 L 1400.913 581.883 Z " fill="rgb(28,20,19)"/><path d=" M 1400.913 572.261 L 1405.913 572.261 L 1405.913 577.072 L 1400.913 577.072 L 1400.913 572.261 Z " fill="rgb(28,20,19)"/><path d=" M 1400.913 591.506 L 1405.913 591.506 L 1405.913 596.317 L 1400.913 596.317 L 1400.913 591.506 Z " fill="rgb(28,20,19)"/><path d=" M 1400.913 601.128 L 1405.913 601.128 L 1405.913 605.939 L 1400.913 605.939 L 1400.913 601.128 Z " fill="rgb(28,20,19)"/><path d=" M 1400.913 668.505 L 1405.913 668.505 L 1405.913 673.316 L 1400.913 673.316 L 1400.913 668.505 Z " fill="rgb(28,20,19)"/><path d=" M 1400.913 687.75 L 1405.913 687.75 L 1405.913 692.561 L 1400.913 692.561 L 1400.913 687.75 Z " fill="rgb(28,20,19)"/><path d=" M 1400.913 678.127 L 1405.913 678.127 L 1405.913 682.938 L 1400.913 682.938 L 1400.913 678.127 Z " fill="rgb(28,20,19)"/><path d=" M 1400.913 697.372 L 1405.913 697.372 L 1405.913 702.183 L 1400.913 702.183 L 1400.913 697.372 Z " fill="rgb(28,20,19)"/><path d=" M 1400.913 706.995 L 1405.913 706.995 L 1405.913 711.806 L 1400.913 711.806 L 1400.913 706.995 Z " fill="rgb(28,20,19)"/><path d=" M 1400.913 697.372 L 1405.913 697.372 L 1405.913 702.183 L 1400.913 702.183 L 1400.913 697.372 Z " fill="rgb(28,20,19)"/><path d=" M 1400.913 716.617 L 1405.913 716.617 L 1405.913 721.428 L 1400.913 721.428 L 1400.913 716.617 Z " fill="rgb(28,20,19)"/><path d=" M 1400.913 706.995 L 1405.913 706.995 L 1405.913 711.806 L 1400.913 711.806 L 1400.913 706.995 Z " fill="rgb(28,20,19)"/><path d=" M 1400.913 726.24 L 1405.913 726.24 L 1405.913 731.051 L 1400.913 731.051 L 1400.913 726.24 Z " fill="rgb(28,20,19)"/><path d=" M 1400.913 735.862 L 1405.913 735.862 L 1405.913 740.673 L 1400.913 740.673 L 1400.913 735.862 Z " fill="rgb(28,20,19)"/><path d=" M 1400.913 601.166 L 1405.913 601.166 L 1405.913 605.977 L 1400.913 605.977 L 1400.913 601.166 Z " fill="rgb(28,20,19)"/><path d=" M 1400.913 620.411 L 1405.913 620.411 L 1405.913 625.222 L 1400.913 625.222 L 1400.913 620.411 Z " fill="rgb(28,20,19)"/><path d=" M 1400.913 610.788 L 1405.913 610.788 L 1405.913 615.6 L 1400.913 615.6 L 1400.913 610.788 Z " fill="rgb(28,20,19)"/><path d=" M 1400.913 630.033 L 1405.913 630.033 L 1405.913 634.845 L 1400.913 634.845 L 1400.913 630.033 Z " fill="rgb(28,20,19)"/><path d=" M 1400.913 639.656 L 1405.913 639.656 L 1405.913 644.467 L 1400.913 644.467 L 1400.913 639.656 Z " fill="rgb(28,20,19)"/><path d=" M 1400.913 630.033 L 1405.913 630.033 L 1405.913 634.845 L 1400.913 634.845 L 1400.913 630.033 Z " fill="rgb(28,20,19)"/><path d=" M 1400.913 649.278 L 1405.913 649.278 L 1405.913 654.09 L 1400.913 654.09 L 1400.913 649.278 Z " fill="rgb(28,20,19)"/><path d=" M 1400.913 639.656 L 1405.913 639.656 L 1405.913 644.467 L 1400.913 644.467 L 1400.913 639.656 Z " fill="rgb(28,20,19)"/><path d=" M 1400.913 658.901 L 1405.913 658.901 L 1405.913 663.712 L 1400.913 663.712 L 1400.913 658.901 Z " fill="rgb(28,20,19)"/><path d=" M 1400.913 668.523 L 1405.913 668.523 L 1405.913 673.335 L 1400.913 673.335 L 1400.913 668.523 Z " fill="rgb(28,20,19)"/><path d=" M 1400.913 735.9 L 1405.913 735.9 L 1405.913 740.711 L 1400.913 740.711 L 1400.913 735.9 Z " fill="rgb(28,20,19)"/><path d=" M 1400.913 755.145 L 1405.913 755.145 L 1405.913 759.956 L 1400.913 759.956 L 1400.913 755.145 Z " fill="rgb(28,20,19)"/><path d=" M 1400.913 745.522 L 1405.913 745.522 L 1405.913 750.334 L 1400.913 750.334 L 1400.913 745.522 Z " fill="rgb(28,20,19)"/><path d=" M 1400.913 764.767 L 1405.913 764.767 L 1405.913 769.579 L 1400.913 769.579 L 1400.913 764.767 Z " fill="rgb(28,20,19)"/><path d=" M 1400.913 774.39 L 1405.913 774.39 L 1405.913 779.201 L 1400.913 779.201 L 1400.913 774.39 Z " fill="rgb(28,20,19)"/><path d=" M 1400.913 764.767 L 1405.913 764.767 L 1405.913 769.579 L 1400.913 769.579 L 1400.913 764.767 Z " fill="rgb(28,20,19)"/><path d=" M 1400.913 784.012 L 1405.913 784.012 L 1405.913 788.824 L 1400.913 788.824 L 1400.913 784.012 Z " fill="rgb(28,20,19)"/><path d=" M 1400.913 774.39 L 1405.913 774.39 L 1405.913 779.201 L 1400.913 779.201 L 1400.913 774.39 Z " fill="rgb(28,20,19)"/><path d=" M 1400.913 793.635 L 1405.913 793.635 L 1405.913 798.446 L 1400.913 798.446 L 1400.913 793.635 Z " fill="rgb(28,20,19)"/><path d=" M 1400.913 803.257 L 1405.913 803.257 L 1405.913 808.069 L 1400.913 808.069 L 1400.913 803.257 Z " fill="rgb(28,20,19)"/><path d=" M 1400.913 803.239 L 1405.913 803.239 L 1405.913 808.05 L 1400.913 808.05 L 1400.913 803.239 Z " fill="rgb(28,20,19)"/><path d=" M 1400.913 822.484 L 1405.913 822.484 L 1405.913 827.295 L 1400.913 827.295 L 1400.913 822.484 Z " fill="rgb(28,20,19)"/><path d=" M 1400.913 812.861 L 1405.913 812.861 L 1405.913 817.672 L 1400.913 817.672 L 1400.913 812.861 Z " fill="rgb(28,20,19)"/><path d=" M 1400.913 832.106 L 1405.913 832.106 L 1405.913 836.917 L 1400.913 836.917 L 1400.913 832.106 Z " fill="rgb(28,20,19)"/><path d=" M 1400.913 841.729 L 1405.913 841.729 L 1405.913 846.54 L 1400.913 846.54 L 1400.913 841.729 Z " fill="rgb(28,20,19)"/><path d=" M 1400.913 832.106 L 1405.913 832.106 L 1405.913 836.917 L 1400.913 836.917 L 1400.913 832.106 Z " fill="rgb(28,20,19)"/><path d=" M 1400.913 851.351 L 1405.913 851.351 L 1405.913 856.162 L 1400.913 856.162 L 1400.913 851.351 Z " fill="rgb(28,20,19)"/><path d=" M 1400.913 841.729 L 1405.913 841.729 L 1405.913 846.54 L 1400.913 846.54 L 1400.913 841.729 Z " fill="rgb(28,20,19)"/><path d=" M 1400.913 860.974 L 1405.913 860.974 L 1405.913 865.785 L 1400.913 865.785 L 1400.913 860.974 Z " fill="rgb(28,20,19)"/><path d=" M 1400.913 870.596 L 1405.913 870.596 L 1405.913 875.407 L 1400.913 875.407 L 1400.913 870.596 Z " fill="rgb(28,20,19)"/><path d=" M 1400.913 870.596 L 1405.913 870.596 L 1405.913 875.407 L 1400.913 875.407 L 1400.913 870.596 Z " fill="rgb(28,20,19)"/><path d=" M 1400.913 889.841 L 1405.913 889.841 L 1405.913 894.652 L 1400.913 894.652 L 1400.913 889.841 Z " fill="rgb(28,20,19)"/><path d=" M 1400.913 880.219 L 1405.913 880.219 L 1405.913 885.03 L 1400.913 885.03 L 1400.913 880.219 Z " fill="rgb(28,20,19)"/><path d=" M 1400.913 899.464 L 1405.913 899.464 L 1405.913 904.275 L 1400.913 904.275 L 1400.913 899.464 Z " fill="rgb(28,20,19)"/><path d=" M 1400.913 899.464 L 1405.913 899.464 L 1405.913 904.275 L 1400.913 904.275 L 1400.913 899.464 Z " fill="rgb(28,20,19)"/><path d=" M 1389.413 529.719 L 1391.913 531.162 L 1391.913 897.78 L 1389.413 896.336 L 1389.413 529.719 Z " fill="rgb(28,20,19)"/><path d=" M 1414.663 549.926 L 1417.163 551.369 L 1417.163 912.448 L 1414.663 910.77 L 1414.663 549.926 Z " fill="rgb(28,20,19)"/></g><g id="body-windows-color-2"><line x1="1439.045" y1="391.066" x2="1504.045" y2="391.066" vector-effect="non-scaling-stroke" stroke-width="3" stroke="rgb(59,43,41)" stroke-linejoin="miter" stroke-linecap="square" stroke-miterlimit="3"/><line x1="1439.045" y1="665.118" x2="1504.045" y2="665.118" vector-effect="non-scaling-stroke" stroke-width="3" stroke="rgb(59,43,41)" stroke-linejoin="miter" stroke-linecap="square" stroke-miterlimit="3"/><line x1="1439.045" y1="405.88" x2="1504.045" y2="405.88" vector-effect="non-scaling-stroke" stroke-width="3" stroke="rgb(59,43,41)" stroke-linejoin="miter" stroke-linecap="square" stroke-miterlimit="3"/><line x1="1439.045" y1="672.525" x2="1504.045" y2="672.525" vector-effect="non-scaling-stroke" stroke-width="3" stroke="rgb(59,43,41)" stroke-linejoin="miter" stroke-linecap="square" stroke-miterlimit="3"/><line x1="1439.045" y1="413.287" x2="1504.045" y2="413.287" vector-effect="non-scaling-stroke" stroke-width="3" stroke="rgb(59,43,41)" stroke-linejoin="miter" stroke-linecap="square" stroke-miterlimit="3"/><line x1="1439.045" y1="420.694" x2="1504.045" y2="420.694" vector-effect="non-scaling-stroke" stroke-width="3" stroke="rgb(59,43,41)" stroke-linejoin="miter" stroke-linecap="square" stroke-miterlimit="3"/><line x1="1439.045" y1="428.1" x2="1504.045" y2="428.1" vector-effect="non-scaling-stroke" stroke-width="3" stroke="rgb(59,43,41)" stroke-linejoin="miter" stroke-linecap="square" stroke-miterlimit="3"/><line x1="1439.045" y1="435.507" x2="1504.045" y2="435.507" vector-effect="non-scaling-stroke" stroke-width="3" stroke="rgb(59,43,41)" stroke-linejoin="miter" stroke-linecap="square" stroke-miterlimit="3"/><line x1="1439.045" y1="894.729" x2="1504.045" y2="894.729" vector-effect="non-scaling-stroke" stroke-width="3" stroke="rgb(59,43,41)" stroke-linejoin="miter" stroke-linecap="square" stroke-miterlimit="3"/><line x1="1439.045" y1="450.321" x2="1504.045" y2="450.321" vector-effect="non-scaling-stroke" stroke-width="3" stroke="rgb(59,43,41)" stroke-linejoin="miter" stroke-linecap="square" stroke-miterlimit="3"/><line x1="1439.045" y1="879.915" x2="1504.045" y2="879.915" vector-effect="non-scaling-stroke" stroke-width="3" stroke="rgb(59,43,41)" stroke-linejoin="miter" stroke-linecap="square" stroke-miterlimit="3"/><line x1="1439.045" y1="872.508" x2="1504.045" y2="872.508" vector-effect="non-scaling-stroke" stroke-width="3" stroke="rgb(59,43,41)" stroke-linejoin="miter" stroke-linecap="square" stroke-miterlimit="3"/><line x1="1439.045" y1="472.541" x2="1504.045" y2="472.541" vector-effect="non-scaling-stroke" stroke-width="3" stroke="rgb(59,43,41)" stroke-linejoin="miter" stroke-linecap="square" stroke-miterlimit="3"/><line x1="1439.045" y1="865.101" x2="1504.045" y2="865.101" vector-effect="non-scaling-stroke" stroke-width="3" stroke="rgb(59,43,41)" stroke-linejoin="miter" stroke-linecap="square" stroke-miterlimit="3"/><line x1="1439.045" y1="487.355" x2="1504.045" y2="487.355" vector-effect="non-scaling-stroke" stroke-width="3" stroke="rgb(59,43,41)" stroke-linejoin="miter" stroke-linecap="square" stroke-miterlimit="3"/><line x1="1439.045" y1="857.695" x2="1504.045" y2="857.695" vector-effect="non-scaling-stroke" stroke-width="3" stroke="rgb(59,43,41)" stroke-linejoin="miter" stroke-linecap="square" stroke-miterlimit="3"/><line x1="1439.045" y1="850.288" x2="1504.045" y2="850.288" vector-effect="non-scaling-stroke" stroke-width="3" stroke="rgb(59,43,41)" stroke-linejoin="miter" stroke-linecap="square" stroke-miterlimit="3"/><line x1="1439.045" y1="509.575" x2="1504.045" y2="509.575" vector-effect="non-scaling-stroke" stroke-width="3" stroke="rgb(59,43,41)" stroke-linejoin="miter" stroke-linecap="square" stroke-miterlimit="3"/><line x1="1439.045" y1="516.982" x2="1504.045" y2="516.982" vector-effect="non-scaling-stroke" stroke-width="3" stroke="rgb(59,43,41)" stroke-linejoin="miter" stroke-linecap="square" stroke-miterlimit="3"/><line x1="1439.045" y1="524.389" x2="1504.045" y2="524.389" vector-effect="non-scaling-stroke" stroke-width="3" stroke="rgb(59,43,41)" stroke-linejoin="miter" stroke-linecap="square" stroke-miterlimit="3"/><line x1="1439.045" y1="531.796" x2="1504.045" y2="531.796" vector-effect="non-scaling-stroke" stroke-width="3" stroke="rgb(59,43,41)" stroke-linejoin="miter" stroke-linecap="square" stroke-miterlimit="3"/><line x1="1439.045" y1="539.202" x2="1504.045" y2="539.202" vector-effect="non-scaling-stroke" stroke-width="3" stroke="rgb(59,43,41)" stroke-linejoin="miter" stroke-linecap="square" stroke-miterlimit="3"/><line x1="1439.045" y1="546.609" x2="1504.045" y2="546.609" vector-effect="non-scaling-stroke" stroke-width="3" stroke="rgb(59,43,41)" stroke-linejoin="miter" stroke-linecap="square" stroke-miterlimit="3"/><line x1="1439.045" y1="554.016" x2="1504.045" y2="554.016" vector-effect="non-scaling-stroke" stroke-width="3" stroke="rgb(59,43,41)" stroke-linejoin="miter" stroke-linecap="square" stroke-miterlimit="3"/><line x1="1439.045" y1="561.423" x2="1504.045" y2="561.423" vector-effect="non-scaling-stroke" stroke-width="3" stroke="rgb(59,43,41)" stroke-linejoin="miter" stroke-linecap="square" stroke-miterlimit="3"/><line x1="1439.045" y1="568.83" x2="1504.045" y2="568.83" vector-effect="non-scaling-stroke" stroke-width="3" stroke="rgb(59,43,41)" stroke-linejoin="miter" stroke-linecap="square" stroke-miterlimit="3"/><line x1="1439.045" y1="576.236" x2="1504.045" y2="576.236" vector-effect="non-scaling-stroke" stroke-width="3" stroke="rgb(59,43,41)" stroke-linejoin="miter" stroke-linecap="square" stroke-miterlimit="3"/><line x1="1439.045" y1="583.643" x2="1504.045" y2="583.643" vector-effect="non-scaling-stroke" stroke-width="3" stroke="rgb(59,43,41)" stroke-linejoin="miter" stroke-linecap="square" stroke-miterlimit="3"/><line x1="1439.045" y1="591.05" x2="1504.045" y2="591.05" vector-effect="non-scaling-stroke" stroke-width="3" stroke="rgb(59,43,41)" stroke-linejoin="miter" stroke-linecap="square" stroke-miterlimit="3"/><line x1="1439.045" y1="842.881" x2="1504.045" y2="842.881" vector-effect="non-scaling-stroke" stroke-width="3" stroke="rgb(59,43,41)" stroke-linejoin="miter" stroke-linecap="square" stroke-miterlimit="3"/><line x1="1439.045" y1="605.863" x2="1504.045" y2="605.863" vector-effect="non-scaling-stroke" stroke-width="3" stroke="rgb(59,43,41)" stroke-linejoin="miter" stroke-linecap="square" stroke-miterlimit="3"/><line x1="1439.045" y1="716.965" x2="1504.045" y2="716.965" vector-effect="non-scaling-stroke" stroke-width="3" stroke="rgb(59,43,41)" stroke-linejoin="miter" stroke-linecap="square" stroke-miterlimit="3"/><line x1="1439.045" y1="828.067" x2="1504.045" y2="828.067" vector-effect="non-scaling-stroke" stroke-width="3" stroke="rgb(59,43,41)" stroke-linejoin="miter" stroke-linecap="square" stroke-miterlimit="3"/><line x1="1439.045" y1="820.661" x2="1504.045" y2="820.661" vector-effect="non-scaling-stroke" stroke-width="3" stroke="rgb(59,43,41)" stroke-linejoin="miter" stroke-linecap="square" stroke-miterlimit="3"/><line x1="1439.045" y1="813.254" x2="1504.045" y2="813.254" vector-effect="non-scaling-stroke" stroke-width="3" stroke="rgb(59,43,41)" stroke-linejoin="miter" stroke-linecap="square" stroke-miterlimit="3"/><line x1="1439.045" y1="805.847" x2="1504.045" y2="805.847" vector-effect="non-scaling-stroke" stroke-width="3" stroke="rgb(59,43,41)" stroke-linejoin="miter" stroke-linecap="square" stroke-miterlimit="3"/><line x1="1439.045" y1="798.44" x2="1504.045" y2="798.44" vector-effect="non-scaling-stroke" stroke-width="3" stroke="rgb(59,43,41)" stroke-linejoin="miter" stroke-linecap="square" stroke-miterlimit="3"/><line x1="1439.045" y1="724.372" x2="1504.045" y2="724.372" vector-effect="non-scaling-stroke" stroke-width="3" stroke="rgb(59,43,41)" stroke-linejoin="miter" stroke-linecap="square" stroke-miterlimit="3"/><line x1="1439.045" y1="383.66" x2="1504.045" y2="383.66" vector-effect="non-scaling-stroke" stroke-width="3" stroke="rgb(59,43,41)" stroke-linejoin="miter" stroke-linecap="square" stroke-miterlimit="3"/><line x1="1439.045" y1="398.473" x2="1504.045" y2="398.473" vector-effect="non-scaling-stroke" stroke-width="3" stroke="rgb(59,43,41)" stroke-linejoin="miter" stroke-linecap="square" stroke-miterlimit="3"/><line x1="1439.045" y1="679.931" x2="1504.045" y2="679.931" vector-effect="non-scaling-stroke" stroke-width="3" stroke="rgb(59,43,41)" stroke-linejoin="miter" stroke-linecap="square" stroke-miterlimit="3"/><line x1="1439.045" y1="687.338" x2="1504.045" y2="687.338" vector-effect="non-scaling-stroke" stroke-width="3" stroke="rgb(59,43,41)" stroke-linejoin="miter" stroke-linecap="square" stroke-miterlimit="3"/><line x1="1439.045" y1="694.745" x2="1504.045" y2="694.745" vector-effect="non-scaling-stroke" stroke-width="3" stroke="rgb(59,43,41)" stroke-linejoin="miter" stroke-linecap="square" stroke-miterlimit="3"/><line x1="1439.045" y1="702.152" x2="1504.045" y2="702.152" vector-effect="non-scaling-stroke" stroke-width="3" stroke="rgb(59,43,41)" stroke-linejoin="miter" stroke-linecap="square" stroke-miterlimit="3"/><line x1="1439.045" y1="709.559" x2="1504.045" y2="709.559" vector-effect="non-scaling-stroke" stroke-width="3" stroke="rgb(59,43,41)" stroke-linejoin="miter" stroke-linecap="square" stroke-miterlimit="3"/><line x1="1439.045" y1="657.711" x2="1504.045" y2="657.711" vector-effect="non-scaling-stroke" stroke-width="3" stroke="rgb(59,43,41)" stroke-linejoin="miter" stroke-linecap="square" stroke-miterlimit="3"/><line x1="1439.045" y1="835.474" x2="1504.045" y2="835.474" vector-effect="non-scaling-stroke" stroke-width="3" stroke="rgb(59,43,41)" stroke-linejoin="miter" stroke-linecap="square" stroke-miterlimit="3"/><line x1="1439.045" y1="731.779" x2="1504.045" y2="731.779" vector-effect="non-scaling-stroke" stroke-width="3" stroke="rgb(59,43,41)" stroke-linejoin="miter" stroke-linecap="square" stroke-miterlimit="3"/><line x1="1439.045" y1="739.186" x2="1504.045" y2="739.186" vector-effect="non-scaling-stroke" stroke-width="3" stroke="rgb(59,43,41)" stroke-linejoin="miter" stroke-linecap="square" stroke-miterlimit="3"/><line x1="1439.045" y1="746.593" x2="1504.045" y2="746.593" vector-effect="non-scaling-stroke" stroke-width="3" stroke="rgb(59,43,41)" stroke-linejoin="miter" stroke-linecap="square" stroke-miterlimit="3"/><line x1="1439.045" y1="753.999" x2="1504.045" y2="753.999" vector-effect="non-scaling-stroke" stroke-width="3" stroke="rgb(59,43,41)" stroke-linejoin="miter" stroke-linecap="square" stroke-miterlimit="3"/><line x1="1439.045" y1="761.406" x2="1504.045" y2="761.406" vector-effect="non-scaling-stroke" stroke-width="3" stroke="rgb(59,43,41)" stroke-linejoin="miter" stroke-linecap="square" stroke-miterlimit="3"/><line x1="1439.045" y1="768.813" x2="1504.045" y2="768.813" vector-effect="non-scaling-stroke" stroke-width="3" stroke="rgb(59,43,41)" stroke-linejoin="miter" stroke-linecap="square" stroke-miterlimit="3"/><line x1="1439.045" y1="776.22" x2="1504.045" y2="776.22" vector-effect="non-scaling-stroke" stroke-width="3" stroke="rgb(59,43,41)" stroke-linejoin="miter" stroke-linecap="square" stroke-miterlimit="3"/><line x1="1439.045" y1="783.627" x2="1504.045" y2="783.627" vector-effect="non-scaling-stroke" stroke-width="3" stroke="rgb(59,43,41)" stroke-linejoin="miter" stroke-linecap="square" stroke-miterlimit="3"/><line x1="1439.045" y1="791.033" x2="1504.045" y2="791.033" vector-effect="non-scaling-stroke" stroke-width="3" stroke="rgb(59,43,41)" stroke-linejoin="miter" stroke-linecap="square" stroke-miterlimit="3"/><line x1="1439.045" y1="650.304" x2="1504.045" y2="650.304" vector-effect="non-scaling-stroke" stroke-width="3" stroke="rgb(59,43,41)" stroke-linejoin="miter" stroke-linecap="square" stroke-miterlimit="3"/><line x1="1439.045" y1="642.897" x2="1504.045" y2="642.897" vector-effect="non-scaling-stroke" stroke-width="3" stroke="rgb(59,43,41)" stroke-linejoin="miter" stroke-linecap="square" stroke-miterlimit="3"/><line x1="1439.045" y1="635.491" x2="1504.045" y2="635.491" vector-effect="non-scaling-stroke" stroke-width="3" stroke="rgb(59,43,41)" stroke-linejoin="miter" stroke-linecap="square" stroke-miterlimit="3"/><line x1="1439.045" y1="628.084" x2="1504.045" y2="628.084" vector-effect="non-scaling-stroke" stroke-width="3" stroke="rgb(59,43,41)" stroke-linejoin="miter" stroke-linecap="square" stroke-miterlimit="3"/><line x1="1439.045" y1="620.677" x2="1504.045" y2="620.677" vector-effect="non-scaling-stroke" stroke-width="3" stroke="rgb(59,43,41)" stroke-linejoin="miter" stroke-linecap="square" stroke-miterlimit="3"/><line x1="1439.045" y1="613.27" x2="1504.045" y2="613.27" vector-effect="non-scaling-stroke" stroke-width="3" stroke="rgb(59,43,41)" stroke-linejoin="miter" stroke-linecap="square" stroke-miterlimit="3"/><line x1="1439.045" y1="598.457" x2="1504.045" y2="598.457" vector-effect="non-scaling-stroke" stroke-width="3" stroke="rgb(59,43,41)" stroke-linejoin="miter" stroke-linecap="square" stroke-miterlimit="3"/><line x1="1439.045" y1="502.168" x2="1504.045" y2="502.168" vector-effect="non-scaling-stroke" stroke-width="3" stroke="rgb(59,43,41)" stroke-linejoin="miter" stroke-linecap="square" stroke-miterlimit="3"/><line x1="1439.045" y1="494.762" x2="1504.045" y2="494.762" vector-effect="non-scaling-stroke" stroke-width="3" stroke="rgb(59,43,41)" stroke-linejoin="miter" stroke-linecap="square" stroke-miterlimit="3"/><line x1="1439.045" y1="479.948" x2="1504.045" y2="479.948" vector-effect="non-scaling-stroke" stroke-width="3" stroke="rgb(59,43,41)" stroke-linejoin="miter" stroke-linecap="square" stroke-miterlimit="3"/><line x1="1439.045" y1="465.134" x2="1504.045" y2="465.134" vector-effect="non-scaling-stroke" stroke-width="3" stroke="rgb(59,43,41)" stroke-linejoin="miter" stroke-linecap="square" stroke-miterlimit="3"/><line x1="1439.045" y1="457.728" x2="1504.045" y2="457.728" vector-effect="non-scaling-stroke" stroke-width="3" stroke="rgb(59,43,41)" stroke-linejoin="miter" stroke-linecap="square" stroke-miterlimit="3"/><line x1="1439.045" y1="887.322" x2="1504.045" y2="887.322" vector-effect="non-scaling-stroke" stroke-width="3" stroke="rgb(59,43,41)" stroke-linejoin="miter" stroke-linecap="square" stroke-miterlimit="3"/><line x1="1439.045" y1="442.914" x2="1504.045" y2="442.914" vector-effect="non-scaling-stroke" stroke-width="3" stroke="rgb(59,43,41)" stroke-linejoin="miter" stroke-linecap="square" stroke-miterlimit="3"/><line x1="1439.045" y1="902.135" x2="1504.045" y2="902.135" vector-effect="non-scaling-stroke" stroke-width="3" stroke="rgb(59,43,41)" stroke-linejoin="miter" stroke-linecap="square" stroke-miterlimit="3"/><line x1="1439.045" y1="909.542" x2="1504.045" y2="909.542" vector-effect="non-scaling-stroke" stroke-width="3" stroke="rgb(59,43,41)" stroke-linejoin="miter" stroke-linecap="square" stroke-miterlimit="3"/><line x1="1439.045" y1="916.949" x2="1504.045" y2="916.949" vector-effect="non-scaling-stroke" stroke-width="3" stroke="rgb(59,43,41)" stroke-linejoin="miter" stroke-linecap="square" stroke-miterlimit="3"/><line x1="1439.045" y1="924.356" x2="1504.045" y2="924.356" vector-effect="non-scaling-stroke" stroke-width="3" stroke="rgb(59,43,41)" stroke-linejoin="miter" stroke-linecap="square" stroke-miterlimit="3"/><line x1="1439.045" y1="931.763" x2="1504.045" y2="931.763" vector-effect="non-scaling-stroke" stroke-width="3" stroke="rgb(59,43,41)" stroke-linejoin="miter" stroke-linecap="square" stroke-miterlimit="3"/><line x1="1439.045" y1="939.169" x2="1504.045" y2="939.169" vector-effect="non-scaling-stroke" stroke-width="3" stroke="rgb(59,43,41)" stroke-linejoin="miter" stroke-linecap="square" stroke-miterlimit="3"/><line x1="1439.045" y1="946.576" x2="1504.045" y2="946.576" vector-effect="non-scaling-stroke" stroke-width="3" stroke="rgb(59,43,41)" stroke-linejoin="miter" stroke-linecap="square" stroke-miterlimit="3"/></g></g></svg>