<?xml version="1.0" standalone="no"?><!-- Generator: Gravit.io --><svg xmlns="http://www.w3.org/2000/svg" xmlns:xlink="http://www.w3.org/1999/xlink" style="isolation:isolate" viewBox="2210.625 357.957 162.75 595.284" width="162.75" height="595.284"><g id="body-windows-curtainwall"><g id="body-windows-color-1"><path d=" M 2338.847 373.113 L 2338.847 381.448 L 2338.847 422.187" fill="none" vector-effect="non-scaling-stroke" stroke-width="3" stroke="rgb(91,66,63)" stroke-linejoin="miter" stroke-linecap="square" stroke-miterlimit="3"/><path d=" M 2346.125 373.113 L 2346.125 381.948 L 2346.125 422.187" fill="none" vector-effect="non-scaling-stroke" stroke-width="3" stroke="rgb(91,66,63)" stroke-linejoin="miter" stroke-linecap="square" stroke-miterlimit="3"/><path d=" M 2338.847 439.065 L 2338.847 447.4 L 2338.847 488.139" fill="none" vector-effect="non-scaling-stroke" stroke-width="3" stroke="rgb(91,66,63)" stroke-linejoin="miter" stroke-linecap="square" stroke-miterlimit="3"/><path d=" M 2346.125 439.065 L 2346.125 447.9 L 2346.125 488.139" fill="none" vector-effect="non-scaling-stroke" stroke-width="3" stroke="rgb(91,66,63)" stroke-linejoin="miter" stroke-linecap="square" stroke-miterlimit="3"/><path d=" M 2338.847 504.903 L 2338.847 509.806 L 2338.847 533.771" fill="none" vector-effect="non-scaling-stroke" stroke-width="3" stroke="rgb(91,66,63)" stroke-linejoin="miter" stroke-linecap="square" stroke-miterlimit="3"/><path d=" M 2346.125 504.903 L 2346.125 510.101 L 2346.125 533.771" fill="none" vector-effect="non-scaling-stroke" stroke-width="3" stroke="rgb(91,66,63)" stroke-linejoin="miter" stroke-linecap="square" stroke-miterlimit="3"/><path d=" M 2358.375 357.957 L 2365.875 357.957 L 2365.875 363.731 L 2358.375 363.731 L 2358.375 357.957 Z " fill="rgb(91,66,63)"/><path d=" M 2358.375 381.051 L 2365.875 381.051 L 2365.875 386.825 L 2358.375 386.825 L 2358.375 381.051 Z " fill="rgb(91,66,63)"/><path d=" M 2358.375 369.504 L 2365.875 369.504 L 2365.875 375.278 L 2358.375 375.278 L 2358.375 369.504 Z " fill="rgb(91,66,63)"/><path d=" M 2358.375 392.598 L 2365.875 392.598 L 2365.875 398.372 L 2358.375 398.372 L 2358.375 392.598 Z " fill="rgb(91,66,63)"/><path d=" M 2358.375 404.145 L 2365.875 404.145 L 2365.875 409.919 L 2358.375 409.919 L 2358.375 404.145 Z " fill="rgb(91,66,63)"/><path d=" M 2357.125 533.771 L 2362.125 533.771 L 2362.125 538.582 L 2357.125 538.582 L 2357.125 533.771 Z " fill="rgb(91,66,63)"/><path d=" M 2357.125 553.016 L 2362.125 553.016 L 2362.125 557.827 L 2357.125 557.827 L 2357.125 553.016 Z " fill="rgb(91,66,63)"/><path d=" M 2357.125 543.393 L 2362.125 543.393 L 2362.125 548.204 L 2357.125 548.204 L 2357.125 543.393 Z " fill="rgb(91,66,63)"/><path d=" M 2357.125 562.638 L 2362.125 562.638 L 2362.125 567.449 L 2357.125 567.449 L 2357.125 562.638 Z " fill="rgb(91,66,63)"/><path d=" M 2357.125 572.261 L 2362.125 572.261 L 2362.125 577.072 L 2357.125 577.072 L 2357.125 572.261 Z " fill="rgb(91,66,63)"/><path d=" M 2357.125 562.638 L 2362.125 562.638 L 2362.125 567.449 L 2357.125 567.449 L 2357.125 562.638 Z " fill="rgb(91,66,63)"/><path d=" M 2357.125 581.883 L 2362.125 581.883 L 2362.125 586.694 L 2357.125 586.694 L 2357.125 581.883 Z " fill="rgb(91,66,63)"/><path d=" M 2357.125 572.261 L 2362.125 572.261 L 2362.125 577.072 L 2357.125 577.072 L 2357.125 572.261 Z " fill="rgb(91,66,63)"/><path d=" M 2357.125 591.506 L 2362.125 591.506 L 2362.125 596.317 L 2357.125 596.317 L 2357.125 591.506 Z " fill="rgb(91,66,63)"/><path d=" M 2357.125 601.128 L 2362.125 601.128 L 2362.125 605.939 L 2357.125 605.939 L 2357.125 601.128 Z " fill="rgb(91,66,63)"/><path d=" M 2357.125 668.505 L 2362.125 668.505 L 2362.125 673.316 L 2357.125 673.316 L 2357.125 668.505 Z " fill="rgb(91,66,63)"/><path d=" M 2357.125 687.75 L 2362.125 687.75 L 2362.125 692.561 L 2357.125 692.561 L 2357.125 687.75 Z " fill="rgb(91,66,63)"/><path d=" M 2357.125 678.127 L 2362.125 678.127 L 2362.125 682.938 L 2357.125 682.938 L 2357.125 678.127 Z " fill="rgb(91,66,63)"/><path d=" M 2357.125 697.372 L 2362.125 697.372 L 2362.125 702.183 L 2357.125 702.183 L 2357.125 697.372 Z " fill="rgb(91,66,63)"/><path d=" M 2357.125 706.995 L 2362.125 706.995 L 2362.125 711.806 L 2357.125 711.806 L 2357.125 706.995 Z " fill="rgb(91,66,63)"/><path d=" M 2357.125 697.372 L 2362.125 697.372 L 2362.125 702.183 L 2357.125 702.183 L 2357.125 697.372 Z " fill="rgb(91,66,63)"/><path d=" M 2357.125 716.617 L 2362.125 716.617 L 2362.125 721.428 L 2357.125 721.428 L 2357.125 716.617 Z " fill="rgb(91,66,63)"/><path d=" M 2357.125 706.995 L 2362.125 706.995 L 2362.125 711.806 L 2357.125 711.806 L 2357.125 706.995 Z " fill="rgb(91,66,63)"/><path d=" M 2357.125 726.24 L 2362.125 726.24 L 2362.125 731.051 L 2357.125 731.051 L 2357.125 726.24 Z " fill="rgb(91,66,63)"/><path d=" M 2357.125 735.862 L 2362.125 735.862 L 2362.125 740.673 L 2357.125 740.673 L 2357.125 735.862 Z " fill="rgb(91,66,63)"/><path d=" M 2357.125 601.166 L 2362.125 601.166 L 2362.125 605.977 L 2357.125 605.977 L 2357.125 601.166 Z " fill="rgb(91,66,63)"/><path d=" M 2357.125 620.411 L 2362.125 620.411 L 2362.125 625.222 L 2357.125 625.222 L 2357.125 620.411 Z " fill="rgb(91,66,63)"/><path d=" M 2357.125 610.788 L 2362.125 610.788 L 2362.125 615.6 L 2357.125 615.6 L 2357.125 610.788 Z " fill="rgb(91,66,63)"/><path d=" M 2357.125 630.033 L 2362.125 630.033 L 2362.125 634.845 L 2357.125 634.845 L 2357.125 630.033 Z " fill="rgb(91,66,63)"/><path d=" M 2357.125 639.656 L 2362.125 639.656 L 2362.125 644.467 L 2357.125 644.467 L 2357.125 639.656 Z " fill="rgb(91,66,63)"/><path d=" M 2357.125 630.033 L 2362.125 630.033 L 2362.125 634.845 L 2357.125 634.845 L 2357.125 630.033 Z " fill="rgb(91,66,63)"/><path d=" M 2357.125 649.278 L 2362.125 649.278 L 2362.125 654.09 L 2357.125 654.09 L 2357.125 649.278 Z " fill="rgb(91,66,63)"/><path d=" M 2357.125 639.656 L 2362.125 639.656 L 2362.125 644.467 L 2357.125 644.467 L 2357.125 639.656 Z " fill="rgb(91,66,63)"/><path d=" M 2357.125 658.901 L 2362.125 658.901 L 2362.125 663.712 L 2357.125 663.712 L 2357.125 658.901 Z " fill="rgb(91,66,63)"/><path d=" M 2357.125 668.523 L 2362.125 668.523 L 2362.125 673.335 L 2357.125 673.335 L 2357.125 668.523 Z " fill="rgb(91,66,63)"/><path d=" M 2357.125 735.9 L 2362.125 735.9 L 2362.125 740.711 L 2357.125 740.711 L 2357.125 735.9 Z " fill="rgb(91,66,63)"/><path d=" M 2357.125 755.145 L 2362.125 755.145 L 2362.125 759.956 L 2357.125 759.956 L 2357.125 755.145 Z " fill="rgb(91,66,63)"/><path d=" M 2357.125 745.522 L 2362.125 745.522 L 2362.125 750.334 L 2357.125 750.334 L 2357.125 745.522 Z " fill="rgb(91,66,63)"/><path d=" M 2357.125 764.767 L 2362.125 764.767 L 2362.125 769.579 L 2357.125 769.579 L 2357.125 764.767 Z " fill="rgb(91,66,63)"/><path d=" M 2357.125 774.39 L 2362.125 774.39 L 2362.125 779.201 L 2357.125 779.201 L 2357.125 774.39 Z " fill="rgb(91,66,63)"/><path d=" M 2357.125 764.767 L 2362.125 764.767 L 2362.125 769.579 L 2357.125 769.579 L 2357.125 764.767 Z " fill="rgb(91,66,63)"/><path d=" M 2357.125 784.012 L 2362.125 784.012 L 2362.125 788.824 L 2357.125 788.824 L 2357.125 784.012 Z " fill="rgb(91,66,63)"/><path d=" M 2357.125 774.39 L 2362.125 774.39 L 2362.125 779.201 L 2357.125 779.201 L 2357.125 774.39 Z " fill="rgb(91,66,63)"/><path d=" M 2357.125 793.635 L 2362.125 793.635 L 2362.125 798.446 L 2357.125 798.446 L 2357.125 793.635 Z " fill="rgb(91,66,63)"/><path d=" M 2357.125 803.257 L 2362.125 803.257 L 2362.125 808.069 L 2357.125 808.069 L 2357.125 803.257 Z " fill="rgb(91,66,63)"/><path d=" M 2357.125 803.239 L 2362.125 803.239 L 2362.125 808.05 L 2357.125 808.05 L 2357.125 803.239 Z " fill="rgb(91,66,63)"/><path d=" M 2357.125 822.484 L 2362.125 822.484 L 2362.125 827.295 L 2357.125 827.295 L 2357.125 822.484 Z " fill="rgb(91,66,63)"/><path d=" M 2357.125 812.861 L 2362.125 812.861 L 2362.125 817.672 L 2357.125 817.672 L 2357.125 812.861 Z " fill="rgb(91,66,63)"/><path d=" M 2357.125 832.106 L 2362.125 832.106 L 2362.125 836.917 L 2357.125 836.917 L 2357.125 832.106 Z " fill="rgb(91,66,63)"/><path d=" M 2357.125 841.729 L 2362.125 841.729 L 2362.125 846.54 L 2357.125 846.54 L 2357.125 841.729 Z " fill="rgb(91,66,63)"/><path d=" M 2357.125 832.106 L 2362.125 832.106 L 2362.125 836.917 L 2357.125 836.917 L 2357.125 832.106 Z " fill="rgb(91,66,63)"/><path d=" M 2357.125 851.351 L 2362.125 851.351 L 2362.125 856.162 L 2357.125 856.162 L 2357.125 851.351 Z " fill="rgb(91,66,63)"/><path d=" M 2357.125 841.729 L 2362.125 841.729 L 2362.125 846.54 L 2357.125 846.54 L 2357.125 841.729 Z " fill="rgb(91,66,63)"/><path d=" M 2357.125 860.974 L 2362.125 860.974 L 2362.125 865.785 L 2357.125 865.785 L 2357.125 860.974 Z " fill="rgb(91,66,63)"/><path d=" M 2357.125 870.596 L 2362.125 870.596 L 2362.125 875.407 L 2357.125 875.407 L 2357.125 870.596 Z " fill="rgb(91,66,63)"/><path d=" M 2357.125 870.596 L 2362.125 870.596 L 2362.125 875.407 L 2357.125 875.407 L 2357.125 870.596 Z " fill="rgb(91,66,63)"/><path d=" M 2357.125 889.841 L 2362.125 889.841 L 2362.125 894.652 L 2357.125 894.652 L 2357.125 889.841 Z " fill="rgb(91,66,63)"/><path d=" M 2357.125 880.219 L 2362.125 880.219 L 2362.125 885.03 L 2357.125 885.03 L 2357.125 880.219 Z " fill="rgb(91,66,63)"/><path d=" M 2357.125 899.464 L 2362.125 899.464 L 2362.125 904.275 L 2357.125 904.275 L 2357.125 899.464 Z " fill="rgb(91,66,63)"/><path d=" M 2357.125 899.464 L 2362.125 899.464 L 2362.125 904.275 L 2357.125 904.275 L 2357.125 899.464 Z " fill="rgb(91,66,63)"/><path d=" M 2358.375 427.961 L 2365.875 427.961 L 2365.875 433.734 L 2358.375 433.734 L 2358.375 427.961 Z " fill="rgb(91,66,63)"/><path d=" M 2358.375 451.055 L 2365.875 451.055 L 2365.875 456.828 L 2358.375 456.828 L 2358.375 451.055 Z " fill="rgb(91,66,63)"/><path d=" M 2358.375 439.508 L 2365.875 439.508 L 2365.875 445.281 L 2358.375 445.281 L 2358.375 439.508 Z " fill="rgb(91,66,63)"/><path d=" M 2358.375 462.602 L 2365.875 462.602 L 2365.875 468.375 L 2358.375 468.375 L 2358.375 462.602 Z " fill="rgb(91,66,63)"/><path d=" M 2358.375 485.696 L 2365.875 485.696 L 2365.875 491.469 L 2358.375 491.469 L 2358.375 485.696 Z " fill="rgb(91,66,63)"/><path d=" M 2358.375 474.149 L 2365.875 474.149 L 2365.875 479.922 L 2358.375 479.922 L 2358.375 474.149 Z " fill="rgb(91,66,63)"/><path d=" M 2358.375 497.243 L 2365.875 497.243 L 2365.875 503.016 L 2358.375 503.016 L 2358.375 497.243 Z " fill="rgb(91,66,63)"/><path d=" M 2358.375 508.79 L 2365.875 508.79 L 2365.875 514.563 L 2358.375 514.563 L 2358.375 508.79 Z " fill="rgb(91,66,63)"/><path d=" M 2348.375 549.926 L 2345.875 551.369 L 2345.875 912.448 L 2348.375 910.77 L 2348.375 549.926 Z " fill="rgb(91,66,63)"/><path d=" M 2373.375 529.719 L 2370.875 531.162 L 2370.875 897.78 L 2373.375 896.336 L 2373.375 529.719 Z " fill="rgb(91,66,63)"/></g><path d=" M 2248.375 549.926 L 2245.875 551.369 L 2245.875 912.448 L 2248.375 910.77 L 2248.375 549.926 Z " fill="rgb(91,66,63)"/><path d=" M 2335.875 549.926 L 2338.375 551.369 L 2338.375 912.448 L 2335.875 910.77 L 2335.875 549.926 Z " fill="rgb(59,43,41)"/><g id="body-windows-color-3"><path d=" M 2245.583 373.113 L 2245.583 381.448 L 2245.583 422.187" fill="none" vector-effect="non-scaling-stroke" stroke-width="3" stroke="rgb(28,20,19)" stroke-linejoin="miter" stroke-linecap="square" stroke-miterlimit="3"/><path d=" M 2238.306 373.113 L 2238.306 381.948 L 2238.306 422.187" fill="none" vector-effect="non-scaling-stroke" stroke-width="3" stroke="rgb(28,20,19)" stroke-linejoin="miter" stroke-linecap="square" stroke-miterlimit="3"/><path d=" M 2245.583 439.065 L 2245.583 447.4 L 2245.583 488.139" fill="none" vector-effect="non-scaling-stroke" stroke-width="3" stroke="rgb(28,20,19)" stroke-linejoin="miter" stroke-linecap="square" stroke-miterlimit="3"/><path d=" M 2238.306 439.065 L 2238.306 447.9 L 2238.306 488.139" fill="none" vector-effect="non-scaling-stroke" stroke-width="3" stroke="rgb(28,20,19)" stroke-linejoin="miter" stroke-linecap="square" stroke-miterlimit="3"/><path d=" M 2245.583 504.903 L 2245.583 509.806 L 2245.583 533.771" fill="none" vector-effect="non-scaling-stroke" stroke-width="3" stroke="rgb(28,20,19)" stroke-linejoin="miter" stroke-linecap="square" stroke-miterlimit="3"/><path d=" M 2238.306 504.903 L 2238.306 510.101 L 2238.306 533.771" fill="none" vector-effect="non-scaling-stroke" stroke-width="3" stroke="rgb(28,20,19)" stroke-linejoin="miter" stroke-linecap="square" stroke-miterlimit="3"/><path d=" M 2218.375 357.957 L 2225.875 357.957 L 2225.875 363.731 L 2218.375 363.731 L 2218.375 357.957 Z " fill="rgb(28,20,19)"/><path d=" M 2218.375 381.051 L 2225.875 381.051 L 2225.875 386.825 L 2218.375 386.825 L 2218.375 381.051 Z " fill="rgb(28,20,19)"/><path d=" M 2218.375 369.504 L 2225.875 369.504 L 2225.875 375.278 L 2218.375 375.278 L 2218.375 369.504 Z " fill="rgb(28,20,19)"/><path d=" M 2218.375 392.598 L 2225.875 392.598 L 2225.875 398.372 L 2218.375 398.372 L 2218.375 392.598 Z " fill="rgb(28,20,19)"/><path d=" M 2218.375 404.145 L 2225.875 404.145 L 2225.875 409.919 L 2218.375 409.919 L 2218.375 404.145 Z " fill="rgb(28,20,19)"/><path d=" M 2218.375 427.961 L 2225.875 427.961 L 2225.875 433.734 L 2218.375 433.734 L 2218.375 427.961 Z " fill="rgb(28,20,19)"/><path d=" M 2218.375 451.055 L 2225.875 451.055 L 2225.875 456.828 L 2218.375 456.828 L 2218.375 451.055 Z " fill="rgb(28,20,19)"/><path d=" M 2218.375 439.508 L 2225.875 439.508 L 2225.875 445.281 L 2218.375 445.281 L 2218.375 439.508 Z " fill="rgb(28,20,19)"/><path d=" M 2218.375 462.602 L 2225.875 462.602 L 2225.875 468.375 L 2218.375 468.375 L 2218.375 462.602 Z " fill="rgb(28,20,19)"/><path d=" M 2218.375 474.149 L 2225.875 474.149 L 2225.875 479.922 L 2218.375 479.922 L 2218.375 474.149 Z " fill="rgb(28,20,19)"/><path d=" M 2218.375 462.602 L 2225.875 462.602 L 2225.875 468.375 L 2218.375 468.375 L 2218.375 462.602 Z " fill="rgb(28,20,19)"/><path d=" M 2218.375 485.696 L 2225.875 485.696 L 2225.875 491.469 L 2218.375 491.469 L 2218.375 485.696 Z " fill="rgb(28,20,19)"/><path d=" M 2218.375 474.149 L 2225.875 474.149 L 2225.875 479.922 L 2218.375 479.922 L 2218.375 474.149 Z " fill="rgb(28,20,19)"/><path d=" M 2218.375 497.243 L 2225.875 497.243 L 2225.875 503.016 L 2218.375 503.016 L 2218.375 497.243 Z " fill="rgb(28,20,19)"/><path d=" M 2218.375 508.79 L 2225.875 508.79 L 2225.875 514.563 L 2218.375 514.563 L 2218.375 508.79 Z " fill="rgb(28,20,19)"/><path d=" M 2222.125 533.771 L 2227.125 533.771 L 2227.125 538.582 L 2222.125 538.582 L 2222.125 533.771 Z " fill="rgb(28,20,19)"/><path d=" M 2222.125 553.016 L 2227.125 553.016 L 2227.125 557.827 L 2222.125 557.827 L 2222.125 553.016 Z " fill="rgb(28,20,19)"/><path d=" M 2222.125 543.393 L 2227.125 543.393 L 2227.125 548.204 L 2222.125 548.204 L 2222.125 543.393 Z " fill="rgb(28,20,19)"/><path d=" M 2222.125 562.638 L 2227.125 562.638 L 2227.125 567.449 L 2222.125 567.449 L 2222.125 562.638 Z " fill="rgb(28,20,19)"/><path d=" M 2222.125 572.261 L 2227.125 572.261 L 2227.125 577.072 L 2222.125 577.072 L 2222.125 572.261 Z " fill="rgb(28,20,19)"/><path d=" M 2222.125 562.638 L 2227.125 562.638 L 2227.125 567.449 L 2222.125 567.449 L 2222.125 562.638 Z " fill="rgb(28,20,19)"/><path d=" M 2222.125 581.883 L 2227.125 581.883 L 2227.125 586.694 L 2222.125 586.694 L 2222.125 581.883 Z " fill="rgb(28,20,19)"/><path d=" M 2222.125 572.261 L 2227.125 572.261 L 2227.125 577.072 L 2222.125 577.072 L 2222.125 572.261 Z " fill="rgb(28,20,19)"/><path d=" M 2222.125 591.506 L 2227.125 591.506 L 2227.125 596.317 L 2222.125 596.317 L 2222.125 591.506 Z " fill="rgb(28,20,19)"/><path d=" M 2222.125 601.128 L 2227.125 601.128 L 2227.125 605.939 L 2222.125 605.939 L 2222.125 601.128 Z " fill="rgb(28,20,19)"/><path d=" M 2222.125 668.505 L 2227.125 668.505 L 2227.125 673.316 L 2222.125 673.316 L 2222.125 668.505 Z " fill="rgb(28,20,19)"/><path d=" M 2222.125 687.75 L 2227.125 687.75 L 2227.125 692.561 L 2222.125 692.561 L 2222.125 687.75 Z " fill="rgb(28,20,19)"/><path d=" M 2222.125 678.127 L 2227.125 678.127 L 2227.125 682.938 L 2222.125 682.938 L 2222.125 678.127 Z " fill="rgb(28,20,19)"/><path d=" M 2222.125 697.372 L 2227.125 697.372 L 2227.125 702.183 L 2222.125 702.183 L 2222.125 697.372 Z " fill="rgb(28,20,19)"/><path d=" M 2222.125 706.995 L 2227.125 706.995 L 2227.125 711.806 L 2222.125 711.806 L 2222.125 706.995 Z " fill="rgb(28,20,19)"/><path d=" M 2222.125 697.372 L 2227.125 697.372 L 2227.125 702.183 L 2222.125 702.183 L 2222.125 697.372 Z " fill="rgb(28,20,19)"/><path d=" M 2222.125 716.617 L 2227.125 716.617 L 2227.125 721.428 L 2222.125 721.428 L 2222.125 716.617 Z " fill="rgb(28,20,19)"/><path d=" M 2222.125 706.995 L 2227.125 706.995 L 2227.125 711.806 L 2222.125 711.806 L 2222.125 706.995 Z " fill="rgb(28,20,19)"/><path d=" M 2222.125 726.24 L 2227.125 726.24 L 2227.125 731.051 L 2222.125 731.051 L 2222.125 726.24 Z " fill="rgb(28,20,19)"/><path d=" M 2222.125 735.862 L 2227.125 735.862 L 2227.125 740.673 L 2222.125 740.673 L 2222.125 735.862 Z " fill="rgb(28,20,19)"/><path d=" M 2222.125 601.166 L 2227.125 601.166 L 2227.125 605.977 L 2222.125 605.977 L 2222.125 601.166 Z " fill="rgb(28,20,19)"/><path d=" M 2222.125 620.411 L 2227.125 620.411 L 2227.125 625.222 L 2222.125 625.222 L 2222.125 620.411 Z " fill="rgb(28,20,19)"/><path d=" M 2222.125 610.788 L 2227.125 610.788 L 2227.125 615.6 L 2222.125 615.6 L 2222.125 610.788 Z " fill="rgb(28,20,19)"/><path d=" M 2222.125 630.033 L 2227.125 630.033 L 2227.125 634.845 L 2222.125 634.845 L 2222.125 630.033 Z " fill="rgb(28,20,19)"/><path d=" M 2222.125 639.656 L 2227.125 639.656 L 2227.125 644.467 L 2222.125 644.467 L 2222.125 639.656 Z " fill="rgb(28,20,19)"/><path d=" M 2222.125 630.033 L 2227.125 630.033 L 2227.125 634.845 L 2222.125 634.845 L 2222.125 630.033 Z " fill="rgb(28,20,19)"/><path d=" M 2222.125 649.278 L 2227.125 649.278 L 2227.125 654.09 L 2222.125 654.09 L 2222.125 649.278 Z " fill="rgb(28,20,19)"/><path d=" M 2222.125 639.656 L 2227.125 639.656 L 2227.125 644.467 L 2222.125 644.467 L 2222.125 639.656 Z " fill="rgb(28,20,19)"/><path d=" M 2222.125 658.901 L 2227.125 658.901 L 2227.125 663.712 L 2222.125 663.712 L 2222.125 658.901 Z " fill="rgb(28,20,19)"/><path d=" M 2222.125 668.523 L 2227.125 668.523 L 2227.125 673.335 L 2222.125 673.335 L 2222.125 668.523 Z " fill="rgb(28,20,19)"/><path d=" M 2222.125 735.9 L 2227.125 735.9 L 2227.125 740.711 L 2222.125 740.711 L 2222.125 735.9 Z " fill="rgb(28,20,19)"/><path d=" M 2222.125 755.145 L 2227.125 755.145 L 2227.125 759.956 L 2222.125 759.956 L 2222.125 755.145 Z " fill="rgb(28,20,19)"/><path d=" M 2222.125 745.522 L 2227.125 745.522 L 2227.125 750.334 L 2222.125 750.334 L 2222.125 745.522 Z " fill="rgb(28,20,19)"/><path d=" M 2222.125 764.767 L 2227.125 764.767 L 2227.125 769.579 L 2222.125 769.579 L 2222.125 764.767 Z " fill="rgb(28,20,19)"/><path d=" M 2222.125 774.39 L 2227.125 774.39 L 2227.125 779.201 L 2222.125 779.201 L 2222.125 774.39 Z " fill="rgb(28,20,19)"/><path d=" M 2222.125 764.767 L 2227.125 764.767 L 2227.125 769.579 L 2222.125 769.579 L 2222.125 764.767 Z " fill="rgb(28,20,19)"/><path d=" M 2222.125 784.012 L 2227.125 784.012 L 2227.125 788.824 L 2222.125 788.824 L 2222.125 784.012 Z " fill="rgb(28,20,19)"/><path d=" M 2222.125 774.39 L 2227.125 774.39 L 2227.125 779.201 L 2222.125 779.201 L 2222.125 774.39 Z " fill="rgb(28,20,19)"/><path d=" M 2222.125 793.635 L 2227.125 793.635 L 2227.125 798.446 L 2222.125 798.446 L 2222.125 793.635 Z " fill="rgb(28,20,19)"/><path d=" M 2222.125 803.257 L 2227.125 803.257 L 2227.125 808.069 L 2222.125 808.069 L 2222.125 803.257 Z " fill="rgb(28,20,19)"/><path d=" M 2222.125 803.239 L 2227.125 803.239 L 2227.125 808.05 L 2222.125 808.05 L 2222.125 803.239 Z " fill="rgb(28,20,19)"/><path d=" M 2222.125 822.484 L 2227.125 822.484 L 2227.125 827.295 L 2222.125 827.295 L 2222.125 822.484 Z " fill="rgb(28,20,19)"/><path d=" M 2222.125 812.861 L 2227.125 812.861 L 2227.125 817.672 L 2222.125 817.672 L 2222.125 812.861 Z " fill="rgb(28,20,19)"/><path d=" M 2222.125 832.106 L 2227.125 832.106 L 2227.125 836.917 L 2222.125 836.917 L 2222.125 832.106 Z " fill="rgb(28,20,19)"/><path d=" M 2222.125 841.729 L 2227.125 841.729 L 2227.125 846.54 L 2222.125 846.54 L 2222.125 841.729 Z " fill="rgb(28,20,19)"/><path d=" M 2222.125 832.106 L 2227.125 832.106 L 2227.125 836.917 L 2222.125 836.917 L 2222.125 832.106 Z " fill="rgb(28,20,19)"/><path d=" M 2222.125 851.351 L 2227.125 851.351 L 2227.125 856.162 L 2222.125 856.162 L 2222.125 851.351 Z " fill="rgb(28,20,19)"/><path d=" M 2222.125 841.729 L 2227.125 841.729 L 2227.125 846.54 L 2222.125 846.54 L 2222.125 841.729 Z " fill="rgb(28,20,19)"/><path d=" M 2222.125 860.974 L 2227.125 860.974 L 2227.125 865.785 L 2222.125 865.785 L 2222.125 860.974 Z " fill="rgb(28,20,19)"/><path d=" M 2222.125 870.596 L 2227.125 870.596 L 2227.125 875.407 L 2222.125 875.407 L 2222.125 870.596 Z " fill="rgb(28,20,19)"/><path d=" M 2222.125 870.596 L 2227.125 870.596 L 2227.125 875.407 L 2222.125 875.407 L 2222.125 870.596 Z " fill="rgb(28,20,19)"/><path d=" M 2222.125 889.841 L 2227.125 889.841 L 2227.125 894.652 L 2222.125 894.652 L 2222.125 889.841 Z " fill="rgb(28,20,19)"/><path d=" M 2222.125 880.219 L 2227.125 880.219 L 2227.125 885.03 L 2222.125 885.03 L 2222.125 880.219 Z " fill="rgb(28,20,19)"/><path d=" M 2222.125 899.464 L 2227.125 899.464 L 2227.125 904.275 L 2222.125 904.275 L 2222.125 899.464 Z " fill="rgb(28,20,19)"/><path d=" M 2222.125 899.464 L 2227.125 899.464 L 2227.125 904.275 L 2222.125 904.275 L 2222.125 899.464 Z " fill="rgb(28,20,19)"/><path d=" M 2210.625 529.719 L 2213.125 531.162 L 2213.125 897.78 L 2210.625 896.336 L 2210.625 529.719 Z " fill="rgb(28,20,19)"/><path d=" M 2235.875 549.926 L 2238.375 551.369 L 2238.375 912.448 L 2235.875 910.77 L 2235.875 549.926 Z " fill="rgb(28,20,19)"/></g><g id="body-windows-curtainwall-right"><path d=" M 2252 952.741 L 2332 952.741 L 2332 375.391 L 2252 375.391 L 2252 952.741 Z " fill="none" vector-effect="non-scaling-stroke" stroke-width="1" stroke="rgb(0,0,0)" stroke-linejoin="round" stroke-linecap="round" stroke-miterlimit="3"/><line x1="2252" y1="375.391" x2="2332" y2="375.391" vector-effect="non-scaling-stroke" stroke-width="1" stroke="rgb(0,0,0)" stroke-linejoin="miter" stroke-linecap="square" stroke-miterlimit="3"/><line x1="2252" y1="560.143" x2="2332" y2="560.143" vector-effect="non-scaling-stroke" stroke-width="1" stroke="rgb(0,0,0)" stroke-linejoin="miter" stroke-linecap="square" stroke-miterlimit="3"/><line x1="2252" y1="744.895" x2="2332" y2="744.895" vector-effect="non-scaling-stroke" stroke-width="1" stroke="rgb(0,0,0)" stroke-linejoin="miter" stroke-linecap="square" stroke-miterlimit="3"/><line x1="2252" y1="467.767" x2="2332" y2="467.767" vector-effect="non-scaling-stroke" stroke-width="1" stroke="rgb(0,0,0)" stroke-linejoin="miter" stroke-linecap="square" stroke-miterlimit="3"/><line x1="2252" y1="652.519" x2="2332" y2="652.519" vector-effect="non-scaling-stroke" stroke-width="1" stroke="rgb(0,0,0)" stroke-linejoin="miter" stroke-linecap="square" stroke-miterlimit="3"/><line x1="2252" y1="837.271" x2="2332" y2="837.271" vector-effect="non-scaling-stroke" stroke-width="1" stroke="rgb(0,0,0)" stroke-linejoin="miter" stroke-linecap="square" stroke-miterlimit="3"/><line x1="2252" y1="421.579" x2="2332" y2="421.579" vector-effect="non-scaling-stroke" stroke-width="1" stroke="rgb(0,0,0)" stroke-linejoin="miter" stroke-linecap="square" stroke-miterlimit="3"/><line x1="2252" y1="606.331" x2="2332" y2="606.331" vector-effect="non-scaling-stroke" stroke-width="1" stroke="rgb(0,0,0)" stroke-linejoin="miter" stroke-linecap="square" stroke-miterlimit="3"/><line x1="2252" y1="791.083" x2="2332" y2="791.083" vector-effect="non-scaling-stroke" stroke-width="1" stroke="rgb(0,0,0)" stroke-linejoin="miter" stroke-linecap="square" stroke-miterlimit="3"/><line x1="2252" y1="513.955" x2="2332" y2="513.955" vector-effect="non-scaling-stroke" stroke-width="1" stroke="rgb(0,0,0)" stroke-linejoin="miter" stroke-linecap="square" stroke-miterlimit="3"/><line x1="2252" y1="698.707" x2="2332" y2="698.707" vector-effect="non-scaling-stroke" stroke-width="1" stroke="rgb(0,0,0)" stroke-linejoin="miter" stroke-linecap="square" stroke-miterlimit="3"/><line x1="2252" y1="883.459" x2="2332" y2="883.459" vector-effect="non-scaling-stroke" stroke-width="1" stroke="rgb(0,0,0)" stroke-linejoin="miter" stroke-linecap="square" stroke-miterlimit="3"/><line x1="2252" y1="398.485" x2="2332" y2="398.485" vector-effect="non-scaling-stroke" stroke-width="1" stroke="rgb(0,0,0)" stroke-linejoin="miter" stroke-linecap="square" stroke-miterlimit="3"/><line x1="2252" y1="583.237" x2="2332" y2="583.237" vector-effect="non-scaling-stroke" stroke-width="1" stroke="rgb(0,0,0)" stroke-linejoin="miter" stroke-linecap="square" stroke-miterlimit="3"/><line x1="2252" y1="767.989" x2="2332" y2="767.989" vector-effect="non-scaling-stroke" stroke-width="1" stroke="rgb(0,0,0)" stroke-linejoin="miter" stroke-linecap="square" stroke-miterlimit="3"/><line x1="2252" y1="490.861" x2="2332" y2="490.861" vector-effect="non-scaling-stroke" stroke-width="1" stroke="rgb(0,0,0)" stroke-linejoin="miter" stroke-linecap="square" stroke-miterlimit="3"/><line x1="2252" y1="675.613" x2="2332" y2="675.613" vector-effect="non-scaling-stroke" stroke-width="1" stroke="rgb(0,0,0)" stroke-linejoin="miter" stroke-linecap="square" stroke-miterlimit="3"/><line x1="2252" y1="860.365" x2="2332" y2="860.365" vector-effect="non-scaling-stroke" stroke-width="1" stroke="rgb(0,0,0)" stroke-linejoin="miter" stroke-linecap="square" stroke-miterlimit="3"/><line x1="2252" y1="444.673" x2="2332" y2="444.673" vector-effect="non-scaling-stroke" stroke-width="1" stroke="rgb(0,0,0)" stroke-linejoin="miter" stroke-linecap="square" stroke-miterlimit="3"/><line x1="2252" y1="629.425" x2="2332" y2="629.425" vector-effect="non-scaling-stroke" stroke-width="1" stroke="rgb(0,0,0)" stroke-linejoin="miter" stroke-linecap="square" stroke-miterlimit="3"/><line x1="2252" y1="814.177" x2="2332" y2="814.177" vector-effect="non-scaling-stroke" stroke-width="1" stroke="rgb(0,0,0)" stroke-linejoin="miter" stroke-linecap="square" stroke-miterlimit="3"/><line x1="2252" y1="537.049" x2="2332" y2="537.049" vector-effect="non-scaling-stroke" stroke-width="1" stroke="rgb(0,0,0)" stroke-linejoin="miter" stroke-linecap="square" stroke-miterlimit="3"/><line x1="2252" y1="721.801" x2="2332" y2="721.801" vector-effect="non-scaling-stroke" stroke-width="1" stroke="rgb(0,0,0)" stroke-linejoin="miter" stroke-linecap="square" stroke-miterlimit="3"/><line x1="2252" y1="906.553" x2="2332" y2="906.553" vector-effect="non-scaling-stroke" stroke-width="1" stroke="rgb(0,0,0)" stroke-linejoin="miter" stroke-linecap="square" stroke-miterlimit="3"/><line x1="2252" y1="941.194" x2="2332" y2="941.194" vector-effect="non-scaling-stroke" stroke-width="1" stroke="rgb(0,0,0)" stroke-linejoin="miter" stroke-linecap="square" stroke-miterlimit="3"/><line x1="2252" y1="386.938" x2="2332" y2="386.938" vector-effect="non-scaling-stroke" stroke-width="1" stroke="rgb(0,0,0)" stroke-linejoin="miter" stroke-linecap="square" stroke-miterlimit="3"/><line x1="2252" y1="571.69" x2="2332" y2="571.69" vector-effect="non-scaling-stroke" stroke-width="1" stroke="rgb(0,0,0)" stroke-linejoin="miter" stroke-linecap="square" stroke-miterlimit="3"/><line x1="2252" y1="756.442" x2="2332" y2="756.442" vector-effect="non-scaling-stroke" stroke-width="1" stroke="rgb(0,0,0)" stroke-linejoin="miter" stroke-linecap="square" stroke-miterlimit="3"/><line x1="2252" y1="479.314" x2="2332" y2="479.314" vector-effect="non-scaling-stroke" stroke-width="1" stroke="rgb(0,0,0)" stroke-linejoin="miter" stroke-linecap="square" stroke-miterlimit="3"/><line x1="2252" y1="664.066" x2="2332" y2="664.066" vector-effect="non-scaling-stroke" stroke-width="1" stroke="rgb(0,0,0)" stroke-linejoin="miter" stroke-linecap="square" stroke-miterlimit="3"/><line x1="2252" y1="848.818" x2="2332" y2="848.818" vector-effect="non-scaling-stroke" stroke-width="1" stroke="rgb(0,0,0)" stroke-linejoin="miter" stroke-linecap="square" stroke-miterlimit="3"/><line x1="2252" y1="433.126" x2="2332" y2="433.126" vector-effect="non-scaling-stroke" stroke-width="1" stroke="rgb(0,0,0)" stroke-linejoin="miter" stroke-linecap="square" stroke-miterlimit="3"/><line x1="2252" y1="617.878" x2="2332" y2="617.878" vector-effect="non-scaling-stroke" stroke-width="1" stroke="rgb(0,0,0)" stroke-linejoin="miter" stroke-linecap="square" stroke-miterlimit="3"/><line x1="2252" y1="802.63" x2="2332" y2="802.63" vector-effect="non-scaling-stroke" stroke-width="1" stroke="rgb(0,0,0)" stroke-linejoin="miter" stroke-linecap="square" stroke-miterlimit="3"/><line x1="2252" y1="525.502" x2="2332" y2="525.502" vector-effect="non-scaling-stroke" stroke-width="1" stroke="rgb(0,0,0)" stroke-linejoin="miter" stroke-linecap="square" stroke-miterlimit="3"/><line x1="2252" y1="710.254" x2="2332" y2="710.254" vector-effect="non-scaling-stroke" stroke-width="1" stroke="rgb(0,0,0)" stroke-linejoin="miter" stroke-linecap="square" stroke-miterlimit="3"/><line x1="2252" y1="895.006" x2="2332" y2="895.006" vector-effect="non-scaling-stroke" stroke-width="1" stroke="rgb(0,0,0)" stroke-linejoin="miter" stroke-linecap="square" stroke-miterlimit="3"/><line x1="2252" y1="929.647" x2="2332" y2="929.647" vector-effect="non-scaling-stroke" stroke-width="1" stroke="rgb(0,0,0)" stroke-linejoin="miter" stroke-linecap="square" stroke-miterlimit="3"/><line x1="2252" y1="410.032" x2="2332" y2="410.032" vector-effect="non-scaling-stroke" stroke-width="1" stroke="rgb(0,0,0)" stroke-linejoin="miter" stroke-linecap="square" stroke-miterlimit="3"/><line x1="2252" y1="594.784" x2="2332" y2="594.784" vector-effect="non-scaling-stroke" stroke-width="1" stroke="rgb(0,0,0)" stroke-linejoin="miter" stroke-linecap="square" stroke-miterlimit="3"/><line x1="2252" y1="779.536" x2="2332" y2="779.536" vector-effect="non-scaling-stroke" stroke-width="1" stroke="rgb(0,0,0)" stroke-linejoin="miter" stroke-linecap="square" stroke-miterlimit="3"/><line x1="2252" y1="502.408" x2="2332" y2="502.408" vector-effect="non-scaling-stroke" stroke-width="1" stroke="rgb(0,0,0)" stroke-linejoin="miter" stroke-linecap="square" stroke-miterlimit="3"/><line x1="2252" y1="687.16" x2="2332" y2="687.16" vector-effect="non-scaling-stroke" stroke-width="1" stroke="rgb(0,0,0)" stroke-linejoin="miter" stroke-linecap="square" stroke-miterlimit="3"/><line x1="2252" y1="871.912" x2="2332" y2="871.912" vector-effect="non-scaling-stroke" stroke-width="1" stroke="rgb(0,0,0)" stroke-linejoin="miter" stroke-linecap="square" stroke-miterlimit="3"/><line x1="2252" y1="456.22" x2="2332" y2="456.22" vector-effect="non-scaling-stroke" stroke-width="1" stroke="rgb(0,0,0)" stroke-linejoin="miter" stroke-linecap="square" stroke-miterlimit="3"/><line x1="2252" y1="640.972" x2="2332" y2="640.972" vector-effect="non-scaling-stroke" stroke-width="1" stroke="rgb(0,0,0)" stroke-linejoin="miter" stroke-linecap="square" stroke-miterlimit="3"/><line x1="2252" y1="825.724" x2="2332" y2="825.724" vector-effect="non-scaling-stroke" stroke-width="1" stroke="rgb(0,0,0)" stroke-linejoin="miter" stroke-linecap="square" stroke-miterlimit="3"/><line x1="2252" y1="548.596" x2="2332" y2="548.596" vector-effect="non-scaling-stroke" stroke-width="1" stroke="rgb(0,0,0)" stroke-linejoin="miter" stroke-linecap="square" stroke-miterlimit="3"/><line x1="2252" y1="733.348" x2="2332" y2="733.348" vector-effect="non-scaling-stroke" stroke-width="1" stroke="rgb(0,0,0)" stroke-linejoin="miter" stroke-linecap="square" stroke-miterlimit="3"/><line x1="2252" y1="918.1" x2="2332" y2="918.1" vector-effect="non-scaling-stroke" stroke-width="1" stroke="rgb(0,0,0)" stroke-linejoin="miter" stroke-linecap="square" stroke-miterlimit="3"/><line x1="2252" y1="952.741" x2="2332" y2="952.741" vector-effect="non-scaling-stroke" stroke-width="1" stroke="rgb(0,0,0)" stroke-linejoin="miter" stroke-linecap="square" stroke-miterlimit="3"/><line x1="2257.333" y1="375.391" x2="2257.333" y2="952.741" vector-effect="non-scaling-stroke" stroke-width="1" stroke="rgb(0,0,0)" stroke-linejoin="miter" stroke-linecap="square" stroke-miterlimit="3"/><line x1="2294.667" y1="375.391" x2="2294.667" y2="952.741" vector-effect="non-scaling-stroke" stroke-width="1" stroke="rgb(0,0,0)" stroke-linejoin="miter" stroke-linecap="square" stroke-miterlimit="3"/><line x1="2262.667" y1="375.391" x2="2262.667" y2="952.741" vector-effect="non-scaling-stroke" stroke-width="1" stroke="rgb(0,0,0)" stroke-linejoin="miter" stroke-linecap="square" stroke-miterlimit="3"/><line x1="2305.333" y1="375.391" x2="2305.333" y2="952.741" vector-effect="non-scaling-stroke" stroke-width="1" stroke="rgb(0,0,0)" stroke-linejoin="miter" stroke-linecap="square" stroke-miterlimit="3"/><line x1="2273.333" y1="375.391" x2="2273.333" y2="952.741" vector-effect="non-scaling-stroke" stroke-width="1" stroke="rgb(0,0,0)" stroke-linejoin="miter" stroke-linecap="square" stroke-miterlimit="3"/><line x1="2321.333" y1="375.391" x2="2321.333" y2="952.741" vector-effect="non-scaling-stroke" stroke-width="1" stroke="rgb(0,0,0)" stroke-linejoin="miter" stroke-linecap="square" stroke-miterlimit="3"/><line x1="2289.333" y1="375.391" x2="2289.333" y2="952.741" vector-effect="non-scaling-stroke" stroke-width="1" stroke="rgb(0,0,0)" stroke-linejoin="miter" stroke-linecap="square" stroke-miterlimit="3"/><line x1="2326.667" y1="375.391" x2="2326.667" y2="952.741" vector-effect="non-scaling-stroke" stroke-width="1" stroke="rgb(0,0,0)" stroke-linejoin="miter" stroke-linecap="square" stroke-miterlimit="3"/><line x1="2252" y1="375.391" x2="2252" y2="952.741" vector-effect="non-scaling-stroke" stroke-width="1" stroke="rgb(0,0,0)" stroke-linejoin="miter" stroke-linecap="square" stroke-miterlimit="3"/><line x1="2300" y1="375.391" x2="2300" y2="952.741" vector-effect="non-scaling-stroke" stroke-width="1" stroke="rgb(0,0,0)" stroke-linejoin="miter" stroke-linecap="square" stroke-miterlimit="3"/><line x1="2268" y1="375.391" x2="2268" y2="952.741" vector-effect="non-scaling-stroke" stroke-width="1" stroke="rgb(0,0,0)" stroke-linejoin="miter" stroke-linecap="square" stroke-miterlimit="3"/><line x1="2310.667" y1="375.391" x2="2310.667" y2="952.741" vector-effect="non-scaling-stroke" stroke-width="1" stroke="rgb(0,0,0)" stroke-linejoin="miter" stroke-linecap="square" stroke-miterlimit="3"/><line x1="2278.667" y1="375.391" x2="2278.667" y2="952.741" vector-effect="non-scaling-stroke" stroke-width="1" stroke="rgb(0,0,0)" stroke-linejoin="miter" stroke-linecap="square" stroke-miterlimit="3"/><line x1="2316" y1="375.391" x2="2316" y2="952.741" vector-effect="non-scaling-stroke" stroke-width="1" stroke="rgb(0,0,0)" stroke-linejoin="miter" stroke-linecap="square" stroke-miterlimit="3"/><line x1="2284" y1="375.391" x2="2284" y2="952.741" vector-effect="non-scaling-stroke" stroke-width="1" stroke="rgb(0,0,0)" stroke-linejoin="miter" stroke-linecap="square" stroke-miterlimit="3"/><line x1="2332" y1="375.391" x2="2332" y2="952.741" vector-effect="non-scaling-stroke" stroke-width="1" stroke="rgb(0,0,0)" stroke-linejoin="miter" stroke-linecap="square" stroke-miterlimit="3"/></g></g></svg>