<?xml version="1.0" standalone="no"?><!-- Generator: Gravit.io --><svg xmlns="http://www.w3.org/2000/svg" xmlns:xlink="http://www.w3.org/1999/xlink" style="isolation:isolate" viewBox="1660.504 357.957 162.75 588.619" width="162.75" height="588.619"><g id="body-windows-square"><g id="body-windows-color-1"><path d=" M 1788.726 373.113 L 1788.726 381.448 L 1788.726 422.187" fill="none" vector-effect="non-scaling-stroke" stroke-width="3" stroke="rgb(91,66,63)" stroke-linejoin="miter" stroke-linecap="square" stroke-miterlimit="3"/><path d=" M 1796.004 373.113 L 1796.004 381.948 L 1796.004 422.187" fill="none" vector-effect="non-scaling-stroke" stroke-width="3" stroke="rgb(91,66,63)" stroke-linejoin="miter" stroke-linecap="square" stroke-miterlimit="3"/><path d=" M 1788.726 439.065 L 1788.726 447.4 L 1788.726 488.139" fill="none" vector-effect="non-scaling-stroke" stroke-width="3" stroke="rgb(91,66,63)" stroke-linejoin="miter" stroke-linecap="square" stroke-miterlimit="3"/><path d=" M 1796.004 439.065 L 1796.004 447.9 L 1796.004 488.139" fill="none" vector-effect="non-scaling-stroke" stroke-width="3" stroke="rgb(91,66,63)" stroke-linejoin="miter" stroke-linecap="square" stroke-miterlimit="3"/><path d=" M 1788.726 504.903 L 1788.726 509.806 L 1788.726 533.771" fill="none" vector-effect="non-scaling-stroke" stroke-width="3" stroke="rgb(91,66,63)" stroke-linejoin="miter" stroke-linecap="square" stroke-miterlimit="3"/><path d=" M 1796.004 504.903 L 1796.004 510.101 L 1796.004 533.771" fill="none" vector-effect="non-scaling-stroke" stroke-width="3" stroke="rgb(91,66,63)" stroke-linejoin="miter" stroke-linecap="square" stroke-miterlimit="3"/><path d=" M 1808.254 357.957 L 1815.754 357.957 L 1815.754 363.731 L 1808.254 363.731 L 1808.254 357.957 Z " fill="rgb(91,66,63)"/><path d=" M 1808.254 381.051 L 1815.754 381.051 L 1815.754 386.825 L 1808.254 386.825 L 1808.254 381.051 Z " fill="rgb(91,66,63)"/><path d=" M 1808.254 369.504 L 1815.754 369.504 L 1815.754 375.278 L 1808.254 375.278 L 1808.254 369.504 Z " fill="rgb(91,66,63)"/><path d=" M 1808.254 392.598 L 1815.754 392.598 L 1815.754 398.372 L 1808.254 398.372 L 1808.254 392.598 Z " fill="rgb(91,66,63)"/><path d=" M 1808.254 404.145 L 1815.754 404.145 L 1815.754 409.919 L 1808.254 409.919 L 1808.254 404.145 Z " fill="rgb(91,66,63)"/><path d=" M 1807.004 533.771 L 1812.004 533.771 L 1812.004 538.582 L 1807.004 538.582 L 1807.004 533.771 Z " fill="rgb(91,66,63)"/><path d=" M 1807.004 553.016 L 1812.004 553.016 L 1812.004 557.827 L 1807.004 557.827 L 1807.004 553.016 Z " fill="rgb(91,66,63)"/><path d=" M 1807.004 543.393 L 1812.004 543.393 L 1812.004 548.204 L 1807.004 548.204 L 1807.004 543.393 Z " fill="rgb(91,66,63)"/><path d=" M 1807.004 562.638 L 1812.004 562.638 L 1812.004 567.449 L 1807.004 567.449 L 1807.004 562.638 Z " fill="rgb(91,66,63)"/><path d=" M 1807.004 572.261 L 1812.004 572.261 L 1812.004 577.072 L 1807.004 577.072 L 1807.004 572.261 Z " fill="rgb(91,66,63)"/><path d=" M 1807.004 562.638 L 1812.004 562.638 L 1812.004 567.449 L 1807.004 567.449 L 1807.004 562.638 Z " fill="rgb(91,66,63)"/><path d=" M 1807.004 581.883 L 1812.004 581.883 L 1812.004 586.694 L 1807.004 586.694 L 1807.004 581.883 Z " fill="rgb(91,66,63)"/><path d=" M 1807.004 572.261 L 1812.004 572.261 L 1812.004 577.072 L 1807.004 577.072 L 1807.004 572.261 Z " fill="rgb(91,66,63)"/><path d=" M 1807.004 591.506 L 1812.004 591.506 L 1812.004 596.317 L 1807.004 596.317 L 1807.004 591.506 Z " fill="rgb(91,66,63)"/><path d=" M 1807.004 601.128 L 1812.004 601.128 L 1812.004 605.939 L 1807.004 605.939 L 1807.004 601.128 Z " fill="rgb(91,66,63)"/><path d=" M 1807.004 668.505 L 1812.004 668.505 L 1812.004 673.316 L 1807.004 673.316 L 1807.004 668.505 Z " fill="rgb(91,66,63)"/><path d=" M 1807.004 687.75 L 1812.004 687.75 L 1812.004 692.561 L 1807.004 692.561 L 1807.004 687.75 Z " fill="rgb(91,66,63)"/><path d=" M 1807.004 678.127 L 1812.004 678.127 L 1812.004 682.938 L 1807.004 682.938 L 1807.004 678.127 Z " fill="rgb(91,66,63)"/><path d=" M 1807.004 697.372 L 1812.004 697.372 L 1812.004 702.183 L 1807.004 702.183 L 1807.004 697.372 Z " fill="rgb(91,66,63)"/><path d=" M 1807.004 706.995 L 1812.004 706.995 L 1812.004 711.806 L 1807.004 711.806 L 1807.004 706.995 Z " fill="rgb(91,66,63)"/><path d=" M 1807.004 697.372 L 1812.004 697.372 L 1812.004 702.183 L 1807.004 702.183 L 1807.004 697.372 Z " fill="rgb(91,66,63)"/><path d=" M 1807.004 716.617 L 1812.004 716.617 L 1812.004 721.428 L 1807.004 721.428 L 1807.004 716.617 Z " fill="rgb(91,66,63)"/><path d=" M 1807.004 706.995 L 1812.004 706.995 L 1812.004 711.806 L 1807.004 711.806 L 1807.004 706.995 Z " fill="rgb(91,66,63)"/><path d=" M 1807.004 726.24 L 1812.004 726.24 L 1812.004 731.051 L 1807.004 731.051 L 1807.004 726.24 Z " fill="rgb(91,66,63)"/><path d=" M 1807.004 735.862 L 1812.004 735.862 L 1812.004 740.673 L 1807.004 740.673 L 1807.004 735.862 Z " fill="rgb(91,66,63)"/><path d=" M 1807.004 601.166 L 1812.004 601.166 L 1812.004 605.977 L 1807.004 605.977 L 1807.004 601.166 Z " fill="rgb(91,66,63)"/><path d=" M 1807.004 620.411 L 1812.004 620.411 L 1812.004 625.222 L 1807.004 625.222 L 1807.004 620.411 Z " fill="rgb(91,66,63)"/><path d=" M 1807.004 610.788 L 1812.004 610.788 L 1812.004 615.6 L 1807.004 615.6 L 1807.004 610.788 Z " fill="rgb(91,66,63)"/><path d=" M 1807.004 630.033 L 1812.004 630.033 L 1812.004 634.845 L 1807.004 634.845 L 1807.004 630.033 Z " fill="rgb(91,66,63)"/><path d=" M 1807.004 639.656 L 1812.004 639.656 L 1812.004 644.467 L 1807.004 644.467 L 1807.004 639.656 Z " fill="rgb(91,66,63)"/><path d=" M 1807.004 630.033 L 1812.004 630.033 L 1812.004 634.845 L 1807.004 634.845 L 1807.004 630.033 Z " fill="rgb(91,66,63)"/><path d=" M 1807.004 649.278 L 1812.004 649.278 L 1812.004 654.09 L 1807.004 654.09 L 1807.004 649.278 Z " fill="rgb(91,66,63)"/><path d=" M 1807.004 639.656 L 1812.004 639.656 L 1812.004 644.467 L 1807.004 644.467 L 1807.004 639.656 Z " fill="rgb(91,66,63)"/><path d=" M 1807.004 658.901 L 1812.004 658.901 L 1812.004 663.712 L 1807.004 663.712 L 1807.004 658.901 Z " fill="rgb(91,66,63)"/><path d=" M 1807.004 668.523 L 1812.004 668.523 L 1812.004 673.335 L 1807.004 673.335 L 1807.004 668.523 Z " fill="rgb(91,66,63)"/><path d=" M 1807.004 735.9 L 1812.004 735.9 L 1812.004 740.711 L 1807.004 740.711 L 1807.004 735.9 Z " fill="rgb(91,66,63)"/><path d=" M 1807.004 755.145 L 1812.004 755.145 L 1812.004 759.956 L 1807.004 759.956 L 1807.004 755.145 Z " fill="rgb(91,66,63)"/><path d=" M 1807.004 745.522 L 1812.004 745.522 L 1812.004 750.334 L 1807.004 750.334 L 1807.004 745.522 Z " fill="rgb(91,66,63)"/><path d=" M 1807.004 764.767 L 1812.004 764.767 L 1812.004 769.579 L 1807.004 769.579 L 1807.004 764.767 Z " fill="rgb(91,66,63)"/><path d=" M 1807.004 774.39 L 1812.004 774.39 L 1812.004 779.201 L 1807.004 779.201 L 1807.004 774.39 Z " fill="rgb(91,66,63)"/><path d=" M 1807.004 764.767 L 1812.004 764.767 L 1812.004 769.579 L 1807.004 769.579 L 1807.004 764.767 Z " fill="rgb(91,66,63)"/><path d=" M 1807.004 784.012 L 1812.004 784.012 L 1812.004 788.824 L 1807.004 788.824 L 1807.004 784.012 Z " fill="rgb(91,66,63)"/><path d=" M 1807.004 774.39 L 1812.004 774.39 L 1812.004 779.201 L 1807.004 779.201 L 1807.004 774.39 Z " fill="rgb(91,66,63)"/><path d=" M 1807.004 793.635 L 1812.004 793.635 L 1812.004 798.446 L 1807.004 798.446 L 1807.004 793.635 Z " fill="rgb(91,66,63)"/><path d=" M 1807.004 803.257 L 1812.004 803.257 L 1812.004 808.069 L 1807.004 808.069 L 1807.004 803.257 Z " fill="rgb(91,66,63)"/><path d=" M 1807.004 803.239 L 1812.004 803.239 L 1812.004 808.05 L 1807.004 808.05 L 1807.004 803.239 Z " fill="rgb(91,66,63)"/><path d=" M 1807.004 822.484 L 1812.004 822.484 L 1812.004 827.295 L 1807.004 827.295 L 1807.004 822.484 Z " fill="rgb(91,66,63)"/><path d=" M 1807.004 812.861 L 1812.004 812.861 L 1812.004 817.672 L 1807.004 817.672 L 1807.004 812.861 Z " fill="rgb(91,66,63)"/><path d=" M 1807.004 832.106 L 1812.004 832.106 L 1812.004 836.917 L 1807.004 836.917 L 1807.004 832.106 Z " fill="rgb(91,66,63)"/><path d=" M 1807.004 841.729 L 1812.004 841.729 L 1812.004 846.54 L 1807.004 846.54 L 1807.004 841.729 Z " fill="rgb(91,66,63)"/><path d=" M 1807.004 832.106 L 1812.004 832.106 L 1812.004 836.917 L 1807.004 836.917 L 1807.004 832.106 Z " fill="rgb(91,66,63)"/><path d=" M 1807.004 851.351 L 1812.004 851.351 L 1812.004 856.162 L 1807.004 856.162 L 1807.004 851.351 Z " fill="rgb(91,66,63)"/><path d=" M 1807.004 841.729 L 1812.004 841.729 L 1812.004 846.54 L 1807.004 846.54 L 1807.004 841.729 Z " fill="rgb(91,66,63)"/><path d=" M 1807.004 860.974 L 1812.004 860.974 L 1812.004 865.785 L 1807.004 865.785 L 1807.004 860.974 Z " fill="rgb(91,66,63)"/><path d=" M 1807.004 870.596 L 1812.004 870.596 L 1812.004 875.407 L 1807.004 875.407 L 1807.004 870.596 Z " fill="rgb(91,66,63)"/><path d=" M 1807.004 870.596 L 1812.004 870.596 L 1812.004 875.407 L 1807.004 875.407 L 1807.004 870.596 Z " fill="rgb(91,66,63)"/><path d=" M 1807.004 889.841 L 1812.004 889.841 L 1812.004 894.652 L 1807.004 894.652 L 1807.004 889.841 Z " fill="rgb(91,66,63)"/><path d=" M 1807.004 880.219 L 1812.004 880.219 L 1812.004 885.03 L 1807.004 885.03 L 1807.004 880.219 Z " fill="rgb(91,66,63)"/><path d=" M 1807.004 899.464 L 1812.004 899.464 L 1812.004 904.275 L 1807.004 904.275 L 1807.004 899.464 Z " fill="rgb(91,66,63)"/><path d=" M 1807.004 899.464 L 1812.004 899.464 L 1812.004 904.275 L 1807.004 904.275 L 1807.004 899.464 Z " fill="rgb(91,66,63)"/><path d=" M 1808.254 427.961 L 1815.754 427.961 L 1815.754 433.734 L 1808.254 433.734 L 1808.254 427.961 Z " fill="rgb(91,66,63)"/><path d=" M 1808.254 451.055 L 1815.754 451.055 L 1815.754 456.828 L 1808.254 456.828 L 1808.254 451.055 Z " fill="rgb(91,66,63)"/><path d=" M 1808.254 439.508 L 1815.754 439.508 L 1815.754 445.281 L 1808.254 445.281 L 1808.254 439.508 Z " fill="rgb(91,66,63)"/><path d=" M 1808.254 462.602 L 1815.754 462.602 L 1815.754 468.375 L 1808.254 468.375 L 1808.254 462.602 Z " fill="rgb(91,66,63)"/><path d=" M 1808.254 485.696 L 1815.754 485.696 L 1815.754 491.469 L 1808.254 491.469 L 1808.254 485.696 Z " fill="rgb(91,66,63)"/><path d=" M 1808.254 474.149 L 1815.754 474.149 L 1815.754 479.922 L 1808.254 479.922 L 1808.254 474.149 Z " fill="rgb(91,66,63)"/><path d=" M 1808.254 497.243 L 1815.754 497.243 L 1815.754 503.016 L 1808.254 503.016 L 1808.254 497.243 Z " fill="rgb(91,66,63)"/><path d=" M 1808.254 508.79 L 1815.754 508.79 L 1815.754 514.563 L 1808.254 514.563 L 1808.254 508.79 Z " fill="rgb(91,66,63)"/><path d=" M 1798.254 549.926 L 1795.754 551.369 L 1795.754 912.448 L 1798.254 910.77 L 1798.254 549.926 Z " fill="rgb(91,66,63)"/><path d=" M 1823.254 529.719 L 1820.754 531.162 L 1820.754 897.78 L 1823.254 896.336 L 1823.254 529.719 Z " fill="rgb(91,66,63)"/></g><path d=" M 1698.254 549.926 L 1695.754 551.369 L 1695.754 912.448 L 1698.254 910.77 L 1698.254 549.926 Z " fill="rgb(91,66,63)"/><path d=" M 1785.754 549.926 L 1788.254 551.369 L 1788.254 912.448 L 1785.754 910.77 L 1785.754 549.926 Z " fill="rgb(59,43,41)"/><g id="body-windows-color-3"><path d=" M 1695.462 373.113 L 1695.462 381.448 L 1695.462 422.187" fill="none" vector-effect="non-scaling-stroke" stroke-width="3" stroke="rgb(28,20,19)" stroke-linejoin="miter" stroke-linecap="square" stroke-miterlimit="3"/><path d=" M 1688.184 373.113 L 1688.184 381.948 L 1688.184 422.187" fill="none" vector-effect="non-scaling-stroke" stroke-width="3" stroke="rgb(28,20,19)" stroke-linejoin="miter" stroke-linecap="square" stroke-miterlimit="3"/><path d=" M 1695.462 439.065 L 1695.462 447.4 L 1695.462 488.139" fill="none" vector-effect="non-scaling-stroke" stroke-width="3" stroke="rgb(28,20,19)" stroke-linejoin="miter" stroke-linecap="square" stroke-miterlimit="3"/><path d=" M 1688.184 439.065 L 1688.184 447.9 L 1688.184 488.139" fill="none" vector-effect="non-scaling-stroke" stroke-width="3" stroke="rgb(28,20,19)" stroke-linejoin="miter" stroke-linecap="square" stroke-miterlimit="3"/><path d=" M 1695.462 504.903 L 1695.462 509.806 L 1695.462 533.771" fill="none" vector-effect="non-scaling-stroke" stroke-width="3" stroke="rgb(28,20,19)" stroke-linejoin="miter" stroke-linecap="square" stroke-miterlimit="3"/><path d=" M 1688.184 504.903 L 1688.184 510.101 L 1688.184 533.771" fill="none" vector-effect="non-scaling-stroke" stroke-width="3" stroke="rgb(28,20,19)" stroke-linejoin="miter" stroke-linecap="square" stroke-miterlimit="3"/><path d=" M 1668.254 357.957 L 1675.754 357.957 L 1675.754 363.731 L 1668.254 363.731 L 1668.254 357.957 Z " fill="rgb(28,20,19)"/><path d=" M 1668.254 381.051 L 1675.754 381.051 L 1675.754 386.825 L 1668.254 386.825 L 1668.254 381.051 Z " fill="rgb(28,20,19)"/><path d=" M 1668.254 369.504 L 1675.754 369.504 L 1675.754 375.278 L 1668.254 375.278 L 1668.254 369.504 Z " fill="rgb(28,20,19)"/><path d=" M 1668.254 392.598 L 1675.754 392.598 L 1675.754 398.372 L 1668.254 398.372 L 1668.254 392.598 Z " fill="rgb(28,20,19)"/><path d=" M 1668.254 404.145 L 1675.754 404.145 L 1675.754 409.919 L 1668.254 409.919 L 1668.254 404.145 Z " fill="rgb(28,20,19)"/><path d=" M 1668.254 427.961 L 1675.754 427.961 L 1675.754 433.734 L 1668.254 433.734 L 1668.254 427.961 Z " fill="rgb(28,20,19)"/><path d=" M 1668.254 451.055 L 1675.754 451.055 L 1675.754 456.828 L 1668.254 456.828 L 1668.254 451.055 Z " fill="rgb(28,20,19)"/><path d=" M 1668.254 439.508 L 1675.754 439.508 L 1675.754 445.281 L 1668.254 445.281 L 1668.254 439.508 Z " fill="rgb(28,20,19)"/><path d=" M 1668.254 462.602 L 1675.754 462.602 L 1675.754 468.375 L 1668.254 468.375 L 1668.254 462.602 Z " fill="rgb(28,20,19)"/><path d=" M 1668.254 474.149 L 1675.754 474.149 L 1675.754 479.922 L 1668.254 479.922 L 1668.254 474.149 Z " fill="rgb(28,20,19)"/><path d=" M 1668.254 462.602 L 1675.754 462.602 L 1675.754 468.375 L 1668.254 468.375 L 1668.254 462.602 Z " fill="rgb(28,20,19)"/><path d=" M 1668.254 485.696 L 1675.754 485.696 L 1675.754 491.469 L 1668.254 491.469 L 1668.254 485.696 Z " fill="rgb(28,20,19)"/><path d=" M 1668.254 474.149 L 1675.754 474.149 L 1675.754 479.922 L 1668.254 479.922 L 1668.254 474.149 Z " fill="rgb(28,20,19)"/><path d=" M 1668.254 497.243 L 1675.754 497.243 L 1675.754 503.016 L 1668.254 503.016 L 1668.254 497.243 Z " fill="rgb(28,20,19)"/><path d=" M 1668.254 508.79 L 1675.754 508.79 L 1675.754 514.563 L 1668.254 514.563 L 1668.254 508.79 Z " fill="rgb(28,20,19)"/><path d=" M 1672.004 533.771 L 1677.004 533.771 L 1677.004 538.582 L 1672.004 538.582 L 1672.004 533.771 Z " fill="rgb(28,20,19)"/><path d=" M 1672.004 553.016 L 1677.004 553.016 L 1677.004 557.827 L 1672.004 557.827 L 1672.004 553.016 Z " fill="rgb(28,20,19)"/><path d=" M 1672.004 543.393 L 1677.004 543.393 L 1677.004 548.204 L 1672.004 548.204 L 1672.004 543.393 Z " fill="rgb(28,20,19)"/><path d=" M 1672.004 562.638 L 1677.004 562.638 L 1677.004 567.449 L 1672.004 567.449 L 1672.004 562.638 Z " fill="rgb(28,20,19)"/><path d=" M 1672.004 572.261 L 1677.004 572.261 L 1677.004 577.072 L 1672.004 577.072 L 1672.004 572.261 Z " fill="rgb(28,20,19)"/><path d=" M 1672.004 562.638 L 1677.004 562.638 L 1677.004 567.449 L 1672.004 567.449 L 1672.004 562.638 Z " fill="rgb(28,20,19)"/><path d=" M 1672.004 581.883 L 1677.004 581.883 L 1677.004 586.694 L 1672.004 586.694 L 1672.004 581.883 Z " fill="rgb(28,20,19)"/><path d=" M 1672.004 572.261 L 1677.004 572.261 L 1677.004 577.072 L 1672.004 577.072 L 1672.004 572.261 Z " fill="rgb(28,20,19)"/><path d=" M 1672.004 591.506 L 1677.004 591.506 L 1677.004 596.317 L 1672.004 596.317 L 1672.004 591.506 Z " fill="rgb(28,20,19)"/><path d=" M 1672.004 601.128 L 1677.004 601.128 L 1677.004 605.939 L 1672.004 605.939 L 1672.004 601.128 Z " fill="rgb(28,20,19)"/><path d=" M 1672.004 668.505 L 1677.004 668.505 L 1677.004 673.316 L 1672.004 673.316 L 1672.004 668.505 Z " fill="rgb(28,20,19)"/><path d=" M 1672.004 687.75 L 1677.004 687.75 L 1677.004 692.561 L 1672.004 692.561 L 1672.004 687.75 Z " fill="rgb(28,20,19)"/><path d=" M 1672.004 678.127 L 1677.004 678.127 L 1677.004 682.938 L 1672.004 682.938 L 1672.004 678.127 Z " fill="rgb(28,20,19)"/><path d=" M 1672.004 697.372 L 1677.004 697.372 L 1677.004 702.183 L 1672.004 702.183 L 1672.004 697.372 Z " fill="rgb(28,20,19)"/><path d=" M 1672.004 706.995 L 1677.004 706.995 L 1677.004 711.806 L 1672.004 711.806 L 1672.004 706.995 Z " fill="rgb(28,20,19)"/><path d=" M 1672.004 697.372 L 1677.004 697.372 L 1677.004 702.183 L 1672.004 702.183 L 1672.004 697.372 Z " fill="rgb(28,20,19)"/><path d=" M 1672.004 716.617 L 1677.004 716.617 L 1677.004 721.428 L 1672.004 721.428 L 1672.004 716.617 Z " fill="rgb(28,20,19)"/><path d=" M 1672.004 706.995 L 1677.004 706.995 L 1677.004 711.806 L 1672.004 711.806 L 1672.004 706.995 Z " fill="rgb(28,20,19)"/><path d=" M 1672.004 726.24 L 1677.004 726.24 L 1677.004 731.051 L 1672.004 731.051 L 1672.004 726.24 Z " fill="rgb(28,20,19)"/><path d=" M 1672.004 735.862 L 1677.004 735.862 L 1677.004 740.673 L 1672.004 740.673 L 1672.004 735.862 Z " fill="rgb(28,20,19)"/><path d=" M 1672.004 601.166 L 1677.004 601.166 L 1677.004 605.977 L 1672.004 605.977 L 1672.004 601.166 Z " fill="rgb(28,20,19)"/><path d=" M 1672.004 620.411 L 1677.004 620.411 L 1677.004 625.222 L 1672.004 625.222 L 1672.004 620.411 Z " fill="rgb(28,20,19)"/><path d=" M 1672.004 610.788 L 1677.004 610.788 L 1677.004 615.6 L 1672.004 615.6 L 1672.004 610.788 Z " fill="rgb(28,20,19)"/><path d=" M 1672.004 630.033 L 1677.004 630.033 L 1677.004 634.845 L 1672.004 634.845 L 1672.004 630.033 Z " fill="rgb(28,20,19)"/><path d=" M 1672.004 639.656 L 1677.004 639.656 L 1677.004 644.467 L 1672.004 644.467 L 1672.004 639.656 Z " fill="rgb(28,20,19)"/><path d=" M 1672.004 630.033 L 1677.004 630.033 L 1677.004 634.845 L 1672.004 634.845 L 1672.004 630.033 Z " fill="rgb(28,20,19)"/><path d=" M 1672.004 649.278 L 1677.004 649.278 L 1677.004 654.09 L 1672.004 654.09 L 1672.004 649.278 Z " fill="rgb(28,20,19)"/><path d=" M 1672.004 639.656 L 1677.004 639.656 L 1677.004 644.467 L 1672.004 644.467 L 1672.004 639.656 Z " fill="rgb(28,20,19)"/><path d=" M 1672.004 658.901 L 1677.004 658.901 L 1677.004 663.712 L 1672.004 663.712 L 1672.004 658.901 Z " fill="rgb(28,20,19)"/><path d=" M 1672.004 668.523 L 1677.004 668.523 L 1677.004 673.335 L 1672.004 673.335 L 1672.004 668.523 Z " fill="rgb(28,20,19)"/><path d=" M 1672.004 735.9 L 1677.004 735.9 L 1677.004 740.711 L 1672.004 740.711 L 1672.004 735.9 Z " fill="rgb(28,20,19)"/><path d=" M 1672.004 755.145 L 1677.004 755.145 L 1677.004 759.956 L 1672.004 759.956 L 1672.004 755.145 Z " fill="rgb(28,20,19)"/><path d=" M 1672.004 745.522 L 1677.004 745.522 L 1677.004 750.334 L 1672.004 750.334 L 1672.004 745.522 Z " fill="rgb(28,20,19)"/><path d=" M 1672.004 764.767 L 1677.004 764.767 L 1677.004 769.579 L 1672.004 769.579 L 1672.004 764.767 Z " fill="rgb(28,20,19)"/><path d=" M 1672.004 774.39 L 1677.004 774.39 L 1677.004 779.201 L 1672.004 779.201 L 1672.004 774.39 Z " fill="rgb(28,20,19)"/><path d=" M 1672.004 764.767 L 1677.004 764.767 L 1677.004 769.579 L 1672.004 769.579 L 1672.004 764.767 Z " fill="rgb(28,20,19)"/><path d=" M 1672.004 784.012 L 1677.004 784.012 L 1677.004 788.824 L 1672.004 788.824 L 1672.004 784.012 Z " fill="rgb(28,20,19)"/><path d=" M 1672.004 774.39 L 1677.004 774.39 L 1677.004 779.201 L 1672.004 779.201 L 1672.004 774.39 Z " fill="rgb(28,20,19)"/><path d=" M 1672.004 793.635 L 1677.004 793.635 L 1677.004 798.446 L 1672.004 798.446 L 1672.004 793.635 Z " fill="rgb(28,20,19)"/><path d=" M 1672.004 803.257 L 1677.004 803.257 L 1677.004 808.069 L 1672.004 808.069 L 1672.004 803.257 Z " fill="rgb(28,20,19)"/><path d=" M 1672.004 803.239 L 1677.004 803.239 L 1677.004 808.05 L 1672.004 808.05 L 1672.004 803.239 Z " fill="rgb(28,20,19)"/><path d=" M 1672.004 822.484 L 1677.004 822.484 L 1677.004 827.295 L 1672.004 827.295 L 1672.004 822.484 Z " fill="rgb(28,20,19)"/><path d=" M 1672.004 812.861 L 1677.004 812.861 L 1677.004 817.672 L 1672.004 817.672 L 1672.004 812.861 Z " fill="rgb(28,20,19)"/><path d=" M 1672.004 832.106 L 1677.004 832.106 L 1677.004 836.917 L 1672.004 836.917 L 1672.004 832.106 Z " fill="rgb(28,20,19)"/><path d=" M 1672.004 841.729 L 1677.004 841.729 L 1677.004 846.54 L 1672.004 846.54 L 1672.004 841.729 Z " fill="rgb(28,20,19)"/><path d=" M 1672.004 832.106 L 1677.004 832.106 L 1677.004 836.917 L 1672.004 836.917 L 1672.004 832.106 Z " fill="rgb(28,20,19)"/><path d=" M 1672.004 851.351 L 1677.004 851.351 L 1677.004 856.162 L 1672.004 856.162 L 1672.004 851.351 Z " fill="rgb(28,20,19)"/><path d=" M 1672.004 841.729 L 1677.004 841.729 L 1677.004 846.54 L 1672.004 846.54 L 1672.004 841.729 Z " fill="rgb(28,20,19)"/><path d=" M 1672.004 860.974 L 1677.004 860.974 L 1677.004 865.785 L 1672.004 865.785 L 1672.004 860.974 Z " fill="rgb(28,20,19)"/><path d=" M 1672.004 870.596 L 1677.004 870.596 L 1677.004 875.407 L 1672.004 875.407 L 1672.004 870.596 Z " fill="rgb(28,20,19)"/><path d=" M 1672.004 870.596 L 1677.004 870.596 L 1677.004 875.407 L 1672.004 875.407 L 1672.004 870.596 Z " fill="rgb(28,20,19)"/><path d=" M 1672.004 889.841 L 1677.004 889.841 L 1677.004 894.652 L 1672.004 894.652 L 1672.004 889.841 Z " fill="rgb(28,20,19)"/><path d=" M 1672.004 880.219 L 1677.004 880.219 L 1677.004 885.03 L 1672.004 885.03 L 1672.004 880.219 Z " fill="rgb(28,20,19)"/><path d=" M 1672.004 899.464 L 1677.004 899.464 L 1677.004 904.275 L 1672.004 904.275 L 1672.004 899.464 Z " fill="rgb(28,20,19)"/><path d=" M 1672.004 899.464 L 1677.004 899.464 L 1677.004 904.275 L 1672.004 904.275 L 1672.004 899.464 Z " fill="rgb(28,20,19)"/><path d=" M 1660.504 529.719 L 1663.004 531.162 L 1663.004 897.78 L 1660.504 896.336 L 1660.504 529.719 Z " fill="rgb(28,20,19)"/><path d=" M 1685.754 549.926 L 1688.254 551.369 L 1688.254 912.448 L 1685.754 910.77 L 1685.754 549.926 Z " fill="rgb(28,20,19)"/></g><g id="body-windows-color-2"><g id="Group"><path d=" M 1710.136 383.66 L 1715.136 383.66 L 1715.136 388.471 L 1710.136 388.471 L 1710.136 383.66 Z " fill="rgb(59,43,41)"/><path d=" M 1710.136 402.905 L 1715.136 402.905 L 1715.136 407.716 L 1710.136 407.716 L 1710.136 402.905 Z " fill="rgb(59,43,41)"/><path d=" M 1710.136 393.282 L 1715.136 393.282 L 1715.136 398.093 L 1710.136 398.093 L 1710.136 393.282 Z " fill="rgb(59,43,41)"/><path d=" M 1710.136 412.527 L 1715.136 412.527 L 1715.136 417.338 L 1710.136 417.338 L 1710.136 412.527 Z " fill="rgb(59,43,41)"/><path d=" M 1710.136 422.15 L 1715.136 422.15 L 1715.136 426.961 L 1710.136 426.961 L 1710.136 422.15 Z " fill="rgb(59,43,41)"/><path d=" M 1710.136 412.527 L 1715.136 412.527 L 1715.136 417.338 L 1710.136 417.338 L 1710.136 412.527 Z " fill="rgb(59,43,41)"/><path d=" M 1710.136 431.772 L 1715.136 431.772 L 1715.136 436.583 L 1710.136 436.583 L 1710.136 431.772 Z " fill="rgb(59,43,41)"/><path d=" M 1710.136 422.15 L 1715.136 422.15 L 1715.136 426.961 L 1710.136 426.961 L 1710.136 422.15 Z " fill="rgb(59,43,41)"/><path d=" M 1710.136 441.395 L 1715.136 441.395 L 1715.136 446.206 L 1710.136 446.206 L 1710.136 441.395 Z " fill="rgb(59,43,41)"/><path d=" M 1710.136 451.017 L 1715.136 451.017 L 1715.136 455.828 L 1710.136 455.828 L 1710.136 451.017 Z " fill="rgb(59,43,41)"/><path d=" M 1710.136 518.394 L 1715.136 518.394 L 1715.136 523.205 L 1710.136 523.205 L 1710.136 518.394 Z " fill="rgb(59,43,41)"/><path d=" M 1710.136 537.639 L 1715.136 537.639 L 1715.136 542.45 L 1710.136 542.45 L 1710.136 537.639 Z " fill="rgb(59,43,41)"/><path d=" M 1710.136 528.016 L 1715.136 528.016 L 1715.136 532.827 L 1710.136 532.827 L 1710.136 528.016 Z " fill="rgb(59,43,41)"/><path d=" M 1710.136 547.261 L 1715.136 547.261 L 1715.136 552.072 L 1710.136 552.072 L 1710.136 547.261 Z " fill="rgb(59,43,41)"/><path d=" M 1710.136 556.884 L 1715.136 556.884 L 1715.136 561.695 L 1710.136 561.695 L 1710.136 556.884 Z " fill="rgb(59,43,41)"/><path d=" M 1710.136 749.296 L 1715.136 749.296 L 1715.136 754.107 L 1710.136 754.107 L 1710.136 749.296 Z " fill="rgb(59,43,41)"/><path d=" M 1710.136 547.261 L 1715.136 547.261 L 1715.136 552.072 L 1710.136 552.072 L 1710.136 547.261 Z " fill="rgb(59,43,41)"/><path d=" M 1710.136 566.506 L 1715.136 566.506 L 1715.136 571.317 L 1710.136 571.317 L 1710.136 566.506 Z " fill="rgb(59,43,41)"/><path d=" M 1710.136 758.918 L 1715.136 758.918 L 1715.136 763.73 L 1710.136 763.73 L 1710.136 758.918 Z " fill="rgb(59,43,41)"/><path d=" M 1710.136 556.884 L 1715.136 556.884 L 1715.136 561.695 L 1710.136 561.695 L 1710.136 556.884 Z " fill="rgb(59,43,41)"/><path d=" M 1710.136 749.296 L 1715.136 749.296 L 1715.136 754.107 L 1710.136 754.107 L 1710.136 749.296 Z " fill="rgb(59,43,41)"/><path d=" M 1710.136 576.129 L 1715.136 576.129 L 1715.136 580.94 L 1710.136 580.94 L 1710.136 576.129 Z " fill="rgb(59,43,41)"/><path d=" M 1710.136 768.541 L 1715.136 768.541 L 1715.136 773.352 L 1710.136 773.352 L 1710.136 768.541 Z " fill="rgb(59,43,41)"/><path d=" M 1710.136 585.751 L 1715.136 585.751 L 1715.136 590.562 L 1710.136 590.562 L 1710.136 585.751 Z " fill="rgb(59,43,41)"/><path d=" M 1710.136 778.163 L 1715.136 778.163 L 1715.136 782.975 L 1710.136 782.975 L 1710.136 778.163 Z " fill="rgb(59,43,41)"/><path d=" M 1710.136 451.055 L 1715.136 451.055 L 1715.136 455.866 L 1710.136 455.866 L 1710.136 451.055 Z " fill="rgb(59,43,41)"/><path d=" M 1710.136 470.3 L 1715.136 470.3 L 1715.136 475.111 L 1710.136 475.111 L 1710.136 470.3 Z " fill="rgb(59,43,41)"/><path d=" M 1710.136 460.677 L 1715.136 460.677 L 1715.136 465.489 L 1710.136 465.489 L 1710.136 460.677 Z " fill="rgb(59,43,41)"/><path d=" M 1710.136 479.922 L 1715.136 479.922 L 1715.136 484.734 L 1710.136 484.734 L 1710.136 479.922 Z " fill="rgb(59,43,41)"/><path d=" M 1710.136 489.545 L 1715.136 489.545 L 1715.136 494.356 L 1710.136 494.356 L 1710.136 489.545 Z " fill="rgb(59,43,41)"/><path d=" M 1710.136 479.922 L 1715.136 479.922 L 1715.136 484.734 L 1710.136 484.734 L 1710.136 479.922 Z " fill="rgb(59,43,41)"/><path d=" M 1710.136 499.167 L 1715.136 499.167 L 1715.136 503.979 L 1710.136 503.979 L 1710.136 499.167 Z " fill="rgb(59,43,41)"/><path d=" M 1710.136 489.545 L 1715.136 489.545 L 1715.136 494.356 L 1710.136 494.356 L 1710.136 489.545 Z " fill="rgb(59,43,41)"/><path d=" M 1710.136 508.79 L 1715.136 508.79 L 1715.136 513.601 L 1710.136 513.601 L 1710.136 508.79 Z " fill="rgb(59,43,41)"/><path d=" M 1710.136 518.412 L 1715.136 518.412 L 1715.136 523.224 L 1710.136 523.224 L 1710.136 518.412 Z " fill="rgb(59,43,41)"/><path d=" M 1710.136 585.789 L 1715.136 585.789 L 1715.136 590.6 L 1710.136 590.6 L 1710.136 585.789 Z " fill="rgb(59,43,41)"/><path d=" M 1710.136 778.201 L 1715.136 778.201 L 1715.136 783.012 L 1710.136 783.012 L 1710.136 778.201 Z " fill="rgb(59,43,41)"/><path d=" M 1710.136 605.034 L 1715.136 605.034 L 1715.136 609.845 L 1710.136 609.845 L 1710.136 605.034 Z " fill="rgb(59,43,41)"/><path d=" M 1710.136 797.446 L 1715.136 797.446 L 1715.136 802.257 L 1710.136 802.257 L 1710.136 797.446 Z " fill="rgb(59,43,41)"/><path d=" M 1710.136 595.411 L 1715.136 595.411 L 1715.136 600.223 L 1710.136 600.223 L 1710.136 595.411 Z " fill="rgb(59,43,41)"/><path d=" M 1710.136 787.824 L 1715.136 787.824 L 1715.136 792.635 L 1710.136 792.635 L 1710.136 787.824 Z " fill="rgb(59,43,41)"/><path d=" M 1710.136 614.656 L 1715.136 614.656 L 1715.136 619.468 L 1710.136 619.468 L 1710.136 614.656 Z " fill="rgb(59,43,41)"/><path d=" M 1710.136 807.069 L 1715.136 807.069 L 1715.136 811.88 L 1710.136 811.88 L 1710.136 807.069 Z " fill="rgb(59,43,41)"/><path d=" M 1710.136 624.279 L 1715.136 624.279 L 1715.136 629.09 L 1710.136 629.09 L 1710.136 624.279 Z " fill="rgb(59,43,41)"/><path d=" M 1710.136 816.691 L 1715.136 816.691 L 1715.136 821.502 L 1710.136 821.502 L 1710.136 816.691 Z " fill="rgb(59,43,41)"/><path d=" M 1710.136 614.656 L 1715.136 614.656 L 1715.136 619.468 L 1710.136 619.468 L 1710.136 614.656 Z " fill="rgb(59,43,41)"/><path d=" M 1710.136 807.069 L 1715.136 807.069 L 1715.136 811.88 L 1710.136 811.88 L 1710.136 807.069 Z " fill="rgb(59,43,41)"/><path d=" M 1710.136 633.901 L 1715.136 633.901 L 1715.136 638.713 L 1710.136 638.713 L 1710.136 633.901 Z " fill="rgb(59,43,41)"/><path d=" M 1710.136 826.314 L 1715.136 826.314 L 1715.136 831.125 L 1710.136 831.125 L 1710.136 826.314 Z " fill="rgb(59,43,41)"/><path d=" M 1710.136 624.279 L 1715.136 624.279 L 1715.136 629.09 L 1710.136 629.09 L 1710.136 624.279 Z " fill="rgb(59,43,41)"/><path d=" M 1710.136 816.691 L 1715.136 816.691 L 1715.136 821.502 L 1710.136 821.502 L 1710.136 816.691 Z " fill="rgb(59,43,41)"/><path d=" M 1710.136 643.524 L 1715.136 643.524 L 1715.136 648.335 L 1710.136 648.335 L 1710.136 643.524 Z " fill="rgb(59,43,41)"/><path d=" M 1710.136 835.936 L 1715.136 835.936 L 1715.136 840.747 L 1710.136 840.747 L 1710.136 835.936 Z " fill="rgb(59,43,41)"/><path d=" M 1710.136 653.146 L 1715.136 653.146 L 1715.136 657.958 L 1710.136 657.958 L 1710.136 653.146 Z " fill="rgb(59,43,41)"/><path d=" M 1710.136 845.559 L 1715.136 845.559 L 1715.136 850.37 L 1710.136 850.37 L 1710.136 845.559 Z " fill="rgb(59,43,41)"/><path d=" M 1710.136 653.127 L 1715.136 653.127 L 1715.136 657.939 L 1710.136 657.939 L 1710.136 653.127 Z " fill="rgb(59,43,41)"/><path d=" M 1710.136 845.54 L 1715.136 845.54 L 1715.136 850.351 L 1710.136 850.351 L 1710.136 845.54 Z " fill="rgb(59,43,41)"/><path d=" M 1710.136 672.372 L 1715.136 672.372 L 1715.136 677.184 L 1710.136 677.184 L 1710.136 672.372 Z " fill="rgb(59,43,41)"/><path d=" M 1710.136 864.785 L 1715.136 864.785 L 1715.136 869.596 L 1710.136 869.596 L 1710.136 864.785 Z " fill="rgb(59,43,41)"/><path d=" M 1710.136 662.75 L 1715.136 662.75 L 1715.136 667.561 L 1710.136 667.561 L 1710.136 662.75 Z " fill="rgb(59,43,41)"/><path d=" M 1710.136 855.162 L 1715.136 855.162 L 1715.136 859.974 L 1710.136 859.974 L 1710.136 855.162 Z " fill="rgb(59,43,41)"/><path d=" M 1710.136 681.995 L 1715.136 681.995 L 1715.136 686.806 L 1710.136 686.806 L 1710.136 681.995 Z " fill="rgb(59,43,41)"/><path d=" M 1710.136 874.407 L 1715.136 874.407 L 1715.136 879.219 L 1710.136 879.219 L 1710.136 874.407 Z " fill="rgb(59,43,41)"/><path d=" M 1710.136 691.617 L 1715.136 691.617 L 1715.136 696.429 L 1710.136 696.429 L 1710.136 691.617 Z " fill="rgb(59,43,41)"/><path d=" M 1710.136 884.03 L 1715.136 884.03 L 1715.136 888.841 L 1710.136 888.841 L 1710.136 884.03 Z " fill="rgb(59,43,41)"/><path d=" M 1710.136 681.995 L 1715.136 681.995 L 1715.136 686.806 L 1710.136 686.806 L 1710.136 681.995 Z " fill="rgb(59,43,41)"/><path d=" M 1710.136 874.407 L 1715.136 874.407 L 1715.136 879.219 L 1710.136 879.219 L 1710.136 874.407 Z " fill="rgb(59,43,41)"/><path d=" M 1710.136 701.24 L 1715.136 701.24 L 1715.136 706.051 L 1710.136 706.051 L 1710.136 701.24 Z " fill="rgb(59,43,41)"/><path d=" M 1710.136 893.652 L 1715.136 893.652 L 1715.136 898.464 L 1710.136 898.464 L 1710.136 893.652 Z " fill="rgb(59,43,41)"/><path d=" M 1710.136 691.617 L 1715.136 691.617 L 1715.136 696.429 L 1710.136 696.429 L 1710.136 691.617 Z " fill="rgb(59,43,41)"/><path d=" M 1710.136 884.03 L 1715.136 884.03 L 1715.136 888.841 L 1710.136 888.841 L 1710.136 884.03 Z " fill="rgb(59,43,41)"/><path d=" M 1710.136 710.862 L 1715.136 710.862 L 1715.136 715.674 L 1710.136 715.674 L 1710.136 710.862 Z " fill="rgb(59,43,41)"/><path d=" M 1710.136 903.275 L 1715.136 903.275 L 1715.136 908.086 L 1710.136 908.086 L 1710.136 903.275 Z " fill="rgb(59,43,41)"/><path d=" M 1710.136 720.485 L 1715.136 720.485 L 1715.136 725.296 L 1710.136 725.296 L 1710.136 720.485 Z " fill="rgb(59,43,41)"/><path d=" M 1710.136 912.897 L 1715.136 912.897 L 1715.136 917.709 L 1710.136 917.709 L 1710.136 912.897 Z " fill="rgb(59,43,41)"/><path d=" M 1710.136 720.485 L 1715.136 720.485 L 1715.136 725.296 L 1710.136 725.296 L 1710.136 720.485 Z " fill="rgb(59,43,41)"/><path d=" M 1710.136 912.897 L 1715.136 912.897 L 1715.136 917.709 L 1710.136 917.709 L 1710.136 912.897 Z " fill="rgb(59,43,41)"/><path d=" M 1710.136 739.73 L 1715.136 739.73 L 1715.136 744.541 L 1710.136 744.541 L 1710.136 739.73 Z " fill="rgb(59,43,41)"/><path d=" M 1710.136 932.142 L 1715.136 932.142 L 1715.136 936.954 L 1710.136 936.954 L 1710.136 932.142 Z " fill="rgb(59,43,41)"/><path d=" M 1710.136 730.107 L 1715.136 730.107 L 1715.136 734.919 L 1710.136 734.919 L 1710.136 730.107 Z " fill="rgb(59,43,41)"/><path d=" M 1710.136 922.52 L 1715.136 922.52 L 1715.136 927.331 L 1710.136 927.331 L 1710.136 922.52 Z " fill="rgb(59,43,41)"/><path d=" M 1710.136 749.352 L 1715.136 749.352 L 1715.136 754.164 L 1710.136 754.164 L 1710.136 749.352 Z " fill="rgb(59,43,41)"/><path d=" M 1710.136 941.765 L 1715.136 941.765 L 1715.136 946.576 L 1710.136 946.576 L 1710.136 941.765 Z " fill="rgb(59,43,41)"/><path d=" M 1710.136 941.765 L 1715.136 941.765 L 1715.136 946.576 L 1710.136 946.576 L 1710.136 941.765 Z " fill="rgb(59,43,41)"/></g><g id="Group"><path d=" M 1722.136 383.66 L 1727.136 383.66 L 1727.136 388.471 L 1722.136 388.471 L 1722.136 383.66 Z " fill="rgb(59,43,41)"/><path d=" M 1722.136 402.905 L 1727.136 402.905 L 1727.136 407.716 L 1722.136 407.716 L 1722.136 402.905 Z " fill="rgb(59,43,41)"/><path d=" M 1722.136 393.282 L 1727.136 393.282 L 1727.136 398.093 L 1722.136 398.093 L 1722.136 393.282 Z " fill="rgb(59,43,41)"/><path d=" M 1722.136 412.527 L 1727.136 412.527 L 1727.136 417.338 L 1722.136 417.338 L 1722.136 412.527 Z " fill="rgb(59,43,41)"/><path d=" M 1722.136 422.15 L 1727.136 422.15 L 1727.136 426.961 L 1722.136 426.961 L 1722.136 422.15 Z " fill="rgb(59,43,41)"/><path d=" M 1722.136 412.527 L 1727.136 412.527 L 1727.136 417.338 L 1722.136 417.338 L 1722.136 412.527 Z " fill="rgb(59,43,41)"/><path d=" M 1722.136 431.772 L 1727.136 431.772 L 1727.136 436.583 L 1722.136 436.583 L 1722.136 431.772 Z " fill="rgb(59,43,41)"/><path d=" M 1722.136 422.15 L 1727.136 422.15 L 1727.136 426.961 L 1722.136 426.961 L 1722.136 422.15 Z " fill="rgb(59,43,41)"/><path d=" M 1722.136 441.395 L 1727.136 441.395 L 1727.136 446.206 L 1722.136 446.206 L 1722.136 441.395 Z " fill="rgb(59,43,41)"/><path d=" M 1722.136 451.017 L 1727.136 451.017 L 1727.136 455.828 L 1722.136 455.828 L 1722.136 451.017 Z " fill="rgb(59,43,41)"/><path d=" M 1722.136 518.394 L 1727.136 518.394 L 1727.136 523.205 L 1722.136 523.205 L 1722.136 518.394 Z " fill="rgb(59,43,41)"/><path d=" M 1722.136 537.639 L 1727.136 537.639 L 1727.136 542.45 L 1722.136 542.45 L 1722.136 537.639 Z " fill="rgb(59,43,41)"/><path d=" M 1722.136 528.016 L 1727.136 528.016 L 1727.136 532.827 L 1722.136 532.827 L 1722.136 528.016 Z " fill="rgb(59,43,41)"/><path d=" M 1722.136 547.261 L 1727.136 547.261 L 1727.136 552.072 L 1722.136 552.072 L 1722.136 547.261 Z " fill="rgb(59,43,41)"/><path d=" M 1722.136 556.884 L 1727.136 556.884 L 1727.136 561.695 L 1722.136 561.695 L 1722.136 556.884 Z " fill="rgb(59,43,41)"/><path d=" M 1722.136 749.296 L 1727.136 749.296 L 1727.136 754.107 L 1722.136 754.107 L 1722.136 749.296 Z " fill="rgb(59,43,41)"/><path d=" M 1722.136 547.261 L 1727.136 547.261 L 1727.136 552.072 L 1722.136 552.072 L 1722.136 547.261 Z " fill="rgb(59,43,41)"/><path d=" M 1722.136 566.506 L 1727.136 566.506 L 1727.136 571.317 L 1722.136 571.317 L 1722.136 566.506 Z " fill="rgb(59,43,41)"/><path d=" M 1722.136 758.918 L 1727.136 758.918 L 1727.136 763.73 L 1722.136 763.73 L 1722.136 758.918 Z " fill="rgb(59,43,41)"/><path d=" M 1722.136 556.884 L 1727.136 556.884 L 1727.136 561.695 L 1722.136 561.695 L 1722.136 556.884 Z " fill="rgb(59,43,41)"/><path d=" M 1722.136 749.296 L 1727.136 749.296 L 1727.136 754.107 L 1722.136 754.107 L 1722.136 749.296 Z " fill="rgb(59,43,41)"/><path d=" M 1722.136 576.129 L 1727.136 576.129 L 1727.136 580.94 L 1722.136 580.94 L 1722.136 576.129 Z " fill="rgb(59,43,41)"/><path d=" M 1722.136 768.541 L 1727.136 768.541 L 1727.136 773.352 L 1722.136 773.352 L 1722.136 768.541 Z " fill="rgb(59,43,41)"/><path d=" M 1722.136 585.751 L 1727.136 585.751 L 1727.136 590.562 L 1722.136 590.562 L 1722.136 585.751 Z " fill="rgb(59,43,41)"/><path d=" M 1722.136 778.163 L 1727.136 778.163 L 1727.136 782.975 L 1722.136 782.975 L 1722.136 778.163 Z " fill="rgb(59,43,41)"/><path d=" M 1722.136 451.055 L 1727.136 451.055 L 1727.136 455.866 L 1722.136 455.866 L 1722.136 451.055 Z " fill="rgb(59,43,41)"/><path d=" M 1722.136 470.3 L 1727.136 470.3 L 1727.136 475.111 L 1722.136 475.111 L 1722.136 470.3 Z " fill="rgb(59,43,41)"/><path d=" M 1722.136 460.677 L 1727.136 460.677 L 1727.136 465.489 L 1722.136 465.489 L 1722.136 460.677 Z " fill="rgb(59,43,41)"/><path d=" M 1722.136 479.922 L 1727.136 479.922 L 1727.136 484.734 L 1722.136 484.734 L 1722.136 479.922 Z " fill="rgb(59,43,41)"/><path d=" M 1722.136 489.545 L 1727.136 489.545 L 1727.136 494.356 L 1722.136 494.356 L 1722.136 489.545 Z " fill="rgb(59,43,41)"/><path d=" M 1722.136 479.922 L 1727.136 479.922 L 1727.136 484.734 L 1722.136 484.734 L 1722.136 479.922 Z " fill="rgb(59,43,41)"/><path d=" M 1722.136 499.167 L 1727.136 499.167 L 1727.136 503.979 L 1722.136 503.979 L 1722.136 499.167 Z " fill="rgb(59,43,41)"/><path d=" M 1722.136 489.545 L 1727.136 489.545 L 1727.136 494.356 L 1722.136 494.356 L 1722.136 489.545 Z " fill="rgb(59,43,41)"/><path d=" M 1722.136 508.79 L 1727.136 508.79 L 1727.136 513.601 L 1722.136 513.601 L 1722.136 508.79 Z " fill="rgb(59,43,41)"/><path d=" M 1722.136 518.412 L 1727.136 518.412 L 1727.136 523.224 L 1722.136 523.224 L 1722.136 518.412 Z " fill="rgb(59,43,41)"/><path d=" M 1722.136 585.789 L 1727.136 585.789 L 1727.136 590.6 L 1722.136 590.6 L 1722.136 585.789 Z " fill="rgb(59,43,41)"/><path d=" M 1722.136 778.201 L 1727.136 778.201 L 1727.136 783.012 L 1722.136 783.012 L 1722.136 778.201 Z " fill="rgb(59,43,41)"/><path d=" M 1722.136 605.034 L 1727.136 605.034 L 1727.136 609.845 L 1722.136 609.845 L 1722.136 605.034 Z " fill="rgb(59,43,41)"/><path d=" M 1722.136 797.446 L 1727.136 797.446 L 1727.136 802.257 L 1722.136 802.257 L 1722.136 797.446 Z " fill="rgb(59,43,41)"/><path d=" M 1722.136 595.411 L 1727.136 595.411 L 1727.136 600.223 L 1722.136 600.223 L 1722.136 595.411 Z " fill="rgb(59,43,41)"/><path d=" M 1722.136 787.824 L 1727.136 787.824 L 1727.136 792.635 L 1722.136 792.635 L 1722.136 787.824 Z " fill="rgb(59,43,41)"/><path d=" M 1722.136 614.656 L 1727.136 614.656 L 1727.136 619.468 L 1722.136 619.468 L 1722.136 614.656 Z " fill="rgb(59,43,41)"/><path d=" M 1722.136 807.069 L 1727.136 807.069 L 1727.136 811.88 L 1722.136 811.88 L 1722.136 807.069 Z " fill="rgb(59,43,41)"/><path d=" M 1722.136 624.279 L 1727.136 624.279 L 1727.136 629.09 L 1722.136 629.09 L 1722.136 624.279 Z " fill="rgb(59,43,41)"/><path d=" M 1722.136 816.691 L 1727.136 816.691 L 1727.136 821.502 L 1722.136 821.502 L 1722.136 816.691 Z " fill="rgb(59,43,41)"/><path d=" M 1722.136 614.656 L 1727.136 614.656 L 1727.136 619.468 L 1722.136 619.468 L 1722.136 614.656 Z " fill="rgb(59,43,41)"/><path d=" M 1722.136 807.069 L 1727.136 807.069 L 1727.136 811.88 L 1722.136 811.88 L 1722.136 807.069 Z " fill="rgb(59,43,41)"/><path d=" M 1722.136 633.901 L 1727.136 633.901 L 1727.136 638.713 L 1722.136 638.713 L 1722.136 633.901 Z " fill="rgb(59,43,41)"/><path d=" M 1722.136 826.314 L 1727.136 826.314 L 1727.136 831.125 L 1722.136 831.125 L 1722.136 826.314 Z " fill="rgb(59,43,41)"/><path d=" M 1722.136 624.279 L 1727.136 624.279 L 1727.136 629.09 L 1722.136 629.09 L 1722.136 624.279 Z " fill="rgb(59,43,41)"/><path d=" M 1722.136 816.691 L 1727.136 816.691 L 1727.136 821.502 L 1722.136 821.502 L 1722.136 816.691 Z " fill="rgb(59,43,41)"/><path d=" M 1722.136 643.524 L 1727.136 643.524 L 1727.136 648.335 L 1722.136 648.335 L 1722.136 643.524 Z " fill="rgb(59,43,41)"/><path d=" M 1722.136 835.936 L 1727.136 835.936 L 1727.136 840.747 L 1722.136 840.747 L 1722.136 835.936 Z " fill="rgb(59,43,41)"/><path d=" M 1722.136 653.146 L 1727.136 653.146 L 1727.136 657.958 L 1722.136 657.958 L 1722.136 653.146 Z " fill="rgb(59,43,41)"/><path d=" M 1722.136 845.559 L 1727.136 845.559 L 1727.136 850.37 L 1722.136 850.37 L 1722.136 845.559 Z " fill="rgb(59,43,41)"/><path d=" M 1722.136 653.127 L 1727.136 653.127 L 1727.136 657.939 L 1722.136 657.939 L 1722.136 653.127 Z " fill="rgb(59,43,41)"/><path d=" M 1722.136 845.54 L 1727.136 845.54 L 1727.136 850.351 L 1722.136 850.351 L 1722.136 845.54 Z " fill="rgb(59,43,41)"/><path d=" M 1722.136 672.372 L 1727.136 672.372 L 1727.136 677.184 L 1722.136 677.184 L 1722.136 672.372 Z " fill="rgb(59,43,41)"/><path d=" M 1722.136 864.785 L 1727.136 864.785 L 1727.136 869.596 L 1722.136 869.596 L 1722.136 864.785 Z " fill="rgb(59,43,41)"/><path d=" M 1722.136 662.75 L 1727.136 662.75 L 1727.136 667.561 L 1722.136 667.561 L 1722.136 662.75 Z " fill="rgb(59,43,41)"/><path d=" M 1722.136 855.162 L 1727.136 855.162 L 1727.136 859.974 L 1722.136 859.974 L 1722.136 855.162 Z " fill="rgb(59,43,41)"/><path d=" M 1722.136 681.995 L 1727.136 681.995 L 1727.136 686.806 L 1722.136 686.806 L 1722.136 681.995 Z " fill="rgb(59,43,41)"/><path d=" M 1722.136 874.407 L 1727.136 874.407 L 1727.136 879.219 L 1722.136 879.219 L 1722.136 874.407 Z " fill="rgb(59,43,41)"/><path d=" M 1722.136 691.617 L 1727.136 691.617 L 1727.136 696.429 L 1722.136 696.429 L 1722.136 691.617 Z " fill="rgb(59,43,41)"/><path d=" M 1722.136 884.03 L 1727.136 884.03 L 1727.136 888.841 L 1722.136 888.841 L 1722.136 884.03 Z " fill="rgb(59,43,41)"/><path d=" M 1722.136 681.995 L 1727.136 681.995 L 1727.136 686.806 L 1722.136 686.806 L 1722.136 681.995 Z " fill="rgb(59,43,41)"/><path d=" M 1722.136 874.407 L 1727.136 874.407 L 1727.136 879.219 L 1722.136 879.219 L 1722.136 874.407 Z " fill="rgb(59,43,41)"/><path d=" M 1722.136 701.24 L 1727.136 701.24 L 1727.136 706.051 L 1722.136 706.051 L 1722.136 701.24 Z " fill="rgb(59,43,41)"/><path d=" M 1722.136 893.652 L 1727.136 893.652 L 1727.136 898.464 L 1722.136 898.464 L 1722.136 893.652 Z " fill="rgb(59,43,41)"/><path d=" M 1722.136 691.617 L 1727.136 691.617 L 1727.136 696.429 L 1722.136 696.429 L 1722.136 691.617 Z " fill="rgb(59,43,41)"/><path d=" M 1722.136 884.03 L 1727.136 884.03 L 1727.136 888.841 L 1722.136 888.841 L 1722.136 884.03 Z " fill="rgb(59,43,41)"/><path d=" M 1722.136 710.862 L 1727.136 710.862 L 1727.136 715.674 L 1722.136 715.674 L 1722.136 710.862 Z " fill="rgb(59,43,41)"/><path d=" M 1722.136 903.275 L 1727.136 903.275 L 1727.136 908.086 L 1722.136 908.086 L 1722.136 903.275 Z " fill="rgb(59,43,41)"/><path d=" M 1722.136 720.485 L 1727.136 720.485 L 1727.136 725.296 L 1722.136 725.296 L 1722.136 720.485 Z " fill="rgb(59,43,41)"/><path d=" M 1722.136 912.897 L 1727.136 912.897 L 1727.136 917.709 L 1722.136 917.709 L 1722.136 912.897 Z " fill="rgb(59,43,41)"/><path d=" M 1722.136 720.485 L 1727.136 720.485 L 1727.136 725.296 L 1722.136 725.296 L 1722.136 720.485 Z " fill="rgb(59,43,41)"/><path d=" M 1722.136 912.897 L 1727.136 912.897 L 1727.136 917.709 L 1722.136 917.709 L 1722.136 912.897 Z " fill="rgb(59,43,41)"/><path d=" M 1722.136 739.73 L 1727.136 739.73 L 1727.136 744.541 L 1722.136 744.541 L 1722.136 739.73 Z " fill="rgb(59,43,41)"/><path d=" M 1722.136 932.142 L 1727.136 932.142 L 1727.136 936.954 L 1722.136 936.954 L 1722.136 932.142 Z " fill="rgb(59,43,41)"/><path d=" M 1722.136 730.107 L 1727.136 730.107 L 1727.136 734.919 L 1722.136 734.919 L 1722.136 730.107 Z " fill="rgb(59,43,41)"/><path d=" M 1722.136 922.52 L 1727.136 922.52 L 1727.136 927.331 L 1722.136 927.331 L 1722.136 922.52 Z " fill="rgb(59,43,41)"/><path d=" M 1722.136 749.352 L 1727.136 749.352 L 1727.136 754.164 L 1722.136 754.164 L 1722.136 749.352 Z " fill="rgb(59,43,41)"/><path d=" M 1722.136 941.765 L 1727.136 941.765 L 1727.136 946.576 L 1722.136 946.576 L 1722.136 941.765 Z " fill="rgb(59,43,41)"/><path d=" M 1722.136 941.765 L 1727.136 941.765 L 1727.136 946.576 L 1722.136 946.576 L 1722.136 941.765 Z " fill="rgb(59,43,41)"/></g><g id="Group"><path d=" M 1734.136 383.66 L 1739.136 383.66 L 1739.136 388.471 L 1734.136 388.471 L 1734.136 383.66 Z " fill="rgb(59,43,41)"/><path d=" M 1734.136 402.905 L 1739.136 402.905 L 1739.136 407.716 L 1734.136 407.716 L 1734.136 402.905 Z " fill="rgb(59,43,41)"/><path d=" M 1734.136 393.282 L 1739.136 393.282 L 1739.136 398.093 L 1734.136 398.093 L 1734.136 393.282 Z " fill="rgb(59,43,41)"/><path d=" M 1734.136 412.527 L 1739.136 412.527 L 1739.136 417.338 L 1734.136 417.338 L 1734.136 412.527 Z " fill="rgb(59,43,41)"/><path d=" M 1734.136 422.15 L 1739.136 422.15 L 1739.136 426.961 L 1734.136 426.961 L 1734.136 422.15 Z " fill="rgb(59,43,41)"/><path d=" M 1734.136 412.527 L 1739.136 412.527 L 1739.136 417.338 L 1734.136 417.338 L 1734.136 412.527 Z " fill="rgb(59,43,41)"/><path d=" M 1734.136 431.772 L 1739.136 431.772 L 1739.136 436.583 L 1734.136 436.583 L 1734.136 431.772 Z " fill="rgb(59,43,41)"/><path d=" M 1734.136 422.15 L 1739.136 422.15 L 1739.136 426.961 L 1734.136 426.961 L 1734.136 422.15 Z " fill="rgb(59,43,41)"/><path d=" M 1734.136 441.395 L 1739.136 441.395 L 1739.136 446.206 L 1734.136 446.206 L 1734.136 441.395 Z " fill="rgb(59,43,41)"/><path d=" M 1734.136 451.017 L 1739.136 451.017 L 1739.136 455.828 L 1734.136 455.828 L 1734.136 451.017 Z " fill="rgb(59,43,41)"/><path d=" M 1734.136 518.394 L 1739.136 518.394 L 1739.136 523.205 L 1734.136 523.205 L 1734.136 518.394 Z " fill="rgb(59,43,41)"/><path d=" M 1734.136 537.639 L 1739.136 537.639 L 1739.136 542.45 L 1734.136 542.45 L 1734.136 537.639 Z " fill="rgb(59,43,41)"/><path d=" M 1734.136 528.016 L 1739.136 528.016 L 1739.136 532.827 L 1734.136 532.827 L 1734.136 528.016 Z " fill="rgb(59,43,41)"/><path d=" M 1734.136 547.261 L 1739.136 547.261 L 1739.136 552.072 L 1734.136 552.072 L 1734.136 547.261 Z " fill="rgb(59,43,41)"/><path d=" M 1734.136 556.884 L 1739.136 556.884 L 1739.136 561.695 L 1734.136 561.695 L 1734.136 556.884 Z " fill="rgb(59,43,41)"/><path d=" M 1734.136 749.296 L 1739.136 749.296 L 1739.136 754.107 L 1734.136 754.107 L 1734.136 749.296 Z " fill="rgb(59,43,41)"/><path d=" M 1734.136 547.261 L 1739.136 547.261 L 1739.136 552.072 L 1734.136 552.072 L 1734.136 547.261 Z " fill="rgb(59,43,41)"/><path d=" M 1734.136 566.506 L 1739.136 566.506 L 1739.136 571.317 L 1734.136 571.317 L 1734.136 566.506 Z " fill="rgb(59,43,41)"/><path d=" M 1734.136 758.918 L 1739.136 758.918 L 1739.136 763.73 L 1734.136 763.73 L 1734.136 758.918 Z " fill="rgb(59,43,41)"/><path d=" M 1734.136 556.884 L 1739.136 556.884 L 1739.136 561.695 L 1734.136 561.695 L 1734.136 556.884 Z " fill="rgb(59,43,41)"/><path d=" M 1734.136 749.296 L 1739.136 749.296 L 1739.136 754.107 L 1734.136 754.107 L 1734.136 749.296 Z " fill="rgb(59,43,41)"/><path d=" M 1734.136 576.129 L 1739.136 576.129 L 1739.136 580.94 L 1734.136 580.94 L 1734.136 576.129 Z " fill="rgb(59,43,41)"/><path d=" M 1734.136 768.541 L 1739.136 768.541 L 1739.136 773.352 L 1734.136 773.352 L 1734.136 768.541 Z " fill="rgb(59,43,41)"/><path d=" M 1734.136 585.751 L 1739.136 585.751 L 1739.136 590.562 L 1734.136 590.562 L 1734.136 585.751 Z " fill="rgb(59,43,41)"/><path d=" M 1734.136 778.163 L 1739.136 778.163 L 1739.136 782.975 L 1734.136 782.975 L 1734.136 778.163 Z " fill="rgb(59,43,41)"/><path d=" M 1734.136 451.055 L 1739.136 451.055 L 1739.136 455.866 L 1734.136 455.866 L 1734.136 451.055 Z " fill="rgb(59,43,41)"/><path d=" M 1734.136 470.3 L 1739.136 470.3 L 1739.136 475.111 L 1734.136 475.111 L 1734.136 470.3 Z " fill="rgb(59,43,41)"/><path d=" M 1734.136 460.677 L 1739.136 460.677 L 1739.136 465.489 L 1734.136 465.489 L 1734.136 460.677 Z " fill="rgb(59,43,41)"/><path d=" M 1734.136 479.922 L 1739.136 479.922 L 1739.136 484.734 L 1734.136 484.734 L 1734.136 479.922 Z " fill="rgb(59,43,41)"/><path d=" M 1734.136 489.545 L 1739.136 489.545 L 1739.136 494.356 L 1734.136 494.356 L 1734.136 489.545 Z " fill="rgb(59,43,41)"/><path d=" M 1734.136 479.922 L 1739.136 479.922 L 1739.136 484.734 L 1734.136 484.734 L 1734.136 479.922 Z " fill="rgb(59,43,41)"/><path d=" M 1734.136 499.167 L 1739.136 499.167 L 1739.136 503.979 L 1734.136 503.979 L 1734.136 499.167 Z " fill="rgb(59,43,41)"/><path d=" M 1734.136 489.545 L 1739.136 489.545 L 1739.136 494.356 L 1734.136 494.356 L 1734.136 489.545 Z " fill="rgb(59,43,41)"/><path d=" M 1734.136 508.79 L 1739.136 508.79 L 1739.136 513.601 L 1734.136 513.601 L 1734.136 508.79 Z " fill="rgb(59,43,41)"/><path d=" M 1734.136 518.412 L 1739.136 518.412 L 1739.136 523.224 L 1734.136 523.224 L 1734.136 518.412 Z " fill="rgb(59,43,41)"/><path d=" M 1734.136 585.789 L 1739.136 585.789 L 1739.136 590.6 L 1734.136 590.6 L 1734.136 585.789 Z " fill="rgb(59,43,41)"/><path d=" M 1734.136 778.201 L 1739.136 778.201 L 1739.136 783.012 L 1734.136 783.012 L 1734.136 778.201 Z " fill="rgb(59,43,41)"/><path d=" M 1734.136 605.034 L 1739.136 605.034 L 1739.136 609.845 L 1734.136 609.845 L 1734.136 605.034 Z " fill="rgb(59,43,41)"/><path d=" M 1734.136 797.446 L 1739.136 797.446 L 1739.136 802.257 L 1734.136 802.257 L 1734.136 797.446 Z " fill="rgb(59,43,41)"/><path d=" M 1734.136 595.411 L 1739.136 595.411 L 1739.136 600.223 L 1734.136 600.223 L 1734.136 595.411 Z " fill="rgb(59,43,41)"/><path d=" M 1734.136 787.824 L 1739.136 787.824 L 1739.136 792.635 L 1734.136 792.635 L 1734.136 787.824 Z " fill="rgb(59,43,41)"/><path d=" M 1734.136 614.656 L 1739.136 614.656 L 1739.136 619.468 L 1734.136 619.468 L 1734.136 614.656 Z " fill="rgb(59,43,41)"/><path d=" M 1734.136 807.069 L 1739.136 807.069 L 1739.136 811.88 L 1734.136 811.88 L 1734.136 807.069 Z " fill="rgb(59,43,41)"/><path d=" M 1734.136 624.279 L 1739.136 624.279 L 1739.136 629.09 L 1734.136 629.09 L 1734.136 624.279 Z " fill="rgb(59,43,41)"/><path d=" M 1734.136 816.691 L 1739.136 816.691 L 1739.136 821.502 L 1734.136 821.502 L 1734.136 816.691 Z " fill="rgb(59,43,41)"/><path d=" M 1734.136 614.656 L 1739.136 614.656 L 1739.136 619.468 L 1734.136 619.468 L 1734.136 614.656 Z " fill="rgb(59,43,41)"/><path d=" M 1734.136 807.069 L 1739.136 807.069 L 1739.136 811.88 L 1734.136 811.88 L 1734.136 807.069 Z " fill="rgb(59,43,41)"/><path d=" M 1734.136 633.901 L 1739.136 633.901 L 1739.136 638.713 L 1734.136 638.713 L 1734.136 633.901 Z " fill="rgb(59,43,41)"/><path d=" M 1734.136 826.314 L 1739.136 826.314 L 1739.136 831.125 L 1734.136 831.125 L 1734.136 826.314 Z " fill="rgb(59,43,41)"/><path d=" M 1734.136 624.279 L 1739.136 624.279 L 1739.136 629.09 L 1734.136 629.09 L 1734.136 624.279 Z " fill="rgb(59,43,41)"/><path d=" M 1734.136 816.691 L 1739.136 816.691 L 1739.136 821.502 L 1734.136 821.502 L 1734.136 816.691 Z " fill="rgb(59,43,41)"/><path d=" M 1734.136 643.524 L 1739.136 643.524 L 1739.136 648.335 L 1734.136 648.335 L 1734.136 643.524 Z " fill="rgb(59,43,41)"/><path d=" M 1734.136 835.936 L 1739.136 835.936 L 1739.136 840.747 L 1734.136 840.747 L 1734.136 835.936 Z " fill="rgb(59,43,41)"/><path d=" M 1734.136 653.146 L 1739.136 653.146 L 1739.136 657.958 L 1734.136 657.958 L 1734.136 653.146 Z " fill="rgb(59,43,41)"/><path d=" M 1734.136 845.559 L 1739.136 845.559 L 1739.136 850.37 L 1734.136 850.37 L 1734.136 845.559 Z " fill="rgb(59,43,41)"/><path d=" M 1734.136 653.127 L 1739.136 653.127 L 1739.136 657.939 L 1734.136 657.939 L 1734.136 653.127 Z " fill="rgb(59,43,41)"/><path d=" M 1734.136 845.54 L 1739.136 845.54 L 1739.136 850.351 L 1734.136 850.351 L 1734.136 845.54 Z " fill="rgb(59,43,41)"/><path d=" M 1734.136 672.372 L 1739.136 672.372 L 1739.136 677.184 L 1734.136 677.184 L 1734.136 672.372 Z " fill="rgb(59,43,41)"/><path d=" M 1734.136 864.785 L 1739.136 864.785 L 1739.136 869.596 L 1734.136 869.596 L 1734.136 864.785 Z " fill="rgb(59,43,41)"/><path d=" M 1734.136 662.75 L 1739.136 662.75 L 1739.136 667.561 L 1734.136 667.561 L 1734.136 662.75 Z " fill="rgb(59,43,41)"/><path d=" M 1734.136 855.162 L 1739.136 855.162 L 1739.136 859.974 L 1734.136 859.974 L 1734.136 855.162 Z " fill="rgb(59,43,41)"/><path d=" M 1734.136 681.995 L 1739.136 681.995 L 1739.136 686.806 L 1734.136 686.806 L 1734.136 681.995 Z " fill="rgb(59,43,41)"/><path d=" M 1734.136 874.407 L 1739.136 874.407 L 1739.136 879.219 L 1734.136 879.219 L 1734.136 874.407 Z " fill="rgb(59,43,41)"/><path d=" M 1734.136 691.617 L 1739.136 691.617 L 1739.136 696.429 L 1734.136 696.429 L 1734.136 691.617 Z " fill="rgb(59,43,41)"/><path d=" M 1734.136 884.03 L 1739.136 884.03 L 1739.136 888.841 L 1734.136 888.841 L 1734.136 884.03 Z " fill="rgb(59,43,41)"/><path d=" M 1734.136 681.995 L 1739.136 681.995 L 1739.136 686.806 L 1734.136 686.806 L 1734.136 681.995 Z " fill="rgb(59,43,41)"/><path d=" M 1734.136 874.407 L 1739.136 874.407 L 1739.136 879.219 L 1734.136 879.219 L 1734.136 874.407 Z " fill="rgb(59,43,41)"/><path d=" M 1734.136 701.24 L 1739.136 701.24 L 1739.136 706.051 L 1734.136 706.051 L 1734.136 701.24 Z " fill="rgb(59,43,41)"/><path d=" M 1734.136 893.652 L 1739.136 893.652 L 1739.136 898.464 L 1734.136 898.464 L 1734.136 893.652 Z " fill="rgb(59,43,41)"/><path d=" M 1734.136 691.617 L 1739.136 691.617 L 1739.136 696.429 L 1734.136 696.429 L 1734.136 691.617 Z " fill="rgb(59,43,41)"/><path d=" M 1734.136 884.03 L 1739.136 884.03 L 1739.136 888.841 L 1734.136 888.841 L 1734.136 884.03 Z " fill="rgb(59,43,41)"/><path d=" M 1734.136 710.862 L 1739.136 710.862 L 1739.136 715.674 L 1734.136 715.674 L 1734.136 710.862 Z " fill="rgb(59,43,41)"/><path d=" M 1734.136 903.275 L 1739.136 903.275 L 1739.136 908.086 L 1734.136 908.086 L 1734.136 903.275 Z " fill="rgb(59,43,41)"/><path d=" M 1734.136 720.485 L 1739.136 720.485 L 1739.136 725.296 L 1734.136 725.296 L 1734.136 720.485 Z " fill="rgb(59,43,41)"/><path d=" M 1734.136 912.897 L 1739.136 912.897 L 1739.136 917.709 L 1734.136 917.709 L 1734.136 912.897 Z " fill="rgb(59,43,41)"/><path d=" M 1734.136 720.485 L 1739.136 720.485 L 1739.136 725.296 L 1734.136 725.296 L 1734.136 720.485 Z " fill="rgb(59,43,41)"/><path d=" M 1734.136 912.897 L 1739.136 912.897 L 1739.136 917.709 L 1734.136 917.709 L 1734.136 912.897 Z " fill="rgb(59,43,41)"/><path d=" M 1734.136 739.73 L 1739.136 739.73 L 1739.136 744.541 L 1734.136 744.541 L 1734.136 739.73 Z " fill="rgb(59,43,41)"/><path d=" M 1734.136 932.142 L 1739.136 932.142 L 1739.136 936.954 L 1734.136 936.954 L 1734.136 932.142 Z " fill="rgb(59,43,41)"/><path d=" M 1734.136 730.107 L 1739.136 730.107 L 1739.136 734.919 L 1734.136 734.919 L 1734.136 730.107 Z " fill="rgb(59,43,41)"/><path d=" M 1734.136 922.52 L 1739.136 922.52 L 1739.136 927.331 L 1734.136 927.331 L 1734.136 922.52 Z " fill="rgb(59,43,41)"/><path d=" M 1734.136 749.352 L 1739.136 749.352 L 1739.136 754.164 L 1734.136 754.164 L 1734.136 749.352 Z " fill="rgb(59,43,41)"/><path d=" M 1734.136 941.765 L 1739.136 941.765 L 1739.136 946.576 L 1734.136 946.576 L 1734.136 941.765 Z " fill="rgb(59,43,41)"/><path d=" M 1734.136 941.765 L 1739.136 941.765 L 1739.136 946.576 L 1734.136 946.576 L 1734.136 941.765 Z " fill="rgb(59,43,41)"/></g><g id="Group"><path d=" M 1746.136 383.66 L 1751.136 383.66 L 1751.136 388.471 L 1746.136 388.471 L 1746.136 383.66 Z " fill="rgb(59,43,41)"/><path d=" M 1746.136 402.905 L 1751.136 402.905 L 1751.136 407.716 L 1746.136 407.716 L 1746.136 402.905 Z " fill="rgb(59,43,41)"/><path d=" M 1746.136 393.282 L 1751.136 393.282 L 1751.136 398.093 L 1746.136 398.093 L 1746.136 393.282 Z " fill="rgb(59,43,41)"/><path d=" M 1746.136 412.527 L 1751.136 412.527 L 1751.136 417.338 L 1746.136 417.338 L 1746.136 412.527 Z " fill="rgb(59,43,41)"/><path d=" M 1746.136 422.15 L 1751.136 422.15 L 1751.136 426.961 L 1746.136 426.961 L 1746.136 422.15 Z " fill="rgb(59,43,41)"/><path d=" M 1746.136 412.527 L 1751.136 412.527 L 1751.136 417.338 L 1746.136 417.338 L 1746.136 412.527 Z " fill="rgb(59,43,41)"/><path d=" M 1746.136 431.772 L 1751.136 431.772 L 1751.136 436.583 L 1746.136 436.583 L 1746.136 431.772 Z " fill="rgb(59,43,41)"/><path d=" M 1746.136 422.15 L 1751.136 422.15 L 1751.136 426.961 L 1746.136 426.961 L 1746.136 422.15 Z " fill="rgb(59,43,41)"/><path d=" M 1746.136 441.395 L 1751.136 441.395 L 1751.136 446.206 L 1746.136 446.206 L 1746.136 441.395 Z " fill="rgb(59,43,41)"/><path d=" M 1746.136 451.017 L 1751.136 451.017 L 1751.136 455.828 L 1746.136 455.828 L 1746.136 451.017 Z " fill="rgb(59,43,41)"/><path d=" M 1746.136 518.394 L 1751.136 518.394 L 1751.136 523.205 L 1746.136 523.205 L 1746.136 518.394 Z " fill="rgb(59,43,41)"/><path d=" M 1746.136 537.639 L 1751.136 537.639 L 1751.136 542.45 L 1746.136 542.45 L 1746.136 537.639 Z " fill="rgb(59,43,41)"/><path d=" M 1746.136 528.016 L 1751.136 528.016 L 1751.136 532.827 L 1746.136 532.827 L 1746.136 528.016 Z " fill="rgb(59,43,41)"/><path d=" M 1746.136 547.261 L 1751.136 547.261 L 1751.136 552.072 L 1746.136 552.072 L 1746.136 547.261 Z " fill="rgb(59,43,41)"/><path d=" M 1746.136 556.884 L 1751.136 556.884 L 1751.136 561.695 L 1746.136 561.695 L 1746.136 556.884 Z " fill="rgb(59,43,41)"/><path d=" M 1746.136 749.296 L 1751.136 749.296 L 1751.136 754.107 L 1746.136 754.107 L 1746.136 749.296 Z " fill="rgb(59,43,41)"/><path d=" M 1746.136 547.261 L 1751.136 547.261 L 1751.136 552.072 L 1746.136 552.072 L 1746.136 547.261 Z " fill="rgb(59,43,41)"/><path d=" M 1746.136 566.506 L 1751.136 566.506 L 1751.136 571.317 L 1746.136 571.317 L 1746.136 566.506 Z " fill="rgb(59,43,41)"/><path d=" M 1746.136 758.918 L 1751.136 758.918 L 1751.136 763.73 L 1746.136 763.73 L 1746.136 758.918 Z " fill="rgb(59,43,41)"/><path d=" M 1746.136 556.884 L 1751.136 556.884 L 1751.136 561.695 L 1746.136 561.695 L 1746.136 556.884 Z " fill="rgb(59,43,41)"/><path d=" M 1746.136 749.296 L 1751.136 749.296 L 1751.136 754.107 L 1746.136 754.107 L 1746.136 749.296 Z " fill="rgb(59,43,41)"/><path d=" M 1746.136 576.129 L 1751.136 576.129 L 1751.136 580.94 L 1746.136 580.94 L 1746.136 576.129 Z " fill="rgb(59,43,41)"/><path d=" M 1746.136 768.541 L 1751.136 768.541 L 1751.136 773.352 L 1746.136 773.352 L 1746.136 768.541 Z " fill="rgb(59,43,41)"/><path d=" M 1746.136 585.751 L 1751.136 585.751 L 1751.136 590.562 L 1746.136 590.562 L 1746.136 585.751 Z " fill="rgb(59,43,41)"/><path d=" M 1746.136 778.163 L 1751.136 778.163 L 1751.136 782.975 L 1746.136 782.975 L 1746.136 778.163 Z " fill="rgb(59,43,41)"/><path d=" M 1746.136 451.055 L 1751.136 451.055 L 1751.136 455.866 L 1746.136 455.866 L 1746.136 451.055 Z " fill="rgb(59,43,41)"/><path d=" M 1746.136 470.3 L 1751.136 470.3 L 1751.136 475.111 L 1746.136 475.111 L 1746.136 470.3 Z " fill="rgb(59,43,41)"/><path d=" M 1746.136 460.677 L 1751.136 460.677 L 1751.136 465.489 L 1746.136 465.489 L 1746.136 460.677 Z " fill="rgb(59,43,41)"/><path d=" M 1746.136 479.922 L 1751.136 479.922 L 1751.136 484.734 L 1746.136 484.734 L 1746.136 479.922 Z " fill="rgb(59,43,41)"/><path d=" M 1746.136 489.545 L 1751.136 489.545 L 1751.136 494.356 L 1746.136 494.356 L 1746.136 489.545 Z " fill="rgb(59,43,41)"/><path d=" M 1746.136 479.922 L 1751.136 479.922 L 1751.136 484.734 L 1746.136 484.734 L 1746.136 479.922 Z " fill="rgb(59,43,41)"/><path d=" M 1746.136 499.167 L 1751.136 499.167 L 1751.136 503.979 L 1746.136 503.979 L 1746.136 499.167 Z " fill="rgb(59,43,41)"/><path d=" M 1746.136 489.545 L 1751.136 489.545 L 1751.136 494.356 L 1746.136 494.356 L 1746.136 489.545 Z " fill="rgb(59,43,41)"/><path d=" M 1746.136 508.79 L 1751.136 508.79 L 1751.136 513.601 L 1746.136 513.601 L 1746.136 508.79 Z " fill="rgb(59,43,41)"/><path d=" M 1746.136 518.412 L 1751.136 518.412 L 1751.136 523.224 L 1746.136 523.224 L 1746.136 518.412 Z " fill="rgb(59,43,41)"/><path d=" M 1746.136 585.789 L 1751.136 585.789 L 1751.136 590.6 L 1746.136 590.6 L 1746.136 585.789 Z " fill="rgb(59,43,41)"/><path d=" M 1746.136 778.201 L 1751.136 778.201 L 1751.136 783.012 L 1746.136 783.012 L 1746.136 778.201 Z " fill="rgb(59,43,41)"/><path d=" M 1746.136 605.034 L 1751.136 605.034 L 1751.136 609.845 L 1746.136 609.845 L 1746.136 605.034 Z " fill="rgb(59,43,41)"/><path d=" M 1746.136 797.446 L 1751.136 797.446 L 1751.136 802.257 L 1746.136 802.257 L 1746.136 797.446 Z " fill="rgb(59,43,41)"/><path d=" M 1746.136 595.411 L 1751.136 595.411 L 1751.136 600.223 L 1746.136 600.223 L 1746.136 595.411 Z " fill="rgb(59,43,41)"/><path d=" M 1746.136 787.824 L 1751.136 787.824 L 1751.136 792.635 L 1746.136 792.635 L 1746.136 787.824 Z " fill="rgb(59,43,41)"/><path d=" M 1746.136 614.656 L 1751.136 614.656 L 1751.136 619.468 L 1746.136 619.468 L 1746.136 614.656 Z " fill="rgb(59,43,41)"/><path d=" M 1746.136 807.069 L 1751.136 807.069 L 1751.136 811.88 L 1746.136 811.88 L 1746.136 807.069 Z " fill="rgb(59,43,41)"/><path d=" M 1746.136 624.279 L 1751.136 624.279 L 1751.136 629.09 L 1746.136 629.09 L 1746.136 624.279 Z " fill="rgb(59,43,41)"/><path d=" M 1746.136 816.691 L 1751.136 816.691 L 1751.136 821.502 L 1746.136 821.502 L 1746.136 816.691 Z " fill="rgb(59,43,41)"/><path d=" M 1746.136 614.656 L 1751.136 614.656 L 1751.136 619.468 L 1746.136 619.468 L 1746.136 614.656 Z " fill="rgb(59,43,41)"/><path d=" M 1746.136 807.069 L 1751.136 807.069 L 1751.136 811.88 L 1746.136 811.88 L 1746.136 807.069 Z " fill="rgb(59,43,41)"/><path d=" M 1746.136 633.901 L 1751.136 633.901 L 1751.136 638.713 L 1746.136 638.713 L 1746.136 633.901 Z " fill="rgb(59,43,41)"/><path d=" M 1746.136 826.314 L 1751.136 826.314 L 1751.136 831.125 L 1746.136 831.125 L 1746.136 826.314 Z " fill="rgb(59,43,41)"/><path d=" M 1746.136 624.279 L 1751.136 624.279 L 1751.136 629.09 L 1746.136 629.09 L 1746.136 624.279 Z " fill="rgb(59,43,41)"/><path d=" M 1746.136 816.691 L 1751.136 816.691 L 1751.136 821.502 L 1746.136 821.502 L 1746.136 816.691 Z " fill="rgb(59,43,41)"/><path d=" M 1746.136 643.524 L 1751.136 643.524 L 1751.136 648.335 L 1746.136 648.335 L 1746.136 643.524 Z " fill="rgb(59,43,41)"/><path d=" M 1746.136 835.936 L 1751.136 835.936 L 1751.136 840.747 L 1746.136 840.747 L 1746.136 835.936 Z " fill="rgb(59,43,41)"/><path d=" M 1746.136 653.146 L 1751.136 653.146 L 1751.136 657.958 L 1746.136 657.958 L 1746.136 653.146 Z " fill="rgb(59,43,41)"/><path d=" M 1746.136 845.559 L 1751.136 845.559 L 1751.136 850.37 L 1746.136 850.37 L 1746.136 845.559 Z " fill="rgb(59,43,41)"/><path d=" M 1746.136 653.127 L 1751.136 653.127 L 1751.136 657.939 L 1746.136 657.939 L 1746.136 653.127 Z " fill="rgb(59,43,41)"/><path d=" M 1746.136 845.54 L 1751.136 845.54 L 1751.136 850.351 L 1746.136 850.351 L 1746.136 845.54 Z " fill="rgb(59,43,41)"/><path d=" M 1746.136 672.372 L 1751.136 672.372 L 1751.136 677.184 L 1746.136 677.184 L 1746.136 672.372 Z " fill="rgb(59,43,41)"/><path d=" M 1746.136 864.785 L 1751.136 864.785 L 1751.136 869.596 L 1746.136 869.596 L 1746.136 864.785 Z " fill="rgb(59,43,41)"/><path d=" M 1746.136 662.75 L 1751.136 662.75 L 1751.136 667.561 L 1746.136 667.561 L 1746.136 662.75 Z " fill="rgb(59,43,41)"/><path d=" M 1746.136 855.162 L 1751.136 855.162 L 1751.136 859.974 L 1746.136 859.974 L 1746.136 855.162 Z " fill="rgb(59,43,41)"/><path d=" M 1746.136 681.995 L 1751.136 681.995 L 1751.136 686.806 L 1746.136 686.806 L 1746.136 681.995 Z " fill="rgb(59,43,41)"/><path d=" M 1746.136 874.407 L 1751.136 874.407 L 1751.136 879.219 L 1746.136 879.219 L 1746.136 874.407 Z " fill="rgb(59,43,41)"/><path d=" M 1746.136 691.617 L 1751.136 691.617 L 1751.136 696.429 L 1746.136 696.429 L 1746.136 691.617 Z " fill="rgb(59,43,41)"/><path d=" M 1746.136 884.03 L 1751.136 884.03 L 1751.136 888.841 L 1746.136 888.841 L 1746.136 884.03 Z " fill="rgb(59,43,41)"/><path d=" M 1746.136 681.995 L 1751.136 681.995 L 1751.136 686.806 L 1746.136 686.806 L 1746.136 681.995 Z " fill="rgb(59,43,41)"/><path d=" M 1746.136 874.407 L 1751.136 874.407 L 1751.136 879.219 L 1746.136 879.219 L 1746.136 874.407 Z " fill="rgb(59,43,41)"/><path d=" M 1746.136 701.24 L 1751.136 701.24 L 1751.136 706.051 L 1746.136 706.051 L 1746.136 701.24 Z " fill="rgb(59,43,41)"/><path d=" M 1746.136 893.652 L 1751.136 893.652 L 1751.136 898.464 L 1746.136 898.464 L 1746.136 893.652 Z " fill="rgb(59,43,41)"/><path d=" M 1746.136 691.617 L 1751.136 691.617 L 1751.136 696.429 L 1746.136 696.429 L 1746.136 691.617 Z " fill="rgb(59,43,41)"/><path d=" M 1746.136 884.03 L 1751.136 884.03 L 1751.136 888.841 L 1746.136 888.841 L 1746.136 884.03 Z " fill="rgb(59,43,41)"/><path d=" M 1746.136 710.862 L 1751.136 710.862 L 1751.136 715.674 L 1746.136 715.674 L 1746.136 710.862 Z " fill="rgb(59,43,41)"/><path d=" M 1746.136 903.275 L 1751.136 903.275 L 1751.136 908.086 L 1746.136 908.086 L 1746.136 903.275 Z " fill="rgb(59,43,41)"/><path d=" M 1746.136 720.485 L 1751.136 720.485 L 1751.136 725.296 L 1746.136 725.296 L 1746.136 720.485 Z " fill="rgb(59,43,41)"/><path d=" M 1746.136 912.897 L 1751.136 912.897 L 1751.136 917.709 L 1746.136 917.709 L 1746.136 912.897 Z " fill="rgb(59,43,41)"/><path d=" M 1746.136 720.485 L 1751.136 720.485 L 1751.136 725.296 L 1746.136 725.296 L 1746.136 720.485 Z " fill="rgb(59,43,41)"/><path d=" M 1746.136 912.897 L 1751.136 912.897 L 1751.136 917.709 L 1746.136 917.709 L 1746.136 912.897 Z " fill="rgb(59,43,41)"/><path d=" M 1746.136 739.73 L 1751.136 739.73 L 1751.136 744.541 L 1746.136 744.541 L 1746.136 739.73 Z " fill="rgb(59,43,41)"/><path d=" M 1746.136 932.142 L 1751.136 932.142 L 1751.136 936.954 L 1746.136 936.954 L 1746.136 932.142 Z " fill="rgb(59,43,41)"/><path d=" M 1746.136 730.107 L 1751.136 730.107 L 1751.136 734.919 L 1746.136 734.919 L 1746.136 730.107 Z " fill="rgb(59,43,41)"/><path d=" M 1746.136 922.52 L 1751.136 922.52 L 1751.136 927.331 L 1746.136 927.331 L 1746.136 922.52 Z " fill="rgb(59,43,41)"/><path d=" M 1746.136 749.352 L 1751.136 749.352 L 1751.136 754.164 L 1746.136 754.164 L 1746.136 749.352 Z " fill="rgb(59,43,41)"/><path d=" M 1746.136 941.765 L 1751.136 941.765 L 1751.136 946.576 L 1746.136 946.576 L 1746.136 941.765 Z " fill="rgb(59,43,41)"/><path d=" M 1746.136 941.765 L 1751.136 941.765 L 1751.136 946.576 L 1746.136 946.576 L 1746.136 941.765 Z " fill="rgb(59,43,41)"/></g><g id="Group"><path d=" M 1758.136 383.66 L 1763.136 383.66 L 1763.136 388.471 L 1758.136 388.471 L 1758.136 383.66 Z " fill="rgb(59,43,41)"/><path d=" M 1758.136 402.905 L 1763.136 402.905 L 1763.136 407.716 L 1758.136 407.716 L 1758.136 402.905 Z " fill="rgb(59,43,41)"/><path d=" M 1758.136 393.282 L 1763.136 393.282 L 1763.136 398.093 L 1758.136 398.093 L 1758.136 393.282 Z " fill="rgb(59,43,41)"/><path d=" M 1758.136 412.527 L 1763.136 412.527 L 1763.136 417.338 L 1758.136 417.338 L 1758.136 412.527 Z " fill="rgb(59,43,41)"/><path d=" M 1758.136 422.15 L 1763.136 422.15 L 1763.136 426.961 L 1758.136 426.961 L 1758.136 422.15 Z " fill="rgb(59,43,41)"/><path d=" M 1758.136 412.527 L 1763.136 412.527 L 1763.136 417.338 L 1758.136 417.338 L 1758.136 412.527 Z " fill="rgb(59,43,41)"/><path d=" M 1758.136 431.772 L 1763.136 431.772 L 1763.136 436.583 L 1758.136 436.583 L 1758.136 431.772 Z " fill="rgb(59,43,41)"/><path d=" M 1758.136 422.15 L 1763.136 422.15 L 1763.136 426.961 L 1758.136 426.961 L 1758.136 422.15 Z " fill="rgb(59,43,41)"/><path d=" M 1758.136 441.395 L 1763.136 441.395 L 1763.136 446.206 L 1758.136 446.206 L 1758.136 441.395 Z " fill="rgb(59,43,41)"/><path d=" M 1758.136 451.017 L 1763.136 451.017 L 1763.136 455.828 L 1758.136 455.828 L 1758.136 451.017 Z " fill="rgb(59,43,41)"/><path d=" M 1758.136 518.394 L 1763.136 518.394 L 1763.136 523.205 L 1758.136 523.205 L 1758.136 518.394 Z " fill="rgb(59,43,41)"/><path d=" M 1758.136 537.639 L 1763.136 537.639 L 1763.136 542.45 L 1758.136 542.45 L 1758.136 537.639 Z " fill="rgb(59,43,41)"/><path d=" M 1758.136 528.016 L 1763.136 528.016 L 1763.136 532.827 L 1758.136 532.827 L 1758.136 528.016 Z " fill="rgb(59,43,41)"/><path d=" M 1758.136 547.261 L 1763.136 547.261 L 1763.136 552.072 L 1758.136 552.072 L 1758.136 547.261 Z " fill="rgb(59,43,41)"/><path d=" M 1758.136 556.884 L 1763.136 556.884 L 1763.136 561.695 L 1758.136 561.695 L 1758.136 556.884 Z " fill="rgb(59,43,41)"/><path d=" M 1758.136 749.296 L 1763.136 749.296 L 1763.136 754.107 L 1758.136 754.107 L 1758.136 749.296 Z " fill="rgb(59,43,41)"/><path d=" M 1758.136 547.261 L 1763.136 547.261 L 1763.136 552.072 L 1758.136 552.072 L 1758.136 547.261 Z " fill="rgb(59,43,41)"/><path d=" M 1758.136 566.506 L 1763.136 566.506 L 1763.136 571.317 L 1758.136 571.317 L 1758.136 566.506 Z " fill="rgb(59,43,41)"/><path d=" M 1758.136 758.918 L 1763.136 758.918 L 1763.136 763.73 L 1758.136 763.73 L 1758.136 758.918 Z " fill="rgb(59,43,41)"/><path d=" M 1758.136 556.884 L 1763.136 556.884 L 1763.136 561.695 L 1758.136 561.695 L 1758.136 556.884 Z " fill="rgb(59,43,41)"/><path d=" M 1758.136 749.296 L 1763.136 749.296 L 1763.136 754.107 L 1758.136 754.107 L 1758.136 749.296 Z " fill="rgb(59,43,41)"/><path d=" M 1758.136 576.129 L 1763.136 576.129 L 1763.136 580.94 L 1758.136 580.94 L 1758.136 576.129 Z " fill="rgb(59,43,41)"/><path d=" M 1758.136 768.541 L 1763.136 768.541 L 1763.136 773.352 L 1758.136 773.352 L 1758.136 768.541 Z " fill="rgb(59,43,41)"/><path d=" M 1758.136 585.751 L 1763.136 585.751 L 1763.136 590.562 L 1758.136 590.562 L 1758.136 585.751 Z " fill="rgb(59,43,41)"/><path d=" M 1758.136 778.163 L 1763.136 778.163 L 1763.136 782.975 L 1758.136 782.975 L 1758.136 778.163 Z " fill="rgb(59,43,41)"/><path d=" M 1758.136 451.055 L 1763.136 451.055 L 1763.136 455.866 L 1758.136 455.866 L 1758.136 451.055 Z " fill="rgb(59,43,41)"/><path d=" M 1758.136 470.3 L 1763.136 470.3 L 1763.136 475.111 L 1758.136 475.111 L 1758.136 470.3 Z " fill="rgb(59,43,41)"/><path d=" M 1758.136 460.677 L 1763.136 460.677 L 1763.136 465.489 L 1758.136 465.489 L 1758.136 460.677 Z " fill="rgb(59,43,41)"/><path d=" M 1758.136 479.922 L 1763.136 479.922 L 1763.136 484.734 L 1758.136 484.734 L 1758.136 479.922 Z " fill="rgb(59,43,41)"/><path d=" M 1758.136 489.545 L 1763.136 489.545 L 1763.136 494.356 L 1758.136 494.356 L 1758.136 489.545 Z " fill="rgb(59,43,41)"/><path d=" M 1758.136 479.922 L 1763.136 479.922 L 1763.136 484.734 L 1758.136 484.734 L 1758.136 479.922 Z " fill="rgb(59,43,41)"/><path d=" M 1758.136 499.167 L 1763.136 499.167 L 1763.136 503.979 L 1758.136 503.979 L 1758.136 499.167 Z " fill="rgb(59,43,41)"/><path d=" M 1758.136 489.545 L 1763.136 489.545 L 1763.136 494.356 L 1758.136 494.356 L 1758.136 489.545 Z " fill="rgb(59,43,41)"/><path d=" M 1758.136 508.79 L 1763.136 508.79 L 1763.136 513.601 L 1758.136 513.601 L 1758.136 508.79 Z " fill="rgb(59,43,41)"/><path d=" M 1758.136 518.412 L 1763.136 518.412 L 1763.136 523.224 L 1758.136 523.224 L 1758.136 518.412 Z " fill="rgb(59,43,41)"/><path d=" M 1758.136 585.789 L 1763.136 585.789 L 1763.136 590.6 L 1758.136 590.6 L 1758.136 585.789 Z " fill="rgb(59,43,41)"/><path d=" M 1758.136 778.201 L 1763.136 778.201 L 1763.136 783.012 L 1758.136 783.012 L 1758.136 778.201 Z " fill="rgb(59,43,41)"/><path d=" M 1758.136 605.034 L 1763.136 605.034 L 1763.136 609.845 L 1758.136 609.845 L 1758.136 605.034 Z " fill="rgb(59,43,41)"/><path d=" M 1758.136 797.446 L 1763.136 797.446 L 1763.136 802.257 L 1758.136 802.257 L 1758.136 797.446 Z " fill="rgb(59,43,41)"/><path d=" M 1758.136 595.411 L 1763.136 595.411 L 1763.136 600.223 L 1758.136 600.223 L 1758.136 595.411 Z " fill="rgb(59,43,41)"/><path d=" M 1758.136 787.824 L 1763.136 787.824 L 1763.136 792.635 L 1758.136 792.635 L 1758.136 787.824 Z " fill="rgb(59,43,41)"/><path d=" M 1758.136 614.656 L 1763.136 614.656 L 1763.136 619.468 L 1758.136 619.468 L 1758.136 614.656 Z " fill="rgb(59,43,41)"/><path d=" M 1758.136 807.069 L 1763.136 807.069 L 1763.136 811.88 L 1758.136 811.88 L 1758.136 807.069 Z " fill="rgb(59,43,41)"/><path d=" M 1758.136 624.279 L 1763.136 624.279 L 1763.136 629.09 L 1758.136 629.09 L 1758.136 624.279 Z " fill="rgb(59,43,41)"/><path d=" M 1758.136 816.691 L 1763.136 816.691 L 1763.136 821.502 L 1758.136 821.502 L 1758.136 816.691 Z " fill="rgb(59,43,41)"/><path d=" M 1758.136 614.656 L 1763.136 614.656 L 1763.136 619.468 L 1758.136 619.468 L 1758.136 614.656 Z " fill="rgb(59,43,41)"/><path d=" M 1758.136 807.069 L 1763.136 807.069 L 1763.136 811.88 L 1758.136 811.88 L 1758.136 807.069 Z " fill="rgb(59,43,41)"/><path d=" M 1758.136 633.901 L 1763.136 633.901 L 1763.136 638.713 L 1758.136 638.713 L 1758.136 633.901 Z " fill="rgb(59,43,41)"/><path d=" M 1758.136 826.314 L 1763.136 826.314 L 1763.136 831.125 L 1758.136 831.125 L 1758.136 826.314 Z " fill="rgb(59,43,41)"/><path d=" M 1758.136 624.279 L 1763.136 624.279 L 1763.136 629.09 L 1758.136 629.09 L 1758.136 624.279 Z " fill="rgb(59,43,41)"/><path d=" M 1758.136 816.691 L 1763.136 816.691 L 1763.136 821.502 L 1758.136 821.502 L 1758.136 816.691 Z " fill="rgb(59,43,41)"/><path d=" M 1758.136 643.524 L 1763.136 643.524 L 1763.136 648.335 L 1758.136 648.335 L 1758.136 643.524 Z " fill="rgb(59,43,41)"/><path d=" M 1758.136 835.936 L 1763.136 835.936 L 1763.136 840.747 L 1758.136 840.747 L 1758.136 835.936 Z " fill="rgb(59,43,41)"/><path d=" M 1758.136 653.146 L 1763.136 653.146 L 1763.136 657.958 L 1758.136 657.958 L 1758.136 653.146 Z " fill="rgb(59,43,41)"/><path d=" M 1758.136 845.559 L 1763.136 845.559 L 1763.136 850.37 L 1758.136 850.37 L 1758.136 845.559 Z " fill="rgb(59,43,41)"/><path d=" M 1758.136 653.127 L 1763.136 653.127 L 1763.136 657.939 L 1758.136 657.939 L 1758.136 653.127 Z " fill="rgb(59,43,41)"/><path d=" M 1758.136 845.54 L 1763.136 845.54 L 1763.136 850.351 L 1758.136 850.351 L 1758.136 845.54 Z " fill="rgb(59,43,41)"/><path d=" M 1758.136 672.372 L 1763.136 672.372 L 1763.136 677.184 L 1758.136 677.184 L 1758.136 672.372 Z " fill="rgb(59,43,41)"/><path d=" M 1758.136 864.785 L 1763.136 864.785 L 1763.136 869.596 L 1758.136 869.596 L 1758.136 864.785 Z " fill="rgb(59,43,41)"/><path d=" M 1758.136 662.75 L 1763.136 662.75 L 1763.136 667.561 L 1758.136 667.561 L 1758.136 662.75 Z " fill="rgb(59,43,41)"/><path d=" M 1758.136 855.162 L 1763.136 855.162 L 1763.136 859.974 L 1758.136 859.974 L 1758.136 855.162 Z " fill="rgb(59,43,41)"/><path d=" M 1758.136 681.995 L 1763.136 681.995 L 1763.136 686.806 L 1758.136 686.806 L 1758.136 681.995 Z " fill="rgb(59,43,41)"/><path d=" M 1758.136 874.407 L 1763.136 874.407 L 1763.136 879.219 L 1758.136 879.219 L 1758.136 874.407 Z " fill="rgb(59,43,41)"/><path d=" M 1758.136 691.617 L 1763.136 691.617 L 1763.136 696.429 L 1758.136 696.429 L 1758.136 691.617 Z " fill="rgb(59,43,41)"/><path d=" M 1758.136 884.03 L 1763.136 884.03 L 1763.136 888.841 L 1758.136 888.841 L 1758.136 884.03 Z " fill="rgb(59,43,41)"/><path d=" M 1758.136 681.995 L 1763.136 681.995 L 1763.136 686.806 L 1758.136 686.806 L 1758.136 681.995 Z " fill="rgb(59,43,41)"/><path d=" M 1758.136 874.407 L 1763.136 874.407 L 1763.136 879.219 L 1758.136 879.219 L 1758.136 874.407 Z " fill="rgb(59,43,41)"/><path d=" M 1758.136 701.24 L 1763.136 701.24 L 1763.136 706.051 L 1758.136 706.051 L 1758.136 701.24 Z " fill="rgb(59,43,41)"/><path d=" M 1758.136 893.652 L 1763.136 893.652 L 1763.136 898.464 L 1758.136 898.464 L 1758.136 893.652 Z " fill="rgb(59,43,41)"/><path d=" M 1758.136 691.617 L 1763.136 691.617 L 1763.136 696.429 L 1758.136 696.429 L 1758.136 691.617 Z " fill="rgb(59,43,41)"/><path d=" M 1758.136 884.03 L 1763.136 884.03 L 1763.136 888.841 L 1758.136 888.841 L 1758.136 884.03 Z " fill="rgb(59,43,41)"/><path d=" M 1758.136 710.862 L 1763.136 710.862 L 1763.136 715.674 L 1758.136 715.674 L 1758.136 710.862 Z " fill="rgb(59,43,41)"/><path d=" M 1758.136 903.275 L 1763.136 903.275 L 1763.136 908.086 L 1758.136 908.086 L 1758.136 903.275 Z " fill="rgb(59,43,41)"/><path d=" M 1758.136 720.485 L 1763.136 720.485 L 1763.136 725.296 L 1758.136 725.296 L 1758.136 720.485 Z " fill="rgb(59,43,41)"/><path d=" M 1758.136 912.897 L 1763.136 912.897 L 1763.136 917.709 L 1758.136 917.709 L 1758.136 912.897 Z " fill="rgb(59,43,41)"/><path d=" M 1758.136 720.485 L 1763.136 720.485 L 1763.136 725.296 L 1758.136 725.296 L 1758.136 720.485 Z " fill="rgb(59,43,41)"/><path d=" M 1758.136 912.897 L 1763.136 912.897 L 1763.136 917.709 L 1758.136 917.709 L 1758.136 912.897 Z " fill="rgb(59,43,41)"/><path d=" M 1758.136 739.73 L 1763.136 739.73 L 1763.136 744.541 L 1758.136 744.541 L 1758.136 739.73 Z " fill="rgb(59,43,41)"/><path d=" M 1758.136 932.142 L 1763.136 932.142 L 1763.136 936.954 L 1758.136 936.954 L 1758.136 932.142 Z " fill="rgb(59,43,41)"/><path d=" M 1758.136 730.107 L 1763.136 730.107 L 1763.136 734.919 L 1758.136 734.919 L 1758.136 730.107 Z " fill="rgb(59,43,41)"/><path d=" M 1758.136 922.52 L 1763.136 922.52 L 1763.136 927.331 L 1758.136 927.331 L 1758.136 922.52 Z " fill="rgb(59,43,41)"/><path d=" M 1758.136 749.352 L 1763.136 749.352 L 1763.136 754.164 L 1758.136 754.164 L 1758.136 749.352 Z " fill="rgb(59,43,41)"/><path d=" M 1758.136 941.765 L 1763.136 941.765 L 1763.136 946.576 L 1758.136 946.576 L 1758.136 941.765 Z " fill="rgb(59,43,41)"/><path d=" M 1758.136 941.765 L 1763.136 941.765 L 1763.136 946.576 L 1758.136 946.576 L 1758.136 941.765 Z " fill="rgb(59,43,41)"/></g><g id="Group"><path d=" M 1770.136 383.66 L 1775.136 383.66 L 1775.136 388.471 L 1770.136 388.471 L 1770.136 383.66 Z " fill="rgb(59,43,41)"/><path d=" M 1770.136 402.905 L 1775.136 402.905 L 1775.136 407.716 L 1770.136 407.716 L 1770.136 402.905 Z " fill="rgb(59,43,41)"/><path d=" M 1770.136 393.282 L 1775.136 393.282 L 1775.136 398.093 L 1770.136 398.093 L 1770.136 393.282 Z " fill="rgb(59,43,41)"/><path d=" M 1770.136 412.527 L 1775.136 412.527 L 1775.136 417.338 L 1770.136 417.338 L 1770.136 412.527 Z " fill="rgb(59,43,41)"/><path d=" M 1770.136 422.15 L 1775.136 422.15 L 1775.136 426.961 L 1770.136 426.961 L 1770.136 422.15 Z " fill="rgb(59,43,41)"/><path d=" M 1770.136 412.527 L 1775.136 412.527 L 1775.136 417.338 L 1770.136 417.338 L 1770.136 412.527 Z " fill="rgb(59,43,41)"/><path d=" M 1770.136 431.772 L 1775.136 431.772 L 1775.136 436.583 L 1770.136 436.583 L 1770.136 431.772 Z " fill="rgb(59,43,41)"/><path d=" M 1770.136 422.15 L 1775.136 422.15 L 1775.136 426.961 L 1770.136 426.961 L 1770.136 422.15 Z " fill="rgb(59,43,41)"/><path d=" M 1770.136 441.395 L 1775.136 441.395 L 1775.136 446.206 L 1770.136 446.206 L 1770.136 441.395 Z " fill="rgb(59,43,41)"/><path d=" M 1770.136 451.017 L 1775.136 451.017 L 1775.136 455.828 L 1770.136 455.828 L 1770.136 451.017 Z " fill="rgb(59,43,41)"/><path d=" M 1770.136 518.394 L 1775.136 518.394 L 1775.136 523.205 L 1770.136 523.205 L 1770.136 518.394 Z " fill="rgb(59,43,41)"/><path d=" M 1770.136 537.639 L 1775.136 537.639 L 1775.136 542.45 L 1770.136 542.45 L 1770.136 537.639 Z " fill="rgb(59,43,41)"/><path d=" M 1770.136 528.016 L 1775.136 528.016 L 1775.136 532.827 L 1770.136 532.827 L 1770.136 528.016 Z " fill="rgb(59,43,41)"/><path d=" M 1770.136 547.261 L 1775.136 547.261 L 1775.136 552.072 L 1770.136 552.072 L 1770.136 547.261 Z " fill="rgb(59,43,41)"/><path d=" M 1770.136 556.884 L 1775.136 556.884 L 1775.136 561.695 L 1770.136 561.695 L 1770.136 556.884 Z " fill="rgb(59,43,41)"/><path d=" M 1770.136 749.296 L 1775.136 749.296 L 1775.136 754.107 L 1770.136 754.107 L 1770.136 749.296 Z " fill="rgb(59,43,41)"/><path d=" M 1770.136 547.261 L 1775.136 547.261 L 1775.136 552.072 L 1770.136 552.072 L 1770.136 547.261 Z " fill="rgb(59,43,41)"/><path d=" M 1770.136 566.506 L 1775.136 566.506 L 1775.136 571.317 L 1770.136 571.317 L 1770.136 566.506 Z " fill="rgb(59,43,41)"/><path d=" M 1770.136 758.918 L 1775.136 758.918 L 1775.136 763.73 L 1770.136 763.73 L 1770.136 758.918 Z " fill="rgb(59,43,41)"/><path d=" M 1770.136 556.884 L 1775.136 556.884 L 1775.136 561.695 L 1770.136 561.695 L 1770.136 556.884 Z " fill="rgb(59,43,41)"/><path d=" M 1770.136 749.296 L 1775.136 749.296 L 1775.136 754.107 L 1770.136 754.107 L 1770.136 749.296 Z " fill="rgb(59,43,41)"/><path d=" M 1770.136 576.129 L 1775.136 576.129 L 1775.136 580.94 L 1770.136 580.94 L 1770.136 576.129 Z " fill="rgb(59,43,41)"/><path d=" M 1770.136 768.541 L 1775.136 768.541 L 1775.136 773.352 L 1770.136 773.352 L 1770.136 768.541 Z " fill="rgb(59,43,41)"/><path d=" M 1770.136 585.751 L 1775.136 585.751 L 1775.136 590.562 L 1770.136 590.562 L 1770.136 585.751 Z " fill="rgb(59,43,41)"/><path d=" M 1770.136 778.163 L 1775.136 778.163 L 1775.136 782.975 L 1770.136 782.975 L 1770.136 778.163 Z " fill="rgb(59,43,41)"/><path d=" M 1770.136 451.055 L 1775.136 451.055 L 1775.136 455.866 L 1770.136 455.866 L 1770.136 451.055 Z " fill="rgb(59,43,41)"/><path d=" M 1770.136 470.3 L 1775.136 470.3 L 1775.136 475.111 L 1770.136 475.111 L 1770.136 470.3 Z " fill="rgb(59,43,41)"/><path d=" M 1770.136 460.677 L 1775.136 460.677 L 1775.136 465.489 L 1770.136 465.489 L 1770.136 460.677 Z " fill="rgb(59,43,41)"/><path d=" M 1770.136 479.922 L 1775.136 479.922 L 1775.136 484.734 L 1770.136 484.734 L 1770.136 479.922 Z " fill="rgb(59,43,41)"/><path d=" M 1770.136 489.545 L 1775.136 489.545 L 1775.136 494.356 L 1770.136 494.356 L 1770.136 489.545 Z " fill="rgb(59,43,41)"/><path d=" M 1770.136 479.922 L 1775.136 479.922 L 1775.136 484.734 L 1770.136 484.734 L 1770.136 479.922 Z " fill="rgb(59,43,41)"/><path d=" M 1770.136 499.167 L 1775.136 499.167 L 1775.136 503.979 L 1770.136 503.979 L 1770.136 499.167 Z " fill="rgb(59,43,41)"/><path d=" M 1770.136 489.545 L 1775.136 489.545 L 1775.136 494.356 L 1770.136 494.356 L 1770.136 489.545 Z " fill="rgb(59,43,41)"/><path d=" M 1770.136 508.79 L 1775.136 508.79 L 1775.136 513.601 L 1770.136 513.601 L 1770.136 508.79 Z " fill="rgb(59,43,41)"/><path d=" M 1770.136 518.412 L 1775.136 518.412 L 1775.136 523.224 L 1770.136 523.224 L 1770.136 518.412 Z " fill="rgb(59,43,41)"/><path d=" M 1770.136 585.789 L 1775.136 585.789 L 1775.136 590.6 L 1770.136 590.6 L 1770.136 585.789 Z " fill="rgb(59,43,41)"/><path d=" M 1770.136 778.201 L 1775.136 778.201 L 1775.136 783.012 L 1770.136 783.012 L 1770.136 778.201 Z " fill="rgb(59,43,41)"/><path d=" M 1770.136 605.034 L 1775.136 605.034 L 1775.136 609.845 L 1770.136 609.845 L 1770.136 605.034 Z " fill="rgb(59,43,41)"/><path d=" M 1770.136 797.446 L 1775.136 797.446 L 1775.136 802.257 L 1770.136 802.257 L 1770.136 797.446 Z " fill="rgb(59,43,41)"/><path d=" M 1770.136 595.411 L 1775.136 595.411 L 1775.136 600.223 L 1770.136 600.223 L 1770.136 595.411 Z " fill="rgb(59,43,41)"/><path d=" M 1770.136 787.824 L 1775.136 787.824 L 1775.136 792.635 L 1770.136 792.635 L 1770.136 787.824 Z " fill="rgb(59,43,41)"/><path d=" M 1770.136 614.656 L 1775.136 614.656 L 1775.136 619.468 L 1770.136 619.468 L 1770.136 614.656 Z " fill="rgb(59,43,41)"/><path d=" M 1770.136 807.069 L 1775.136 807.069 L 1775.136 811.88 L 1770.136 811.88 L 1770.136 807.069 Z " fill="rgb(59,43,41)"/><path d=" M 1770.136 624.279 L 1775.136 624.279 L 1775.136 629.09 L 1770.136 629.09 L 1770.136 624.279 Z " fill="rgb(59,43,41)"/><path d=" M 1770.136 816.691 L 1775.136 816.691 L 1775.136 821.502 L 1770.136 821.502 L 1770.136 816.691 Z " fill="rgb(59,43,41)"/><path d=" M 1770.136 614.656 L 1775.136 614.656 L 1775.136 619.468 L 1770.136 619.468 L 1770.136 614.656 Z " fill="rgb(59,43,41)"/><path d=" M 1770.136 807.069 L 1775.136 807.069 L 1775.136 811.88 L 1770.136 811.88 L 1770.136 807.069 Z " fill="rgb(59,43,41)"/><path d=" M 1770.136 633.901 L 1775.136 633.901 L 1775.136 638.713 L 1770.136 638.713 L 1770.136 633.901 Z " fill="rgb(59,43,41)"/><path d=" M 1770.136 826.314 L 1775.136 826.314 L 1775.136 831.125 L 1770.136 831.125 L 1770.136 826.314 Z " fill="rgb(59,43,41)"/><path d=" M 1770.136 624.279 L 1775.136 624.279 L 1775.136 629.09 L 1770.136 629.09 L 1770.136 624.279 Z " fill="rgb(59,43,41)"/><path d=" M 1770.136 816.691 L 1775.136 816.691 L 1775.136 821.502 L 1770.136 821.502 L 1770.136 816.691 Z " fill="rgb(59,43,41)"/><path d=" M 1770.136 643.524 L 1775.136 643.524 L 1775.136 648.335 L 1770.136 648.335 L 1770.136 643.524 Z " fill="rgb(59,43,41)"/><path d=" M 1770.136 835.936 L 1775.136 835.936 L 1775.136 840.747 L 1770.136 840.747 L 1770.136 835.936 Z " fill="rgb(59,43,41)"/><path d=" M 1770.136 653.146 L 1775.136 653.146 L 1775.136 657.958 L 1770.136 657.958 L 1770.136 653.146 Z " fill="rgb(59,43,41)"/><path d=" M 1770.136 845.559 L 1775.136 845.559 L 1775.136 850.37 L 1770.136 850.37 L 1770.136 845.559 Z " fill="rgb(59,43,41)"/><path d=" M 1770.136 653.127 L 1775.136 653.127 L 1775.136 657.939 L 1770.136 657.939 L 1770.136 653.127 Z " fill="rgb(59,43,41)"/><path d=" M 1770.136 845.54 L 1775.136 845.54 L 1775.136 850.351 L 1770.136 850.351 L 1770.136 845.54 Z " fill="rgb(59,43,41)"/><path d=" M 1770.136 672.372 L 1775.136 672.372 L 1775.136 677.184 L 1770.136 677.184 L 1770.136 672.372 Z " fill="rgb(59,43,41)"/><path d=" M 1770.136 864.785 L 1775.136 864.785 L 1775.136 869.596 L 1770.136 869.596 L 1770.136 864.785 Z " fill="rgb(59,43,41)"/><path d=" M 1770.136 662.75 L 1775.136 662.75 L 1775.136 667.561 L 1770.136 667.561 L 1770.136 662.75 Z " fill="rgb(59,43,41)"/><path d=" M 1770.136 855.162 L 1775.136 855.162 L 1775.136 859.974 L 1770.136 859.974 L 1770.136 855.162 Z " fill="rgb(59,43,41)"/><path d=" M 1770.136 681.995 L 1775.136 681.995 L 1775.136 686.806 L 1770.136 686.806 L 1770.136 681.995 Z " fill="rgb(59,43,41)"/><path d=" M 1770.136 874.407 L 1775.136 874.407 L 1775.136 879.219 L 1770.136 879.219 L 1770.136 874.407 Z " fill="rgb(59,43,41)"/><path d=" M 1770.136 691.617 L 1775.136 691.617 L 1775.136 696.429 L 1770.136 696.429 L 1770.136 691.617 Z " fill="rgb(59,43,41)"/><path d=" M 1770.136 884.03 L 1775.136 884.03 L 1775.136 888.841 L 1770.136 888.841 L 1770.136 884.03 Z " fill="rgb(59,43,41)"/><path d=" M 1770.136 681.995 L 1775.136 681.995 L 1775.136 686.806 L 1770.136 686.806 L 1770.136 681.995 Z " fill="rgb(59,43,41)"/><path d=" M 1770.136 874.407 L 1775.136 874.407 L 1775.136 879.219 L 1770.136 879.219 L 1770.136 874.407 Z " fill="rgb(59,43,41)"/><path d=" M 1770.136 701.24 L 1775.136 701.24 L 1775.136 706.051 L 1770.136 706.051 L 1770.136 701.24 Z " fill="rgb(59,43,41)"/><path d=" M 1770.136 893.652 L 1775.136 893.652 L 1775.136 898.464 L 1770.136 898.464 L 1770.136 893.652 Z " fill="rgb(59,43,41)"/><path d=" M 1770.136 691.617 L 1775.136 691.617 L 1775.136 696.429 L 1770.136 696.429 L 1770.136 691.617 Z " fill="rgb(59,43,41)"/><path d=" M 1770.136 884.03 L 1775.136 884.03 L 1775.136 888.841 L 1770.136 888.841 L 1770.136 884.03 Z " fill="rgb(59,43,41)"/><path d=" M 1770.136 710.862 L 1775.136 710.862 L 1775.136 715.674 L 1770.136 715.674 L 1770.136 710.862 Z " fill="rgb(59,43,41)"/><path d=" M 1770.136 903.275 L 1775.136 903.275 L 1775.136 908.086 L 1770.136 908.086 L 1770.136 903.275 Z " fill="rgb(59,43,41)"/><path d=" M 1770.136 720.485 L 1775.136 720.485 L 1775.136 725.296 L 1770.136 725.296 L 1770.136 720.485 Z " fill="rgb(59,43,41)"/><path d=" M 1770.136 912.897 L 1775.136 912.897 L 1775.136 917.709 L 1770.136 917.709 L 1770.136 912.897 Z " fill="rgb(59,43,41)"/><path d=" M 1770.136 720.485 L 1775.136 720.485 L 1775.136 725.296 L 1770.136 725.296 L 1770.136 720.485 Z " fill="rgb(59,43,41)"/><path d=" M 1770.136 912.897 L 1775.136 912.897 L 1775.136 917.709 L 1770.136 917.709 L 1770.136 912.897 Z " fill="rgb(59,43,41)"/><path d=" M 1770.136 739.73 L 1775.136 739.73 L 1775.136 744.541 L 1770.136 744.541 L 1770.136 739.73 Z " fill="rgb(59,43,41)"/><path d=" M 1770.136 932.142 L 1775.136 932.142 L 1775.136 936.954 L 1770.136 936.954 L 1770.136 932.142 Z " fill="rgb(59,43,41)"/><path d=" M 1770.136 730.107 L 1775.136 730.107 L 1775.136 734.919 L 1770.136 734.919 L 1770.136 730.107 Z " fill="rgb(59,43,41)"/><path d=" M 1770.136 922.52 L 1775.136 922.52 L 1775.136 927.331 L 1770.136 927.331 L 1770.136 922.52 Z " fill="rgb(59,43,41)"/><path d=" M 1770.136 749.352 L 1775.136 749.352 L 1775.136 754.164 L 1770.136 754.164 L 1770.136 749.352 Z " fill="rgb(59,43,41)"/><path d=" M 1770.136 941.765 L 1775.136 941.765 L 1775.136 946.576 L 1770.136 946.576 L 1770.136 941.765 Z " fill="rgb(59,43,41)"/><path d=" M 1770.136 941.765 L 1775.136 941.765 L 1775.136 946.576 L 1770.136 946.576 L 1770.136 941.765 Z " fill="rgb(59,43,41)"/></g></g></g></svg>