<?xml version="1.0" standalone="no"?><!-- Generator: Gravit.io --><svg xmlns="http://www.w3.org/2000/svg" xmlns:xlink="http://www.w3.org/1999/xlink" style="isolation:isolate" viewBox="390 415.692 220 352.662" width="220" height="352.662"><g id="att-body-alt2"><path d=" M 403.653 492.857 L 490 542.709 L 510 531.162 L 530 542.709 L 610 496.521 L 590 484.974 L 610 473.427 L 510 415.692 L 490 427.239 L 470 415.692 L 390 461.88 L 410 473.427 L 390 484.974 L 403.653 492.857 Z " fill="rgb(232,232,232)"/><path d=" M 490 542.709 L 490 768.355 L 510 756.329 L 510 531.162 L 490 542.709 Z " fill="rgb(209,209,209)"/><path d=" M 510 756.329 L 530 768.355 L 530 542.709 L 510 531.162 L 510 756.329 Z " fill="rgb(185,185,185)"/><path d=" M 610 496.521 L 610 722.167 L 530 768.355 L 530 767.346 L 530 542.709 L 610 496.521 Z " fill="rgb(209,209,209)"/><path d=" M 390 484.974 L 390 710.62 L 490 768.355 L 490 768.013 L 490 542.709 L 390 484.974 Z " fill="rgb(185,185,185)"/><path d=" M 610 473.427 L 610 496.521 L 590 484.974 L 610 473.427 Z " fill="rgb(209,209,209)"/><path d=" M 390 484.974 L 410 473.427 L 390 461.88 L 390 484.974 Z " fill="rgb(162,162,162)"/><g id="body-windows-right"><path d=" M 535 748.147 L 535 753.921 L 545 748.147 L 545 742.374 L 535 748.147 Z " fill="rgb(0,0,0)"/><path d=" M 550 739.487 L 550 745.261 L 560 739.487 L 560 733.714 L 550 739.487 Z " fill="rgb(0,0,0)"/><path d=" M 565 730.827 L 565 736.6 L 575 730.827 L 575 725.053 L 565 730.827 Z " fill="rgb(0,0,0)"/><path d=" M 580 722.167 L 580 727.94 L 590 722.167 L 590 716.393 L 580 722.167 Z " fill="rgb(0,0,0)"/><path d=" M 595 713.506 L 595 719.28 L 605 713.506 L 605 707.733 L 595 713.506 Z " fill="rgb(0,0,0)"/><path d=" M 535 647.63 L 535 653.403 L 545 647.63 L 545 641.856 L 535 647.63 Z " fill="rgb(0,0,0)"/><path d=" M 550 638.969 L 550 644.743 L 560 638.969 L 560 633.196 L 550 638.969 Z " fill="rgb(0,0,0)"/><path d=" M 565 630.309 L 565 636.083 L 575 630.309 L 575 624.536 L 565 630.309 Z " fill="rgb(0,0,0)"/><path d=" M 580 621.649 L 580 627.422 L 590 621.649 L 590 615.875 L 580 621.649 Z " fill="rgb(0,0,0)"/><path d=" M 595 612.989 L 595 618.762 L 605 612.989 L 605 607.215 L 595 612.989 Z " fill="rgb(0,0,0)"/><path d=" M 535 590.191 L 535 595.964 L 545 590.191 L 545 584.417 L 535 590.191 Z " fill="rgb(0,0,0)"/><path d=" M 550 581.531 L 550 587.304 L 560 581.531 L 560 575.757 L 550 581.531 Z " fill="rgb(0,0,0)"/><path d=" M 565 572.87 L 565 578.644 L 575 572.87 L 575 567.097 L 565 572.87 Z " fill="rgb(0,0,0)"/><path d=" M 580 564.21 L 580 569.984 L 590 564.21 L 590 558.437 L 580 564.21 Z " fill="rgb(0,0,0)"/><path d=" M 595 555.55 L 595 561.323 L 605 555.55 L 605 549.776 L 595 555.55 Z " fill="rgb(0,0,0)"/><path d=" M 535 547.112 L 535 552.885 L 545 547.112 L 545 541.338 L 535 547.112 Z " fill="rgb(0,0,0)"/><path d=" M 550 538.452 L 550 544.225 L 560 538.452 L 560 532.678 L 550 538.452 Z " fill="rgb(0,0,0)"/><path d=" M 565 529.791 L 565 535.565 L 575 529.791 L 575 524.018 L 565 529.791 Z " fill="rgb(0,0,0)"/><path d=" M 580 521.131 L 580 526.905 L 590 521.131 L 590 515.358 L 580 521.131 Z " fill="rgb(0,0,0)"/><path d=" M 595 512.471 L 595 518.244 L 605 512.471 L 605 506.697 L 595 512.471 Z " fill="rgb(0,0,0)"/><path d=" M 535 561.471 L 535 567.245 L 545 561.471 L 545 555.698 L 535 561.471 Z " fill="rgb(0,0,0)"/><path d=" M 550 552.811 L 550 558.585 L 560 552.811 L 560 547.038 L 550 552.811 Z " fill="rgb(0,0,0)"/><path d=" M 565 544.151 L 565 549.924 L 575 544.151 L 575 538.377 L 565 544.151 Z " fill="rgb(0,0,0)"/><path d=" M 580 535.491 L 580 541.264 L 590 535.491 L 590 529.717 L 580 535.491 Z " fill="rgb(0,0,0)"/><path d=" M 595 526.83 L 595 532.604 L 605 526.83 L 605 521.057 L 595 526.83 Z " fill="rgb(0,0,0)"/><path d=" M 535 661.989 L 535 667.763 L 545 661.989 L 545 656.216 L 535 661.989 Z " fill="rgb(0,0,0)"/><path d=" M 550 653.329 L 550 659.103 L 560 653.329 L 560 647.556 L 550 653.329 Z " fill="rgb(0,0,0)"/><path d=" M 565 644.669 L 565 650.442 L 575 644.669 L 575 638.895 L 565 644.669 Z " fill="rgb(0,0,0)"/><path d=" M 580 636.009 L 580 641.782 L 590 636.009 L 590 630.235 L 580 636.009 Z " fill="rgb(0,0,0)"/><path d=" M 595 627.348 L 595 633.122 L 605 627.348 L 605 621.575 L 595 627.348 Z " fill="rgb(0,0,0)"/><path d=" M 535 633.27 L 535 639.043 L 545 633.27 L 545 627.496 L 535 633.27 Z " fill="rgb(0,0,0)"/><path d=" M 550 624.61 L 550 630.383 L 560 624.61 L 560 618.836 L 550 624.61 Z " fill="rgb(0,0,0)"/><path d=" M 565 615.949 L 565 621.723 L 575 615.949 L 575 610.176 L 565 615.949 Z " fill="rgb(0,0,0)"/><path d=" M 580 607.289 L 580 613.063 L 590 607.289 L 590 601.516 L 580 607.289 Z " fill="rgb(0,0,0)"/><path d=" M 595 598.629 L 595 604.402 L 605 598.629 L 605 592.855 L 595 598.629 Z " fill="rgb(0,0,0)"/><path d=" M 535 618.91 L 535 624.684 L 545 618.91 L 545 613.137 L 535 618.91 Z " fill="rgb(0,0,0)"/><path d=" M 550 610.25 L 550 616.023 L 560 610.25 L 560 604.476 L 550 610.25 Z " fill="rgb(0,0,0)"/><path d=" M 565 601.59 L 565 607.363 L 575 601.59 L 575 595.816 L 565 601.59 Z " fill="rgb(0,0,0)"/><path d=" M 580 592.929 L 580 598.703 L 590 592.929 L 590 587.156 L 580 592.929 Z " fill="rgb(0,0,0)"/><path d=" M 595 584.269 L 595 590.043 L 605 584.269 L 605 578.496 L 595 584.269 Z " fill="rgb(0,0,0)"/><path d=" M 535 676.349 L 535 682.122 L 545 676.349 L 545 670.575 L 535 676.349 Z " fill="rgb(0,0,0)"/><path d=" M 550 667.689 L 550 673.462 L 560 667.689 L 560 661.915 L 550 667.689 Z " fill="rgb(0,0,0)"/><path d=" M 565 659.028 L 565 664.802 L 575 659.028 L 575 653.255 L 565 659.028 Z " fill="rgb(0,0,0)"/><path d=" M 580 650.368 L 580 656.142 L 590 650.368 L 590 644.595 L 580 650.368 Z " fill="rgb(0,0,0)"/><path d=" M 595 641.708 L 595 647.481 L 605 641.708 L 605 635.934 L 595 641.708 Z " fill="rgb(0,0,0)"/><path d=" M 535 575.831 L 535 581.605 L 545 575.831 L 545 570.058 L 535 575.831 Z " fill="rgb(0,0,0)"/><path d=" M 550 567.171 L 550 572.944 L 560 567.171 L 560 561.397 L 550 567.171 Z " fill="rgb(0,0,0)"/><path d=" M 565 558.511 L 565 564.284 L 575 558.511 L 575 552.737 L 565 558.511 Z " fill="rgb(0,0,0)"/><path d=" M 580 549.85 L 580 555.624 L 590 549.85 L 590 544.077 L 580 549.85 Z " fill="rgb(0,0,0)"/><path d=" M 595 541.19 L 595 546.964 L 605 541.19 L 605 535.417 L 595 541.19 Z " fill="rgb(0,0,0)"/><path d=" M 535 604.551 L 535 610.324 L 545 604.551 L 545 598.777 L 535 604.551 Z " fill="rgb(0,0,0)"/><path d=" M 550 595.89 L 550 601.664 L 560 595.89 L 560 590.117 L 550 595.89 Z " fill="rgb(0,0,0)"/><path d=" M 565 587.23 L 565 593.004 L 575 587.23 L 575 581.457 L 565 587.23 Z " fill="rgb(0,0,0)"/><path d=" M 580 578.57 L 580 584.343 L 590 578.57 L 590 572.796 L 580 578.57 Z " fill="rgb(0,0,0)"/><path d=" M 595 569.91 L 595 575.683 L 605 569.91 L 605 564.136 L 595 569.91 Z " fill="rgb(0,0,0)"/><path d=" M 535 690.709 L 535 696.482 L 545 690.709 L 545 684.935 L 535 690.709 Z " fill="rgb(0,0,0)"/><path d=" M 550 682.048 L 550 687.822 L 560 682.048 L 560 676.275 L 550 682.048 Z " fill="rgb(0,0,0)"/><path d=" M 565 673.388 L 565 679.162 L 575 673.388 L 575 667.615 L 565 673.388 Z " fill="rgb(0,0,0)"/><path d=" M 580 664.728 L 580 670.501 L 590 664.728 L 590 658.954 L 580 664.728 Z " fill="rgb(0,0,0)"/><path d=" M 595 656.068 L 595 661.841 L 605 656.068 L 605 650.294 L 595 656.068 Z " fill="rgb(0,0,0)"/><path d=" M 535 705.068 L 535 710.842 L 545 705.068 L 545 699.295 L 535 705.068 Z " fill="rgb(0,0,0)"/><path d=" M 550 696.408 L 550 702.182 L 560 696.408 L 560 690.635 L 550 696.408 Z " fill="rgb(0,0,0)"/><path d=" M 565 687.748 L 565 693.521 L 575 687.748 L 575 681.974 L 565 687.748 Z " fill="rgb(0,0,0)"/><path d=" M 580 679.088 L 580 684.861 L 590 679.088 L 590 673.314 L 580 679.088 Z " fill="rgb(0,0,0)"/><path d=" M 595 670.427 L 595 676.201 L 605 670.427 L 605 664.654 L 595 670.427 Z " fill="rgb(0,0,0)"/><path d=" M 535 719.428 L 535 725.202 L 545 719.428 L 545 713.655 L 535 719.428 Z " fill="rgb(0,0,0)"/><path d=" M 550 710.768 L 550 716.541 L 560 710.768 L 560 704.994 L 550 710.768 Z " fill="rgb(0,0,0)"/><path d=" M 565 702.107 L 565 707.881 L 575 702.107 L 575 696.334 L 565 702.107 Z " fill="rgb(0,0,0)"/><path d=" M 580 693.447 L 580 699.221 L 590 693.447 L 590 687.674 L 580 693.447 Z " fill="rgb(0,0,0)"/><path d=" M 595 684.787 L 595 690.56 L 605 684.787 L 605 679.013 L 595 684.787 Z " fill="rgb(0,0,0)"/><path d=" M 535 733.788 L 535 739.561 L 545 733.788 L 545 728.014 L 535 733.788 Z " fill="rgb(0,0,0)"/><path d=" M 550 725.127 L 550 730.901 L 560 725.127 L 560 719.354 L 550 725.127 Z " fill="rgb(0,0,0)"/><path d=" M 565 716.467 L 565 722.241 L 575 716.467 L 575 710.694 L 565 716.467 Z " fill="rgb(0,0,0)"/><path d=" M 580 707.807 L 580 713.58 L 590 707.807 L 590 702.033 L 580 707.807 Z " fill="rgb(0,0,0)"/><path d=" M 595 699.147 L 595 704.92 L 605 699.147 L 605 693.373 L 595 699.147 Z " fill="rgb(0,0,0)"/></g><g id="body-windows-left"><path d=" M 482.5 748.147 L 482.5 753.921 L 472.5 748.147 L 472.5 742.374 L 482.5 748.147 Z " fill="rgb(0,0,0)"/><path d=" M 467.5 739.487 L 467.5 745.261 L 457.5 739.487 L 457.5 733.714 L 467.5 739.487 Z " fill="rgb(0,0,0)"/><path d=" M 452.5 730.827 L 452.5 736.6 L 442.5 730.827 L 442.5 725.053 L 452.5 730.827 Z " fill="rgb(0,0,0)"/><path d=" M 437.5 722.167 L 437.5 727.94 L 427.5 722.167 L 427.5 716.393 L 437.5 722.167 Z " fill="rgb(0,0,0)"/><path d=" M 422.5 713.506 L 422.5 719.28 L 412.5 713.506 L 412.5 707.733 L 422.5 713.506 Z " fill="rgb(0,0,0)"/><path d=" M 482.5 647.63 L 482.5 653.403 L 472.5 647.63 L 472.5 641.856 L 482.5 647.63 Z " fill="rgb(0,0,0)"/><path d=" M 467.5 638.969 L 467.5 644.743 L 457.5 638.969 L 457.5 633.196 L 467.5 638.969 Z " fill="rgb(0,0,0)"/><path d=" M 452.5 630.309 L 452.5 636.083 L 442.5 630.309 L 442.5 624.536 L 452.5 630.309 Z " fill="rgb(0,0,0)"/><path d=" M 437.5 621.649 L 437.5 627.422 L 427.5 621.649 L 427.5 615.875 L 437.5 621.649 Z " fill="rgb(0,0,0)"/><path d=" M 422.5 612.989 L 422.5 618.762 L 412.5 612.989 L 412.5 607.215 L 422.5 612.989 Z " fill="rgb(0,0,0)"/><path d=" M 482.5 590.191 L 482.5 595.964 L 472.5 590.191 L 472.5 584.417 L 482.5 590.191 Z " fill="rgb(0,0,0)"/><path d=" M 467.5 581.531 L 467.5 587.304 L 457.5 581.531 L 457.5 575.757 L 467.5 581.531 Z " fill="rgb(0,0,0)"/><path d=" M 452.5 572.87 L 452.5 578.644 L 442.5 572.87 L 442.5 567.097 L 452.5 572.87 Z " fill="rgb(0,0,0)"/><path d=" M 437.5 564.21 L 437.5 569.984 L 427.5 564.21 L 427.5 558.437 L 437.5 564.21 Z " fill="rgb(0,0,0)"/><path d=" M 422.5 555.55 L 422.5 561.323 L 412.5 555.55 L 412.5 549.776 L 422.5 555.55 Z " fill="rgb(0,0,0)"/><path d=" M 482.5 547.112 L 482.5 552.885 L 472.5 547.112 L 472.5 541.338 L 482.5 547.112 Z " fill="rgb(0,0,0)"/><path d=" M 467.5 538.452 L 467.5 544.225 L 457.5 538.452 L 457.5 532.678 L 467.5 538.452 Z " fill="rgb(0,0,0)"/><path d=" M 452.5 529.791 L 452.5 535.565 L 442.5 529.791 L 442.5 524.018 L 452.5 529.791 Z " fill="rgb(0,0,0)"/><path d=" M 437.5 521.131 L 437.5 526.905 L 427.5 521.131 L 427.5 515.358 L 437.5 521.131 Z " fill="rgb(0,0,0)"/><path d=" M 422.5 512.471 L 422.5 518.244 L 412.5 512.471 L 412.5 506.697 L 422.5 512.471 Z " fill="rgb(0,0,0)"/><path d=" M 482.5 561.471 L 482.5 567.245 L 472.5 561.471 L 472.5 555.698 L 482.5 561.471 Z " fill="rgb(0,0,0)"/><path d=" M 467.5 552.811 L 467.5 558.585 L 457.5 552.811 L 457.5 547.038 L 467.5 552.811 Z " fill="rgb(0,0,0)"/><path d=" M 452.5 544.151 L 452.5 549.924 L 442.5 544.151 L 442.5 538.377 L 452.5 544.151 Z " fill="rgb(0,0,0)"/><path d=" M 437.5 535.491 L 437.5 541.264 L 427.5 535.491 L 427.5 529.717 L 437.5 535.491 Z " fill="rgb(0,0,0)"/><path d=" M 422.5 526.83 L 422.5 532.604 L 412.5 526.83 L 412.5 521.057 L 422.5 526.83 Z " fill="rgb(0,0,0)"/><path d=" M 482.5 661.989 L 482.5 667.763 L 472.5 661.989 L 472.5 656.216 L 482.5 661.989 Z " fill="rgb(0,0,0)"/><path d=" M 467.5 653.329 L 467.5 659.103 L 457.5 653.329 L 457.5 647.556 L 467.5 653.329 Z " fill="rgb(0,0,0)"/><path d=" M 452.5 644.669 L 452.5 650.442 L 442.5 644.669 L 442.5 638.895 L 452.5 644.669 Z " fill="rgb(0,0,0)"/><path d=" M 437.5 636.009 L 437.5 641.782 L 427.5 636.009 L 427.5 630.235 L 437.5 636.009 Z " fill="rgb(0,0,0)"/><path d=" M 422.5 627.348 L 422.5 633.122 L 412.5 627.348 L 412.5 621.575 L 422.5 627.348 Z " fill="rgb(0,0,0)"/><path d=" M 482.5 633.27 L 482.5 639.043 L 472.5 633.27 L 472.5 627.496 L 482.5 633.27 Z " fill="rgb(0,0,0)"/><path d=" M 467.5 624.61 L 467.5 630.383 L 457.5 624.61 L 457.5 618.836 L 467.5 624.61 Z " fill="rgb(0,0,0)"/><path d=" M 452.5 615.949 L 452.5 621.723 L 442.5 615.949 L 442.5 610.176 L 452.5 615.949 Z " fill="rgb(0,0,0)"/><path d=" M 437.5 607.289 L 437.5 613.063 L 427.5 607.289 L 427.5 601.516 L 437.5 607.289 Z " fill="rgb(0,0,0)"/><path d=" M 422.5 598.629 L 422.5 604.402 L 412.5 598.629 L 412.5 592.855 L 422.5 598.629 Z " fill="rgb(0,0,0)"/><path d=" M 482.5 618.91 L 482.5 624.684 L 472.5 618.91 L 472.5 613.137 L 482.5 618.91 Z " fill="rgb(0,0,0)"/><path d=" M 467.5 610.25 L 467.5 616.023 L 457.5 610.25 L 457.5 604.476 L 467.5 610.25 Z " fill="rgb(0,0,0)"/><path d=" M 452.5 601.59 L 452.5 607.363 L 442.5 601.59 L 442.5 595.816 L 452.5 601.59 Z " fill="rgb(0,0,0)"/><path d=" M 437.5 592.929 L 437.5 598.703 L 427.5 592.929 L 427.5 587.156 L 437.5 592.929 Z " fill="rgb(0,0,0)"/><path d=" M 422.5 584.269 L 422.5 590.043 L 412.5 584.269 L 412.5 578.496 L 422.5 584.269 Z " fill="rgb(0,0,0)"/><path d=" M 482.5 676.349 L 482.5 682.122 L 472.5 676.349 L 472.5 670.575 L 482.5 676.349 Z " fill="rgb(0,0,0)"/><path d=" M 467.5 667.689 L 467.5 673.462 L 457.5 667.689 L 457.5 661.915 L 467.5 667.689 Z " fill="rgb(0,0,0)"/><path d=" M 452.5 659.028 L 452.5 664.802 L 442.5 659.028 L 442.5 653.255 L 452.5 659.028 Z " fill="rgb(0,0,0)"/><path d=" M 437.5 650.368 L 437.5 656.142 L 427.5 650.368 L 427.5 644.595 L 437.5 650.368 Z " fill="rgb(0,0,0)"/><path d=" M 422.5 641.708 L 422.5 647.481 L 412.5 641.708 L 412.5 635.934 L 422.5 641.708 Z " fill="rgb(0,0,0)"/><path d=" M 482.5 575.831 L 482.5 581.605 L 472.5 575.831 L 472.5 570.058 L 482.5 575.831 Z " fill="rgb(0,0,0)"/><path d=" M 467.5 567.171 L 467.5 572.944 L 457.5 567.171 L 457.5 561.397 L 467.5 567.171 Z " fill="rgb(0,0,0)"/><path d=" M 452.5 558.511 L 452.5 564.284 L 442.5 558.511 L 442.5 552.737 L 452.5 558.511 Z " fill="rgb(0,0,0)"/><path d=" M 437.5 549.85 L 437.5 555.624 L 427.5 549.85 L 427.5 544.077 L 437.5 549.85 Z " fill="rgb(0,0,0)"/><path d=" M 422.5 541.19 L 422.5 546.964 L 412.5 541.19 L 412.5 535.417 L 422.5 541.19 Z " fill="rgb(0,0,0)"/><path d=" M 482.5 604.551 L 482.5 610.324 L 472.5 604.551 L 472.5 598.777 L 482.5 604.551 Z " fill="rgb(0,0,0)"/><path d=" M 467.5 595.89 L 467.5 601.664 L 457.5 595.89 L 457.5 590.117 L 467.5 595.89 Z " fill="rgb(0,0,0)"/><path d=" M 452.5 587.23 L 452.5 593.004 L 442.5 587.23 L 442.5 581.457 L 452.5 587.23 Z " fill="rgb(0,0,0)"/><path d=" M 437.5 578.57 L 437.5 584.343 L 427.5 578.57 L 427.5 572.796 L 437.5 578.57 Z " fill="rgb(0,0,0)"/><path d=" M 422.5 569.91 L 422.5 575.683 L 412.5 569.91 L 412.5 564.136 L 422.5 569.91 Z " fill="rgb(0,0,0)"/><path d=" M 482.5 690.709 L 482.5 696.482 L 472.5 690.709 L 472.5 684.935 L 482.5 690.709 Z " fill="rgb(0,0,0)"/><path d=" M 467.5 682.048 L 467.5 687.822 L 457.5 682.048 L 457.5 676.275 L 467.5 682.048 Z " fill="rgb(0,0,0)"/><path d=" M 452.5 673.388 L 452.5 679.162 L 442.5 673.388 L 442.5 667.615 L 452.5 673.388 Z " fill="rgb(0,0,0)"/><path d=" M 437.5 664.728 L 437.5 670.501 L 427.5 664.728 L 427.5 658.954 L 437.5 664.728 Z " fill="rgb(0,0,0)"/><path d=" M 422.5 656.068 L 422.5 661.841 L 412.5 656.068 L 412.5 650.294 L 422.5 656.068 Z " fill="rgb(0,0,0)"/><path d=" M 482.5 705.068 L 482.5 710.842 L 472.5 705.068 L 472.5 699.295 L 482.5 705.068 Z " fill="rgb(0,0,0)"/><path d=" M 467.5 696.408 L 467.5 702.182 L 457.5 696.408 L 457.5 690.635 L 467.5 696.408 Z " fill="rgb(0,0,0)"/><path d=" M 452.5 687.748 L 452.5 693.521 L 442.5 687.748 L 442.5 681.974 L 452.5 687.748 Z " fill="rgb(0,0,0)"/><path d=" M 437.5 679.088 L 437.5 684.861 L 427.5 679.088 L 427.5 673.314 L 437.5 679.088 Z " fill="rgb(0,0,0)"/><path d=" M 422.5 670.427 L 422.5 676.201 L 412.5 670.427 L 412.5 664.654 L 422.5 670.427 Z " fill="rgb(0,0,0)"/><path d=" M 482.5 719.428 L 482.5 725.202 L 472.5 719.428 L 472.5 713.655 L 482.5 719.428 Z " fill="rgb(0,0,0)"/><path d=" M 467.5 710.768 L 467.5 716.541 L 457.5 710.768 L 457.5 704.994 L 467.5 710.768 Z " fill="rgb(0,0,0)"/><path d=" M 452.5 702.107 L 452.5 707.881 L 442.5 702.107 L 442.5 696.334 L 452.5 702.107 Z " fill="rgb(0,0,0)"/><path d=" M 437.5 693.447 L 437.5 699.221 L 427.5 693.447 L 427.5 687.674 L 437.5 693.447 Z " fill="rgb(0,0,0)"/><path d=" M 422.5 684.787 L 422.5 690.56 L 412.5 684.787 L 412.5 679.013 L 422.5 684.787 Z " fill="rgb(0,0,0)"/><path d=" M 482.5 733.788 L 482.5 739.561 L 472.5 733.788 L 472.5 728.014 L 482.5 733.788 Z " fill="rgb(0,0,0)"/><path d=" M 467.5 725.127 L 467.5 730.901 L 457.5 725.127 L 457.5 719.354 L 467.5 725.127 Z " fill="rgb(0,0,0)"/><path d=" M 452.5 716.467 L 452.5 722.241 L 442.5 716.467 L 442.5 710.694 L 452.5 716.467 Z " fill="rgb(0,0,0)"/><path d=" M 437.5 707.807 L 437.5 713.58 L 427.5 707.807 L 427.5 702.033 L 437.5 707.807 Z " fill="rgb(0,0,0)"/><path d=" M 422.5 699.147 L 422.5 704.92 L 412.5 699.147 L 412.5 693.373 L 422.5 699.147 Z " fill="rgb(0,0,0)"/><path d=" M 467.5 739.147 L 467.5 744.921 L 457.5 739.147 L 457.5 733.374 L 467.5 739.147 Z " fill="rgb(0,0,0)"/><path d=" M 452.5 730.487 L 452.5 736.261 L 442.5 730.487 L 442.5 724.714 L 452.5 730.487 Z " fill="rgb(0,0,0)"/><path d=" M 437.5 721.827 L 437.5 727.6 L 427.5 721.827 L 427.5 716.053 L 437.5 721.827 Z " fill="rgb(0,0,0)"/><path d=" M 422.5 713.167 L 422.5 718.94 L 412.5 713.167 L 412.5 707.393 L 422.5 713.167 Z " fill="rgb(0,0,0)"/><path d=" M 407.5 704.506 L 407.5 710.28 L 397.5 704.506 L 397.5 698.733 L 407.5 704.506 Z " fill="rgb(0,0,0)"/><path d=" M 467.5 638.63 L 467.5 644.403 L 457.5 638.63 L 457.5 632.856 L 467.5 638.63 Z " fill="rgb(0,0,0)"/><path d=" M 452.5 629.969 L 452.5 635.743 L 442.5 629.969 L 442.5 624.196 L 452.5 629.969 Z " fill="rgb(0,0,0)"/><path d=" M 437.5 621.309 L 437.5 627.083 L 427.5 621.309 L 427.5 615.536 L 437.5 621.309 Z " fill="rgb(0,0,0)"/><path d=" M 422.5 612.649 L 422.5 618.422 L 412.5 612.649 L 412.5 606.875 L 422.5 612.649 Z " fill="rgb(0,0,0)"/><path d=" M 407.5 603.989 L 407.5 609.762 L 397.5 603.989 L 397.5 598.215 L 407.5 603.989 Z " fill="rgb(0,0,0)"/><path d=" M 467.5 581.191 L 467.5 586.964 L 457.5 581.191 L 457.5 575.417 L 467.5 581.191 Z " fill="rgb(0,0,0)"/><path d=" M 452.5 572.531 L 452.5 578.304 L 442.5 572.531 L 442.5 566.757 L 452.5 572.531 Z " fill="rgb(0,0,0)"/><path d=" M 437.5 563.87 L 437.5 569.644 L 427.5 563.87 L 427.5 558.097 L 437.5 563.87 Z " fill="rgb(0,0,0)"/><path d=" M 422.5 555.21 L 422.5 560.984 L 412.5 555.21 L 412.5 549.437 L 422.5 555.21 Z " fill="rgb(0,0,0)"/><path d=" M 407.5 546.55 L 407.5 552.323 L 397.5 546.55 L 397.5 540.776 L 407.5 546.55 Z " fill="rgb(0,0,0)"/><path d=" M 467.5 538.112 L 467.5 543.885 L 457.5 538.112 L 457.5 532.338 L 467.5 538.112 Z " fill="rgb(0,0,0)"/><path d=" M 452.5 529.452 L 452.5 535.225 L 442.5 529.452 L 442.5 523.678 L 452.5 529.452 Z " fill="rgb(0,0,0)"/><path d=" M 437.5 520.791 L 437.5 526.565 L 427.5 520.791 L 427.5 515.018 L 437.5 520.791 Z " fill="rgb(0,0,0)"/><path d=" M 422.5 512.131 L 422.5 517.905 L 412.5 512.131 L 412.5 506.358 L 422.5 512.131 Z " fill="rgb(0,0,0)"/><path d=" M 407.5 503.471 L 407.5 509.244 L 397.5 503.471 L 397.5 497.697 L 407.5 503.471 Z " fill="rgb(0,0,0)"/><path d=" M 467.5 552.471 L 467.5 558.245 L 457.5 552.471 L 457.5 546.698 L 467.5 552.471 Z " fill="rgb(0,0,0)"/><path d=" M 452.5 543.811 L 452.5 549.585 L 442.5 543.811 L 442.5 538.038 L 452.5 543.811 Z " fill="rgb(0,0,0)"/><path d=" M 437.5 535.151 L 437.5 540.924 L 427.5 535.151 L 427.5 529.377 L 437.5 535.151 Z " fill="rgb(0,0,0)"/><path d=" M 422.5 526.491 L 422.5 532.264 L 412.5 526.491 L 412.5 520.717 L 422.5 526.491 Z " fill="rgb(0,0,0)"/><path d=" M 407.5 517.83 L 407.5 523.604 L 397.5 517.83 L 397.5 512.057 L 407.5 517.83 Z " fill="rgb(0,0,0)"/><path d=" M 467.5 652.989 L 467.5 658.763 L 457.5 652.989 L 457.5 647.216 L 467.5 652.989 Z " fill="rgb(0,0,0)"/><path d=" M 452.5 644.329 L 452.5 650.103 L 442.5 644.329 L 442.5 638.556 L 452.5 644.329 Z " fill="rgb(0,0,0)"/><path d=" M 437.5 635.669 L 437.5 641.442 L 427.5 635.669 L 427.5 629.895 L 437.5 635.669 Z " fill="rgb(0,0,0)"/><path d=" M 422.5 627.009 L 422.5 632.782 L 412.5 627.009 L 412.5 621.235 L 422.5 627.009 Z " fill="rgb(0,0,0)"/><path d=" M 407.5 618.348 L 407.5 624.122 L 397.5 618.348 L 397.5 612.575 L 407.5 618.348 Z " fill="rgb(0,0,0)"/><path d=" M 467.5 624.27 L 467.5 630.043 L 457.5 624.27 L 457.5 618.496 L 467.5 624.27 Z " fill="rgb(0,0,0)"/><path d=" M 452.5 615.61 L 452.5 621.383 L 442.5 615.61 L 442.5 609.836 L 452.5 615.61 Z " fill="rgb(0,0,0)"/><path d=" M 437.5 606.949 L 437.5 612.723 L 427.5 606.949 L 427.5 601.176 L 437.5 606.949 Z " fill="rgb(0,0,0)"/><path d=" M 422.5 598.289 L 422.5 604.063 L 412.5 598.289 L 412.5 592.516 L 422.5 598.289 Z " fill="rgb(0,0,0)"/><path d=" M 407.5 589.629 L 407.5 595.402 L 397.5 589.629 L 397.5 583.855 L 407.5 589.629 Z " fill="rgb(0,0,0)"/><path d=" M 467.5 609.91 L 467.5 615.684 L 457.5 609.91 L 457.5 604.137 L 467.5 609.91 Z " fill="rgb(0,0,0)"/><path d=" M 452.5 601.25 L 452.5 607.023 L 442.5 601.25 L 442.5 595.476 L 452.5 601.25 Z " fill="rgb(0,0,0)"/><path d=" M 437.5 592.59 L 437.5 598.363 L 427.5 592.59 L 427.5 586.816 L 437.5 592.59 Z " fill="rgb(0,0,0)"/><path d=" M 422.5 583.929 L 422.5 589.703 L 412.5 583.929 L 412.5 578.156 L 422.5 583.929 Z " fill="rgb(0,0,0)"/><path d=" M 407.5 575.269 L 407.5 581.043 L 397.5 575.269 L 397.5 569.496 L 407.5 575.269 Z " fill="rgb(0,0,0)"/><path d=" M 467.5 667.349 L 467.5 673.122 L 457.5 667.349 L 457.5 661.575 L 467.5 667.349 Z " fill="rgb(0,0,0)"/><path d=" M 452.5 658.689 L 452.5 664.462 L 442.5 658.689 L 442.5 652.915 L 452.5 658.689 Z " fill="rgb(0,0,0)"/><path d=" M 437.5 650.028 L 437.5 655.802 L 427.5 650.028 L 427.5 644.255 L 437.5 650.028 Z " fill="rgb(0,0,0)"/><path d=" M 422.5 641.368 L 422.5 647.142 L 412.5 641.368 L 412.5 635.595 L 422.5 641.368 Z " fill="rgb(0,0,0)"/><path d=" M 407.5 632.708 L 407.5 638.481 L 397.5 632.708 L 397.5 626.934 L 407.5 632.708 Z " fill="rgb(0,0,0)"/><path d=" M 467.5 566.831 L 467.5 572.605 L 457.5 566.831 L 457.5 561.058 L 467.5 566.831 Z " fill="rgb(0,0,0)"/><path d=" M 452.5 558.171 L 452.5 563.944 L 442.5 558.171 L 442.5 552.397 L 452.5 558.171 Z " fill="rgb(0,0,0)"/><path d=" M 437.5 549.511 L 437.5 555.284 L 427.5 549.511 L 427.5 543.737 L 437.5 549.511 Z " fill="rgb(0,0,0)"/><path d=" M 422.5 540.85 L 422.5 546.624 L 412.5 540.85 L 412.5 535.077 L 422.5 540.85 Z " fill="rgb(0,0,0)"/><path d=" M 407.5 532.19 L 407.5 537.964 L 397.5 532.19 L 397.5 526.417 L 407.5 532.19 Z " fill="rgb(0,0,0)"/><path d=" M 467.5 595.551 L 467.5 601.324 L 457.5 595.551 L 457.5 589.777 L 467.5 595.551 Z " fill="rgb(0,0,0)"/><path d=" M 452.5 586.89 L 452.5 592.664 L 442.5 586.89 L 442.5 581.117 L 452.5 586.89 Z " fill="rgb(0,0,0)"/><path d=" M 437.5 578.23 L 437.5 584.004 L 427.5 578.23 L 427.5 572.457 L 437.5 578.23 Z " fill="rgb(0,0,0)"/><path d=" M 422.5 569.57 L 422.5 575.343 L 412.5 569.57 L 412.5 563.796 L 422.5 569.57 Z " fill="rgb(0,0,0)"/><path d=" M 407.5 560.91 L 407.5 566.683 L 397.5 560.91 L 397.5 555.136 L 407.5 560.91 Z " fill="rgb(0,0,0)"/><path d=" M 467.5 681.709 L 467.5 687.482 L 457.5 681.709 L 457.5 675.935 L 467.5 681.709 Z " fill="rgb(0,0,0)"/><path d=" M 452.5 673.048 L 452.5 678.822 L 442.5 673.048 L 442.5 667.275 L 452.5 673.048 Z " fill="rgb(0,0,0)"/><path d=" M 437.5 664.388 L 437.5 670.162 L 427.5 664.388 L 427.5 658.615 L 437.5 664.388 Z " fill="rgb(0,0,0)"/><path d=" M 422.5 655.728 L 422.5 661.501 L 412.5 655.728 L 412.5 649.954 L 422.5 655.728 Z " fill="rgb(0,0,0)"/><path d=" M 407.5 647.068 L 407.5 652.841 L 397.5 647.068 L 397.5 641.294 L 407.5 647.068 Z " fill="rgb(0,0,0)"/><path d=" M 467.5 696.068 L 467.5 701.842 L 457.5 696.068 L 457.5 690.295 L 467.5 696.068 Z " fill="rgb(0,0,0)"/><path d=" M 452.5 687.408 L 452.5 693.182 L 442.5 687.408 L 442.5 681.635 L 452.5 687.408 Z " fill="rgb(0,0,0)"/><path d=" M 437.5 678.748 L 437.5 684.521 L 427.5 678.748 L 427.5 672.974 L 437.5 678.748 Z " fill="rgb(0,0,0)"/><path d=" M 422.5 670.088 L 422.5 675.861 L 412.5 670.088 L 412.5 664.314 L 422.5 670.088 Z " fill="rgb(0,0,0)"/><path d=" M 407.5 661.427 L 407.5 667.201 L 397.5 661.427 L 397.5 655.654 L 407.5 661.427 Z " fill="rgb(0,0,0)"/><path d=" M 467.5 710.428 L 467.5 716.202 L 457.5 710.428 L 457.5 704.655 L 467.5 710.428 Z " fill="rgb(0,0,0)"/><path d=" M 452.5 701.768 L 452.5 707.541 L 442.5 701.768 L 442.5 695.994 L 452.5 701.768 Z " fill="rgb(0,0,0)"/><path d=" M 437.5 693.107 L 437.5 698.881 L 427.5 693.107 L 427.5 687.334 L 437.5 693.107 Z " fill="rgb(0,0,0)"/><path d=" M 422.5 684.447 L 422.5 690.221 L 412.5 684.447 L 412.5 678.674 L 422.5 684.447 Z " fill="rgb(0,0,0)"/><path d=" M 407.5 675.787 L 407.5 681.56 L 397.5 675.787 L 397.5 670.013 L 407.5 675.787 Z " fill="rgb(0,0,0)"/><path d=" M 467.5 724.788 L 467.5 730.561 L 457.5 724.788 L 457.5 719.014 L 467.5 724.788 Z " fill="rgb(0,0,0)"/><path d=" M 452.5 716.127 L 452.5 721.901 L 442.5 716.127 L 442.5 710.354 L 452.5 716.127 Z " fill="rgb(0,0,0)"/><path d=" M 437.5 707.467 L 437.5 713.241 L 427.5 707.467 L 427.5 701.694 L 437.5 707.467 Z " fill="rgb(0,0,0)"/><path d=" M 422.5 698.807 L 422.5 704.58 L 412.5 698.807 L 412.5 693.033 L 422.5 698.807 Z " fill="rgb(0,0,0)"/><path d=" M 407.5 690.147 L 407.5 695.92 L 397.5 690.147 L 397.5 684.373 L 407.5 690.147 Z " fill="rgb(0,0,0)"/></g></g></svg>