<?xml version="1.0" standalone="no"?><!-- Generator: Gravit.io --><svg xmlns="http://www.w3.org/2000/svg" xmlns:xlink="http://www.w3.org/1999/xlink" style="isolation:isolate" viewBox="390 387.303 220 155.406" width="220" height="155.406"><g id="att-roof"><path d=" M 403.653 464.468 L 490 514.321 L 510 502.774 L 530 514.321 L 610 468.133 L 590 456.585 L 610 445.038 L 510 387.303 L 490 398.85 L 470 387.303 L 390 433.491 L 410 445.038 L 390 456.585 L 403.653 464.468 Z " fill="rgb(232,232,232)"/><path d=" M 610 445.038 L 610 468.133 L 590 456.585 L 610 445.038 Z " fill="rgb(209,209,209)"/><path d=" M 390 456.585 L 410 445.038 L 390 433.491 L 390 456.585 Z " fill="rgb(162,162,162)"/><path d=" M 490 502.774 L 510 491.227 L 530 502.774 L 590 468.133 L 570 456.585 L 590 445.038 L 510 398.85 L 490 410.397 L 470 398.85 L 410 433.491 L 430 445.038 L 410 456.585 L 490 502.774 Z " fill="rgb(209,209,209)"/><path d=" M 470 398.85 L 470 410.397 L 490 421.944 L 490 410.397 L 470 398.85 Z " fill="rgb(162,162,162)"/><path d=" M 510 398.85 L 510 410.397 L 490 421.944 L 490 410.397 L 510 398.85 Z " fill="rgb(185,185,185)"/><path d=" M 430 445.038 L 430 456.585 L 420 462.359 L 410 456.585 L 430 445.038 Z " fill="rgb(185,185,185)"/><path d=" M 570 456.585 L 570 468.133 L 580 473.906 L 590 468.133 L 570 456.585 Z " fill="rgb(162,162,162)"/><path d=" M 510 410.397 L 580 450.812 L 590 445.038 L 510 398.85 L 510 410.397 Z " fill="rgb(185,185,185)"/><path d=" M 410 433.491 L 470 398.85 L 470 410.397 L 420 439.265 L 410 433.491 Z " fill="rgb(185,185,185)"/><path d=" M 530 542.709 L 610 496.521 L 610 467.654 L 530 513.842 L 530 542.709 Z " fill="rgb(209,209,209)"/><path d=" M 490 542.709 L 390 484.974 L 390 456.107 L 490 513.842 L 490 542.709 Z " fill="rgb(185,185,185)"/><path d=" M 510 531.162 L 490 542.709 L 490 513.842 L 510 502.295 L 510 531.162 Z " fill="rgb(209,209,209)"/><path d=" M 530 542.709 L 510 531.162 L 510 502.295 L 530 513.842 L 530 542.709 Z " fill="rgb(185,185,185)"/><path d=" M 544 516.181 C 544 511.766 546.689 508.181 550 508.181 C 553.311 508.181 556 511.766 556 516.181 C 556 520.597 553.311 524.181 550 524.181 C 546.689 524.181 544 520.597 544 516.181 Z " fill="rgb(65,173,255)"/><path d=" M 404 481.314 C 404 476.899 406.689 473.314 410 473.314 C 413.311 473.314 416 476.899 416 481.314 C 416 485.729 413.311 489.314 410 489.314 C 406.689 489.314 404 485.729 404 481.314 Z " fill="rgb(65,173,255)"/></g></svg>