<?xml version="1.0" standalone="no"?><!-- Generator: Gravit.io --><svg xmlns="http://www.w3.org/2000/svg" xmlns:xlink="http://www.w3.org/1999/xlink" style="isolation:isolate" viewBox="2332.5 474.871 205 262.694" width="205" height="262.694"><g id="body-windows-vertical"><g id="body-windows-vertical-right"><path d=" M 2477.5 521.059 L 2472.5 523.945 L 2472.5 737.565 L 2477.5 734.678 L 2477.5 521.059 Z " fill="rgb(93,93,93)"/><path d=" M 2517.5 497.965 L 2512.5 500.851 L 2512.5 714.471 L 2517.5 711.584 L 2517.5 497.965 Z " fill="rgb(93,93,93)"/><path d=" M 2497.5 509.512 L 2492.5 512.398 L 2492.5 726.018 L 2497.5 723.131 L 2497.5 509.512 Z " fill="rgb(93,93,93)"/><path d=" M 2537.5 486.418 L 2532.5 489.304 L 2532.5 702.924 L 2537.5 700.037 L 2537.5 486.418 Z " fill="rgb(93,93,93)"/><path d=" M 2487.5 515.285 L 2482.5 518.172 L 2482.5 731.791 L 2487.5 728.905 L 2487.5 515.285 Z " fill="rgb(93,93,93)"/><path d=" M 2527.5 492.191 L 2522.5 495.078 L 2522.5 708.697 L 2527.5 705.811 L 2527.5 492.191 Z " fill="rgb(93,93,93)"/><path d=" M 2507.5 503.738 L 2502.5 506.625 L 2502.5 720.244 L 2507.5 717.358 L 2507.5 503.738 Z " fill="rgb(93,93,93)"/></g><g id="body-windows-vertical-left"><path d=" M 2412.5 521.059 L 2417.5 523.945 L 2417.5 737.565 L 2412.5 734.678 L 2412.5 521.059 Z " fill="rgb(46,46,46)"/><path d=" M 2372.5 497.965 L 2377.5 500.851 L 2377.5 714.471 L 2372.5 711.584 L 2372.5 497.965 Z " fill="rgb(46,46,46)"/><path d=" M 2342.5 480.644 L 2347.5 483.531 L 2347.5 697.15 L 2342.5 694.264 L 2342.5 480.644 Z " fill="rgb(46,46,46)"/><path d=" M 2392.5 509.512 L 2397.5 512.398 L 2397.5 726.018 L 2392.5 723.131 L 2392.5 509.512 Z " fill="rgb(46,46,46)"/><path d=" M 2352.5 486.418 L 2357.5 489.304 L 2357.5 702.924 L 2352.5 700.037 L 2352.5 486.418 Z " fill="rgb(46,46,46)"/><path d=" M 2402.5 515.285 L 2407.5 518.172 L 2407.5 731.791 L 2402.5 728.905 L 2402.5 515.285 Z " fill="rgb(46,46,46)"/><path d=" M 2362.5 492.191 L 2367.5 495.078 L 2367.5 708.697 L 2362.5 705.811 L 2362.5 492.191 Z " fill="rgb(46,46,46)"/><path d=" M 2332.5 474.871 L 2337.5 477.757 L 2337.5 691.377 L 2332.5 688.49 L 2332.5 474.871 Z " fill="rgb(46,46,46)"/><path d=" M 2382.5 503.738 L 2387.5 506.625 L 2387.5 720.244 L 2382.5 717.358 L 2382.5 503.738 Z " fill="rgb(46,46,46)"/></g></g></svg>