<?xml version="1.0" standalone="no"?><!-- Generator: Gravit.io --><svg xmlns="http://www.w3.org/2000/svg" xmlns:xlink="http://www.w3.org/1999/xlink" style="isolation:isolate" viewBox="2735 492.095 210 267.121" width="210" height="267.121"><g id="body-windows-horizontal"><g id="Group"><path d=" M 2875 557.143 L 2875 562.917 L 2945 522.502 L 2945 516.728 L 2875 557.143 Z " fill="rgb(93,93,93)"/><path d=" M 2875 727.269 L 2875 733.042 L 2945 692.628 L 2945 686.854 L 2875 727.269 Z " fill="rgb(93,93,93)"/><path d=" M 2875 570.23 L 2875 576.003 L 2945 535.589 L 2945 529.815 L 2875 570.23 Z " fill="rgb(93,93,93)"/><path d=" M 2875 753.442 L 2875 759.216 L 2945 718.801 L 2945 713.028 L 2875 753.442 Z " fill="rgb(93,93,93)"/><path d=" M 2875 544.056 L 2875 549.83 L 2945 509.415 L 2945 503.642 L 2875 544.056 Z " fill="rgb(93,93,93)"/><path d=" M 2875 583.316 L 2875 589.09 L 2945 548.675 L 2945 542.902 L 2875 583.316 Z " fill="rgb(93,93,93)"/><path d=" M 2875 740.355 L 2875 746.129 L 2945 705.714 L 2945 699.941 L 2875 740.355 Z " fill="rgb(93,93,93)"/><path d=" M 2875 609.489 L 2875 615.263 L 2945 574.848 L 2945 569.075 L 2875 609.489 Z " fill="rgb(93,93,93)"/><path d=" M 2875 622.576 L 2875 628.35 L 2945 587.935 L 2945 582.162 L 2875 622.576 Z " fill="rgb(93,93,93)"/><path d=" M 2875 635.663 L 2875 641.436 L 2945 601.022 L 2945 595.248 L 2875 635.663 Z " fill="rgb(93,93,93)"/><path d=" M 2875 648.749 L 2875 654.523 L 2945 614.108 L 2945 608.335 L 2875 648.749 Z " fill="rgb(93,93,93)"/><path d=" M 2875 661.836 L 2875 667.609 L 2945 627.195 L 2945 621.421 L 2875 661.836 Z " fill="rgb(93,93,93)"/><path d=" M 2875 674.922 L 2875 680.696 L 2945 640.281 L 2945 634.508 L 2875 674.922 Z " fill="rgb(93,93,93)"/><path d=" M 2875 688.009 L 2875 693.783 L 2945 653.368 L 2945 647.595 L 2875 688.009 Z " fill="rgb(93,93,93)"/><path d=" M 2875 701.096 L 2875 706.869 L 2945 666.455 L 2945 660.681 L 2875 701.096 Z " fill="rgb(93,93,93)"/><path d=" M 2875 714.182 L 2875 719.956 L 2945 679.541 L 2945 673.768 L 2875 714.182 Z " fill="rgb(93,93,93)"/><path d=" M 2875 596.403 L 2875 602.176 L 2945 561.762 L 2945 555.988 L 2875 596.403 Z " fill="rgb(93,93,93)"/></g><g id="Group"><path d=" M 2825 727.269 L 2825 733.042 L 2735 681.081 L 2735 675.307 L 2825 727.269 Z " fill="rgb(46,46,46)"/><path d=" M 2825 635.663 L 2825 641.436 L 2735 589.475 L 2735 583.701 L 2825 635.663 Z " fill="rgb(46,46,46)"/><path d=" M 2825 688.009 L 2825 693.783 L 2735 641.821 L 2735 636.048 L 2825 688.009 Z " fill="rgb(46,46,46)"/><path d=" M 2825 609.489 L 2825 615.263 L 2735 563.301 L 2735 557.528 L 2825 609.489 Z " fill="rgb(46,46,46)"/><path d=" M 2825 622.576 L 2825 628.35 L 2735 576.388 L 2735 570.615 L 2825 622.576 Z " fill="rgb(46,46,46)"/><path d=" M 2825 753.442 L 2825 759.216 L 2735 707.254 L 2735 701.481 L 2825 753.442 Z " fill="rgb(46,46,46)"/><path d=" M 2825 661.836 L 2825 667.609 L 2735 615.648 L 2735 609.874 L 2825 661.836 Z " fill="rgb(46,46,46)"/><path d=" M 2825 596.403 L 2825 602.176 L 2735 550.215 L 2735 544.441 L 2825 596.403 Z " fill="rgb(46,46,46)"/><path d=" M 2825 583.316 L 2825 589.09 L 2735 537.128 L 2735 531.355 L 2825 583.316 Z " fill="rgb(46,46,46)"/><path d=" M 2825 544.056 L 2825 549.83 L 2735 497.868 L 2735 492.095 L 2825 544.056 Z " fill="rgb(46,46,46)"/><path d=" M 2825 740.355 L 2825 746.129 L 2735 694.167 L 2735 688.394 L 2825 740.355 Z " fill="rgb(46,46,46)"/><path d=" M 2825 648.749 L 2825 654.523 L 2735 602.561 L 2735 596.788 L 2825 648.749 Z " fill="rgb(46,46,46)"/><path d=" M 2825 701.096 L 2825 706.869 L 2735 654.908 L 2735 649.134 L 2825 701.096 Z " fill="rgb(46,46,46)"/><path d=" M 2825 674.922 L 2825 680.696 L 2735 628.734 L 2735 622.961 L 2825 674.922 Z " fill="rgb(46,46,46)"/><path d=" M 2825 570.23 L 2825 576.003 L 2735 524.042 L 2735 518.268 L 2825 570.23 Z " fill="rgb(46,46,46)"/><path d=" M 2825 557.143 L 2825 562.917 L 2735 510.955 L 2735 505.181 L 2825 557.143 Z " fill="rgb(46,46,46)"/><path d=" M 2825 714.182 L 2825 719.956 L 2735 667.994 L 2735 662.221 L 2825 714.182 Z " fill="rgb(46,46,46)"/></g></g></svg>