<?xml version="1.0" standalone="no"?><!-- Generator: Gravit.io --><svg xmlns="http://www.w3.org/2000/svg" xmlns:xlink="http://www.w3.org/1999/xlink" style="isolation:isolate" viewBox="390 98.15 220 155.885" width="220" height="155.885"><g id="att-roof"><path d=" M 405 176.092 L 490 225.167 L 510 213.62 L 530 225.167 L 610 178.979 L 590 167.432 L 610 155.885 L 510 98.15 L 490 109.697 L 470 98.15 L 390 144.338 L 410 155.885 L 390 167.432 L 405 176.092 Z " fill="rgb(232,232,232)"/><path d=" M 610 155.885 L 610 178.979 L 590 167.432 L 610 155.885 Z " fill="rgb(209,209,209)"/><path d=" M 390 167.432 L 410 155.885 L 390 144.338 L 390 167.432 Z " fill="rgb(162,162,162)"/><path d=" M 490 213.62 L 510 202.073 L 530 213.62 L 590 178.979 L 570 167.432 L 590 155.885 L 510 109.697 L 490 121.244 L 470 109.697 L 410 144.338 L 430 155.885 L 410 167.432 L 490 213.62 Z " fill="rgb(209,209,209)"/><path d=" M 470 109.697 L 470 121.244 L 490 133.269 L 490 121.244 L 470 109.697 Z " fill="rgb(162,162,162)"/><path d=" M 510 109.697 L 510 121.244 L 490 132.791 L 490 121.244 L 510 109.697 Z " fill="rgb(185,185,185)"/><path d=" M 430 155.885 L 430 167.432 L 420 173.205 L 410 167.432 L 430 155.885 Z " fill="rgb(185,185,185)"/><path d=" M 570 167.432 L 570 178.979 L 580 184.752 L 590 178.979 L 570 167.432 Z " fill="rgb(162,162,162)"/><path d=" M 510 121.244 L 580 161.658 L 590 155.885 L 510 109.697 L 510 121.244 Z " fill="rgb(185,185,185)"/><path d=" M 410 144.338 L 470 109.697 L 470 121.244 L 420 150.111 L 410 144.338 Z " fill="rgb(185,185,185)"/><path d=" M 530 254.034 L 610 207.846 L 610 178.979 L 530 225.167 L 530 254.034 Z " fill="rgb(209,209,209)"/><path d=" M 490 254.034 L 390 196.299 L 390 167.432 L 490 225.167 L 490 254.034 Z " fill="rgb(185,185,185)"/><path d=" M 510 242.487 L 490 254.034 L 490 225.167 L 510 213.62 L 510 242.487 Z " fill="rgb(209,209,209)"/><path d=" M 530 254.034 L 510 242.487 L 510 213.62 L 530 225.167 L 530 254.034 Z " fill="rgb(185,185,185)"/><path d=" M 544 227.506 C 544 223.091 546.689 219.506 550 219.506 C 553.311 219.506 556 223.091 556 227.506 C 556 231.922 553.311 235.506 550 235.506 C 546.689 235.506 544 231.922 544 227.506 Z " fill="rgb(65,173,255)"/><path d=" M 404 192.639 C 404 188.224 406.689 184.639 410 184.639 C 413.311 184.639 416 188.224 416 192.639 C 416 197.054 413.311 200.639 410 200.639 C 406.689 200.639 404 197.054 404 192.639 Z " fill="rgb(65,173,255)"/></g></svg>