<?xml version="1.0" standalone="no"?><!-- Generator: Gravit.io --><svg xmlns="http://www.w3.org/2000/svg" xmlns:xlink="http://www.w3.org/1999/xlink" style="isolation:isolate" viewBox="390 808.29 220 150.111" width="220" height="150.111"><g id="att-base"><path d=" M 403.653 885.455 L 490 935.307 L 510 923.76 L 530 935.307 L 610 889.119 L 590 877.572 L 610 866.025 L 510 808.29 L 490 819.837 L 470 808.29 L 390 854.478 L 410 866.025 L 390 877.572 L 403.653 885.455 Z " fill="rgb(232,232,232)"/><path d=" M 610 889.119 L 600 906.44 L 520 952.628 L 530 935.307 L 610 889.119 Z " fill="rgb(162,162,162)"/><path d=" M 390 877.572 L 400 894.893 L 500 952.628 L 490 935.307 L 390 877.572 Z " fill="rgb(162,162,162)"/><path d=" M 500 952.628 L 510 958.401 L 510 923.76 L 490 935.307 L 500 952.628 Z " fill="rgb(209,209,209)"/><path d=" M 520 952.628 L 510 958.401 L 510 923.76 L 530 935.307 L 520 952.628 Z " fill="rgb(185,185,185)"/><path d=" M 390 854.478 L 400 871.799 L 410 866.025 L 390 854.478 Z " fill="rgb(162,162,162)"/><path d=" M 610 866.025 L 600 883.346 L 590 877.572 L 610 866.025 Z " fill="rgb(209,209,209)"/></g></svg>