<?xml version="1.0" standalone="no"?><!-- Generator: Gravit.io --><svg xmlns="http://www.w3.org/2000/svg" xmlns:xlink="http://www.w3.org/1999/xlink" style="isolation:isolate" viewBox="390 127.017 220 808.769" width="220" height="808.769"><g id="att-body-alt1"><path d=" M 403.653 204.181 L 490 254.034 L 510 242.487 L 530 254.034 L 610 207.846 L 590 196.299 L 610 184.752 L 510 127.017 L 490 138.564 L 470 127.017 L 390 173.205 L 410 184.752 L 390 196.299 L 403.653 204.181 Z " fill="rgb(232,232,232)"/><path d=" M 490 254.034 L 490 935.786 L 510 923.76 L 510 242.487 L 490 254.034 Z " fill="rgb(209,209,209)"/><path d=" M 510 923.76 L 530 935.786 L 530 254.034 L 510 242.487 L 510 923.76 Z " fill="rgb(185,185,185)"/><path d=" M 610 207.846 L 610 889.598 L 530 935.786 L 530 934.778 L 530 254.034 L 610 207.846 Z " fill="rgb(209,209,209)"/><path d=" M 390 196.299 L 390 878.051 L 490 935.786 L 490 935.445 L 490 254.034 L 390 196.299 Z " fill="rgb(185,185,185)"/><path d=" M 610 185.218 L 610 208.312 L 590 196.765 L 610 185.218 Z " fill="rgb(209,209,209)"/><path d=" M 390 196.299 L 410 184.752 L 390 173.205 L 390 196.299 Z " fill="rgb(162,162,162)"/><g id="body-windows-right"><path d=" M 535 915.579 L 535 921.352 L 545 915.579 L 545 909.805 L 535 915.579 Z " fill="rgb(0,0,0)"/><path d=" M 550 906.919 L 550 912.692 L 560 906.919 L 560 901.145 L 550 906.919 Z " fill="rgb(0,0,0)"/><path d=" M 565 898.258 L 565 904.032 L 575 898.258 L 575 892.485 L 565 898.258 Z " fill="rgb(0,0,0)"/><path d=" M 580 889.598 L 580 895.372 L 590 889.598 L 590 883.825 L 580 889.598 Z " fill="rgb(0,0,0)"/><path d=" M 595 880.938 L 595 886.711 L 605 880.938 L 605 875.164 L 595 880.938 Z " fill="rgb(0,0,0)"/><path d=" M 535 815.061 L 535 820.835 L 545 815.061 L 545 809.288 L 535 815.061 Z " fill="rgb(0,0,0)"/><path d=" M 550 806.401 L 550 812.174 L 560 806.401 L 560 800.627 L 550 806.401 Z " fill="rgb(0,0,0)"/><path d=" M 565 797.741 L 565 803.514 L 575 797.741 L 575 791.967 L 565 797.741 Z " fill="rgb(0,0,0)"/><path d=" M 580 789.08 L 580 794.854 L 590 789.08 L 590 783.307 L 580 789.08 Z " fill="rgb(0,0,0)"/><path d=" M 595 780.42 L 595 786.194 L 605 780.42 L 605 774.647 L 595 780.42 Z " fill="rgb(0,0,0)"/><path d=" M 535 628.385 L 535 634.159 L 545 628.385 L 545 622.612 L 535 628.385 Z " fill="rgb(0,0,0)"/><path d=" M 550 619.725 L 550 625.499 L 560 619.725 L 560 613.952 L 550 619.725 Z " fill="rgb(0,0,0)"/><path d=" M 565 611.065 L 565 616.838 L 575 611.065 L 575 605.291 L 565 611.065 Z " fill="rgb(0,0,0)"/><path d=" M 580 602.405 L 580 608.178 L 590 602.405 L 590 596.631 L 580 602.405 Z " fill="rgb(0,0,0)"/><path d=" M 595 593.744 L 595 599.518 L 605 593.744 L 605 587.971 L 595 593.744 Z " fill="rgb(0,0,0)"/><path d=" M 535 585.306 L 535 591.08 L 545 585.306 L 545 579.533 L 535 585.306 Z " fill="rgb(0,0,0)"/><path d=" M 550 576.646 L 550 582.42 L 560 576.646 L 560 570.873 L 550 576.646 Z " fill="rgb(0,0,0)"/><path d=" M 565 567.986 L 565 573.759 L 575 567.986 L 575 562.212 L 565 567.986 Z " fill="rgb(0,0,0)"/><path d=" M 580 559.326 L 580 565.099 L 590 559.326 L 590 553.552 L 580 559.326 Z " fill="rgb(0,0,0)"/><path d=" M 595 550.665 L 595 556.439 L 605 550.665 L 605 544.892 L 595 550.665 Z " fill="rgb(0,0,0)"/><path d=" M 535 757.622 L 535 763.396 L 545 757.622 L 545 751.849 L 535 757.622 Z " fill="rgb(0,0,0)"/><path d=" M 550 748.962 L 550 754.736 L 560 748.962 L 560 743.189 L 550 748.962 Z " fill="rgb(0,0,0)"/><path d=" M 565 740.302 L 565 746.075 L 575 740.302 L 575 734.528 L 565 740.302 Z " fill="rgb(0,0,0)"/><path d=" M 580 731.642 L 580 737.415 L 590 731.642 L 590 725.868 L 580 731.642 Z " fill="rgb(0,0,0)"/><path d=" M 595 722.981 L 595 728.755 L 605 722.981 L 605 717.208 L 595 722.981 Z " fill="rgb(0,0,0)"/><path d=" M 535 714.543 L 535 720.317 L 545 714.543 L 545 708.77 L 535 714.543 Z " fill="rgb(0,0,0)"/><path d=" M 550 705.883 L 550 711.657 L 560 705.883 L 560 700.11 L 550 705.883 Z " fill="rgb(0,0,0)"/><path d=" M 565 697.223 L 565 702.996 L 575 697.223 L 575 691.449 L 565 697.223 Z " fill="rgb(0,0,0)"/><path d=" M 580 688.563 L 580 694.336 L 590 688.563 L 590 682.789 L 580 688.563 Z " fill="rgb(0,0,0)"/><path d=" M 595 679.902 L 595 685.676 L 605 679.902 L 605 674.129 L 595 679.902 Z " fill="rgb(0,0,0)"/><path d=" M 535 728.903 L 535 734.677 L 545 728.903 L 545 723.13 L 535 728.903 Z " fill="rgb(0,0,0)"/><path d=" M 550 720.243 L 550 726.016 L 560 720.243 L 560 714.469 L 550 720.243 Z " fill="rgb(0,0,0)"/><path d=" M 565 711.583 L 565 717.356 L 575 711.583 L 575 705.809 L 565 711.583 Z " fill="rgb(0,0,0)"/><path d=" M 580 702.922 L 580 708.696 L 590 702.922 L 590 697.149 L 580 702.922 Z " fill="rgb(0,0,0)"/><path d=" M 595 694.262 L 595 700.036 L 605 694.262 L 605 688.489 L 595 694.262 Z " fill="rgb(0,0,0)"/><path d=" M 535 700.184 L 535 705.957 L 545 700.184 L 545 694.41 L 535 700.184 Z " fill="rgb(0,0,0)"/><path d=" M 550 691.523 L 550 697.297 L 560 691.523 L 560 685.75 L 550 691.523 Z " fill="rgb(0,0,0)"/><path d=" M 565 682.863 L 565 688.637 L 575 682.863 L 575 677.09 L 565 682.863 Z " fill="rgb(0,0,0)"/><path d=" M 580 674.203 L 580 679.976 L 590 674.203 L 590 668.429 L 580 674.203 Z " fill="rgb(0,0,0)"/><path d=" M 595 665.543 L 595 671.316 L 605 665.543 L 605 659.769 L 595 665.543 Z " fill="rgb(0,0,0)"/><path d=" M 535 657.105 L 535 662.878 L 545 657.105 L 545 651.331 L 535 657.105 Z " fill="rgb(0,0,0)"/><path d=" M 550 648.444 L 550 654.218 L 560 648.444 L 560 642.671 L 550 648.444 Z " fill="rgb(0,0,0)"/><path d=" M 565 639.784 L 565 645.558 L 575 639.784 L 575 634.011 L 565 639.784 Z " fill="rgb(0,0,0)"/><path d=" M 580 631.124 L 580 636.897 L 590 631.124 L 590 625.35 L 580 631.124 Z " fill="rgb(0,0,0)"/><path d=" M 595 622.464 L 595 628.237 L 605 622.464 L 605 616.69 L 595 622.464 Z " fill="rgb(0,0,0)"/><path d=" M 535 685.824 L 535 691.598 L 545 685.824 L 545 680.051 L 535 685.824 Z " fill="rgb(0,0,0)"/><path d=" M 550 677.164 L 550 682.937 L 560 677.164 L 560 671.39 L 550 677.164 Z " fill="rgb(0,0,0)"/><path d=" M 565 668.504 L 565 674.277 L 575 668.504 L 575 662.73 L 565 668.504 Z " fill="rgb(0,0,0)"/><path d=" M 580 659.843 L 580 665.617 L 590 659.843 L 590 654.07 L 580 659.843 Z " fill="rgb(0,0,0)"/><path d=" M 595 651.183 L 595 656.957 L 605 651.183 L 605 645.41 L 595 651.183 Z " fill="rgb(0,0,0)"/><path d=" M 535 829.421 L 535 835.194 L 545 829.421 L 545 823.647 L 535 829.421 Z " fill="rgb(0,0,0)"/><path d=" M 550 820.761 L 550 826.534 L 560 820.761 L 560 814.987 L 550 820.761 Z " fill="rgb(0,0,0)"/><path d=" M 565 812.1 L 565 817.874 L 575 812.1 L 575 806.327 L 565 812.1 Z " fill="rgb(0,0,0)"/><path d=" M 580 803.44 L 580 809.214 L 590 803.44 L 590 797.667 L 580 803.44 Z " fill="rgb(0,0,0)"/><path d=" M 595 794.78 L 595 800.553 L 605 794.78 L 605 789.006 L 595 794.78 Z " fill="rgb(0,0,0)"/><path d=" M 535 800.702 L 535 806.475 L 545 800.702 L 545 794.928 L 535 800.702 Z " fill="rgb(0,0,0)"/><path d=" M 550 792.041 L 550 797.815 L 560 792.041 L 560 786.268 L 550 792.041 Z " fill="rgb(0,0,0)"/><path d=" M 565 783.381 L 565 789.154 L 575 783.381 L 575 777.607 L 565 783.381 Z " fill="rgb(0,0,0)"/><path d=" M 580 774.721 L 580 780.494 L 590 774.721 L 590 768.947 L 580 774.721 Z " fill="rgb(0,0,0)"/><path d=" M 595 766.06 L 595 771.834 L 605 766.06 L 605 760.287 L 595 766.06 Z " fill="rgb(0,0,0)"/><path d=" M 535 556.587 L 535 562.36 L 545 556.587 L 545 550.813 L 535 556.587 Z " fill="rgb(0,0,0)"/><path d=" M 550 547.927 L 550 553.7 L 560 547.927 L 560 542.153 L 550 547.927 Z " fill="rgb(0,0,0)"/><path d=" M 565 539.266 L 565 545.04 L 575 539.266 L 575 533.493 L 565 539.266 Z " fill="rgb(0,0,0)"/><path d=" M 580 530.606 L 580 536.38 L 590 530.606 L 590 524.833 L 580 530.606 Z " fill="rgb(0,0,0)"/><path d=" M 595 521.946 L 595 527.719 L 605 521.946 L 605 516.172 L 595 521.946 Z " fill="rgb(0,0,0)"/><path d=" M 535 786.342 L 535 792.115 L 545 786.342 L 545 780.568 L 535 786.342 Z " fill="rgb(0,0,0)"/><path d=" M 550 777.682 L 550 783.455 L 560 777.682 L 560 771.908 L 550 777.682 Z " fill="rgb(0,0,0)"/><path d=" M 565 769.021 L 565 774.795 L 575 769.021 L 575 763.248 L 565 769.021 Z " fill="rgb(0,0,0)"/><path d=" M 580 760.361 L 580 766.135 L 590 760.361 L 590 754.588 L 580 760.361 Z " fill="rgb(0,0,0)"/><path d=" M 595 751.701 L 595 757.474 L 605 751.701 L 605 745.927 L 595 751.701 Z " fill="rgb(0,0,0)"/><path d=" M 535 527.868 L 535 533.641 L 545 527.868 L 545 522.094 L 535 527.868 Z " fill="rgb(0,0,0)"/><path d=" M 550 519.207 L 550 524.981 L 560 519.207 L 560 513.434 L 550 519.207 Z " fill="rgb(0,0,0)"/><path d=" M 565 510.547 L 565 516.321 L 575 510.547 L 575 504.774 L 565 510.547 Z " fill="rgb(0,0,0)"/><path d=" M 580 501.887 L 580 507.66 L 590 501.887 L 590 496.113 L 580 501.887 Z " fill="rgb(0,0,0)"/><path d=" M 595 493.227 L 595 499 L 605 493.227 L 605 487.453 L 595 493.227 Z " fill="rgb(0,0,0)"/><path d=" M 535 570.947 L 535 576.72 L 545 570.947 L 545 565.173 L 535 570.947 Z " fill="rgb(0,0,0)"/><path d=" M 550 562.286 L 550 568.06 L 560 562.286 L 560 556.513 L 550 562.286 Z " fill="rgb(0,0,0)"/><path d=" M 565 553.626 L 565 559.4 L 575 553.626 L 575 547.853 L 565 553.626 Z " fill="rgb(0,0,0)"/><path d=" M 580 544.966 L 580 550.739 L 590 544.966 L 590 539.192 L 580 544.966 Z " fill="rgb(0,0,0)"/><path d=" M 595 536.306 L 595 542.079 L 605 536.306 L 605 530.532 L 595 536.306 Z " fill="rgb(0,0,0)"/><path d=" M 535 614.026 L 535 619.799 L 545 614.026 L 545 608.252 L 535 614.026 Z " fill="rgb(0,0,0)"/><path d=" M 550 605.365 L 550 611.139 L 560 605.365 L 560 599.592 L 550 605.365 Z " fill="rgb(0,0,0)"/><path d=" M 565 596.705 L 565 602.479 L 575 596.705 L 575 590.932 L 565 596.705 Z " fill="rgb(0,0,0)"/><path d=" M 580 588.045 L 580 593.818 L 590 588.045 L 590 582.271 L 580 588.045 Z " fill="rgb(0,0,0)"/><path d=" M 595 579.385 L 595 585.158 L 605 579.385 L 605 573.611 L 595 579.385 Z " fill="rgb(0,0,0)"/><path d=" M 535 599.666 L 535 605.439 L 545 599.666 L 545 593.892 L 535 599.666 Z " fill="rgb(0,0,0)"/><path d=" M 550 591.006 L 550 596.779 L 560 591.006 L 560 585.232 L 550 591.006 Z " fill="rgb(0,0,0)"/><path d=" M 565 582.345 L 565 588.119 L 575 582.345 L 575 576.572 L 565 582.345 Z " fill="rgb(0,0,0)"/><path d=" M 580 573.685 L 580 579.459 L 590 573.685 L 590 567.912 L 580 573.685 Z " fill="rgb(0,0,0)"/><path d=" M 595 565.025 L 595 570.798 L 605 565.025 L 605 559.251 L 595 565.025 Z " fill="rgb(0,0,0)"/><path d=" M 535 642.745 L 535 648.518 L 545 642.745 L 545 636.971 L 535 642.745 Z " fill="rgb(0,0,0)"/><path d=" M 550 634.085 L 550 639.858 L 560 634.085 L 560 628.311 L 550 634.085 Z " fill="rgb(0,0,0)"/><path d=" M 565 625.424 L 565 631.198 L 575 625.424 L 575 619.651 L 565 625.424 Z " fill="rgb(0,0,0)"/><path d=" M 580 616.764 L 580 622.538 L 590 616.764 L 590 610.991 L 580 616.764 Z " fill="rgb(0,0,0)"/><path d=" M 595 608.104 L 595 613.877 L 605 608.104 L 605 602.33 L 595 608.104 Z " fill="rgb(0,0,0)"/><path d=" M 535 671.464 L 535 677.238 L 545 671.464 L 545 665.691 L 535 671.464 Z " fill="rgb(0,0,0)"/><path d=" M 550 662.804 L 550 668.578 L 560 662.804 L 560 657.031 L 550 662.804 Z " fill="rgb(0,0,0)"/><path d=" M 565 654.144 L 565 659.917 L 575 654.144 L 575 648.37 L 565 654.144 Z " fill="rgb(0,0,0)"/><path d=" M 580 645.484 L 580 651.257 L 590 645.484 L 590 639.71 L 580 645.484 Z " fill="rgb(0,0,0)"/><path d=" M 595 636.823 L 595 642.597 L 605 636.823 L 605 631.05 L 595 636.823 Z " fill="rgb(0,0,0)"/><path d=" M 535 843.781 L 535 849.554 L 545 843.781 L 545 838.007 L 535 843.781 Z " fill="rgb(0,0,0)"/><path d=" M 550 835.12 L 550 840.894 L 560 835.12 L 560 829.347 L 550 835.12 Z " fill="rgb(0,0,0)"/><path d=" M 565 826.46 L 565 832.234 L 575 826.46 L 575 820.687 L 565 826.46 Z " fill="rgb(0,0,0)"/><path d=" M 580 817.8 L 580 823.573 L 590 817.8 L 590 812.026 L 580 817.8 Z " fill="rgb(0,0,0)"/><path d=" M 595 809.14 L 595 814.913 L 605 809.14 L 605 803.366 L 595 809.14 Z " fill="rgb(0,0,0)"/><path d=" M 535 743.263 L 535 749.036 L 545 743.263 L 545 737.489 L 535 743.263 Z " fill="rgb(0,0,0)"/><path d=" M 550 734.603 L 550 740.376 L 560 734.603 L 560 728.829 L 550 734.603 Z " fill="rgb(0,0,0)"/><path d=" M 565 725.942 L 565 731.716 L 575 725.942 L 575 720.169 L 565 725.942 Z " fill="rgb(0,0,0)"/><path d=" M 580 717.282 L 580 723.056 L 590 717.282 L 590 711.509 L 580 717.282 Z " fill="rgb(0,0,0)"/><path d=" M 595 708.622 L 595 714.395 L 605 708.622 L 605 702.848 L 595 708.622 Z " fill="rgb(0,0,0)"/><path d=" M 535 771.982 L 535 777.756 L 545 771.982 L 545 766.209 L 535 771.982 Z " fill="rgb(0,0,0)"/><path d=" M 550 763.322 L 550 769.095 L 560 763.322 L 560 757.548 L 550 763.322 Z " fill="rgb(0,0,0)"/><path d=" M 565 754.662 L 565 760.435 L 575 754.662 L 575 748.888 L 565 754.662 Z " fill="rgb(0,0,0)"/><path d=" M 580 746.001 L 580 751.775 L 590 746.001 L 590 740.228 L 580 746.001 Z " fill="rgb(0,0,0)"/><path d=" M 595 737.341 L 595 743.115 L 605 737.341 L 605 731.568 L 595 737.341 Z " fill="rgb(0,0,0)"/><path d=" M 535 858.14 L 535 863.914 L 545 858.14 L 545 852.367 L 535 858.14 Z " fill="rgb(0,0,0)"/><path d=" M 550 849.48 L 550 855.253 L 560 849.48 L 560 843.706 L 550 849.48 Z " fill="rgb(0,0,0)"/><path d=" M 565 840.82 L 565 846.593 L 575 840.82 L 575 835.046 L 565 840.82 Z " fill="rgb(0,0,0)"/><path d=" M 580 832.159 L 580 837.933 L 590 832.159 L 590 826.386 L 580 832.159 Z " fill="rgb(0,0,0)"/><path d=" M 595 823.499 L 595 829.273 L 605 823.499 L 605 817.726 L 595 823.499 Z " fill="rgb(0,0,0)"/><path d=" M 535 872.5 L 535 878.273 L 545 872.5 L 545 866.726 L 535 872.5 Z " fill="rgb(0,0,0)"/><path d=" M 550 863.84 L 550 869.613 L 560 863.84 L 560 858.066 L 550 863.84 Z " fill="rgb(0,0,0)"/><path d=" M 565 855.179 L 565 860.953 L 575 855.179 L 575 849.406 L 565 855.179 Z " fill="rgb(0,0,0)"/><path d=" M 580 846.519 L 580 852.293 L 590 846.519 L 590 840.746 L 580 846.519 Z " fill="rgb(0,0,0)"/><path d=" M 595 837.859 L 595 843.632 L 605 837.859 L 605 832.085 L 595 837.859 Z " fill="rgb(0,0,0)"/><path d=" M 535 886.86 L 535 892.633 L 545 886.86 L 545 881.086 L 535 886.86 Z " fill="rgb(0,0,0)"/><path d=" M 550 878.199 L 550 883.973 L 560 878.199 L 560 872.426 L 550 878.199 Z " fill="rgb(0,0,0)"/><path d=" M 565 869.539 L 565 875.313 L 575 869.539 L 575 863.766 L 565 869.539 Z " fill="rgb(0,0,0)"/><path d=" M 580 860.879 L 580 866.652 L 590 860.879 L 590 855.105 L 580 860.879 Z " fill="rgb(0,0,0)"/><path d=" M 595 852.219 L 595 857.992 L 605 852.219 L 605 846.445 L 595 852.219 Z " fill="rgb(0,0,0)"/><path d=" M 535 901.219 L 535 906.993 L 545 901.219 L 545 895.446 L 535 901.219 Z " fill="rgb(0,0,0)"/><path d=" M 550 892.559 L 550 898.333 L 560 892.559 L 560 886.786 L 550 892.559 Z " fill="rgb(0,0,0)"/><path d=" M 565 883.899 L 565 889.672 L 575 883.899 L 575 878.125 L 565 883.899 Z " fill="rgb(0,0,0)"/><path d=" M 580 875.239 L 580 881.012 L 590 875.239 L 590 869.465 L 580 875.239 Z " fill="rgb(0,0,0)"/><path d=" M 595 866.578 L 595 872.352 L 605 866.578 L 605 860.805 L 595 866.578 Z " fill="rgb(0,0,0)"/><path d=" M 535 542.227 L 535 548.001 L 545 542.227 L 545 536.454 L 535 542.227 Z " fill="rgb(0,0,0)"/><path d=" M 550 533.567 L 550 539.34 L 560 533.567 L 560 527.793 L 550 533.567 Z " fill="rgb(0,0,0)"/><path d=" M 565 524.907 L 565 530.68 L 575 524.907 L 575 519.133 L 565 524.907 Z " fill="rgb(0,0,0)"/><path d=" M 580 516.246 L 580 522.02 L 590 516.246 L 590 510.473 L 580 516.246 Z " fill="rgb(0,0,0)"/><path d=" M 595 507.586 L 595 513.36 L 605 507.586 L 605 501.813 L 595 507.586 Z " fill="rgb(0,0,0)"/><path d=" M 535 427.758 L 535 433.531 L 545 427.758 L 545 421.984 L 535 427.758 Z " fill="rgb(0,0,0)"/><path d=" M 550 419.097 L 550 424.871 L 560 419.097 L 560 413.324 L 550 419.097 Z " fill="rgb(0,0,0)"/><path d=" M 565 410.437 L 565 416.211 L 575 410.437 L 575 404.664 L 565 410.437 Z " fill="rgb(0,0,0)"/><path d=" M 580 401.777 L 580 407.55 L 590 401.777 L 590 396.003 L 580 401.777 Z " fill="rgb(0,0,0)"/><path d=" M 595 393.117 L 595 398.89 L 605 393.117 L 605 387.343 L 595 393.117 Z " fill="rgb(0,0,0)"/><path d=" M 535 370.319 L 535 376.092 L 545 370.319 L 545 364.545 L 535 370.319 Z " fill="rgb(0,0,0)"/><path d=" M 550 361.659 L 550 367.432 L 560 361.659 L 560 355.885 L 550 361.659 Z " fill="rgb(0,0,0)"/><path d=" M 565 352.998 L 565 358.772 L 575 352.998 L 575 347.225 L 565 352.998 Z " fill="rgb(0,0,0)"/><path d=" M 580 344.338 L 580 350.112 L 590 344.338 L 590 338.565 L 580 344.338 Z " fill="rgb(0,0,0)"/><path d=" M 595 335.678 L 595 341.451 L 605 335.678 L 605 329.904 L 595 335.678 Z " fill="rgb(0,0,0)"/><path d=" M 535 327.24 L 535 333.013 L 545 327.24 L 545 321.466 L 535 327.24 Z " fill="rgb(0,0,0)"/><path d=" M 550 318.58 L 550 324.353 L 560 318.58 L 560 312.806 L 550 318.58 Z " fill="rgb(0,0,0)"/><path d=" M 565 309.919 L 565 315.693 L 575 309.919 L 575 304.146 L 565 309.919 Z " fill="rgb(0,0,0)"/><path d=" M 580 301.259 L 580 307.033 L 590 301.259 L 590 295.486 L 580 301.259 Z " fill="rgb(0,0,0)"/><path d=" M 595 292.599 L 595 298.372 L 605 292.599 L 605 286.825 L 595 292.599 Z " fill="rgb(0,0,0)"/><path d=" M 535 341.6 L 535 347.373 L 545 341.6 L 545 335.826 L 535 341.6 Z " fill="rgb(0,0,0)"/><path d=" M 550 332.939 L 550 338.713 L 560 332.939 L 560 327.166 L 550 332.939 Z " fill="rgb(0,0,0)"/><path d=" M 565 324.279 L 565 330.053 L 575 324.279 L 575 318.506 L 565 324.279 Z " fill="rgb(0,0,0)"/><path d=" M 580 315.619 L 580 321.392 L 590 315.619 L 590 309.845 L 580 315.619 Z " fill="rgb(0,0,0)"/><path d=" M 595 306.959 L 595 312.732 L 605 306.959 L 605 301.185 L 595 306.959 Z " fill="rgb(0,0,0)"/><path d=" M 535 312.88 L 535 318.654 L 545 312.88 L 545 307.107 L 535 312.88 Z " fill="rgb(0,0,0)"/><path d=" M 550 304.22 L 550 309.994 L 560 304.22 L 560 298.447 L 550 304.22 Z " fill="rgb(0,0,0)"/><path d=" M 565 295.56 L 565 301.333 L 575 295.56 L 575 289.786 L 565 295.56 Z " fill="rgb(0,0,0)"/><path d=" M 580 286.899 L 580 292.673 L 590 286.899 L 590 281.126 L 580 286.899 Z " fill="rgb(0,0,0)"/><path d=" M 595 278.239 L 595 284.013 L 605 278.239 L 605 272.466 L 595 278.239 Z " fill="rgb(0,0,0)"/><path d=" M 535 269.801 L 535 275.575 L 545 269.801 L 545 264.028 L 535 269.801 Z " fill="rgb(0,0,0)"/><path d=" M 550 261.141 L 550 266.914 L 560 261.141 L 560 255.367 L 550 261.141 Z " fill="rgb(0,0,0)"/><path d=" M 565 252.481 L 565 258.254 L 575 252.481 L 575 246.707 L 565 252.481 Z " fill="rgb(0,0,0)"/><path d=" M 580 243.82 L 580 249.594 L 590 243.82 L 590 238.047 L 580 243.82 Z " fill="rgb(0,0,0)"/><path d=" M 595 235.16 L 595 240.934 L 605 235.16 L 605 229.387 L 595 235.16 Z " fill="rgb(0,0,0)"/><path d=" M 535 298.521 L 535 304.294 L 545 298.521 L 545 292.747 L 535 298.521 Z " fill="rgb(0,0,0)"/><path d=" M 550 289.86 L 550 295.634 L 560 289.86 L 560 284.087 L 550 289.86 Z " fill="rgb(0,0,0)"/><path d=" M 565 281.2 L 565 286.974 L 575 281.2 L 575 275.427 L 565 281.2 Z " fill="rgb(0,0,0)"/><path d=" M 580 272.54 L 580 278.313 L 590 272.54 L 590 266.766 L 580 272.54 Z " fill="rgb(0,0,0)"/><path d=" M 595 263.88 L 595 269.653 L 605 263.88 L 605 258.106 L 595 263.88 Z " fill="rgb(0,0,0)"/><path d=" M 535 442.117 L 535 447.891 L 545 442.117 L 545 436.344 L 535 442.117 Z " fill="rgb(0,0,0)"/><path d=" M 550 433.457 L 550 439.231 L 560 433.457 L 560 427.684 L 550 433.457 Z " fill="rgb(0,0,0)"/><path d=" M 565 424.797 L 565 430.57 L 575 424.797 L 575 419.023 L 565 424.797 Z " fill="rgb(0,0,0)"/><path d=" M 580 416.137 L 580 421.91 L 590 416.137 L 590 410.363 L 580 416.137 Z " fill="rgb(0,0,0)"/><path d=" M 595 407.476 L 595 413.25 L 605 407.476 L 605 401.703 L 595 407.476 Z " fill="rgb(0,0,0)"/><path d=" M 535 413.398 L 535 419.172 L 545 413.398 L 545 407.625 L 535 413.398 Z " fill="rgb(0,0,0)"/><path d=" M 550 404.738 L 550 410.511 L 560 404.738 L 560 398.964 L 550 404.738 Z " fill="rgb(0,0,0)"/><path d=" M 565 396.078 L 565 401.851 L 575 396.078 L 575 390.304 L 565 396.078 Z " fill="rgb(0,0,0)"/><path d=" M 580 387.417 L 580 393.191 L 590 387.417 L 590 381.644 L 580 387.417 Z " fill="rgb(0,0,0)"/><path d=" M 595 378.757 L 595 384.531 L 605 378.757 L 605 372.984 L 595 378.757 Z " fill="rgb(0,0,0)"/><path d=" M 535 399.038 L 535 404.812 L 545 399.038 L 545 393.265 L 535 399.038 Z " fill="rgb(0,0,0)"/><path d=" M 550 390.378 L 550 396.152 L 560 390.378 L 560 384.605 L 550 390.378 Z " fill="rgb(0,0,0)"/><path d=" M 565 381.718 L 565 387.491 L 575 381.718 L 575 375.944 L 565 381.718 Z " fill="rgb(0,0,0)"/><path d=" M 580 373.058 L 580 378.831 L 590 373.058 L 590 367.284 L 580 373.058 Z " fill="rgb(0,0,0)"/><path d=" M 595 364.397 L 595 370.171 L 605 364.397 L 605 358.624 L 595 364.397 Z " fill="rgb(0,0,0)"/><path d=" M 535 255.442 L 535 261.215 L 545 255.442 L 545 249.668 L 535 255.442 Z " fill="rgb(0,0,0)"/><path d=" M 550 246.781 L 550 252.555 L 560 246.781 L 560 241.008 L 550 246.781 Z " fill="rgb(0,0,0)"/><path d=" M 565 238.121 L 565 243.895 L 575 238.121 L 575 232.348 L 565 238.121 Z " fill="rgb(0,0,0)"/><path d=" M 580 229.461 L 580 235.234 L 590 229.461 L 590 223.687 L 580 229.461 Z " fill="rgb(0,0,0)"/><path d=" M 595 220.801 L 595 226.574 L 605 220.801 L 605 215.027 L 595 220.801 Z " fill="rgb(0,0,0)"/><path d=" M 535 284.161 L 535 289.934 L 545 284.161 L 545 278.387 L 535 284.161 Z " fill="rgb(0,0,0)"/><path d=" M 550 275.501 L 550 281.274 L 560 275.501 L 560 269.727 L 550 275.501 Z " fill="rgb(0,0,0)"/><path d=" M 565 266.84 L 565 272.614 L 575 266.84 L 575 261.067 L 565 266.84 Z " fill="rgb(0,0,0)"/><path d=" M 580 258.18 L 580 263.954 L 590 258.18 L 590 252.407 L 580 258.18 Z " fill="rgb(0,0,0)"/><path d=" M 595 249.52 L 595 255.293 L 605 249.52 L 605 243.746 L 595 249.52 Z " fill="rgb(0,0,0)"/><path d=" M 535 456.477 L 535 462.251 L 545 456.477 L 545 450.704 L 535 456.477 Z " fill="rgb(0,0,0)"/><path d=" M 550 447.817 L 550 453.59 L 560 447.817 L 560 442.043 L 550 447.817 Z " fill="rgb(0,0,0)"/><path d=" M 565 439.157 L 565 444.93 L 575 439.157 L 575 433.383 L 565 439.157 Z " fill="rgb(0,0,0)"/><path d=" M 580 430.496 L 580 436.27 L 590 430.496 L 590 424.723 L 580 430.496 Z " fill="rgb(0,0,0)"/><path d=" M 595 421.836 L 595 427.61 L 605 421.836 L 605 416.063 L 595 421.836 Z " fill="rgb(0,0,0)"/><path d=" M 535 355.959 L 535 361.733 L 545 355.959 L 545 350.186 L 535 355.959 Z " fill="rgb(0,0,0)"/><path d=" M 550 347.299 L 550 353.073 L 560 347.299 L 560 341.526 L 550 347.299 Z " fill="rgb(0,0,0)"/><path d=" M 565 338.639 L 565 344.412 L 575 338.639 L 575 332.865 L 565 338.639 Z " fill="rgb(0,0,0)"/><path d=" M 580 329.979 L 580 335.752 L 590 329.979 L 590 324.205 L 580 329.979 Z " fill="rgb(0,0,0)"/><path d=" M 595 321.318 L 595 327.092 L 605 321.318 L 605 315.545 L 595 321.318 Z " fill="rgb(0,0,0)"/><path d=" M 535 384.679 L 535 390.452 L 545 384.679 L 545 378.905 L 535 384.679 Z " fill="rgb(0,0,0)"/><path d=" M 550 376.018 L 550 381.792 L 560 376.018 L 560 370.245 L 550 376.018 Z " fill="rgb(0,0,0)"/><path d=" M 565 367.358 L 565 373.132 L 575 367.358 L 575 361.585 L 565 367.358 Z " fill="rgb(0,0,0)"/><path d=" M 580 358.698 L 580 364.471 L 590 358.698 L 590 352.924 L 580 358.698 Z " fill="rgb(0,0,0)"/><path d=" M 595 350.038 L 595 355.811 L 605 350.038 L 605 344.264 L 595 350.038 Z " fill="rgb(0,0,0)"/><path d=" M 535 470.837 L 535 476.61 L 545 470.837 L 545 465.063 L 535 470.837 Z " fill="rgb(0,0,0)"/><path d=" M 550 462.177 L 550 467.95 L 560 462.177 L 560 456.403 L 550 462.177 Z " fill="rgb(0,0,0)"/><path d=" M 565 453.516 L 565 459.29 L 575 453.516 L 575 447.743 L 565 453.516 Z " fill="rgb(0,0,0)"/><path d=" M 580 444.856 L 580 450.63 L 590 444.856 L 590 439.083 L 580 444.856 Z " fill="rgb(0,0,0)"/><path d=" M 595 436.196 L 595 441.969 L 605 436.196 L 605 430.422 L 595 436.196 Z " fill="rgb(0,0,0)"/><path d=" M 535 485.196 L 535 490.97 L 545 485.196 L 545 479.423 L 535 485.196 Z " fill="rgb(0,0,0)"/><path d=" M 550 476.536 L 550 482.31 L 560 476.536 L 560 470.763 L 550 476.536 Z " fill="rgb(0,0,0)"/><path d=" M 565 467.876 L 565 473.649 L 575 467.876 L 575 462.102 L 565 467.876 Z " fill="rgb(0,0,0)"/><path d=" M 580 459.216 L 580 464.989 L 590 459.216 L 590 453.442 L 580 459.216 Z " fill="rgb(0,0,0)"/><path d=" M 595 450.555 L 595 456.329 L 605 450.555 L 605 444.782 L 595 450.555 Z " fill="rgb(0,0,0)"/><path d=" M 535 499.556 L 535 505.33 L 545 499.556 L 545 493.783 L 535 499.556 Z " fill="rgb(0,0,0)"/><path d=" M 550 490.896 L 550 496.669 L 560 490.896 L 560 485.122 L 550 490.896 Z " fill="rgb(0,0,0)"/><path d=" M 565 482.236 L 565 488.009 L 575 482.236 L 575 476.462 L 565 482.236 Z " fill="rgb(0,0,0)"/><path d=" M 580 473.575 L 580 479.349 L 590 473.575 L 590 467.802 L 580 473.575 Z " fill="rgb(0,0,0)"/><path d=" M 595 464.915 L 595 470.689 L 605 464.915 L 605 459.142 L 595 464.915 Z " fill="rgb(0,0,0)"/><path d=" M 535 513.916 L 535 519.689 L 545 513.916 L 545 508.142 L 535 513.916 Z " fill="rgb(0,0,0)"/><path d=" M 550 505.256 L 550 511.029 L 560 505.256 L 560 499.482 L 550 505.256 Z " fill="rgb(0,0,0)"/><path d=" M 565 496.595 L 565 502.369 L 575 496.595 L 575 490.822 L 565 496.595 Z " fill="rgb(0,0,0)"/><path d=" M 580 487.935 L 580 493.709 L 590 487.935 L 590 482.162 L 580 487.935 Z " fill="rgb(0,0,0)"/><path d=" M 595 479.275 L 595 485.048 L 605 479.275 L 605 473.501 L 595 479.275 Z " fill="rgb(0,0,0)"/></g><g id="body-windows-left"><g id="Group"><path d=" M 482.5 915.579 L 482.5 921.352 L 472.5 915.579 L 472.5 909.805 L 482.5 915.579 Z " fill="rgb(0,0,0)"/><path d=" M 467.5 906.919 L 467.5 912.692 L 457.5 906.919 L 457.5 901.145 L 467.5 906.919 Z " fill="rgb(0,0,0)"/><path d=" M 452.5 898.258 L 452.5 904.032 L 442.5 898.258 L 442.5 892.485 L 452.5 898.258 Z " fill="rgb(0,0,0)"/><path d=" M 437.5 889.598 L 437.5 895.372 L 427.5 889.598 L 427.5 883.825 L 437.5 889.598 Z " fill="rgb(0,0,0)"/><path d=" M 422.5 880.938 L 422.5 886.711 L 412.5 880.938 L 412.5 875.164 L 422.5 880.938 Z " fill="rgb(0,0,0)"/><path d=" M 482.5 815.061 L 482.5 820.835 L 472.5 815.061 L 472.5 809.288 L 482.5 815.061 Z " fill="rgb(0,0,0)"/><path d=" M 467.5 806.401 L 467.5 812.174 L 457.5 806.401 L 457.5 800.627 L 467.5 806.401 Z " fill="rgb(0,0,0)"/><path d=" M 452.5 797.741 L 452.5 803.514 L 442.5 797.741 L 442.5 791.967 L 452.5 797.741 Z " fill="rgb(0,0,0)"/><path d=" M 437.5 789.08 L 437.5 794.854 L 427.5 789.08 L 427.5 783.307 L 437.5 789.08 Z " fill="rgb(0,0,0)"/><path d=" M 422.5 780.42 L 422.5 786.194 L 412.5 780.42 L 412.5 774.647 L 422.5 780.42 Z " fill="rgb(0,0,0)"/><path d=" M 482.5 628.385 L 482.5 634.159 L 472.5 628.385 L 472.5 622.612 L 482.5 628.385 Z " fill="rgb(0,0,0)"/><path d=" M 467.5 619.725 L 467.5 625.499 L 457.5 619.725 L 457.5 613.952 L 467.5 619.725 Z " fill="rgb(0,0,0)"/><path d=" M 452.5 611.065 L 452.5 616.838 L 442.5 611.065 L 442.5 605.291 L 452.5 611.065 Z " fill="rgb(0,0,0)"/><path d=" M 437.5 602.405 L 437.5 608.178 L 427.5 602.405 L 427.5 596.631 L 437.5 602.405 Z " fill="rgb(0,0,0)"/><path d=" M 422.5 593.744 L 422.5 599.518 L 412.5 593.744 L 412.5 587.971 L 422.5 593.744 Z " fill="rgb(0,0,0)"/><path d=" M 482.5 585.306 L 482.5 591.08 L 472.5 585.306 L 472.5 579.533 L 482.5 585.306 Z " fill="rgb(0,0,0)"/><path d=" M 467.5 576.646 L 467.5 582.42 L 457.5 576.646 L 457.5 570.873 L 467.5 576.646 Z " fill="rgb(0,0,0)"/><path d=" M 452.5 567.986 L 452.5 573.759 L 442.5 567.986 L 442.5 562.212 L 452.5 567.986 Z " fill="rgb(0,0,0)"/><path d=" M 437.5 559.326 L 437.5 565.099 L 427.5 559.326 L 427.5 553.552 L 437.5 559.326 Z " fill="rgb(0,0,0)"/><path d=" M 422.5 550.665 L 422.5 556.439 L 412.5 550.665 L 412.5 544.892 L 422.5 550.665 Z " fill="rgb(0,0,0)"/><path d=" M 482.5 757.622 L 482.5 763.396 L 472.5 757.622 L 472.5 751.849 L 482.5 757.622 Z " fill="rgb(0,0,0)"/><path d=" M 467.5 748.962 L 467.5 754.736 L 457.5 748.962 L 457.5 743.189 L 467.5 748.962 Z " fill="rgb(0,0,0)"/><path d=" M 452.5 740.302 L 452.5 746.075 L 442.5 740.302 L 442.5 734.528 L 452.5 740.302 Z " fill="rgb(0,0,0)"/><path d=" M 437.5 731.642 L 437.5 737.415 L 427.5 731.642 L 427.5 725.868 L 437.5 731.642 Z " fill="rgb(0,0,0)"/><path d=" M 422.5 722.981 L 422.5 728.755 L 412.5 722.981 L 412.5 717.208 L 422.5 722.981 Z " fill="rgb(0,0,0)"/><path d=" M 482.5 714.543 L 482.5 720.317 L 472.5 714.543 L 472.5 708.77 L 482.5 714.543 Z " fill="rgb(0,0,0)"/><path d=" M 467.5 705.883 L 467.5 711.657 L 457.5 705.883 L 457.5 700.11 L 467.5 705.883 Z " fill="rgb(0,0,0)"/><path d=" M 452.5 697.223 L 452.5 702.996 L 442.5 697.223 L 442.5 691.449 L 452.5 697.223 Z " fill="rgb(0,0,0)"/><path d=" M 437.5 688.563 L 437.5 694.336 L 427.5 688.563 L 427.5 682.789 L 437.5 688.563 Z " fill="rgb(0,0,0)"/><path d=" M 422.5 679.902 L 422.5 685.676 L 412.5 679.902 L 412.5 674.129 L 422.5 679.902 Z " fill="rgb(0,0,0)"/><path d=" M 482.5 728.903 L 482.5 734.677 L 472.5 728.903 L 472.5 723.13 L 482.5 728.903 Z " fill="rgb(0,0,0)"/><path d=" M 467.5 720.243 L 467.5 726.016 L 457.5 720.243 L 457.5 714.469 L 467.5 720.243 Z " fill="rgb(0,0,0)"/><path d=" M 452.5 711.583 L 452.5 717.356 L 442.5 711.583 L 442.5 705.809 L 452.5 711.583 Z " fill="rgb(0,0,0)"/><path d=" M 437.5 702.922 L 437.5 708.696 L 427.5 702.922 L 427.5 697.149 L 437.5 702.922 Z " fill="rgb(0,0,0)"/><path d=" M 422.5 694.262 L 422.5 700.036 L 412.5 694.262 L 412.5 688.489 L 422.5 694.262 Z " fill="rgb(0,0,0)"/><path d=" M 482.5 700.184 L 482.5 705.957 L 472.5 700.184 L 472.5 694.41 L 482.5 700.184 Z " fill="rgb(0,0,0)"/><path d=" M 467.5 691.523 L 467.5 697.297 L 457.5 691.523 L 457.5 685.75 L 467.5 691.523 Z " fill="rgb(0,0,0)"/><path d=" M 452.5 682.863 L 452.5 688.637 L 442.5 682.863 L 442.5 677.09 L 452.5 682.863 Z " fill="rgb(0,0,0)"/><path d=" M 437.5 674.203 L 437.5 679.976 L 427.5 674.203 L 427.5 668.429 L 437.5 674.203 Z " fill="rgb(0,0,0)"/><path d=" M 422.5 665.543 L 422.5 671.316 L 412.5 665.543 L 412.5 659.769 L 422.5 665.543 Z " fill="rgb(0,0,0)"/><path d=" M 482.5 657.105 L 482.5 662.878 L 472.5 657.105 L 472.5 651.331 L 482.5 657.105 Z " fill="rgb(0,0,0)"/><path d=" M 467.5 648.444 L 467.5 654.218 L 457.5 648.444 L 457.5 642.671 L 467.5 648.444 Z " fill="rgb(0,0,0)"/><path d=" M 452.5 639.784 L 452.5 645.558 L 442.5 639.784 L 442.5 634.011 L 452.5 639.784 Z " fill="rgb(0,0,0)"/><path d=" M 437.5 631.124 L 437.5 636.897 L 427.5 631.124 L 427.5 625.35 L 437.5 631.124 Z " fill="rgb(0,0,0)"/><path d=" M 422.5 622.464 L 422.5 628.237 L 412.5 622.464 L 412.5 616.69 L 422.5 622.464 Z " fill="rgb(0,0,0)"/><path d=" M 482.5 685.824 L 482.5 691.598 L 472.5 685.824 L 472.5 680.051 L 482.5 685.824 Z " fill="rgb(0,0,0)"/><path d=" M 467.5 677.164 L 467.5 682.937 L 457.5 677.164 L 457.5 671.39 L 467.5 677.164 Z " fill="rgb(0,0,0)"/><path d=" M 452.5 668.504 L 452.5 674.277 L 442.5 668.504 L 442.5 662.73 L 452.5 668.504 Z " fill="rgb(0,0,0)"/><path d=" M 437.5 659.843 L 437.5 665.617 L 427.5 659.843 L 427.5 654.07 L 437.5 659.843 Z " fill="rgb(0,0,0)"/><path d=" M 422.5 651.183 L 422.5 656.957 L 412.5 651.183 L 412.5 645.41 L 422.5 651.183 Z " fill="rgb(0,0,0)"/><path d=" M 482.5 829.421 L 482.5 835.194 L 472.5 829.421 L 472.5 823.647 L 482.5 829.421 Z " fill="rgb(0,0,0)"/><path d=" M 467.5 820.761 L 467.5 826.534 L 457.5 820.761 L 457.5 814.987 L 467.5 820.761 Z " fill="rgb(0,0,0)"/><path d=" M 452.5 812.1 L 452.5 817.874 L 442.5 812.1 L 442.5 806.327 L 452.5 812.1 Z " fill="rgb(0,0,0)"/><path d=" M 437.5 803.44 L 437.5 809.214 L 427.5 803.44 L 427.5 797.667 L 437.5 803.44 Z " fill="rgb(0,0,0)"/><path d=" M 422.5 794.78 L 422.5 800.553 L 412.5 794.78 L 412.5 789.006 L 422.5 794.78 Z " fill="rgb(0,0,0)"/><path d=" M 482.5 800.702 L 482.5 806.475 L 472.5 800.702 L 472.5 794.928 L 482.5 800.702 Z " fill="rgb(0,0,0)"/><path d=" M 467.5 792.041 L 467.5 797.815 L 457.5 792.041 L 457.5 786.268 L 467.5 792.041 Z " fill="rgb(0,0,0)"/><path d=" M 452.5 783.381 L 452.5 789.154 L 442.5 783.381 L 442.5 777.607 L 452.5 783.381 Z " fill="rgb(0,0,0)"/><path d=" M 437.5 774.721 L 437.5 780.494 L 427.5 774.721 L 427.5 768.947 L 437.5 774.721 Z " fill="rgb(0,0,0)"/><path d=" M 422.5 766.06 L 422.5 771.834 L 412.5 766.06 L 412.5 760.287 L 422.5 766.06 Z " fill="rgb(0,0,0)"/><path d=" M 482.5 556.587 L 482.5 562.36 L 472.5 556.587 L 472.5 550.813 L 482.5 556.587 Z " fill="rgb(0,0,0)"/><path d=" M 467.5 547.927 L 467.5 553.7 L 457.5 547.927 L 457.5 542.153 L 467.5 547.927 Z " fill="rgb(0,0,0)"/><path d=" M 452.5 539.266 L 452.5 545.04 L 442.5 539.266 L 442.5 533.493 L 452.5 539.266 Z " fill="rgb(0,0,0)"/><path d=" M 437.5 530.606 L 437.5 536.38 L 427.5 530.606 L 427.5 524.833 L 437.5 530.606 Z " fill="rgb(0,0,0)"/><path d=" M 422.5 521.946 L 422.5 527.719 L 412.5 521.946 L 412.5 516.172 L 422.5 521.946 Z " fill="rgb(0,0,0)"/><path d=" M 482.5 786.342 L 482.5 792.115 L 472.5 786.342 L 472.5 780.568 L 482.5 786.342 Z " fill="rgb(0,0,0)"/><path d=" M 467.5 777.682 L 467.5 783.455 L 457.5 777.682 L 457.5 771.908 L 467.5 777.682 Z " fill="rgb(0,0,0)"/><path d=" M 452.5 769.021 L 452.5 774.795 L 442.5 769.021 L 442.5 763.248 L 452.5 769.021 Z " fill="rgb(0,0,0)"/><path d=" M 437.5 760.361 L 437.5 766.135 L 427.5 760.361 L 427.5 754.588 L 437.5 760.361 Z " fill="rgb(0,0,0)"/><path d=" M 422.5 751.701 L 422.5 757.474 L 412.5 751.701 L 412.5 745.927 L 422.5 751.701 Z " fill="rgb(0,0,0)"/><path d=" M 482.5 527.868 L 482.5 533.641 L 472.5 527.868 L 472.5 522.094 L 482.5 527.868 Z " fill="rgb(0,0,0)"/><path d=" M 467.5 519.207 L 467.5 524.981 L 457.5 519.207 L 457.5 513.434 L 467.5 519.207 Z " fill="rgb(0,0,0)"/><path d=" M 452.5 510.547 L 452.5 516.321 L 442.5 510.547 L 442.5 504.774 L 452.5 510.547 Z " fill="rgb(0,0,0)"/><path d=" M 437.5 501.887 L 437.5 507.66 L 427.5 501.887 L 427.5 496.113 L 437.5 501.887 Z " fill="rgb(0,0,0)"/><path d=" M 422.5 493.227 L 422.5 499 L 412.5 493.227 L 412.5 487.453 L 422.5 493.227 Z " fill="rgb(0,0,0)"/><path d=" M 482.5 570.947 L 482.5 576.72 L 472.5 570.947 L 472.5 565.173 L 482.5 570.947 Z " fill="rgb(0,0,0)"/><path d=" M 467.5 562.286 L 467.5 568.06 L 457.5 562.286 L 457.5 556.513 L 467.5 562.286 Z " fill="rgb(0,0,0)"/><path d=" M 452.5 553.626 L 452.5 559.4 L 442.5 553.626 L 442.5 547.853 L 452.5 553.626 Z " fill="rgb(0,0,0)"/><path d=" M 437.5 544.966 L 437.5 550.739 L 427.5 544.966 L 427.5 539.192 L 437.5 544.966 Z " fill="rgb(0,0,0)"/><path d=" M 422.5 536.306 L 422.5 542.079 L 412.5 536.306 L 412.5 530.532 L 422.5 536.306 Z " fill="rgb(0,0,0)"/><path d=" M 482.5 614.026 L 482.5 619.799 L 472.5 614.026 L 472.5 608.252 L 482.5 614.026 Z " fill="rgb(0,0,0)"/><path d=" M 467.5 605.365 L 467.5 611.139 L 457.5 605.365 L 457.5 599.592 L 467.5 605.365 Z " fill="rgb(0,0,0)"/><path d=" M 452.5 596.705 L 452.5 602.479 L 442.5 596.705 L 442.5 590.932 L 452.5 596.705 Z " fill="rgb(0,0,0)"/><path d=" M 437.5 588.045 L 437.5 593.818 L 427.5 588.045 L 427.5 582.271 L 437.5 588.045 Z " fill="rgb(0,0,0)"/><path d=" M 422.5 579.385 L 422.5 585.158 L 412.5 579.385 L 412.5 573.611 L 422.5 579.385 Z " fill="rgb(0,0,0)"/><path d=" M 482.5 599.666 L 482.5 605.439 L 472.5 599.666 L 472.5 593.892 L 482.5 599.666 Z " fill="rgb(0,0,0)"/><path d=" M 467.5 591.006 L 467.5 596.779 L 457.5 591.006 L 457.5 585.232 L 467.5 591.006 Z " fill="rgb(0,0,0)"/><path d=" M 452.5 582.345 L 452.5 588.119 L 442.5 582.345 L 442.5 576.572 L 452.5 582.345 Z " fill="rgb(0,0,0)"/><path d=" M 437.5 573.685 L 437.5 579.459 L 427.5 573.685 L 427.5 567.912 L 437.5 573.685 Z " fill="rgb(0,0,0)"/><path d=" M 422.5 565.025 L 422.5 570.798 L 412.5 565.025 L 412.5 559.251 L 422.5 565.025 Z " fill="rgb(0,0,0)"/><path d=" M 482.5 642.745 L 482.5 648.518 L 472.5 642.745 L 472.5 636.971 L 482.5 642.745 Z " fill="rgb(0,0,0)"/><path d=" M 467.5 634.085 L 467.5 639.858 L 457.5 634.085 L 457.5 628.311 L 467.5 634.085 Z " fill="rgb(0,0,0)"/><path d=" M 452.5 625.424 L 452.5 631.198 L 442.5 625.424 L 442.5 619.651 L 452.5 625.424 Z " fill="rgb(0,0,0)"/><path d=" M 437.5 616.764 L 437.5 622.538 L 427.5 616.764 L 427.5 610.991 L 437.5 616.764 Z " fill="rgb(0,0,0)"/><path d=" M 422.5 608.104 L 422.5 613.877 L 412.5 608.104 L 412.5 602.33 L 422.5 608.104 Z " fill="rgb(0,0,0)"/><path d=" M 482.5 671.464 L 482.5 677.238 L 472.5 671.464 L 472.5 665.691 L 482.5 671.464 Z " fill="rgb(0,0,0)"/><path d=" M 467.5 662.804 L 467.5 668.578 L 457.5 662.804 L 457.5 657.031 L 467.5 662.804 Z " fill="rgb(0,0,0)"/><path d=" M 452.5 654.144 L 452.5 659.917 L 442.5 654.144 L 442.5 648.37 L 452.5 654.144 Z " fill="rgb(0,0,0)"/><path d=" M 437.5 645.484 L 437.5 651.257 L 427.5 645.484 L 427.5 639.71 L 437.5 645.484 Z " fill="rgb(0,0,0)"/><path d=" M 422.5 636.823 L 422.5 642.597 L 412.5 636.823 L 412.5 631.05 L 422.5 636.823 Z " fill="rgb(0,0,0)"/><path d=" M 482.5 843.781 L 482.5 849.554 L 472.5 843.781 L 472.5 838.007 L 482.5 843.781 Z " fill="rgb(0,0,0)"/><path d=" M 467.5 835.12 L 467.5 840.894 L 457.5 835.12 L 457.5 829.347 L 467.5 835.12 Z " fill="rgb(0,0,0)"/><path d=" M 452.5 826.46 L 452.5 832.234 L 442.5 826.46 L 442.5 820.687 L 452.5 826.46 Z " fill="rgb(0,0,0)"/><path d=" M 437.5 817.8 L 437.5 823.573 L 427.5 817.8 L 427.5 812.026 L 437.5 817.8 Z " fill="rgb(0,0,0)"/><path d=" M 422.5 809.14 L 422.5 814.913 L 412.5 809.14 L 412.5 803.366 L 422.5 809.14 Z " fill="rgb(0,0,0)"/><path d=" M 482.5 743.263 L 482.5 749.036 L 472.5 743.263 L 472.5 737.489 L 482.5 743.263 Z " fill="rgb(0,0,0)"/><path d=" M 467.5 734.603 L 467.5 740.376 L 457.5 734.603 L 457.5 728.829 L 467.5 734.603 Z " fill="rgb(0,0,0)"/><path d=" M 452.5 725.942 L 452.5 731.716 L 442.5 725.942 L 442.5 720.169 L 452.5 725.942 Z " fill="rgb(0,0,0)"/><path d=" M 437.5 717.282 L 437.5 723.056 L 427.5 717.282 L 427.5 711.509 L 437.5 717.282 Z " fill="rgb(0,0,0)"/><path d=" M 422.5 708.622 L 422.5 714.395 L 412.5 708.622 L 412.5 702.848 L 422.5 708.622 Z " fill="rgb(0,0,0)"/><path d=" M 482.5 771.982 L 482.5 777.756 L 472.5 771.982 L 472.5 766.209 L 482.5 771.982 Z " fill="rgb(0,0,0)"/><path d=" M 467.5 763.322 L 467.5 769.095 L 457.5 763.322 L 457.5 757.548 L 467.5 763.322 Z " fill="rgb(0,0,0)"/><path d=" M 452.5 754.662 L 452.5 760.435 L 442.5 754.662 L 442.5 748.888 L 452.5 754.662 Z " fill="rgb(0,0,0)"/><path d=" M 437.5 746.001 L 437.5 751.775 L 427.5 746.001 L 427.5 740.228 L 437.5 746.001 Z " fill="rgb(0,0,0)"/><path d=" M 422.5 737.341 L 422.5 743.115 L 412.5 737.341 L 412.5 731.568 L 422.5 737.341 Z " fill="rgb(0,0,0)"/><path d=" M 482.5 858.14 L 482.5 863.914 L 472.5 858.14 L 472.5 852.367 L 482.5 858.14 Z " fill="rgb(0,0,0)"/><path d=" M 467.5 849.48 L 467.5 855.253 L 457.5 849.48 L 457.5 843.706 L 467.5 849.48 Z " fill="rgb(0,0,0)"/><path d=" M 452.5 840.82 L 452.5 846.593 L 442.5 840.82 L 442.5 835.046 L 452.5 840.82 Z " fill="rgb(0,0,0)"/><path d=" M 437.5 832.159 L 437.5 837.933 L 427.5 832.159 L 427.5 826.386 L 437.5 832.159 Z " fill="rgb(0,0,0)"/><path d=" M 422.5 823.499 L 422.5 829.273 L 412.5 823.499 L 412.5 817.726 L 422.5 823.499 Z " fill="rgb(0,0,0)"/><path d=" M 482.5 872.5 L 482.5 878.273 L 472.5 872.5 L 472.5 866.726 L 482.5 872.5 Z " fill="rgb(0,0,0)"/><path d=" M 467.5 863.84 L 467.5 869.613 L 457.5 863.84 L 457.5 858.066 L 467.5 863.84 Z " fill="rgb(0,0,0)"/><path d=" M 452.5 855.179 L 452.5 860.953 L 442.5 855.179 L 442.5 849.406 L 452.5 855.179 Z " fill="rgb(0,0,0)"/><path d=" M 437.5 846.519 L 437.5 852.293 L 427.5 846.519 L 427.5 840.746 L 437.5 846.519 Z " fill="rgb(0,0,0)"/><path d=" M 422.5 837.859 L 422.5 843.632 L 412.5 837.859 L 412.5 832.085 L 422.5 837.859 Z " fill="rgb(0,0,0)"/><path d=" M 482.5 886.86 L 482.5 892.633 L 472.5 886.86 L 472.5 881.086 L 482.5 886.86 Z " fill="rgb(0,0,0)"/><path d=" M 467.5 878.199 L 467.5 883.973 L 457.5 878.199 L 457.5 872.426 L 467.5 878.199 Z " fill="rgb(0,0,0)"/><path d=" M 452.5 869.539 L 452.5 875.313 L 442.5 869.539 L 442.5 863.766 L 452.5 869.539 Z " fill="rgb(0,0,0)"/><path d=" M 437.5 860.879 L 437.5 866.652 L 427.5 860.879 L 427.5 855.105 L 437.5 860.879 Z " fill="rgb(0,0,0)"/><path d=" M 422.5 852.219 L 422.5 857.992 L 412.5 852.219 L 412.5 846.445 L 422.5 852.219 Z " fill="rgb(0,0,0)"/><path d=" M 482.5 901.219 L 482.5 906.993 L 472.5 901.219 L 472.5 895.446 L 482.5 901.219 Z " fill="rgb(0,0,0)"/><path d=" M 467.5 892.559 L 467.5 898.333 L 457.5 892.559 L 457.5 886.786 L 467.5 892.559 Z " fill="rgb(0,0,0)"/><path d=" M 452.5 883.899 L 452.5 889.672 L 442.5 883.899 L 442.5 878.125 L 452.5 883.899 Z " fill="rgb(0,0,0)"/><path d=" M 437.5 875.239 L 437.5 881.012 L 427.5 875.239 L 427.5 869.465 L 437.5 875.239 Z " fill="rgb(0,0,0)"/><path d=" M 422.5 866.578 L 422.5 872.352 L 412.5 866.578 L 412.5 860.805 L 422.5 866.578 Z " fill="rgb(0,0,0)"/><path d=" M 482.5 542.227 L 482.5 548.001 L 472.5 542.227 L 472.5 536.454 L 482.5 542.227 Z " fill="rgb(0,0,0)"/><path d=" M 467.5 533.567 L 467.5 539.34 L 457.5 533.567 L 457.5 527.793 L 467.5 533.567 Z " fill="rgb(0,0,0)"/><path d=" M 452.5 524.907 L 452.5 530.68 L 442.5 524.907 L 442.5 519.133 L 452.5 524.907 Z " fill="rgb(0,0,0)"/><path d=" M 437.5 516.246 L 437.5 522.02 L 427.5 516.246 L 427.5 510.473 L 437.5 516.246 Z " fill="rgb(0,0,0)"/><path d=" M 422.5 507.586 L 422.5 513.36 L 412.5 507.586 L 412.5 501.813 L 422.5 507.586 Z " fill="rgb(0,0,0)"/><path d=" M 467.5 906.579 L 467.5 912.352 L 457.5 906.579 L 457.5 900.805 L 467.5 906.579 Z " fill="rgb(0,0,0)"/><path d=" M 452.5 897.919 L 452.5 903.692 L 442.5 897.919 L 442.5 892.145 L 452.5 897.919 Z " fill="rgb(0,0,0)"/><path d=" M 437.5 889.258 L 437.5 895.032 L 427.5 889.258 L 427.5 883.485 L 437.5 889.258 Z " fill="rgb(0,0,0)"/><path d=" M 422.5 880.598 L 422.5 886.372 L 412.5 880.598 L 412.5 874.825 L 422.5 880.598 Z " fill="rgb(0,0,0)"/><path d=" M 407.5 871.938 L 407.5 877.711 L 397.5 871.938 L 397.5 866.164 L 407.5 871.938 Z " fill="rgb(0,0,0)"/><path d=" M 467.5 806.061 L 467.5 811.835 L 457.5 806.061 L 457.5 800.288 L 467.5 806.061 Z " fill="rgb(0,0,0)"/><path d=" M 452.5 797.401 L 452.5 803.174 L 442.5 797.401 L 442.5 791.627 L 452.5 797.401 Z " fill="rgb(0,0,0)"/><path d=" M 437.5 788.741 L 437.5 794.514 L 427.5 788.741 L 427.5 782.967 L 437.5 788.741 Z " fill="rgb(0,0,0)"/><path d=" M 422.5 780.08 L 422.5 785.854 L 412.5 780.08 L 412.5 774.307 L 422.5 780.08 Z " fill="rgb(0,0,0)"/><path d=" M 407.5 771.42 L 407.5 777.194 L 397.5 771.42 L 397.5 765.647 L 407.5 771.42 Z " fill="rgb(0,0,0)"/><path d=" M 467.5 619.385 L 467.5 625.159 L 457.5 619.385 L 457.5 613.612 L 467.5 619.385 Z " fill="rgb(0,0,0)"/><path d=" M 452.5 610.725 L 452.5 616.499 L 442.5 610.725 L 442.5 604.952 L 452.5 610.725 Z " fill="rgb(0,0,0)"/><path d=" M 437.5 602.065 L 437.5 607.838 L 427.5 602.065 L 427.5 596.291 L 437.5 602.065 Z " fill="rgb(0,0,0)"/><path d=" M 422.5 593.405 L 422.5 599.178 L 412.5 593.405 L 412.5 587.631 L 422.5 593.405 Z " fill="rgb(0,0,0)"/><path d=" M 407.5 584.744 L 407.5 590.518 L 397.5 584.744 L 397.5 578.971 L 407.5 584.744 Z " fill="rgb(0,0,0)"/><path d=" M 467.5 576.306 L 467.5 582.08 L 457.5 576.306 L 457.5 570.533 L 467.5 576.306 Z " fill="rgb(0,0,0)"/><path d=" M 452.5 567.646 L 452.5 573.42 L 442.5 567.646 L 442.5 561.873 L 452.5 567.646 Z " fill="rgb(0,0,0)"/><path d=" M 437.5 558.986 L 437.5 564.759 L 427.5 558.986 L 427.5 553.212 L 437.5 558.986 Z " fill="rgb(0,0,0)"/><path d=" M 422.5 550.326 L 422.5 556.099 L 412.5 550.326 L 412.5 544.552 L 422.5 550.326 Z " fill="rgb(0,0,0)"/><path d=" M 407.5 541.665 L 407.5 547.439 L 397.5 541.665 L 397.5 535.892 L 407.5 541.665 Z " fill="rgb(0,0,0)"/><path d=" M 467.5 748.622 L 467.5 754.396 L 457.5 748.622 L 457.5 742.849 L 467.5 748.622 Z " fill="rgb(0,0,0)"/><path d=" M 452.5 739.962 L 452.5 745.736 L 442.5 739.962 L 442.5 734.189 L 452.5 739.962 Z " fill="rgb(0,0,0)"/><path d=" M 437.5 731.302 L 437.5 737.075 L 427.5 731.302 L 427.5 725.528 L 437.5 731.302 Z " fill="rgb(0,0,0)"/><path d=" M 422.5 722.642 L 422.5 728.415 L 412.5 722.642 L 412.5 716.868 L 422.5 722.642 Z " fill="rgb(0,0,0)"/><path d=" M 407.5 713.981 L 407.5 719.755 L 397.5 713.981 L 397.5 708.208 L 407.5 713.981 Z " fill="rgb(0,0,0)"/><path d=" M 467.5 705.543 L 467.5 711.317 L 457.5 705.543 L 457.5 699.77 L 467.5 705.543 Z " fill="rgb(0,0,0)"/><path d=" M 452.5 696.883 L 452.5 702.657 L 442.5 696.883 L 442.5 691.11 L 452.5 696.883 Z " fill="rgb(0,0,0)"/><path d=" M 437.5 688.223 L 437.5 693.996 L 427.5 688.223 L 427.5 682.449 L 437.5 688.223 Z " fill="rgb(0,0,0)"/><path d=" M 422.5 679.563 L 422.5 685.336 L 412.5 679.563 L 412.5 673.789 L 422.5 679.563 Z " fill="rgb(0,0,0)"/><path d=" M 407.5 670.902 L 407.5 676.676 L 397.5 670.902 L 397.5 665.129 L 407.5 670.902 Z " fill="rgb(0,0,0)"/><path d=" M 467.5 719.903 L 467.5 725.677 L 457.5 719.903 L 457.5 714.13 L 467.5 719.903 Z " fill="rgb(0,0,0)"/><path d=" M 452.5 711.243 L 452.5 717.016 L 442.5 711.243 L 442.5 705.469 L 452.5 711.243 Z " fill="rgb(0,0,0)"/><path d=" M 437.5 702.583 L 437.5 708.356 L 427.5 702.583 L 427.5 696.809 L 437.5 702.583 Z " fill="rgb(0,0,0)"/><path d=" M 422.5 693.922 L 422.5 699.696 L 412.5 693.922 L 412.5 688.149 L 422.5 693.922 Z " fill="rgb(0,0,0)"/><path d=" M 407.5 685.262 L 407.5 691.036 L 397.5 685.262 L 397.5 679.489 L 407.5 685.262 Z " fill="rgb(0,0,0)"/><path d=" M 467.5 691.184 L 467.5 696.957 L 457.5 691.184 L 457.5 685.41 L 467.5 691.184 Z " fill="rgb(0,0,0)"/><path d=" M 452.5 682.523 L 452.5 688.297 L 442.5 682.523 L 442.5 676.75 L 452.5 682.523 Z " fill="rgb(0,0,0)"/><path d=" M 437.5 673.863 L 437.5 679.637 L 427.5 673.863 L 427.5 668.09 L 437.5 673.863 Z " fill="rgb(0,0,0)"/><path d=" M 422.5 665.203 L 422.5 670.976 L 412.5 665.203 L 412.5 659.429 L 422.5 665.203 Z " fill="rgb(0,0,0)"/><path d=" M 407.5 656.543 L 407.5 662.316 L 397.5 656.543 L 397.5 650.769 L 407.5 656.543 Z " fill="rgb(0,0,0)"/><path d=" M 467.5 648.105 L 467.5 653.878 L 457.5 648.105 L 457.5 642.331 L 467.5 648.105 Z " fill="rgb(0,0,0)"/><path d=" M 452.5 639.444 L 452.5 645.218 L 442.5 639.444 L 442.5 633.671 L 452.5 639.444 Z " fill="rgb(0,0,0)"/><path d=" M 437.5 630.784 L 437.5 636.558 L 427.5 630.784 L 427.5 625.011 L 437.5 630.784 Z " fill="rgb(0,0,0)"/><path d=" M 422.5 622.124 L 422.5 627.897 L 412.5 622.124 L 412.5 616.35 L 422.5 622.124 Z " fill="rgb(0,0,0)"/><path d=" M 407.5 613.464 L 407.5 619.237 L 397.5 613.464 L 397.5 607.69 L 407.5 613.464 Z " fill="rgb(0,0,0)"/><path d=" M 467.5 676.824 L 467.5 682.598 L 457.5 676.824 L 457.5 671.051 L 467.5 676.824 Z " fill="rgb(0,0,0)"/><path d=" M 452.5 668.164 L 452.5 673.937 L 442.5 668.164 L 442.5 662.39 L 452.5 668.164 Z " fill="rgb(0,0,0)"/><path d=" M 437.5 659.504 L 437.5 665.277 L 427.5 659.504 L 427.5 653.73 L 437.5 659.504 Z " fill="rgb(0,0,0)"/><path d=" M 422.5 650.843 L 422.5 656.617 L 412.5 650.843 L 412.5 645.07 L 422.5 650.843 Z " fill="rgb(0,0,0)"/><path d=" M 407.5 642.183 L 407.5 647.957 L 397.5 642.183 L 397.5 636.41 L 407.5 642.183 Z " fill="rgb(0,0,0)"/><path d=" M 467.5 820.421 L 467.5 826.194 L 457.5 820.421 L 457.5 814.647 L 467.5 820.421 Z " fill="rgb(0,0,0)"/><path d=" M 452.5 811.761 L 452.5 817.534 L 442.5 811.761 L 442.5 805.987 L 452.5 811.761 Z " fill="rgb(0,0,0)"/><path d=" M 437.5 803.1 L 437.5 808.874 L 427.5 803.1 L 427.5 797.327 L 437.5 803.1 Z " fill="rgb(0,0,0)"/><path d=" M 422.5 794.44 L 422.5 800.214 L 412.5 794.44 L 412.5 788.667 L 422.5 794.44 Z " fill="rgb(0,0,0)"/><path d=" M 407.5 785.78 L 407.5 791.553 L 397.5 785.78 L 397.5 780.006 L 407.5 785.78 Z " fill="rgb(0,0,0)"/><path d=" M 467.5 791.702 L 467.5 797.475 L 457.5 791.702 L 457.5 785.928 L 467.5 791.702 Z " fill="rgb(0,0,0)"/><path d=" M 452.5 783.041 L 452.5 788.815 L 442.5 783.041 L 442.5 777.268 L 452.5 783.041 Z " fill="rgb(0,0,0)"/><path d=" M 437.5 774.381 L 437.5 780.154 L 427.5 774.381 L 427.5 768.607 L 437.5 774.381 Z " fill="rgb(0,0,0)"/><path d=" M 422.5 765.721 L 422.5 771.494 L 412.5 765.721 L 412.5 759.947 L 422.5 765.721 Z " fill="rgb(0,0,0)"/><path d=" M 407.5 757.06 L 407.5 762.834 L 397.5 757.06 L 397.5 751.287 L 407.5 757.06 Z " fill="rgb(0,0,0)"/><path d=" M 467.5 547.587 L 467.5 553.36 L 457.5 547.587 L 457.5 541.813 L 467.5 547.587 Z " fill="rgb(0,0,0)"/><path d=" M 452.5 538.927 L 452.5 544.7 L 442.5 538.927 L 442.5 533.153 L 452.5 538.927 Z " fill="rgb(0,0,0)"/><path d=" M 437.5 530.266 L 437.5 536.04 L 427.5 530.266 L 427.5 524.493 L 437.5 530.266 Z " fill="rgb(0,0,0)"/><path d=" M 422.5 521.606 L 422.5 527.38 L 412.5 521.606 L 412.5 515.833 L 422.5 521.606 Z " fill="rgb(0,0,0)"/><path d=" M 407.5 512.946 L 407.5 518.719 L 397.5 512.946 L 397.5 507.172 L 407.5 512.946 Z " fill="rgb(0,0,0)"/><path d=" M 467.5 777.342 L 467.5 783.115 L 457.5 777.342 L 457.5 771.568 L 467.5 777.342 Z " fill="rgb(0,0,0)"/><path d=" M 452.5 768.682 L 452.5 774.455 L 442.5 768.682 L 442.5 762.908 L 452.5 768.682 Z " fill="rgb(0,0,0)"/><path d=" M 437.5 760.021 L 437.5 765.795 L 427.5 760.021 L 427.5 754.248 L 437.5 760.021 Z " fill="rgb(0,0,0)"/><path d=" M 422.5 751.361 L 422.5 757.135 L 412.5 751.361 L 412.5 745.588 L 422.5 751.361 Z " fill="rgb(0,0,0)"/><path d=" M 407.5 742.701 L 407.5 748.474 L 397.5 742.701 L 397.5 736.927 L 407.5 742.701 Z " fill="rgb(0,0,0)"/><path d=" M 467.5 518.868 L 467.5 524.641 L 457.5 518.868 L 457.5 513.094 L 467.5 518.868 Z " fill="rgb(0,0,0)"/><path d=" M 407.5 484.227 L 407.5 490 L 397.5 484.227 L 397.5 478.453 L 407.5 484.227 Z " fill="rgb(0,0,0)"/><path d=" M 467.5 561.947 L 467.5 567.72 L 457.5 561.947 L 457.5 556.173 L 467.5 561.947 Z " fill="rgb(0,0,0)"/><path d=" M 452.5 553.286 L 452.5 559.06 L 442.5 553.286 L 442.5 547.513 L 452.5 553.286 Z " fill="rgb(0,0,0)"/><path d=" M 437.5 544.626 L 437.5 550.4 L 427.5 544.626 L 427.5 538.853 L 437.5 544.626 Z " fill="rgb(0,0,0)"/><path d=" M 422.5 535.966 L 422.5 541.739 L 412.5 535.966 L 412.5 530.192 L 422.5 535.966 Z " fill="rgb(0,0,0)"/><path d=" M 407.5 527.306 L 407.5 533.079 L 397.5 527.306 L 397.5 521.532 L 407.5 527.306 Z " fill="rgb(0,0,0)"/><path d=" M 467.5 605.026 L 467.5 610.799 L 457.5 605.026 L 457.5 599.252 L 467.5 605.026 Z " fill="rgb(0,0,0)"/><path d=" M 452.5 596.365 L 452.5 602.139 L 442.5 596.365 L 442.5 590.592 L 452.5 596.365 Z " fill="rgb(0,0,0)"/><path d=" M 437.5 587.705 L 437.5 593.479 L 427.5 587.705 L 427.5 581.932 L 437.5 587.705 Z " fill="rgb(0,0,0)"/><path d=" M 422.5 579.045 L 422.5 584.818 L 412.5 579.045 L 412.5 573.271 L 422.5 579.045 Z " fill="rgb(0,0,0)"/><path d=" M 407.5 570.385 L 407.5 576.158 L 397.5 570.385 L 397.5 564.611 L 407.5 570.385 Z " fill="rgb(0,0,0)"/><path d=" M 467.5 590.666 L 467.5 596.439 L 457.5 590.666 L 457.5 584.892 L 467.5 590.666 Z " fill="rgb(0,0,0)"/><path d=" M 452.5 582.006 L 452.5 587.779 L 442.5 582.006 L 442.5 576.232 L 452.5 582.006 Z " fill="rgb(0,0,0)"/><path d=" M 437.5 573.345 L 437.5 579.119 L 427.5 573.345 L 427.5 567.572 L 437.5 573.345 Z " fill="rgb(0,0,0)"/><path d=" M 422.5 564.685 L 422.5 570.459 L 412.5 564.685 L 412.5 558.912 L 422.5 564.685 Z " fill="rgb(0,0,0)"/><path d=" M 407.5 556.025 L 407.5 561.798 L 397.5 556.025 L 397.5 550.251 L 407.5 556.025 Z " fill="rgb(0,0,0)"/><path d=" M 467.5 633.745 L 467.5 639.518 L 457.5 633.745 L 457.5 627.971 L 467.5 633.745 Z " fill="rgb(0,0,0)"/><path d=" M 452.5 625.085 L 452.5 630.858 L 442.5 625.085 L 442.5 619.311 L 452.5 625.085 Z " fill="rgb(0,0,0)"/><path d=" M 437.5 616.424 L 437.5 622.198 L 427.5 616.424 L 427.5 610.651 L 437.5 616.424 Z " fill="rgb(0,0,0)"/><path d=" M 422.5 607.764 L 422.5 613.538 L 412.5 607.764 L 412.5 601.991 L 422.5 607.764 Z " fill="rgb(0,0,0)"/><path d=" M 407.5 599.104 L 407.5 604.877 L 397.5 599.104 L 397.5 593.33 L 407.5 599.104 Z " fill="rgb(0,0,0)"/><path d=" M 467.5 662.464 L 467.5 668.238 L 457.5 662.464 L 457.5 656.691 L 467.5 662.464 Z " fill="rgb(0,0,0)"/><path d=" M 452.5 653.804 L 452.5 659.578 L 442.5 653.804 L 442.5 648.031 L 452.5 653.804 Z " fill="rgb(0,0,0)"/><path d=" M 437.5 645.144 L 437.5 650.917 L 427.5 645.144 L 427.5 639.37 L 437.5 645.144 Z " fill="rgb(0,0,0)"/><path d=" M 422.5 636.484 L 422.5 642.257 L 412.5 636.484 L 412.5 630.71 L 422.5 636.484 Z " fill="rgb(0,0,0)"/><path d=" M 407.5 627.823 L 407.5 633.597 L 397.5 627.823 L 397.5 622.05 L 407.5 627.823 Z " fill="rgb(0,0,0)"/><path d=" M 467.5 834.781 L 467.5 840.554 L 457.5 834.781 L 457.5 829.007 L 467.5 834.781 Z " fill="rgb(0,0,0)"/><path d=" M 452.5 826.12 L 452.5 831.894 L 442.5 826.12 L 442.5 820.347 L 452.5 826.12 Z " fill="rgb(0,0,0)"/><path d=" M 437.5 817.46 L 437.5 823.234 L 427.5 817.46 L 427.5 811.687 L 437.5 817.46 Z " fill="rgb(0,0,0)"/><path d=" M 422.5 808.8 L 422.5 814.573 L 412.5 808.8 L 412.5 803.026 L 422.5 808.8 Z " fill="rgb(0,0,0)"/><path d=" M 407.5 800.14 L 407.5 805.913 L 397.5 800.14 L 397.5 794.366 L 407.5 800.14 Z " fill="rgb(0,0,0)"/><path d=" M 467.5 734.263 L 467.5 740.036 L 457.5 734.263 L 457.5 728.489 L 467.5 734.263 Z " fill="rgb(0,0,0)"/><path d=" M 452.5 725.603 L 452.5 731.376 L 442.5 725.603 L 442.5 719.829 L 452.5 725.603 Z " fill="rgb(0,0,0)"/><path d=" M 437.5 716.942 L 437.5 722.716 L 427.5 716.942 L 427.5 711.169 L 437.5 716.942 Z " fill="rgb(0,0,0)"/><path d=" M 422.5 708.282 L 422.5 714.056 L 412.5 708.282 L 412.5 702.509 L 422.5 708.282 Z " fill="rgb(0,0,0)"/><path d=" M 407.5 699.622 L 407.5 705.395 L 397.5 699.622 L 397.5 693.848 L 407.5 699.622 Z " fill="rgb(0,0,0)"/><path d=" M 467.5 762.982 L 467.5 768.756 L 457.5 762.982 L 457.5 757.209 L 467.5 762.982 Z " fill="rgb(0,0,0)"/><path d=" M 452.5 754.322 L 452.5 760.095 L 442.5 754.322 L 442.5 748.548 L 452.5 754.322 Z " fill="rgb(0,0,0)"/><path d=" M 437.5 745.662 L 437.5 751.435 L 427.5 745.662 L 427.5 739.888 L 437.5 745.662 Z " fill="rgb(0,0,0)"/><path d=" M 422.5 737.001 L 422.5 742.775 L 412.5 737.001 L 412.5 731.228 L 422.5 737.001 Z " fill="rgb(0,0,0)"/><path d=" M 407.5 728.341 L 407.5 734.115 L 397.5 728.341 L 397.5 722.568 L 407.5 728.341 Z " fill="rgb(0,0,0)"/><path d=" M 467.5 849.14 L 467.5 854.914 L 457.5 849.14 L 457.5 843.367 L 467.5 849.14 Z " fill="rgb(0,0,0)"/><path d=" M 452.5 840.48 L 452.5 846.253 L 442.5 840.48 L 442.5 834.706 L 452.5 840.48 Z " fill="rgb(0,0,0)"/><path d=" M 437.5 831.82 L 437.5 837.593 L 427.5 831.82 L 427.5 826.046 L 437.5 831.82 Z " fill="rgb(0,0,0)"/><path d=" M 422.5 823.159 L 422.5 828.933 L 412.5 823.159 L 412.5 817.386 L 422.5 823.159 Z " fill="rgb(0,0,0)"/><path d=" M 407.5 814.499 L 407.5 820.273 L 397.5 814.499 L 397.5 808.726 L 407.5 814.499 Z " fill="rgb(0,0,0)"/><path d=" M 467.5 863.5 L 467.5 869.273 L 457.5 863.5 L 457.5 857.726 L 467.5 863.5 Z " fill="rgb(0,0,0)"/><path d=" M 452.5 854.84 L 452.5 860.613 L 442.5 854.84 L 442.5 849.066 L 452.5 854.84 Z " fill="rgb(0,0,0)"/><path d=" M 437.5 846.179 L 437.5 851.953 L 427.5 846.179 L 427.5 840.406 L 437.5 846.179 Z " fill="rgb(0,0,0)"/><path d=" M 422.5 837.519 L 422.5 843.293 L 412.5 837.519 L 412.5 831.746 L 422.5 837.519 Z " fill="rgb(0,0,0)"/><path d=" M 407.5 828.859 L 407.5 834.632 L 397.5 828.859 L 397.5 823.085 L 407.5 828.859 Z " fill="rgb(0,0,0)"/><path d=" M 467.5 877.86 L 467.5 883.633 L 457.5 877.86 L 457.5 872.086 L 467.5 877.86 Z " fill="rgb(0,0,0)"/><path d=" M 452.5 869.199 L 452.5 874.973 L 442.5 869.199 L 442.5 863.426 L 452.5 869.199 Z " fill="rgb(0,0,0)"/><path d=" M 437.5 860.539 L 437.5 866.313 L 427.5 860.539 L 427.5 854.766 L 437.5 860.539 Z " fill="rgb(0,0,0)"/><path d=" M 422.5 851.879 L 422.5 857.652 L 412.5 851.879 L 412.5 846.105 L 422.5 851.879 Z " fill="rgb(0,0,0)"/><path d=" M 407.5 843.219 L 407.5 848.992 L 397.5 843.219 L 397.5 837.445 L 407.5 843.219 Z " fill="rgb(0,0,0)"/><path d=" M 467.5 892.219 L 467.5 897.993 L 457.5 892.219 L 457.5 886.446 L 467.5 892.219 Z " fill="rgb(0,0,0)"/><path d=" M 452.5 883.559 L 452.5 889.333 L 442.5 883.559 L 442.5 877.786 L 452.5 883.559 Z " fill="rgb(0,0,0)"/><path d=" M 437.5 874.899 L 437.5 880.672 L 427.5 874.899 L 427.5 869.125 L 437.5 874.899 Z " fill="rgb(0,0,0)"/><path d=" M 422.5 866.239 L 422.5 872.012 L 412.5 866.239 L 412.5 860.465 L 422.5 866.239 Z " fill="rgb(0,0,0)"/><path d=" M 407.5 857.578 L 407.5 863.352 L 397.5 857.578 L 397.5 851.805 L 407.5 857.578 Z " fill="rgb(0,0,0)"/><path d=" M 467.5 533.227 L 467.5 539.001 L 457.5 533.227 L 457.5 527.454 L 467.5 533.227 Z " fill="rgb(0,0,0)"/><path d=" M 407.5 498.586 L 407.5 504.36 L 397.5 498.586 L 397.5 492.813 L 407.5 498.586 Z " fill="rgb(0,0,0)"/><path d=" M 482.5 513.916 L 482.5 519.689 L 472.5 513.916 L 472.5 508.142 L 482.5 513.916 Z " fill="rgb(0,0,0)"/><path d=" M 467.5 505.256 L 467.5 511.029 L 457.5 505.256 L 457.5 499.482 L 467.5 505.256 Z " fill="rgb(0,0,0)"/><path d=" M 452.5 496.595 L 452.5 502.369 L 442.5 496.595 L 442.5 490.822 L 452.5 496.595 Z " fill="rgb(0,0,0)"/><path d=" M 437.5 487.935 L 437.5 493.709 L 427.5 487.935 L 427.5 482.162 L 437.5 487.935 Z " fill="rgb(0,0,0)"/><path d=" M 422.5 479.275 L 422.5 485.048 L 412.5 479.275 L 412.5 473.501 L 422.5 479.275 Z " fill="rgb(0,0,0)"/><path d=" M 482.5 413.398 L 482.5 419.172 L 472.5 413.398 L 472.5 407.625 L 482.5 413.398 Z " fill="rgb(0,0,0)"/><path d=" M 467.5 404.738 L 467.5 410.511 L 457.5 404.738 L 457.5 398.964 L 467.5 404.738 Z " fill="rgb(0,0,0)"/><path d=" M 452.5 396.078 L 452.5 401.851 L 442.5 396.078 L 442.5 390.304 L 452.5 396.078 Z " fill="rgb(0,0,0)"/><path d=" M 437.5 387.417 L 437.5 393.191 L 427.5 387.417 L 427.5 381.644 L 437.5 387.417 Z " fill="rgb(0,0,0)"/><path d=" M 422.5 378.757 L 422.5 384.531 L 412.5 378.757 L 412.5 372.984 L 422.5 378.757 Z " fill="rgb(0,0,0)"/><path d=" M 482.5 355.959 L 482.5 361.733 L 472.5 355.959 L 472.5 350.186 L 482.5 355.959 Z " fill="rgb(0,0,0)"/><path d=" M 467.5 347.299 L 467.5 353.073 L 457.5 347.299 L 457.5 341.526 L 467.5 347.299 Z " fill="rgb(0,0,0)"/><path d=" M 452.5 338.639 L 452.5 344.412 L 442.5 338.639 L 442.5 332.865 L 452.5 338.639 Z " fill="rgb(0,0,0)"/><path d=" M 437.5 329.979 L 437.5 335.752 L 427.5 329.979 L 427.5 324.205 L 437.5 329.979 Z " fill="rgb(0,0,0)"/><path d=" M 422.5 321.318 L 422.5 327.092 L 412.5 321.318 L 412.5 315.545 L 422.5 321.318 Z " fill="rgb(0,0,0)"/><path d=" M 482.5 312.88 L 482.5 318.654 L 472.5 312.88 L 472.5 307.107 L 482.5 312.88 Z " fill="rgb(0,0,0)"/><path d=" M 467.5 304.22 L 467.5 309.994 L 457.5 304.22 L 457.5 298.447 L 467.5 304.22 Z " fill="rgb(0,0,0)"/><path d=" M 452.5 295.56 L 452.5 301.333 L 442.5 295.56 L 442.5 289.786 L 452.5 295.56 Z " fill="rgb(0,0,0)"/><path d=" M 437.5 286.899 L 437.5 292.673 L 427.5 286.899 L 427.5 281.126 L 437.5 286.899 Z " fill="rgb(0,0,0)"/><path d=" M 422.5 278.239 L 422.5 284.013 L 412.5 278.239 L 412.5 272.466 L 422.5 278.239 Z " fill="rgb(0,0,0)"/><path d=" M 482.5 327.24 L 482.5 333.013 L 472.5 327.24 L 472.5 321.466 L 482.5 327.24 Z " fill="rgb(0,0,0)"/><path d=" M 467.5 318.58 L 467.5 324.353 L 457.5 318.58 L 457.5 312.806 L 467.5 318.58 Z " fill="rgb(0,0,0)"/><path d=" M 452.5 309.919 L 452.5 315.693 L 442.5 309.919 L 442.5 304.146 L 452.5 309.919 Z " fill="rgb(0,0,0)"/><path d=" M 437.5 301.259 L 437.5 307.033 L 427.5 301.259 L 427.5 295.486 L 437.5 301.259 Z " fill="rgb(0,0,0)"/><path d=" M 422.5 292.599 L 422.5 298.372 L 412.5 292.599 L 412.5 286.825 L 422.5 292.599 Z " fill="rgb(0,0,0)"/><path d=" M 482.5 298.521 L 482.5 304.294 L 472.5 298.521 L 472.5 292.747 L 482.5 298.521 Z " fill="rgb(0,0,0)"/><path d=" M 467.5 289.86 L 467.5 295.634 L 457.5 289.86 L 457.5 284.087 L 467.5 289.86 Z " fill="rgb(0,0,0)"/><path d=" M 452.5 281.2 L 452.5 286.974 L 442.5 281.2 L 442.5 275.427 L 452.5 281.2 Z " fill="rgb(0,0,0)"/><path d=" M 437.5 272.54 L 437.5 278.313 L 427.5 272.54 L 427.5 266.766 L 437.5 272.54 Z " fill="rgb(0,0,0)"/><path d=" M 422.5 263.88 L 422.5 269.653 L 412.5 263.88 L 412.5 258.106 L 422.5 263.88 Z " fill="rgb(0,0,0)"/><path d=" M 482.5 255.442 L 482.5 261.215 L 472.5 255.442 L 472.5 249.668 L 482.5 255.442 Z " fill="rgb(0,0,0)"/><path d=" M 467.5 246.781 L 467.5 252.555 L 457.5 246.781 L 457.5 241.008 L 467.5 246.781 Z " fill="rgb(0,0,0)"/><path d=" M 452.5 238.121 L 452.5 243.895 L 442.5 238.121 L 442.5 232.348 L 452.5 238.121 Z " fill="rgb(0,0,0)"/><path d=" M 437.5 229.461 L 437.5 235.234 L 427.5 229.461 L 427.5 223.687 L 437.5 229.461 Z " fill="rgb(0,0,0)"/><path d=" M 422.5 220.801 L 422.5 226.574 L 412.5 220.801 L 412.5 215.027 L 422.5 220.801 Z " fill="rgb(0,0,0)"/><path d=" M 482.5 284.161 L 482.5 289.934 L 472.5 284.161 L 472.5 278.387 L 482.5 284.161 Z " fill="rgb(0,0,0)"/><path d=" M 467.5 275.501 L 467.5 281.274 L 457.5 275.501 L 457.5 269.727 L 467.5 275.501 Z " fill="rgb(0,0,0)"/><path d=" M 452.5 266.84 L 452.5 272.614 L 442.5 266.84 L 442.5 261.067 L 452.5 266.84 Z " fill="rgb(0,0,0)"/><path d=" M 437.5 258.18 L 437.5 263.954 L 427.5 258.18 L 427.5 252.407 L 437.5 258.18 Z " fill="rgb(0,0,0)"/><path d=" M 422.5 249.52 L 422.5 255.293 L 412.5 249.52 L 412.5 243.746 L 422.5 249.52 Z " fill="rgb(0,0,0)"/><path d=" M 482.5 427.758 L 482.5 433.531 L 472.5 427.758 L 472.5 421.984 L 482.5 427.758 Z " fill="rgb(0,0,0)"/><path d=" M 467.5 419.097 L 467.5 424.871 L 457.5 419.097 L 457.5 413.324 L 467.5 419.097 Z " fill="rgb(0,0,0)"/><path d=" M 452.5 410.437 L 452.5 416.211 L 442.5 410.437 L 442.5 404.664 L 452.5 410.437 Z " fill="rgb(0,0,0)"/><path d=" M 437.5 401.777 L 437.5 407.55 L 427.5 401.777 L 427.5 396.003 L 437.5 401.777 Z " fill="rgb(0,0,0)"/><path d=" M 422.5 393.117 L 422.5 398.89 L 412.5 393.117 L 412.5 387.343 L 422.5 393.117 Z " fill="rgb(0,0,0)"/><path d=" M 482.5 399.038 L 482.5 404.812 L 472.5 399.038 L 472.5 393.265 L 482.5 399.038 Z " fill="rgb(0,0,0)"/><path d=" M 467.5 390.378 L 467.5 396.152 L 457.5 390.378 L 457.5 384.605 L 467.5 390.378 Z " fill="rgb(0,0,0)"/><path d=" M 452.5 381.718 L 452.5 387.491 L 442.5 381.718 L 442.5 375.944 L 452.5 381.718 Z " fill="rgb(0,0,0)"/><path d=" M 437.5 373.058 L 437.5 378.831 L 427.5 373.058 L 427.5 367.284 L 437.5 373.058 Z " fill="rgb(0,0,0)"/><path d=" M 422.5 364.397 L 422.5 370.171 L 412.5 364.397 L 412.5 358.624 L 422.5 364.397 Z " fill="rgb(0,0,0)"/><path d=" M 482.5 384.679 L 482.5 390.452 L 472.5 384.679 L 472.5 378.905 L 482.5 384.679 Z " fill="rgb(0,0,0)"/><path d=" M 467.5 376.018 L 467.5 381.792 L 457.5 376.018 L 457.5 370.245 L 467.5 376.018 Z " fill="rgb(0,0,0)"/><path d=" M 452.5 367.358 L 452.5 373.132 L 442.5 367.358 L 442.5 361.585 L 452.5 367.358 Z " fill="rgb(0,0,0)"/><path d=" M 437.5 358.698 L 437.5 364.471 L 427.5 358.698 L 427.5 352.924 L 437.5 358.698 Z " fill="rgb(0,0,0)"/><path d=" M 422.5 350.038 L 422.5 355.811 L 412.5 350.038 L 412.5 344.264 L 422.5 350.038 Z " fill="rgb(0,0,0)"/><path d=" M 482.5 269.801 L 482.5 275.575 L 472.5 269.801 L 472.5 264.028 L 482.5 269.801 Z " fill="rgb(0,0,0)"/><path d=" M 467.5 261.141 L 467.5 266.914 L 457.5 261.141 L 457.5 255.367 L 467.5 261.141 Z " fill="rgb(0,0,0)"/><path d=" M 452.5 252.481 L 452.5 258.254 L 442.5 252.481 L 442.5 246.707 L 452.5 252.481 Z " fill="rgb(0,0,0)"/><path d=" M 437.5 243.82 L 437.5 249.594 L 427.5 243.82 L 427.5 238.047 L 437.5 243.82 Z " fill="rgb(0,0,0)"/><path d=" M 422.5 235.16 L 422.5 240.934 L 412.5 235.16 L 412.5 229.387 L 422.5 235.16 Z " fill="rgb(0,0,0)"/><path d=" M 482.5 442.117 L 482.5 447.891 L 472.5 442.117 L 472.5 436.344 L 482.5 442.117 Z " fill="rgb(0,0,0)"/><path d=" M 467.5 433.457 L 467.5 439.231 L 457.5 433.457 L 457.5 427.684 L 467.5 433.457 Z " fill="rgb(0,0,0)"/><path d=" M 452.5 424.797 L 452.5 430.57 L 442.5 424.797 L 442.5 419.023 L 452.5 424.797 Z " fill="rgb(0,0,0)"/><path d=" M 437.5 416.137 L 437.5 421.91 L 427.5 416.137 L 427.5 410.363 L 437.5 416.137 Z " fill="rgb(0,0,0)"/><path d=" M 422.5 407.476 L 422.5 413.25 L 412.5 407.476 L 412.5 401.703 L 422.5 407.476 Z " fill="rgb(0,0,0)"/><path d=" M 482.5 341.6 L 482.5 347.373 L 472.5 341.6 L 472.5 335.826 L 482.5 341.6 Z " fill="rgb(0,0,0)"/><path d=" M 467.5 332.939 L 467.5 338.713 L 457.5 332.939 L 457.5 327.166 L 467.5 332.939 Z " fill="rgb(0,0,0)"/><path d=" M 452.5 324.279 L 452.5 330.053 L 442.5 324.279 L 442.5 318.506 L 452.5 324.279 Z " fill="rgb(0,0,0)"/><path d=" M 437.5 315.619 L 437.5 321.392 L 427.5 315.619 L 427.5 309.845 L 437.5 315.619 Z " fill="rgb(0,0,0)"/><path d=" M 422.5 306.959 L 422.5 312.732 L 412.5 306.959 L 412.5 301.185 L 422.5 306.959 Z " fill="rgb(0,0,0)"/><path d=" M 482.5 370.319 L 482.5 376.092 L 472.5 370.319 L 472.5 364.545 L 482.5 370.319 Z " fill="rgb(0,0,0)"/><path d=" M 467.5 361.659 L 467.5 367.432 L 457.5 361.659 L 457.5 355.885 L 467.5 361.659 Z " fill="rgb(0,0,0)"/><path d=" M 452.5 352.998 L 452.5 358.772 L 442.5 352.998 L 442.5 347.225 L 452.5 352.998 Z " fill="rgb(0,0,0)"/><path d=" M 437.5 344.338 L 437.5 350.112 L 427.5 344.338 L 427.5 338.565 L 437.5 344.338 Z " fill="rgb(0,0,0)"/><path d=" M 422.5 335.678 L 422.5 341.451 L 412.5 335.678 L 412.5 329.904 L 422.5 335.678 Z " fill="rgb(0,0,0)"/><path d=" M 482.5 456.477 L 482.5 462.251 L 472.5 456.477 L 472.5 450.704 L 482.5 456.477 Z " fill="rgb(0,0,0)"/><path d=" M 467.5 447.817 L 467.5 453.59 L 457.5 447.817 L 457.5 442.043 L 467.5 447.817 Z " fill="rgb(0,0,0)"/><path d=" M 452.5 439.157 L 452.5 444.93 L 442.5 439.157 L 442.5 433.383 L 452.5 439.157 Z " fill="rgb(0,0,0)"/><path d=" M 437.5 430.496 L 437.5 436.27 L 427.5 430.496 L 427.5 424.723 L 437.5 430.496 Z " fill="rgb(0,0,0)"/><path d=" M 422.5 421.836 L 422.5 427.61 L 412.5 421.836 L 412.5 416.063 L 422.5 421.836 Z " fill="rgb(0,0,0)"/><path d=" M 482.5 470.837 L 482.5 476.61 L 472.5 470.837 L 472.5 465.063 L 482.5 470.837 Z " fill="rgb(0,0,0)"/><path d=" M 467.5 462.177 L 467.5 467.95 L 457.5 462.177 L 457.5 456.403 L 467.5 462.177 Z " fill="rgb(0,0,0)"/><path d=" M 452.5 453.516 L 452.5 459.29 L 442.5 453.516 L 442.5 447.743 L 452.5 453.516 Z " fill="rgb(0,0,0)"/><path d=" M 437.5 444.856 L 437.5 450.63 L 427.5 444.856 L 427.5 439.083 L 437.5 444.856 Z " fill="rgb(0,0,0)"/><path d=" M 422.5 436.196 L 422.5 441.969 L 412.5 436.196 L 412.5 430.422 L 422.5 436.196 Z " fill="rgb(0,0,0)"/><path d=" M 482.5 485.196 L 482.5 490.97 L 472.5 485.196 L 472.5 479.423 L 482.5 485.196 Z " fill="rgb(0,0,0)"/><path d=" M 467.5 476.536 L 467.5 482.31 L 457.5 476.536 L 457.5 470.763 L 467.5 476.536 Z " fill="rgb(0,0,0)"/><path d=" M 452.5 467.876 L 452.5 473.649 L 442.5 467.876 L 442.5 462.102 L 452.5 467.876 Z " fill="rgb(0,0,0)"/><path d=" M 437.5 459.216 L 437.5 464.989 L 427.5 459.216 L 427.5 453.442 L 437.5 459.216 Z " fill="rgb(0,0,0)"/><path d=" M 422.5 450.555 L 422.5 456.329 L 412.5 450.555 L 412.5 444.782 L 422.5 450.555 Z " fill="rgb(0,0,0)"/><path d=" M 482.5 499.556 L 482.5 505.33 L 472.5 499.556 L 472.5 493.783 L 482.5 499.556 Z " fill="rgb(0,0,0)"/><path d=" M 467.5 490.896 L 467.5 496.669 L 457.5 490.896 L 457.5 485.122 L 467.5 490.896 Z " fill="rgb(0,0,0)"/><path d=" M 452.5 482.236 L 452.5 488.009 L 442.5 482.236 L 442.5 476.462 L 452.5 482.236 Z " fill="rgb(0,0,0)"/><path d=" M 437.5 473.575 L 437.5 479.349 L 427.5 473.575 L 427.5 467.802 L 437.5 473.575 Z " fill="rgb(0,0,0)"/><path d=" M 422.5 464.915 L 422.5 470.689 L 412.5 464.915 L 412.5 459.142 L 422.5 464.915 Z " fill="rgb(0,0,0)"/><path d=" M 467.5 504.916 L 467.5 510.689 L 457.5 504.916 L 457.5 499.142 L 467.5 504.916 Z " fill="rgb(0,0,0)"/><path d=" M 452.5 496.256 L 452.5 502.029 L 442.5 496.256 L 442.5 490.482 L 452.5 496.256 Z " fill="rgb(0,0,0)"/><path d=" M 437.5 487.595 L 437.5 493.369 L 427.5 487.595 L 427.5 481.822 L 437.5 487.595 Z " fill="rgb(0,0,0)"/><path d=" M 422.5 478.935 L 422.5 484.709 L 412.5 478.935 L 412.5 473.162 L 422.5 478.935 Z " fill="rgb(0,0,0)"/><path d=" M 407.5 470.275 L 407.5 476.048 L 397.5 470.275 L 397.5 464.501 L 407.5 470.275 Z " fill="rgb(0,0,0)"/><path d=" M 467.5 404.398 L 467.5 410.172 L 457.5 404.398 L 457.5 398.625 L 467.5 404.398 Z " fill="rgb(0,0,0)"/><path d=" M 452.5 395.738 L 452.5 401.511 L 442.5 395.738 L 442.5 389.964 L 452.5 395.738 Z " fill="rgb(0,0,0)"/><path d=" M 437.5 387.078 L 437.5 392.851 L 427.5 387.078 L 427.5 381.304 L 437.5 387.078 Z " fill="rgb(0,0,0)"/><path d=" M 422.5 378.417 L 422.5 384.191 L 412.5 378.417 L 412.5 372.644 L 422.5 378.417 Z " fill="rgb(0,0,0)"/><path d=" M 407.5 369.757 L 407.5 375.531 L 397.5 369.757 L 397.5 363.984 L 407.5 369.757 Z " fill="rgb(0,0,0)"/><path d=" M 467.5 346.959 L 467.5 352.733 L 457.5 346.959 L 457.5 341.186 L 467.5 346.959 Z " fill="rgb(0,0,0)"/><path d=" M 452.5 338.299 L 452.5 344.073 L 442.5 338.299 L 442.5 332.526 L 452.5 338.299 Z " fill="rgb(0,0,0)"/><path d=" M 437.5 329.639 L 437.5 335.412 L 427.5 329.639 L 427.5 323.865 L 437.5 329.639 Z " fill="rgb(0,0,0)"/><path d=" M 422.5 320.979 L 422.5 326.752 L 412.5 320.979 L 412.5 315.205 L 422.5 320.979 Z " fill="rgb(0,0,0)"/><path d=" M 407.5 312.318 L 407.5 318.092 L 397.5 312.318 L 397.5 306.545 L 407.5 312.318 Z " fill="rgb(0,0,0)"/><path d=" M 467.5 303.88 L 467.5 309.654 L 457.5 303.88 L 457.5 298.107 L 467.5 303.88 Z " fill="rgb(0,0,0)"/><path d=" M 452.5 295.22 L 452.5 300.994 L 442.5 295.22 L 442.5 289.447 L 452.5 295.22 Z " fill="rgb(0,0,0)"/><path d=" M 437.5 286.56 L 437.5 292.333 L 427.5 286.56 L 427.5 280.786 L 437.5 286.56 Z " fill="rgb(0,0,0)"/><path d=" M 422.5 277.899 L 422.5 283.673 L 412.5 277.899 L 412.5 272.126 L 422.5 277.899 Z " fill="rgb(0,0,0)"/><path d=" M 407.5 269.239 L 407.5 275.013 L 397.5 269.239 L 397.5 263.466 L 407.5 269.239 Z " fill="rgb(0,0,0)"/><path d=" M 467.5 318.24 L 467.5 324.013 L 457.5 318.24 L 457.5 312.466 L 467.5 318.24 Z " fill="rgb(0,0,0)"/><path d=" M 452.5 309.58 L 452.5 315.353 L 442.5 309.58 L 442.5 303.806 L 452.5 309.58 Z " fill="rgb(0,0,0)"/><path d=" M 437.5 300.919 L 437.5 306.693 L 427.5 300.919 L 427.5 295.146 L 437.5 300.919 Z " fill="rgb(0,0,0)"/><path d=" M 422.5 292.259 L 422.5 298.033 L 412.5 292.259 L 412.5 286.486 L 422.5 292.259 Z " fill="rgb(0,0,0)"/><path d=" M 407.5 283.599 L 407.5 289.372 L 397.5 283.599 L 397.5 277.825 L 407.5 283.599 Z " fill="rgb(0,0,0)"/><path d=" M 467.5 289.521 L 467.5 295.294 L 457.5 289.521 L 457.5 283.747 L 467.5 289.521 Z " fill="rgb(0,0,0)"/><path d=" M 452.5 280.86 L 452.5 286.634 L 442.5 280.86 L 442.5 275.087 L 452.5 280.86 Z " fill="rgb(0,0,0)"/><path d=" M 437.5 272.2 L 437.5 277.974 L 427.5 272.2 L 427.5 266.427 L 437.5 272.2 Z " fill="rgb(0,0,0)"/><path d=" M 422.5 263.54 L 422.5 269.313 L 412.5 263.54 L 412.5 257.766 L 422.5 263.54 Z " fill="rgb(0,0,0)"/><path d=" M 407.5 254.88 L 407.5 260.653 L 397.5 254.88 L 397.5 249.106 L 407.5 254.88 Z " fill="rgb(0,0,0)"/><path d=" M 467.5 246.442 L 467.5 252.215 L 457.5 246.442 L 457.5 240.668 L 467.5 246.442 Z " fill="rgb(0,0,0)"/><path d=" M 452.5 237.781 L 452.5 243.555 L 442.5 237.781 L 442.5 232.008 L 452.5 237.781 Z " fill="rgb(0,0,0)"/><path d=" M 437.5 229.121 L 437.5 234.895 L 427.5 229.121 L 427.5 223.348 L 437.5 229.121 Z " fill="rgb(0,0,0)"/><path d=" M 422.5 220.461 L 422.5 226.234 L 412.5 220.461 L 412.5 214.687 L 422.5 220.461 Z " fill="rgb(0,0,0)"/><path d=" M 407.5 211.801 L 407.5 217.574 L 397.5 211.801 L 397.5 206.027 L 407.5 211.801 Z " fill="rgb(0,0,0)"/><path d=" M 467.5 275.161 L 467.5 280.934 L 457.5 275.161 L 457.5 269.387 L 467.5 275.161 Z " fill="rgb(0,0,0)"/><path d=" M 452.5 266.501 L 452.5 272.274 L 442.5 266.501 L 442.5 260.727 L 452.5 266.501 Z " fill="rgb(0,0,0)"/><path d=" M 437.5 257.84 L 437.5 263.614 L 427.5 257.84 L 427.5 252.067 L 437.5 257.84 Z " fill="rgb(0,0,0)"/><path d=" M 422.5 249.18 L 422.5 254.954 L 412.5 249.18 L 412.5 243.407 L 422.5 249.18 Z " fill="rgb(0,0,0)"/><path d=" M 407.5 240.52 L 407.5 246.293 L 397.5 240.52 L 397.5 234.746 L 407.5 240.52 Z " fill="rgb(0,0,0)"/><path d=" M 467.5 418.758 L 467.5 424.531 L 457.5 418.758 L 457.5 412.984 L 467.5 418.758 Z " fill="rgb(0,0,0)"/><path d=" M 452.5 410.097 L 452.5 415.871 L 442.5 410.097 L 442.5 404.324 L 452.5 410.097 Z " fill="rgb(0,0,0)"/><path d=" M 437.5 401.437 L 437.5 407.211 L 427.5 401.437 L 427.5 395.664 L 437.5 401.437 Z " fill="rgb(0,0,0)"/><path d=" M 422.5 392.777 L 422.5 398.55 L 412.5 392.777 L 412.5 387.003 L 422.5 392.777 Z " fill="rgb(0,0,0)"/><path d=" M 407.5 384.117 L 407.5 389.89 L 397.5 384.117 L 397.5 378.343 L 407.5 384.117 Z " fill="rgb(0,0,0)"/><path d=" M 467.5 390.038 L 467.5 395.812 L 457.5 390.038 L 457.5 384.265 L 467.5 390.038 Z " fill="rgb(0,0,0)"/><path d=" M 452.5 381.378 L 452.5 387.152 L 442.5 381.378 L 442.5 375.605 L 452.5 381.378 Z " fill="rgb(0,0,0)"/><path d=" M 437.5 372.718 L 437.5 378.491 L 427.5 372.718 L 427.5 366.944 L 437.5 372.718 Z " fill="rgb(0,0,0)"/><path d=" M 422.5 364.058 L 422.5 369.831 L 412.5 364.058 L 412.5 358.284 L 422.5 364.058 Z " fill="rgb(0,0,0)"/><path d=" M 407.5 355.397 L 407.5 361.171 L 397.5 355.397 L 397.5 349.624 L 407.5 355.397 Z " fill="rgb(0,0,0)"/><path d=" M 467.5 375.679 L 467.5 381.452 L 457.5 375.679 L 457.5 369.905 L 467.5 375.679 Z " fill="rgb(0,0,0)"/><path d=" M 452.5 367.018 L 452.5 372.792 L 442.5 367.018 L 442.5 361.245 L 452.5 367.018 Z " fill="rgb(0,0,0)"/><path d=" M 437.5 358.358 L 437.5 364.132 L 427.5 358.358 L 427.5 352.585 L 437.5 358.358 Z " fill="rgb(0,0,0)"/><path d=" M 422.5 349.698 L 422.5 355.471 L 412.5 349.698 L 412.5 343.924 L 422.5 349.698 Z " fill="rgb(0,0,0)"/><path d=" M 407.5 341.038 L 407.5 346.811 L 397.5 341.038 L 397.5 335.264 L 407.5 341.038 Z " fill="rgb(0,0,0)"/><path d=" M 467.5 260.801 L 467.5 266.575 L 457.5 260.801 L 457.5 255.028 L 467.5 260.801 Z " fill="rgb(0,0,0)"/><path d=" M 452.5 252.141 L 452.5 257.914 L 442.5 252.141 L 442.5 246.367 L 452.5 252.141 Z " fill="rgb(0,0,0)"/><path d=" M 437.5 243.481 L 437.5 249.254 L 427.5 243.481 L 427.5 237.707 L 437.5 243.481 Z " fill="rgb(0,0,0)"/><path d=" M 422.5 234.82 L 422.5 240.594 L 412.5 234.82 L 412.5 229.047 L 422.5 234.82 Z " fill="rgb(0,0,0)"/><path d=" M 407.5 226.16 L 407.5 231.934 L 397.5 226.16 L 397.5 220.387 L 407.5 226.16 Z " fill="rgb(0,0,0)"/><path d=" M 467.5 433.117 L 467.5 438.891 L 457.5 433.117 L 457.5 427.344 L 467.5 433.117 Z " fill="rgb(0,0,0)"/><path d=" M 452.5 424.457 L 452.5 430.231 L 442.5 424.457 L 442.5 418.684 L 452.5 424.457 Z " fill="rgb(0,0,0)"/><path d=" M 437.5 415.797 L 437.5 421.57 L 427.5 415.797 L 427.5 410.023 L 437.5 415.797 Z " fill="rgb(0,0,0)"/><path d=" M 422.5 407.137 L 422.5 412.91 L 412.5 407.137 L 412.5 401.363 L 422.5 407.137 Z " fill="rgb(0,0,0)"/><path d=" M 407.5 398.476 L 407.5 404.25 L 397.5 398.476 L 397.5 392.703 L 407.5 398.476 Z " fill="rgb(0,0,0)"/><path d=" M 467.5 332.6 L 467.5 338.373 L 457.5 332.6 L 457.5 326.826 L 467.5 332.6 Z " fill="rgb(0,0,0)"/><path d=" M 452.5 323.939 L 452.5 329.713 L 442.5 323.939 L 442.5 318.166 L 452.5 323.939 Z " fill="rgb(0,0,0)"/><path d=" M 437.5 315.279 L 437.5 321.053 L 427.5 315.279 L 427.5 309.506 L 437.5 315.279 Z " fill="rgb(0,0,0)"/><path d=" M 422.5 306.619 L 422.5 312.392 L 412.5 306.619 L 412.5 300.845 L 422.5 306.619 Z " fill="rgb(0,0,0)"/><path d=" M 407.5 297.959 L 407.5 303.732 L 397.5 297.959 L 397.5 292.185 L 407.5 297.959 Z " fill="rgb(0,0,0)"/><path d=" M 467.5 361.319 L 467.5 367.092 L 457.5 361.319 L 457.5 355.545 L 467.5 361.319 Z " fill="rgb(0,0,0)"/><path d=" M 452.5 352.659 L 452.5 358.432 L 442.5 352.659 L 442.5 346.885 L 452.5 352.659 Z " fill="rgb(0,0,0)"/><path d=" M 437.5 343.998 L 437.5 349.772 L 427.5 343.998 L 427.5 338.225 L 437.5 343.998 Z " fill="rgb(0,0,0)"/><path d=" M 422.5 335.338 L 422.5 341.112 L 412.5 335.338 L 412.5 329.565 L 422.5 335.338 Z " fill="rgb(0,0,0)"/><path d=" M 407.5 326.678 L 407.5 332.451 L 397.5 326.678 L 397.5 320.904 L 407.5 326.678 Z " fill="rgb(0,0,0)"/><path d=" M 467.5 447.477 L 467.5 453.251 L 457.5 447.477 L 457.5 441.704 L 467.5 447.477 Z " fill="rgb(0,0,0)"/><path d=" M 452.5 438.817 L 452.5 444.59 L 442.5 438.817 L 442.5 433.043 L 452.5 438.817 Z " fill="rgb(0,0,0)"/><path d=" M 437.5 430.157 L 437.5 435.93 L 427.5 430.157 L 427.5 424.383 L 437.5 430.157 Z " fill="rgb(0,0,0)"/><path d=" M 422.5 421.496 L 422.5 427.27 L 412.5 421.496 L 412.5 415.723 L 422.5 421.496 Z " fill="rgb(0,0,0)"/><path d=" M 407.5 412.836 L 407.5 418.61 L 397.5 412.836 L 397.5 407.063 L 407.5 412.836 Z " fill="rgb(0,0,0)"/><path d=" M 467.5 461.837 L 467.5 467.61 L 457.5 461.837 L 457.5 456.063 L 467.5 461.837 Z " fill="rgb(0,0,0)"/><path d=" M 452.5 453.177 L 452.5 458.95 L 442.5 453.177 L 442.5 447.403 L 452.5 453.177 Z " fill="rgb(0,0,0)"/><path d=" M 437.5 444.516 L 437.5 450.29 L 427.5 444.516 L 427.5 438.743 L 437.5 444.516 Z " fill="rgb(0,0,0)"/><path d=" M 422.5 435.856 L 422.5 441.63 L 412.5 435.856 L 412.5 430.083 L 422.5 435.856 Z " fill="rgb(0,0,0)"/><path d=" M 407.5 427.196 L 407.5 432.969 L 397.5 427.196 L 397.5 421.422 L 407.5 427.196 Z " fill="rgb(0,0,0)"/><path d=" M 467.5 476.196 L 467.5 481.97 L 457.5 476.196 L 457.5 470.423 L 467.5 476.196 Z " fill="rgb(0,0,0)"/><path d=" M 452.5 467.536 L 452.5 473.31 L 442.5 467.536 L 442.5 461.763 L 452.5 467.536 Z " fill="rgb(0,0,0)"/><path d=" M 437.5 458.876 L 437.5 464.649 L 427.5 458.876 L 427.5 453.102 L 437.5 458.876 Z " fill="rgb(0,0,0)"/><path d=" M 422.5 450.216 L 422.5 455.989 L 412.5 450.216 L 412.5 444.442 L 422.5 450.216 Z " fill="rgb(0,0,0)"/><path d=" M 407.5 441.555 L 407.5 447.329 L 397.5 441.555 L 397.5 435.782 L 407.5 441.555 Z " fill="rgb(0,0,0)"/><path d=" M 467.5 490.556 L 467.5 496.33 L 457.5 490.556 L 457.5 484.783 L 467.5 490.556 Z " fill="rgb(0,0,0)"/><path d=" M 452.5 481.896 L 452.5 487.669 L 442.5 481.896 L 442.5 476.122 L 452.5 481.896 Z " fill="rgb(0,0,0)"/><path d=" M 437.5 473.236 L 437.5 479.009 L 427.5 473.236 L 427.5 467.462 L 437.5 473.236 Z " fill="rgb(0,0,0)"/><path d=" M 422.5 464.575 L 422.5 470.349 L 412.5 464.575 L 412.5 458.802 L 422.5 464.575 Z " fill="rgb(0,0,0)"/><path d=" M 407.5 455.915 L 407.5 461.689 L 397.5 455.915 L 397.5 450.142 L 407.5 455.915 Z " fill="rgb(0,0,0)"/></g></g></g></svg>