<?xml version="1.0" standalone="no"?><!-- Generator: Gravit.io --><svg xmlns="http://www.w3.org/2000/svg" xmlns:xlink="http://www.w3.org/1999/xlink" style="isolation:isolate" viewBox="2735 209.289 210 720.244" width="210" height="720.244"><g id="body-windows-horizontal"><g id="Group"><path d=" M 2875 274.501 L 2875 280.275 L 2945 239.86 L 2945 234.087 L 2875 274.501 Z " fill="rgb(93,93,93)"/><path d=" M 2875 420.253 L 2875 426.027 L 2945 385.612 L 2945 379.839 L 2875 420.253 Z " fill="rgb(93,93,93)"/><path d=" M 2875 314.252 L 2875 320.025 L 2945 279.611 L 2945 273.837 L 2875 314.252 Z " fill="rgb(93,93,93)"/><path d=" M 2875 513.005 L 2875 518.778 L 2945 478.364 L 2945 472.59 L 2875 513.005 Z " fill="rgb(93,93,93)"/><path d=" M 2875 473.254 L 2875 479.028 L 2945 438.613 L 2945 432.84 L 2875 473.254 Z " fill="rgb(93,93,93)"/><path d=" M 2875 301.002 L 2875 306.775 L 2945 266.361 L 2945 260.587 L 2875 301.002 Z " fill="rgb(93,93,93)"/><path d=" M 2875 407.003 L 2875 412.777 L 2945 372.362 L 2945 366.589 L 2875 407.003 Z " fill="rgb(93,93,93)"/><path d=" M 2875 367.253 L 2875 373.026 L 2945 332.611 L 2945 326.838 L 2875 367.253 Z " fill="rgb(93,93,93)"/><path d=" M 2875 499.754 L 2875 505.528 L 2945 465.113 L 2945 459.34 L 2875 499.754 Z " fill="rgb(93,93,93)"/><path d=" M 2875 486.504 L 2875 492.278 L 2945 451.863 L 2945 446.09 L 2875 486.504 Z " fill="rgb(93,93,93)"/><path d=" M 2875 552.755 L 2875 558.529 L 2945 518.114 L 2945 512.341 L 2875 552.755 Z " fill="rgb(93,93,93)"/><path d=" M 2875 605.756 L 2875 611.529 L 2945 571.115 L 2945 565.341 L 2875 605.756 Z " fill="rgb(93,93,93)"/><path d=" M 2875 592.506 L 2875 598.279 L 2945 557.865 L 2945 552.091 L 2875 592.506 Z " fill="rgb(93,93,93)"/><path d=" M 2875 579.256 L 2875 585.029 L 2945 544.615 L 2945 538.841 L 2875 579.256 Z " fill="rgb(93,93,93)"/><path d=" M 2875 539.505 L 2875 545.278 L 2945 504.864 L 2945 499.09 L 2875 539.505 Z " fill="rgb(93,93,93)"/><path d=" M 2875 923.76 L 2875 929.534 L 2945 889.119 L 2945 883.346 L 2875 923.76 Z " fill="rgb(93,93,93)"/><path d=" M 2875 698.507 L 2875 704.281 L 2945 663.866 L 2945 658.093 L 2875 698.507 Z " fill="rgb(93,93,93)"/><path d=" M 2875 711.757 L 2875 717.531 L 2945 677.116 L 2945 671.343 L 2875 711.757 Z " fill="rgb(93,93,93)"/><path d=" M 2875 658.757 L 2875 664.53 L 2945 624.116 L 2945 618.342 L 2875 658.757 Z " fill="rgb(93,93,93)"/><path d=" M 2875 751.508 L 2875 757.281 L 2945 716.867 L 2945 711.093 L 2875 751.508 Z " fill="rgb(93,93,93)"/><path d=" M 2875 446.754 L 2875 452.527 L 2945 412.113 L 2945 406.339 L 2875 446.754 Z " fill="rgb(93,93,93)"/><path d=" M 2875 738.258 L 2875 744.031 L 2945 703.617 L 2945 697.843 L 2875 738.258 Z " fill="rgb(93,93,93)"/><path d=" M 2875 725.008 L 2875 730.781 L 2945 690.367 L 2945 684.593 L 2875 725.008 Z " fill="rgb(93,93,93)"/><path d=" M 2875 910.51 L 2875 916.284 L 2945 875.869 L 2945 870.096 L 2875 910.51 Z " fill="rgb(93,93,93)"/><path d=" M 2875 433.503 L 2875 439.277 L 2945 398.862 L 2945 393.089 L 2875 433.503 Z " fill="rgb(93,93,93)"/><path d=" M 2875 261.251 L 2875 267.025 L 2945 226.61 L 2945 220.836 L 2875 261.251 Z " fill="rgb(93,93,93)"/><path d=" M 2875 340.752 L 2875 346.526 L 2945 306.111 L 2945 300.338 L 2875 340.752 Z " fill="rgb(93,93,93)"/><path d=" M 2875 287.751 L 2875 293.525 L 2945 253.11 L 2945 247.337 L 2875 287.751 Z " fill="rgb(93,93,93)"/><path d=" M 2875 897.26 L 2875 903.034 L 2945 862.619 L 2945 856.846 L 2875 897.26 Z " fill="rgb(93,93,93)"/><path d=" M 2875 354.002 L 2875 359.776 L 2945 319.361 L 2945 313.588 L 2875 354.002 Z " fill="rgb(93,93,93)"/><path d=" M 2875 791.259 L 2875 797.032 L 2945 756.618 L 2945 750.844 L 2875 791.259 Z " fill="rgb(93,93,93)"/><path d=" M 2875 632.256 L 2875 638.03 L 2945 597.615 L 2945 591.842 L 2875 632.256 Z " fill="rgb(93,93,93)"/><path d=" M 2875 857.509 L 2875 863.283 L 2945 822.868 L 2945 817.095 L 2875 857.509 Z " fill="rgb(93,93,93)"/><path d=" M 2875 460.004 L 2875 465.777 L 2945 425.363 L 2945 419.589 L 2875 460.004 Z " fill="rgb(93,93,93)"/><path d=" M 2875 619.006 L 2875 624.78 L 2945 584.365 L 2945 578.592 L 2875 619.006 Z " fill="rgb(93,93,93)"/><path d=" M 2875 526.255 L 2875 532.028 L 2945 491.614 L 2945 485.84 L 2875 526.255 Z " fill="rgb(93,93,93)"/><path d=" M 2875 831.009 L 2875 836.783 L 2945 796.368 L 2945 790.595 L 2875 831.009 Z " fill="rgb(93,93,93)"/><path d=" M 2875 566.005 L 2875 571.779 L 2945 531.364 L 2945 525.591 L 2875 566.005 Z " fill="rgb(93,93,93)"/><path d=" M 2875 778.008 L 2875 783.782 L 2945 743.367 L 2945 737.594 L 2875 778.008 Z " fill="rgb(93,93,93)"/><path d=" M 2875 844.259 L 2875 850.033 L 2945 809.618 L 2945 803.845 L 2875 844.259 Z " fill="rgb(93,93,93)"/><path d=" M 2875 645.506 L 2875 651.28 L 2945 610.865 L 2945 605.092 L 2875 645.506 Z " fill="rgb(93,93,93)"/><path d=" M 2875 804.509 L 2875 810.282 L 2945 769.868 L 2945 764.094 L 2875 804.509 Z " fill="rgb(93,93,93)"/><path d=" M 2875 817.759 L 2875 823.532 L 2945 783.118 L 2945 777.344 L 2875 817.759 Z " fill="rgb(93,93,93)"/><path d=" M 2875 393.753 L 2875 399.526 L 2945 359.112 L 2945 353.338 L 2875 393.753 Z " fill="rgb(93,93,93)"/><path d=" M 2875 764.758 L 2875 770.532 L 2945 730.117 L 2945 724.344 L 2875 764.758 Z " fill="rgb(93,93,93)"/><path d=" M 2875 380.503 L 2875 386.276 L 2945 345.862 L 2945 340.088 L 2875 380.503 Z " fill="rgb(93,93,93)"/><path d=" M 2875 870.76 L 2875 876.533 L 2945 836.119 L 2945 830.345 L 2875 870.76 Z " fill="rgb(93,93,93)"/><path d=" M 2875 884.01 L 2875 889.783 L 2945 849.369 L 2945 843.595 L 2875 884.01 Z " fill="rgb(93,93,93)"/><path d=" M 2875 685.257 L 2875 691.031 L 2945 650.616 L 2945 644.843 L 2875 685.257 Z " fill="rgb(93,93,93)"/><path d=" M 2875 672.007 L 2875 677.78 L 2945 637.366 L 2945 631.592 L 2875 672.007 Z " fill="rgb(93,93,93)"/><path d=" M 2875 327.502 L 2875 333.275 L 2945 292.861 L 2945 287.087 L 2875 327.502 Z " fill="rgb(93,93,93)"/></g><g id="Group"><path d=" M 2825 275.973 L 2825 281.747 L 2735 229.785 L 2735 224.012 L 2825 275.973 Z " fill="rgb(46,46,46)"/><path d=" M 2825 599.867 L 2825 605.64 L 2735 553.679 L 2735 547.905 L 2825 599.867 Z " fill="rgb(46,46,46)"/><path d=" M 2825 732.369 L 2825 738.142 L 2735 686.181 L 2735 680.407 L 2825 732.369 Z " fill="rgb(46,46,46)"/><path d=" M 2825 320.141 L 2825 325.914 L 2735 273.953 L 2735 268.179 L 2825 320.141 Z " fill="rgb(46,46,46)"/><path d=" M 2825 614.589 L 2825 620.363 L 2735 568.401 L 2735 562.628 L 2825 614.589 Z " fill="rgb(46,46,46)"/><path d=" M 2825 334.863 L 2825 340.637 L 2735 288.675 L 2735 282.902 L 2825 334.863 Z " fill="rgb(46,46,46)"/><path d=" M 2825 349.586 L 2825 355.359 L 2735 303.398 L 2735 297.624 L 2825 349.586 Z " fill="rgb(46,46,46)"/><path d=" M 2825 835.426 L 2825 841.199 L 2735 789.238 L 2735 783.464 L 2825 835.426 Z " fill="rgb(46,46,46)"/><path d=" M 2825 379.03 L 2825 384.804 L 2735 332.842 L 2735 327.069 L 2825 379.03 Z " fill="rgb(46,46,46)"/><path d=" M 2825 393.753 L 2825 399.526 L 2735 347.565 L 2735 341.791 L 2825 393.753 Z " fill="rgb(46,46,46)"/><path d=" M 2825 923.76 L 2825 929.534 L 2735 877.572 L 2735 871.799 L 2825 923.76 Z " fill="rgb(46,46,46)"/><path d=" M 2825 776.536 L 2825 782.31 L 2735 730.348 L 2735 724.575 L 2825 776.536 Z " fill="rgb(46,46,46)"/><path d=" M 2825 437.92 L 2825 443.694 L 2735 391.732 L 2735 385.959 L 2825 437.92 Z " fill="rgb(46,46,46)"/><path d=" M 2825 452.643 L 2825 458.416 L 2735 406.455 L 2735 400.681 L 2825 452.643 Z " fill="rgb(46,46,46)"/><path d=" M 2825 467.365 L 2825 473.139 L 2735 421.177 L 2735 415.404 L 2825 467.365 Z " fill="rgb(46,46,46)"/><path d=" M 2825 290.696 L 2825 296.469 L 2735 244.508 L 2735 238.734 L 2825 290.696 Z " fill="rgb(46,46,46)"/><path d=" M 2825 496.81 L 2825 502.583 L 2735 450.622 L 2735 444.848 L 2825 496.81 Z " fill="rgb(46,46,46)"/><path d=" M 2825 511.532 L 2825 517.306 L 2735 465.344 L 2735 459.571 L 2825 511.532 Z " fill="rgb(46,46,46)"/><path d=" M 2825 909.038 L 2825 914.811 L 2735 862.85 L 2735 857.076 L 2825 909.038 Z " fill="rgb(46,46,46)"/><path d=" M 2825 805.981 L 2825 811.754 L 2735 759.793 L 2735 754.019 L 2825 805.981 Z " fill="rgb(46,46,46)"/><path d=" M 2825 555.7 L 2825 561.473 L 2735 509.512 L 2735 503.738 L 2825 555.7 Z " fill="rgb(46,46,46)"/><path d=" M 2825 570.422 L 2825 576.196 L 2735 524.234 L 2735 518.461 L 2825 570.422 Z " fill="rgb(46,46,46)"/><path d=" M 2825 585.145 L 2825 590.918 L 2735 538.956 L 2735 533.183 L 2825 585.145 Z " fill="rgb(46,46,46)"/><path d=" M 2825 261.251 L 2825 267.025 L 2735 215.063 L 2735 209.289 L 2825 261.251 Z " fill="rgb(46,46,46)"/><path d=" M 2825 305.418 L 2825 311.192 L 2735 259.23 L 2735 253.457 L 2825 305.418 Z " fill="rgb(46,46,46)"/><path d=" M 2825 629.312 L 2825 635.085 L 2735 583.124 L 2735 577.35 L 2825 629.312 Z " fill="rgb(46,46,46)"/><path d=" M 2825 761.814 L 2825 767.587 L 2735 715.626 L 2735 709.852 L 2825 761.814 Z " fill="rgb(46,46,46)"/><path d=" M 2825 658.757 L 2825 664.53 L 2735 612.569 L 2735 606.795 L 2825 658.757 Z " fill="rgb(46,46,46)"/><path d=" M 2825 673.479 L 2825 679.253 L 2735 627.291 L 2735 621.518 L 2825 673.479 Z " fill="rgb(46,46,46)"/><path d=" M 2825 688.202 L 2825 693.975 L 2735 642.013 L 2735 636.24 L 2825 688.202 Z " fill="rgb(46,46,46)"/><path d=" M 2825 850.148 L 2825 855.922 L 2735 803.96 L 2735 798.187 L 2825 850.148 Z " fill="rgb(46,46,46)"/><path d=" M 2825 747.091 L 2825 752.865 L 2735 700.903 L 2735 695.13 L 2825 747.091 Z " fill="rgb(46,46,46)"/><path d=" M 2825 717.646 L 2825 723.42 L 2735 671.458 L 2735 665.685 L 2825 717.646 Z " fill="rgb(46,46,46)"/><path d=" M 2825 702.924 L 2825 708.697 L 2735 656.736 L 2735 650.962 L 2825 702.924 Z " fill="rgb(46,46,46)"/><path d=" M 2825 644.034 L 2825 649.808 L 2735 597.846 L 2735 592.073 L 2825 644.034 Z " fill="rgb(46,46,46)"/><path d=" M 2825 879.593 L 2825 885.367 L 2735 833.405 L 2735 827.632 L 2825 879.593 Z " fill="rgb(46,46,46)"/><path d=" M 2825 791.259 L 2825 797.032 L 2735 745.071 L 2735 739.297 L 2825 791.259 Z " fill="rgb(46,46,46)"/><path d=" M 2825 540.977 L 2825 546.751 L 2735 494.789 L 2735 489.016 L 2825 540.977 Z " fill="rgb(46,46,46)"/><path d=" M 2825 526.255 L 2825 532.028 L 2735 480.067 L 2735 474.293 L 2825 526.255 Z " fill="rgb(46,46,46)"/><path d=" M 2825 482.087 L 2825 487.861 L 2735 435.899 L 2735 430.126 L 2825 482.087 Z " fill="rgb(46,46,46)"/><path d=" M 2825 864.871 L 2825 870.644 L 2735 818.683 L 2735 812.909 L 2825 864.871 Z " fill="rgb(46,46,46)"/><path d=" M 2825 820.703 L 2825 826.477 L 2735 774.515 L 2735 768.742 L 2825 820.703 Z " fill="rgb(46,46,46)"/><path d=" M 2825 423.198 L 2825 428.971 L 2735 377.01 L 2735 371.236 L 2825 423.198 Z " fill="rgb(46,46,46)"/><path d=" M 2825 408.475 L 2825 414.249 L 2735 362.287 L 2735 356.514 L 2825 408.475 Z " fill="rgb(46,46,46)"/><path d=" M 2825 364.308 L 2825 370.082 L 2735 318.12 L 2735 312.346 L 2825 364.308 Z " fill="rgb(46,46,46)"/><path d=" M 2825 894.316 L 2825 900.089 L 2735 848.128 L 2735 842.354 L 2825 894.316 Z " fill="rgb(46,46,46)"/></g></g></svg>