<?xml version="1.0" standalone="no"?><!-- Generator: Gravit.io --><svg xmlns="http://www.w3.org/2000/svg" xmlns:xlink="http://www.w3.org/1999/xlink" style="isolation:isolate" viewBox="2322.5 209.289 205 718.801" width="205" height="718.801"><g id="body-windows-vertical"><g id="body-windows-vertical-right"><path d=" M 2467.5 255.478 L 2462.5 258.364 L 2462.5 928.091 L 2467.5 925.204 L 2467.5 255.478 Z " fill="rgb(93,93,93)"/><path d=" M 2507.5 232.383 L 2502.5 235.27 L 2502.5 904.997 L 2507.5 902.11 L 2507.5 232.383 Z " fill="rgb(93,93,93)"/><path d=" M 2487.5 243.931 L 2482.5 246.817 L 2482.5 916.544 L 2487.5 913.657 L 2487.5 243.931 Z " fill="rgb(93,93,93)"/><path d=" M 2527.5 220.836 L 2522.5 223.723 L 2522.5 893.45 L 2527.5 890.563 L 2527.5 220.836 Z " fill="rgb(93,93,93)"/><path d=" M 2477.5 249.704 L 2472.5 252.591 L 2472.5 922.317 L 2477.5 919.43 L 2477.5 249.704 Z " fill="rgb(93,93,93)"/><path d=" M 2517.5 226.61 L 2512.5 229.497 L 2512.5 899.223 L 2517.5 896.336 L 2517.5 226.61 Z " fill="rgb(93,93,93)"/><path d=" M 2497.5 238.157 L 2492.5 241.044 L 2492.5 910.77 L 2497.5 907.883 L 2497.5 238.157 Z " fill="rgb(93,93,93)"/></g><g id="body-windows-vertical-left"><path d=" M 2402.5 255.477 L 2407.5 258.364 L 2407.5 928.091 L 2402.5 925.204 L 2402.5 255.477 Z " fill="rgb(46,46,46)"/><path d=" M 2362.5 232.383 L 2367.5 235.27 L 2367.5 904.997 L 2362.5 902.11 L 2362.5 232.383 Z " fill="rgb(46,46,46)"/><path d=" M 2332.5 215.063 L 2337.5 217.95 L 2337.5 887.676 L 2332.5 884.789 L 2332.5 215.063 Z " fill="rgb(46,46,46)"/><path d=" M 2382.5 243.93 L 2387.5 246.817 L 2387.5 916.544 L 2382.5 913.657 L 2382.5 243.93 Z " fill="rgb(46,46,46)"/><path d=" M 2342.5 220.836 L 2347.5 223.723 L 2347.5 893.45 L 2342.5 890.563 L 2342.5 220.836 Z " fill="rgb(46,46,46)"/><path d=" M 2392.5 249.704 L 2397.5 252.591 L 2397.5 922.317 L 2392.5 919.43 L 2392.5 249.704 Z " fill="rgb(46,46,46)"/><path d=" M 2352.5 226.61 L 2357.5 229.497 L 2357.5 899.223 L 2352.5 896.336 L 2352.5 226.61 Z " fill="rgb(46,46,46)"/><path d=" M 2322.5 209.289 L 2327.5 212.176 L 2327.5 881.903 L 2322.5 879.016 L 2322.5 209.289 Z " fill="rgb(46,46,46)"/><path d=" M 2372.5 238.157 L 2377.5 241.044 L 2377.5 910.77 L 2372.5 907.883 L 2372.5 238.157 Z " fill="rgb(46,46,46)"/></g></g></svg>