<?xml version="1.0" standalone="no"?><!-- Generator: Gravit.io --><svg xmlns="http://www.w3.org/2000/svg" xmlns:xlink="http://www.w3.org/1999/xlink" style="isolation:isolate" viewBox="390 1351.987 181.6 670.077" width="181.6" height="670.077"><g id="aon-body"><path d=" M 391.219 1410.776 L 469.348 1455.884 L 480 1450.487 L 489.785 1456.384 L 569.993 1410.077 L 560 1404.299 L 571.6 1399.449 L 489.393 1351.987 L 480 1358.111 L 470.607 1351.987 L 390.189 1398.417 L 400 1404.299 L 391.219 1410.776 Z " fill="rgb(247,247,247)"/><path d=" M 490 1456.261 L 490 2022.064 L 570 1975.876 L 570 1410.073 L 490 1456.261 Z " fill="rgb(240,238,238)"/><path d=" M 390 1410.073 L 390 1975.876 L 470 2022.064 L 470 1456.261 L 390 1410.073 Z " fill="rgb(208,207,207)"/><path d=" M 570 1398.526 L 570 1410.073 L 560 1404.299 L 570 1398.526 Z " fill="rgb(208,207,207)"/><path d=" M 390 1410.073 L 400 1404.299 L 390 1398.526 L 390 1410.073 Z " fill="rgb(185,185,185)"/><path d=" M 480 2016.29 L 480 1450.487 L 490 1456.261 L 490 2022.064 L 480 2016.29 Z " fill="rgb(208,207,207)"/><path d=" M 470 2022.064 L 470 1456.261 L 480 1450.487 L 480 2016.29 L 470 2022.064 Z " fill="rgb(240,238,238)"/><clipPath id="_clipPath_f4RuslRl7P55vvuDb3YZ0T3w5u54LqRp"><path d=" M 495 1464.921 L 565 1424.506 L 565 1967.216 L 495 2007.63 L 495 1464.921 Z " fill="rgb(255,255,255)"/></clipPath><g clip-path="url(#_clipPath_f4RuslRl7P55vvuDb3YZ0T3w5u54LqRp)"><g id="body-windows-right"><line x1="498" y1="2016.29" x2="498" y2="1410.073" vector-effect="non-scaling-stroke" stroke-width="2.524" stroke="rgb(145,145,145)" stroke-linejoin="miter" stroke-linecap="square" stroke-miterlimit="3"/><line x1="504.5" y1="2016.29" x2="504.5" y2="1410.073" vector-effect="non-scaling-stroke" stroke-width="2.524" stroke="rgb(145,145,145)" stroke-linejoin="miter" stroke-linecap="square" stroke-miterlimit="3"/><line x1="511" y1="2016.29" x2="511" y2="1410.073" vector-effect="non-scaling-stroke" stroke-width="2.524" stroke="rgb(145,145,145)" stroke-linejoin="miter" stroke-linecap="square" stroke-miterlimit="3"/><line x1="517.5" y1="2016.29" x2="517.5" y2="1410.073" vector-effect="non-scaling-stroke" stroke-width="2.524" stroke="rgb(145,145,145)" stroke-linejoin="miter" stroke-linecap="square" stroke-miterlimit="3"/><line x1="524" y1="2016.29" x2="524" y2="1410.073" vector-effect="non-scaling-stroke" stroke-width="2.524" stroke="rgb(145,145,145)" stroke-linejoin="miter" stroke-linecap="square" stroke-miterlimit="3"/><line x1="530.5" y1="2016.29" x2="530.5" y2="1410.073" vector-effect="non-scaling-stroke" stroke-width="2.524" stroke="rgb(145,145,145)" stroke-linejoin="miter" stroke-linecap="square" stroke-miterlimit="3"/><line x1="563" y1="2016.29" x2="563" y2="1410.073" vector-effect="non-scaling-stroke" stroke-width="2.524" stroke="rgb(145,145,145)" stroke-linejoin="miter" stroke-linecap="square" stroke-miterlimit="3"/><line x1="556.5" y1="2016.29" x2="556.5" y2="1410.073" vector-effect="non-scaling-stroke" stroke-width="2.524" stroke="rgb(145,145,145)" stroke-linejoin="miter" stroke-linecap="square" stroke-miterlimit="3"/><line x1="543.5" y1="2016.29" x2="543.5" y2="1410.073" vector-effect="non-scaling-stroke" stroke-width="2.524" stroke="rgb(145,145,145)" stroke-linejoin="miter" stroke-linecap="square" stroke-miterlimit="3"/><line x1="537" y1="2016.29" x2="537" y2="1410.073" vector-effect="non-scaling-stroke" stroke-width="2.524" stroke="rgb(145,145,145)" stroke-linejoin="miter" stroke-linecap="square" stroke-miterlimit="3"/><line x1="550" y1="2016.29" x2="550" y2="1410.073" vector-effect="non-scaling-stroke" stroke-width="2.524" stroke="rgb(145,145,145)" stroke-linejoin="miter" stroke-linecap="square" stroke-miterlimit="3"/></g></g><clipPath id="_clipPath_KqtVAmicWjeuWnGs8KWsYdI3s4WUkVMY"><path d=" M 465 1464.921 L 395 1424.506 L 395 1967.216 L 465 2007.63 L 465 1464.921 Z " fill="rgb(255,255,255)"/></clipPath><g clip-path="url(#_clipPath_KqtVAmicWjeuWnGs8KWsYdI3s4WUkVMY)"><g id="body-windows-left"><line x1="462" y1="2033.611" x2="462" y2="1410.073" vector-effect="non-scaling-stroke" stroke-width="2.56" stroke="rgb(98,98,98)" stroke-linejoin="miter" stroke-linecap="square" stroke-miterlimit="3"/><line x1="455.5" y1="2033.611" x2="455.5" y2="1410.073" vector-effect="non-scaling-stroke" stroke-width="2.56" stroke="rgb(98,98,98)" stroke-linejoin="miter" stroke-linecap="square" stroke-miterlimit="3"/><line x1="449" y1="2033.611" x2="449" y2="1410.073" vector-effect="non-scaling-stroke" stroke-width="2.56" stroke="rgb(98,98,98)" stroke-linejoin="miter" stroke-linecap="square" stroke-miterlimit="3"/><line x1="442.5" y1="2033.611" x2="442.5" y2="1410.073" vector-effect="non-scaling-stroke" stroke-width="2.56" stroke="rgb(98,98,98)" stroke-linejoin="miter" stroke-linecap="square" stroke-miterlimit="3"/><line x1="436" y1="2033.611" x2="436" y2="1410.073" vector-effect="non-scaling-stroke" stroke-width="2.56" stroke="rgb(98,98,98)" stroke-linejoin="miter" stroke-linecap="square" stroke-miterlimit="3"/><line x1="429.5" y1="2033.611" x2="429.5" y2="1410.073" vector-effect="non-scaling-stroke" stroke-width="2.56" stroke="rgb(98,98,98)" stroke-linejoin="miter" stroke-linecap="square" stroke-miterlimit="3"/><line x1="397" y1="2033.611" x2="397" y2="1410.073" vector-effect="non-scaling-stroke" stroke-width="2.56" stroke="rgb(98,98,98)" stroke-linejoin="miter" stroke-linecap="square" stroke-miterlimit="3"/><line x1="403.5" y1="2033.611" x2="403.5" y2="1410.073" vector-effect="non-scaling-stroke" stroke-width="2.56" stroke="rgb(98,98,98)" stroke-linejoin="miter" stroke-linecap="square" stroke-miterlimit="3"/><line x1="416.5" y1="2033.611" x2="416.5" y2="1410.073" vector-effect="non-scaling-stroke" stroke-width="2.56" stroke="rgb(98,98,98)" stroke-linejoin="miter" stroke-linecap="square" stroke-miterlimit="3"/><line x1="423" y1="2033.611" x2="423" y2="1410.073" vector-effect="non-scaling-stroke" stroke-width="2.56" stroke="rgb(98,98,98)" stroke-linejoin="miter" stroke-linecap="square" stroke-miterlimit="3"/><line x1="410" y1="2033.611" x2="410" y2="1410.073" vector-effect="non-scaling-stroke" stroke-width="2.56" stroke="rgb(98,98,98)" stroke-linejoin="miter" stroke-linecap="square" stroke-miterlimit="3"/></g></g></g></svg>