<?xml version="1.0" standalone="no"?><!-- Generator: Gravit.io --><svg xmlns="http://www.w3.org/2000/svg" xmlns:xlink="http://www.w3.org/1999/xlink" style="isolation:isolate" viewBox="365 903.553 350 207.846" width="350" height="207.846"><g id="Base-Cna"><path d=" M 575 1105.626 L 715 1024.797 L 505 903.553 L 365 984.382 L 575 1105.626 Z " fill="rgb(185,185,185)"/><path d=" M 575 1105.626 L 575 1111.399 L 715 1030.57 L 715 1024.797 L 575 1105.626 Z " fill="rgb(232,232,232)"/><path d=" M 365 984.382 L 365 990.156 L 575 1111.399 L 575 1105.626 L 365 984.382 Z " fill="rgb(139,139,139)"/><path d=" M 647.5 1026.24 L 647.5 1014.693 L 575 1056.551 L 575 1068.098 L 647.5 1026.24 Z " fill="rgb(30,30,30)"/><path d=" M 575 1056.551 L 665 1004.589 L 505 912.213 L 415 964.175 L 575 1056.551 Z " fill="rgb(221,138,135)"/><path d=" M 575 1068.098 L 432.5 985.826 L 432.5 974.279 L 575 1056.551 L 575 1068.098 Z " fill="rgb(0,0,0)"/><g id="Base - Right"><path d=" M 607.5 1037.787 L 607.5 1063.315 L 602.5 1066.202 L 602.5 1040.674 L 607.5 1037.787 Z " fill="rgb(191,83,80)"/><path d=" M 637.5 1020.467 L 637.5 1045.994 L 632.5 1048.881 L 632.5 1023.353 L 637.5 1020.467 Z " fill="rgb(191,83,80)"/><path d=" M 554.167 1044.523 L 554.167 1064.277 L 549.167 1067.164 L 549.167 1041.636 L 554.167 1044.523 Z " fill="rgb(191,83,80)"/><path d=" M 528.333 1029.608 L 528.333 1049.362 L 523.333 1052.249 L 523.333 1026.721 L 528.333 1029.608 Z " fill="rgb(191,83,80)"/><path d=" M 502.5 1014.693 L 502.5 1034.447 L 497.5 1037.334 L 497.5 1011.806 L 502.5 1014.693 Z " fill="rgb(191,83,80)"/><path d=" M 476.667 999.778 L 476.667 1019.532 L 471.667 1022.419 L 471.667 996.891 L 476.667 999.778 Z " fill="rgb(191,83,80)"/><path d=" M 450.833 984.863 L 450.833 1004.618 L 445.833 1007.504 L 445.833 981.977 L 450.833 984.863 Z " fill="rgb(191,83,80)"/><path d=" M 425 969.948 L 425 989.703 L 420 992.589 L 420 967.062 L 425 969.948 Z " fill="rgb(191,83,80)"/><path d=" M 575 1082.079 L 580 1079.192 L 580 1053.664 L 575 1056.551 L 575 1082.079 Z " fill="rgb(191,83,80)"/><path d=" M 660 1007.476 L 665 1004.589 L 665 1030.117 L 660 1033.004 L 660 1007.476 Z " fill="rgb(191,83,80)"/><path d=" M 647.5 1026.24 L 646.25 1026.962 L 646.25 1015.415 L 647.5 1014.693 L 647.5 1026.24 Z " fill="rgb(191,83,80)"/><path d=" M 618.125 1043.2 L 616.875 1043.921 L 616.875 1032.374 L 618.125 1031.653 L 618.125 1043.2 Z " fill="rgb(191,83,80)"/><path d=" M 588.75 1060.159 L 587.5 1060.881 L 587.5 1049.334 L 588.75 1048.612 L 588.75 1060.159 Z " fill="rgb(191,83,80)"/></g><g id="Base - Left"><path d=" M 602.5 1066.202 L 597.5 1063.315 L 597.5 1043.561 L 602.5 1040.674 L 602.5 1066.202 Z " fill="rgb(149,67,64)"/><path d=" M 632.5 1048.881 L 627.5 1045.994 L 627.5 1026.24 L 632.5 1023.353 L 632.5 1048.881 Z " fill="rgb(149,67,64)"/><path d=" M 660 1033.004 L 655 1030.117 L 655 1010.363 L 660 1007.476 L 660 1033.004 Z " fill="rgb(149,67,64)"/><path d=" M 570 1053.664 L 570 1079.47 L 575 1082.356 L 575 1056.551 L 570 1053.664 Z " fill="rgb(149,67,64)"/><path d=" M 544.167 1038.749 L 544.167 1064.277 L 549.167 1067.164 L 549.167 1041.636 L 544.167 1038.749 Z " fill="rgb(149,67,64)"/><path d=" M 518.333 1023.834 L 518.333 1049.362 L 523.333 1052.249 L 523.333 1026.721 L 518.333 1023.834 Z " fill="rgb(149,67,64)"/><path d=" M 492.5 1008.92 L 492.5 1034.447 L 497.5 1037.334 L 497.5 1011.806 L 492.5 1008.92 Z " fill="rgb(149,67,64)"/><path d=" M 466.667 994.005 L 466.667 1019.532 L 471.667 1022.419 L 471.667 996.891 L 466.667 994.005 Z " fill="rgb(149,67,64)"/><path d=" M 440.833 979.09 L 440.833 1004.618 L 445.833 1007.504 L 445.833 981.977 L 440.833 979.09 Z " fill="rgb(149,67,64)"/><path d=" M 415 964.175 L 415 989.703 L 420 992.589 L 420 967.062 L 415 964.175 Z " fill="rgb(149,67,64)"/><path d=" M 562.5 1060.881 L 561.25 1060.159 L 561.25 1048.612 L 562.5 1049.334 L 562.5 1060.881 Z " fill="rgb(149,67,64)"/><path d=" M 536.75 1046.014 L 535.5 1045.293 L 535.5 1033.746 L 536.75 1034.467 L 536.75 1046.014 Z " fill="rgb(149,67,64)"/><path d=" M 511 1031.148 L 509.75 1030.426 L 509.75 1018.879 L 511 1019.601 L 511 1031.148 Z " fill="rgb(149,67,64)"/><path d=" M 485.25 1016.281 L 484 1015.559 L 484 1004.012 L 485.25 1004.734 L 485.25 1016.281 Z " fill="rgb(149,67,64)"/><path d=" M 459.5 1001.414 L 458.25 1000.692 L 458.25 989.145 L 459.5 989.867 L 459.5 1001.414 Z " fill="rgb(149,67,64)"/><path d=" M 433.75 986.547 L 432.5 985.826 L 432.5 974.279 L 433.75 975 L 433.75 986.547 Z " fill="rgb(149,67,64)"/></g></g></svg>