<?xml version="1.0" standalone="no"?><!-- Generator: Gravit.io --><svg xmlns="http://www.w3.org/2000/svg" xmlns:xlink="http://www.w3.org/1999/xlink" style="isolation:isolate" viewBox="415 256.921 250 560.03" width="250" height="560.03"><g id="Body-Cna"><path d=" M 575 814.064 L 415 721.688 L 415 308.882 L 575 401.258 L 575 814.064 Z " fill="rgb(0,0,0)"/><path d=" M 665 762.102 L 665 349.297 L 575 401.258 L 575 814.064 L 665 762.102 Z " fill="rgb(30,30,30)"/><path d=" M 665 349.297 L 505 256.921 L 415 308.882 L 575 401.258 L 665 349.297 Z " fill="rgb(221,138,135)"/><path d=" M 415 617.765 L 575 710.141 L 575 672.613 L 415 580.237 L 415 617.765 Z " fill="rgb(183,80,77)"/><path d=" M 665 658.179 L 575 710.141 L 575 672.613 L 665 620.652 L 665 658.179 Z " fill="rgb(227,101,96)"/><path d=" M 580 398.372 L 580 811.177 L 575 814.064 L 575 401.258 L 580 398.372 Z " fill="rgb(191,83,80)"/><path d=" M 570 398.372 L 570 811.177 L 575 814.064 L 575 401.258 L 570 398.372 Z " fill="rgb(149,67,64)"/><path d=" M 544.167 383.457 L 544.167 796.262 L 549.167 799.149 L 549.167 386.344 L 544.167 383.457 Z " fill="rgb(149,67,64)"/><path d=" M 518.333 368.542 L 518.333 781.347 L 523.333 784.234 L 523.333 371.429 L 518.333 368.542 Z " fill="rgb(149,67,64)"/><path d=" M 492.5 353.627 L 492.5 766.432 L 497.5 769.319 L 497.5 356.514 L 492.5 353.627 Z " fill="rgb(149,67,64)"/><path d=" M 466.667 338.712 L 466.667 751.518 L 471.667 754.404 L 471.667 341.599 L 466.667 338.712 Z " fill="rgb(149,67,64)"/><path d=" M 440.833 323.797 L 440.833 736.603 L 445.833 739.49 L 445.833 326.684 L 440.833 323.797 Z " fill="rgb(149,67,64)"/><path d=" M 415 308.882 L 415 721.688 L 420 724.575 L 420 311.769 L 415 308.882 Z " fill="rgb(149,67,64)"/><path d=" M 607.5 382.495 L 607.5 795.3 L 602.5 798.187 L 602.5 385.381 L 607.5 382.495 Z " fill="rgb(191,83,80)"/><path d=" M 637.5 365.174 L 637.5 777.98 L 632.5 780.866 L 632.5 368.061 L 637.5 365.174 Z " fill="rgb(191,83,80)"/><path d=" M 665 349.297 L 665 762.102 L 660 764.989 L 660 352.184 L 665 349.297 Z " fill="rgb(191,83,80)"/><g id="Body-Window-Lines-Right"><path d=" M 575 811.177 L 665 759.216 L 665 764.989 L 575 816.951 L 575 811.177 Z " fill="rgb(191,83,80)"/><path d=" M 575 801.861 L 665 749.899 L 665 752.786 L 575 804.748 L 575 801.861 Z " fill="rgb(191,83,80)"/><path d=" M 575 792.544 L 665 740.583 L 665 743.47 L 575 795.431 L 575 792.544 Z " fill="rgb(191,83,80)"/><path d=" M 575 783.228 L 665 731.267 L 665 734.153 L 575 786.115 L 575 783.228 Z " fill="rgb(191,83,80)"/><path d=" M 575 773.912 L 665 721.95 L 665 724.837 L 575 776.799 L 575 773.912 Z " fill="rgb(191,83,80)"/><path d=" M 575 764.595 L 665 712.634 L 665 715.521 L 575 767.482 L 575 764.595 Z " fill="rgb(191,83,80)"/><path d=" M 575 699.381 L 665 647.42 L 665 650.306 L 575 702.268 L 575 699.381 Z " fill="rgb(191,83,80)"/><path d=" M 575 755.279 L 665 703.318 L 665 706.204 L 575 758.166 L 575 755.279 Z " fill="rgb(191,83,80)"/><path d=" M 575 745.963 L 665 694.001 L 665 696.888 L 575 748.85 L 575 745.963 Z " fill="rgb(191,83,80)"/><path d=" M 575 634.167 L 665 582.205 L 665 585.092 L 575 637.054 L 575 634.167 Z " fill="rgb(191,83,80)"/><path d=" M 575 736.646 L 665 684.685 L 665 687.572 L 575 739.533 L 575 736.646 Z " fill="rgb(191,83,80)"/><path d=" M 575 727.33 L 665 675.369 L 665 678.255 L 575 730.217 L 575 727.33 Z " fill="rgb(191,83,80)"/><path d=" M 575 708.697 L 665 656.736 L 665 659.623 L 575 711.584 L 575 708.697 Z " fill="rgb(191,83,80)"/><path d=" M 575 718.014 L 665 666.052 L 665 668.939 L 575 720.901 L 575 718.014 Z " fill="rgb(191,83,80)"/><path d=" M 575 494.422 L 665 442.46 L 665 445.347 L 575 497.309 L 575 494.422 Z " fill="rgb(191,83,80)"/><path d=" M 575 531.687 L 665 479.726 L 665 482.612 L 575 534.574 L 575 531.687 Z " fill="rgb(191,83,80)"/><path d=" M 575 662.116 L 665 610.154 L 665 613.041 L 575 665.003 L 575 662.116 Z " fill="rgb(191,83,80)"/><path d=" M 575 652.799 L 665 600.838 L 665 603.725 L 575 655.686 L 575 652.799 Z " fill="rgb(191,83,80)"/><path d=" M 575 419.891 L 665 367.93 L 665 370.816 L 575 422.778 L 575 419.891 Z " fill="rgb(191,83,80)"/><path d=" M 575 447.84 L 665 395.879 L 665 398.765 L 575 450.727 L 575 447.84 Z " fill="rgb(191,83,80)"/><path d=" M 575 624.85 L 665 572.889 L 665 575.776 L 575 627.737 L 575 624.85 Z " fill="rgb(191,83,80)"/><path d=" M 575 615.534 L 665 563.573 L 665 566.459 L 575 618.421 L 575 615.534 Z " fill="rgb(191,83,80)"/><path d=" M 575 401.258 L 665 349.297 L 665 352.184 L 575 404.145 L 575 401.258 Z " fill="rgb(191,83,80)"/><path d=" M 575 596.901 L 665 544.94 L 665 547.827 L 575 599.788 L 575 596.901 Z " fill="rgb(191,83,80)"/><path d=" M 575 587.585 L 665 535.624 L 665 538.51 L 575 590.472 L 575 587.585 Z " fill="rgb(191,83,80)"/><path d=" M 575 578.269 L 665 526.307 L 665 529.194 L 575 581.156 L 575 578.269 Z " fill="rgb(191,83,80)"/><path d=" M 575 568.952 L 665 516.991 L 665 519.878 L 575 571.839 L 575 568.952 Z " fill="rgb(191,83,80)"/><path d=" M 575 559.636 L 665 507.675 L 665 510.561 L 575 562.523 L 575 559.636 Z " fill="rgb(191,83,80)"/><path d=" M 575 550.32 L 665 498.358 L 665 501.245 L 575 553.207 L 575 550.32 Z " fill="rgb(191,83,80)"/><path d=" M 575 541.003 L 665 489.042 L 665 491.929 L 575 543.89 L 575 541.003 Z " fill="rgb(191,83,80)"/><path d=" M 575 671.432 L 665 619.471 L 665 622.357 L 575 674.319 L 575 671.432 Z " fill="rgb(191,83,80)"/><path d=" M 575 522.371 L 665 470.409 L 665 473.296 L 575 525.258 L 575 522.371 Z " fill="rgb(191,83,80)"/><path d=" M 575 513.054 L 665 461.093 L 665 463.98 L 575 515.941 L 575 513.054 Z " fill="rgb(191,83,80)"/><path d=" M 575 503.738 L 665 451.777 L 665 454.663 L 575 506.625 L 575 503.738 Z " fill="rgb(191,83,80)"/><path d=" M 575 680.748 L 665 628.787 L 665 631.674 L 575 683.635 L 575 680.748 Z " fill="rgb(191,83,80)"/><path d=" M 575 485.105 L 665 433.144 L 665 436.031 L 575 487.992 L 575 485.105 Z " fill="rgb(191,83,80)"/><path d=" M 575 429.207 L 665 377.246 L 665 380.133 L 575 432.094 L 575 429.207 Z " fill="rgb(191,83,80)"/><path d=" M 575 466.473 L 665 414.511 L 665 417.398 L 575 469.36 L 575 466.473 Z " fill="rgb(191,83,80)"/><path d=" M 575 643.483 L 665 591.522 L 665 594.408 L 575 646.37 L 575 643.483 Z " fill="rgb(191,83,80)"/><path d=" M 575 457.156 L 665 405.195 L 665 408.082 L 575 460.043 L 575 457.156 Z " fill="rgb(191,83,80)"/><path d=" M 575 438.524 L 665 386.562 L 665 389.449 L 575 441.411 L 575 438.524 Z " fill="rgb(191,83,80)"/><path d=" M 575 475.789 L 665 423.828 L 665 426.714 L 575 478.676 L 575 475.789 Z " fill="rgb(191,83,80)"/><path d=" M 575 690.065 L 665 638.103 L 665 640.99 L 575 692.952 L 575 690.065 Z " fill="rgb(191,83,80)"/><path d=" M 575 606.218 L 665 554.256 L 665 557.143 L 575 609.105 L 575 606.218 Z " fill="rgb(191,83,80)"/><path d=" M 575 410.575 L 665 358.613 L 665 361.5 L 575 413.462 L 575 410.575 Z " fill="rgb(191,83,80)"/></g><g id="Body-Window-Lines-Left"><path d=" M 415 367.667 L 575 460.043 L 575 457.156 L 415 364.78 L 415 367.667 Z " fill="rgb(149,67,64)"/><path d=" M 415 600.575 L 575 692.952 L 575 690.065 L 415 597.689 L 415 600.575 Z " fill="rgb(149,67,64)"/><path d=" M 415 693.739 L 575 786.115 L 575 783.228 L 415 690.852 L 415 693.739 Z " fill="rgb(149,67,64)"/><path d=" M 415 619.208 L 575 711.584 L 575 708.697 L 415 616.321 L 415 619.208 Z " fill="rgb(149,67,64)"/><path d=" M 415 712.371 L 575 804.748 L 575 801.861 L 415 709.485 L 415 712.371 Z " fill="rgb(149,67,64)"/><path d=" M 415 526.045 L 575 618.421 L 575 615.534 L 415 523.158 L 415 526.045 Z " fill="rgb(149,67,64)"/><path d=" M 415 724.575 L 575 816.951 L 575 811.177 L 415 718.801 L 415 724.575 Z " fill="rgb(149,67,64)"/><path d=" M 415 535.361 L 575 627.737 L 575 624.85 L 415 532.474 L 415 535.361 Z " fill="rgb(149,67,64)"/><path d=" M 415 563.31 L 575 655.686 L 575 652.799 L 415 560.423 L 415 563.31 Z " fill="rgb(149,67,64)"/><path d=" M 415 637.841 L 575 730.217 L 575 727.33 L 415 634.954 L 415 637.841 Z " fill="rgb(149,67,64)"/><path d=" M 415 628.524 L 575 720.901 L 575 718.014 L 415 625.638 L 415 628.524 Z " fill="rgb(149,67,64)"/><path d=" M 415 684.422 L 575 776.799 L 575 773.912 L 415 681.536 L 415 684.422 Z " fill="rgb(149,67,64)"/><path d=" M 415 498.096 L 575 590.472 L 575 587.585 L 415 495.209 L 415 498.096 Z " fill="rgb(149,67,64)"/><path d=" M 415 703.055 L 575 795.431 L 575 792.544 L 415 700.168 L 415 703.055 Z " fill="rgb(149,67,64)"/><path d=" M 415 376.983 L 575 469.36 L 575 466.473 L 415 374.097 L 415 376.983 Z " fill="rgb(149,67,64)"/><path d=" M 415 386.3 L 575 478.676 L 575 475.789 L 415 383.413 L 415 386.3 Z " fill="rgb(149,67,64)"/><path d=" M 415 414.249 L 575 506.625 L 575 503.738 L 415 411.362 L 415 414.249 Z " fill="rgb(149,67,64)"/><path d=" M 415 572.626 L 575 665.003 L 575 662.116 L 415 569.74 L 415 572.626 Z " fill="rgb(149,67,64)"/><path d=" M 415 330.402 L 575 422.778 L 575 419.891 L 415 327.515 L 415 330.402 Z " fill="rgb(149,67,64)"/><path d=" M 415 358.351 L 575 450.727 L 575 447.84 L 415 355.464 L 415 358.351 Z " fill="rgb(149,67,64)"/><path d=" M 415 656.473 L 575 748.85 L 575 745.963 L 415 653.587 L 415 656.473 Z " fill="rgb(149,67,64)"/><path d=" M 415 665.79 L 575 758.166 L 575 755.279 L 415 662.903 L 415 665.79 Z " fill="rgb(149,67,64)"/><path d=" M 415 311.769 L 575 404.145 L 575 401.258 L 415 308.882 L 415 311.769 Z " fill="rgb(149,67,64)"/><path d=" M 415 609.892 L 575 702.268 L 575 699.381 L 415 607.005 L 415 609.892 Z " fill="rgb(149,67,64)"/><path d=" M 415 675.106 L 575 767.482 L 575 764.595 L 415 672.219 L 415 675.106 Z " fill="rgb(149,67,64)"/><path d=" M 415 516.728 L 575 609.105 L 575 606.218 L 415 513.842 L 415 516.728 Z " fill="rgb(149,67,64)"/><path d=" M 415 591.259 L 575 683.635 L 575 680.748 L 415 588.372 L 415 591.259 Z " fill="rgb(149,67,64)"/><path d=" M 415 470.147 L 575 562.523 L 575 559.636 L 415 467.26 L 415 470.147 Z " fill="rgb(149,67,64)"/><path d=" M 415 395.616 L 575 487.992 L 575 485.105 L 415 392.729 L 415 395.616 Z " fill="rgb(149,67,64)"/><path d=" M 415 581.943 L 575 674.319 L 575 671.432 L 415 579.056 L 415 581.943 Z " fill="rgb(149,67,64)"/><path d=" M 415 647.157 L 575 739.533 L 575 736.646 L 415 644.27 L 415 647.157 Z " fill="rgb(149,67,64)"/><path d=" M 415 432.881 L 575 525.258 L 575 522.371 L 415 429.995 L 415 432.881 Z " fill="rgb(149,67,64)"/><path d=" M 415 404.932 L 575 497.309 L 575 494.422 L 415 402.046 L 415 404.932 Z " fill="rgb(149,67,64)"/><path d=" M 415 507.412 L 575 599.788 L 575 596.901 L 415 504.525 L 415 507.412 Z " fill="rgb(149,67,64)"/><path d=" M 415 442.198 L 575 534.574 L 575 531.687 L 415 439.311 L 415 442.198 Z " fill="rgb(149,67,64)"/><path d=" M 415 460.83 L 575 553.207 L 575 550.32 L 415 457.944 L 415 460.83 Z " fill="rgb(149,67,64)"/><path d=" M 415 339.718 L 575 432.094 L 575 429.207 L 415 336.831 L 415 339.718 Z " fill="rgb(149,67,64)"/><path d=" M 415 544.677 L 575 637.054 L 575 634.167 L 415 541.791 L 415 544.677 Z " fill="rgb(149,67,64)"/><path d=" M 415 479.463 L 575 571.839 L 575 568.952 L 415 476.576 L 415 479.463 Z " fill="rgb(149,67,64)"/><path d=" M 415 423.565 L 575 515.941 L 575 513.054 L 415 420.678 L 415 423.565 Z " fill="rgb(149,67,64)"/><path d=" M 415 349.034 L 575 441.411 L 575 438.524 L 415 346.148 L 415 349.034 Z " fill="rgb(149,67,64)"/><path d=" M 415 553.994 L 575 646.37 L 575 643.483 L 415 551.107 L 415 553.994 Z " fill="rgb(149,67,64)"/><path d=" M 415 451.514 L 575 543.89 L 575 541.003 L 415 448.627 L 415 451.514 Z " fill="rgb(149,67,64)"/><path d=" M 415 488.779 L 575 581.156 L 575 578.269 L 415 485.893 L 415 488.779 Z " fill="rgb(149,67,64)"/><path d=" M 415 321.085 L 575 413.462 L 575 410.575 L 415 318.199 L 415 321.085 Z " fill="rgb(149,67,64)"/></g><g id="Body-Window Lines-Left"><line x1="566.5" y1="807.847" x2="566.5" y2="398.042" vector-effect="non-scaling-stroke" stroke-width="1" stroke="rgb(149,67,64)" stroke-linejoin="miter" stroke-linecap="square" stroke-miterlimit="3"/><line x1="561.833" y1="804.479" x2="561.833" y2="394.674" vector-effect="non-scaling-stroke" stroke-width="1" stroke="rgb(149,67,64)" stroke-linejoin="miter" stroke-linecap="square" stroke-miterlimit="3"/><line x1="557.167" y1="801.743" x2="557.167" y2="391.938" vector-effect="non-scaling-stroke" stroke-width="1" stroke="rgb(149,67,64)" stroke-linejoin="miter" stroke-linecap="square" stroke-miterlimit="3"/><line x1="552.5" y1="799.111" x2="552.5" y2="390.306" vector-effect="non-scaling-stroke" stroke-width="1" stroke="rgb(149,67,64)" stroke-linejoin="miter" stroke-linecap="square" stroke-miterlimit="3"/><line x1="540.7" y1="793.213" x2="540.7" y2="383.408" vector-effect="non-scaling-stroke" stroke-width="1" stroke="rgb(149,67,64)" stroke-linejoin="miter" stroke-linecap="square" stroke-miterlimit="3"/><line x1="536.033" y1="789.845" x2="536.033" y2="380.04" vector-effect="non-scaling-stroke" stroke-width="1" stroke="rgb(149,67,64)" stroke-linejoin="miter" stroke-linecap="square" stroke-miterlimit="3"/><line x1="531.367" y1="787.11" x2="531.367" y2="377.304" vector-effect="non-scaling-stroke" stroke-width="1" stroke="rgb(149,67,64)" stroke-linejoin="miter" stroke-linecap="square" stroke-miterlimit="3"/><line x1="526.7" y1="784.478" x2="526.7" y2="375.672" vector-effect="non-scaling-stroke" stroke-width="1" stroke="rgb(149,67,64)" stroke-linejoin="miter" stroke-linecap="square" stroke-miterlimit="3"/><line x1="514.9" y1="778.58" x2="514.9" y2="368.774" vector-effect="non-scaling-stroke" stroke-width="1" stroke="rgb(149,67,64)" stroke-linejoin="miter" stroke-linecap="square" stroke-miterlimit="3"/><line x1="510.233" y1="775.212" x2="510.233" y2="365.406" vector-effect="non-scaling-stroke" stroke-width="1" stroke="rgb(149,67,64)" stroke-linejoin="miter" stroke-linecap="square" stroke-miterlimit="3"/><line x1="505.567" y1="772.476" x2="505.567" y2="362.67" vector-effect="non-scaling-stroke" stroke-width="1" stroke="rgb(149,67,64)" stroke-linejoin="miter" stroke-linecap="square" stroke-miterlimit="3"/><line x1="500.9" y1="769.844" x2="500.9" y2="361.038" vector-effect="non-scaling-stroke" stroke-width="1" stroke="rgb(149,67,64)" stroke-linejoin="miter" stroke-linecap="square" stroke-miterlimit="3"/><line x1="489.1" y1="763.946" x2="489.1" y2="354.14" vector-effect="non-scaling-stroke" stroke-width="1" stroke="rgb(149,67,64)" stroke-linejoin="miter" stroke-linecap="square" stroke-miterlimit="3"/><line x1="484.433" y1="760.578" x2="484.433" y2="350.772" vector-effect="non-scaling-stroke" stroke-width="1" stroke="rgb(149,67,64)" stroke-linejoin="miter" stroke-linecap="square" stroke-miterlimit="3"/><line x1="479.767" y1="757.842" x2="479.767" y2="348.037" vector-effect="non-scaling-stroke" stroke-width="1" stroke="rgb(149,67,64)" stroke-linejoin="miter" stroke-linecap="square" stroke-miterlimit="3"/><line x1="475.1" y1="755.21" x2="475.1" y2="346.405" vector-effect="non-scaling-stroke" stroke-width="1" stroke="rgb(149,67,64)" stroke-linejoin="miter" stroke-linecap="square" stroke-miterlimit="3"/><line x1="463.3" y1="749.312" x2="463.3" y2="339.507" vector-effect="non-scaling-stroke" stroke-width="1" stroke="rgb(149,67,64)" stroke-linejoin="miter" stroke-linecap="square" stroke-miterlimit="3"/><line x1="458.633" y1="745.944" x2="458.633" y2="336.139" vector-effect="non-scaling-stroke" stroke-width="1" stroke="rgb(149,67,64)" stroke-linejoin="miter" stroke-linecap="square" stroke-miterlimit="3"/><line x1="453.967" y1="743.208" x2="453.967" y2="333.403" vector-effect="non-scaling-stroke" stroke-width="1" stroke="rgb(149,67,64)" stroke-linejoin="miter" stroke-linecap="square" stroke-miterlimit="3"/><line x1="449.3" y1="740.576" x2="449.3" y2="331.771" vector-effect="non-scaling-stroke" stroke-width="1" stroke="rgb(149,67,64)" stroke-linejoin="miter" stroke-linecap="square" stroke-miterlimit="3"/><line x1="437.5" y1="734.678" x2="437.5" y2="324.873" vector-effect="non-scaling-stroke" stroke-width="1" stroke="rgb(149,67,64)" stroke-linejoin="miter" stroke-linecap="square" stroke-miterlimit="3"/><line x1="432.833" y1="731.31" x2="432.833" y2="321.505" vector-effect="non-scaling-stroke" stroke-width="1" stroke="rgb(149,67,64)" stroke-linejoin="miter" stroke-linecap="square" stroke-miterlimit="3"/><line x1="428.167" y1="728.575" x2="428.167" y2="318.769" vector-effect="non-scaling-stroke" stroke-width="1" stroke="rgb(149,67,64)" stroke-linejoin="miter" stroke-linecap="square" stroke-miterlimit="3"/><line x1="423.5" y1="725.942" x2="423.5" y2="317.137" vector-effect="non-scaling-stroke" stroke-width="1" stroke="rgb(149,67,64)" stroke-linejoin="miter" stroke-linecap="square" stroke-miterlimit="3"/></g><g id="Body-Window Lines-Right"><line x1="584" y1="807.366" x2="584" y2="397.56" vector-effect="non-scaling-stroke" stroke-width="1" stroke="rgb(191,83,80)" stroke-linejoin="miter" stroke-linecap="square" stroke-miterlimit="3"/><line x1="589" y1="803.998" x2="589" y2="394.193" vector-effect="non-scaling-stroke" stroke-width="1" stroke="rgb(191,83,80)" stroke-linejoin="miter" stroke-linecap="square" stroke-miterlimit="3"/><line x1="594" y1="801.262" x2="594" y2="391.457" vector-effect="non-scaling-stroke" stroke-width="1" stroke="rgb(191,83,80)" stroke-linejoin="miter" stroke-linecap="square" stroke-miterlimit="3"/><line x1="599" y1="798.63" x2="599" y2="388.825" vector-effect="non-scaling-stroke" stroke-width="1" stroke="rgb(191,83,80)" stroke-linejoin="miter" stroke-linecap="square" stroke-miterlimit="3"/><line x1="641.5" y1="774.696" x2="641.5" y2="364.891" vector-effect="non-scaling-stroke" stroke-width="1" stroke="rgb(191,83,80)" stroke-linejoin="miter" stroke-linecap="square" stroke-miterlimit="3"/><line x1="646.5" y1="771.328" x2="646.5" y2="361.523" vector-effect="non-scaling-stroke" stroke-width="1" stroke="rgb(191,83,80)" stroke-linejoin="miter" stroke-linecap="square" stroke-miterlimit="3"/><line x1="651.5" y1="768.592" x2="651.5" y2="358.787" vector-effect="non-scaling-stroke" stroke-width="1" stroke="rgb(191,83,80)" stroke-linejoin="miter" stroke-linecap="square" stroke-miterlimit="3"/><line x1="656.5" y1="765.96" x2="656.5" y2="356.155" vector-effect="non-scaling-stroke" stroke-width="1" stroke="rgb(191,83,80)" stroke-linejoin="miter" stroke-linecap="square" stroke-miterlimit="3"/><line x1="612.75" y1="791.526" x2="612.75" y2="381.721" vector-effect="non-scaling-stroke" stroke-width="1" stroke="rgb(191,83,80)" stroke-linejoin="miter" stroke-linecap="square" stroke-miterlimit="3"/><line x1="617.75" y1="788.159" x2="617.75" y2="378.353" vector-effect="non-scaling-stroke" stroke-width="1" stroke="rgb(191,83,80)" stroke-linejoin="miter" stroke-linecap="square" stroke-miterlimit="3"/><line x1="622.75" y1="785.423" x2="622.75" y2="375.617" vector-effect="non-scaling-stroke" stroke-width="1" stroke="rgb(191,83,80)" stroke-linejoin="miter" stroke-linecap="square" stroke-miterlimit="3"/><line x1="627.75" y1="782.791" x2="627.75" y2="372.985" vector-effect="non-scaling-stroke" stroke-width="1" stroke="rgb(191,83,80)" stroke-linejoin="miter" stroke-linecap="square" stroke-miterlimit="3"/></g></g></svg>