<?xml version="1.0" standalone="no"?><!-- Generator: Gravit.io --><svg xmlns="http://www.w3.org/2000/svg" xmlns:xlink="http://www.w3.org/1999/xlink" style="isolation:isolate" viewBox="415 43.301 250 184.752" width="250" height="184.752"><g id="Roof-Cna"><path d=" M 665 176.092 L 575 228.053 L 575 187.639 L 665 135.677 L 665 176.092 Z " fill="rgb(191,83,80)"/><path d=" M 575 187.639 L 665 135.677 L 505 43.301 L 415 95.263 L 575 187.639 Z " fill="rgb(255,200,198)"/><path d=" M 425 95.263 L 505 49.075 L 655 135.677 L 575 181.865 L 425 95.263 Z " fill="rgb(221,138,135)"/><path d=" M 580 219.393 L 660 173.205 L 660 144.338 L 580 190.526 L 580 219.393 Z " fill="rgb(227,101,96)"/><path d=" M 570 219.393 L 420 132.791 L 420 103.923 L 570 190.526 L 570 219.393 Z " fill="rgb(183,80,77)"/><path d=" M 570 184.752 L 570 222.558 L 575 225.444 L 575 187.639 L 570 184.752 Z " fill="rgb(149,67,64)"/><path d=" M 415 95.263 L 415 135.068 L 420 137.955 L 420 98.15 L 415 95.263 Z " fill="rgb(149,67,64)"/><path d=" M 525 112.583 L 550 98.15 L 605 129.904 L 580 144.338 L 525 112.583 Z " fill="rgb(255,200,198)"/><path d=" M 535 112.583 L 550 103.923 L 595 129.904 L 580 138.564 L 535 112.583 Z " fill="rgb(221,138,135)"/><g id="Roof - Left"><path d=" M 544.167 169.837 L 544.167 207.643 L 549.167 210.529 L 549.167 172.724 L 544.167 169.837 Z " fill="rgb(149,67,64)"/><path d=" M 518.333 154.922 L 518.333 192.728 L 523.333 195.615 L 523.333 157.809 L 518.333 154.922 Z " fill="rgb(149,67,64)"/><path d=" M 525 112.583 L 525 124.13 L 580 155.885 L 580 144.338 L 525 112.583 Z " fill="rgb(149,67,64)"/><path d=" M 492.5 140.007 L 492.5 177.813 L 497.5 180.7 L 497.5 142.894 L 492.5 140.007 Z " fill="rgb(149,67,64)"/><path d=" M 466.667 125.093 L 466.667 162.898 L 471.667 165.785 L 471.667 127.979 L 466.667 125.093 Z " fill="rgb(149,67,64)"/><path d=" M 440.833 110.178 L 440.833 148.983 L 445.833 151.87 L 445.833 113.064 L 440.833 110.178 Z " fill="rgb(149,67,64)"/><path d=" M 415 135.677 L 575 228.053 L 575 187.639 L 570 190.526 L 570 219.393 L 420 132.791 L 420 103.923 L 570 190.526 L 575 187.639 L 415 95.263 L 415 135.677 Z " fill="rgb(149,67,64)"/></g><g id="Roof - Right"><path d=" M 605 141.451 L 605 129.904 L 580 144.338 L 580 155.885 L 605 141.451 Z " fill="rgb(191,83,80)"/><g id="Group"><path d=" M 607.5 168.875 L 607.5 209.289 L 602.5 212.176 L 602.5 171.762 L 607.5 168.875 Z " fill="rgb(191,83,80)"/><path d=" M 637.5 151.554 L 637.5 191.969 L 632.5 194.856 L 632.5 154.441 L 637.5 151.554 Z " fill="rgb(191,83,80)"/><path d=" M 575 228.053 L 580 219.393 L 660 173.205 L 660 144.338 L 580 190.526 L 580 219.393 L 575 228.053 L 575 187.639 L 665 135.677 L 665 176.092 L 575 228.053 Z " fill="rgb(191,83,80)"/></g></g></g></svg>