<?xml version="1.0" standalone="no"?><!-- Generator: Gravit.io --><svg xmlns="http://www.w3.org/2000/svg" xmlns:xlink="http://www.w3.org/1999/xlink" style="isolation:isolate" viewBox="420 -63.509 160 242.519" width="160" height="242.519"><g id="boa-crown"><g id="Group"><path d=" M 440 92.284 L 450 92.284 L 450 98.058 L 440 98.058 L 440 92.284 Z " fill="rgb(191,177,124)"/><path d=" M 440 92.284 L 450 92.284 L 450 98.058 L 440 98.058 L 440 92.284 Z " fill="rgb(191,177,124)"/><path d=" M 440 92.284 L 450 92.284 L 450 98.058 L 440 98.058 L 440 92.284 Z " fill="rgb(191,177,124)"/><path d=" M 550 92.284 L 560 92.284 L 560 98.058 L 550 98.058 L 550 92.284 Z " fill="rgb(191,177,124)"/><path d=" M 425 112.491 L 435 112.491 L 435 118.265 L 425 118.265 L 425 112.491 Z " fill="rgb(191,177,124)"/><path d=" M 565 112.491 L 575 112.491 L 575 118.265 L 565 118.265 L 565 112.491 Z " fill="rgb(191,177,124)"/><path d=" M 580 155.84 L 520 40.37 L 580 121.199 L 580 155.84 Z " fill="rgb(255,242,219)"/><clipPath id="_clipPath_6aPEIdFViAlo3KpwvmYsEgWrBBypuiUi"><path d=" M 580 155.84 L 520 40.37 L 580 121.199 L 580 155.84 Z " fill="rgb(255,242,219)"/></clipPath><g clip-path="url(#_clipPath_6aPEIdFViAlo3KpwvmYsEgWrBBypuiUi)"><g id="Group"><line x1="583.153" y1="5.682" x2="583.153" y2="201.981" vector-effect="non-scaling-stroke" stroke-width="3" stroke="rgb(91,66,63)" stroke-linejoin="miter" stroke-linecap="square" stroke-miterlimit="3"/><line x1="550.108" y1="5.682" x2="550.108" y2="201.981" vector-effect="non-scaling-stroke" stroke-width="3" stroke="rgb(91,66,63)" stroke-linejoin="miter" stroke-linecap="square" stroke-miterlimit="3"/><line x1="521.194" y1="5.682" x2="521.194" y2="201.981" vector-effect="non-scaling-stroke" stroke-width="3" stroke="rgb(91,66,63)" stroke-linejoin="miter" stroke-linecap="square" stroke-miterlimit="3"/><line x1="570.761" y1="5.682" x2="570.761" y2="201.981" vector-effect="non-scaling-stroke" stroke-width="3" stroke="rgb(91,66,63)" stroke-linejoin="miter" stroke-linecap="square" stroke-miterlimit="3"/><line x1="541.847" y1="5.682" x2="541.847" y2="201.981" vector-effect="non-scaling-stroke" stroke-width="3" stroke="rgb(91,66,63)" stroke-linejoin="miter" stroke-linecap="square" stroke-miterlimit="3"/><line x1="574.892" y1="5.682" x2="574.892" y2="201.981" vector-effect="non-scaling-stroke" stroke-width="3" stroke="rgb(91,66,63)" stroke-linejoin="miter" stroke-linecap="square" stroke-miterlimit="3"/><line x1="512.932" y1="5.682" x2="512.932" y2="201.981" vector-effect="non-scaling-stroke" stroke-width="3" stroke="rgb(91,66,63)" stroke-linejoin="miter" stroke-linecap="square" stroke-miterlimit="3"/><line x1="508.802" y1="5.682" x2="508.802" y2="201.981" vector-effect="non-scaling-stroke" stroke-width="3" stroke="rgb(91,66,63)" stroke-linejoin="miter" stroke-linecap="square" stroke-miterlimit="3"/><line x1="566.631" y1="5.682" x2="566.631" y2="201.981" vector-effect="non-scaling-stroke" stroke-width="3" stroke="rgb(91,66,63)" stroke-linejoin="miter" stroke-linecap="square" stroke-miterlimit="3"/><line x1="504.671" y1="5.682" x2="504.671" y2="201.981" vector-effect="non-scaling-stroke" stroke-width="3" stroke="rgb(91,66,63)" stroke-linejoin="miter" stroke-linecap="square" stroke-miterlimit="3"/><line x1="554.239" y1="5.682" x2="554.239" y2="201.981" vector-effect="non-scaling-stroke" stroke-width="3" stroke="rgb(91,66,63)" stroke-linejoin="miter" stroke-linecap="square" stroke-miterlimit="3"/><line x1="620.329" y1="5.682" x2="620.329" y2="201.981" vector-effect="non-scaling-stroke" stroke-width="3" stroke="rgb(91,66,63)" stroke-linejoin="miter" stroke-linecap="square" stroke-miterlimit="3"/><path d=" M 591.415 5.682 L 591.415 57.195 L 591.415 201.981" fill="none" vector-effect="non-scaling-stroke" stroke-width="3" stroke="rgb(91,66,63)" stroke-linejoin="miter" stroke-linecap="square" stroke-miterlimit="3"/><line x1="587.284" y1="5.682" x2="587.284" y2="201.981" vector-effect="non-scaling-stroke" stroke-width="3" stroke="rgb(91,66,63)" stroke-linejoin="miter" stroke-linecap="square" stroke-miterlimit="3"/><line x1="579.023" y1="5.682" x2="579.023" y2="201.981" vector-effect="non-scaling-stroke" stroke-width="3" stroke="rgb(91,66,63)" stroke-linejoin="miter" stroke-linecap="square" stroke-miterlimit="3"/><line x1="533.585" y1="5.682" x2="533.585" y2="201.981" vector-effect="non-scaling-stroke" stroke-width="3" stroke="rgb(91,66,63)" stroke-linejoin="miter" stroke-linecap="square" stroke-miterlimit="3"/><line x1="529.455" y1="5.682" x2="529.455" y2="201.981" vector-effect="non-scaling-stroke" stroke-width="3" stroke="rgb(91,66,63)" stroke-linejoin="miter" stroke-linecap="square" stroke-miterlimit="3"/><line x1="517.063" y1="5.682" x2="517.063" y2="201.981" vector-effect="non-scaling-stroke" stroke-width="3" stroke="rgb(91,66,63)" stroke-linejoin="miter" stroke-linecap="square" stroke-miterlimit="3"/><line x1="525.324" y1="5.682" x2="525.324" y2="201.981" vector-effect="non-scaling-stroke" stroke-width="3" stroke="rgb(91,66,63)" stroke-linejoin="miter" stroke-linecap="square" stroke-miterlimit="3"/><line x1="537.716" y1="5.682" x2="537.716" y2="201.981" vector-effect="non-scaling-stroke" stroke-width="3" stroke="rgb(91,66,63)" stroke-linejoin="miter" stroke-linecap="square" stroke-miterlimit="3"/><line x1="545.977" y1="5.682" x2="545.977" y2="201.981" vector-effect="non-scaling-stroke" stroke-width="3" stroke="rgb(91,66,63)" stroke-linejoin="miter" stroke-linecap="square" stroke-miterlimit="3"/><line x1="558.369" y1="5.682" x2="558.369" y2="201.981" vector-effect="non-scaling-stroke" stroke-width="3" stroke="rgb(91,66,63)" stroke-linejoin="miter" stroke-linecap="square" stroke-miterlimit="3"/><line x1="562.5" y1="5.682" x2="562.5" y2="201.981" vector-effect="non-scaling-stroke" stroke-width="3" stroke="rgb(91,66,63)" stroke-linejoin="miter" stroke-linecap="square" stroke-miterlimit="3"/><line x1="595.545" y1="5.682" x2="595.545" y2="201.981" vector-effect="non-scaling-stroke" stroke-width="3" stroke="rgb(91,66,63)" stroke-linejoin="miter" stroke-linecap="square" stroke-miterlimit="3"/><line x1="599.676" y1="5.682" x2="599.676" y2="201.981" vector-effect="non-scaling-stroke" stroke-width="3" stroke="rgb(91,66,63)" stroke-linejoin="miter" stroke-linecap="square" stroke-miterlimit="3"/><line x1="603.806" y1="5.682" x2="603.806" y2="201.981" vector-effect="non-scaling-stroke" stroke-width="3" stroke="rgb(91,66,63)" stroke-linejoin="miter" stroke-linecap="square" stroke-miterlimit="3"/><line x1="607.937" y1="5.682" x2="607.937" y2="201.981" vector-effect="non-scaling-stroke" stroke-width="3" stroke="rgb(91,66,63)" stroke-linejoin="miter" stroke-linecap="square" stroke-miterlimit="3"/><line x1="612.068" y1="5.682" x2="612.068" y2="201.981" vector-effect="non-scaling-stroke" stroke-width="3" stroke="rgb(91,66,63)" stroke-linejoin="miter" stroke-linecap="square" stroke-miterlimit="3"/><line x1="616.198" y1="5.682" x2="616.198" y2="201.981" vector-effect="non-scaling-stroke" stroke-width="3" stroke="rgb(91,66,63)" stroke-linejoin="miter" stroke-linecap="square" stroke-miterlimit="3"/></g></g><path d=" M 420.5 155.84 L 480.5 40.37 L 420.5 121.199 L 420.5 155.84 Z " fill="rgb(255,242,219)"/><clipPath id="_clipPath_eU3oWDQjQlRNK8B3MyHIV5q3eBZkenLz"><path d=" M 420.5 155.84 L 480.5 40.37 L 420.5 121.199 L 420.5 155.84 Z " fill="rgb(255,242,219)"/></clipPath><g clip-path="url(#_clipPath_eU3oWDQjQlRNK8B3MyHIV5q3eBZkenLz)"><g id="Group"><line x1="417.347" y1="5.682" x2="417.347" y2="201.981" vector-effect="non-scaling-stroke" stroke-width="3" stroke="rgb(91,66,63)" stroke-linejoin="miter" stroke-linecap="square" stroke-miterlimit="3"/><line x1="450.392" y1="5.682" x2="450.392" y2="201.981" vector-effect="non-scaling-stroke" stroke-width="3" stroke="rgb(91,66,63)" stroke-linejoin="miter" stroke-linecap="square" stroke-miterlimit="3"/><line x1="479.306" y1="5.682" x2="479.306" y2="201.981" vector-effect="non-scaling-stroke" stroke-width="3" stroke="rgb(91,66,63)" stroke-linejoin="miter" stroke-linecap="square" stroke-miterlimit="3"/><line x1="429.739" y1="5.682" x2="429.739" y2="201.981" vector-effect="non-scaling-stroke" stroke-width="3" stroke="rgb(91,66,63)" stroke-linejoin="miter" stroke-linecap="square" stroke-miterlimit="3"/><line x1="458.653" y1="5.682" x2="458.653" y2="201.981" vector-effect="non-scaling-stroke" stroke-width="3" stroke="rgb(91,66,63)" stroke-linejoin="miter" stroke-linecap="square" stroke-miterlimit="3"/><line x1="425.608" y1="5.682" x2="425.608" y2="201.981" vector-effect="non-scaling-stroke" stroke-width="3" stroke="rgb(91,66,63)" stroke-linejoin="miter" stroke-linecap="square" stroke-miterlimit="3"/><line x1="487.568" y1="5.682" x2="487.568" y2="201.981" vector-effect="non-scaling-stroke" stroke-width="3" stroke="rgb(91,66,63)" stroke-linejoin="miter" stroke-linecap="square" stroke-miterlimit="3"/><line x1="491.698" y1="5.682" x2="491.698" y2="201.981" vector-effect="non-scaling-stroke" stroke-width="3" stroke="rgb(91,66,63)" stroke-linejoin="miter" stroke-linecap="square" stroke-miterlimit="3"/><line x1="433.869" y1="5.682" x2="433.869" y2="201.981" vector-effect="non-scaling-stroke" stroke-width="3" stroke="rgb(91,66,63)" stroke-linejoin="miter" stroke-linecap="square" stroke-miterlimit="3"/><line x1="495.829" y1="5.682" x2="495.829" y2="201.981" vector-effect="non-scaling-stroke" stroke-width="3" stroke="rgb(91,66,63)" stroke-linejoin="miter" stroke-linecap="square" stroke-miterlimit="3"/><line x1="446.261" y1="5.682" x2="446.261" y2="201.981" vector-effect="non-scaling-stroke" stroke-width="3" stroke="rgb(91,66,63)" stroke-linejoin="miter" stroke-linecap="square" stroke-miterlimit="3"/><line x1="380.171" y1="5.682" x2="380.171" y2="201.981" vector-effect="non-scaling-stroke" stroke-width="3" stroke="rgb(91,66,63)" stroke-linejoin="miter" stroke-linecap="square" stroke-miterlimit="3"/><path d=" M 409.085 5.682 L 409.085 57.195 L 409.085 201.981" fill="none" vector-effect="non-scaling-stroke" stroke-width="3" stroke="rgb(91,66,63)" stroke-linejoin="miter" stroke-linecap="square" stroke-miterlimit="3"/><line x1="413.216" y1="5.682" x2="413.216" y2="201.981" vector-effect="non-scaling-stroke" stroke-width="3" stroke="rgb(91,66,63)" stroke-linejoin="miter" stroke-linecap="square" stroke-miterlimit="3"/><line x1="421.477" y1="5.682" x2="421.477" y2="201.981" vector-effect="non-scaling-stroke" stroke-width="3" stroke="rgb(91,66,63)" stroke-linejoin="miter" stroke-linecap="square" stroke-miterlimit="3"/><line x1="466.915" y1="5.682" x2="466.915" y2="201.981" vector-effect="non-scaling-stroke" stroke-width="3" stroke="rgb(91,66,63)" stroke-linejoin="miter" stroke-linecap="square" stroke-miterlimit="3"/><line x1="471.045" y1="5.682" x2="471.045" y2="201.981" vector-effect="non-scaling-stroke" stroke-width="3" stroke="rgb(91,66,63)" stroke-linejoin="miter" stroke-linecap="square" stroke-miterlimit="3"/><line x1="483.437" y1="5.682" x2="483.437" y2="201.981" vector-effect="non-scaling-stroke" stroke-width="3" stroke="rgb(91,66,63)" stroke-linejoin="miter" stroke-linecap="square" stroke-miterlimit="3"/><line x1="475.176" y1="5.682" x2="475.176" y2="201.981" vector-effect="non-scaling-stroke" stroke-width="3" stroke="rgb(91,66,63)" stroke-linejoin="miter" stroke-linecap="square" stroke-miterlimit="3"/><line x1="462.784" y1="5.682" x2="462.784" y2="201.981" vector-effect="non-scaling-stroke" stroke-width="3" stroke="rgb(91,66,63)" stroke-linejoin="miter" stroke-linecap="square" stroke-miterlimit="3"/><line x1="454.523" y1="5.682" x2="454.523" y2="201.981" vector-effect="non-scaling-stroke" stroke-width="3" stroke="rgb(91,66,63)" stroke-linejoin="miter" stroke-linecap="square" stroke-miterlimit="3"/><line x1="442.131" y1="5.682" x2="442.131" y2="201.981" vector-effect="non-scaling-stroke" stroke-width="3" stroke="rgb(91,66,63)" stroke-linejoin="miter" stroke-linecap="square" stroke-miterlimit="3"/><line x1="438" y1="5.682" x2="438" y2="201.981" vector-effect="non-scaling-stroke" stroke-width="3" stroke="rgb(91,66,63)" stroke-linejoin="miter" stroke-linecap="square" stroke-miterlimit="3"/><line x1="404.955" y1="5.682" x2="404.955" y2="201.981" vector-effect="non-scaling-stroke" stroke-width="3" stroke="rgb(91,66,63)" stroke-linejoin="miter" stroke-linecap="square" stroke-miterlimit="3"/><line x1="400.824" y1="5.682" x2="400.824" y2="201.981" vector-effect="non-scaling-stroke" stroke-width="3" stroke="rgb(91,66,63)" stroke-linejoin="miter" stroke-linecap="square" stroke-miterlimit="3"/><line x1="396.694" y1="5.682" x2="396.694" y2="201.981" vector-effect="non-scaling-stroke" stroke-width="3" stroke="rgb(91,66,63)" stroke-linejoin="miter" stroke-linecap="square" stroke-miterlimit="3"/><line x1="392.563" y1="5.682" x2="392.563" y2="201.981" vector-effect="non-scaling-stroke" stroke-width="3" stroke="rgb(91,66,63)" stroke-linejoin="miter" stroke-linecap="square" stroke-miterlimit="3"/><line x1="388.432" y1="5.682" x2="388.432" y2="201.981" vector-effect="non-scaling-stroke" stroke-width="3" stroke="rgb(91,66,63)" stroke-linejoin="miter" stroke-linecap="square" stroke-miterlimit="3"/><line x1="384.302" y1="5.682" x2="384.302" y2="201.981" vector-effect="non-scaling-stroke" stroke-width="3" stroke="rgb(91,66,63)" stroke-linejoin="miter" stroke-linecap="square" stroke-miterlimit="3"/></g></g><path d=" M 500 17.04 L 520 28.588 L 500 40.135 L 480 28.588 L 500 17.04 Z " fill="rgb(91,66,63)"/><path d=" M 500 155.887 L 520 40.323 L 580 155.887 L 500 155.887 Z " fill="rgb(255,242,219)"/><clipPath id="_clipPath_inrWy2wVMpXJzX0gjaUhcvJXrpcHKX9y"><path d=" M 500 155.887 L 520 40.323 L 580 155.887 L 500 155.887 Z " fill="rgb(255,242,219)"/></clipPath><g clip-path="url(#_clipPath_inrWy2wVMpXJzX0gjaUhcvJXrpcHKX9y)"><g id="Group"><line x1="495" y1="101.551" x2="595" y2="101.551" vector-effect="non-scaling-stroke" stroke-width="3" stroke="rgb(91,66,63)" stroke-linejoin="miter" stroke-linecap="square" stroke-miterlimit="3"/><line x1="495" y1="128.241" x2="595" y2="128.241" vector-effect="non-scaling-stroke" stroke-width="3" stroke="rgb(91,66,63)" stroke-linejoin="miter" stroke-linecap="square" stroke-miterlimit="3"/><line x1="495" y1="168.276" x2="595" y2="168.276" vector-effect="non-scaling-stroke" stroke-width="3" stroke="rgb(91,66,63)" stroke-linejoin="miter" stroke-linecap="square" stroke-miterlimit="3"/><line x1="495" y1="141.586" x2="595" y2="141.586" vector-effect="non-scaling-stroke" stroke-width="3" stroke="rgb(91,66,63)" stroke-linejoin="miter" stroke-linecap="square" stroke-miterlimit="3"/><line x1="495" y1="146.034" x2="595" y2="146.034" vector-effect="non-scaling-stroke" stroke-width="3" stroke="rgb(91,66,63)" stroke-linejoin="miter" stroke-linecap="square" stroke-miterlimit="3"/><line x1="495" y1="150.483" x2="595" y2="150.483" vector-effect="non-scaling-stroke" stroke-width="3" stroke="rgb(91,66,63)" stroke-linejoin="miter" stroke-linecap="square" stroke-miterlimit="3"/><line x1="495" y1="177.173" x2="595" y2="177.173" vector-effect="non-scaling-stroke" stroke-width="3" stroke="rgb(91,66,63)" stroke-linejoin="miter" stroke-linecap="square" stroke-miterlimit="3"/><line x1="495" y1="181.622" x2="595" y2="181.622" vector-effect="non-scaling-stroke" stroke-width="3" stroke="rgb(91,66,63)" stroke-linejoin="miter" stroke-linecap="square" stroke-miterlimit="3"/><line x1="495" y1="110.447" x2="595" y2="110.447" vector-effect="non-scaling-stroke" stroke-width="3" stroke="rgb(91,66,63)" stroke-linejoin="miter" stroke-linecap="square" stroke-miterlimit="3"/><line x1="495" y1="97.102" x2="595" y2="97.102" vector-effect="non-scaling-stroke" stroke-width="3" stroke="rgb(91,66,63)" stroke-linejoin="miter" stroke-linecap="square" stroke-miterlimit="3"/><line x1="495" y1="137.138" x2="595" y2="137.138" vector-effect="non-scaling-stroke" stroke-width="3" stroke="rgb(91,66,63)" stroke-linejoin="miter" stroke-linecap="square" stroke-miterlimit="3"/><line x1="495" y1="88.205" x2="595" y2="88.205" vector-effect="non-scaling-stroke" stroke-width="3" stroke="rgb(91,66,63)" stroke-linejoin="miter" stroke-linecap="square" stroke-miterlimit="3"/><line x1="495" y1="105.999" x2="595" y2="105.999" vector-effect="non-scaling-stroke" stroke-width="3" stroke="rgb(91,66,63)" stroke-linejoin="miter" stroke-linecap="square" stroke-miterlimit="3"/><line x1="495" y1="65.964" x2="595" y2="65.964" vector-effect="non-scaling-stroke" stroke-width="3" stroke="rgb(91,66,63)" stroke-linejoin="miter" stroke-linecap="square" stroke-miterlimit="3"/><line x1="495" y1="119.344" x2="595" y2="119.344" vector-effect="non-scaling-stroke" stroke-width="3" stroke="rgb(91,66,63)" stroke-linejoin="miter" stroke-linecap="square" stroke-miterlimit="3"/><line x1="495" y1="154.931" x2="595" y2="154.931" vector-effect="non-scaling-stroke" stroke-width="3" stroke="rgb(91,66,63)" stroke-linejoin="miter" stroke-linecap="square" stroke-miterlimit="3"/><line x1="495" y1="159.38" x2="595" y2="159.38" vector-effect="non-scaling-stroke" stroke-width="3" stroke="rgb(91,66,63)" stroke-linejoin="miter" stroke-linecap="square" stroke-miterlimit="3"/><line x1="495" y1="172.725" x2="595" y2="172.725" vector-effect="non-scaling-stroke" stroke-width="3" stroke="rgb(91,66,63)" stroke-linejoin="miter" stroke-linecap="square" stroke-miterlimit="3"/><line x1="495" y1="163.828" x2="595" y2="163.828" vector-effect="non-scaling-stroke" stroke-width="3" stroke="rgb(91,66,63)" stroke-linejoin="miter" stroke-linecap="square" stroke-miterlimit="3"/><line x1="495" y1="114.896" x2="595" y2="114.896" vector-effect="non-scaling-stroke" stroke-width="3" stroke="rgb(91,66,63)" stroke-linejoin="miter" stroke-linecap="square" stroke-miterlimit="3"/><line x1="495" y1="123.793" x2="595" y2="123.793" vector-effect="non-scaling-stroke" stroke-width="3" stroke="rgb(91,66,63)" stroke-linejoin="miter" stroke-linecap="square" stroke-miterlimit="3"/><line x1="495" y1="132.689" x2="595" y2="132.689" vector-effect="non-scaling-stroke" stroke-width="3" stroke="rgb(91,66,63)" stroke-linejoin="miter" stroke-linecap="square" stroke-miterlimit="3"/><line x1="495" y1="83.757" x2="595" y2="83.757" vector-effect="non-scaling-stroke" stroke-width="3" stroke="rgb(91,66,63)" stroke-linejoin="miter" stroke-linecap="square" stroke-miterlimit="3"/><line x1="495" y1="79.309" x2="595" y2="79.309" vector-effect="non-scaling-stroke" stroke-width="3" stroke="rgb(91,66,63)" stroke-linejoin="miter" stroke-linecap="square" stroke-miterlimit="3"/><line x1="495" y1="74.86" x2="595" y2="74.86" vector-effect="non-scaling-stroke" stroke-width="3" stroke="rgb(91,66,63)" stroke-linejoin="miter" stroke-linecap="square" stroke-miterlimit="3"/><line x1="495" y1="92.654" x2="595" y2="92.654" vector-effect="non-scaling-stroke" stroke-width="3" stroke="rgb(91,66,63)" stroke-linejoin="miter" stroke-linecap="square" stroke-miterlimit="3"/><line x1="495" y1="70.412" x2="595" y2="70.412" vector-effect="non-scaling-stroke" stroke-width="3" stroke="rgb(91,66,63)" stroke-linejoin="miter" stroke-linecap="square" stroke-miterlimit="3"/></g></g><path d=" M 500 155.887 L 480 40.323 L 420 155.887 L 500 155.887 Z " fill="rgb(255,242,219)"/><clipPath id="_clipPath_MSs8OaudszpvjwHTvMUd6J6FOhfwMkc0"><path d=" M 500 155.887 L 480 40.323 L 420 155.887 L 500 155.887 Z " fill="rgb(255,242,219)"/></clipPath><g clip-path="url(#_clipPath_MSs8OaudszpvjwHTvMUd6J6FOhfwMkc0)"><g id="Group"><line x1="495" y1="98.91" x2="395" y2="98.91" vector-effect="non-scaling-stroke" stroke-width="3" stroke="rgb(91,66,63)" stroke-linejoin="miter" stroke-linecap="square" stroke-miterlimit="3"/><line x1="495" y1="125.6" x2="395" y2="125.6" vector-effect="non-scaling-stroke" stroke-width="3" stroke="rgb(91,66,63)" stroke-linejoin="miter" stroke-linecap="square" stroke-miterlimit="3"/><line x1="495" y1="165.635" x2="395" y2="165.635" vector-effect="non-scaling-stroke" stroke-width="3" stroke="rgb(91,66,63)" stroke-linejoin="miter" stroke-linecap="square" stroke-miterlimit="3"/><line x1="495" y1="138.945" x2="395" y2="138.945" vector-effect="non-scaling-stroke" stroke-width="3" stroke="rgb(91,66,63)" stroke-linejoin="miter" stroke-linecap="square" stroke-miterlimit="3"/><line x1="495" y1="143.393" x2="395" y2="143.393" vector-effect="non-scaling-stroke" stroke-width="3" stroke="rgb(91,66,63)" stroke-linejoin="miter" stroke-linecap="square" stroke-miterlimit="3"/><line x1="495" y1="147.842" x2="395" y2="147.842" vector-effect="non-scaling-stroke" stroke-width="3" stroke="rgb(91,66,63)" stroke-linejoin="miter" stroke-linecap="square" stroke-miterlimit="3"/><line x1="495" y1="174.532" x2="395" y2="174.532" vector-effect="non-scaling-stroke" stroke-width="3" stroke="rgb(91,66,63)" stroke-linejoin="miter" stroke-linecap="square" stroke-miterlimit="3"/><line x1="495" y1="178.981" x2="395" y2="178.981" vector-effect="non-scaling-stroke" stroke-width="3" stroke="rgb(91,66,63)" stroke-linejoin="miter" stroke-linecap="square" stroke-miterlimit="3"/><line x1="495" y1="107.806" x2="395" y2="107.806" vector-effect="non-scaling-stroke" stroke-width="3" stroke="rgb(91,66,63)" stroke-linejoin="miter" stroke-linecap="square" stroke-miterlimit="3"/><line x1="495" y1="94.461" x2="395" y2="94.461" vector-effect="non-scaling-stroke" stroke-width="3" stroke="rgb(91,66,63)" stroke-linejoin="miter" stroke-linecap="square" stroke-miterlimit="3"/><line x1="495" y1="134.497" x2="395" y2="134.497" vector-effect="non-scaling-stroke" stroke-width="3" stroke="rgb(91,66,63)" stroke-linejoin="miter" stroke-linecap="square" stroke-miterlimit="3"/><line x1="495" y1="85.564" x2="395" y2="85.564" vector-effect="non-scaling-stroke" stroke-width="3" stroke="rgb(91,66,63)" stroke-linejoin="miter" stroke-linecap="square" stroke-miterlimit="3"/><line x1="495" y1="103.358" x2="395" y2="103.358" vector-effect="non-scaling-stroke" stroke-width="3" stroke="rgb(91,66,63)" stroke-linejoin="miter" stroke-linecap="square" stroke-miterlimit="3"/><line x1="495" y1="63.323" x2="395" y2="63.323" vector-effect="non-scaling-stroke" stroke-width="3" stroke="rgb(91,66,63)" stroke-linejoin="miter" stroke-linecap="square" stroke-miterlimit="3"/><line x1="495" y1="116.703" x2="395" y2="116.703" vector-effect="non-scaling-stroke" stroke-width="3" stroke="rgb(91,66,63)" stroke-linejoin="miter" stroke-linecap="square" stroke-miterlimit="3"/><line x1="495" y1="152.29" x2="395" y2="152.29" vector-effect="non-scaling-stroke" stroke-width="3" stroke="rgb(91,66,63)" stroke-linejoin="miter" stroke-linecap="square" stroke-miterlimit="3"/><line x1="495" y1="156.739" x2="395" y2="156.739" vector-effect="non-scaling-stroke" stroke-width="3" stroke="rgb(91,66,63)" stroke-linejoin="miter" stroke-linecap="square" stroke-miterlimit="3"/><line x1="495" y1="170.084" x2="395" y2="170.084" vector-effect="non-scaling-stroke" stroke-width="3" stroke="rgb(91,66,63)" stroke-linejoin="miter" stroke-linecap="square" stroke-miterlimit="3"/><line x1="495" y1="161.187" x2="395" y2="161.187" vector-effect="non-scaling-stroke" stroke-width="3" stroke="rgb(91,66,63)" stroke-linejoin="miter" stroke-linecap="square" stroke-miterlimit="3"/><line x1="495" y1="112.255" x2="395" y2="112.255" vector-effect="non-scaling-stroke" stroke-width="3" stroke="rgb(91,66,63)" stroke-linejoin="miter" stroke-linecap="square" stroke-miterlimit="3"/><line x1="495" y1="121.152" x2="395" y2="121.152" vector-effect="non-scaling-stroke" stroke-width="3" stroke="rgb(91,66,63)" stroke-linejoin="miter" stroke-linecap="square" stroke-miterlimit="3"/><line x1="495" y1="130.048" x2="395" y2="130.048" vector-effect="non-scaling-stroke" stroke-width="3" stroke="rgb(91,66,63)" stroke-linejoin="miter" stroke-linecap="square" stroke-miterlimit="3"/><line x1="495" y1="81.116" x2="395" y2="81.116" vector-effect="non-scaling-stroke" stroke-width="3" stroke="rgb(91,66,63)" stroke-linejoin="miter" stroke-linecap="square" stroke-miterlimit="3"/><line x1="495" y1="76.668" x2="395" y2="76.668" vector-effect="non-scaling-stroke" stroke-width="3" stroke="rgb(91,66,63)" stroke-linejoin="miter" stroke-linecap="square" stroke-miterlimit="3"/><line x1="495" y1="72.219" x2="395" y2="72.219" vector-effect="non-scaling-stroke" stroke-width="3" stroke="rgb(91,66,63)" stroke-linejoin="miter" stroke-linecap="square" stroke-miterlimit="3"/><line x1="495" y1="90.013" x2="395" y2="90.013" vector-effect="non-scaling-stroke" stroke-width="3" stroke="rgb(91,66,63)" stroke-linejoin="miter" stroke-linecap="square" stroke-miterlimit="3"/><line x1="495" y1="67.771" x2="395" y2="67.771" vector-effect="non-scaling-stroke" stroke-width="3" stroke="rgb(91,66,63)" stroke-linejoin="miter" stroke-linecap="square" stroke-miterlimit="3"/></g></g><path d=" M 520 28.588 L 560 155.793 L 519.785 179.011 L 500 178.887 L 500 40.135 L 520 28.588 Z " fill="rgb(255,242,219)"/><clipPath id="_clipPath_gsn64ROs4oFpdEAuSyuWKEddOVkFc5kk"><path d=" M 520 28.588 L 560 155.793 L 519.785 179.011 L 500 178.887 L 500 40.135 L 520 28.588 Z " fill="rgb(255,242,219)"/></clipPath><g clip-path="url(#_clipPath_gsn64ROs4oFpdEAuSyuWKEddOVkFc5kk)"><g id="Group"><line x1="572.405" y1="12.211" x2="485.595" y2="61.85" vector-effect="non-scaling-stroke" stroke-width="3" stroke="rgb(91,66,63)" stroke-linejoin="miter" stroke-linecap="square" stroke-miterlimit="3"/><line x1="572.405" y1="145.967" x2="485.595" y2="195.606" vector-effect="non-scaling-stroke" stroke-width="3" stroke="rgb(91,66,63)" stroke-linejoin="miter" stroke-linecap="square" stroke-miterlimit="3"/><line x1="572.405" y1="84.233" x2="485.595" y2="133.872" vector-effect="non-scaling-stroke" stroke-width="3" stroke="rgb(91,66,63)" stroke-linejoin="miter" stroke-linecap="square" stroke-miterlimit="3"/><line x1="572.405" y1="130.533" x2="485.595" y2="180.172" vector-effect="non-scaling-stroke" stroke-width="3" stroke="rgb(91,66,63)" stroke-linejoin="miter" stroke-linecap="square" stroke-miterlimit="3"/><line x1="572.405" y1="125.389" x2="485.595" y2="175.028" vector-effect="non-scaling-stroke" stroke-width="3" stroke="rgb(91,66,63)" stroke-linejoin="miter" stroke-linecap="square" stroke-miterlimit="3"/><line x1="572.405" y1="120.245" x2="485.595" y2="169.883" vector-effect="non-scaling-stroke" stroke-width="3" stroke="rgb(91,66,63)" stroke-linejoin="miter" stroke-linecap="square" stroke-miterlimit="3"/><line x1="572.405" y1="115.1" x2="485.595" y2="164.739" vector-effect="non-scaling-stroke" stroke-width="3" stroke="rgb(91,66,63)" stroke-linejoin="miter" stroke-linecap="square" stroke-miterlimit="3"/><line x1="572.405" y1="109.956" x2="485.595" y2="159.594" vector-effect="non-scaling-stroke" stroke-width="3" stroke="rgb(91,66,63)" stroke-linejoin="miter" stroke-linecap="square" stroke-miterlimit="3"/><line x1="572.405" y1="63.655" x2="485.595" y2="113.294" vector-effect="non-scaling-stroke" stroke-width="3" stroke="rgb(91,66,63)" stroke-linejoin="miter" stroke-linecap="square" stroke-miterlimit="3"/><line x1="572.405" y1="48.222" x2="485.595" y2="97.861" vector-effect="non-scaling-stroke" stroke-width="3" stroke="rgb(91,66,63)" stroke-linejoin="miter" stroke-linecap="square" stroke-miterlimit="3"/><line x1="572.405" y1="94.522" x2="485.595" y2="144.161" vector-effect="non-scaling-stroke" stroke-width="3" stroke="rgb(91,66,63)" stroke-linejoin="miter" stroke-linecap="square" stroke-miterlimit="3"/><path d=" M 572.405 32.789 L 502.961 72.497 L 485.595 82.428" fill="none" vector-effect="non-scaling-stroke" stroke-width="3" stroke="rgb(91,66,63)" stroke-linejoin="miter" stroke-linecap="square" stroke-miterlimit="3"/><line x1="572.405" y1="22.5" x2="485.595" y2="72.139" vector-effect="non-scaling-stroke" stroke-width="3" stroke="rgb(91,66,63)" stroke-linejoin="miter" stroke-linecap="square" stroke-miterlimit="3"/><line x1="572.405" y1="7.066" x2="485.595" y2="56.705" vector-effect="non-scaling-stroke" stroke-width="3" stroke="rgb(91,66,63)" stroke-linejoin="miter" stroke-linecap="square" stroke-miterlimit="3"/><line x1="572.405" y1="17.355" x2="485.595" y2="66.994" vector-effect="non-scaling-stroke" stroke-width="3" stroke="rgb(91,66,63)" stroke-linejoin="miter" stroke-linecap="square" stroke-miterlimit="3"/><line x1="572.405" y1="43.078" x2="485.595" y2="92.716" vector-effect="non-scaling-stroke" stroke-width="3" stroke="rgb(91,66,63)" stroke-linejoin="miter" stroke-linecap="square" stroke-miterlimit="3"/><line x1="572.405" y1="68.8" x2="485.595" y2="118.439" vector-effect="non-scaling-stroke" stroke-width="3" stroke="rgb(91,66,63)" stroke-linejoin="miter" stroke-linecap="square" stroke-miterlimit="3"/><line x1="572.405" y1="135.678" x2="485.595" y2="185.317" vector-effect="non-scaling-stroke" stroke-width="3" stroke="rgb(91,66,63)" stroke-linejoin="miter" stroke-linecap="square" stroke-miterlimit="3"/><line x1="572.405" y1="99.667" x2="485.595" y2="149.305" vector-effect="non-scaling-stroke" stroke-width="3" stroke="rgb(91,66,63)" stroke-linejoin="miter" stroke-linecap="square" stroke-miterlimit="3"/><line x1="572.405" y1="53.367" x2="485.595" y2="103.005" vector-effect="non-scaling-stroke" stroke-width="3" stroke="rgb(91,66,63)" stroke-linejoin="miter" stroke-linecap="square" stroke-miterlimit="3"/><line x1="572.405" y1="104.811" x2="485.595" y2="154.45" vector-effect="non-scaling-stroke" stroke-width="3" stroke="rgb(91,66,63)" stroke-linejoin="miter" stroke-linecap="square" stroke-miterlimit="3"/><line x1="572.405" y1="89.378" x2="485.595" y2="139.017" vector-effect="non-scaling-stroke" stroke-width="3" stroke="rgb(91,66,63)" stroke-linejoin="miter" stroke-linecap="square" stroke-miterlimit="3"/><line x1="572.405" y1="37.933" x2="485.595" y2="87.572" vector-effect="non-scaling-stroke" stroke-width="3" stroke="rgb(91,66,63)" stroke-linejoin="miter" stroke-linecap="square" stroke-miterlimit="3"/><line x1="572.405" y1="58.511" x2="485.595" y2="108.15" vector-effect="non-scaling-stroke" stroke-width="3" stroke="rgb(91,66,63)" stroke-linejoin="miter" stroke-linecap="square" stroke-miterlimit="3"/><line x1="572.405" y1="140.822" x2="485.595" y2="190.461" vector-effect="non-scaling-stroke" stroke-width="3" stroke="rgb(91,66,63)" stroke-linejoin="miter" stroke-linecap="square" stroke-miterlimit="3"/><line x1="572.405" y1="73.944" x2="485.595" y2="123.583" vector-effect="non-scaling-stroke" stroke-width="3" stroke="rgb(91,66,63)" stroke-linejoin="miter" stroke-linecap="square" stroke-miterlimit="3"/><line x1="572.405" y1="79.089" x2="485.595" y2="128.728" vector-effect="non-scaling-stroke" stroke-width="3" stroke="rgb(91,66,63)" stroke-linejoin="miter" stroke-linecap="square" stroke-miterlimit="3"/><line x1="572.405" y1="27.644" x2="485.595" y2="77.283" vector-effect="non-scaling-stroke" stroke-width="3" stroke="rgb(91,66,63)" stroke-linejoin="miter" stroke-linecap="square" stroke-miterlimit="3"/></g></g><path d=" M 480 28.588 L 440 155.793 L 480.215 179.011 L 500 178.887 L 500 40.135 L 480 28.588 Z " fill="rgb(255,242,219)"/><clipPath id="_clipPath_sEkc9YWyJ6ylvZ6Z9LrwqLvIBCnDcZNJ"><path d=" M 480 28.588 L 440 155.793 L 480.215 179.011 L 500 178.887 L 500 40.135 L 480 28.588 Z " fill="rgb(255,242,219)"/></clipPath><g clip-path="url(#_clipPath_sEkc9YWyJ6ylvZ6Z9LrwqLvIBCnDcZNJ)"><g id="Group"><line x1="427.595" y1="12.211" x2="514.405" y2="61.85" vector-effect="non-scaling-stroke" stroke-width="3" stroke="rgb(91,66,63)" stroke-linejoin="miter" stroke-linecap="square" stroke-miterlimit="3"/><line x1="427.595" y1="145.967" x2="514.405" y2="195.606" vector-effect="non-scaling-stroke" stroke-width="3" stroke="rgb(91,66,63)" stroke-linejoin="miter" stroke-linecap="square" stroke-miterlimit="3"/><line x1="427.595" y1="84.233" x2="514.405" y2="133.872" vector-effect="non-scaling-stroke" stroke-width="3" stroke="rgb(91,66,63)" stroke-linejoin="miter" stroke-linecap="square" stroke-miterlimit="3"/><line x1="427.595" y1="130.533" x2="514.405" y2="180.172" vector-effect="non-scaling-stroke" stroke-width="3" stroke="rgb(91,66,63)" stroke-linejoin="miter" stroke-linecap="square" stroke-miterlimit="3"/><line x1="427.595" y1="125.389" x2="514.405" y2="175.028" vector-effect="non-scaling-stroke" stroke-width="3" stroke="rgb(91,66,63)" stroke-linejoin="miter" stroke-linecap="square" stroke-miterlimit="3"/><line x1="427.595" y1="120.245" x2="514.405" y2="169.883" vector-effect="non-scaling-stroke" stroke-width="3" stroke="rgb(91,66,63)" stroke-linejoin="miter" stroke-linecap="square" stroke-miterlimit="3"/><line x1="427.595" y1="115.1" x2="514.405" y2="164.739" vector-effect="non-scaling-stroke" stroke-width="3" stroke="rgb(91,66,63)" stroke-linejoin="miter" stroke-linecap="square" stroke-miterlimit="3"/><line x1="427.595" y1="109.956" x2="514.405" y2="159.594" vector-effect="non-scaling-stroke" stroke-width="3" stroke="rgb(91,66,63)" stroke-linejoin="miter" stroke-linecap="square" stroke-miterlimit="3"/><line x1="427.595" y1="63.655" x2="514.405" y2="113.294" vector-effect="non-scaling-stroke" stroke-width="3" stroke="rgb(91,66,63)" stroke-linejoin="miter" stroke-linecap="square" stroke-miterlimit="3"/><line x1="427.595" y1="48.222" x2="514.405" y2="97.861" vector-effect="non-scaling-stroke" stroke-width="3" stroke="rgb(91,66,63)" stroke-linejoin="miter" stroke-linecap="square" stroke-miterlimit="3"/><line x1="427.595" y1="94.522" x2="514.405" y2="144.161" vector-effect="non-scaling-stroke" stroke-width="3" stroke="rgb(91,66,63)" stroke-linejoin="miter" stroke-linecap="square" stroke-miterlimit="3"/><path d=" M 427.595 32.789 L 497.039 72.497 L 514.405 82.428" fill="none" vector-effect="non-scaling-stroke" stroke-width="3" stroke="rgb(91,66,63)" stroke-linejoin="miter" stroke-linecap="square" stroke-miterlimit="3"/><line x1="427.595" y1="22.5" x2="514.405" y2="72.139" vector-effect="non-scaling-stroke" stroke-width="3" stroke="rgb(91,66,63)" stroke-linejoin="miter" stroke-linecap="square" stroke-miterlimit="3"/><line x1="427.595" y1="7.066" x2="514.405" y2="56.705" vector-effect="non-scaling-stroke" stroke-width="3" stroke="rgb(91,66,63)" stroke-linejoin="miter" stroke-linecap="square" stroke-miterlimit="3"/><line x1="427.595" y1="17.355" x2="514.405" y2="66.994" vector-effect="non-scaling-stroke" stroke-width="3" stroke="rgb(91,66,63)" stroke-linejoin="miter" stroke-linecap="square" stroke-miterlimit="3"/><line x1="427.595" y1="43.078" x2="514.405" y2="92.716" vector-effect="non-scaling-stroke" stroke-width="3" stroke="rgb(91,66,63)" stroke-linejoin="miter" stroke-linecap="square" stroke-miterlimit="3"/><line x1="427.595" y1="68.8" x2="514.405" y2="118.439" vector-effect="non-scaling-stroke" stroke-width="3" stroke="rgb(91,66,63)" stroke-linejoin="miter" stroke-linecap="square" stroke-miterlimit="3"/><line x1="427.595" y1="135.678" x2="514.405" y2="185.317" vector-effect="non-scaling-stroke" stroke-width="3" stroke="rgb(91,66,63)" stroke-linejoin="miter" stroke-linecap="square" stroke-miterlimit="3"/><line x1="427.595" y1="99.667" x2="514.405" y2="149.305" vector-effect="non-scaling-stroke" stroke-width="3" stroke="rgb(91,66,63)" stroke-linejoin="miter" stroke-linecap="square" stroke-miterlimit="3"/><line x1="427.595" y1="53.367" x2="514.405" y2="103.005" vector-effect="non-scaling-stroke" stroke-width="3" stroke="rgb(91,66,63)" stroke-linejoin="miter" stroke-linecap="square" stroke-miterlimit="3"/><line x1="427.595" y1="104.811" x2="514.405" y2="154.45" vector-effect="non-scaling-stroke" stroke-width="3" stroke="rgb(91,66,63)" stroke-linejoin="miter" stroke-linecap="square" stroke-miterlimit="3"/><line x1="427.595" y1="89.378" x2="514.405" y2="139.017" vector-effect="non-scaling-stroke" stroke-width="3" stroke="rgb(91,66,63)" stroke-linejoin="miter" stroke-linecap="square" stroke-miterlimit="3"/><line x1="427.595" y1="37.933" x2="514.405" y2="87.572" vector-effect="non-scaling-stroke" stroke-width="3" stroke="rgb(91,66,63)" stroke-linejoin="miter" stroke-linecap="square" stroke-miterlimit="3"/><line x1="427.595" y1="58.511" x2="514.405" y2="108.15" vector-effect="non-scaling-stroke" stroke-width="3" stroke="rgb(91,66,63)" stroke-linejoin="miter" stroke-linecap="square" stroke-miterlimit="3"/><line x1="427.595" y1="140.822" x2="514.405" y2="190.461" vector-effect="non-scaling-stroke" stroke-width="3" stroke="rgb(91,66,63)" stroke-linejoin="miter" stroke-linecap="square" stroke-miterlimit="3"/><line x1="427.595" y1="73.944" x2="514.405" y2="123.583" vector-effect="non-scaling-stroke" stroke-width="3" stroke="rgb(91,66,63)" stroke-linejoin="miter" stroke-linecap="square" stroke-miterlimit="3"/><line x1="427.595" y1="79.089" x2="514.405" y2="128.728" vector-effect="non-scaling-stroke" stroke-width="3" stroke="rgb(91,66,63)" stroke-linejoin="miter" stroke-linecap="square" stroke-miterlimit="3"/><line x1="427.595" y1="27.644" x2="514.405" y2="77.283" vector-effect="non-scaling-stroke" stroke-width="3" stroke="rgb(91,66,63)" stroke-linejoin="miter" stroke-linecap="square" stroke-miterlimit="3"/></g></g><path d=" M 460 178.981 L 500 63.323 L 540 178.981 L 460 178.981 Z " fill="rgb(185,185,185)"/><path d=" M 460 178.981 L 500 63.323 L 540 178.981 L 460 178.981 Z " fill="rgb(255,242,219)"/><clipPath id="_clipPath_Is4AFHidOUxXbAOOCYE04bFc8puOBaco"><path d=" M 460 178.981 L 500 63.323 L 540 178.981 L 460 178.981 Z " fill="rgb(255,242,219)"/></clipPath><g clip-path="url(#_clipPath_Is4AFHidOUxXbAOOCYE04bFc8puOBaco)"><g id="Group"><line x1="450" y1="85.564" x2="550" y2="85.564" vector-effect="non-scaling-stroke" stroke-width="3" stroke="rgb(91,66,63)" stroke-linejoin="miter" stroke-linecap="square" stroke-miterlimit="3"/><line x1="450" y1="103.358" x2="550" y2="103.358" vector-effect="non-scaling-stroke" stroke-width="3" stroke="rgb(91,66,63)" stroke-linejoin="miter" stroke-linecap="square" stroke-miterlimit="3"/><line x1="450" y1="165.635" x2="550" y2="165.635" vector-effect="non-scaling-stroke" stroke-width="3" stroke="rgb(91,66,63)" stroke-linejoin="miter" stroke-linecap="square" stroke-miterlimit="3"/><path d=" M 450 107.806 L 503.333 107.806 L 550 107.806" fill="none" vector-effect="non-scaling-stroke" stroke-width="3" stroke="rgb(91,66,63)" stroke-linejoin="miter" stroke-linecap="square" stroke-miterlimit="3"/><line x1="450" y1="112.255" x2="550" y2="112.255" vector-effect="non-scaling-stroke" stroke-width="3" stroke="rgb(91,66,63)" stroke-linejoin="miter" stroke-linecap="square" stroke-miterlimit="3"/><line x1="450" y1="138.945" x2="550" y2="138.945" vector-effect="non-scaling-stroke" stroke-width="3" stroke="rgb(91,66,63)" stroke-linejoin="miter" stroke-linecap="square" stroke-miterlimit="3"/><line x1="450" y1="174.532" x2="550" y2="174.532" vector-effect="non-scaling-stroke" stroke-width="3" stroke="rgb(91,66,63)" stroke-linejoin="miter" stroke-linecap="square" stroke-miterlimit="3"/><line x1="450" y1="178.981" x2="550" y2="178.981" vector-effect="non-scaling-stroke" stroke-width="3" stroke="rgb(91,66,63)" stroke-linejoin="miter" stroke-linecap="square" stroke-miterlimit="3"/><line x1="450" y1="143.393" x2="550" y2="143.393" vector-effect="non-scaling-stroke" stroke-width="3" stroke="rgb(91,66,63)" stroke-linejoin="miter" stroke-linecap="square" stroke-miterlimit="3"/><line x1="450" y1="94.461" x2="550" y2="94.461" vector-effect="non-scaling-stroke" stroke-width="3" stroke="rgb(91,66,63)" stroke-linejoin="miter" stroke-linecap="square" stroke-miterlimit="3"/><line x1="450" y1="134.497" x2="550" y2="134.497" vector-effect="non-scaling-stroke" stroke-width="3" stroke="rgb(91,66,63)" stroke-linejoin="miter" stroke-linecap="square" stroke-miterlimit="3"/><line x1="450" y1="72.219" x2="550" y2="72.219" vector-effect="non-scaling-stroke" stroke-width="3" stroke="rgb(91,66,63)" stroke-linejoin="miter" stroke-linecap="square" stroke-miterlimit="3"/><line x1="450" y1="90.013" x2="550" y2="90.013" vector-effect="non-scaling-stroke" stroke-width="3" stroke="rgb(91,66,63)" stroke-linejoin="miter" stroke-linecap="square" stroke-miterlimit="3"/><line x1="450" y1="63.323" x2="550" y2="63.323" vector-effect="non-scaling-stroke" stroke-width="3" stroke="rgb(91,66,63)" stroke-linejoin="miter" stroke-linecap="square" stroke-miterlimit="3"/><line x1="450" y1="116.703" x2="550" y2="116.703" vector-effect="non-scaling-stroke" stroke-width="3" stroke="rgb(91,66,63)" stroke-linejoin="miter" stroke-linecap="square" stroke-miterlimit="3"/><line x1="450" y1="152.29" x2="550" y2="152.29" vector-effect="non-scaling-stroke" stroke-width="3" stroke="rgb(91,66,63)" stroke-linejoin="miter" stroke-linecap="square" stroke-miterlimit="3"/><line x1="450" y1="156.739" x2="550" y2="156.739" vector-effect="non-scaling-stroke" stroke-width="3" stroke="rgb(91,66,63)" stroke-linejoin="miter" stroke-linecap="square" stroke-miterlimit="3"/><line x1="450" y1="170.084" x2="550" y2="170.084" vector-effect="non-scaling-stroke" stroke-width="3" stroke="rgb(91,66,63)" stroke-linejoin="miter" stroke-linecap="square" stroke-miterlimit="3"/><line x1="450" y1="161.187" x2="550" y2="161.187" vector-effect="non-scaling-stroke" stroke-width="3" stroke="rgb(91,66,63)" stroke-linejoin="miter" stroke-linecap="square" stroke-miterlimit="3"/><line x1="450" y1="98.91" x2="550" y2="98.91" vector-effect="non-scaling-stroke" stroke-width="3" stroke="rgb(91,66,63)" stroke-linejoin="miter" stroke-linecap="square" stroke-miterlimit="3"/><line x1="450" y1="125.6" x2="550" y2="125.6" vector-effect="non-scaling-stroke" stroke-width="3" stroke="rgb(91,66,63)" stroke-linejoin="miter" stroke-linecap="square" stroke-miterlimit="3"/><line x1="450" y1="130.048" x2="550" y2="130.048" vector-effect="non-scaling-stroke" stroke-width="3" stroke="rgb(91,66,63)" stroke-linejoin="miter" stroke-linecap="square" stroke-miterlimit="3"/><line x1="450" y1="76.668" x2="550" y2="76.668" vector-effect="non-scaling-stroke" stroke-width="3" stroke="rgb(91,66,63)" stroke-linejoin="miter" stroke-linecap="square" stroke-miterlimit="3"/><line x1="450" y1="147.842" x2="550" y2="147.842" vector-effect="non-scaling-stroke" stroke-width="3" stroke="rgb(91,66,63)" stroke-linejoin="miter" stroke-linecap="square" stroke-miterlimit="3"/><line x1="450" y1="81.116" x2="550" y2="81.116" vector-effect="non-scaling-stroke" stroke-width="3" stroke="rgb(91,66,63)" stroke-linejoin="miter" stroke-linecap="square" stroke-miterlimit="3"/><line x1="450" y1="121.152" x2="550" y2="121.152" vector-effect="non-scaling-stroke" stroke-width="3" stroke="rgb(91,66,63)" stroke-linejoin="miter" stroke-linecap="square" stroke-miterlimit="3"/><line x1="450" y1="67.771" x2="550" y2="67.771" vector-effect="non-scaling-stroke" stroke-width="3" stroke="rgb(91,66,63)" stroke-linejoin="miter" stroke-linecap="square" stroke-miterlimit="3"/></g></g><g id="Group"><g id="Group"><path d=" M 520 28.776 L 560 150.019 L 557.5 151.462 L 517.5 30.219 L 520 28.776 Z " fill="rgb(91,66,63)"/><path d=" M 480 28.776 L 440 152.906 L 442.5 154.349 L 482.5 30.219 L 480 28.776 Z " fill="rgb(91,66,63)"/><path d=" M 465 164.453 L 500 63.417 L 535 164.453 L 535 173.113 L 500 72.077 L 465 173.113 L 465 164.453 Z " fill="rgb(91,66,63)"/><path d=" M 530 66.303 L 530 60.53 L 577.5 148.576 L 575 150.019 L 530 66.303 Z " fill="rgb(91,66,63)"/><path d=" M 470 66.303 L 470 60.53 L 422.5 148.576 L 425 150.019 L 470 66.303 Z " fill="rgb(91,66,63)"/><path d=" M 527.5 50.086 L 577.5 116.821 L 575 118.265 L 525 51.87 L 525 51.87 L 527.5 50.086 Z " fill="rgb(91,66,63)"/><path d=" M 472.5 50.086 L 422.5 116.821 L 425 118.265 L 475 51.87 L 475 51.87 L 472.5 50.086 Z " fill="rgb(91,66,63)"/></g><path d=" M 497.5 38.879 L 500 40.323 L 502.5 38.879 L 502.5 61.973 L 500 63.417 L 497.5 61.973 L 497.5 38.879 Z " fill="rgb(91,66,63)"/></g><rect x="560" y="150.019" width="20" height="5.774" transform="matrix(1,0,0,1,0,0)" fill="rgb(255,228,186)"/><rect x="420" y="150.019" width="20" height="5.868" transform="matrix(1,0,0,1,0,0)" fill="rgb(187,161,119)"/><path d=" M 465 176 L 460 173.113 L 460 161.566 L 465 164.453 L 465 176 Z " fill="rgb(187,161,119)"/><path d=" M 560 150.019 L 540 161.566 L 540 167.34 L 560 155.793 L 560 150.019 Z " fill="rgb(255,228,186)"/><path d=" M 440 150.019 L 460 161.566 L 460 167.34 L 440 155.793 L 440 150.019 Z " fill="rgb(187,161,119)"/><path d=" M 580 150.019 L 580 115.378 L 575 112.491 L 575 152.906 L 580 150.019 Z " fill="rgb(255,228,186)"/><path d=" M 420 150.019 L 420 115.378 L 425 112.491 L 425 152.906 L 420 150.019 Z " fill="rgb(187,161,119)"/><path d=" M 540 178.887 L 540 161.566 L 535 164.453 L 535 176 L 540 178.887 Z " fill="rgb(255,228,186)"/><path d=" M 525 135.585 L 550 121.152 L 550 126.925 L 530 138.472 L 530 150.019 L 525 147.132 L 525 135.585 Z " fill="rgb(255,228,186)"/><path d=" M 550 121.152 L 560 121.152 L 560 126.925 L 550 126.925" fill="rgb(255,228,186)"/><path d=" M 560 121.152 L 560 92.284 L 565 95.171 L 565 127.038 L 560 126.925" fill="rgb(255,228,186)"/><g id="Group"><path d=" M 475 135.585 L 450 121.152 L 450 126.925 L 470 138.472 L 470 150.019 L 475 147.132 L 475 135.585 Z " fill="rgb(187,161,119)"/><path d=" M 450 121.152 L 440 121.152 L 440 126.925 L 450 126.925" fill="rgb(187,161,119)"/><path d=" M 440 121.152 L 440 92.284 L 435 95.171 L 435 127.038 L 440 126.925" fill="rgb(187,161,119)"/></g><rect x="460" y="173.113" width="80" height="5.897" transform="matrix(1,0,0,1,0,0)" fill="rgb(253,217,159)"/><path d=" M 470 144.246 L 470 150.019 L 530 150.019 L 530 144.246 L 470 144.246 Z " fill="rgb(253,217,159)"/><path d=" M 500 63.417 L 527.5 47.2 L 525 43.209 L 500 57.643 L 500 63.417 Z " fill="rgb(255,228,186)"/><path d=" M 475 43.209 L 500 57.643 L 500 63.417 L 472.5 47.2 L 475 43.209 Z " fill="rgb(187,161,119)"/><path d=" M 500 39.983 L 500 45.756 L 522.5 32.766 L 520 28.436 L 500 39.983 Z " fill="rgb(255,228,186)"/><path d=" M 480 28.436 L 500 39.983 L 500 45.756 L 477.5 32.766 L 480 28.436 Z " fill="rgb(187,161,119)"/></g><g id="Group"><path d=" M 500 28.868 L 510 23.094 L 510 5.774 L 505 2.887 L 500 11.547 L 500 28.868 Z " fill="rgb(255,228,186)"/><path d=" M 500 28.868 L 490 23.094 L 490 5.774 L 495 2.887 L 500 11.547 L 500 28.868 Z " fill="rgb(187,161,119)"/><path d=" M 505 2.887 L 495 2.887 L 500 11.547 L 505 2.887 Z " fill="rgb(217,187,139)"/><path d=" M 505 -8.66 L 505 2.887 L 495 2.887 L 495 -8.66 L 500 -17.321 L 505 -8.66 Z " fill="rgb(255,223,172)"/><path d=" M 500 -63.509 L 500 -51.962 L 505 -54.848 L 500 -63.509 Z " fill="rgb(255,228,186)"/><path d=" M 500 -63.509 L 495 -54.848 L 500 -51.962 L 500 -63.509 Z " fill="rgb(253,217,159)"/><path d=" M 505 -8.66 L 505 -54.848 L 500 -51.962 L 500 -17.321 L 505 -8.66 Z " fill="rgb(251,217,162)"/><path d=" M 495 -8.66 L 500 -17.321 L 500 -51.962 L 495 -54.848 L 495 -8.66 Z " fill="rgb(187,161,119)"/></g></g></svg>