<?xml version="1.0" standalone="no"?><!-- Generator: Gravit.io --><svg xmlns="http://www.w3.org/2000/svg" xmlns:xlink="http://www.w3.org/1999/xlink" style="isolation:isolate" viewBox="415 86.635 170 865.993" width="170" height="865.993"><g id="boa-body-alt-1"><path d=" M 460 952.628 L 540 952.628 L 540 178.979 L 460 178.979 L 460 952.628 Z " fill="rgb(191,140,132)"/><path d=" M 560 917.987 L 580 917.987 L 580 155.885 L 560 155.885 L 560 917.987 Z " fill="rgb(210,155,146)"/><path d=" M 540 941.081 L 560 941.081 L 560 167.432 L 540 167.432 L 540 941.081 Z " fill="rgb(210,155,146)"/><path d=" M 440 941.081 L 460 941.081 L 460 167.432 L 440 167.432 L 440 941.081 Z " fill="rgb(159,116,110)"/><path d=" M 420 917.987 L 440 917.987 L 440 155.885 L 420 155.885 L 420 917.987 Z " fill="rgb(159,116,110)"/><path d=" M 460 179.011 L 540 179.011 L 540 167.464 L 560 167.464 L 560 155.917 L 580 155.917 L 580 109.729 L 560 109.729 L 560 98.182 L 540 98.182 L 540 86.635 L 460 86.635 L 460 98.182 L 440 98.182 L 440 109.729 L 420 109.729 L 420 155.917 L 440 155.917 L 440 167.464 L 460 167.464 L 460 179.011 Z " fill="rgb(123,89,85)"/><rect x="420" y="289.692" width="20" height="5.774" transform="matrix(1,0,0,1,0,0)" fill="rgb(123,89,85)"/><rect x="420" y="396.502" width="20" height="5.774" transform="matrix(1,0,0,1,0,0)" fill="rgb(123,89,85)"/><rect x="560" y="396.502" width="20" height="5.774" transform="matrix(1,0,0,1,0,0)" fill="rgb(159,116,110)"/><rect x="440" y="301.239" width="20" height="5.774" transform="matrix(1,0,0,1,0,0)" fill="rgb(123,89,85)"/><rect x="440" y="410.936" width="20" height="5.774" transform="matrix(1,0,0,1,0,0)" fill="rgb(123,89,85)"/><rect x="560" y="289.692" width="20" height="5.774" transform="matrix(1,0,0,1,0,0)" fill="rgb(159,116,110)"/><rect x="540" y="410.936" width="20" height="5.774" transform="matrix(1,0,0,1,0,0)" fill="rgb(159,116,110)"/><rect x="440" y="367.634" width="20" height="5.774" transform="matrix(1,0,0,1,0,0)" fill="rgb(123,89,85)"/><path d=" M 415 396.502 L 425 402.276 L 425 926.647 L 415 920.874 L 415 396.502 Z " fill="rgb(123,89,85)"/><path d=" M 585 396.502 L 575 402.276 L 575 926.647 L 585 920.874 L 585 396.502 Z " fill="rgb(238,179,169)"/><path d=" M 440 416.709 L 450 422.483 L 450 946.854 L 440 941.081 L 440 416.709 Z " fill="rgb(123,89,85)"/><path d=" M 540 416.709 L 550 422.483 L 550 946.854 L 540 941.081 L 540 416.709 Z " fill="rgb(159,116,110)"/><path d=" M 460 416.709 L 450 422.483 L 450 946.854 L 460 941.081 L 460 416.709 Z " fill="rgb(210,155,146)"/><path d=" M 560 416.709 L 550 422.483 L 550 946.854 L 560 941.081 L 560 416.709 Z " fill="rgb(238,179,169)"/><path d=" M 550 946.854 L 585 926.647 L 585 897.78 L 550 917.987 L 550 946.854 Z " fill="rgb(210,155,146)"/><path d=" M 450 946.854 L 415 926.647 L 415 897.78 L 450 917.987 L 450 946.854 Z " fill="rgb(191,140,132)"/><path d=" M 580 387.842 L 585 390.729 L 585 396.502 L 580 399.389 L 580 387.842 Z " fill="rgb(123,89,85)"/><path d=" M 420 387.842 L 415 390.729 L 415 396.502 L 420 399.389 L 420 387.842 Z " fill="rgb(91,66,63)"/><rect x="540" y="301.239" width="20" height="5.774" transform="matrix(1,0,0,1,0,0)" fill="rgb(159,116,110)"/><rect x="420" y="220.692" width="20" height="5.774" transform="matrix(1,0,0,1,0,0)" fill="rgb(123,89,85)"/><rect x="440" y="235.239" width="20" height="5.774" transform="matrix(1,0,0,1,0,0)" fill="rgb(123,89,85)"/><rect x="560" y="220.692" width="20" height="5.774" transform="matrix(1,0,0,1,0,0)" fill="rgb(159,116,110)"/><rect x="540" y="235.239" width="20" height="5.774" transform="matrix(1,0,0,1,0,0)" fill="rgb(159,116,110)"/><path d=" M 546.847 181.113 L 546.847 189.448 L 546.847 230.187" fill="none" vector-effect="non-scaling-stroke" stroke-width="3" stroke="rgb(91,66,63)" stroke-linejoin="miter" stroke-linecap="square" stroke-miterlimit="3"/><path d=" M 554.125 181.113 L 554.125 189.948 L 554.125 230.187" fill="none" vector-effect="non-scaling-stroke" stroke-width="3" stroke="rgb(91,66,63)" stroke-linejoin="miter" stroke-linecap="square" stroke-miterlimit="3"/><path d=" M 566.375 162.957 L 573.875 162.957 L 573.875 168.731 L 566.375 168.731 L 566.375 162.957 Z " fill="rgb(91,66,63)"/><path d=" M 566.375 186.051 L 573.875 186.051 L 573.875 191.825 L 566.375 191.825 L 566.375 186.051 Z " fill="rgb(91,66,63)"/><path d=" M 566.375 174.504 L 573.875 174.504 L 573.875 180.278 L 566.375 180.278 L 566.375 174.504 Z " fill="rgb(91,66,63)"/><path d=" M 566.375 197.598 L 573.875 197.598 L 573.875 203.372 L 566.375 203.372 L 566.375 197.598 Z " fill="rgb(91,66,63)"/><path d=" M 566.375 209.145 L 573.875 209.145 L 573.875 214.919 L 566.375 214.919 L 566.375 209.145 Z " fill="rgb(91,66,63)"/><path d=" M 453.583 181.113 L 453.583 189.448 L 453.583 230.187" fill="none" vector-effect="non-scaling-stroke" stroke-width="3" stroke="rgb(28,20,19)" stroke-linejoin="miter" stroke-linecap="square" stroke-miterlimit="3"/><path d=" M 446.306 181.113 L 446.306 189.948 L 446.306 230.187" fill="none" vector-effect="non-scaling-stroke" stroke-width="3" stroke="rgb(28,20,19)" stroke-linejoin="miter" stroke-linecap="square" stroke-miterlimit="3"/><path d=" M 426.375 162.957 L 433.875 162.957 L 433.875 168.731 L 426.375 168.731 L 426.375 162.957 Z " fill="rgb(28,20,19)"/><path d=" M 426.375 186.051 L 433.875 186.051 L 433.875 191.825 L 426.375 191.825 L 426.375 186.051 Z " fill="rgb(28,20,19)"/><path d=" M 426.375 174.504 L 433.875 174.504 L 433.875 180.278 L 426.375 180.278 L 426.375 174.504 Z " fill="rgb(28,20,19)"/><path d=" M 426.375 197.598 L 433.875 197.598 L 433.875 203.372 L 426.375 203.372 L 426.375 197.598 Z " fill="rgb(28,20,19)"/><path d=" M 426.375 209.145 L 433.875 209.145 L 433.875 214.919 L 426.375 214.919 L 426.375 209.145 Z " fill="rgb(28,20,19)"/><rect x="540" y="367.634" width="20" height="5.774" transform="matrix(1,0,0,1,0,0)" fill="rgb(159,116,110)"/><g id="Group"><g id="body-windows-color-2"><path d=" M 467.375 185.66 L 467.375 262.448 L 467.375 946.576" fill="none" vector-effect="non-scaling-stroke" stroke-width="3" stroke="rgb(59,43,41)" stroke-linejoin="miter" stroke-linecap="square" stroke-miterlimit="3"/><line x1="496.486" y1="185.66" x2="496.486" y2="946.576" vector-effect="non-scaling-stroke" stroke-width="3" stroke="rgb(59,43,41)" stroke-linejoin="miter" stroke-linecap="square" stroke-miterlimit="3"/><line x1="481.931" y1="185.66" x2="481.931" y2="946.576" vector-effect="non-scaling-stroke" stroke-width="3" stroke="rgb(59,43,41)" stroke-linejoin="miter" stroke-linecap="square" stroke-miterlimit="3"/><line x1="511.042" y1="185.66" x2="511.042" y2="946.576" vector-effect="non-scaling-stroke" stroke-width="3" stroke="rgb(59,43,41)" stroke-linejoin="miter" stroke-linecap="square" stroke-miterlimit="3"/><line x1="474.653" y1="185.66" x2="474.653" y2="946.576" vector-effect="non-scaling-stroke" stroke-width="3" stroke="rgb(59,43,41)" stroke-linejoin="miter" stroke-linecap="square" stroke-miterlimit="3"/><line x1="503.764" y1="185.66" x2="503.764" y2="946.576" vector-effect="non-scaling-stroke" stroke-width="3" stroke="rgb(59,43,41)" stroke-linejoin="miter" stroke-linecap="square" stroke-miterlimit="3"/><line x1="489.208" y1="185.66" x2="489.208" y2="946.576" vector-effect="non-scaling-stroke" stroke-width="3" stroke="rgb(59,43,41)" stroke-linejoin="miter" stroke-linecap="square" stroke-miterlimit="3"/><line x1="518.319" y1="185.66" x2="518.319" y2="946.576" vector-effect="non-scaling-stroke" stroke-width="3" stroke="rgb(59,43,41)" stroke-linejoin="miter" stroke-linecap="square" stroke-miterlimit="3"/><line x1="525.597" y1="185.66" x2="525.597" y2="946.576" vector-effect="non-scaling-stroke" stroke-width="3" stroke="rgb(59,43,41)" stroke-linejoin="miter" stroke-linecap="square" stroke-miterlimit="3"/><line x1="532.875" y1="185.66" x2="532.875" y2="946.576" vector-effect="non-scaling-stroke" stroke-width="3" stroke="rgb(59,43,41)" stroke-linejoin="miter" stroke-linecap="square" stroke-miterlimit="3"/></g><g id="body-windows-color-1"><path d=" M 546.847 247.113 L 546.847 255.448 L 546.847 296.187" fill="none" vector-effect="non-scaling-stroke" stroke-width="3" stroke="rgb(91,66,63)" stroke-linejoin="miter" stroke-linecap="square" stroke-miterlimit="3"/><path d=" M 554.125 247.113 L 554.125 255.948 L 554.125 296.187" fill="none" vector-effect="non-scaling-stroke" stroke-width="3" stroke="rgb(91,66,63)" stroke-linejoin="miter" stroke-linecap="square" stroke-miterlimit="3"/><path d=" M 546.847 313.065 L 546.847 321.4 L 546.847 362.139" fill="none" vector-effect="non-scaling-stroke" stroke-width="3" stroke="rgb(91,66,63)" stroke-linejoin="miter" stroke-linecap="square" stroke-miterlimit="3"/><path d=" M 554.125 313.065 L 554.125 321.9 L 554.125 362.139" fill="none" vector-effect="non-scaling-stroke" stroke-width="3" stroke="rgb(91,66,63)" stroke-linejoin="miter" stroke-linecap="square" stroke-miterlimit="3"/><path d=" M 546.847 378.903 L 546.847 383.806 L 546.847 407.771" fill="none" vector-effect="non-scaling-stroke" stroke-width="3" stroke="rgb(91,66,63)" stroke-linejoin="miter" stroke-linecap="square" stroke-miterlimit="3"/><path d=" M 554.125 378.903 L 554.125 384.101 L 554.125 407.771" fill="none" vector-effect="non-scaling-stroke" stroke-width="3" stroke="rgb(91,66,63)" stroke-linejoin="miter" stroke-linecap="square" stroke-miterlimit="3"/><path d=" M 566.375 231.957 L 573.875 231.957 L 573.875 237.731 L 566.375 237.731 L 566.375 231.957 Z " fill="rgb(91,66,63)"/><path d=" M 566.375 255.051 L 573.875 255.051 L 573.875 260.825 L 566.375 260.825 L 566.375 255.051 Z " fill="rgb(91,66,63)"/><path d=" M 566.375 243.504 L 573.875 243.504 L 573.875 249.278 L 566.375 249.278 L 566.375 243.504 Z " fill="rgb(91,66,63)"/><path d=" M 566.375 266.598 L 573.875 266.598 L 573.875 272.372 L 566.375 272.372 L 566.375 266.598 Z " fill="rgb(91,66,63)"/><path d=" M 566.375 278.145 L 573.875 278.145 L 573.875 283.919 L 566.375 283.919 L 566.375 278.145 Z " fill="rgb(91,66,63)"/><path d=" M 565.125 562.638 L 570.125 562.638 L 570.125 567.449 L 565.125 567.449 L 565.125 562.638 Z " fill="rgb(91,66,63)"/><path d=" M 565.125 572.261 L 570.125 572.261 L 570.125 577.072 L 565.125 577.072 L 565.125 572.261 Z " fill="rgb(91,66,63)"/><path d=" M 565.125 562.638 L 570.125 562.638 L 570.125 567.449 L 565.125 567.449 L 565.125 562.638 Z " fill="rgb(91,66,63)"/><path d=" M 565.125 418.282 L 570.125 418.282 L 570.125 423.093 L 565.125 423.093 L 565.125 418.282 Z " fill="rgb(91,66,63)"/><path d=" M 565.125 408.659 L 570.125 408.659 L 570.125 413.47 L 565.125 413.47 L 565.125 408.659 Z " fill="rgb(91,66,63)"/><path d=" M 565.125 581.883 L 570.125 581.883 L 570.125 586.694 L 565.125 586.694 L 565.125 581.883 Z " fill="rgb(91,66,63)"/><path d=" M 565.125 437.527 L 570.125 437.527 L 570.125 442.338 L 565.125 442.338 L 565.125 437.527 Z " fill="rgb(91,66,63)"/><path d=" M 565.125 572.261 L 570.125 572.261 L 570.125 577.072 L 565.125 577.072 L 565.125 572.261 Z " fill="rgb(91,66,63)"/><path d=" M 565.125 427.904 L 570.125 427.904 L 570.125 432.715 L 565.125 432.715 L 565.125 427.904 Z " fill="rgb(91,66,63)"/><path d=" M 565.125 591.506 L 570.125 591.506 L 570.125 596.317 L 565.125 596.317 L 565.125 591.506 Z " fill="rgb(91,66,63)"/><path d=" M 565.125 447.149 L 570.125 447.149 L 570.125 451.96 L 565.125 451.96 L 565.125 447.149 Z " fill="rgb(91,66,63)"/><path d=" M 565.125 601.128 L 570.125 601.128 L 570.125 605.939 L 565.125 605.939 L 565.125 601.128 Z " fill="rgb(91,66,63)"/><path d=" M 565.125 668.505 L 570.125 668.505 L 570.125 673.316 L 565.125 673.316 L 565.125 668.505 Z " fill="rgb(91,66,63)"/><path d=" M 565.125 687.75 L 570.125 687.75 L 570.125 692.561 L 565.125 692.561 L 565.125 687.75 Z " fill="rgb(91,66,63)"/><path d=" M 565.125 543.393 L 570.125 543.393 L 570.125 548.204 L 565.125 548.204 L 565.125 543.393 Z " fill="rgb(91,66,63)"/><path d=" M 565.125 678.127 L 570.125 678.127 L 570.125 682.938 L 565.125 682.938 L 565.125 678.127 Z " fill="rgb(91,66,63)"/><path d=" M 565.125 533.771 L 570.125 533.771 L 570.125 538.582 L 565.125 538.582 L 565.125 533.771 Z " fill="rgb(91,66,63)"/><path d=" M 565.125 697.372 L 570.125 697.372 L 570.125 702.183 L 565.125 702.183 L 565.125 697.372 Z " fill="rgb(91,66,63)"/><path d=" M 565.125 706.995 L 570.125 706.995 L 570.125 711.806 L 565.125 711.806 L 565.125 706.995 Z " fill="rgb(91,66,63)"/><path d=" M 565.125 697.372 L 570.125 697.372 L 570.125 702.183 L 565.125 702.183 L 565.125 697.372 Z " fill="rgb(91,66,63)"/><path d=" M 565.125 553.016 L 570.125 553.016 L 570.125 557.827 L 565.125 557.827 L 565.125 553.016 Z " fill="rgb(91,66,63)"/><path d=" M 565.125 716.617 L 570.125 716.617 L 570.125 721.428 L 565.125 721.428 L 565.125 716.617 Z " fill="rgb(91,66,63)"/><path d=" M 565.125 706.995 L 570.125 706.995 L 570.125 711.806 L 565.125 711.806 L 565.125 706.995 Z " fill="rgb(91,66,63)"/><path d=" M 565.125 726.24 L 570.125 726.24 L 570.125 731.051 L 565.125 731.051 L 565.125 726.24 Z " fill="rgb(91,66,63)"/><path d=" M 565.125 735.862 L 570.125 735.862 L 570.125 740.673 L 565.125 740.673 L 565.125 735.862 Z " fill="rgb(91,66,63)"/><path d=" M 565.125 601.166 L 570.125 601.166 L 570.125 605.977 L 565.125 605.977 L 565.125 601.166 Z " fill="rgb(91,66,63)"/><path d=" M 565.125 456.81 L 570.125 456.81 L 570.125 461.621 L 565.125 461.621 L 565.125 456.81 Z " fill="rgb(91,66,63)"/><path d=" M 565.125 620.411 L 570.125 620.411 L 570.125 625.222 L 565.125 625.222 L 565.125 620.411 Z " fill="rgb(91,66,63)"/><path d=" M 565.125 476.055 L 570.125 476.055 L 570.125 480.866 L 565.125 480.866 L 565.125 476.055 Z " fill="rgb(91,66,63)"/><path d=" M 565.125 610.788 L 570.125 610.788 L 570.125 615.6 L 565.125 615.6 L 565.125 610.788 Z " fill="rgb(91,66,63)"/><path d=" M 565.125 466.432 L 570.125 466.432 L 570.125 471.243 L 565.125 471.243 L 565.125 466.432 Z " fill="rgb(91,66,63)"/><path d=" M 565.125 630.033 L 570.125 630.033 L 570.125 634.845 L 565.125 634.845 L 565.125 630.033 Z " fill="rgb(91,66,63)"/><path d=" M 565.125 639.656 L 570.125 639.656 L 570.125 644.467 L 565.125 644.467 L 565.125 639.656 Z " fill="rgb(91,66,63)"/><path d=" M 565.125 630.033 L 570.125 630.033 L 570.125 634.845 L 565.125 634.845 L 565.125 630.033 Z " fill="rgb(91,66,63)"/><path d=" M 565.125 485.677 L 570.125 485.677 L 570.125 490.488 L 565.125 490.488 L 565.125 485.677 Z " fill="rgb(91,66,63)"/><path d=" M 565.125 649.278 L 570.125 649.278 L 570.125 654.09 L 565.125 654.09 L 565.125 649.278 Z " fill="rgb(91,66,63)"/><path d=" M 565.125 504.922 L 570.125 504.922 L 570.125 509.733 L 565.125 509.733 L 565.125 504.922 Z " fill="rgb(91,66,63)"/><path d=" M 565.125 639.656 L 570.125 639.656 L 570.125 644.467 L 565.125 644.467 L 565.125 639.656 Z " fill="rgb(91,66,63)"/><path d=" M 565.125 495.3 L 570.125 495.3 L 570.125 500.111 L 565.125 500.111 L 565.125 495.3 Z " fill="rgb(91,66,63)"/><path d=" M 565.125 658.901 L 570.125 658.901 L 570.125 663.712 L 565.125 663.712 L 565.125 658.901 Z " fill="rgb(91,66,63)"/><path d=" M 565.125 514.545 L 570.125 514.545 L 570.125 519.356 L 565.125 519.356 L 565.125 514.545 Z " fill="rgb(91,66,63)"/><path d=" M 565.125 668.523 L 570.125 668.523 L 570.125 673.335 L 565.125 673.335 L 565.125 668.523 Z " fill="rgb(91,66,63)"/><path d=" M 565.125 524.167 L 570.125 524.167 L 570.125 528.978 L 565.125 528.978 L 565.125 524.167 Z " fill="rgb(91,66,63)"/><path d=" M 565.125 735.9 L 570.125 735.9 L 570.125 740.711 L 565.125 740.711 L 565.125 735.9 Z " fill="rgb(91,66,63)"/><path d=" M 565.125 755.145 L 570.125 755.145 L 570.125 759.956 L 565.125 759.956 L 565.125 755.145 Z " fill="rgb(91,66,63)"/><path d=" M 565.125 745.522 L 570.125 745.522 L 570.125 750.334 L 565.125 750.334 L 565.125 745.522 Z " fill="rgb(91,66,63)"/><path d=" M 565.125 764.767 L 570.125 764.767 L 570.125 769.579 L 565.125 769.579 L 565.125 764.767 Z " fill="rgb(91,66,63)"/><path d=" M 565.125 774.39 L 570.125 774.39 L 570.125 779.201 L 565.125 779.201 L 565.125 774.39 Z " fill="rgb(91,66,63)"/><path d=" M 565.125 764.767 L 570.125 764.767 L 570.125 769.579 L 565.125 769.579 L 565.125 764.767 Z " fill="rgb(91,66,63)"/><path d=" M 565.125 784.012 L 570.125 784.012 L 570.125 788.824 L 565.125 788.824 L 565.125 784.012 Z " fill="rgb(91,66,63)"/><path d=" M 565.125 774.39 L 570.125 774.39 L 570.125 779.201 L 565.125 779.201 L 565.125 774.39 Z " fill="rgb(91,66,63)"/><path d=" M 565.125 793.635 L 570.125 793.635 L 570.125 798.446 L 565.125 798.446 L 565.125 793.635 Z " fill="rgb(91,66,63)"/><path d=" M 565.125 803.257 L 570.125 803.257 L 570.125 808.069 L 565.125 808.069 L 565.125 803.257 Z " fill="rgb(91,66,63)"/><path d=" M 565.125 803.239 L 570.125 803.239 L 570.125 808.05 L 565.125 808.05 L 565.125 803.239 Z " fill="rgb(91,66,63)"/><path d=" M 565.125 822.484 L 570.125 822.484 L 570.125 827.295 L 565.125 827.295 L 565.125 822.484 Z " fill="rgb(91,66,63)"/><path d=" M 565.125 812.861 L 570.125 812.861 L 570.125 817.672 L 565.125 817.672 L 565.125 812.861 Z " fill="rgb(91,66,63)"/><path d=" M 565.125 832.106 L 570.125 832.106 L 570.125 836.917 L 565.125 836.917 L 565.125 832.106 Z " fill="rgb(91,66,63)"/><path d=" M 565.125 841.729 L 570.125 841.729 L 570.125 846.54 L 565.125 846.54 L 565.125 841.729 Z " fill="rgb(91,66,63)"/><path d=" M 565.125 832.106 L 570.125 832.106 L 570.125 836.917 L 565.125 836.917 L 565.125 832.106 Z " fill="rgb(91,66,63)"/><path d=" M 565.125 851.351 L 570.125 851.351 L 570.125 856.162 L 565.125 856.162 L 565.125 851.351 Z " fill="rgb(91,66,63)"/><path d=" M 565.125 841.729 L 570.125 841.729 L 570.125 846.54 L 565.125 846.54 L 565.125 841.729 Z " fill="rgb(91,66,63)"/><path d=" M 565.125 860.974 L 570.125 860.974 L 570.125 865.785 L 565.125 865.785 L 565.125 860.974 Z " fill="rgb(91,66,63)"/><path d=" M 565.125 870.596 L 570.125 870.596 L 570.125 875.407 L 565.125 875.407 L 565.125 870.596 Z " fill="rgb(91,66,63)"/><path d=" M 565.125 870.596 L 570.125 870.596 L 570.125 875.407 L 565.125 875.407 L 565.125 870.596 Z " fill="rgb(91,66,63)"/><path d=" M 565.125 889.841 L 570.125 889.841 L 570.125 894.652 L 565.125 894.652 L 565.125 889.841 Z " fill="rgb(91,66,63)"/><path d=" M 565.125 880.219 L 570.125 880.219 L 570.125 885.03 L 565.125 885.03 L 565.125 880.219 Z " fill="rgb(91,66,63)"/><path d=" M 565.125 899.464 L 570.125 899.464 L 570.125 904.275 L 565.125 904.275 L 565.125 899.464 Z " fill="rgb(91,66,63)"/><path d=" M 565.125 899.464 L 570.125 899.464 L 570.125 904.275 L 565.125 904.275 L 565.125 899.464 Z " fill="rgb(91,66,63)"/><path d=" M 566.375 301.961 L 573.875 301.961 L 573.875 307.734 L 566.375 307.734 L 566.375 301.961 Z " fill="rgb(91,66,63)"/><path d=" M 566.375 325.055 L 573.875 325.055 L 573.875 330.828 L 566.375 330.828 L 566.375 325.055 Z " fill="rgb(91,66,63)"/><path d=" M 566.375 313.508 L 573.875 313.508 L 573.875 319.281 L 566.375 319.281 L 566.375 313.508 Z " fill="rgb(91,66,63)"/><path d=" M 566.375 336.602 L 573.875 336.602 L 573.875 342.375 L 566.375 342.375 L 566.375 336.602 Z " fill="rgb(91,66,63)"/><path d=" M 566.375 359.696 L 573.875 359.696 L 573.875 365.469 L 566.375 365.469 L 566.375 359.696 Z " fill="rgb(91,66,63)"/><path d=" M 566.375 348.149 L 573.875 348.149 L 573.875 353.922 L 566.375 353.922 L 566.375 348.149 Z " fill="rgb(91,66,63)"/><path d=" M 566.375 371.243 L 573.875 371.243 L 573.875 377.016 L 566.375 377.016 L 566.375 371.243 Z " fill="rgb(91,66,63)"/><path d=" M 566.375 382.79 L 573.875 382.79 L 573.875 388.563 L 566.375 388.563 L 566.375 382.79 Z " fill="rgb(91,66,63)"/><path d=" M 556.375 423.926 L 553.875 425.369 L 553.875 912.448 L 556.375 910.77 L 556.375 423.926 Z " fill="rgb(91,66,63)"/><path d=" M 581.375 403.719 L 578.875 405.162 L 578.875 897.78 L 581.375 896.336 L 581.375 403.719 Z " fill="rgb(91,66,63)"/></g><path d=" M 456.375 423.926 L 453.875 425.369 L 453.875 912.448 L 456.375 910.77 L 456.375 423.926 Z " fill="rgb(91,66,63)"/><path d=" M 543.875 423.926 L 546.375 425.369 L 546.375 912.448 L 543.875 910.77 L 543.875 423.926 Z " fill="rgb(59,43,41)"/><g id="body-windows-color-3"><path d=" M 453.583 247.113 L 453.583 255.448 L 453.583 296.187" fill="none" vector-effect="non-scaling-stroke" stroke-width="3" stroke="rgb(28,20,19)" stroke-linejoin="miter" stroke-linecap="square" stroke-miterlimit="3"/><path d=" M 446.306 247.113 L 446.306 255.948 L 446.306 296.187" fill="none" vector-effect="non-scaling-stroke" stroke-width="3" stroke="rgb(28,20,19)" stroke-linejoin="miter" stroke-linecap="square" stroke-miterlimit="3"/><path d=" M 453.583 313.065 L 453.583 321.4 L 453.583 362.139" fill="none" vector-effect="non-scaling-stroke" stroke-width="3" stroke="rgb(28,20,19)" stroke-linejoin="miter" stroke-linecap="square" stroke-miterlimit="3"/><path d=" M 446.306 313.065 L 446.306 321.9 L 446.306 362.139" fill="none" vector-effect="non-scaling-stroke" stroke-width="3" stroke="rgb(28,20,19)" stroke-linejoin="miter" stroke-linecap="square" stroke-miterlimit="3"/><path d=" M 453.583 378.903 L 453.583 383.806 L 453.583 407.771" fill="none" vector-effect="non-scaling-stroke" stroke-width="3" stroke="rgb(28,20,19)" stroke-linejoin="miter" stroke-linecap="square" stroke-miterlimit="3"/><path d=" M 446.306 378.903 L 446.306 384.101 L 446.306 407.771" fill="none" vector-effect="non-scaling-stroke" stroke-width="3" stroke="rgb(28,20,19)" stroke-linejoin="miter" stroke-linecap="square" stroke-miterlimit="3"/><path d=" M 426.375 231.957 L 433.875 231.957 L 433.875 237.731 L 426.375 237.731 L 426.375 231.957 Z " fill="rgb(28,20,19)"/><path d=" M 426.375 255.051 L 433.875 255.051 L 433.875 260.825 L 426.375 260.825 L 426.375 255.051 Z " fill="rgb(28,20,19)"/><path d=" M 426.375 243.504 L 433.875 243.504 L 433.875 249.278 L 426.375 249.278 L 426.375 243.504 Z " fill="rgb(28,20,19)"/><path d=" M 426.375 266.598 L 433.875 266.598 L 433.875 272.372 L 426.375 272.372 L 426.375 266.598 Z " fill="rgb(28,20,19)"/><path d=" M 426.375 278.145 L 433.875 278.145 L 433.875 283.919 L 426.375 283.919 L 426.375 278.145 Z " fill="rgb(28,20,19)"/><path d=" M 426.375 301.961 L 433.875 301.961 L 433.875 307.734 L 426.375 307.734 L 426.375 301.961 Z " fill="rgb(28,20,19)"/><path d=" M 426.375 325.055 L 433.875 325.055 L 433.875 330.828 L 426.375 330.828 L 426.375 325.055 Z " fill="rgb(28,20,19)"/><path d=" M 426.375 313.508 L 433.875 313.508 L 433.875 319.281 L 426.375 319.281 L 426.375 313.508 Z " fill="rgb(28,20,19)"/><path d=" M 426.375 336.602 L 433.875 336.602 L 433.875 342.375 L 426.375 342.375 L 426.375 336.602 Z " fill="rgb(28,20,19)"/><path d=" M 426.375 348.149 L 433.875 348.149 L 433.875 353.922 L 426.375 353.922 L 426.375 348.149 Z " fill="rgb(28,20,19)"/><path d=" M 426.375 336.602 L 433.875 336.602 L 433.875 342.375 L 426.375 342.375 L 426.375 336.602 Z " fill="rgb(28,20,19)"/><path d=" M 426.375 359.696 L 433.875 359.696 L 433.875 365.469 L 426.375 365.469 L 426.375 359.696 Z " fill="rgb(28,20,19)"/><path d=" M 426.375 348.149 L 433.875 348.149 L 433.875 353.922 L 426.375 353.922 L 426.375 348.149 Z " fill="rgb(28,20,19)"/><path d=" M 426.375 371.243 L 433.875 371.243 L 433.875 377.016 L 426.375 377.016 L 426.375 371.243 Z " fill="rgb(28,20,19)"/><path d=" M 426.375 382.79 L 433.875 382.79 L 433.875 388.563 L 426.375 388.563 L 426.375 382.79 Z " fill="rgb(28,20,19)"/><path d=" M 430.125 562.638 L 435.125 562.638 L 435.125 567.449 L 430.125 567.449 L 430.125 562.638 Z " fill="rgb(28,20,19)"/><path d=" M 430.125 572.261 L 435.125 572.261 L 435.125 577.072 L 430.125 577.072 L 430.125 572.261 Z " fill="rgb(28,20,19)"/><path d=" M 430.125 562.638 L 435.125 562.638 L 435.125 567.449 L 430.125 567.449 L 430.125 562.638 Z " fill="rgb(28,20,19)"/><path d=" M 430.125 427.904 L 435.125 427.904 L 435.125 432.715 L 430.125 432.715 L 430.125 427.904 Z " fill="rgb(28,20,19)"/><path d=" M 430.125 408.659 L 435.125 408.659 L 435.125 413.47 L 430.125 413.47 L 430.125 408.659 Z " fill="rgb(28,20,19)"/><path d=" M 430.125 581.883 L 435.125 581.883 L 435.125 586.694 L 430.125 586.694 L 430.125 581.883 Z " fill="rgb(28,20,19)"/><path d=" M 430.125 447.149 L 435.125 447.149 L 435.125 451.96 L 430.125 451.96 L 430.125 447.149 Z " fill="rgb(28,20,19)"/><path d=" M 430.125 572.261 L 435.125 572.261 L 435.125 577.072 L 430.125 577.072 L 430.125 572.261 Z " fill="rgb(28,20,19)"/><path d=" M 430.125 437.527 L 435.125 437.527 L 435.125 442.338 L 430.125 442.338 L 430.125 437.527 Z " fill="rgb(28,20,19)"/><path d=" M 430.125 418.282 L 435.125 418.282 L 435.125 423.093 L 430.125 423.093 L 430.125 418.282 Z " fill="rgb(28,20,19)"/><path d=" M 430.125 591.506 L 435.125 591.506 L 435.125 596.317 L 430.125 596.317 L 430.125 591.506 Z " fill="rgb(28,20,19)"/><path d=" M 430.125 456.772 L 435.125 456.772 L 435.125 461.583 L 430.125 461.583 L 430.125 456.772 Z " fill="rgb(28,20,19)"/><path d=" M 430.125 601.128 L 435.125 601.128 L 435.125 605.939 L 430.125 605.939 L 430.125 601.128 Z " fill="rgb(28,20,19)"/><path d=" M 430.125 668.505 L 435.125 668.505 L 435.125 673.316 L 430.125 673.316 L 430.125 668.505 Z " fill="rgb(28,20,19)"/><path d=" M 430.125 687.75 L 435.125 687.75 L 435.125 692.561 L 430.125 692.561 L 430.125 687.75 Z " fill="rgb(28,20,19)"/><path d=" M 430.125 553.016 L 435.125 553.016 L 435.125 557.827 L 430.125 557.827 L 430.125 553.016 Z " fill="rgb(28,20,19)"/><path d=" M 430.125 678.127 L 435.125 678.127 L 435.125 682.938 L 430.125 682.938 L 430.125 678.127 Z " fill="rgb(28,20,19)"/><path d=" M 430.125 543.393 L 435.125 543.393 L 435.125 548.204 L 430.125 548.204 L 430.125 543.393 Z " fill="rgb(28,20,19)"/><path d=" M 430.125 697.372 L 435.125 697.372 L 435.125 702.183 L 430.125 702.183 L 430.125 697.372 Z " fill="rgb(28,20,19)"/><path d=" M 430.125 706.995 L 435.125 706.995 L 435.125 711.806 L 430.125 711.806 L 430.125 706.995 Z " fill="rgb(28,20,19)"/><path d=" M 430.125 697.372 L 435.125 697.372 L 435.125 702.183 L 430.125 702.183 L 430.125 697.372 Z " fill="rgb(28,20,19)"/><path d=" M 430.125 716.617 L 435.125 716.617 L 435.125 721.428 L 430.125 721.428 L 430.125 716.617 Z " fill="rgb(28,20,19)"/><path d=" M 430.125 706.995 L 435.125 706.995 L 435.125 711.806 L 430.125 711.806 L 430.125 706.995 Z " fill="rgb(28,20,19)"/><path d=" M 430.125 726.24 L 435.125 726.24 L 435.125 731.051 L 430.125 731.051 L 430.125 726.24 Z " fill="rgb(28,20,19)"/><path d=" M 430.125 735.862 L 435.125 735.862 L 435.125 740.673 L 430.125 740.673 L 430.125 735.862 Z " fill="rgb(28,20,19)"/><path d=" M 430.125 601.166 L 435.125 601.166 L 435.125 605.977 L 430.125 605.977 L 430.125 601.166 Z " fill="rgb(28,20,19)"/><path d=" M 430.125 466.432 L 435.125 466.432 L 435.125 471.243 L 430.125 471.243 L 430.125 466.432 Z " fill="rgb(28,20,19)"/><path d=" M 430.125 620.411 L 435.125 620.411 L 435.125 625.222 L 430.125 625.222 L 430.125 620.411 Z " fill="rgb(28,20,19)"/><path d=" M 430.125 485.677 L 435.125 485.677 L 435.125 490.488 L 430.125 490.488 L 430.125 485.677 Z " fill="rgb(28,20,19)"/><path d=" M 430.125 610.788 L 435.125 610.788 L 435.125 615.6 L 430.125 615.6 L 430.125 610.788 Z " fill="rgb(28,20,19)"/><path d=" M 430.125 476.055 L 435.125 476.055 L 435.125 480.866 L 430.125 480.866 L 430.125 476.055 Z " fill="rgb(28,20,19)"/><path d=" M 430.125 630.033 L 435.125 630.033 L 435.125 634.845 L 430.125 634.845 L 430.125 630.033 Z " fill="rgb(28,20,19)"/><path d=" M 430.125 639.656 L 435.125 639.656 L 435.125 644.467 L 430.125 644.467 L 430.125 639.656 Z " fill="rgb(28,20,19)"/><path d=" M 430.125 630.033 L 435.125 630.033 L 435.125 634.845 L 430.125 634.845 L 430.125 630.033 Z " fill="rgb(28,20,19)"/><path d=" M 430.125 495.3 L 435.125 495.3 L 435.125 500.111 L 430.125 500.111 L 430.125 495.3 Z " fill="rgb(28,20,19)"/><path d=" M 430.125 649.278 L 435.125 649.278 L 435.125 654.09 L 430.125 654.09 L 430.125 649.278 Z " fill="rgb(28,20,19)"/><path d=" M 430.125 514.545 L 435.125 514.545 L 435.125 519.356 L 430.125 519.356 L 430.125 514.545 Z " fill="rgb(28,20,19)"/><path d=" M 430.125 639.656 L 435.125 639.656 L 435.125 644.467 L 430.125 644.467 L 430.125 639.656 Z " fill="rgb(28,20,19)"/><path d=" M 430.125 504.922 L 435.125 504.922 L 435.125 509.733 L 430.125 509.733 L 430.125 504.922 Z " fill="rgb(28,20,19)"/><path d=" M 430.125 658.901 L 435.125 658.901 L 435.125 663.712 L 430.125 663.712 L 430.125 658.901 Z " fill="rgb(28,20,19)"/><path d=" M 430.125 524.167 L 435.125 524.167 L 435.125 528.978 L 430.125 528.978 L 430.125 524.167 Z " fill="rgb(28,20,19)"/><path d=" M 430.125 668.523 L 435.125 668.523 L 435.125 673.335 L 430.125 673.335 L 430.125 668.523 Z " fill="rgb(28,20,19)"/><path d=" M 430.125 533.79 L 435.125 533.79 L 435.125 538.601 L 430.125 538.601 L 430.125 533.79 Z " fill="rgb(28,20,19)"/><path d=" M 430.125 735.9 L 435.125 735.9 L 435.125 740.711 L 430.125 740.711 L 430.125 735.9 Z " fill="rgb(28,20,19)"/><path d=" M 430.125 755.145 L 435.125 755.145 L 435.125 759.956 L 430.125 759.956 L 430.125 755.145 Z " fill="rgb(28,20,19)"/><path d=" M 430.125 745.522 L 435.125 745.522 L 435.125 750.334 L 430.125 750.334 L 430.125 745.522 Z " fill="rgb(28,20,19)"/><path d=" M 430.125 764.767 L 435.125 764.767 L 435.125 769.579 L 430.125 769.579 L 430.125 764.767 Z " fill="rgb(28,20,19)"/><path d=" M 430.125 774.39 L 435.125 774.39 L 435.125 779.201 L 430.125 779.201 L 430.125 774.39 Z " fill="rgb(28,20,19)"/><path d=" M 430.125 764.767 L 435.125 764.767 L 435.125 769.579 L 430.125 769.579 L 430.125 764.767 Z " fill="rgb(28,20,19)"/><path d=" M 430.125 784.012 L 435.125 784.012 L 435.125 788.824 L 430.125 788.824 L 430.125 784.012 Z " fill="rgb(28,20,19)"/><path d=" M 430.125 774.39 L 435.125 774.39 L 435.125 779.201 L 430.125 779.201 L 430.125 774.39 Z " fill="rgb(28,20,19)"/><path d=" M 430.125 793.635 L 435.125 793.635 L 435.125 798.446 L 430.125 798.446 L 430.125 793.635 Z " fill="rgb(28,20,19)"/><path d=" M 430.125 803.257 L 435.125 803.257 L 435.125 808.069 L 430.125 808.069 L 430.125 803.257 Z " fill="rgb(28,20,19)"/><path d=" M 430.125 803.239 L 435.125 803.239 L 435.125 808.05 L 430.125 808.05 L 430.125 803.239 Z " fill="rgb(28,20,19)"/><path d=" M 430.125 822.484 L 435.125 822.484 L 435.125 827.295 L 430.125 827.295 L 430.125 822.484 Z " fill="rgb(28,20,19)"/><path d=" M 430.125 812.861 L 435.125 812.861 L 435.125 817.672 L 430.125 817.672 L 430.125 812.861 Z " fill="rgb(28,20,19)"/><path d=" M 430.125 832.106 L 435.125 832.106 L 435.125 836.917 L 430.125 836.917 L 430.125 832.106 Z " fill="rgb(28,20,19)"/><path d=" M 430.125 841.729 L 435.125 841.729 L 435.125 846.54 L 430.125 846.54 L 430.125 841.729 Z " fill="rgb(28,20,19)"/><path d=" M 430.125 832.106 L 435.125 832.106 L 435.125 836.917 L 430.125 836.917 L 430.125 832.106 Z " fill="rgb(28,20,19)"/><path d=" M 430.125 851.351 L 435.125 851.351 L 435.125 856.162 L 430.125 856.162 L 430.125 851.351 Z " fill="rgb(28,20,19)"/><path d=" M 430.125 841.729 L 435.125 841.729 L 435.125 846.54 L 430.125 846.54 L 430.125 841.729 Z " fill="rgb(28,20,19)"/><path d=" M 430.125 860.974 L 435.125 860.974 L 435.125 865.785 L 430.125 865.785 L 430.125 860.974 Z " fill="rgb(28,20,19)"/><path d=" M 430.125 870.596 L 435.125 870.596 L 435.125 875.407 L 430.125 875.407 L 430.125 870.596 Z " fill="rgb(28,20,19)"/><path d=" M 430.125 870.596 L 435.125 870.596 L 435.125 875.407 L 430.125 875.407 L 430.125 870.596 Z " fill="rgb(28,20,19)"/><path d=" M 430.125 889.841 L 435.125 889.841 L 435.125 894.652 L 430.125 894.652 L 430.125 889.841 Z " fill="rgb(28,20,19)"/><path d=" M 430.125 880.219 L 435.125 880.219 L 435.125 885.03 L 430.125 885.03 L 430.125 880.219 Z " fill="rgb(28,20,19)"/><path d=" M 430.125 899.464 L 435.125 899.464 L 435.125 904.275 L 430.125 904.275 L 430.125 899.464 Z " fill="rgb(28,20,19)"/><path d=" M 430.125 899.464 L 435.125 899.464 L 435.125 904.275 L 430.125 904.275 L 430.125 899.464 Z " fill="rgb(28,20,19)"/><path d=" M 418.625 403.719 L 421.125 405.162 L 421.125 897.78 L 418.625 896.336 L 418.625 403.719 Z " fill="rgb(28,20,19)"/><path d=" M 443.875 423.926 L 446.375 425.369 L 446.375 912.448 L 443.875 910.77 L 443.875 423.926 Z " fill="rgb(28,20,19)"/></g></g></g></svg>