<?xml version="1.0" standalone="no"?><!-- Generator: Gravit.io --><svg xmlns="http://www.w3.org/2000/svg" xmlns:xlink="http://www.w3.org/1999/xlink" style="isolation:isolate" viewBox="1530.625 181.16 162.75 769.916" width="162.75" height="769.916"><g id="body-windows-vertical"><g id="body-windows-color-2"><path d=" M 1579.375 185.66 L 1579.375 262.448 L 1579.375 946.576" fill="none" vector-effect="non-scaling-stroke" stroke-width="3" stroke="rgb(59,43,41)" stroke-linejoin="miter" stroke-linecap="square" stroke-miterlimit="3"/><line x1="1608.486" y1="185.66" x2="1608.486" y2="946.576" vector-effect="non-scaling-stroke" stroke-width="3" stroke="rgb(59,43,41)" stroke-linejoin="miter" stroke-linecap="square" stroke-miterlimit="3"/><line x1="1593.931" y1="185.66" x2="1593.931" y2="946.576" vector-effect="non-scaling-stroke" stroke-width="3" stroke="rgb(59,43,41)" stroke-linejoin="miter" stroke-linecap="square" stroke-miterlimit="3"/><line x1="1623.042" y1="185.66" x2="1623.042" y2="946.576" vector-effect="non-scaling-stroke" stroke-width="3" stroke="rgb(59,43,41)" stroke-linejoin="miter" stroke-linecap="square" stroke-miterlimit="3"/><line x1="1586.653" y1="185.66" x2="1586.653" y2="946.576" vector-effect="non-scaling-stroke" stroke-width="3" stroke="rgb(59,43,41)" stroke-linejoin="miter" stroke-linecap="square" stroke-miterlimit="3"/><line x1="1615.764" y1="185.66" x2="1615.764" y2="946.576" vector-effect="non-scaling-stroke" stroke-width="3" stroke="rgb(59,43,41)" stroke-linejoin="miter" stroke-linecap="square" stroke-miterlimit="3"/><line x1="1601.208" y1="185.66" x2="1601.208" y2="946.576" vector-effect="non-scaling-stroke" stroke-width="3" stroke="rgb(59,43,41)" stroke-linejoin="miter" stroke-linecap="square" stroke-miterlimit="3"/><line x1="1630.319" y1="185.66" x2="1630.319" y2="946.576" vector-effect="non-scaling-stroke" stroke-width="3" stroke="rgb(59,43,41)" stroke-linejoin="miter" stroke-linecap="square" stroke-miterlimit="3"/><line x1="1637.597" y1="185.66" x2="1637.597" y2="946.576" vector-effect="non-scaling-stroke" stroke-width="3" stroke="rgb(59,43,41)" stroke-linejoin="miter" stroke-linecap="square" stroke-miterlimit="3"/><line x1="1644.875" y1="185.66" x2="1644.875" y2="946.576" vector-effect="non-scaling-stroke" stroke-width="3" stroke="rgb(59,43,41)" stroke-linejoin="miter" stroke-linecap="square" stroke-miterlimit="3"/></g><g id="body-windows-color-1"><path d=" M 1658.847 247.113 L 1658.847 255.448 L 1658.847 296.187" fill="none" vector-effect="non-scaling-stroke" stroke-width="3" stroke="rgb(91,66,63)" stroke-linejoin="miter" stroke-linecap="square" stroke-miterlimit="3"/><path d=" M 1666.125 247.113 L 1666.125 255.948 L 1666.125 296.187" fill="none" vector-effect="non-scaling-stroke" stroke-width="3" stroke="rgb(91,66,63)" stroke-linejoin="miter" stroke-linecap="square" stroke-miterlimit="3"/><path d=" M 1658.847 313.065 L 1658.847 321.4 L 1658.847 362.139" fill="none" vector-effect="non-scaling-stroke" stroke-width="3" stroke="rgb(91,66,63)" stroke-linejoin="miter" stroke-linecap="square" stroke-miterlimit="3"/><path d=" M 1666.125 313.065 L 1666.125 321.9 L 1666.125 362.139" fill="none" vector-effect="non-scaling-stroke" stroke-width="3" stroke="rgb(91,66,63)" stroke-linejoin="miter" stroke-linecap="square" stroke-miterlimit="3"/><path d=" M 1658.847 378.903 L 1658.847 383.806 L 1658.847 407.771" fill="none" vector-effect="non-scaling-stroke" stroke-width="3" stroke="rgb(91,66,63)" stroke-linejoin="miter" stroke-linecap="square" stroke-miterlimit="3"/><path d=" M 1666.125 378.903 L 1666.125 384.101 L 1666.125 407.771" fill="none" vector-effect="non-scaling-stroke" stroke-width="3" stroke="rgb(91,66,63)" stroke-linejoin="miter" stroke-linecap="square" stroke-miterlimit="3"/><path d=" M 1678.375 231.957 L 1685.875 231.957 L 1685.875 237.731 L 1678.375 237.731 L 1678.375 231.957 Z " fill="rgb(91,66,63)"/><path d=" M 1678.375 255.051 L 1685.875 255.051 L 1685.875 260.825 L 1678.375 260.825 L 1678.375 255.051 Z " fill="rgb(91,66,63)"/><path d=" M 1678.375 243.504 L 1685.875 243.504 L 1685.875 249.278 L 1678.375 249.278 L 1678.375 243.504 Z " fill="rgb(91,66,63)"/><path d=" M 1678.375 266.598 L 1685.875 266.598 L 1685.875 272.372 L 1678.375 272.372 L 1678.375 266.598 Z " fill="rgb(91,66,63)"/><path d=" M 1678.375 278.145 L 1685.875 278.145 L 1685.875 283.919 L 1678.375 283.919 L 1678.375 278.145 Z " fill="rgb(91,66,63)"/><path d=" M 1677.125 562.638 L 1682.125 562.638 L 1682.125 567.449 L 1677.125 567.449 L 1677.125 562.638 Z " fill="rgb(91,66,63)"/><path d=" M 1677.125 572.261 L 1682.125 572.261 L 1682.125 577.072 L 1677.125 577.072 L 1677.125 572.261 Z " fill="rgb(91,66,63)"/><path d=" M 1677.125 562.638 L 1682.125 562.638 L 1682.125 567.449 L 1677.125 567.449 L 1677.125 562.638 Z " fill="rgb(91,66,63)"/><path d=" M 1677.125 418.282 L 1682.125 418.282 L 1682.125 423.093 L 1677.125 423.093 L 1677.125 418.282 Z " fill="rgb(91,66,63)"/><path d=" M 1677.125 408.659 L 1682.125 408.659 L 1682.125 413.47 L 1677.125 413.47 L 1677.125 408.659 Z " fill="rgb(91,66,63)"/><path d=" M 1677.125 581.883 L 1682.125 581.883 L 1682.125 586.694 L 1677.125 586.694 L 1677.125 581.883 Z " fill="rgb(91,66,63)"/><path d=" M 1677.125 437.527 L 1682.125 437.527 L 1682.125 442.338 L 1677.125 442.338 L 1677.125 437.527 Z " fill="rgb(91,66,63)"/><path d=" M 1677.125 572.261 L 1682.125 572.261 L 1682.125 577.072 L 1677.125 577.072 L 1677.125 572.261 Z " fill="rgb(91,66,63)"/><path d=" M 1677.125 427.904 L 1682.125 427.904 L 1682.125 432.715 L 1677.125 432.715 L 1677.125 427.904 Z " fill="rgb(91,66,63)"/><path d=" M 1677.125 591.506 L 1682.125 591.506 L 1682.125 596.317 L 1677.125 596.317 L 1677.125 591.506 Z " fill="rgb(91,66,63)"/><path d=" M 1677.125 447.149 L 1682.125 447.149 L 1682.125 451.96 L 1677.125 451.96 L 1677.125 447.149 Z " fill="rgb(91,66,63)"/><path d=" M 1677.125 601.128 L 1682.125 601.128 L 1682.125 605.939 L 1677.125 605.939 L 1677.125 601.128 Z " fill="rgb(91,66,63)"/><path d=" M 1677.125 668.505 L 1682.125 668.505 L 1682.125 673.316 L 1677.125 673.316 L 1677.125 668.505 Z " fill="rgb(91,66,63)"/><path d=" M 1677.125 687.75 L 1682.125 687.75 L 1682.125 692.561 L 1677.125 692.561 L 1677.125 687.75 Z " fill="rgb(91,66,63)"/><path d=" M 1677.125 543.393 L 1682.125 543.393 L 1682.125 548.204 L 1677.125 548.204 L 1677.125 543.393 Z " fill="rgb(91,66,63)"/><path d=" M 1677.125 678.127 L 1682.125 678.127 L 1682.125 682.938 L 1677.125 682.938 L 1677.125 678.127 Z " fill="rgb(91,66,63)"/><path d=" M 1677.125 533.771 L 1682.125 533.771 L 1682.125 538.582 L 1677.125 538.582 L 1677.125 533.771 Z " fill="rgb(91,66,63)"/><path d=" M 1677.125 697.372 L 1682.125 697.372 L 1682.125 702.183 L 1677.125 702.183 L 1677.125 697.372 Z " fill="rgb(91,66,63)"/><path d=" M 1677.125 706.995 L 1682.125 706.995 L 1682.125 711.806 L 1677.125 711.806 L 1677.125 706.995 Z " fill="rgb(91,66,63)"/><path d=" M 1677.125 697.372 L 1682.125 697.372 L 1682.125 702.183 L 1677.125 702.183 L 1677.125 697.372 Z " fill="rgb(91,66,63)"/><path d=" M 1677.125 553.016 L 1682.125 553.016 L 1682.125 557.827 L 1677.125 557.827 L 1677.125 553.016 Z " fill="rgb(91,66,63)"/><path d=" M 1677.125 716.617 L 1682.125 716.617 L 1682.125 721.428 L 1677.125 721.428 L 1677.125 716.617 Z " fill="rgb(91,66,63)"/><path d=" M 1677.125 706.995 L 1682.125 706.995 L 1682.125 711.806 L 1677.125 711.806 L 1677.125 706.995 Z " fill="rgb(91,66,63)"/><path d=" M 1677.125 726.24 L 1682.125 726.24 L 1682.125 731.051 L 1677.125 731.051 L 1677.125 726.24 Z " fill="rgb(91,66,63)"/><path d=" M 1677.125 735.862 L 1682.125 735.862 L 1682.125 740.673 L 1677.125 740.673 L 1677.125 735.862 Z " fill="rgb(91,66,63)"/><path d=" M 1677.125 601.166 L 1682.125 601.166 L 1682.125 605.977 L 1677.125 605.977 L 1677.125 601.166 Z " fill="rgb(91,66,63)"/><path d=" M 1677.125 456.81 L 1682.125 456.81 L 1682.125 461.621 L 1677.125 461.621 L 1677.125 456.81 Z " fill="rgb(91,66,63)"/><path d=" M 1677.125 620.411 L 1682.125 620.411 L 1682.125 625.222 L 1677.125 625.222 L 1677.125 620.411 Z " fill="rgb(91,66,63)"/><path d=" M 1677.125 476.055 L 1682.125 476.055 L 1682.125 480.866 L 1677.125 480.866 L 1677.125 476.055 Z " fill="rgb(91,66,63)"/><path d=" M 1677.125 610.788 L 1682.125 610.788 L 1682.125 615.6 L 1677.125 615.6 L 1677.125 610.788 Z " fill="rgb(91,66,63)"/><path d=" M 1677.125 466.432 L 1682.125 466.432 L 1682.125 471.243 L 1677.125 471.243 L 1677.125 466.432 Z " fill="rgb(91,66,63)"/><path d=" M 1677.125 630.033 L 1682.125 630.033 L 1682.125 634.845 L 1677.125 634.845 L 1677.125 630.033 Z " fill="rgb(91,66,63)"/><path d=" M 1677.125 639.656 L 1682.125 639.656 L 1682.125 644.467 L 1677.125 644.467 L 1677.125 639.656 Z " fill="rgb(91,66,63)"/><path d=" M 1677.125 630.033 L 1682.125 630.033 L 1682.125 634.845 L 1677.125 634.845 L 1677.125 630.033 Z " fill="rgb(91,66,63)"/><path d=" M 1677.125 485.677 L 1682.125 485.677 L 1682.125 490.488 L 1677.125 490.488 L 1677.125 485.677 Z " fill="rgb(91,66,63)"/><path d=" M 1677.125 649.278 L 1682.125 649.278 L 1682.125 654.09 L 1677.125 654.09 L 1677.125 649.278 Z " fill="rgb(91,66,63)"/><path d=" M 1677.125 504.922 L 1682.125 504.922 L 1682.125 509.733 L 1677.125 509.733 L 1677.125 504.922 Z " fill="rgb(91,66,63)"/><path d=" M 1677.125 639.656 L 1682.125 639.656 L 1682.125 644.467 L 1677.125 644.467 L 1677.125 639.656 Z " fill="rgb(91,66,63)"/><path d=" M 1677.125 495.3 L 1682.125 495.3 L 1682.125 500.111 L 1677.125 500.111 L 1677.125 495.3 Z " fill="rgb(91,66,63)"/><path d=" M 1677.125 658.901 L 1682.125 658.901 L 1682.125 663.712 L 1677.125 663.712 L 1677.125 658.901 Z " fill="rgb(91,66,63)"/><path d=" M 1677.125 514.545 L 1682.125 514.545 L 1682.125 519.356 L 1677.125 519.356 L 1677.125 514.545 Z " fill="rgb(91,66,63)"/><path d=" M 1677.125 668.523 L 1682.125 668.523 L 1682.125 673.335 L 1677.125 673.335 L 1677.125 668.523 Z " fill="rgb(91,66,63)"/><path d=" M 1677.125 524.167 L 1682.125 524.167 L 1682.125 528.978 L 1677.125 528.978 L 1677.125 524.167 Z " fill="rgb(91,66,63)"/><path d=" M 1677.125 735.9 L 1682.125 735.9 L 1682.125 740.711 L 1677.125 740.711 L 1677.125 735.9 Z " fill="rgb(91,66,63)"/><path d=" M 1677.125 755.145 L 1682.125 755.145 L 1682.125 759.956 L 1677.125 759.956 L 1677.125 755.145 Z " fill="rgb(91,66,63)"/><path d=" M 1677.125 745.522 L 1682.125 745.522 L 1682.125 750.334 L 1677.125 750.334 L 1677.125 745.522 Z " fill="rgb(91,66,63)"/><path d=" M 1677.125 764.767 L 1682.125 764.767 L 1682.125 769.579 L 1677.125 769.579 L 1677.125 764.767 Z " fill="rgb(91,66,63)"/><path d=" M 1677.125 774.39 L 1682.125 774.39 L 1682.125 779.201 L 1677.125 779.201 L 1677.125 774.39 Z " fill="rgb(91,66,63)"/><path d=" M 1677.125 764.767 L 1682.125 764.767 L 1682.125 769.579 L 1677.125 769.579 L 1677.125 764.767 Z " fill="rgb(91,66,63)"/><path d=" M 1677.125 784.012 L 1682.125 784.012 L 1682.125 788.824 L 1677.125 788.824 L 1677.125 784.012 Z " fill="rgb(91,66,63)"/><path d=" M 1677.125 774.39 L 1682.125 774.39 L 1682.125 779.201 L 1677.125 779.201 L 1677.125 774.39 Z " fill="rgb(91,66,63)"/><path d=" M 1677.125 793.635 L 1682.125 793.635 L 1682.125 798.446 L 1677.125 798.446 L 1677.125 793.635 Z " fill="rgb(91,66,63)"/><path d=" M 1677.125 803.257 L 1682.125 803.257 L 1682.125 808.069 L 1677.125 808.069 L 1677.125 803.257 Z " fill="rgb(91,66,63)"/><path d=" M 1677.125 803.239 L 1682.125 803.239 L 1682.125 808.05 L 1677.125 808.05 L 1677.125 803.239 Z " fill="rgb(91,66,63)"/><path d=" M 1677.125 822.484 L 1682.125 822.484 L 1682.125 827.295 L 1677.125 827.295 L 1677.125 822.484 Z " fill="rgb(91,66,63)"/><path d=" M 1677.125 812.861 L 1682.125 812.861 L 1682.125 817.672 L 1677.125 817.672 L 1677.125 812.861 Z " fill="rgb(91,66,63)"/><path d=" M 1677.125 832.106 L 1682.125 832.106 L 1682.125 836.917 L 1677.125 836.917 L 1677.125 832.106 Z " fill="rgb(91,66,63)"/><path d=" M 1677.125 841.729 L 1682.125 841.729 L 1682.125 846.54 L 1677.125 846.54 L 1677.125 841.729 Z " fill="rgb(91,66,63)"/><path d=" M 1677.125 832.106 L 1682.125 832.106 L 1682.125 836.917 L 1677.125 836.917 L 1677.125 832.106 Z " fill="rgb(91,66,63)"/><path d=" M 1677.125 851.351 L 1682.125 851.351 L 1682.125 856.162 L 1677.125 856.162 L 1677.125 851.351 Z " fill="rgb(91,66,63)"/><path d=" M 1677.125 841.729 L 1682.125 841.729 L 1682.125 846.54 L 1677.125 846.54 L 1677.125 841.729 Z " fill="rgb(91,66,63)"/><path d=" M 1677.125 860.974 L 1682.125 860.974 L 1682.125 865.785 L 1677.125 865.785 L 1677.125 860.974 Z " fill="rgb(91,66,63)"/><path d=" M 1677.125 870.596 L 1682.125 870.596 L 1682.125 875.407 L 1677.125 875.407 L 1677.125 870.596 Z " fill="rgb(91,66,63)"/><path d=" M 1677.125 870.596 L 1682.125 870.596 L 1682.125 875.407 L 1677.125 875.407 L 1677.125 870.596 Z " fill="rgb(91,66,63)"/><path d=" M 1677.125 889.841 L 1682.125 889.841 L 1682.125 894.652 L 1677.125 894.652 L 1677.125 889.841 Z " fill="rgb(91,66,63)"/><path d=" M 1677.125 880.219 L 1682.125 880.219 L 1682.125 885.03 L 1677.125 885.03 L 1677.125 880.219 Z " fill="rgb(91,66,63)"/><path d=" M 1677.125 899.464 L 1682.125 899.464 L 1682.125 904.275 L 1677.125 904.275 L 1677.125 899.464 Z " fill="rgb(91,66,63)"/><path d=" M 1677.125 899.464 L 1682.125 899.464 L 1682.125 904.275 L 1677.125 904.275 L 1677.125 899.464 Z " fill="rgb(91,66,63)"/><path d=" M 1678.375 301.961 L 1685.875 301.961 L 1685.875 307.734 L 1678.375 307.734 L 1678.375 301.961 Z " fill="rgb(91,66,63)"/><path d=" M 1678.375 325.055 L 1685.875 325.055 L 1685.875 330.828 L 1678.375 330.828 L 1678.375 325.055 Z " fill="rgb(91,66,63)"/><path d=" M 1678.375 313.508 L 1685.875 313.508 L 1685.875 319.281 L 1678.375 319.281 L 1678.375 313.508 Z " fill="rgb(91,66,63)"/><path d=" M 1678.375 336.602 L 1685.875 336.602 L 1685.875 342.375 L 1678.375 342.375 L 1678.375 336.602 Z " fill="rgb(91,66,63)"/><path d=" M 1678.375 359.696 L 1685.875 359.696 L 1685.875 365.469 L 1678.375 365.469 L 1678.375 359.696 Z " fill="rgb(91,66,63)"/><path d=" M 1678.375 348.149 L 1685.875 348.149 L 1685.875 353.922 L 1678.375 353.922 L 1678.375 348.149 Z " fill="rgb(91,66,63)"/><path d=" M 1678.375 371.243 L 1685.875 371.243 L 1685.875 377.016 L 1678.375 377.016 L 1678.375 371.243 Z " fill="rgb(91,66,63)"/><path d=" M 1678.375 382.79 L 1685.875 382.79 L 1685.875 388.563 L 1678.375 388.563 L 1678.375 382.79 Z " fill="rgb(91,66,63)"/><path d=" M 1668.375 423.926 L 1665.875 425.369 L 1665.875 912.448 L 1668.375 910.77 L 1668.375 423.926 Z " fill="rgb(91,66,63)"/><path d=" M 1693.375 403.719 L 1690.875 405.162 L 1690.875 897.78 L 1693.375 896.336 L 1693.375 403.719 Z " fill="rgb(91,66,63)"/></g><path d=" M 1568.375 423.926 L 1565.875 425.369 L 1565.875 912.448 L 1568.375 910.77 L 1568.375 423.926 Z " fill="rgb(91,66,63)"/><path d=" M 1655.875 423.926 L 1658.375 425.369 L 1658.375 912.448 L 1655.875 910.77 L 1655.875 423.926 Z " fill="rgb(59,43,41)"/><g id="body-windows-color-3"><path d=" M 1565.583 247.113 L 1565.583 255.448 L 1565.583 296.187" fill="none" vector-effect="non-scaling-stroke" stroke-width="3" stroke="rgb(28,20,19)" stroke-linejoin="miter" stroke-linecap="square" stroke-miterlimit="3"/><path d=" M 1558.306 247.113 L 1558.306 255.948 L 1558.306 296.187" fill="none" vector-effect="non-scaling-stroke" stroke-width="3" stroke="rgb(28,20,19)" stroke-linejoin="miter" stroke-linecap="square" stroke-miterlimit="3"/><path d=" M 1565.583 313.065 L 1565.583 321.4 L 1565.583 362.139" fill="none" vector-effect="non-scaling-stroke" stroke-width="3" stroke="rgb(28,20,19)" stroke-linejoin="miter" stroke-linecap="square" stroke-miterlimit="3"/><path d=" M 1558.306 313.065 L 1558.306 321.9 L 1558.306 362.139" fill="none" vector-effect="non-scaling-stroke" stroke-width="3" stroke="rgb(28,20,19)" stroke-linejoin="miter" stroke-linecap="square" stroke-miterlimit="3"/><path d=" M 1565.583 378.903 L 1565.583 383.806 L 1565.583 407.771" fill="none" vector-effect="non-scaling-stroke" stroke-width="3" stroke="rgb(28,20,19)" stroke-linejoin="miter" stroke-linecap="square" stroke-miterlimit="3"/><path d=" M 1558.306 378.903 L 1558.306 384.101 L 1558.306 407.771" fill="none" vector-effect="non-scaling-stroke" stroke-width="3" stroke="rgb(28,20,19)" stroke-linejoin="miter" stroke-linecap="square" stroke-miterlimit="3"/><path d=" M 1538.375 231.957 L 1545.875 231.957 L 1545.875 237.731 L 1538.375 237.731 L 1538.375 231.957 Z " fill="rgb(28,20,19)"/><path d=" M 1538.375 255.051 L 1545.875 255.051 L 1545.875 260.825 L 1538.375 260.825 L 1538.375 255.051 Z " fill="rgb(28,20,19)"/><path d=" M 1538.375 243.504 L 1545.875 243.504 L 1545.875 249.278 L 1538.375 249.278 L 1538.375 243.504 Z " fill="rgb(28,20,19)"/><path d=" M 1538.375 266.598 L 1545.875 266.598 L 1545.875 272.372 L 1538.375 272.372 L 1538.375 266.598 Z " fill="rgb(28,20,19)"/><path d=" M 1538.375 278.145 L 1545.875 278.145 L 1545.875 283.919 L 1538.375 283.919 L 1538.375 278.145 Z " fill="rgb(28,20,19)"/><path d=" M 1538.375 301.961 L 1545.875 301.961 L 1545.875 307.734 L 1538.375 307.734 L 1538.375 301.961 Z " fill="rgb(28,20,19)"/><path d=" M 1538.375 325.055 L 1545.875 325.055 L 1545.875 330.828 L 1538.375 330.828 L 1538.375 325.055 Z " fill="rgb(28,20,19)"/><path d=" M 1538.375 313.508 L 1545.875 313.508 L 1545.875 319.281 L 1538.375 319.281 L 1538.375 313.508 Z " fill="rgb(28,20,19)"/><path d=" M 1538.375 336.602 L 1545.875 336.602 L 1545.875 342.375 L 1538.375 342.375 L 1538.375 336.602 Z " fill="rgb(28,20,19)"/><path d=" M 1538.375 348.149 L 1545.875 348.149 L 1545.875 353.922 L 1538.375 353.922 L 1538.375 348.149 Z " fill="rgb(28,20,19)"/><path d=" M 1538.375 336.602 L 1545.875 336.602 L 1545.875 342.375 L 1538.375 342.375 L 1538.375 336.602 Z " fill="rgb(28,20,19)"/><path d=" M 1538.375 359.696 L 1545.875 359.696 L 1545.875 365.469 L 1538.375 365.469 L 1538.375 359.696 Z " fill="rgb(28,20,19)"/><path d=" M 1538.375 348.149 L 1545.875 348.149 L 1545.875 353.922 L 1538.375 353.922 L 1538.375 348.149 Z " fill="rgb(28,20,19)"/><path d=" M 1538.375 371.243 L 1545.875 371.243 L 1545.875 377.016 L 1538.375 377.016 L 1538.375 371.243 Z " fill="rgb(28,20,19)"/><path d=" M 1538.375 382.79 L 1545.875 382.79 L 1545.875 388.563 L 1538.375 388.563 L 1538.375 382.79 Z " fill="rgb(28,20,19)"/><path d=" M 1542.125 562.638 L 1547.125 562.638 L 1547.125 567.449 L 1542.125 567.449 L 1542.125 562.638 Z " fill="rgb(28,20,19)"/><path d=" M 1542.125 572.261 L 1547.125 572.261 L 1547.125 577.072 L 1542.125 577.072 L 1542.125 572.261 Z " fill="rgb(28,20,19)"/><path d=" M 1542.125 562.638 L 1547.125 562.638 L 1547.125 567.449 L 1542.125 567.449 L 1542.125 562.638 Z " fill="rgb(28,20,19)"/><path d=" M 1542.125 427.904 L 1547.125 427.904 L 1547.125 432.715 L 1542.125 432.715 L 1542.125 427.904 Z " fill="rgb(28,20,19)"/><path d=" M 1542.125 408.659 L 1547.125 408.659 L 1547.125 413.47 L 1542.125 413.47 L 1542.125 408.659 Z " fill="rgb(28,20,19)"/><path d=" M 1542.125 581.883 L 1547.125 581.883 L 1547.125 586.694 L 1542.125 586.694 L 1542.125 581.883 Z " fill="rgb(28,20,19)"/><path d=" M 1542.125 447.149 L 1547.125 447.149 L 1547.125 451.96 L 1542.125 451.96 L 1542.125 447.149 Z " fill="rgb(28,20,19)"/><path d=" M 1542.125 572.261 L 1547.125 572.261 L 1547.125 577.072 L 1542.125 577.072 L 1542.125 572.261 Z " fill="rgb(28,20,19)"/><path d=" M 1542.125 437.527 L 1547.125 437.527 L 1547.125 442.338 L 1542.125 442.338 L 1542.125 437.527 Z " fill="rgb(28,20,19)"/><path d=" M 1542.125 418.282 L 1547.125 418.282 L 1547.125 423.093 L 1542.125 423.093 L 1542.125 418.282 Z " fill="rgb(28,20,19)"/><path d=" M 1542.125 591.506 L 1547.125 591.506 L 1547.125 596.317 L 1542.125 596.317 L 1542.125 591.506 Z " fill="rgb(28,20,19)"/><path d=" M 1542.125 456.772 L 1547.125 456.772 L 1547.125 461.583 L 1542.125 461.583 L 1542.125 456.772 Z " fill="rgb(28,20,19)"/><path d=" M 1542.125 601.128 L 1547.125 601.128 L 1547.125 605.939 L 1542.125 605.939 L 1542.125 601.128 Z " fill="rgb(28,20,19)"/><path d=" M 1542.125 668.505 L 1547.125 668.505 L 1547.125 673.316 L 1542.125 673.316 L 1542.125 668.505 Z " fill="rgb(28,20,19)"/><path d=" M 1542.125 687.75 L 1547.125 687.75 L 1547.125 692.561 L 1542.125 692.561 L 1542.125 687.75 Z " fill="rgb(28,20,19)"/><path d=" M 1542.125 553.016 L 1547.125 553.016 L 1547.125 557.827 L 1542.125 557.827 L 1542.125 553.016 Z " fill="rgb(28,20,19)"/><path d=" M 1542.125 678.127 L 1547.125 678.127 L 1547.125 682.938 L 1542.125 682.938 L 1542.125 678.127 Z " fill="rgb(28,20,19)"/><path d=" M 1542.125 543.393 L 1547.125 543.393 L 1547.125 548.204 L 1542.125 548.204 L 1542.125 543.393 Z " fill="rgb(28,20,19)"/><path d=" M 1542.125 697.372 L 1547.125 697.372 L 1547.125 702.183 L 1542.125 702.183 L 1542.125 697.372 Z " fill="rgb(28,20,19)"/><path d=" M 1542.125 706.995 L 1547.125 706.995 L 1547.125 711.806 L 1542.125 711.806 L 1542.125 706.995 Z " fill="rgb(28,20,19)"/><path d=" M 1542.125 697.372 L 1547.125 697.372 L 1547.125 702.183 L 1542.125 702.183 L 1542.125 697.372 Z " fill="rgb(28,20,19)"/><path d=" M 1542.125 716.617 L 1547.125 716.617 L 1547.125 721.428 L 1542.125 721.428 L 1542.125 716.617 Z " fill="rgb(28,20,19)"/><path d=" M 1542.125 706.995 L 1547.125 706.995 L 1547.125 711.806 L 1542.125 711.806 L 1542.125 706.995 Z " fill="rgb(28,20,19)"/><path d=" M 1542.125 726.24 L 1547.125 726.24 L 1547.125 731.051 L 1542.125 731.051 L 1542.125 726.24 Z " fill="rgb(28,20,19)"/><path d=" M 1542.125 735.862 L 1547.125 735.862 L 1547.125 740.673 L 1542.125 740.673 L 1542.125 735.862 Z " fill="rgb(28,20,19)"/><path d=" M 1542.125 601.166 L 1547.125 601.166 L 1547.125 605.977 L 1542.125 605.977 L 1542.125 601.166 Z " fill="rgb(28,20,19)"/><path d=" M 1542.125 466.432 L 1547.125 466.432 L 1547.125 471.243 L 1542.125 471.243 L 1542.125 466.432 Z " fill="rgb(28,20,19)"/><path d=" M 1542.125 620.411 L 1547.125 620.411 L 1547.125 625.222 L 1542.125 625.222 L 1542.125 620.411 Z " fill="rgb(28,20,19)"/><path d=" M 1542.125 485.677 L 1547.125 485.677 L 1547.125 490.488 L 1542.125 490.488 L 1542.125 485.677 Z " fill="rgb(28,20,19)"/><path d=" M 1542.125 610.788 L 1547.125 610.788 L 1547.125 615.6 L 1542.125 615.6 L 1542.125 610.788 Z " fill="rgb(28,20,19)"/><path d=" M 1542.125 476.055 L 1547.125 476.055 L 1547.125 480.866 L 1542.125 480.866 L 1542.125 476.055 Z " fill="rgb(28,20,19)"/><path d=" M 1542.125 630.033 L 1547.125 630.033 L 1547.125 634.845 L 1542.125 634.845 L 1542.125 630.033 Z " fill="rgb(28,20,19)"/><path d=" M 1542.125 639.656 L 1547.125 639.656 L 1547.125 644.467 L 1542.125 644.467 L 1542.125 639.656 Z " fill="rgb(28,20,19)"/><path d=" M 1542.125 630.033 L 1547.125 630.033 L 1547.125 634.845 L 1542.125 634.845 L 1542.125 630.033 Z " fill="rgb(28,20,19)"/><path d=" M 1542.125 495.3 L 1547.125 495.3 L 1547.125 500.111 L 1542.125 500.111 L 1542.125 495.3 Z " fill="rgb(28,20,19)"/><path d=" M 1542.125 649.278 L 1547.125 649.278 L 1547.125 654.09 L 1542.125 654.09 L 1542.125 649.278 Z " fill="rgb(28,20,19)"/><path d=" M 1542.125 514.545 L 1547.125 514.545 L 1547.125 519.356 L 1542.125 519.356 L 1542.125 514.545 Z " fill="rgb(28,20,19)"/><path d=" M 1542.125 639.656 L 1547.125 639.656 L 1547.125 644.467 L 1542.125 644.467 L 1542.125 639.656 Z " fill="rgb(28,20,19)"/><path d=" M 1542.125 504.922 L 1547.125 504.922 L 1547.125 509.733 L 1542.125 509.733 L 1542.125 504.922 Z " fill="rgb(28,20,19)"/><path d=" M 1542.125 658.901 L 1547.125 658.901 L 1547.125 663.712 L 1542.125 663.712 L 1542.125 658.901 Z " fill="rgb(28,20,19)"/><path d=" M 1542.125 524.167 L 1547.125 524.167 L 1547.125 528.978 L 1542.125 528.978 L 1542.125 524.167 Z " fill="rgb(28,20,19)"/><path d=" M 1542.125 668.523 L 1547.125 668.523 L 1547.125 673.335 L 1542.125 673.335 L 1542.125 668.523 Z " fill="rgb(28,20,19)"/><path d=" M 1542.125 533.79 L 1547.125 533.79 L 1547.125 538.601 L 1542.125 538.601 L 1542.125 533.79 Z " fill="rgb(28,20,19)"/><path d=" M 1542.125 735.9 L 1547.125 735.9 L 1547.125 740.711 L 1542.125 740.711 L 1542.125 735.9 Z " fill="rgb(28,20,19)"/><path d=" M 1542.125 755.145 L 1547.125 755.145 L 1547.125 759.956 L 1542.125 759.956 L 1542.125 755.145 Z " fill="rgb(28,20,19)"/><path d=" M 1542.125 745.522 L 1547.125 745.522 L 1547.125 750.334 L 1542.125 750.334 L 1542.125 745.522 Z " fill="rgb(28,20,19)"/><path d=" M 1542.125 764.767 L 1547.125 764.767 L 1547.125 769.579 L 1542.125 769.579 L 1542.125 764.767 Z " fill="rgb(28,20,19)"/><path d=" M 1542.125 774.39 L 1547.125 774.39 L 1547.125 779.201 L 1542.125 779.201 L 1542.125 774.39 Z " fill="rgb(28,20,19)"/><path d=" M 1542.125 764.767 L 1547.125 764.767 L 1547.125 769.579 L 1542.125 769.579 L 1542.125 764.767 Z " fill="rgb(28,20,19)"/><path d=" M 1542.125 784.012 L 1547.125 784.012 L 1547.125 788.824 L 1542.125 788.824 L 1542.125 784.012 Z " fill="rgb(28,20,19)"/><path d=" M 1542.125 774.39 L 1547.125 774.39 L 1547.125 779.201 L 1542.125 779.201 L 1542.125 774.39 Z " fill="rgb(28,20,19)"/><path d=" M 1542.125 793.635 L 1547.125 793.635 L 1547.125 798.446 L 1542.125 798.446 L 1542.125 793.635 Z " fill="rgb(28,20,19)"/><path d=" M 1542.125 803.257 L 1547.125 803.257 L 1547.125 808.069 L 1542.125 808.069 L 1542.125 803.257 Z " fill="rgb(28,20,19)"/><path d=" M 1542.125 803.239 L 1547.125 803.239 L 1547.125 808.05 L 1542.125 808.05 L 1542.125 803.239 Z " fill="rgb(28,20,19)"/><path d=" M 1542.125 822.484 L 1547.125 822.484 L 1547.125 827.295 L 1542.125 827.295 L 1542.125 822.484 Z " fill="rgb(28,20,19)"/><path d=" M 1542.125 812.861 L 1547.125 812.861 L 1547.125 817.672 L 1542.125 817.672 L 1542.125 812.861 Z " fill="rgb(28,20,19)"/><path d=" M 1542.125 832.106 L 1547.125 832.106 L 1547.125 836.917 L 1542.125 836.917 L 1542.125 832.106 Z " fill="rgb(28,20,19)"/><path d=" M 1542.125 841.729 L 1547.125 841.729 L 1547.125 846.54 L 1542.125 846.54 L 1542.125 841.729 Z " fill="rgb(28,20,19)"/><path d=" M 1542.125 832.106 L 1547.125 832.106 L 1547.125 836.917 L 1542.125 836.917 L 1542.125 832.106 Z " fill="rgb(28,20,19)"/><path d=" M 1542.125 851.351 L 1547.125 851.351 L 1547.125 856.162 L 1542.125 856.162 L 1542.125 851.351 Z " fill="rgb(28,20,19)"/><path d=" M 1542.125 841.729 L 1547.125 841.729 L 1547.125 846.54 L 1542.125 846.54 L 1542.125 841.729 Z " fill="rgb(28,20,19)"/><path d=" M 1542.125 860.974 L 1547.125 860.974 L 1547.125 865.785 L 1542.125 865.785 L 1542.125 860.974 Z " fill="rgb(28,20,19)"/><path d=" M 1542.125 870.596 L 1547.125 870.596 L 1547.125 875.407 L 1542.125 875.407 L 1542.125 870.596 Z " fill="rgb(28,20,19)"/><path d=" M 1542.125 870.596 L 1547.125 870.596 L 1547.125 875.407 L 1542.125 875.407 L 1542.125 870.596 Z " fill="rgb(28,20,19)"/><path d=" M 1542.125 889.841 L 1547.125 889.841 L 1547.125 894.652 L 1542.125 894.652 L 1542.125 889.841 Z " fill="rgb(28,20,19)"/><path d=" M 1542.125 880.219 L 1547.125 880.219 L 1547.125 885.03 L 1542.125 885.03 L 1542.125 880.219 Z " fill="rgb(28,20,19)"/><path d=" M 1542.125 899.464 L 1547.125 899.464 L 1547.125 904.275 L 1542.125 904.275 L 1542.125 899.464 Z " fill="rgb(28,20,19)"/><path d=" M 1542.125 899.464 L 1547.125 899.464 L 1547.125 904.275 L 1542.125 904.275 L 1542.125 899.464 Z " fill="rgb(28,20,19)"/><path d=" M 1530.625 403.719 L 1533.125 405.162 L 1533.125 897.78 L 1530.625 896.336 L 1530.625 403.719 Z " fill="rgb(28,20,19)"/><path d=" M 1555.875 423.926 L 1558.375 425.369 L 1558.375 912.448 L 1555.875 910.77 L 1555.875 423.926 Z " fill="rgb(28,20,19)"/></g></g></svg>