<?xml version="1.0" standalone="no"?><!-- Generator: Gravit.io --><svg xmlns="http://www.w3.org/2000/svg" xmlns:xlink="http://www.w3.org/1999/xlink" style="isolation:isolate" viewBox="1890.729 184.16 162.75 763.916" width="162.75" height="763.916"><g id="Group"><g id="body-windows-color-1"><path d=" M 2018.951 247.113 L 2018.951 255.448 L 2018.951 296.187" fill="none" vector-effect="non-scaling-stroke" stroke-width="3" stroke="rgb(91,66,63)" stroke-linejoin="miter" stroke-linecap="square" stroke-miterlimit="3"/><path d=" M 2026.229 247.113 L 2026.229 255.948 L 2026.229 296.187" fill="none" vector-effect="non-scaling-stroke" stroke-width="3" stroke="rgb(91,66,63)" stroke-linejoin="miter" stroke-linecap="square" stroke-miterlimit="3"/><path d=" M 2018.951 313.065 L 2018.951 321.4 L 2018.951 362.139" fill="none" vector-effect="non-scaling-stroke" stroke-width="3" stroke="rgb(91,66,63)" stroke-linejoin="miter" stroke-linecap="square" stroke-miterlimit="3"/><path d=" M 2026.229 313.065 L 2026.229 321.9 L 2026.229 362.139" fill="none" vector-effect="non-scaling-stroke" stroke-width="3" stroke="rgb(91,66,63)" stroke-linejoin="miter" stroke-linecap="square" stroke-miterlimit="3"/><path d=" M 2018.951 378.903 L 2018.951 383.806 L 2018.951 407.771" fill="none" vector-effect="non-scaling-stroke" stroke-width="3" stroke="rgb(91,66,63)" stroke-linejoin="miter" stroke-linecap="square" stroke-miterlimit="3"/><path d=" M 2026.229 378.903 L 2026.229 384.101 L 2026.229 407.771" fill="none" vector-effect="non-scaling-stroke" stroke-width="3" stroke="rgb(91,66,63)" stroke-linejoin="miter" stroke-linecap="square" stroke-miterlimit="3"/><path d=" M 2038.479 231.957 L 2045.979 231.957 L 2045.979 237.731 L 2038.479 237.731 L 2038.479 231.957 Z " fill="rgb(91,66,63)"/><path d=" M 2038.479 255.051 L 2045.979 255.051 L 2045.979 260.825 L 2038.479 260.825 L 2038.479 255.051 Z " fill="rgb(91,66,63)"/><path d=" M 2038.479 243.504 L 2045.979 243.504 L 2045.979 249.278 L 2038.479 249.278 L 2038.479 243.504 Z " fill="rgb(91,66,63)"/><path d=" M 2038.479 266.598 L 2045.979 266.598 L 2045.979 272.372 L 2038.479 272.372 L 2038.479 266.598 Z " fill="rgb(91,66,63)"/><path d=" M 2038.479 278.145 L 2045.979 278.145 L 2045.979 283.919 L 2038.479 283.919 L 2038.479 278.145 Z " fill="rgb(91,66,63)"/><path d=" M 2037.229 562.638 L 2042.229 562.638 L 2042.229 567.449 L 2037.229 567.449 L 2037.229 562.638 Z " fill="rgb(91,66,63)"/><path d=" M 2037.229 572.261 L 2042.229 572.261 L 2042.229 577.072 L 2037.229 577.072 L 2037.229 572.261 Z " fill="rgb(91,66,63)"/><path d=" M 2037.229 562.638 L 2042.229 562.638 L 2042.229 567.449 L 2037.229 567.449 L 2037.229 562.638 Z " fill="rgb(91,66,63)"/><path d=" M 2037.229 418.282 L 2042.229 418.282 L 2042.229 423.093 L 2037.229 423.093 L 2037.229 418.282 Z " fill="rgb(91,66,63)"/><path d=" M 2037.229 408.659 L 2042.229 408.659 L 2042.229 413.47 L 2037.229 413.47 L 2037.229 408.659 Z " fill="rgb(91,66,63)"/><path d=" M 2037.229 581.883 L 2042.229 581.883 L 2042.229 586.694 L 2037.229 586.694 L 2037.229 581.883 Z " fill="rgb(91,66,63)"/><path d=" M 2037.229 437.527 L 2042.229 437.527 L 2042.229 442.338 L 2037.229 442.338 L 2037.229 437.527 Z " fill="rgb(91,66,63)"/><path d=" M 2037.229 572.261 L 2042.229 572.261 L 2042.229 577.072 L 2037.229 577.072 L 2037.229 572.261 Z " fill="rgb(91,66,63)"/><path d=" M 2037.229 427.904 L 2042.229 427.904 L 2042.229 432.715 L 2037.229 432.715 L 2037.229 427.904 Z " fill="rgb(91,66,63)"/><path d=" M 2037.229 591.506 L 2042.229 591.506 L 2042.229 596.317 L 2037.229 596.317 L 2037.229 591.506 Z " fill="rgb(91,66,63)"/><path d=" M 2037.229 447.149 L 2042.229 447.149 L 2042.229 451.96 L 2037.229 451.96 L 2037.229 447.149 Z " fill="rgb(91,66,63)"/><path d=" M 2037.229 601.128 L 2042.229 601.128 L 2042.229 605.939 L 2037.229 605.939 L 2037.229 601.128 Z " fill="rgb(91,66,63)"/><path d=" M 2037.229 668.505 L 2042.229 668.505 L 2042.229 673.316 L 2037.229 673.316 L 2037.229 668.505 Z " fill="rgb(91,66,63)"/><path d=" M 2037.229 687.75 L 2042.229 687.75 L 2042.229 692.561 L 2037.229 692.561 L 2037.229 687.75 Z " fill="rgb(91,66,63)"/><path d=" M 2037.229 543.393 L 2042.229 543.393 L 2042.229 548.204 L 2037.229 548.204 L 2037.229 543.393 Z " fill="rgb(91,66,63)"/><path d=" M 2037.229 678.127 L 2042.229 678.127 L 2042.229 682.938 L 2037.229 682.938 L 2037.229 678.127 Z " fill="rgb(91,66,63)"/><path d=" M 2037.229 533.771 L 2042.229 533.771 L 2042.229 538.582 L 2037.229 538.582 L 2037.229 533.771 Z " fill="rgb(91,66,63)"/><path d=" M 2037.229 697.372 L 2042.229 697.372 L 2042.229 702.183 L 2037.229 702.183 L 2037.229 697.372 Z " fill="rgb(91,66,63)"/><path d=" M 2037.229 706.995 L 2042.229 706.995 L 2042.229 711.806 L 2037.229 711.806 L 2037.229 706.995 Z " fill="rgb(91,66,63)"/><path d=" M 2037.229 697.372 L 2042.229 697.372 L 2042.229 702.183 L 2037.229 702.183 L 2037.229 697.372 Z " fill="rgb(91,66,63)"/><path d=" M 2037.229 553.016 L 2042.229 553.016 L 2042.229 557.827 L 2037.229 557.827 L 2037.229 553.016 Z " fill="rgb(91,66,63)"/><path d=" M 2037.229 716.617 L 2042.229 716.617 L 2042.229 721.428 L 2037.229 721.428 L 2037.229 716.617 Z " fill="rgb(91,66,63)"/><path d=" M 2037.229 706.995 L 2042.229 706.995 L 2042.229 711.806 L 2037.229 711.806 L 2037.229 706.995 Z " fill="rgb(91,66,63)"/><path d=" M 2037.229 726.24 L 2042.229 726.24 L 2042.229 731.051 L 2037.229 731.051 L 2037.229 726.24 Z " fill="rgb(91,66,63)"/><path d=" M 2037.229 735.862 L 2042.229 735.862 L 2042.229 740.673 L 2037.229 740.673 L 2037.229 735.862 Z " fill="rgb(91,66,63)"/><path d=" M 2037.229 601.166 L 2042.229 601.166 L 2042.229 605.977 L 2037.229 605.977 L 2037.229 601.166 Z " fill="rgb(91,66,63)"/><path d=" M 2037.229 456.81 L 2042.229 456.81 L 2042.229 461.621 L 2037.229 461.621 L 2037.229 456.81 Z " fill="rgb(91,66,63)"/><path d=" M 2037.229 620.411 L 2042.229 620.411 L 2042.229 625.222 L 2037.229 625.222 L 2037.229 620.411 Z " fill="rgb(91,66,63)"/><path d=" M 2037.229 476.055 L 2042.229 476.055 L 2042.229 480.866 L 2037.229 480.866 L 2037.229 476.055 Z " fill="rgb(91,66,63)"/><path d=" M 2037.229 610.788 L 2042.229 610.788 L 2042.229 615.6 L 2037.229 615.6 L 2037.229 610.788 Z " fill="rgb(91,66,63)"/><path d=" M 2037.229 466.432 L 2042.229 466.432 L 2042.229 471.243 L 2037.229 471.243 L 2037.229 466.432 Z " fill="rgb(91,66,63)"/><path d=" M 2037.229 630.033 L 2042.229 630.033 L 2042.229 634.845 L 2037.229 634.845 L 2037.229 630.033 Z " fill="rgb(91,66,63)"/><path d=" M 2037.229 639.656 L 2042.229 639.656 L 2042.229 644.467 L 2037.229 644.467 L 2037.229 639.656 Z " fill="rgb(91,66,63)"/><path d=" M 2037.229 630.033 L 2042.229 630.033 L 2042.229 634.845 L 2037.229 634.845 L 2037.229 630.033 Z " fill="rgb(91,66,63)"/><path d=" M 2037.229 485.677 L 2042.229 485.677 L 2042.229 490.488 L 2037.229 490.488 L 2037.229 485.677 Z " fill="rgb(91,66,63)"/><path d=" M 2037.229 649.278 L 2042.229 649.278 L 2042.229 654.09 L 2037.229 654.09 L 2037.229 649.278 Z " fill="rgb(91,66,63)"/><path d=" M 2037.229 504.922 L 2042.229 504.922 L 2042.229 509.733 L 2037.229 509.733 L 2037.229 504.922 Z " fill="rgb(91,66,63)"/><path d=" M 2037.229 639.656 L 2042.229 639.656 L 2042.229 644.467 L 2037.229 644.467 L 2037.229 639.656 Z " fill="rgb(91,66,63)"/><path d=" M 2037.229 495.3 L 2042.229 495.3 L 2042.229 500.111 L 2037.229 500.111 L 2037.229 495.3 Z " fill="rgb(91,66,63)"/><path d=" M 2037.229 658.901 L 2042.229 658.901 L 2042.229 663.712 L 2037.229 663.712 L 2037.229 658.901 Z " fill="rgb(91,66,63)"/><path d=" M 2037.229 514.545 L 2042.229 514.545 L 2042.229 519.356 L 2037.229 519.356 L 2037.229 514.545 Z " fill="rgb(91,66,63)"/><path d=" M 2037.229 668.523 L 2042.229 668.523 L 2042.229 673.335 L 2037.229 673.335 L 2037.229 668.523 Z " fill="rgb(91,66,63)"/><path d=" M 2037.229 524.167 L 2042.229 524.167 L 2042.229 528.978 L 2037.229 528.978 L 2037.229 524.167 Z " fill="rgb(91,66,63)"/><path d=" M 2037.229 735.9 L 2042.229 735.9 L 2042.229 740.711 L 2037.229 740.711 L 2037.229 735.9 Z " fill="rgb(91,66,63)"/><path d=" M 2037.229 755.145 L 2042.229 755.145 L 2042.229 759.956 L 2037.229 759.956 L 2037.229 755.145 Z " fill="rgb(91,66,63)"/><path d=" M 2037.229 745.522 L 2042.229 745.522 L 2042.229 750.334 L 2037.229 750.334 L 2037.229 745.522 Z " fill="rgb(91,66,63)"/><path d=" M 2037.229 764.767 L 2042.229 764.767 L 2042.229 769.579 L 2037.229 769.579 L 2037.229 764.767 Z " fill="rgb(91,66,63)"/><path d=" M 2037.229 774.39 L 2042.229 774.39 L 2042.229 779.201 L 2037.229 779.201 L 2037.229 774.39 Z " fill="rgb(91,66,63)"/><path d=" M 2037.229 764.767 L 2042.229 764.767 L 2042.229 769.579 L 2037.229 769.579 L 2037.229 764.767 Z " fill="rgb(91,66,63)"/><path d=" M 2037.229 784.012 L 2042.229 784.012 L 2042.229 788.824 L 2037.229 788.824 L 2037.229 784.012 Z " fill="rgb(91,66,63)"/><path d=" M 2037.229 774.39 L 2042.229 774.39 L 2042.229 779.201 L 2037.229 779.201 L 2037.229 774.39 Z " fill="rgb(91,66,63)"/><path d=" M 2037.229 793.635 L 2042.229 793.635 L 2042.229 798.446 L 2037.229 798.446 L 2037.229 793.635 Z " fill="rgb(91,66,63)"/><path d=" M 2037.229 803.257 L 2042.229 803.257 L 2042.229 808.069 L 2037.229 808.069 L 2037.229 803.257 Z " fill="rgb(91,66,63)"/><path d=" M 2037.229 803.239 L 2042.229 803.239 L 2042.229 808.05 L 2037.229 808.05 L 2037.229 803.239 Z " fill="rgb(91,66,63)"/><path d=" M 2037.229 822.484 L 2042.229 822.484 L 2042.229 827.295 L 2037.229 827.295 L 2037.229 822.484 Z " fill="rgb(91,66,63)"/><path d=" M 2037.229 812.861 L 2042.229 812.861 L 2042.229 817.672 L 2037.229 817.672 L 2037.229 812.861 Z " fill="rgb(91,66,63)"/><path d=" M 2037.229 832.106 L 2042.229 832.106 L 2042.229 836.917 L 2037.229 836.917 L 2037.229 832.106 Z " fill="rgb(91,66,63)"/><path d=" M 2037.229 841.729 L 2042.229 841.729 L 2042.229 846.54 L 2037.229 846.54 L 2037.229 841.729 Z " fill="rgb(91,66,63)"/><path d=" M 2037.229 832.106 L 2042.229 832.106 L 2042.229 836.917 L 2037.229 836.917 L 2037.229 832.106 Z " fill="rgb(91,66,63)"/><path d=" M 2037.229 851.351 L 2042.229 851.351 L 2042.229 856.162 L 2037.229 856.162 L 2037.229 851.351 Z " fill="rgb(91,66,63)"/><path d=" M 2037.229 841.729 L 2042.229 841.729 L 2042.229 846.54 L 2037.229 846.54 L 2037.229 841.729 Z " fill="rgb(91,66,63)"/><path d=" M 2037.229 860.974 L 2042.229 860.974 L 2042.229 865.785 L 2037.229 865.785 L 2037.229 860.974 Z " fill="rgb(91,66,63)"/><path d=" M 2037.229 870.596 L 2042.229 870.596 L 2042.229 875.407 L 2037.229 875.407 L 2037.229 870.596 Z " fill="rgb(91,66,63)"/><path d=" M 2037.229 870.596 L 2042.229 870.596 L 2042.229 875.407 L 2037.229 875.407 L 2037.229 870.596 Z " fill="rgb(91,66,63)"/><path d=" M 2037.229 889.841 L 2042.229 889.841 L 2042.229 894.652 L 2037.229 894.652 L 2037.229 889.841 Z " fill="rgb(91,66,63)"/><path d=" M 2037.229 880.219 L 2042.229 880.219 L 2042.229 885.03 L 2037.229 885.03 L 2037.229 880.219 Z " fill="rgb(91,66,63)"/><path d=" M 2037.229 899.464 L 2042.229 899.464 L 2042.229 904.275 L 2037.229 904.275 L 2037.229 899.464 Z " fill="rgb(91,66,63)"/><path d=" M 2037.229 899.464 L 2042.229 899.464 L 2042.229 904.275 L 2037.229 904.275 L 2037.229 899.464 Z " fill="rgb(91,66,63)"/><path d=" M 2038.479 301.961 L 2045.979 301.961 L 2045.979 307.734 L 2038.479 307.734 L 2038.479 301.961 Z " fill="rgb(91,66,63)"/><path d=" M 2038.479 325.055 L 2045.979 325.055 L 2045.979 330.828 L 2038.479 330.828 L 2038.479 325.055 Z " fill="rgb(91,66,63)"/><path d=" M 2038.479 313.508 L 2045.979 313.508 L 2045.979 319.281 L 2038.479 319.281 L 2038.479 313.508 Z " fill="rgb(91,66,63)"/><path d=" M 2038.479 336.602 L 2045.979 336.602 L 2045.979 342.375 L 2038.479 342.375 L 2038.479 336.602 Z " fill="rgb(91,66,63)"/><path d=" M 2038.479 359.696 L 2045.979 359.696 L 2045.979 365.469 L 2038.479 365.469 L 2038.479 359.696 Z " fill="rgb(91,66,63)"/><path d=" M 2038.479 348.149 L 2045.979 348.149 L 2045.979 353.922 L 2038.479 353.922 L 2038.479 348.149 Z " fill="rgb(91,66,63)"/><path d=" M 2038.479 371.243 L 2045.979 371.243 L 2045.979 377.016 L 2038.479 377.016 L 2038.479 371.243 Z " fill="rgb(91,66,63)"/><path d=" M 2038.479 382.79 L 2045.979 382.79 L 2045.979 388.563 L 2038.479 388.563 L 2038.479 382.79 Z " fill="rgb(91,66,63)"/><path d=" M 2028.479 423.926 L 2025.979 425.369 L 2025.979 912.448 L 2028.479 910.77 L 2028.479 423.926 Z " fill="rgb(91,66,63)"/><path d=" M 2053.479 403.719 L 2050.979 405.162 L 2050.979 897.78 L 2053.479 896.336 L 2053.479 403.719 Z " fill="rgb(91,66,63)"/></g><path d=" M 1928.479 423.926 L 1925.979 425.369 L 1925.979 912.448 L 1928.479 910.77 L 1928.479 423.926 Z " fill="rgb(91,66,63)"/><path d=" M 2015.979 423.926 L 2018.479 425.369 L 2018.479 912.448 L 2015.979 910.77 L 2015.979 423.926 Z " fill="rgb(59,43,41)"/><g id="body-windows-color-3"><path d=" M 1925.688 247.113 L 1925.688 255.448 L 1925.688 296.187" fill="none" vector-effect="non-scaling-stroke" stroke-width="3" stroke="rgb(28,20,19)" stroke-linejoin="miter" stroke-linecap="square" stroke-miterlimit="3"/><path d=" M 1918.41 247.113 L 1918.41 255.948 L 1918.41 296.187" fill="none" vector-effect="non-scaling-stroke" stroke-width="3" stroke="rgb(28,20,19)" stroke-linejoin="miter" stroke-linecap="square" stroke-miterlimit="3"/><path d=" M 1925.688 313.065 L 1925.688 321.4 L 1925.688 362.139" fill="none" vector-effect="non-scaling-stroke" stroke-width="3" stroke="rgb(28,20,19)" stroke-linejoin="miter" stroke-linecap="square" stroke-miterlimit="3"/><path d=" M 1918.41 313.065 L 1918.41 321.9 L 1918.41 362.139" fill="none" vector-effect="non-scaling-stroke" stroke-width="3" stroke="rgb(28,20,19)" stroke-linejoin="miter" stroke-linecap="square" stroke-miterlimit="3"/><path d=" M 1925.688 378.903 L 1925.688 383.806 L 1925.688 407.771" fill="none" vector-effect="non-scaling-stroke" stroke-width="3" stroke="rgb(28,20,19)" stroke-linejoin="miter" stroke-linecap="square" stroke-miterlimit="3"/><path d=" M 1918.41 378.903 L 1918.41 384.101 L 1918.41 407.771" fill="none" vector-effect="non-scaling-stroke" stroke-width="3" stroke="rgb(28,20,19)" stroke-linejoin="miter" stroke-linecap="square" stroke-miterlimit="3"/><path d=" M 1898.479 231.957 L 1905.979 231.957 L 1905.979 237.731 L 1898.479 237.731 L 1898.479 231.957 Z " fill="rgb(28,20,19)"/><path d=" M 1898.479 255.051 L 1905.979 255.051 L 1905.979 260.825 L 1898.479 260.825 L 1898.479 255.051 Z " fill="rgb(28,20,19)"/><path d=" M 1898.479 243.504 L 1905.979 243.504 L 1905.979 249.278 L 1898.479 249.278 L 1898.479 243.504 Z " fill="rgb(28,20,19)"/><path d=" M 1898.479 266.598 L 1905.979 266.598 L 1905.979 272.372 L 1898.479 272.372 L 1898.479 266.598 Z " fill="rgb(28,20,19)"/><path d=" M 1898.479 278.145 L 1905.979 278.145 L 1905.979 283.919 L 1898.479 283.919 L 1898.479 278.145 Z " fill="rgb(28,20,19)"/><path d=" M 1898.479 301.961 L 1905.979 301.961 L 1905.979 307.734 L 1898.479 307.734 L 1898.479 301.961 Z " fill="rgb(28,20,19)"/><path d=" M 1898.479 325.055 L 1905.979 325.055 L 1905.979 330.828 L 1898.479 330.828 L 1898.479 325.055 Z " fill="rgb(28,20,19)"/><path d=" M 1898.479 313.508 L 1905.979 313.508 L 1905.979 319.281 L 1898.479 319.281 L 1898.479 313.508 Z " fill="rgb(28,20,19)"/><path d=" M 1898.479 336.602 L 1905.979 336.602 L 1905.979 342.375 L 1898.479 342.375 L 1898.479 336.602 Z " fill="rgb(28,20,19)"/><path d=" M 1898.479 348.149 L 1905.979 348.149 L 1905.979 353.922 L 1898.479 353.922 L 1898.479 348.149 Z " fill="rgb(28,20,19)"/><path d=" M 1898.479 336.602 L 1905.979 336.602 L 1905.979 342.375 L 1898.479 342.375 L 1898.479 336.602 Z " fill="rgb(28,20,19)"/><path d=" M 1898.479 359.696 L 1905.979 359.696 L 1905.979 365.469 L 1898.479 365.469 L 1898.479 359.696 Z " fill="rgb(28,20,19)"/><path d=" M 1898.479 348.149 L 1905.979 348.149 L 1905.979 353.922 L 1898.479 353.922 L 1898.479 348.149 Z " fill="rgb(28,20,19)"/><path d=" M 1898.479 371.243 L 1905.979 371.243 L 1905.979 377.016 L 1898.479 377.016 L 1898.479 371.243 Z " fill="rgb(28,20,19)"/><path d=" M 1898.479 382.79 L 1905.979 382.79 L 1905.979 388.563 L 1898.479 388.563 L 1898.479 382.79 Z " fill="rgb(28,20,19)"/><path d=" M 1902.229 562.638 L 1907.229 562.638 L 1907.229 567.449 L 1902.229 567.449 L 1902.229 562.638 Z " fill="rgb(28,20,19)"/><path d=" M 1902.229 572.261 L 1907.229 572.261 L 1907.229 577.072 L 1902.229 577.072 L 1902.229 572.261 Z " fill="rgb(28,20,19)"/><path d=" M 1902.229 562.638 L 1907.229 562.638 L 1907.229 567.449 L 1902.229 567.449 L 1902.229 562.638 Z " fill="rgb(28,20,19)"/><path d=" M 1902.229 427.904 L 1907.229 427.904 L 1907.229 432.715 L 1902.229 432.715 L 1902.229 427.904 Z " fill="rgb(28,20,19)"/><path d=" M 1902.229 408.659 L 1907.229 408.659 L 1907.229 413.47 L 1902.229 413.47 L 1902.229 408.659 Z " fill="rgb(28,20,19)"/><path d=" M 1902.229 581.883 L 1907.229 581.883 L 1907.229 586.694 L 1902.229 586.694 L 1902.229 581.883 Z " fill="rgb(28,20,19)"/><path d=" M 1902.229 447.149 L 1907.229 447.149 L 1907.229 451.96 L 1902.229 451.96 L 1902.229 447.149 Z " fill="rgb(28,20,19)"/><path d=" M 1902.229 572.261 L 1907.229 572.261 L 1907.229 577.072 L 1902.229 577.072 L 1902.229 572.261 Z " fill="rgb(28,20,19)"/><path d=" M 1902.229 437.527 L 1907.229 437.527 L 1907.229 442.338 L 1902.229 442.338 L 1902.229 437.527 Z " fill="rgb(28,20,19)"/><path d=" M 1902.229 418.282 L 1907.229 418.282 L 1907.229 423.093 L 1902.229 423.093 L 1902.229 418.282 Z " fill="rgb(28,20,19)"/><path d=" M 1902.229 591.506 L 1907.229 591.506 L 1907.229 596.317 L 1902.229 596.317 L 1902.229 591.506 Z " fill="rgb(28,20,19)"/><path d=" M 1902.229 456.772 L 1907.229 456.772 L 1907.229 461.583 L 1902.229 461.583 L 1902.229 456.772 Z " fill="rgb(28,20,19)"/><path d=" M 1902.229 601.128 L 1907.229 601.128 L 1907.229 605.939 L 1902.229 605.939 L 1902.229 601.128 Z " fill="rgb(28,20,19)"/><path d=" M 1902.229 668.505 L 1907.229 668.505 L 1907.229 673.316 L 1902.229 673.316 L 1902.229 668.505 Z " fill="rgb(28,20,19)"/><path d=" M 1902.229 687.75 L 1907.229 687.75 L 1907.229 692.561 L 1902.229 692.561 L 1902.229 687.75 Z " fill="rgb(28,20,19)"/><path d=" M 1902.229 553.016 L 1907.229 553.016 L 1907.229 557.827 L 1902.229 557.827 L 1902.229 553.016 Z " fill="rgb(28,20,19)"/><path d=" M 1902.229 678.127 L 1907.229 678.127 L 1907.229 682.938 L 1902.229 682.938 L 1902.229 678.127 Z " fill="rgb(28,20,19)"/><path d=" M 1902.229 543.393 L 1907.229 543.393 L 1907.229 548.204 L 1902.229 548.204 L 1902.229 543.393 Z " fill="rgb(28,20,19)"/><path d=" M 1902.229 697.372 L 1907.229 697.372 L 1907.229 702.183 L 1902.229 702.183 L 1902.229 697.372 Z " fill="rgb(28,20,19)"/><path d=" M 1902.229 706.995 L 1907.229 706.995 L 1907.229 711.806 L 1902.229 711.806 L 1902.229 706.995 Z " fill="rgb(28,20,19)"/><path d=" M 1902.229 697.372 L 1907.229 697.372 L 1907.229 702.183 L 1902.229 702.183 L 1902.229 697.372 Z " fill="rgb(28,20,19)"/><path d=" M 1902.229 716.617 L 1907.229 716.617 L 1907.229 721.428 L 1902.229 721.428 L 1902.229 716.617 Z " fill="rgb(28,20,19)"/><path d=" M 1902.229 706.995 L 1907.229 706.995 L 1907.229 711.806 L 1902.229 711.806 L 1902.229 706.995 Z " fill="rgb(28,20,19)"/><path d=" M 1902.229 726.24 L 1907.229 726.24 L 1907.229 731.051 L 1902.229 731.051 L 1902.229 726.24 Z " fill="rgb(28,20,19)"/><path d=" M 1902.229 735.862 L 1907.229 735.862 L 1907.229 740.673 L 1902.229 740.673 L 1902.229 735.862 Z " fill="rgb(28,20,19)"/><path d=" M 1902.229 601.166 L 1907.229 601.166 L 1907.229 605.977 L 1902.229 605.977 L 1902.229 601.166 Z " fill="rgb(28,20,19)"/><path d=" M 1902.229 466.432 L 1907.229 466.432 L 1907.229 471.243 L 1902.229 471.243 L 1902.229 466.432 Z " fill="rgb(28,20,19)"/><path d=" M 1902.229 620.411 L 1907.229 620.411 L 1907.229 625.222 L 1902.229 625.222 L 1902.229 620.411 Z " fill="rgb(28,20,19)"/><path d=" M 1902.229 485.677 L 1907.229 485.677 L 1907.229 490.488 L 1902.229 490.488 L 1902.229 485.677 Z " fill="rgb(28,20,19)"/><path d=" M 1902.229 610.788 L 1907.229 610.788 L 1907.229 615.6 L 1902.229 615.6 L 1902.229 610.788 Z " fill="rgb(28,20,19)"/><path d=" M 1902.229 476.055 L 1907.229 476.055 L 1907.229 480.866 L 1902.229 480.866 L 1902.229 476.055 Z " fill="rgb(28,20,19)"/><path d=" M 1902.229 630.033 L 1907.229 630.033 L 1907.229 634.845 L 1902.229 634.845 L 1902.229 630.033 Z " fill="rgb(28,20,19)"/><path d=" M 1902.229 639.656 L 1907.229 639.656 L 1907.229 644.467 L 1902.229 644.467 L 1902.229 639.656 Z " fill="rgb(28,20,19)"/><path d=" M 1902.229 630.033 L 1907.229 630.033 L 1907.229 634.845 L 1902.229 634.845 L 1902.229 630.033 Z " fill="rgb(28,20,19)"/><path d=" M 1902.229 495.3 L 1907.229 495.3 L 1907.229 500.111 L 1902.229 500.111 L 1902.229 495.3 Z " fill="rgb(28,20,19)"/><path d=" M 1902.229 649.278 L 1907.229 649.278 L 1907.229 654.09 L 1902.229 654.09 L 1902.229 649.278 Z " fill="rgb(28,20,19)"/><path d=" M 1902.229 514.545 L 1907.229 514.545 L 1907.229 519.356 L 1902.229 519.356 L 1902.229 514.545 Z " fill="rgb(28,20,19)"/><path d=" M 1902.229 639.656 L 1907.229 639.656 L 1907.229 644.467 L 1902.229 644.467 L 1902.229 639.656 Z " fill="rgb(28,20,19)"/><path d=" M 1902.229 504.922 L 1907.229 504.922 L 1907.229 509.733 L 1902.229 509.733 L 1902.229 504.922 Z " fill="rgb(28,20,19)"/><path d=" M 1902.229 658.901 L 1907.229 658.901 L 1907.229 663.712 L 1902.229 663.712 L 1902.229 658.901 Z " fill="rgb(28,20,19)"/><path d=" M 1902.229 524.167 L 1907.229 524.167 L 1907.229 528.978 L 1902.229 528.978 L 1902.229 524.167 Z " fill="rgb(28,20,19)"/><path d=" M 1902.229 668.523 L 1907.229 668.523 L 1907.229 673.335 L 1902.229 673.335 L 1902.229 668.523 Z " fill="rgb(28,20,19)"/><path d=" M 1902.229 533.79 L 1907.229 533.79 L 1907.229 538.601 L 1902.229 538.601 L 1902.229 533.79 Z " fill="rgb(28,20,19)"/><path d=" M 1902.229 735.9 L 1907.229 735.9 L 1907.229 740.711 L 1902.229 740.711 L 1902.229 735.9 Z " fill="rgb(28,20,19)"/><path d=" M 1902.229 755.145 L 1907.229 755.145 L 1907.229 759.956 L 1902.229 759.956 L 1902.229 755.145 Z " fill="rgb(28,20,19)"/><path d=" M 1902.229 745.522 L 1907.229 745.522 L 1907.229 750.334 L 1902.229 750.334 L 1902.229 745.522 Z " fill="rgb(28,20,19)"/><path d=" M 1902.229 764.767 L 1907.229 764.767 L 1907.229 769.579 L 1902.229 769.579 L 1902.229 764.767 Z " fill="rgb(28,20,19)"/><path d=" M 1902.229 774.39 L 1907.229 774.39 L 1907.229 779.201 L 1902.229 779.201 L 1902.229 774.39 Z " fill="rgb(28,20,19)"/><path d=" M 1902.229 764.767 L 1907.229 764.767 L 1907.229 769.579 L 1902.229 769.579 L 1902.229 764.767 Z " fill="rgb(28,20,19)"/><path d=" M 1902.229 784.012 L 1907.229 784.012 L 1907.229 788.824 L 1902.229 788.824 L 1902.229 784.012 Z " fill="rgb(28,20,19)"/><path d=" M 1902.229 774.39 L 1907.229 774.39 L 1907.229 779.201 L 1902.229 779.201 L 1902.229 774.39 Z " fill="rgb(28,20,19)"/><path d=" M 1902.229 793.635 L 1907.229 793.635 L 1907.229 798.446 L 1902.229 798.446 L 1902.229 793.635 Z " fill="rgb(28,20,19)"/><path d=" M 1902.229 803.257 L 1907.229 803.257 L 1907.229 808.069 L 1902.229 808.069 L 1902.229 803.257 Z " fill="rgb(28,20,19)"/><path d=" M 1902.229 803.239 L 1907.229 803.239 L 1907.229 808.05 L 1902.229 808.05 L 1902.229 803.239 Z " fill="rgb(28,20,19)"/><path d=" M 1902.229 822.484 L 1907.229 822.484 L 1907.229 827.295 L 1902.229 827.295 L 1902.229 822.484 Z " fill="rgb(28,20,19)"/><path d=" M 1902.229 812.861 L 1907.229 812.861 L 1907.229 817.672 L 1902.229 817.672 L 1902.229 812.861 Z " fill="rgb(28,20,19)"/><path d=" M 1902.229 832.106 L 1907.229 832.106 L 1907.229 836.917 L 1902.229 836.917 L 1902.229 832.106 Z " fill="rgb(28,20,19)"/><path d=" M 1902.229 841.729 L 1907.229 841.729 L 1907.229 846.54 L 1902.229 846.54 L 1902.229 841.729 Z " fill="rgb(28,20,19)"/><path d=" M 1902.229 832.106 L 1907.229 832.106 L 1907.229 836.917 L 1902.229 836.917 L 1902.229 832.106 Z " fill="rgb(28,20,19)"/><path d=" M 1902.229 851.351 L 1907.229 851.351 L 1907.229 856.162 L 1902.229 856.162 L 1902.229 851.351 Z " fill="rgb(28,20,19)"/><path d=" M 1902.229 841.729 L 1907.229 841.729 L 1907.229 846.54 L 1902.229 846.54 L 1902.229 841.729 Z " fill="rgb(28,20,19)"/><path d=" M 1902.229 860.974 L 1907.229 860.974 L 1907.229 865.785 L 1902.229 865.785 L 1902.229 860.974 Z " fill="rgb(28,20,19)"/><path d=" M 1902.229 870.596 L 1907.229 870.596 L 1907.229 875.407 L 1902.229 875.407 L 1902.229 870.596 Z " fill="rgb(28,20,19)"/><path d=" M 1902.229 870.596 L 1907.229 870.596 L 1907.229 875.407 L 1902.229 875.407 L 1902.229 870.596 Z " fill="rgb(28,20,19)"/><path d=" M 1902.229 889.841 L 1907.229 889.841 L 1907.229 894.652 L 1902.229 894.652 L 1902.229 889.841 Z " fill="rgb(28,20,19)"/><path d=" M 1902.229 880.219 L 1907.229 880.219 L 1907.229 885.03 L 1902.229 885.03 L 1902.229 880.219 Z " fill="rgb(28,20,19)"/><path d=" M 1902.229 899.464 L 1907.229 899.464 L 1907.229 904.275 L 1902.229 904.275 L 1902.229 899.464 Z " fill="rgb(28,20,19)"/><path d=" M 1902.229 899.464 L 1907.229 899.464 L 1907.229 904.275 L 1902.229 904.275 L 1902.229 899.464 Z " fill="rgb(28,20,19)"/><path d=" M 1890.729 403.719 L 1893.229 405.162 L 1893.229 897.78 L 1890.729 896.336 L 1890.729 403.719 Z " fill="rgb(28,20,19)"/><path d=" M 1915.979 423.926 L 1918.479 425.369 L 1918.479 912.448 L 1915.979 910.77 L 1915.979 423.926 Z " fill="rgb(28,20,19)"/></g><g id="Group"><line x1="1939.604" y1="193.12" x2="2004.604" y2="193.12" vector-effect="non-scaling-stroke" stroke-width="3" stroke="rgb(59,43,41)" stroke-linejoin="miter" stroke-linecap="square" stroke-miterlimit="3"/><line x1="1939.604" y1="484.058" x2="2004.604" y2="484.058" vector-effect="non-scaling-stroke" stroke-width="3" stroke="rgb(59,43,41)" stroke-linejoin="miter" stroke-linecap="square" stroke-miterlimit="3"/><line x1="1939.604" y1="469.138" x2="2004.604" y2="469.138" vector-effect="non-scaling-stroke" stroke-width="3" stroke="rgb(59,43,41)" stroke-linejoin="miter" stroke-linecap="square" stroke-miterlimit="3"/><line x1="1939.604" y1="215.499" x2="2004.604" y2="215.499" vector-effect="non-scaling-stroke" stroke-width="3" stroke="rgb(59,43,41)" stroke-linejoin="miter" stroke-linecap="square" stroke-miterlimit="3"/><line x1="1939.604" y1="461.678" x2="2004.604" y2="461.678" vector-effect="non-scaling-stroke" stroke-width="3" stroke="rgb(59,43,41)" stroke-linejoin="miter" stroke-linecap="square" stroke-miterlimit="3"/><line x1="1939.604" y1="222.959" x2="2004.604" y2="222.959" vector-effect="non-scaling-stroke" stroke-width="3" stroke="rgb(59,43,41)" stroke-linejoin="miter" stroke-linecap="square" stroke-miterlimit="3"/><line x1="1939.604" y1="230.419" x2="2004.604" y2="230.419" vector-effect="non-scaling-stroke" stroke-width="3" stroke="rgb(59,43,41)" stroke-linejoin="miter" stroke-linecap="square" stroke-miterlimit="3"/><line x1="1939.604" y1="237.879" x2="2004.604" y2="237.879" vector-effect="non-scaling-stroke" stroke-width="3" stroke="rgb(59,43,41)" stroke-linejoin="miter" stroke-linecap="square" stroke-miterlimit="3"/><line x1="1939.604" y1="752.617" x2="2004.604" y2="752.617" vector-effect="non-scaling-stroke" stroke-width="3" stroke="rgb(59,43,41)" stroke-linejoin="miter" stroke-linecap="square" stroke-miterlimit="3"/><line x1="1939.604" y1="252.799" x2="2004.604" y2="252.799" vector-effect="non-scaling-stroke" stroke-width="3" stroke="rgb(59,43,41)" stroke-linejoin="miter" stroke-linecap="square" stroke-miterlimit="3"/><line x1="1939.604" y1="722.777" x2="2004.604" y2="722.777" vector-effect="non-scaling-stroke" stroke-width="3" stroke="rgb(59,43,41)" stroke-linejoin="miter" stroke-linecap="square" stroke-miterlimit="3"/><line x1="1939.604" y1="715.317" x2="2004.604" y2="715.317" vector-effect="non-scaling-stroke" stroke-width="3" stroke="rgb(59,43,41)" stroke-linejoin="miter" stroke-linecap="square" stroke-miterlimit="3"/><line x1="1939.604" y1="275.179" x2="2004.604" y2="275.179" vector-effect="non-scaling-stroke" stroke-width="3" stroke="rgb(59,43,41)" stroke-linejoin="miter" stroke-linecap="square" stroke-miterlimit="3"/><line x1="1939.604" y1="707.857" x2="2004.604" y2="707.857" vector-effect="non-scaling-stroke" stroke-width="3" stroke="rgb(59,43,41)" stroke-linejoin="miter" stroke-linecap="square" stroke-miterlimit="3"/><line x1="1939.604" y1="290.099" x2="2004.604" y2="290.099" vector-effect="non-scaling-stroke" stroke-width="3" stroke="rgb(59,43,41)" stroke-linejoin="miter" stroke-linecap="square" stroke-miterlimit="3"/><line x1="1939.604" y1="670.557" x2="2004.604" y2="670.557" vector-effect="non-scaling-stroke" stroke-width="3" stroke="rgb(59,43,41)" stroke-linejoin="miter" stroke-linecap="square" stroke-miterlimit="3"/><line x1="1939.604" y1="685.477" x2="2004.604" y2="685.477" vector-effect="non-scaling-stroke" stroke-width="3" stroke="rgb(59,43,41)" stroke-linejoin="miter" stroke-linecap="square" stroke-miterlimit="3"/><line x1="1939.604" y1="312.479" x2="2004.604" y2="312.479" vector-effect="non-scaling-stroke" stroke-width="3" stroke="rgb(59,43,41)" stroke-linejoin="miter" stroke-linecap="square" stroke-miterlimit="3"/><line x1="1939.604" y1="319.939" x2="2004.604" y2="319.939" vector-effect="non-scaling-stroke" stroke-width="3" stroke="rgb(59,43,41)" stroke-linejoin="miter" stroke-linecap="square" stroke-miterlimit="3"/><line x1="1939.604" y1="327.399" x2="2004.604" y2="327.399" vector-effect="non-scaling-stroke" stroke-width="3" stroke="rgb(59,43,41)" stroke-linejoin="miter" stroke-linecap="square" stroke-miterlimit="3"/><line x1="1939.604" y1="334.859" x2="2004.604" y2="334.859" vector-effect="non-scaling-stroke" stroke-width="3" stroke="rgb(59,43,41)" stroke-linejoin="miter" stroke-linecap="square" stroke-miterlimit="3"/><line x1="1939.604" y1="342.319" x2="2004.604" y2="342.319" vector-effect="non-scaling-stroke" stroke-width="3" stroke="rgb(59,43,41)" stroke-linejoin="miter" stroke-linecap="square" stroke-miterlimit="3"/><line x1="1939.604" y1="349.779" x2="2004.604" y2="349.779" vector-effect="non-scaling-stroke" stroke-width="3" stroke="rgb(59,43,41)" stroke-linejoin="miter" stroke-linecap="square" stroke-miterlimit="3"/><line x1="1939.604" y1="357.239" x2="2004.604" y2="357.239" vector-effect="non-scaling-stroke" stroke-width="3" stroke="rgb(59,43,41)" stroke-linejoin="miter" stroke-linecap="square" stroke-miterlimit="3"/><line x1="1939.604" y1="364.699" x2="2004.604" y2="364.699" vector-effect="non-scaling-stroke" stroke-width="3" stroke="rgb(59,43,41)" stroke-linejoin="miter" stroke-linecap="square" stroke-miterlimit="3"/><line x1="1939.604" y1="372.159" x2="2004.604" y2="372.159" vector-effect="non-scaling-stroke" stroke-width="3" stroke="rgb(59,43,41)" stroke-linejoin="miter" stroke-linecap="square" stroke-miterlimit="3"/><line x1="1939.604" y1="379.619" x2="2004.604" y2="379.619" vector-effect="non-scaling-stroke" stroke-width="3" stroke="rgb(59,43,41)" stroke-linejoin="miter" stroke-linecap="square" stroke-miterlimit="3"/><line x1="1939.604" y1="387.079" x2="2004.604" y2="387.079" vector-effect="non-scaling-stroke" stroke-width="3" stroke="rgb(59,43,41)" stroke-linejoin="miter" stroke-linecap="square" stroke-miterlimit="3"/><line x1="1939.604" y1="394.539" x2="2004.604" y2="394.539" vector-effect="non-scaling-stroke" stroke-width="3" stroke="rgb(59,43,41)" stroke-linejoin="miter" stroke-linecap="square" stroke-miterlimit="3"/><line x1="1939.604" y1="678.017" x2="2004.604" y2="678.017" vector-effect="non-scaling-stroke" stroke-width="3" stroke="rgb(59,43,41)" stroke-linejoin="miter" stroke-linecap="square" stroke-miterlimit="3"/><line x1="1939.604" y1="409.459" x2="2004.604" y2="409.459" vector-effect="non-scaling-stroke" stroke-width="3" stroke="rgb(59,43,41)" stroke-linejoin="miter" stroke-linecap="square" stroke-miterlimit="3"/><line x1="1939.604" y1="640.718" x2="2004.604" y2="640.718" vector-effect="non-scaling-stroke" stroke-width="3" stroke="rgb(59,43,41)" stroke-linejoin="miter" stroke-linecap="square" stroke-miterlimit="3"/><line x1="1939.604" y1="633.258" x2="2004.604" y2="633.258" vector-effect="non-scaling-stroke" stroke-width="3" stroke="rgb(59,43,41)" stroke-linejoin="miter" stroke-linecap="square" stroke-miterlimit="3"/><line x1="1939.604" y1="625.798" x2="2004.604" y2="625.798" vector-effect="non-scaling-stroke" stroke-width="3" stroke="rgb(59,43,41)" stroke-linejoin="miter" stroke-linecap="square" stroke-miterlimit="3"/><line x1="1939.604" y1="618.338" x2="2004.604" y2="618.338" vector-effect="non-scaling-stroke" stroke-width="3" stroke="rgb(59,43,41)" stroke-linejoin="miter" stroke-linecap="square" stroke-miterlimit="3"/><line x1="1939.604" y1="610.878" x2="2004.604" y2="610.878" vector-effect="non-scaling-stroke" stroke-width="3" stroke="rgb(59,43,41)" stroke-linejoin="miter" stroke-linecap="square" stroke-miterlimit="3"/><line x1="1939.604" y1="603.418" x2="2004.604" y2="603.418" vector-effect="non-scaling-stroke" stroke-width="3" stroke="rgb(59,43,41)" stroke-linejoin="miter" stroke-linecap="square" stroke-miterlimit="3"/><line x1="1939.604" y1="581.038" x2="2004.604" y2="581.038" vector-effect="non-scaling-stroke" stroke-width="3" stroke="rgb(59,43,41)" stroke-linejoin="miter" stroke-linecap="square" stroke-miterlimit="3"/><line x1="1939.604" y1="200.58" x2="2004.604" y2="200.58" vector-effect="non-scaling-stroke" stroke-width="3" stroke="rgb(59,43,41)" stroke-linejoin="miter" stroke-linecap="square" stroke-miterlimit="3"/><line x1="1939.604" y1="476.598" x2="2004.604" y2="476.598" vector-effect="non-scaling-stroke" stroke-width="3" stroke="rgb(59,43,41)" stroke-linejoin="miter" stroke-linecap="square" stroke-miterlimit="3"/><line x1="1939.604" y1="513.898" x2="2004.604" y2="513.898" vector-effect="non-scaling-stroke" stroke-width="3" stroke="rgb(59,43,41)" stroke-linejoin="miter" stroke-linecap="square" stroke-miterlimit="3"/><line x1="1939.604" y1="521.358" x2="2004.604" y2="521.358" vector-effect="non-scaling-stroke" stroke-width="3" stroke="rgb(59,43,41)" stroke-linejoin="miter" stroke-linecap="square" stroke-miterlimit="3"/><line x1="1939.604" y1="506.438" x2="2004.604" y2="506.438" vector-effect="non-scaling-stroke" stroke-width="3" stroke="rgb(59,43,41)" stroke-linejoin="miter" stroke-linecap="square" stroke-miterlimit="3"/><line x1="1939.604" y1="655.637" x2="2004.604" y2="655.637" vector-effect="non-scaling-stroke" stroke-width="3" stroke="rgb(59,43,41)" stroke-linejoin="miter" stroke-linecap="square" stroke-miterlimit="3"/><line x1="1939.604" y1="566.118" x2="2004.604" y2="566.118" vector-effect="non-scaling-stroke" stroke-width="3" stroke="rgb(59,43,41)" stroke-linejoin="miter" stroke-linecap="square" stroke-miterlimit="3"/><line x1="1939.604" y1="491.518" x2="2004.604" y2="491.518" vector-effect="non-scaling-stroke" stroke-width="3" stroke="rgb(59,43,41)" stroke-linejoin="miter" stroke-linecap="square" stroke-miterlimit="3"/><line x1="1939.604" y1="536.278" x2="2004.604" y2="536.278" vector-effect="non-scaling-stroke" stroke-width="3" stroke="rgb(59,43,41)" stroke-linejoin="miter" stroke-linecap="square" stroke-miterlimit="3"/><line x1="1939.604" y1="648.177" x2="2004.604" y2="648.177" vector-effect="non-scaling-stroke" stroke-width="3" stroke="rgb(59,43,41)" stroke-linejoin="miter" stroke-linecap="square" stroke-miterlimit="3"/><line x1="1939.604" y1="543.738" x2="2004.604" y2="543.738" vector-effect="non-scaling-stroke" stroke-width="3" stroke="rgb(59,43,41)" stroke-linejoin="miter" stroke-linecap="square" stroke-miterlimit="3"/><line x1="1939.604" y1="551.198" x2="2004.604" y2="551.198" vector-effect="non-scaling-stroke" stroke-width="3" stroke="rgb(59,43,41)" stroke-linejoin="miter" stroke-linecap="square" stroke-miterlimit="3"/><line x1="1939.604" y1="558.658" x2="2004.604" y2="558.658" vector-effect="non-scaling-stroke" stroke-width="3" stroke="rgb(59,43,41)" stroke-linejoin="miter" stroke-linecap="square" stroke-miterlimit="3"/><line x1="1939.604" y1="185.66" x2="2004.604" y2="185.66" vector-effect="non-scaling-stroke" stroke-width="3" stroke="rgb(59,43,41)" stroke-linejoin="miter" stroke-linecap="square" stroke-miterlimit="3"/><line x1="1939.604" y1="573.578" x2="2004.604" y2="573.578" vector-effect="non-scaling-stroke" stroke-width="3" stroke="rgb(59,43,41)" stroke-linejoin="miter" stroke-linecap="square" stroke-miterlimit="3"/><line x1="1939.604" y1="208.04" x2="2004.604" y2="208.04" vector-effect="non-scaling-stroke" stroke-width="3" stroke="rgb(59,43,41)" stroke-linejoin="miter" stroke-linecap="square" stroke-miterlimit="3"/><line x1="1939.604" y1="588.498" x2="2004.604" y2="588.498" vector-effect="non-scaling-stroke" stroke-width="3" stroke="rgb(59,43,41)" stroke-linejoin="miter" stroke-linecap="square" stroke-miterlimit="3"/><line x1="1939.604" y1="595.958" x2="2004.604" y2="595.958" vector-effect="non-scaling-stroke" stroke-width="3" stroke="rgb(59,43,41)" stroke-linejoin="miter" stroke-linecap="square" stroke-miterlimit="3"/><line x1="1939.604" y1="454.218" x2="2004.604" y2="454.218" vector-effect="non-scaling-stroke" stroke-width="3" stroke="rgb(59,43,41)" stroke-linejoin="miter" stroke-linecap="square" stroke-miterlimit="3"/><line x1="1939.604" y1="446.758" x2="2004.604" y2="446.758" vector-effect="non-scaling-stroke" stroke-width="3" stroke="rgb(59,43,41)" stroke-linejoin="miter" stroke-linecap="square" stroke-miterlimit="3"/><line x1="1939.604" y1="439.298" x2="2004.604" y2="439.298" vector-effect="non-scaling-stroke" stroke-width="3" stroke="rgb(59,43,41)" stroke-linejoin="miter" stroke-linecap="square" stroke-miterlimit="3"/><line x1="1939.604" y1="431.838" x2="2004.604" y2="431.838" vector-effect="non-scaling-stroke" stroke-width="3" stroke="rgb(59,43,41)" stroke-linejoin="miter" stroke-linecap="square" stroke-miterlimit="3"/><line x1="1939.604" y1="424.379" x2="2004.604" y2="424.379" vector-effect="non-scaling-stroke" stroke-width="3" stroke="rgb(59,43,41)" stroke-linejoin="miter" stroke-linecap="square" stroke-miterlimit="3"/><line x1="1939.604" y1="416.919" x2="2004.604" y2="416.919" vector-effect="non-scaling-stroke" stroke-width="3" stroke="rgb(59,43,41)" stroke-linejoin="miter" stroke-linecap="square" stroke-miterlimit="3"/><line x1="1939.604" y1="401.999" x2="2004.604" y2="401.999" vector-effect="non-scaling-stroke" stroke-width="3" stroke="rgb(59,43,41)" stroke-linejoin="miter" stroke-linecap="square" stroke-miterlimit="3"/><line x1="1939.604" y1="305.019" x2="2004.604" y2="305.019" vector-effect="non-scaling-stroke" stroke-width="3" stroke="rgb(59,43,41)" stroke-linejoin="miter" stroke-linecap="square" stroke-miterlimit="3"/><line x1="1939.604" y1="297.559" x2="2004.604" y2="297.559" vector-effect="non-scaling-stroke" stroke-width="3" stroke="rgb(59,43,41)" stroke-linejoin="miter" stroke-linecap="square" stroke-miterlimit="3"/><line x1="1939.604" y1="282.639" x2="2004.604" y2="282.639" vector-effect="non-scaling-stroke" stroke-width="3" stroke="rgb(59,43,41)" stroke-linejoin="miter" stroke-linecap="square" stroke-miterlimit="3"/><line x1="1939.604" y1="267.719" x2="2004.604" y2="267.719" vector-effect="non-scaling-stroke" stroke-width="3" stroke="rgb(59,43,41)" stroke-linejoin="miter" stroke-linecap="square" stroke-miterlimit="3"/><line x1="1939.604" y1="260.259" x2="2004.604" y2="260.259" vector-effect="non-scaling-stroke" stroke-width="3" stroke="rgb(59,43,41)" stroke-linejoin="miter" stroke-linecap="square" stroke-miterlimit="3"/><line x1="1939.604" y1="700.397" x2="2004.604" y2="700.397" vector-effect="non-scaling-stroke" stroke-width="3" stroke="rgb(59,43,41)" stroke-linejoin="miter" stroke-linecap="square" stroke-miterlimit="3"/><line x1="1939.604" y1="245.339" x2="2004.604" y2="245.339" vector-effect="non-scaling-stroke" stroke-width="3" stroke="rgb(59,43,41)" stroke-linejoin="miter" stroke-linecap="square" stroke-miterlimit="3"/><line x1="1939.604" y1="760.077" x2="2004.604" y2="760.077" vector-effect="non-scaling-stroke" stroke-width="3" stroke="rgb(59,43,41)" stroke-linejoin="miter" stroke-linecap="square" stroke-miterlimit="3"/><line x1="1939.604" y1="745.157" x2="2004.604" y2="745.157" vector-effect="non-scaling-stroke" stroke-width="3" stroke="rgb(59,43,41)" stroke-linejoin="miter" stroke-linecap="square" stroke-miterlimit="3"/><line x1="1939.604" y1="498.978" x2="2004.604" y2="498.978" vector-effect="non-scaling-stroke" stroke-width="3" stroke="rgb(59,43,41)" stroke-linejoin="miter" stroke-linecap="square" stroke-miterlimit="3"/><line x1="1939.604" y1="737.697" x2="2004.604" y2="737.697" vector-effect="non-scaling-stroke" stroke-width="3" stroke="rgb(59,43,41)" stroke-linejoin="miter" stroke-linecap="square" stroke-miterlimit="3"/><line x1="1939.604" y1="528.818" x2="2004.604" y2="528.818" vector-effect="non-scaling-stroke" stroke-width="3" stroke="rgb(59,43,41)" stroke-linejoin="miter" stroke-linecap="square" stroke-miterlimit="3"/><line x1="1939.604" y1="797.377" x2="2004.604" y2="797.377" vector-effect="non-scaling-stroke" stroke-width="3" stroke="rgb(59,43,41)" stroke-linejoin="miter" stroke-linecap="square" stroke-miterlimit="3"/><line x1="1939.604" y1="812.297" x2="2004.604" y2="812.297" vector-effect="non-scaling-stroke" stroke-width="3" stroke="rgb(59,43,41)" stroke-linejoin="miter" stroke-linecap="square" stroke-miterlimit="3"/><line x1="1939.604" y1="804.837" x2="2004.604" y2="804.837" vector-effect="non-scaling-stroke" stroke-width="3" stroke="rgb(59,43,41)" stroke-linejoin="miter" stroke-linecap="square" stroke-miterlimit="3"/><line x1="1939.604" y1="774.997" x2="2004.604" y2="774.997" vector-effect="non-scaling-stroke" stroke-width="3" stroke="rgb(59,43,41)" stroke-linejoin="miter" stroke-linecap="square" stroke-miterlimit="3"/><line x1="1939.604" y1="857.057" x2="2004.604" y2="857.057" vector-effect="non-scaling-stroke" stroke-width="3" stroke="rgb(59,43,41)" stroke-linejoin="miter" stroke-linecap="square" stroke-miterlimit="3"/><line x1="1939.604" y1="834.677" x2="2004.604" y2="834.677" vector-effect="non-scaling-stroke" stroke-width="3" stroke="rgb(59,43,41)" stroke-linejoin="miter" stroke-linecap="square" stroke-miterlimit="3"/><line x1="1939.604" y1="849.597" x2="2004.604" y2="849.597" vector-effect="non-scaling-stroke" stroke-width="3" stroke="rgb(59,43,41)" stroke-linejoin="miter" stroke-linecap="square" stroke-miterlimit="3"/><line x1="1939.604" y1="842.137" x2="2004.604" y2="842.137" vector-effect="non-scaling-stroke" stroke-width="3" stroke="rgb(59,43,41)" stroke-linejoin="miter" stroke-linecap="square" stroke-miterlimit="3"/><line x1="1939.604" y1="663.097" x2="2004.604" y2="663.097" vector-effect="non-scaling-stroke" stroke-width="3" stroke="rgb(59,43,41)" stroke-linejoin="miter" stroke-linecap="square" stroke-miterlimit="3"/><line x1="1939.604" y1="871.976" x2="2004.604" y2="871.976" vector-effect="non-scaling-stroke" stroke-width="3" stroke="rgb(59,43,41)" stroke-linejoin="miter" stroke-linecap="square" stroke-miterlimit="3"/><line x1="1939.604" y1="692.937" x2="2004.604" y2="692.937" vector-effect="non-scaling-stroke" stroke-width="3" stroke="rgb(59,43,41)" stroke-linejoin="miter" stroke-linecap="square" stroke-miterlimit="3"/><line x1="1939.604" y1="909.276" x2="2004.604" y2="909.276" vector-effect="non-scaling-stroke" stroke-width="3" stroke="rgb(59,43,41)" stroke-linejoin="miter" stroke-linecap="square" stroke-miterlimit="3"/><line x1="1939.604" y1="916.736" x2="2004.604" y2="916.736" vector-effect="non-scaling-stroke" stroke-width="3" stroke="rgb(59,43,41)" stroke-linejoin="miter" stroke-linecap="square" stroke-miterlimit="3"/><line x1="1939.604" y1="730.237" x2="2004.604" y2="730.237" vector-effect="non-scaling-stroke" stroke-width="3" stroke="rgb(59,43,41)" stroke-linejoin="miter" stroke-linecap="square" stroke-miterlimit="3"/><line x1="1939.604" y1="924.196" x2="2004.604" y2="924.196" vector-effect="non-scaling-stroke" stroke-width="3" stroke="rgb(59,43,41)" stroke-linejoin="miter" stroke-linecap="square" stroke-miterlimit="3"/><line x1="1939.604" y1="767.537" x2="2004.604" y2="767.537" vector-effect="non-scaling-stroke" stroke-width="3" stroke="rgb(59,43,41)" stroke-linejoin="miter" stroke-linecap="square" stroke-miterlimit="3"/><line x1="1939.604" y1="931.656" x2="2004.604" y2="931.656" vector-effect="non-scaling-stroke" stroke-width="3" stroke="rgb(59,43,41)" stroke-linejoin="miter" stroke-linecap="square" stroke-miterlimit="3"/><line x1="1939.604" y1="939.116" x2="2004.604" y2="939.116" vector-effect="non-scaling-stroke" stroke-width="3" stroke="rgb(59,43,41)" stroke-linejoin="miter" stroke-linecap="square" stroke-miterlimit="3"/><line x1="1939.604" y1="946.576" x2="2004.604" y2="946.576" vector-effect="non-scaling-stroke" stroke-width="3" stroke="rgb(59,43,41)" stroke-linejoin="miter" stroke-linecap="square" stroke-miterlimit="3"/><line x1="1939.604" y1="819.757" x2="2004.604" y2="819.757" vector-effect="non-scaling-stroke" stroke-width="3" stroke="rgb(59,43,41)" stroke-linejoin="miter" stroke-linecap="square" stroke-miterlimit="3"/><line x1="1939.604" y1="789.917" x2="2004.604" y2="789.917" vector-effect="non-scaling-stroke" stroke-width="3" stroke="rgb(59,43,41)" stroke-linejoin="miter" stroke-linecap="square" stroke-miterlimit="3"/><line x1="1939.604" y1="782.457" x2="2004.604" y2="782.457" vector-effect="non-scaling-stroke" stroke-width="3" stroke="rgb(59,43,41)" stroke-linejoin="miter" stroke-linecap="square" stroke-miterlimit="3"/><line x1="1939.604" y1="864.516" x2="2004.604" y2="864.516" vector-effect="non-scaling-stroke" stroke-width="3" stroke="rgb(59,43,41)" stroke-linejoin="miter" stroke-linecap="square" stroke-miterlimit="3"/><line x1="1939.604" y1="901.816" x2="2004.604" y2="901.816" vector-effect="non-scaling-stroke" stroke-width="3" stroke="rgb(59,43,41)" stroke-linejoin="miter" stroke-linecap="square" stroke-miterlimit="3"/><line x1="1939.604" y1="894.356" x2="2004.604" y2="894.356" vector-effect="non-scaling-stroke" stroke-width="3" stroke="rgb(59,43,41)" stroke-linejoin="miter" stroke-linecap="square" stroke-miterlimit="3"/><line x1="1939.604" y1="886.896" x2="2004.604" y2="886.896" vector-effect="non-scaling-stroke" stroke-width="3" stroke="rgb(59,43,41)" stroke-linejoin="miter" stroke-linecap="square" stroke-miterlimit="3"/><line x1="1939.604" y1="879.436" x2="2004.604" y2="879.436" vector-effect="non-scaling-stroke" stroke-width="3" stroke="rgb(59,43,41)" stroke-linejoin="miter" stroke-linecap="square" stroke-miterlimit="3"/><line x1="1939.604" y1="827.217" x2="2004.604" y2="827.217" vector-effect="non-scaling-stroke" stroke-width="3" stroke="rgb(59,43,41)" stroke-linejoin="miter" stroke-linecap="square" stroke-miterlimit="3"/></g></g></svg>