<?xml version="1.0" standalone="no"?><!-- Generator: Gravit.io --><svg xmlns="http://www.w3.org/2000/svg" xmlns:xlink="http://www.w3.org/1999/xlink" style="isolation:isolate" viewBox="2610.938 185.16 162.75 761.916" width="162.75" height="761.916"><g id="windows-curtainwall"><g id="Group"><g id="body-windows-color-1"><path d=" M 2739.16 247.113 L 2739.16 255.448 L 2739.16 296.187" fill="none" vector-effect="non-scaling-stroke" stroke-width="3" stroke="rgb(91,66,63)" stroke-linejoin="miter" stroke-linecap="square" stroke-miterlimit="3"/><path d=" M 2746.438 247.113 L 2746.438 255.948 L 2746.438 296.187" fill="none" vector-effect="non-scaling-stroke" stroke-width="3" stroke="rgb(91,66,63)" stroke-linejoin="miter" stroke-linecap="square" stroke-miterlimit="3"/><path d=" M 2739.16 313.065 L 2739.16 321.4 L 2739.16 362.139" fill="none" vector-effect="non-scaling-stroke" stroke-width="3" stroke="rgb(91,66,63)" stroke-linejoin="miter" stroke-linecap="square" stroke-miterlimit="3"/><path d=" M 2746.438 313.065 L 2746.438 321.9 L 2746.438 362.139" fill="none" vector-effect="non-scaling-stroke" stroke-width="3" stroke="rgb(91,66,63)" stroke-linejoin="miter" stroke-linecap="square" stroke-miterlimit="3"/><path d=" M 2739.16 378.903 L 2739.16 383.806 L 2739.16 407.771" fill="none" vector-effect="non-scaling-stroke" stroke-width="3" stroke="rgb(91,66,63)" stroke-linejoin="miter" stroke-linecap="square" stroke-miterlimit="3"/><path d=" M 2746.438 378.903 L 2746.438 384.101 L 2746.438 407.771" fill="none" vector-effect="non-scaling-stroke" stroke-width="3" stroke="rgb(91,66,63)" stroke-linejoin="miter" stroke-linecap="square" stroke-miterlimit="3"/><path d=" M 2758.688 231.957 L 2766.188 231.957 L 2766.188 237.731 L 2758.688 237.731 L 2758.688 231.957 Z " fill="rgb(91,66,63)"/><path d=" M 2758.688 255.051 L 2766.188 255.051 L 2766.188 260.825 L 2758.688 260.825 L 2758.688 255.051 Z " fill="rgb(91,66,63)"/><path d=" M 2758.688 243.504 L 2766.188 243.504 L 2766.188 249.278 L 2758.688 249.278 L 2758.688 243.504 Z " fill="rgb(91,66,63)"/><path d=" M 2758.688 266.598 L 2766.188 266.598 L 2766.188 272.372 L 2758.688 272.372 L 2758.688 266.598 Z " fill="rgb(91,66,63)"/><path d=" M 2758.688 278.145 L 2766.188 278.145 L 2766.188 283.919 L 2758.688 283.919 L 2758.688 278.145 Z " fill="rgb(91,66,63)"/><path d=" M 2757.438 562.638 L 2762.438 562.638 L 2762.438 567.449 L 2757.438 567.449 L 2757.438 562.638 Z " fill="rgb(91,66,63)"/><path d=" M 2757.438 572.261 L 2762.438 572.261 L 2762.438 577.072 L 2757.438 577.072 L 2757.438 572.261 Z " fill="rgb(91,66,63)"/><path d=" M 2757.438 562.638 L 2762.438 562.638 L 2762.438 567.449 L 2757.438 567.449 L 2757.438 562.638 Z " fill="rgb(91,66,63)"/><path d=" M 2757.438 418.282 L 2762.438 418.282 L 2762.438 423.093 L 2757.438 423.093 L 2757.438 418.282 Z " fill="rgb(91,66,63)"/><path d=" M 2757.438 408.659 L 2762.438 408.659 L 2762.438 413.47 L 2757.438 413.47 L 2757.438 408.659 Z " fill="rgb(91,66,63)"/><path d=" M 2757.438 581.883 L 2762.438 581.883 L 2762.438 586.694 L 2757.438 586.694 L 2757.438 581.883 Z " fill="rgb(91,66,63)"/><path d=" M 2757.438 437.527 L 2762.438 437.527 L 2762.438 442.338 L 2757.438 442.338 L 2757.438 437.527 Z " fill="rgb(91,66,63)"/><path d=" M 2757.438 572.261 L 2762.438 572.261 L 2762.438 577.072 L 2757.438 577.072 L 2757.438 572.261 Z " fill="rgb(91,66,63)"/><path d=" M 2757.438 427.904 L 2762.438 427.904 L 2762.438 432.715 L 2757.438 432.715 L 2757.438 427.904 Z " fill="rgb(91,66,63)"/><path d=" M 2757.438 591.506 L 2762.438 591.506 L 2762.438 596.317 L 2757.438 596.317 L 2757.438 591.506 Z " fill="rgb(91,66,63)"/><path d=" M 2757.438 447.149 L 2762.438 447.149 L 2762.438 451.96 L 2757.438 451.96 L 2757.438 447.149 Z " fill="rgb(91,66,63)"/><path d=" M 2757.438 601.128 L 2762.438 601.128 L 2762.438 605.939 L 2757.438 605.939 L 2757.438 601.128 Z " fill="rgb(91,66,63)"/><path d=" M 2757.438 668.505 L 2762.438 668.505 L 2762.438 673.316 L 2757.438 673.316 L 2757.438 668.505 Z " fill="rgb(91,66,63)"/><path d=" M 2757.438 687.75 L 2762.438 687.75 L 2762.438 692.561 L 2757.438 692.561 L 2757.438 687.75 Z " fill="rgb(91,66,63)"/><path d=" M 2757.438 543.393 L 2762.438 543.393 L 2762.438 548.204 L 2757.438 548.204 L 2757.438 543.393 Z " fill="rgb(91,66,63)"/><path d=" M 2757.438 678.127 L 2762.438 678.127 L 2762.438 682.938 L 2757.438 682.938 L 2757.438 678.127 Z " fill="rgb(91,66,63)"/><path d=" M 2757.438 533.771 L 2762.438 533.771 L 2762.438 538.582 L 2757.438 538.582 L 2757.438 533.771 Z " fill="rgb(91,66,63)"/><path d=" M 2757.438 697.372 L 2762.438 697.372 L 2762.438 702.183 L 2757.438 702.183 L 2757.438 697.372 Z " fill="rgb(91,66,63)"/><path d=" M 2757.438 706.995 L 2762.438 706.995 L 2762.438 711.806 L 2757.438 711.806 L 2757.438 706.995 Z " fill="rgb(91,66,63)"/><path d=" M 2757.438 697.372 L 2762.438 697.372 L 2762.438 702.183 L 2757.438 702.183 L 2757.438 697.372 Z " fill="rgb(91,66,63)"/><path d=" M 2757.438 553.016 L 2762.438 553.016 L 2762.438 557.827 L 2757.438 557.827 L 2757.438 553.016 Z " fill="rgb(91,66,63)"/><path d=" M 2757.438 716.617 L 2762.438 716.617 L 2762.438 721.428 L 2757.438 721.428 L 2757.438 716.617 Z " fill="rgb(91,66,63)"/><path d=" M 2757.438 706.995 L 2762.438 706.995 L 2762.438 711.806 L 2757.438 711.806 L 2757.438 706.995 Z " fill="rgb(91,66,63)"/><path d=" M 2757.438 726.24 L 2762.438 726.24 L 2762.438 731.051 L 2757.438 731.051 L 2757.438 726.24 Z " fill="rgb(91,66,63)"/><path d=" M 2757.438 735.862 L 2762.438 735.862 L 2762.438 740.673 L 2757.438 740.673 L 2757.438 735.862 Z " fill="rgb(91,66,63)"/><path d=" M 2757.438 601.166 L 2762.438 601.166 L 2762.438 605.977 L 2757.438 605.977 L 2757.438 601.166 Z " fill="rgb(91,66,63)"/><path d=" M 2757.438 456.81 L 2762.438 456.81 L 2762.438 461.621 L 2757.438 461.621 L 2757.438 456.81 Z " fill="rgb(91,66,63)"/><path d=" M 2757.438 620.411 L 2762.438 620.411 L 2762.438 625.222 L 2757.438 625.222 L 2757.438 620.411 Z " fill="rgb(91,66,63)"/><path d=" M 2757.438 476.055 L 2762.438 476.055 L 2762.438 480.866 L 2757.438 480.866 L 2757.438 476.055 Z " fill="rgb(91,66,63)"/><path d=" M 2757.438 610.788 L 2762.438 610.788 L 2762.438 615.6 L 2757.438 615.6 L 2757.438 610.788 Z " fill="rgb(91,66,63)"/><path d=" M 2757.438 466.432 L 2762.438 466.432 L 2762.438 471.243 L 2757.438 471.243 L 2757.438 466.432 Z " fill="rgb(91,66,63)"/><path d=" M 2757.438 630.033 L 2762.438 630.033 L 2762.438 634.845 L 2757.438 634.845 L 2757.438 630.033 Z " fill="rgb(91,66,63)"/><path d=" M 2757.438 639.656 L 2762.438 639.656 L 2762.438 644.467 L 2757.438 644.467 L 2757.438 639.656 Z " fill="rgb(91,66,63)"/><path d=" M 2757.438 630.033 L 2762.438 630.033 L 2762.438 634.845 L 2757.438 634.845 L 2757.438 630.033 Z " fill="rgb(91,66,63)"/><path d=" M 2757.438 485.677 L 2762.438 485.677 L 2762.438 490.488 L 2757.438 490.488 L 2757.438 485.677 Z " fill="rgb(91,66,63)"/><path d=" M 2757.438 649.278 L 2762.438 649.278 L 2762.438 654.09 L 2757.438 654.09 L 2757.438 649.278 Z " fill="rgb(91,66,63)"/><path d=" M 2757.438 504.922 L 2762.438 504.922 L 2762.438 509.733 L 2757.438 509.733 L 2757.438 504.922 Z " fill="rgb(91,66,63)"/><path d=" M 2757.438 639.656 L 2762.438 639.656 L 2762.438 644.467 L 2757.438 644.467 L 2757.438 639.656 Z " fill="rgb(91,66,63)"/><path d=" M 2757.438 495.3 L 2762.438 495.3 L 2762.438 500.111 L 2757.438 500.111 L 2757.438 495.3 Z " fill="rgb(91,66,63)"/><path d=" M 2757.438 658.901 L 2762.438 658.901 L 2762.438 663.712 L 2757.438 663.712 L 2757.438 658.901 Z " fill="rgb(91,66,63)"/><path d=" M 2757.438 514.545 L 2762.438 514.545 L 2762.438 519.356 L 2757.438 519.356 L 2757.438 514.545 Z " fill="rgb(91,66,63)"/><path d=" M 2757.438 668.523 L 2762.438 668.523 L 2762.438 673.335 L 2757.438 673.335 L 2757.438 668.523 Z " fill="rgb(91,66,63)"/><path d=" M 2757.438 524.167 L 2762.438 524.167 L 2762.438 528.978 L 2757.438 528.978 L 2757.438 524.167 Z " fill="rgb(91,66,63)"/><path d=" M 2757.438 735.9 L 2762.438 735.9 L 2762.438 740.711 L 2757.438 740.711 L 2757.438 735.9 Z " fill="rgb(91,66,63)"/><path d=" M 2757.438 755.145 L 2762.438 755.145 L 2762.438 759.956 L 2757.438 759.956 L 2757.438 755.145 Z " fill="rgb(91,66,63)"/><path d=" M 2757.438 745.522 L 2762.438 745.522 L 2762.438 750.334 L 2757.438 750.334 L 2757.438 745.522 Z " fill="rgb(91,66,63)"/><path d=" M 2757.438 764.767 L 2762.438 764.767 L 2762.438 769.579 L 2757.438 769.579 L 2757.438 764.767 Z " fill="rgb(91,66,63)"/><path d=" M 2757.438 774.39 L 2762.438 774.39 L 2762.438 779.201 L 2757.438 779.201 L 2757.438 774.39 Z " fill="rgb(91,66,63)"/><path d=" M 2757.438 764.767 L 2762.438 764.767 L 2762.438 769.579 L 2757.438 769.579 L 2757.438 764.767 Z " fill="rgb(91,66,63)"/><path d=" M 2757.438 784.012 L 2762.438 784.012 L 2762.438 788.824 L 2757.438 788.824 L 2757.438 784.012 Z " fill="rgb(91,66,63)"/><path d=" M 2757.438 774.39 L 2762.438 774.39 L 2762.438 779.201 L 2757.438 779.201 L 2757.438 774.39 Z " fill="rgb(91,66,63)"/><path d=" M 2757.438 793.635 L 2762.438 793.635 L 2762.438 798.446 L 2757.438 798.446 L 2757.438 793.635 Z " fill="rgb(91,66,63)"/><path d=" M 2757.438 803.257 L 2762.438 803.257 L 2762.438 808.069 L 2757.438 808.069 L 2757.438 803.257 Z " fill="rgb(91,66,63)"/><path d=" M 2757.438 803.239 L 2762.438 803.239 L 2762.438 808.05 L 2757.438 808.05 L 2757.438 803.239 Z " fill="rgb(91,66,63)"/><path d=" M 2757.438 822.484 L 2762.438 822.484 L 2762.438 827.295 L 2757.438 827.295 L 2757.438 822.484 Z " fill="rgb(91,66,63)"/><path d=" M 2757.438 812.861 L 2762.438 812.861 L 2762.438 817.672 L 2757.438 817.672 L 2757.438 812.861 Z " fill="rgb(91,66,63)"/><path d=" M 2757.438 832.106 L 2762.438 832.106 L 2762.438 836.917 L 2757.438 836.917 L 2757.438 832.106 Z " fill="rgb(91,66,63)"/><path d=" M 2757.438 841.729 L 2762.438 841.729 L 2762.438 846.54 L 2757.438 846.54 L 2757.438 841.729 Z " fill="rgb(91,66,63)"/><path d=" M 2757.438 832.106 L 2762.438 832.106 L 2762.438 836.917 L 2757.438 836.917 L 2757.438 832.106 Z " fill="rgb(91,66,63)"/><path d=" M 2757.438 851.351 L 2762.438 851.351 L 2762.438 856.162 L 2757.438 856.162 L 2757.438 851.351 Z " fill="rgb(91,66,63)"/><path d=" M 2757.438 841.729 L 2762.438 841.729 L 2762.438 846.54 L 2757.438 846.54 L 2757.438 841.729 Z " fill="rgb(91,66,63)"/><path d=" M 2757.438 860.974 L 2762.438 860.974 L 2762.438 865.785 L 2757.438 865.785 L 2757.438 860.974 Z " fill="rgb(91,66,63)"/><path d=" M 2757.438 870.596 L 2762.438 870.596 L 2762.438 875.407 L 2757.438 875.407 L 2757.438 870.596 Z " fill="rgb(91,66,63)"/><path d=" M 2757.438 870.596 L 2762.438 870.596 L 2762.438 875.407 L 2757.438 875.407 L 2757.438 870.596 Z " fill="rgb(91,66,63)"/><path d=" M 2757.438 889.841 L 2762.438 889.841 L 2762.438 894.652 L 2757.438 894.652 L 2757.438 889.841 Z " fill="rgb(91,66,63)"/><path d=" M 2757.438 880.219 L 2762.438 880.219 L 2762.438 885.03 L 2757.438 885.03 L 2757.438 880.219 Z " fill="rgb(91,66,63)"/><path d=" M 2757.438 899.464 L 2762.438 899.464 L 2762.438 904.275 L 2757.438 904.275 L 2757.438 899.464 Z " fill="rgb(91,66,63)"/><path d=" M 2757.438 899.464 L 2762.438 899.464 L 2762.438 904.275 L 2757.438 904.275 L 2757.438 899.464 Z " fill="rgb(91,66,63)"/><path d=" M 2758.688 301.961 L 2766.188 301.961 L 2766.188 307.734 L 2758.688 307.734 L 2758.688 301.961 Z " fill="rgb(91,66,63)"/><path d=" M 2758.688 325.055 L 2766.188 325.055 L 2766.188 330.828 L 2758.688 330.828 L 2758.688 325.055 Z " fill="rgb(91,66,63)"/><path d=" M 2758.688 313.508 L 2766.188 313.508 L 2766.188 319.281 L 2758.688 319.281 L 2758.688 313.508 Z " fill="rgb(91,66,63)"/><path d=" M 2758.688 336.602 L 2766.188 336.602 L 2766.188 342.375 L 2758.688 342.375 L 2758.688 336.602 Z " fill="rgb(91,66,63)"/><path d=" M 2758.688 359.696 L 2766.188 359.696 L 2766.188 365.469 L 2758.688 365.469 L 2758.688 359.696 Z " fill="rgb(91,66,63)"/><path d=" M 2758.688 348.149 L 2766.188 348.149 L 2766.188 353.922 L 2758.688 353.922 L 2758.688 348.149 Z " fill="rgb(91,66,63)"/><path d=" M 2758.688 371.243 L 2766.188 371.243 L 2766.188 377.016 L 2758.688 377.016 L 2758.688 371.243 Z " fill="rgb(91,66,63)"/><path d=" M 2758.688 382.79 L 2766.188 382.79 L 2766.188 388.563 L 2758.688 388.563 L 2758.688 382.79 Z " fill="rgb(91,66,63)"/><path d=" M 2748.688 423.926 L 2746.188 425.369 L 2746.188 912.448 L 2748.688 910.77 L 2748.688 423.926 Z " fill="rgb(91,66,63)"/><path d=" M 2773.688 403.719 L 2771.188 405.162 L 2771.188 897.78 L 2773.688 896.336 L 2773.688 403.719 Z " fill="rgb(91,66,63)"/></g><path d=" M 2648.688 423.926 L 2646.188 425.369 L 2646.188 912.448 L 2648.688 910.77 L 2648.688 423.926 Z " fill="rgb(91,66,63)"/><path d=" M 2736.188 423.926 L 2738.688 425.369 L 2738.688 912.448 L 2736.188 910.77 L 2736.188 423.926 Z " fill="rgb(59,43,41)"/><g id="body-windows-color-3"><path d=" M 2645.896 247.113 L 2645.896 255.448 L 2645.896 296.187" fill="none" vector-effect="non-scaling-stroke" stroke-width="3" stroke="rgb(28,20,19)" stroke-linejoin="miter" stroke-linecap="square" stroke-miterlimit="3"/><path d=" M 2638.618 247.113 L 2638.618 255.948 L 2638.618 296.187" fill="none" vector-effect="non-scaling-stroke" stroke-width="3" stroke="rgb(28,20,19)" stroke-linejoin="miter" stroke-linecap="square" stroke-miterlimit="3"/><path d=" M 2645.896 313.065 L 2645.896 321.4 L 2645.896 362.139" fill="none" vector-effect="non-scaling-stroke" stroke-width="3" stroke="rgb(28,20,19)" stroke-linejoin="miter" stroke-linecap="square" stroke-miterlimit="3"/><path d=" M 2638.618 313.065 L 2638.618 321.9 L 2638.618 362.139" fill="none" vector-effect="non-scaling-stroke" stroke-width="3" stroke="rgb(28,20,19)" stroke-linejoin="miter" stroke-linecap="square" stroke-miterlimit="3"/><path d=" M 2645.896 378.903 L 2645.896 383.806 L 2645.896 407.771" fill="none" vector-effect="non-scaling-stroke" stroke-width="3" stroke="rgb(28,20,19)" stroke-linejoin="miter" stroke-linecap="square" stroke-miterlimit="3"/><path d=" M 2638.618 378.903 L 2638.618 384.101 L 2638.618 407.771" fill="none" vector-effect="non-scaling-stroke" stroke-width="3" stroke="rgb(28,20,19)" stroke-linejoin="miter" stroke-linecap="square" stroke-miterlimit="3"/><path d=" M 2618.688 231.957 L 2626.188 231.957 L 2626.188 237.731 L 2618.688 237.731 L 2618.688 231.957 Z " fill="rgb(28,20,19)"/><path d=" M 2618.688 255.051 L 2626.188 255.051 L 2626.188 260.825 L 2618.688 260.825 L 2618.688 255.051 Z " fill="rgb(28,20,19)"/><path d=" M 2618.688 243.504 L 2626.188 243.504 L 2626.188 249.278 L 2618.688 249.278 L 2618.688 243.504 Z " fill="rgb(28,20,19)"/><path d=" M 2618.688 266.598 L 2626.188 266.598 L 2626.188 272.372 L 2618.688 272.372 L 2618.688 266.598 Z " fill="rgb(28,20,19)"/><path d=" M 2618.688 278.145 L 2626.188 278.145 L 2626.188 283.919 L 2618.688 283.919 L 2618.688 278.145 Z " fill="rgb(28,20,19)"/><path d=" M 2618.688 301.961 L 2626.188 301.961 L 2626.188 307.734 L 2618.688 307.734 L 2618.688 301.961 Z " fill="rgb(28,20,19)"/><path d=" M 2618.688 325.055 L 2626.188 325.055 L 2626.188 330.828 L 2618.688 330.828 L 2618.688 325.055 Z " fill="rgb(28,20,19)"/><path d=" M 2618.688 313.508 L 2626.188 313.508 L 2626.188 319.281 L 2618.688 319.281 L 2618.688 313.508 Z " fill="rgb(28,20,19)"/><path d=" M 2618.688 336.602 L 2626.188 336.602 L 2626.188 342.375 L 2618.688 342.375 L 2618.688 336.602 Z " fill="rgb(28,20,19)"/><path d=" M 2618.688 348.149 L 2626.188 348.149 L 2626.188 353.922 L 2618.688 353.922 L 2618.688 348.149 Z " fill="rgb(28,20,19)"/><path d=" M 2618.688 336.602 L 2626.188 336.602 L 2626.188 342.375 L 2618.688 342.375 L 2618.688 336.602 Z " fill="rgb(28,20,19)"/><path d=" M 2618.688 359.696 L 2626.188 359.696 L 2626.188 365.469 L 2618.688 365.469 L 2618.688 359.696 Z " fill="rgb(28,20,19)"/><path d=" M 2618.688 348.149 L 2626.188 348.149 L 2626.188 353.922 L 2618.688 353.922 L 2618.688 348.149 Z " fill="rgb(28,20,19)"/><path d=" M 2618.688 371.243 L 2626.188 371.243 L 2626.188 377.016 L 2618.688 377.016 L 2618.688 371.243 Z " fill="rgb(28,20,19)"/><path d=" M 2618.688 382.79 L 2626.188 382.79 L 2626.188 388.563 L 2618.688 388.563 L 2618.688 382.79 Z " fill="rgb(28,20,19)"/><path d=" M 2622.438 562.638 L 2627.438 562.638 L 2627.438 567.449 L 2622.438 567.449 L 2622.438 562.638 Z " fill="rgb(28,20,19)"/><path d=" M 2622.438 572.261 L 2627.438 572.261 L 2627.438 577.072 L 2622.438 577.072 L 2622.438 572.261 Z " fill="rgb(28,20,19)"/><path d=" M 2622.438 562.638 L 2627.438 562.638 L 2627.438 567.449 L 2622.438 567.449 L 2622.438 562.638 Z " fill="rgb(28,20,19)"/><path d=" M 2622.438 427.904 L 2627.438 427.904 L 2627.438 432.715 L 2622.438 432.715 L 2622.438 427.904 Z " fill="rgb(28,20,19)"/><path d=" M 2622.438 408.659 L 2627.438 408.659 L 2627.438 413.47 L 2622.438 413.47 L 2622.438 408.659 Z " fill="rgb(28,20,19)"/><path d=" M 2622.438 581.883 L 2627.438 581.883 L 2627.438 586.694 L 2622.438 586.694 L 2622.438 581.883 Z " fill="rgb(28,20,19)"/><path d=" M 2622.438 447.149 L 2627.438 447.149 L 2627.438 451.96 L 2622.438 451.96 L 2622.438 447.149 Z " fill="rgb(28,20,19)"/><path d=" M 2622.438 572.261 L 2627.438 572.261 L 2627.438 577.072 L 2622.438 577.072 L 2622.438 572.261 Z " fill="rgb(28,20,19)"/><path d=" M 2622.438 437.527 L 2627.438 437.527 L 2627.438 442.338 L 2622.438 442.338 L 2622.438 437.527 Z " fill="rgb(28,20,19)"/><path d=" M 2622.438 418.282 L 2627.438 418.282 L 2627.438 423.093 L 2622.438 423.093 L 2622.438 418.282 Z " fill="rgb(28,20,19)"/><path d=" M 2622.438 591.506 L 2627.438 591.506 L 2627.438 596.317 L 2622.438 596.317 L 2622.438 591.506 Z " fill="rgb(28,20,19)"/><path d=" M 2622.438 456.772 L 2627.438 456.772 L 2627.438 461.583 L 2622.438 461.583 L 2622.438 456.772 Z " fill="rgb(28,20,19)"/><path d=" M 2622.438 601.128 L 2627.438 601.128 L 2627.438 605.939 L 2622.438 605.939 L 2622.438 601.128 Z " fill="rgb(28,20,19)"/><path d=" M 2622.438 668.505 L 2627.438 668.505 L 2627.438 673.316 L 2622.438 673.316 L 2622.438 668.505 Z " fill="rgb(28,20,19)"/><path d=" M 2622.438 687.75 L 2627.438 687.75 L 2627.438 692.561 L 2622.438 692.561 L 2622.438 687.75 Z " fill="rgb(28,20,19)"/><path d=" M 2622.438 553.016 L 2627.438 553.016 L 2627.438 557.827 L 2622.438 557.827 L 2622.438 553.016 Z " fill="rgb(28,20,19)"/><path d=" M 2622.438 678.127 L 2627.438 678.127 L 2627.438 682.938 L 2622.438 682.938 L 2622.438 678.127 Z " fill="rgb(28,20,19)"/><path d=" M 2622.438 543.393 L 2627.438 543.393 L 2627.438 548.204 L 2622.438 548.204 L 2622.438 543.393 Z " fill="rgb(28,20,19)"/><path d=" M 2622.438 697.372 L 2627.438 697.372 L 2627.438 702.183 L 2622.438 702.183 L 2622.438 697.372 Z " fill="rgb(28,20,19)"/><path d=" M 2622.438 706.995 L 2627.438 706.995 L 2627.438 711.806 L 2622.438 711.806 L 2622.438 706.995 Z " fill="rgb(28,20,19)"/><path d=" M 2622.438 697.372 L 2627.438 697.372 L 2627.438 702.183 L 2622.438 702.183 L 2622.438 697.372 Z " fill="rgb(28,20,19)"/><path d=" M 2622.438 716.617 L 2627.438 716.617 L 2627.438 721.428 L 2622.438 721.428 L 2622.438 716.617 Z " fill="rgb(28,20,19)"/><path d=" M 2622.438 706.995 L 2627.438 706.995 L 2627.438 711.806 L 2622.438 711.806 L 2622.438 706.995 Z " fill="rgb(28,20,19)"/><path d=" M 2622.438 726.24 L 2627.438 726.24 L 2627.438 731.051 L 2622.438 731.051 L 2622.438 726.24 Z " fill="rgb(28,20,19)"/><path d=" M 2622.438 735.862 L 2627.438 735.862 L 2627.438 740.673 L 2622.438 740.673 L 2622.438 735.862 Z " fill="rgb(28,20,19)"/><path d=" M 2622.438 601.166 L 2627.438 601.166 L 2627.438 605.977 L 2622.438 605.977 L 2622.438 601.166 Z " fill="rgb(28,20,19)"/><path d=" M 2622.438 466.432 L 2627.438 466.432 L 2627.438 471.243 L 2622.438 471.243 L 2622.438 466.432 Z " fill="rgb(28,20,19)"/><path d=" M 2622.438 620.411 L 2627.438 620.411 L 2627.438 625.222 L 2622.438 625.222 L 2622.438 620.411 Z " fill="rgb(28,20,19)"/><path d=" M 2622.438 485.677 L 2627.438 485.677 L 2627.438 490.488 L 2622.438 490.488 L 2622.438 485.677 Z " fill="rgb(28,20,19)"/><path d=" M 2622.438 610.788 L 2627.438 610.788 L 2627.438 615.6 L 2622.438 615.6 L 2622.438 610.788 Z " fill="rgb(28,20,19)"/><path d=" M 2622.438 476.055 L 2627.438 476.055 L 2627.438 480.866 L 2622.438 480.866 L 2622.438 476.055 Z " fill="rgb(28,20,19)"/><path d=" M 2622.438 630.033 L 2627.438 630.033 L 2627.438 634.845 L 2622.438 634.845 L 2622.438 630.033 Z " fill="rgb(28,20,19)"/><path d=" M 2622.438 639.656 L 2627.438 639.656 L 2627.438 644.467 L 2622.438 644.467 L 2622.438 639.656 Z " fill="rgb(28,20,19)"/><path d=" M 2622.438 630.033 L 2627.438 630.033 L 2627.438 634.845 L 2622.438 634.845 L 2622.438 630.033 Z " fill="rgb(28,20,19)"/><path d=" M 2622.438 495.3 L 2627.438 495.3 L 2627.438 500.111 L 2622.438 500.111 L 2622.438 495.3 Z " fill="rgb(28,20,19)"/><path d=" M 2622.438 649.278 L 2627.438 649.278 L 2627.438 654.09 L 2622.438 654.09 L 2622.438 649.278 Z " fill="rgb(28,20,19)"/><path d=" M 2622.438 514.545 L 2627.438 514.545 L 2627.438 519.356 L 2622.438 519.356 L 2622.438 514.545 Z " fill="rgb(28,20,19)"/><path d=" M 2622.438 639.656 L 2627.438 639.656 L 2627.438 644.467 L 2622.438 644.467 L 2622.438 639.656 Z " fill="rgb(28,20,19)"/><path d=" M 2622.438 504.922 L 2627.438 504.922 L 2627.438 509.733 L 2622.438 509.733 L 2622.438 504.922 Z " fill="rgb(28,20,19)"/><path d=" M 2622.438 658.901 L 2627.438 658.901 L 2627.438 663.712 L 2622.438 663.712 L 2622.438 658.901 Z " fill="rgb(28,20,19)"/><path d=" M 2622.438 524.167 L 2627.438 524.167 L 2627.438 528.978 L 2622.438 528.978 L 2622.438 524.167 Z " fill="rgb(28,20,19)"/><path d=" M 2622.438 668.523 L 2627.438 668.523 L 2627.438 673.335 L 2622.438 673.335 L 2622.438 668.523 Z " fill="rgb(28,20,19)"/><path d=" M 2622.438 533.79 L 2627.438 533.79 L 2627.438 538.601 L 2622.438 538.601 L 2622.438 533.79 Z " fill="rgb(28,20,19)"/><path d=" M 2622.438 735.9 L 2627.438 735.9 L 2627.438 740.711 L 2622.438 740.711 L 2622.438 735.9 Z " fill="rgb(28,20,19)"/><path d=" M 2622.438 755.145 L 2627.438 755.145 L 2627.438 759.956 L 2622.438 759.956 L 2622.438 755.145 Z " fill="rgb(28,20,19)"/><path d=" M 2622.438 745.522 L 2627.438 745.522 L 2627.438 750.334 L 2622.438 750.334 L 2622.438 745.522 Z " fill="rgb(28,20,19)"/><path d=" M 2622.438 764.767 L 2627.438 764.767 L 2627.438 769.579 L 2622.438 769.579 L 2622.438 764.767 Z " fill="rgb(28,20,19)"/><path d=" M 2622.438 774.39 L 2627.438 774.39 L 2627.438 779.201 L 2622.438 779.201 L 2622.438 774.39 Z " fill="rgb(28,20,19)"/><path d=" M 2622.438 764.767 L 2627.438 764.767 L 2627.438 769.579 L 2622.438 769.579 L 2622.438 764.767 Z " fill="rgb(28,20,19)"/><path d=" M 2622.438 784.012 L 2627.438 784.012 L 2627.438 788.824 L 2622.438 788.824 L 2622.438 784.012 Z " fill="rgb(28,20,19)"/><path d=" M 2622.438 774.39 L 2627.438 774.39 L 2627.438 779.201 L 2622.438 779.201 L 2622.438 774.39 Z " fill="rgb(28,20,19)"/><path d=" M 2622.438 793.635 L 2627.438 793.635 L 2627.438 798.446 L 2622.438 798.446 L 2622.438 793.635 Z " fill="rgb(28,20,19)"/><path d=" M 2622.438 803.257 L 2627.438 803.257 L 2627.438 808.069 L 2622.438 808.069 L 2622.438 803.257 Z " fill="rgb(28,20,19)"/><path d=" M 2622.438 803.239 L 2627.438 803.239 L 2627.438 808.05 L 2622.438 808.05 L 2622.438 803.239 Z " fill="rgb(28,20,19)"/><path d=" M 2622.438 822.484 L 2627.438 822.484 L 2627.438 827.295 L 2622.438 827.295 L 2622.438 822.484 Z " fill="rgb(28,20,19)"/><path d=" M 2622.438 812.861 L 2627.438 812.861 L 2627.438 817.672 L 2622.438 817.672 L 2622.438 812.861 Z " fill="rgb(28,20,19)"/><path d=" M 2622.438 832.106 L 2627.438 832.106 L 2627.438 836.917 L 2622.438 836.917 L 2622.438 832.106 Z " fill="rgb(28,20,19)"/><path d=" M 2622.438 841.729 L 2627.438 841.729 L 2627.438 846.54 L 2622.438 846.54 L 2622.438 841.729 Z " fill="rgb(28,20,19)"/><path d=" M 2622.438 832.106 L 2627.438 832.106 L 2627.438 836.917 L 2622.438 836.917 L 2622.438 832.106 Z " fill="rgb(28,20,19)"/><path d=" M 2622.438 851.351 L 2627.438 851.351 L 2627.438 856.162 L 2622.438 856.162 L 2622.438 851.351 Z " fill="rgb(28,20,19)"/><path d=" M 2622.438 841.729 L 2627.438 841.729 L 2627.438 846.54 L 2622.438 846.54 L 2622.438 841.729 Z " fill="rgb(28,20,19)"/><path d=" M 2622.438 860.974 L 2627.438 860.974 L 2627.438 865.785 L 2622.438 865.785 L 2622.438 860.974 Z " fill="rgb(28,20,19)"/><path d=" M 2622.438 870.596 L 2627.438 870.596 L 2627.438 875.407 L 2622.438 875.407 L 2622.438 870.596 Z " fill="rgb(28,20,19)"/><path d=" M 2622.438 870.596 L 2627.438 870.596 L 2627.438 875.407 L 2622.438 875.407 L 2622.438 870.596 Z " fill="rgb(28,20,19)"/><path d=" M 2622.438 889.841 L 2627.438 889.841 L 2627.438 894.652 L 2622.438 894.652 L 2622.438 889.841 Z " fill="rgb(28,20,19)"/><path d=" M 2622.438 880.219 L 2627.438 880.219 L 2627.438 885.03 L 2622.438 885.03 L 2622.438 880.219 Z " fill="rgb(28,20,19)"/><path d=" M 2622.438 899.464 L 2627.438 899.464 L 2627.438 904.275 L 2622.438 904.275 L 2622.438 899.464 Z " fill="rgb(28,20,19)"/><path d=" M 2622.438 899.464 L 2627.438 899.464 L 2627.438 904.275 L 2622.438 904.275 L 2622.438 899.464 Z " fill="rgb(28,20,19)"/><path d=" M 2610.938 403.719 L 2613.438 405.162 L 2613.438 897.78 L 2610.938 896.336 L 2610.938 403.719 Z " fill="rgb(28,20,19)"/><path d=" M 2636.188 423.926 L 2638.688 425.369 L 2638.688 912.448 L 2636.188 910.77 L 2636.188 423.926 Z " fill="rgb(28,20,19)"/></g></g><g id="windows-curtainwall-right"><path d=" M 2652.312 946.576 L 2732.312 946.576 L 2732.312 185.66 L 2652.312 185.66 L 2652.312 946.576 Z " fill="none" vector-effect="non-scaling-stroke" stroke-width="1" stroke="rgb(0,0,0)" stroke-linejoin="round" stroke-linecap="round" stroke-miterlimit="3"/><line x1="2652.313" y1="197.183" x2="2732.313" y2="197.183" vector-effect="non-scaling-stroke" stroke-width="1" stroke="rgb(0,0,0)" stroke-linejoin="miter" stroke-linecap="square" stroke-miterlimit="3"/><line x1="2652.313" y1="565.933" x2="2732.313" y2="565.933" vector-effect="non-scaling-stroke" stroke-width="1" stroke="rgb(0,0,0)" stroke-linejoin="miter" stroke-linecap="square" stroke-miterlimit="3"/><line x1="2652.313" y1="220.23" x2="2732.313" y2="220.23" vector-effect="non-scaling-stroke" stroke-width="1" stroke="rgb(0,0,0)" stroke-linejoin="miter" stroke-linecap="square" stroke-miterlimit="3"/><line x1="2652.313" y1="577.456" x2="2732.313" y2="577.456" vector-effect="non-scaling-stroke" stroke-width="1" stroke="rgb(0,0,0)" stroke-linejoin="miter" stroke-linecap="square" stroke-miterlimit="3"/><line x1="2652.313" y1="243.277" x2="2732.313" y2="243.277" vector-effect="non-scaling-stroke" stroke-width="1" stroke="rgb(0,0,0)" stroke-linejoin="miter" stroke-linecap="square" stroke-miterlimit="3"/><line x1="2652.313" y1="588.98" x2="2732.313" y2="588.98" vector-effect="non-scaling-stroke" stroke-width="1" stroke="rgb(0,0,0)" stroke-linejoin="miter" stroke-linecap="square" stroke-miterlimit="3"/><line x1="2652.313" y1="266.324" x2="2732.313" y2="266.324" vector-effect="non-scaling-stroke" stroke-width="1" stroke="rgb(0,0,0)" stroke-linejoin="miter" stroke-linecap="square" stroke-miterlimit="3"/><line x1="2652.313" y1="323.941" x2="2732.313" y2="323.941" vector-effect="non-scaling-stroke" stroke-width="1" stroke="rgb(0,0,0)" stroke-linejoin="miter" stroke-linecap="square" stroke-miterlimit="3"/><line x1="2652.313" y1="738.785" x2="2732.313" y2="738.785" vector-effect="non-scaling-stroke" stroke-width="1" stroke="rgb(0,0,0)" stroke-linejoin="miter" stroke-linecap="square" stroke-miterlimit="3"/><line x1="2652.313" y1="300.894" x2="2732.313" y2="300.894" vector-effect="non-scaling-stroke" stroke-width="1" stroke="rgb(0,0,0)" stroke-linejoin="miter" stroke-linecap="square" stroke-miterlimit="3"/><line x1="2652.313" y1="370.035" x2="2732.313" y2="370.035" vector-effect="non-scaling-stroke" stroke-width="1" stroke="rgb(0,0,0)" stroke-linejoin="miter" stroke-linecap="square" stroke-miterlimit="3"/><line x1="2652.313" y1="773.355" x2="2732.313" y2="773.355" vector-effect="non-scaling-stroke" stroke-width="1" stroke="rgb(0,0,0)" stroke-linejoin="miter" stroke-linecap="square" stroke-miterlimit="3"/><line x1="2652.313" y1="381.558" x2="2732.313" y2="381.558" vector-effect="non-scaling-stroke" stroke-width="1" stroke="rgb(0,0,0)" stroke-linejoin="miter" stroke-linecap="square" stroke-miterlimit="3"/><line x1="2652.313" y1="346.988" x2="2732.313" y2="346.988" vector-effect="non-scaling-stroke" stroke-width="1" stroke="rgb(0,0,0)" stroke-linejoin="miter" stroke-linecap="square" stroke-miterlimit="3"/><line x1="2652.313" y1="646.597" x2="2732.313" y2="646.597" vector-effect="non-scaling-stroke" stroke-width="1" stroke="rgb(0,0,0)" stroke-linejoin="miter" stroke-linecap="square" stroke-miterlimit="3"/><line x1="2652.313" y1="416.128" x2="2732.313" y2="416.128" vector-effect="non-scaling-stroke" stroke-width="1" stroke="rgb(0,0,0)" stroke-linejoin="miter" stroke-linecap="square" stroke-miterlimit="3"/><line x1="2652.313" y1="439.175" x2="2732.313" y2="439.175" vector-effect="non-scaling-stroke" stroke-width="1" stroke="rgb(0,0,0)" stroke-linejoin="miter" stroke-linecap="square" stroke-miterlimit="3"/><line x1="2652.313" y1="600.503" x2="2732.313" y2="600.503" vector-effect="non-scaling-stroke" stroke-width="1" stroke="rgb(0,0,0)" stroke-linejoin="miter" stroke-linecap="square" stroke-miterlimit="3"/><line x1="2652.313" y1="404.605" x2="2732.313" y2="404.605" vector-effect="non-scaling-stroke" stroke-width="1" stroke="rgb(0,0,0)" stroke-linejoin="miter" stroke-linecap="square" stroke-miterlimit="3"/><line x1="2652.313" y1="669.644" x2="2732.313" y2="669.644" vector-effect="non-scaling-stroke" stroke-width="1" stroke="rgb(0,0,0)" stroke-linejoin="miter" stroke-linecap="square" stroke-miterlimit="3"/><line x1="2652.313" y1="450.699" x2="2732.313" y2="450.699" vector-effect="non-scaling-stroke" stroke-width="1" stroke="rgb(0,0,0)" stroke-linejoin="miter" stroke-linecap="square" stroke-miterlimit="3"/><line x1="2652.313" y1="692.691" x2="2732.313" y2="692.691" vector-effect="non-scaling-stroke" stroke-width="1" stroke="rgb(0,0,0)" stroke-linejoin="miter" stroke-linecap="square" stroke-miterlimit="3"/><line x1="2652.313" y1="623.55" x2="2732.313" y2="623.55" vector-effect="non-scaling-stroke" stroke-width="1" stroke="rgb(0,0,0)" stroke-linejoin="miter" stroke-linecap="square" stroke-miterlimit="3"/><line x1="2652.313" y1="462.222" x2="2732.313" y2="462.222" vector-effect="non-scaling-stroke" stroke-width="1" stroke="rgb(0,0,0)" stroke-linejoin="miter" stroke-linecap="square" stroke-miterlimit="3"/><line x1="2652.313" y1="854.019" x2="2732.313" y2="854.019" vector-effect="non-scaling-stroke" stroke-width="1" stroke="rgb(0,0,0)" stroke-linejoin="miter" stroke-linecap="square" stroke-miterlimit="3"/><line x1="2652.313" y1="473.746" x2="2732.313" y2="473.746" vector-effect="non-scaling-stroke" stroke-width="1" stroke="rgb(0,0,0)" stroke-linejoin="miter" stroke-linecap="square" stroke-miterlimit="3"/><line x1="2652.313" y1="485.269" x2="2732.313" y2="485.269" vector-effect="non-scaling-stroke" stroke-width="1" stroke="rgb(0,0,0)" stroke-linejoin="miter" stroke-linecap="square" stroke-miterlimit="3"/><line x1="2652.313" y1="496.792" x2="2732.313" y2="496.792" vector-effect="non-scaling-stroke" stroke-width="1" stroke="rgb(0,0,0)" stroke-linejoin="miter" stroke-linecap="square" stroke-miterlimit="3"/><line x1="2652.313" y1="508.316" x2="2732.313" y2="508.316" vector-effect="non-scaling-stroke" stroke-width="1" stroke="rgb(0,0,0)" stroke-linejoin="miter" stroke-linecap="square" stroke-miterlimit="3"/><line x1="2652.313" y1="519.839" x2="2732.313" y2="519.839" vector-effect="non-scaling-stroke" stroke-width="1" stroke="rgb(0,0,0)" stroke-linejoin="miter" stroke-linecap="square" stroke-miterlimit="3"/><line x1="2652.313" y1="531.363" x2="2732.313" y2="531.363" vector-effect="non-scaling-stroke" stroke-width="1" stroke="rgb(0,0,0)" stroke-linejoin="miter" stroke-linecap="square" stroke-miterlimit="3"/><line x1="2652.313" y1="542.886" x2="2732.313" y2="542.886" vector-effect="non-scaling-stroke" stroke-width="1" stroke="rgb(0,0,0)" stroke-linejoin="miter" stroke-linecap="square" stroke-miterlimit="3"/><line x1="2652.313" y1="554.41" x2="2732.313" y2="554.41" vector-effect="non-scaling-stroke" stroke-width="1" stroke="rgb(0,0,0)" stroke-linejoin="miter" stroke-linecap="square" stroke-miterlimit="3"/><line x1="2652.313" y1="208.706" x2="2732.313" y2="208.706" vector-effect="non-scaling-stroke" stroke-width="1" stroke="rgb(0,0,0)" stroke-linejoin="miter" stroke-linecap="square" stroke-miterlimit="3"/><line x1="2652.313" y1="231.753" x2="2732.313" y2="231.753" vector-effect="non-scaling-stroke" stroke-width="1" stroke="rgb(0,0,0)" stroke-linejoin="miter" stroke-linecap="square" stroke-miterlimit="3"/><line x1="2652.313" y1="254.8" x2="2732.313" y2="254.8" vector-effect="non-scaling-stroke" stroke-width="1" stroke="rgb(0,0,0)" stroke-linejoin="miter" stroke-linecap="square" stroke-miterlimit="3"/><line x1="2652.313" y1="842.496" x2="2732.313" y2="842.496" vector-effect="non-scaling-stroke" stroke-width="1" stroke="rgb(0,0,0)" stroke-linejoin="miter" stroke-linecap="square" stroke-miterlimit="3"/><line x1="2652.313" y1="289.371" x2="2732.313" y2="289.371" vector-effect="non-scaling-stroke" stroke-width="1" stroke="rgb(0,0,0)" stroke-linejoin="miter" stroke-linecap="square" stroke-miterlimit="3"/><line x1="2652.313" y1="635.074" x2="2732.313" y2="635.074" vector-effect="non-scaling-stroke" stroke-width="1" stroke="rgb(0,0,0)" stroke-linejoin="miter" stroke-linecap="square" stroke-miterlimit="3"/><line x1="2652.313" y1="335.464" x2="2732.313" y2="335.464" vector-effect="non-scaling-stroke" stroke-width="1" stroke="rgb(0,0,0)" stroke-linejoin="miter" stroke-linecap="square" stroke-miterlimit="3"/><line x1="2652.313" y1="658.121" x2="2732.313" y2="658.121" vector-effect="non-scaling-stroke" stroke-width="1" stroke="rgb(0,0,0)" stroke-linejoin="miter" stroke-linecap="square" stroke-miterlimit="3"/><line x1="2652.313" y1="393.081" x2="2732.313" y2="393.081" vector-effect="non-scaling-stroke" stroke-width="1" stroke="rgb(0,0,0)" stroke-linejoin="miter" stroke-linecap="square" stroke-miterlimit="3"/><line x1="2652.313" y1="681.167" x2="2732.313" y2="681.167" vector-effect="non-scaling-stroke" stroke-width="1" stroke="rgb(0,0,0)" stroke-linejoin="miter" stroke-linecap="square" stroke-miterlimit="3"/><line x1="2652.313" y1="427.652" x2="2732.313" y2="427.652" vector-effect="non-scaling-stroke" stroke-width="1" stroke="rgb(0,0,0)" stroke-linejoin="miter" stroke-linecap="square" stroke-miterlimit="3"/><line x1="2652.313" y1="358.511" x2="2732.313" y2="358.511" vector-effect="non-scaling-stroke" stroke-width="1" stroke="rgb(0,0,0)" stroke-linejoin="miter" stroke-linecap="square" stroke-miterlimit="3"/><line x1="2652.313" y1="715.738" x2="2732.313" y2="715.738" vector-effect="non-scaling-stroke" stroke-width="1" stroke="rgb(0,0,0)" stroke-linejoin="miter" stroke-linecap="square" stroke-miterlimit="3"/><line x1="2652.313" y1="312.417" x2="2732.313" y2="312.417" vector-effect="non-scaling-stroke" stroke-width="1" stroke="rgb(0,0,0)" stroke-linejoin="miter" stroke-linecap="square" stroke-miterlimit="3"/><line x1="2652.313" y1="277.847" x2="2732.313" y2="277.847" vector-effect="non-scaling-stroke" stroke-width="1" stroke="rgb(0,0,0)" stroke-linejoin="miter" stroke-linecap="square" stroke-miterlimit="3"/><line x1="2652.313" y1="761.831" x2="2732.313" y2="761.831" vector-effect="non-scaling-stroke" stroke-width="1" stroke="rgb(0,0,0)" stroke-linejoin="miter" stroke-linecap="square" stroke-miterlimit="3"/><line x1="2652.313" y1="727.261" x2="2732.313" y2="727.261" vector-effect="non-scaling-stroke" stroke-width="1" stroke="rgb(0,0,0)" stroke-linejoin="miter" stroke-linecap="square" stroke-miterlimit="3"/><line x1="2652.313" y1="877.066" x2="2732.313" y2="877.066" vector-effect="non-scaling-stroke" stroke-width="1" stroke="rgb(0,0,0)" stroke-linejoin="miter" stroke-linecap="square" stroke-miterlimit="3"/><line x1="2652.313" y1="796.402" x2="2732.313" y2="796.402" vector-effect="non-scaling-stroke" stroke-width="1" stroke="rgb(0,0,0)" stroke-linejoin="miter" stroke-linecap="square" stroke-miterlimit="3"/><line x1="2652.313" y1="888.589" x2="2732.313" y2="888.589" vector-effect="non-scaling-stroke" stroke-width="1" stroke="rgb(0,0,0)" stroke-linejoin="miter" stroke-linecap="square" stroke-miterlimit="3"/><line x1="2652.313" y1="819.449" x2="2732.313" y2="819.449" vector-effect="non-scaling-stroke" stroke-width="1" stroke="rgb(0,0,0)" stroke-linejoin="miter" stroke-linecap="square" stroke-miterlimit="3"/><line x1="2652.313" y1="704.214" x2="2732.313" y2="704.214" vector-effect="non-scaling-stroke" stroke-width="1" stroke="rgb(0,0,0)" stroke-linejoin="miter" stroke-linecap="square" stroke-miterlimit="3"/><line x1="2652.313" y1="612.027" x2="2732.313" y2="612.027" vector-effect="non-scaling-stroke" stroke-width="1" stroke="rgb(0,0,0)" stroke-linejoin="miter" stroke-linecap="square" stroke-miterlimit="3"/><line x1="2652.313" y1="865.542" x2="2732.313" y2="865.542" vector-effect="non-scaling-stroke" stroke-width="1" stroke="rgb(0,0,0)" stroke-linejoin="miter" stroke-linecap="square" stroke-miterlimit="3"/><line x1="2652.313" y1="750.308" x2="2732.313" y2="750.308" vector-effect="non-scaling-stroke" stroke-width="1" stroke="rgb(0,0,0)" stroke-linejoin="miter" stroke-linecap="square" stroke-miterlimit="3"/><line x1="2652.313" y1="784.878" x2="2732.313" y2="784.878" vector-effect="non-scaling-stroke" stroke-width="1" stroke="rgb(0,0,0)" stroke-linejoin="miter" stroke-linecap="square" stroke-miterlimit="3"/><line x1="2652.313" y1="807.925" x2="2732.313" y2="807.925" vector-effect="non-scaling-stroke" stroke-width="1" stroke="rgb(0,0,0)" stroke-linejoin="miter" stroke-linecap="square" stroke-miterlimit="3"/><line x1="2652.313" y1="830.972" x2="2732.313" y2="830.972" vector-effect="non-scaling-stroke" stroke-width="1" stroke="rgb(0,0,0)" stroke-linejoin="miter" stroke-linecap="square" stroke-miterlimit="3"/><line x1="2652.313" y1="900.113" x2="2732.313" y2="900.113" vector-effect="non-scaling-stroke" stroke-width="1" stroke="rgb(0,0,0)" stroke-linejoin="miter" stroke-linecap="square" stroke-miterlimit="3"/><line x1="2652.313" y1="911.636" x2="2732.313" y2="911.636" vector-effect="non-scaling-stroke" stroke-width="1" stroke="rgb(0,0,0)" stroke-linejoin="miter" stroke-linecap="square" stroke-miterlimit="3"/><line x1="2652.313" y1="923.16" x2="2732.313" y2="923.16" vector-effect="non-scaling-stroke" stroke-width="1" stroke="rgb(0,0,0)" stroke-linejoin="miter" stroke-linecap="square" stroke-miterlimit="3"/><line x1="2652.313" y1="934.683" x2="2732.313" y2="934.683" vector-effect="non-scaling-stroke" stroke-width="1" stroke="rgb(0,0,0)" stroke-linejoin="miter" stroke-linecap="square" stroke-miterlimit="3"/><line x1="2657.646" y1="185.66" x2="2657.646" y2="945.75" vector-effect="non-scaling-stroke" stroke-width="1" stroke="rgb(0,0,0)" stroke-linejoin="miter" stroke-linecap="square" stroke-miterlimit="3"/><line x1="2694.979" y1="185.66" x2="2694.979" y2="945.75" vector-effect="non-scaling-stroke" stroke-width="1" stroke="rgb(0,0,0)" stroke-linejoin="miter" stroke-linecap="square" stroke-miterlimit="3"/><line x1="2662.979" y1="185.66" x2="2662.979" y2="945.75" vector-effect="non-scaling-stroke" stroke-width="1" stroke="rgb(0,0,0)" stroke-linejoin="miter" stroke-linecap="square" stroke-miterlimit="3"/><line x1="2705.646" y1="185.66" x2="2705.646" y2="945.75" vector-effect="non-scaling-stroke" stroke-width="1" stroke="rgb(0,0,0)" stroke-linejoin="miter" stroke-linecap="square" stroke-miterlimit="3"/><line x1="2673.646" y1="185.66" x2="2673.646" y2="945.75" vector-effect="non-scaling-stroke" stroke-width="1" stroke="rgb(0,0,0)" stroke-linejoin="miter" stroke-linecap="square" stroke-miterlimit="3"/><line x1="2721.646" y1="185.66" x2="2721.646" y2="945.75" vector-effect="non-scaling-stroke" stroke-width="1" stroke="rgb(0,0,0)" stroke-linejoin="miter" stroke-linecap="square" stroke-miterlimit="3"/><line x1="2689.646" y1="185.66" x2="2689.646" y2="945.75" vector-effect="non-scaling-stroke" stroke-width="1" stroke="rgb(0,0,0)" stroke-linejoin="miter" stroke-linecap="square" stroke-miterlimit="3"/><line x1="2726.979" y1="185.66" x2="2726.979" y2="945.75" vector-effect="non-scaling-stroke" stroke-width="1" stroke="rgb(0,0,0)" stroke-linejoin="miter" stroke-linecap="square" stroke-miterlimit="3"/><line x1="2652.313" y1="185.66" x2="2652.313" y2="945.75" vector-effect="non-scaling-stroke" stroke-width="1" stroke="rgb(0,0,0)" stroke-linejoin="miter" stroke-linecap="square" stroke-miterlimit="3"/><line x1="2700.313" y1="185.66" x2="2700.313" y2="945.75" vector-effect="non-scaling-stroke" stroke-width="1" stroke="rgb(0,0,0)" stroke-linejoin="miter" stroke-linecap="square" stroke-miterlimit="3"/><line x1="2668.313" y1="185.66" x2="2668.313" y2="945.75" vector-effect="non-scaling-stroke" stroke-width="1" stroke="rgb(0,0,0)" stroke-linejoin="miter" stroke-linecap="square" stroke-miterlimit="3"/><line x1="2710.979" y1="185.66" x2="2710.979" y2="945.75" vector-effect="non-scaling-stroke" stroke-width="1" stroke="rgb(0,0,0)" stroke-linejoin="miter" stroke-linecap="square" stroke-miterlimit="3"/><line x1="2678.979" y1="185.66" x2="2678.979" y2="945.75" vector-effect="non-scaling-stroke" stroke-width="1" stroke="rgb(0,0,0)" stroke-linejoin="miter" stroke-linecap="square" stroke-miterlimit="3"/><line x1="2716.313" y1="185.66" x2="2716.313" y2="945.75" vector-effect="non-scaling-stroke" stroke-width="1" stroke="rgb(0,0,0)" stroke-linejoin="miter" stroke-linecap="square" stroke-miterlimit="3"/><line x1="2684.313" y1="185.66" x2="2684.313" y2="945.75" vector-effect="non-scaling-stroke" stroke-width="1" stroke="rgb(0,0,0)" stroke-linejoin="miter" stroke-linecap="square" stroke-miterlimit="3"/><line x1="2732.313" y1="185.66" x2="2732.313" y2="945.75" vector-effect="non-scaling-stroke" stroke-width="1" stroke="rgb(0,0,0)" stroke-linejoin="miter" stroke-linecap="square" stroke-miterlimit="3"/></g></g></svg>