<?xml version="1.0" standalone="no"?><!-- Generator: Gravit.io --><svg xmlns="http://www.w3.org/2000/svg" xmlns:xlink="http://www.w3.org/1999/xlink" style="isolation:isolate" viewBox="3060.5 295.764 260.5 588.695" width="260.5" height="588.695"><g id="equitable-body"><path d=" M 3161 884.459 L 3321 792.083 L 3320.5 353.401 L 3160.5 445.777 L 3161 884.459 Z " fill="rgb(62,61,61)"/><path d=" M 3061 826.724 L 3060.5 388.042 L 3160.5 445.777 L 3161 884.459 L 3061 826.724 Z " fill="rgb(42,42,42)"/><g id="Body-Window-Left"><path d=" M 3156.138 465.558 L 3156.138 475.911 L 3129.241 460.382 L 3129.241 450.03 L 3156.138 465.558 Z " fill="rgb(0,0,0)"/><path d=" M 3093.379 429.325 L 3093.379 439.677 L 3066.483 424.148 L 3066.483 413.796 L 3093.379 429.325 Z " fill="rgb(0,0,0)"/><path d=" M 3124.759 447.441 L 3124.759 457.794 L 3097.862 442.265 L 3097.862 431.913 L 3124.759 447.441 Z " fill="rgb(0,0,0)"/><path d=" M 3156.138 680.89 L 3156.138 691.242 L 3129.241 675.714 L 3129.241 665.361 L 3156.138 680.89 Z " fill="rgb(0,0,0)"/><path d=" M 3093.379 644.656 L 3093.379 655.009 L 3066.483 639.48 L 3066.483 629.128 L 3093.379 644.656 Z " fill="rgb(0,0,0)"/><path d=" M 3124.759 662.773 L 3124.759 673.126 L 3097.862 657.597 L 3097.862 647.244 L 3124.759 662.773 Z " fill="rgb(0,0,0)"/><path d=" M 3156.138 647.762 L 3156.138 658.115 L 3129.241 642.586 L 3129.241 632.233 L 3156.138 647.762 Z " fill="rgb(0,0,0)"/><path d=" M 3093.379 611.528 L 3093.379 621.881 L 3066.483 606.352 L 3066.483 596 L 3093.379 611.528 Z " fill="rgb(0,0,0)"/><path d=" M 3124.759 629.645 L 3124.759 639.998 L 3097.862 624.469 L 3097.862 614.116 L 3124.759 629.645 Z " fill="rgb(0,0,0)"/><path d=" M 3156.138 515.25 L 3156.138 525.603 L 3129.241 510.074 L 3129.241 499.721 L 3156.138 515.25 Z " fill="rgb(0,0,0)"/><path d=" M 3093.379 479.016 L 3093.379 489.369 L 3066.483 473.84 L 3066.483 463.488 L 3093.379 479.016 Z " fill="rgb(0,0,0)"/><path d=" M 3124.759 497.133 L 3124.759 507.486 L 3097.862 491.957 L 3097.862 481.605 L 3124.759 497.133 Z " fill="rgb(0,0,0)"/><path d=" M 3156.138 730.582 L 3156.138 740.934 L 3129.241 725.406 L 3129.241 715.053 L 3156.138 730.582 Z " fill="rgb(0,0,0)"/><path d=" M 3093.379 694.348 L 3093.379 704.701 L 3066.483 689.172 L 3066.483 678.819 L 3093.379 694.348 Z " fill="rgb(0,0,0)"/><path d=" M 3124.759 712.465 L 3124.759 722.818 L 3097.862 707.289 L 3097.862 696.936 L 3124.759 712.465 Z " fill="rgb(0,0,0)"/><path d=" M 3156.138 531.814 L 3156.138 542.167 L 3129.241 526.638 L 3129.241 516.285 L 3156.138 531.814 Z " fill="rgb(0,0,0)"/><path d=" M 3093.379 495.58 L 3093.379 505.933 L 3066.483 490.404 L 3066.483 480.052 L 3093.379 495.58 Z " fill="rgb(0,0,0)"/><path d=" M 3124.759 513.697 L 3124.759 524.05 L 3097.862 508.521 L 3097.862 498.169 L 3124.759 513.697 Z " fill="rgb(0,0,0)"/><path d=" M 3156.138 548.378 L 3156.138 558.731 L 3129.241 543.202 L 3129.241 532.849 L 3156.138 548.378 Z " fill="rgb(0,0,0)"/><path d=" M 3093.379 512.144 L 3093.379 522.497 L 3066.483 506.968 L 3066.483 496.616 L 3093.379 512.144 Z " fill="rgb(0,0,0)"/><path d=" M 3124.759 530.261 L 3124.759 540.614 L 3097.862 525.085 L 3097.862 514.733 L 3124.759 530.261 Z " fill="rgb(0,0,0)"/><path d=" M 3156.138 564.942 L 3156.138 575.295 L 3129.241 559.766 L 3129.241 549.413 L 3156.138 564.942 Z " fill="rgb(0,0,0)"/><path d=" M 3093.379 528.708 L 3093.379 539.061 L 3066.483 523.532 L 3066.483 513.18 L 3093.379 528.708 Z " fill="rgb(0,0,0)"/><path d=" M 3124.759 546.825 L 3124.759 557.178 L 3097.862 541.649 L 3097.862 531.297 L 3124.759 546.825 Z " fill="rgb(0,0,0)"/><path d=" M 3156.138 581.506 L 3156.138 591.859 L 3129.241 576.33 L 3129.241 565.977 L 3156.138 581.506 Z " fill="rgb(0,0,0)"/><path d=" M 3093.379 545.272 L 3093.379 555.625 L 3066.483 540.096 L 3066.483 529.744 L 3093.379 545.272 Z " fill="rgb(0,0,0)"/><path d=" M 3124.759 563.389 L 3124.759 573.742 L 3097.862 558.213 L 3097.862 547.861 L 3124.759 563.389 Z " fill="rgb(0,0,0)"/><path d=" M 3156.138 598.07 L 3156.138 608.423 L 3129.241 592.894 L 3129.241 582.541 L 3156.138 598.07 Z " fill="rgb(0,0,0)"/><path d=" M 3093.379 561.836 L 3093.379 572.189 L 3066.483 556.66 L 3066.483 546.308 L 3093.379 561.836 Z " fill="rgb(0,0,0)"/><path d=" M 3124.759 579.953 L 3124.759 590.306 L 3097.862 574.777 L 3097.862 564.425 L 3124.759 579.953 Z " fill="rgb(0,0,0)"/><path d=" M 3156.138 614.634 L 3156.138 624.987 L 3129.241 609.458 L 3129.241 599.105 L 3156.138 614.634 Z " fill="rgb(0,0,0)"/><path d=" M 3093.379 578.4 L 3093.379 588.753 L 3066.483 573.224 L 3066.483 562.872 L 3093.379 578.4 Z " fill="rgb(0,0,0)"/><path d=" M 3124.759 596.517 L 3124.759 606.87 L 3097.862 591.341 L 3097.862 580.988 L 3124.759 596.517 Z " fill="rgb(0,0,0)"/><path d=" M 3156.138 631.198 L 3156.138 641.551 L 3129.241 626.022 L 3129.241 615.669 L 3156.138 631.198 Z " fill="rgb(0,0,0)"/><path d=" M 3093.379 594.964 L 3093.379 605.317 L 3066.483 589.788 L 3066.483 579.436 L 3093.379 594.964 Z " fill="rgb(0,0,0)"/><path d=" M 3124.759 613.081 L 3124.759 623.434 L 3097.862 607.905 L 3097.862 597.552 L 3124.759 613.081 Z " fill="rgb(0,0,0)"/><path d=" M 3156.138 482.122 L 3156.138 492.475 L 3129.241 476.946 L 3129.241 466.594 L 3156.138 482.122 Z " fill="rgb(0,0,0)"/><path d=" M 3093.379 445.889 L 3093.379 456.241 L 3066.483 440.712 L 3066.483 430.36 L 3093.379 445.889 Z " fill="rgb(0,0,0)"/><path d=" M 3124.759 464.005 L 3124.759 474.358 L 3097.862 458.829 L 3097.862 448.477 L 3124.759 464.005 Z " fill="rgb(0,0,0)"/><path d=" M 3156.138 448.994 L 3156.138 459.347 L 3129.241 443.818 L 3129.241 433.466 L 3156.138 448.994 Z " fill="rgb(0,0,0)"/><path d=" M 3093.379 412.761 L 3093.379 423.113 L 3066.483 407.584 L 3066.483 397.232 L 3093.379 412.761 Z " fill="rgb(0,0,0)"/><path d=" M 3124.759 430.877 L 3124.759 441.23 L 3097.862 425.701 L 3097.862 415.349 L 3124.759 430.877 Z " fill="rgb(0,0,0)"/><path d=" M 3156.138 498.686 L 3156.138 509.039 L 3129.241 493.51 L 3129.241 483.157 L 3156.138 498.686 Z " fill="rgb(0,0,0)"/><path d=" M 3093.379 462.453 L 3093.379 472.805 L 3066.483 457.276 L 3066.483 446.924 L 3093.379 462.453 Z " fill="rgb(0,0,0)"/><path d=" M 3124.759 480.569 L 3124.759 490.922 L 3097.862 475.393 L 3097.862 465.041 L 3124.759 480.569 Z " fill="rgb(0,0,0)"/><path d=" M 3156.138 714.018 L 3156.138 724.37 L 3129.241 708.842 L 3129.241 698.489 L 3156.138 714.018 Z " fill="rgb(0,0,0)"/><path d=" M 3093.379 677.784 L 3093.379 688.137 L 3066.483 672.608 L 3066.483 662.256 L 3093.379 677.784 Z " fill="rgb(0,0,0)"/><path d=" M 3124.759 695.901 L 3124.759 706.254 L 3097.862 690.725 L 3097.862 680.372 L 3124.759 695.901 Z " fill="rgb(0,0,0)"/><path d=" M 3156.138 747.146 L 3156.138 757.498 L 3129.241 741.97 L 3129.241 731.617 L 3156.138 747.146 Z " fill="rgb(0,0,0)"/><path d=" M 3093.379 710.912 L 3093.379 721.265 L 3066.483 705.736 L 3066.483 695.383 L 3093.379 710.912 Z " fill="rgb(0,0,0)"/><path d=" M 3124.759 729.029 L 3124.759 739.382 L 3097.862 723.853 L 3097.862 713.5 L 3124.759 729.029 Z " fill="rgb(0,0,0)"/><path d=" M 3156.138 763.71 L 3156.138 774.062 L 3129.241 758.534 L 3129.241 748.181 L 3156.138 763.71 Z " fill="rgb(0,0,0)"/><path d=" M 3093.379 727.476 L 3093.379 737.829 L 3066.483 722.3 L 3066.483 711.947 L 3093.379 727.476 Z " fill="rgb(0,0,0)"/><path d=" M 3124.759 745.593 L 3124.759 755.946 L 3097.862 740.417 L 3097.862 730.064 L 3124.759 745.593 Z " fill="rgb(0,0,0)"/><path d=" M 3156.138 780.274 L 3156.138 790.626 L 3129.241 775.098 L 3129.241 764.745 L 3156.138 780.274 Z " fill="rgb(0,0,0)"/><path d=" M 3093.379 744.04 L 3093.379 754.393 L 3066.483 738.864 L 3066.483 728.511 L 3093.379 744.04 Z " fill="rgb(0,0,0)"/><path d=" M 3124.759 762.157 L 3124.759 772.51 L 3097.862 756.981 L 3097.862 746.628 L 3124.759 762.157 Z " fill="rgb(0,0,0)"/><path d=" M 3156.138 664.326 L 3156.138 674.679 L 3129.241 659.15 L 3129.241 648.797 L 3156.138 664.326 Z " fill="rgb(0,0,0)"/><path d=" M 3093.379 628.092 L 3093.379 638.445 L 3066.483 622.916 L 3066.483 612.564 L 3093.379 628.092 Z " fill="rgb(0,0,0)"/><path d=" M 3124.759 646.209 L 3124.759 656.562 L 3097.862 641.033 L 3097.862 630.68 L 3124.759 646.209 Z " fill="rgb(0,0,0)"/><path d=" M 3156.138 697.454 L 3156.138 707.806 L 3129.241 692.278 L 3129.241 681.925 L 3156.138 697.454 Z " fill="rgb(0,0,0)"/><path d=" M 3093.379 661.22 L 3093.379 671.573 L 3066.483 656.044 L 3066.483 645.692 L 3093.379 661.22 Z " fill="rgb(0,0,0)"/><path d=" M 3124.759 679.337 L 3124.759 689.69 L 3097.862 674.161 L 3097.862 663.808 L 3124.759 679.337 Z " fill="rgb(0,0,0)"/><path d=" M 3156.138 796.838 L 3156.138 807.19 L 3129.241 791.662 L 3129.241 781.309 L 3156.138 796.838 Z " fill="rgb(0,0,0)"/><path d=" M 3093.379 760.604 L 3093.379 770.957 L 3066.483 755.428 L 3066.483 745.075 L 3093.379 760.604 Z " fill="rgb(0,0,0)"/><path d=" M 3124.759 778.721 L 3124.759 789.073 L 3097.862 773.545 L 3097.862 763.192 L 3124.759 778.721 Z " fill="rgb(0,0,0)"/><path d=" M 3156.138 813.402 L 3156.138 823.754 L 3129.241 808.226 L 3129.241 797.873 L 3156.138 813.402 Z " fill="rgb(0,0,0)"/><path d=" M 3093.379 777.168 L 3093.379 787.521 L 3066.483 771.992 L 3066.483 761.639 L 3093.379 777.168 Z " fill="rgb(0,0,0)"/><path d=" M 3124.759 795.285 L 3124.759 805.637 L 3097.862 790.109 L 3097.862 779.756 L 3124.759 795.285 Z " fill="rgb(0,0,0)"/><path d=" M 3156.138 829.966 L 3156.138 840.318 L 3129.241 824.79 L 3129.241 814.437 L 3156.138 829.966 Z " fill="rgb(0,0,0)"/><path d=" M 3093.379 793.732 L 3093.379 804.085 L 3066.483 788.556 L 3066.483 778.203 L 3093.379 793.732 Z " fill="rgb(0,0,0)"/><path d=" M 3124.759 811.849 L 3124.759 822.201 L 3097.862 806.673 L 3097.862 796.32 L 3124.759 811.849 Z " fill="rgb(0,0,0)"/><path d=" M 3156.138 846.53 L 3156.138 856.882 L 3129.241 841.354 L 3129.241 831.001 L 3156.138 846.53 Z " fill="rgb(0,0,0)"/><path d=" M 3093.379 810.296 L 3093.379 820.649 L 3066.483 805.12 L 3066.483 794.767 L 3093.379 810.296 Z " fill="rgb(0,0,0)"/><path d=" M 3124.759 828.413 L 3124.759 838.765 L 3097.862 823.237 L 3097.862 812.884 L 3124.759 828.413 Z " fill="rgb(0,0,0)"/><path d=" M 3156.138 863.094 L 3156.138 873.446 L 3129.241 857.918 L 3129.241 847.565 L 3156.138 863.094 Z " fill="rgb(0,0,0)"/><path d=" M 3093.379 826.86 L 3093.379 837.213 L 3066.483 821.684 L 3066.483 811.331 L 3093.379 826.86 Z " fill="rgb(0,0,0)"/><path d=" M 3124.759 844.977 L 3124.759 855.329 L 3097.862 839.801 L 3097.862 829.448 L 3124.759 844.977 Z " fill="rgb(0,0,0)"/></g><g id="Body-Window-Right"><path d=" M 3165.103 465.558 L 3165.103 475.911 L 3192 460.382 L 3192 450.03 L 3165.103 465.558 Z " fill="rgb(0,0,0)"/><path d=" M 3227.862 429.325 L 3227.862 439.677 L 3254.759 424.148 L 3254.759 413.796 L 3227.862 429.325 Z " fill="rgb(0,0,0)"/><path d=" M 3196.483 447.441 L 3196.483 457.794 L 3223.379 442.265 L 3223.379 431.913 L 3196.483 447.441 Z " fill="rgb(0,0,0)"/><path d=" M 3259.241 411.208 L 3259.241 421.56 L 3286.138 406.031 L 3286.138 395.679 L 3259.241 411.208 Z " fill="rgb(0,0,0)"/><path d=" M 3290.621 393.091 L 3290.621 403.443 L 3317.517 387.915 L 3317.517 377.562 L 3290.621 393.091 Z " fill="rgb(0,0,0)"/><path d=" M 3165.103 680.89 L 3165.103 691.242 L 3192 675.714 L 3192 665.361 L 3165.103 680.89 Z " fill="rgb(0,0,0)"/><path d=" M 3227.862 644.656 L 3227.862 655.009 L 3254.759 639.48 L 3254.759 629.128 L 3227.862 644.656 Z " fill="rgb(0,0,0)"/><path d=" M 3196.483 662.773 L 3196.483 673.126 L 3223.379 657.597 L 3223.379 647.244 L 3196.483 662.773 Z " fill="rgb(0,0,0)"/><path d=" M 3259.241 626.539 L 3259.241 636.892 L 3286.138 621.363 L 3286.138 611.011 L 3259.241 626.539 Z " fill="rgb(0,0,0)"/><path d=" M 3290.621 608.423 L 3290.621 618.775 L 3317.517 603.246 L 3317.517 592.894 L 3290.621 608.423 Z " fill="rgb(0,0,0)"/><path d=" M 3165.103 647.762 L 3165.103 658.115 L 3192 642.586 L 3192 632.233 L 3165.103 647.762 Z " fill="rgb(0,0,0)"/><path d=" M 3227.862 611.528 L 3227.862 621.881 L 3254.759 606.352 L 3254.759 596 L 3227.862 611.528 Z " fill="rgb(0,0,0)"/><path d=" M 3196.483 629.645 L 3196.483 639.998 L 3223.379 624.469 L 3223.379 614.116 L 3196.483 629.645 Z " fill="rgb(0,0,0)"/><path d=" M 3259.241 593.411 L 3259.241 603.764 L 3286.138 588.235 L 3286.138 577.883 L 3259.241 593.411 Z " fill="rgb(0,0,0)"/><path d=" M 3290.621 575.295 L 3290.621 585.647 L 3317.517 570.118 L 3317.517 559.766 L 3290.621 575.295 Z " fill="rgb(0,0,0)"/><path d=" M 3165.103 515.25 L 3165.103 525.603 L 3192 510.074 L 3192 499.721 L 3165.103 515.25 Z " fill="rgb(0,0,0)"/><path d=" M 3227.862 479.016 L 3227.862 489.369 L 3254.759 473.84 L 3254.759 463.488 L 3227.862 479.016 Z " fill="rgb(0,0,0)"/><path d=" M 3196.483 497.133 L 3196.483 507.486 L 3223.379 491.957 L 3223.379 481.605 L 3196.483 497.133 Z " fill="rgb(0,0,0)"/><path d=" M 3259.241 460.9 L 3259.241 471.252 L 3286.138 455.723 L 3286.138 445.371 L 3259.241 460.9 Z " fill="rgb(0,0,0)"/><path d=" M 3290.621 442.783 L 3290.621 453.135 L 3317.517 437.607 L 3317.517 427.254 L 3290.621 442.783 Z " fill="rgb(0,0,0)"/><path d=" M 3165.103 730.582 L 3165.103 740.934 L 3192 725.406 L 3192 715.053 L 3165.103 730.582 Z " fill="rgb(0,0,0)"/><path d=" M 3227.862 694.348 L 3227.862 704.701 L 3254.759 689.172 L 3254.759 678.819 L 3227.862 694.348 Z " fill="rgb(0,0,0)"/><path d=" M 3196.483 712.465 L 3196.483 722.818 L 3223.379 707.289 L 3223.379 696.936 L 3196.483 712.465 Z " fill="rgb(0,0,0)"/><path d=" M 3259.241 676.231 L 3259.241 686.584 L 3286.138 671.055 L 3286.138 660.703 L 3259.241 676.231 Z " fill="rgb(0,0,0)"/><path d=" M 3290.621 658.115 L 3290.621 668.467 L 3317.517 652.938 L 3317.517 642.586 L 3290.621 658.115 Z " fill="rgb(0,0,0)"/><path d=" M 3165.103 531.814 L 3165.103 542.167 L 3192 526.638 L 3192 516.285 L 3165.103 531.814 Z " fill="rgb(0,0,0)"/><path d=" M 3227.862 495.58 L 3227.862 505.933 L 3254.759 490.404 L 3254.759 480.052 L 3227.862 495.58 Z " fill="rgb(0,0,0)"/><path d=" M 3196.483 513.697 L 3196.483 524.05 L 3223.379 508.521 L 3223.379 498.169 L 3196.483 513.697 Z " fill="rgb(0,0,0)"/><path d=" M 3259.241 477.464 L 3259.241 487.816 L 3286.138 472.287 L 3286.138 461.935 L 3259.241 477.464 Z " fill="rgb(0,0,0)"/><path d=" M 3290.621 459.347 L 3290.621 469.699 L 3317.517 454.171 L 3317.517 443.818 L 3290.621 459.347 Z " fill="rgb(0,0,0)"/><path d=" M 3165.103 548.378 L 3165.103 558.731 L 3192 543.202 L 3192 532.849 L 3165.103 548.378 Z " fill="rgb(0,0,0)"/><path d=" M 3227.862 512.144 L 3227.862 522.497 L 3254.759 506.968 L 3254.759 496.616 L 3227.862 512.144 Z " fill="rgb(0,0,0)"/><path d=" M 3196.483 530.261 L 3196.483 540.614 L 3223.379 525.085 L 3223.379 514.733 L 3196.483 530.261 Z " fill="rgb(0,0,0)"/><path d=" M 3259.241 494.028 L 3259.241 504.38 L 3286.138 488.851 L 3286.138 478.499 L 3259.241 494.028 Z " fill="rgb(0,0,0)"/><path d=" M 3290.621 475.911 L 3290.621 486.263 L 3317.517 470.734 L 3317.517 460.382 L 3290.621 475.911 Z " fill="rgb(0,0,0)"/><path d=" M 3165.103 564.942 L 3165.103 575.295 L 3192 559.766 L 3192 549.413 L 3165.103 564.942 Z " fill="rgb(0,0,0)"/><path d=" M 3227.862 528.708 L 3227.862 539.061 L 3254.759 523.532 L 3254.759 513.18 L 3227.862 528.708 Z " fill="rgb(0,0,0)"/><path d=" M 3196.483 546.825 L 3196.483 557.178 L 3223.379 541.649 L 3223.379 531.297 L 3196.483 546.825 Z " fill="rgb(0,0,0)"/><path d=" M 3259.241 510.592 L 3259.241 520.944 L 3286.138 505.415 L 3286.138 495.063 L 3259.241 510.592 Z " fill="rgb(0,0,0)"/><path d=" M 3290.621 492.475 L 3290.621 502.827 L 3317.517 487.298 L 3317.517 476.946 L 3290.621 492.475 Z " fill="rgb(0,0,0)"/><path d=" M 3165.103 581.506 L 3165.103 591.859 L 3192 576.33 L 3192 565.977 L 3165.103 581.506 Z " fill="rgb(0,0,0)"/><path d=" M 3227.862 545.272 L 3227.862 555.625 L 3254.759 540.096 L 3254.759 529.744 L 3227.862 545.272 Z " fill="rgb(0,0,0)"/><path d=" M 3196.483 563.389 L 3196.483 573.742 L 3223.379 558.213 L 3223.379 547.861 L 3196.483 563.389 Z " fill="rgb(0,0,0)"/><path d=" M 3259.241 527.156 L 3259.241 537.508 L 3286.138 521.979 L 3286.138 511.627 L 3259.241 527.156 Z " fill="rgb(0,0,0)"/><path d=" M 3290.621 509.039 L 3290.621 519.391 L 3317.517 503.862 L 3317.517 493.51 L 3290.621 509.039 Z " fill="rgb(0,0,0)"/><path d=" M 3165.103 598.07 L 3165.103 608.423 L 3192 592.894 L 3192 582.541 L 3165.103 598.07 Z " fill="rgb(0,0,0)"/><path d=" M 3227.862 561.836 L 3227.862 572.189 L 3254.759 556.66 L 3254.759 546.308 L 3227.862 561.836 Z " fill="rgb(0,0,0)"/><path d=" M 3196.483 579.953 L 3196.483 590.306 L 3223.379 574.777 L 3223.379 564.425 L 3196.483 579.953 Z " fill="rgb(0,0,0)"/><path d=" M 3259.241 543.72 L 3259.241 554.072 L 3286.138 538.543 L 3286.138 528.191 L 3259.241 543.72 Z " fill="rgb(0,0,0)"/><path d=" M 3290.621 525.603 L 3290.621 535.955 L 3317.517 520.426 L 3317.517 510.074 L 3290.621 525.603 Z " fill="rgb(0,0,0)"/><path d=" M 3165.103 614.634 L 3165.103 624.987 L 3192 609.458 L 3192 599.105 L 3165.103 614.634 Z " fill="rgb(0,0,0)"/><path d=" M 3227.862 578.4 L 3227.862 588.753 L 3254.759 573.224 L 3254.759 562.872 L 3227.862 578.4 Z " fill="rgb(0,0,0)"/><path d=" M 3196.483 596.517 L 3196.483 606.87 L 3223.379 591.341 L 3223.379 580.988 L 3196.483 596.517 Z " fill="rgb(0,0,0)"/><path d=" M 3259.241 560.284 L 3259.241 570.636 L 3286.138 555.107 L 3286.138 544.755 L 3259.241 560.284 Z " fill="rgb(0,0,0)"/><path d=" M 3290.621 542.167 L 3290.621 552.519 L 3317.517 536.99 L 3317.517 526.638 L 3290.621 542.167 Z " fill="rgb(0,0,0)"/><path d=" M 3165.103 631.198 L 3165.103 641.551 L 3192 626.022 L 3192 615.669 L 3165.103 631.198 Z " fill="rgb(0,0,0)"/><path d=" M 3227.862 594.964 L 3227.862 605.317 L 3254.759 589.788 L 3254.759 579.436 L 3227.862 594.964 Z " fill="rgb(0,0,0)"/><path d=" M 3196.483 613.081 L 3196.483 623.434 L 3223.379 607.905 L 3223.379 597.552 L 3196.483 613.081 Z " fill="rgb(0,0,0)"/><path d=" M 3259.241 576.847 L 3259.241 587.2 L 3286.138 571.671 L 3286.138 561.319 L 3259.241 576.847 Z " fill="rgb(0,0,0)"/><path d=" M 3290.621 558.731 L 3290.621 569.083 L 3317.517 553.554 L 3317.517 543.202 L 3290.621 558.731 Z " fill="rgb(0,0,0)"/><path d=" M 3165.103 482.122 L 3165.103 492.475 L 3192 476.946 L 3192 466.594 L 3165.103 482.122 Z " fill="rgb(0,0,0)"/><path d=" M 3227.862 445.889 L 3227.862 456.241 L 3254.759 440.712 L 3254.759 430.36 L 3227.862 445.889 Z " fill="rgb(0,0,0)"/><path d=" M 3196.483 464.005 L 3196.483 474.358 L 3223.379 458.829 L 3223.379 448.477 L 3196.483 464.005 Z " fill="rgb(0,0,0)"/><path d=" M 3259.241 427.772 L 3259.241 438.124 L 3286.138 422.595 L 3286.138 412.243 L 3259.241 427.772 Z " fill="rgb(0,0,0)"/><path d=" M 3290.621 409.655 L 3290.621 420.007 L 3317.517 404.479 L 3317.517 394.126 L 3290.621 409.655 Z " fill="rgb(0,0,0)"/><path d=" M 3165.103 448.994 L 3165.103 459.347 L 3192 443.818 L 3192 433.466 L 3165.103 448.994 Z " fill="rgb(0,0,0)"/><path d=" M 3227.862 412.761 L 3227.862 423.113 L 3254.759 407.584 L 3254.759 397.232 L 3227.862 412.761 Z " fill="rgb(0,0,0)"/><path d=" M 3196.483 430.877 L 3196.483 441.23 L 3223.379 425.701 L 3223.379 415.349 L 3196.483 430.877 Z " fill="rgb(0,0,0)"/><path d=" M 3259.241 394.644 L 3259.241 404.996 L 3286.138 389.467 L 3286.138 379.115 L 3259.241 394.644 Z " fill="rgb(0,0,0)"/><path d=" M 3290.621 376.527 L 3290.621 386.879 L 3317.517 371.351 L 3317.517 360.998 L 3290.621 376.527 Z " fill="rgb(0,0,0)"/><path d=" M 3165.103 498.686 L 3165.103 509.039 L 3192 493.51 L 3192 483.157 L 3165.103 498.686 Z " fill="rgb(0,0,0)"/><path d=" M 3227.862 462.453 L 3227.862 472.805 L 3254.759 457.276 L 3254.759 446.924 L 3227.862 462.453 Z " fill="rgb(0,0,0)"/><path d=" M 3196.483 480.569 L 3196.483 490.922 L 3223.379 475.393 L 3223.379 465.041 L 3196.483 480.569 Z " fill="rgb(0,0,0)"/><path d=" M 3259.241 444.336 L 3259.241 454.688 L 3286.138 439.159 L 3286.138 428.807 L 3259.241 444.336 Z " fill="rgb(0,0,0)"/><path d=" M 3290.621 426.219 L 3290.621 436.571 L 3317.517 421.043 L 3317.517 410.69 L 3290.621 426.219 Z " fill="rgb(0,0,0)"/><path d=" M 3165.103 714.018 L 3165.103 724.37 L 3192 708.842 L 3192 698.489 L 3165.103 714.018 Z " fill="rgb(0,0,0)"/><path d=" M 3227.862 677.784 L 3227.862 688.137 L 3254.759 672.608 L 3254.759 662.256 L 3227.862 677.784 Z " fill="rgb(0,0,0)"/><path d=" M 3196.483 695.901 L 3196.483 706.254 L 3223.379 690.725 L 3223.379 680.372 L 3196.483 695.901 Z " fill="rgb(0,0,0)"/><path d=" M 3259.241 659.667 L 3259.241 670.02 L 3286.138 654.491 L 3286.138 644.139 L 3259.241 659.667 Z " fill="rgb(0,0,0)"/><path d=" M 3290.621 641.551 L 3290.621 651.903 L 3317.517 636.374 L 3317.517 626.022 L 3290.621 641.551 Z " fill="rgb(0,0,0)"/><path d=" M 3165.103 747.146 L 3165.103 757.498 L 3192 741.97 L 3192 731.617 L 3165.103 747.146 Z " fill="rgb(0,0,0)"/><path d=" M 3227.862 710.912 L 3227.862 721.265 L 3254.759 705.736 L 3254.759 695.383 L 3227.862 710.912 Z " fill="rgb(0,0,0)"/><path d=" M 3196.483 729.029 L 3196.483 739.382 L 3223.379 723.853 L 3223.379 713.5 L 3196.483 729.029 Z " fill="rgb(0,0,0)"/><path d=" M 3259.241 692.795 L 3259.241 703.148 L 3286.138 687.619 L 3286.138 677.267 L 3259.241 692.795 Z " fill="rgb(0,0,0)"/><path d=" M 3290.621 674.678 L 3290.621 685.031 L 3317.517 669.502 L 3317.517 659.15 L 3290.621 674.678 Z " fill="rgb(0,0,0)"/><path d=" M 3165.103 763.71 L 3165.103 774.062 L 3192 758.534 L 3192 748.181 L 3165.103 763.71 Z " fill="rgb(0,0,0)"/><path d=" M 3227.862 727.476 L 3227.862 737.829 L 3254.759 722.3 L 3254.759 711.947 L 3227.862 727.476 Z " fill="rgb(0,0,0)"/><path d=" M 3196.483 745.593 L 3196.483 755.946 L 3223.379 740.417 L 3223.379 730.064 L 3196.483 745.593 Z " fill="rgb(0,0,0)"/><path d=" M 3259.241 709.359 L 3259.241 719.712 L 3286.138 704.183 L 3286.138 693.831 L 3259.241 709.359 Z " fill="rgb(0,0,0)"/><path d=" M 3290.621 691.242 L 3290.621 701.595 L 3317.517 686.066 L 3317.517 675.714 L 3290.621 691.242 Z " fill="rgb(0,0,0)"/><path d=" M 3165.103 780.274 L 3165.103 790.626 L 3192 775.098 L 3192 764.745 L 3165.103 780.274 Z " fill="rgb(0,0,0)"/><path d=" M 3227.862 744.04 L 3227.862 754.393 L 3254.759 738.864 L 3254.759 728.511 L 3227.862 744.04 Z " fill="rgb(0,0,0)"/><path d=" M 3196.483 762.157 L 3196.483 772.51 L 3223.379 756.981 L 3223.379 746.628 L 3196.483 762.157 Z " fill="rgb(0,0,0)"/><path d=" M 3259.241 725.923 L 3259.241 736.276 L 3286.138 720.747 L 3286.138 710.395 L 3259.241 725.923 Z " fill="rgb(0,0,0)"/><path d=" M 3290.621 707.806 L 3290.621 718.159 L 3317.517 702.63 L 3317.517 692.278 L 3290.621 707.806 Z " fill="rgb(0,0,0)"/><path d=" M 3165.103 664.326 L 3165.103 674.679 L 3192 659.15 L 3192 648.797 L 3165.103 664.326 Z " fill="rgb(0,0,0)"/><path d=" M 3227.862 628.092 L 3227.862 638.445 L 3254.759 622.916 L 3254.759 612.564 L 3227.862 628.092 Z " fill="rgb(0,0,0)"/><path d=" M 3196.483 646.209 L 3196.483 656.562 L 3223.379 641.033 L 3223.379 630.68 L 3196.483 646.209 Z " fill="rgb(0,0,0)"/><path d=" M 3259.241 609.975 L 3259.241 620.328 L 3286.138 604.799 L 3286.138 594.447 L 3259.241 609.975 Z " fill="rgb(0,0,0)"/><path d=" M 3290.621 591.859 L 3290.621 602.211 L 3317.517 586.682 L 3317.517 576.33 L 3290.621 591.859 Z " fill="rgb(0,0,0)"/><path d=" M 3165.103 697.454 L 3165.103 707.806 L 3192 692.278 L 3192 681.925 L 3165.103 697.454 Z " fill="rgb(0,0,0)"/><path d=" M 3227.862 661.22 L 3227.862 671.573 L 3254.759 656.044 L 3254.759 645.692 L 3227.862 661.22 Z " fill="rgb(0,0,0)"/><path d=" M 3196.483 679.337 L 3196.483 689.69 L 3223.379 674.161 L 3223.379 663.808 L 3196.483 679.337 Z " fill="rgb(0,0,0)"/><path d=" M 3259.241 643.103 L 3259.241 653.456 L 3286.138 637.927 L 3286.138 627.575 L 3259.241 643.103 Z " fill="rgb(0,0,0)"/><path d=" M 3290.621 624.987 L 3290.621 635.339 L 3317.517 619.81 L 3317.517 609.458 L 3290.621 624.987 Z " fill="rgb(0,0,0)"/><path d=" M 3165.103 796.838 L 3165.103 807.19 L 3192 791.662 L 3192 781.309 L 3165.103 796.838 Z " fill="rgb(0,0,0)"/><path d=" M 3227.862 760.604 L 3227.862 770.957 L 3254.759 755.428 L 3254.759 745.075 L 3227.862 760.604 Z " fill="rgb(0,0,0)"/><path d=" M 3196.483 778.721 L 3196.483 789.073 L 3223.379 773.545 L 3223.379 763.192 L 3196.483 778.721 Z " fill="rgb(0,0,0)"/><path d=" M 3259.241 742.487 L 3259.241 752.84 L 3286.138 737.311 L 3286.138 726.959 L 3259.241 742.487 Z " fill="rgb(0,0,0)"/><path d=" M 3290.621 724.37 L 3290.621 734.723 L 3317.517 719.194 L 3317.517 708.842 L 3290.621 724.37 Z " fill="rgb(0,0,0)"/><path d=" M 3165.103 813.402 L 3165.103 823.754 L 3192 808.226 L 3192 797.873 L 3165.103 813.402 Z " fill="rgb(0,0,0)"/><path d=" M 3227.862 777.168 L 3227.862 787.521 L 3254.759 771.992 L 3254.759 761.639 L 3227.862 777.168 Z " fill="rgb(0,0,0)"/><path d=" M 3196.483 795.285 L 3196.483 805.637 L 3223.379 790.109 L 3223.379 779.756 L 3196.483 795.285 Z " fill="rgb(0,0,0)"/><path d=" M 3259.241 759.051 L 3259.241 769.404 L 3286.138 753.875 L 3286.138 743.523 L 3259.241 759.051 Z " fill="rgb(0,0,0)"/><path d=" M 3290.621 740.934 L 3290.621 751.287 L 3317.517 735.758 L 3317.517 725.406 L 3290.621 740.934 Z " fill="rgb(0,0,0)"/><path d=" M 3165.103 829.966 L 3165.103 840.318 L 3192 824.79 L 3192 814.437 L 3165.103 829.966 Z " fill="rgb(0,0,0)"/><path d=" M 3227.862 793.732 L 3227.862 804.085 L 3254.759 788.556 L 3254.759 778.203 L 3227.862 793.732 Z " fill="rgb(0,0,0)"/><path d=" M 3196.483 811.849 L 3196.483 822.201 L 3223.379 806.673 L 3223.379 796.32 L 3196.483 811.849 Z " fill="rgb(0,0,0)"/><path d=" M 3259.241 775.615 L 3259.241 785.968 L 3286.138 770.439 L 3286.138 760.087 L 3259.241 775.615 Z " fill="rgb(0,0,0)"/><path d=" M 3290.621 757.498 L 3290.621 767.851 L 3317.517 752.322 L 3317.517 741.97 L 3290.621 757.498 Z " fill="rgb(0,0,0)"/><path d=" M 3165.103 846.53 L 3165.103 856.882 L 3192 841.354 L 3192 831.001 L 3165.103 846.53 Z " fill="rgb(0,0,0)"/><path d=" M 3227.862 810.296 L 3227.862 820.649 L 3254.759 805.12 L 3254.759 794.767 L 3227.862 810.296 Z " fill="rgb(0,0,0)"/><path d=" M 3196.483 828.413 L 3196.483 838.765 L 3223.379 823.237 L 3223.379 812.884 L 3196.483 828.413 Z " fill="rgb(0,0,0)"/><path d=" M 3259.241 792.179 L 3259.241 802.532 L 3286.138 787.003 L 3286.138 776.651 L 3259.241 792.179 Z " fill="rgb(0,0,0)"/><path d=" M 3290.621 774.062 L 3290.621 784.415 L 3317.517 768.886 L 3317.517 758.534 L 3290.621 774.062 Z " fill="rgb(0,0,0)"/><path d=" M 3165.103 863.094 L 3165.103 873.446 L 3192 857.918 L 3192 847.565 L 3165.103 863.094 Z " fill="rgb(0,0,0)"/><path d=" M 3227.862 826.86 L 3227.862 837.213 L 3254.759 821.684 L 3254.759 811.331 L 3227.862 826.86 Z " fill="rgb(0,0,0)"/><path d=" M 3196.483 844.977 L 3196.483 855.329 L 3223.379 839.801 L 3223.379 829.448 L 3196.483 844.977 Z " fill="rgb(0,0,0)"/><path d=" M 3259.241 808.743 L 3259.241 819.096 L 3286.138 803.567 L 3286.138 793.214 L 3259.241 808.743 Z " fill="rgb(0,0,0)"/><path d=" M 3290.621 790.626 L 3290.621 800.979 L 3317.517 785.45 L 3317.517 775.098 L 3290.621 790.626 Z " fill="rgb(0,0,0)"/></g><path d=" M 3060.5 388.14 L 3160.5 445.875 L 3320.5 353.499 L 3220.5 295.764 L 3060.5 388.14 Z " fill="rgb(162,162,162)"/></g></svg>