<?xml version="1.0" standalone="no"?><!-- Generator: Gravit.io --><svg xmlns="http://www.w3.org/2000/svg" xmlns:xlink="http://www.w3.org/1999/xlink" style="isolation:isolate" viewBox="3060.75 37.59 260 193.412" width="260" height="193.412"><g id="Pool Roof"><path d=" M 3060.75 132.852 L 3160.75 190.587 L 3320.75 98.211 L 3221.25 40.373 L 3060.75 132.852 Z " fill="rgb(139,139,139)"/><path d=" M 3160.75 184.814 L 3310.75 98.211 L 3220.75 46.25 L 3070.75 132.852 L 3160.75 184.814 Z " fill="rgb(244,244,244)"/><path d=" M 3305.75 101.098 L 3220.75 52.023 L 3220.75 46.25 L 3310.75 98.211 L 3305.75 101.098 Z " fill="rgb(42,42,42)"/><path d=" M 3305.75 95.325 L 3310.75 92.438 L 3220.75 40.476 L 3220.75 46.25 L 3305.75 95.325 Z " fill="rgb(219,248,255)"/><g opacity="0.8"><path d=" M 3315.75 92.438 L 3220.75 37.59 L 3220.75 40.476 L 3310.75 92.438 L 3315.75 92.438 Z " fill="rgb(246,253,255)"/></g><path d=" M 3215.75 49.137 L 3220.75 46.25 L 3220.75 40.476 L 3210.75 46.25 L 3215.75 49.137 Z " fill="rgb(219,248,255)"/><g opacity="0.8"><path d=" M 3220.75 37.59 L 3208.25 44.806 L 3210.75 46.25 L 3220.75 40.476 L 3220.75 37.59 Z " fill="rgb(246,253,255)"/></g><path d=" M 3220.75 46.25 L 3220.75 52.023 L 3215.75 49.137 L 3220.75 46.25 Z " fill="rgb(62,61,61)"/><path d=" M 3320.75 138.626 L 3320.75 98.211 L 3160.75 190.587 L 3160.75 231.002 L 3320.75 138.626 Z " fill="rgb(62,61,61)"/><path d=" M 3060.75 173.267 L 3060.75 132.852 L 3160.75 190.587 L 3160.75 231.002 L 3060.75 173.267 Z " fill="rgb(42,42,42)"/><g id="Group"><path d=" M 3216.251 64.887 L 3227.917 71.622 L 3230.834 69.938 L 3219.168 63.203 L 3216.251 64.887 Z " fill="rgb(30,29,28)"/><g id="Group"><g id="Group"><linearGradient id="_lgradient_904" x1="2.5000000000048304%" y1="68.48798940194455%" x2="100.00000000000426%" y2="46.11566647085249%"><stop offset="0%" stop-opacity="1" style="stop-color:rgb(51,39,22)"/><stop offset="100%" stop-opacity="1" style="stop-color:rgb(96,61,22)"/></linearGradient><path d=" M 3218.196 65.049 C 3218.196 65.359 3218.631 65.611 3219.168 65.611 C 3219.704 65.611 3220.14 65.359 3220.14 65.049 L 3220.14 60.559 L 3218.196 60.559 L 3218.196 65.049 Z " fill="url(#_lgradient_904)"/><linearGradient id="_lgradient_905" x1="4.166666666666788%" y1="67.60455294605876%" x2="96.66666666666649%" y2="30.489178498154217%"><stop offset="0%" stop-opacity="1" style="stop-color:rgb(0,86,74)"/><stop offset="100%" stop-opacity="1" style="stop-color:rgb(22,157,101)"/></linearGradient><path d=" M 3213.335 53.499 C 3213.335 49.162 3215.949 45.641 3219.168 45.641 C 3222.387 45.641 3225.001 49.162 3225.001 53.499 C 3225.001 57.836 3222.387 61.357 3219.168 61.357 C 3215.949 61.357 3213.335 57.836 3213.335 53.499 Z " fill="url(#_lgradient_905)"/></g><g id="Group"><linearGradient id="_lgradient_906" x1="2.5000000000048304%" y1="68.48798940194455%" x2="100.00000000000426%" y2="46.11566647085249%"><stop offset="0%" stop-opacity="1" style="stop-color:rgb(51,39,22)"/><stop offset="100%" stop-opacity="1" style="stop-color:rgb(96,61,22)"/></linearGradient><path d=" M 3226.945 70.101 C 3226.945 70.41 3227.381 70.662 3227.917 70.662 C 3228.454 70.662 3228.889 70.41 3228.889 70.101 L 3228.889 65.611 L 3226.945 65.611 L 3226.945 70.101 Z " fill="url(#_lgradient_906)"/><linearGradient id="_lgradient_907" x1="4.166666666666788%" y1="67.60455294605876%" x2="96.66666666666649%" y2="30.489178498154217%"><stop offset="0%" stop-opacity="1" style="stop-color:rgb(0,86,74)"/><stop offset="100%" stop-opacity="1" style="stop-color:rgb(22,157,101)"/></linearGradient><path d=" M 3222.084 58.551 C 3222.084 54.214 3224.698 50.693 3227.917 50.693 C 3231.136 50.693 3233.75 54.214 3233.75 58.551 C 3233.75 62.887 3231.136 66.408 3227.917 66.408 C 3224.698 66.408 3222.084 62.887 3222.084 58.551 Z " fill="url(#_lgradient_907)"/></g></g></g><path d=" M 3187.32 191.913 L 3291.801 131.591 C 3292.658 131.096 3293.353 131.498 3293.353 132.488 L 3293.353 139.254 C 3293.353 140.244 3292.658 141.449 3291.801 141.944 L 3187.32 202.266 C 3186.463 202.76 3185.767 202.359 3185.767 201.369 L 3185.767 194.603 C 3185.767 193.613 3186.463 192.408 3187.32 191.913 Z " fill="rgb(255,255,255)"/><path d=" M 3085.75 124.192 L 3120.75 144.399 L 3120.75 121.305 L 3085.75 101.098 L 3085.75 124.192 Z " fill="rgb(162,162,162)"/><path d=" M 3195.75 37.59 L 3230.75 57.797 L 3120.75 121.305 L 3085.75 101.098 L 3195.75 37.59 Z " fill="rgb(232,232,232)"/><path d=" M 3120.75 144.399 L 3230.75 80.891 L 3230.75 57.797 L 3120.75 121.305 L 3120.75 144.399 Z " fill="rgb(185,185,185)"/><path d=" M 3218.25 88.108 L 3125.75 141.513 L 3125.75 124.192 L 3218.25 70.787 L 3218.25 88.108 Z " fill="rgb(244,244,244)"/><path d=" M 3203.25 79.447 L 3218.25 70.787 L 3218.25 88.108 L 3203.25 79.447 Z " fill="rgb(139,139,139)"/><path d=" M 3140.75 127.079 L 3155.75 135.739 L 3130.75 150.173 L 3160.75 167.493 L 3270.75 103.985 L 3240.75 86.664 L 3215.75 101.098 L 3200.75 92.438 L 3140.75 127.079 Z " fill="rgb(150,234,255)"/><path d=" M 3240.75 86.664 L 3240.75 92.438 L 3215.75 106.872 L 3215.75 101.098 L 3240.75 86.664 Z " fill="rgb(108,212,238)"/><path d=" M 3200.75 92.438 L 3200.75 98.211 L 3215.75 106.872 L 3215.75 101.098 L 3200.75 92.438 Z " fill="rgb(70,181,208)"/><path d=" M 3145.75 129.966 L 3200.75 98.211 L 3200.75 92.438 L 3140.75 127.079 L 3145.75 129.966 Z " fill="rgb(108,212,238)"/><path d=" M 3155.75 135.739 L 3155.75 141.513 L 3135.75 153.06 L 3130.75 150.173 L 3155.75 135.739 Z " fill="rgb(108,212,238)"/><path d=" M 3240.75 92.438 L 3240.75 86.664 L 3270.75 103.985 L 3265.75 106.872 L 3240.75 92.438 Z " fill="rgb(70,181,208)"/><path d=" M 3090.75 127.079 L 3090.75 121.305 L 3070.75 132.852 L 3075.75 135.739 L 3090.75 127.079 Z " fill="rgb(62,61,61)"/><g id="Group"><path d=" M 3250.75 83.778 L 3248.25 82.334 L 3250.75 78.004 L 3253.25 79.448 L 3250.75 83.778 Z " fill="rgb(166,154,142)"/><path d=" M 3245.75 86.664 L 3250.75 83.778 L 3248.25 82.334 L 3243.25 85.221 L 3245.75 86.664 Z " fill="rgb(219,200,185)"/></g><g id="Group"><path d=" M 3128.25 160.72 L 3125.75 159.277 L 3128.25 157.833 L 3130.75 159.277 L 3128.25 160.72 Z " fill="rgb(166,154,142)"/><path d=" M 3133.25 154.946 L 3128.25 157.833 L 3130.75 159.277 L 3135.75 156.39 L 3133.25 154.946 Z " fill="rgb(219,200,185)"/></g><g id="Group"><path d=" M 3143.25 169.38 L 3140.75 167.937 L 3143.25 166.493 L 3145.75 167.937 L 3143.25 169.38 Z " fill="rgb(166,154,142)"/><path d=" M 3148.25 163.607 L 3143.25 166.493 L 3145.75 167.937 L 3150.75 165.05 L 3148.25 163.607 Z " fill="rgb(219,200,185)"/></g><g id="Group"><path d=" M 3133.25 163.607 L 3130.75 162.163 L 3133.25 160.72 L 3135.75 162.163 L 3133.25 163.607 Z " fill="rgb(166,154,142)"/><path d=" M 3138.25 157.833 L 3133.25 160.72 L 3135.75 162.163 L 3140.75 159.277 L 3138.25 157.833 Z " fill="rgb(219,200,185)"/></g><g id="Group"><path d=" M 3148.25 172.267 L 3145.75 170.824 L 3148.25 169.38 L 3150.75 170.824 L 3148.25 172.267 Z " fill="rgb(166,154,142)"/><path d=" M 3153.25 166.493 L 3148.25 169.38 L 3150.75 170.824 L 3155.75 167.937 L 3153.25 166.493 Z " fill="rgb(219,200,185)"/></g><g id="Group"><path d=" M 3123.25 154.946 L 3125.75 156.39 L 3123.25 157.833 L 3120.75 156.39 L 3123.25 154.946 Z " fill="rgb(166,154,142)"/><path d=" M 3130.75 153.503 L 3125.75 156.39 L 3123.25 154.946 L 3128.25 152.06 L 3130.75 153.503 Z " fill="rgb(219,200,185)"/></g><g id="Group"><path d=" M 3138.25 163.607 L 3140.75 165.05 L 3138.25 166.493 L 3135.75 165.05 L 3138.25 163.607 Z " fill="rgb(166,154,142)"/><path d=" M 3145.75 162.163 L 3140.75 165.05 L 3138.25 163.607 L 3143.25 160.72 L 3145.75 162.163 Z " fill="rgb(219,200,185)"/></g><g id="Group"><path d=" M 3265.75 92.438 L 3263.25 90.995 L 3265.75 86.664 L 3268.25 88.108 L 3265.75 92.438 Z " fill="rgb(166,154,142)"/><path d=" M 3260.75 95.325 L 3265.75 92.438 L 3263.25 90.995 L 3258.25 93.881 L 3260.75 95.325 Z " fill="rgb(219,200,185)"/></g><g id="Group"><path d=" M 3255.75 86.664 L 3253.25 85.221 L 3255.75 80.891 L 3258.25 82.334 L 3255.75 86.664 Z " fill="rgb(166,154,142)"/><path d=" M 3250.75 89.551 L 3255.75 86.664 L 3253.25 85.221 L 3248.25 88.108 L 3250.75 89.551 Z " fill="rgb(219,200,185)"/></g><g id="Group"><path d=" M 3270.75 95.325 L 3268.25 93.881 L 3270.75 89.551 L 3273.25 90.995 L 3270.75 95.325 Z " fill="rgb(166,154,142)"/><path d=" M 3265.75 98.211 L 3270.75 95.325 L 3268.25 93.881 L 3263.25 96.768 L 3265.75 98.211 Z " fill="rgb(219,200,185)"/></g><g id="Group"><path d=" M 3260.75 89.551 L 3258.25 88.108 L 3260.75 83.778 L 3263.25 85.221 L 3260.75 89.551 Z " fill="rgb(166,154,142)"/><path d=" M 3255.75 92.438 L 3260.75 89.551 L 3258.25 88.108 L 3253.25 90.995 L 3255.75 92.438 Z " fill="rgb(219,200,185)"/></g><g id="Group"><path d=" M 3275.75 98.211 L 3273.25 96.768 L 3275.75 92.438 L 3278.25 93.881 L 3275.75 98.211 Z " fill="rgb(166,154,142)"/><path d=" M 3270.75 101.098 L 3275.75 98.211 L 3273.25 96.768 L 3268.25 99.655 L 3270.75 101.098 Z " fill="rgb(219,200,185)"/></g><path d=" M 3165.75 112.645 L 3168.25 114.089 L 3178.25 108.315 L 3175.75 106.872 L 3165.75 112.645 Z " fill="rgb(150,234,255)"/><path d=" M 3168.25 116.975 L 3170.75 118.419 L 3180.75 112.645 L 3178.25 111.202 L 3168.25 116.975 Z " fill="rgb(150,234,255)"/><path d=" M 3168.25 116.975 L 3168.25 114.089 L 3178.25 108.315 L 3178.25 111.202 L 3168.25 116.975 Z " fill="rgb(108,212,238)"/><path d=" M 3170.75 118.419 L 3170.75 121.305 L 3180.75 115.532 L 3180.75 112.645 L 3170.75 118.419 Z " fill="rgb(108,212,238)"/><path d=" M 3165.75 118.419 L 3170.75 121.305 L 3170.75 118.419 L 3168.25 116.975 L 3168.25 114.089 L 3165.75 112.645 L 3165.75 118.419 Z " fill="rgb(70,181,208)"/><path d=" M 3085.75 124.192 L 3090.75 121.305 L 3085.75 118.419 L 3080.75 121.305 L 3085.75 124.192 Z " fill="rgb(139,139,139)"/><g id="Group"><g id="Group"><path d=" M 3167 166.772 L 3172 169.658 L 3174.5 168.215 L 3169.5 165.328 L 3167 166.772 Z " fill="rgb(219,200,185)"/><path d=" M 3174.5 171.102 L 3177 169.658 L 3174.5 168.215 L 3172 169.658 L 3174.5 171.102 Z " fill="rgb(166,154,142)"/></g><g id="Group"><path d=" M 3182 158.111 L 3187 160.998 L 3189.5 159.555 L 3184.5 156.668 L 3182 158.111 Z " fill="rgb(219,200,185)"/><path d=" M 3189.5 162.442 L 3192 160.998 L 3189.5 159.555 L 3187 160.998 L 3189.5 162.442 Z " fill="rgb(166,154,142)"/></g><g id="Group"><g id="Group"><path d=" M 3172 163.885 L 3177 166.772 L 3179.5 165.328 L 3174.5 162.442 L 3172 163.885 Z " fill="rgb(219,200,185)"/><path d=" M 3179.5 168.215 L 3182 166.772 L 3179.5 165.328 L 3177 166.772 L 3179.5 168.215 Z " fill="rgb(166,154,142)"/></g></g><g id="Group"><g id="Group"><path d=" M 3187 155.225 L 3192 158.111 L 3194.5 156.668 L 3189.5 153.781 L 3187 155.225 Z " fill="rgb(219,200,185)"/><path d=" M 3194.5 159.555 L 3197 158.111 L 3194.5 156.668 L 3192 158.111 L 3194.5 159.555 Z " fill="rgb(166,154,142)"/></g></g><g id="Group"><g id="Group"><path d=" M 3177 160.998 L 3182 163.885 L 3184.5 162.442 L 3179.5 159.555 L 3177 160.998 Z " fill="rgb(219,200,185)"/><path d=" M 3184.5 165.328 L 3187 163.885 L 3184.5 162.442 L 3182 163.885 L 3184.5 165.328 Z " fill="rgb(166,154,142)"/></g></g><g id="Group"><g id="Group"><path d=" M 3192 152.338 L 3197 155.225 L 3199.5 153.781 L 3194.5 150.895 L 3192 152.338 Z " fill="rgb(219,200,185)"/><path d=" M 3199.5 156.668 L 3202 155.225 L 3199.5 153.781 L 3197 155.225 L 3199.5 156.668 Z " fill="rgb(166,154,142)"/></g></g></g><g id="Group"><g id="Group"><path d=" M 3157 111.923 L 3152 109.037 L 3149.5 110.48 L 3154.5 113.367 L 3157 111.923 Z " fill="rgb(219,200,185)"/></g><g id="Group"><path d=" M 3142 120.584 L 3137 117.697 L 3134.5 119.14 L 3139.5 122.027 L 3142 120.584 Z " fill="rgb(219,200,185)"/></g><g id="Group"><g id="Group"><path d=" M 3152 114.81 L 3147 111.923 L 3144.5 113.367 L 3149.5 116.254 L 3152 114.81 Z " fill="rgb(219,200,185)"/></g></g><g id="Group"><g id="Group"><path d=" M 3137 123.47 L 3132 120.584 L 3129.5 122.027 L 3134.5 124.914 L 3137 123.47 Z " fill="rgb(219,200,185)"/></g></g><g id="Group"><g id="Group"><path d=" M 3147 117.697 L 3142 114.81 L 3139.5 116.254 L 3144.5 119.14 L 3147 117.697 Z " fill="rgb(219,200,185)"/></g></g><g id="Group"><g id="Group"><path d=" M 3132 126.357 L 3127 123.47 L 3125.75 124.192 L 3125.75 125.636 L 3129.5 127.801 L 3132 126.357 Z " fill="rgb(219,200,185)"/></g></g></g><g id="Group"><g id="Group"><path d=" M 3187 94.603 L 3182 91.716 L 3179.5 93.16 L 3184.5 96.046 L 3187 94.603 Z " fill="rgb(219,200,185)"/></g><g id="Group"><g id="Group"><path d=" M 3197 88.829 L 3192 85.943 L 3189.5 87.386 L 3194.5 90.273 L 3197 88.829 Z " fill="rgb(219,200,185)"/></g></g><g id="Group"><g id="Group"><path d=" M 3182 97.49 L 3177 94.603 L 3174.5 96.046 L 3179.5 98.933 L 3182 97.49 Z " fill="rgb(219,200,185)"/></g></g><g id="Group"><g id="Group"><path d=" M 3192 91.716 L 3187 88.829 L 3184.5 90.273 L 3189.5 93.16 L 3192 91.716 Z " fill="rgb(219,200,185)"/></g></g><g id="Group"><g id="Group"><path d=" M 3177 100.376 L 3172 97.49 L 3169.5 98.933 L 3174.5 101.82 L 3177 100.376 Z " fill="rgb(219,200,185)"/></g></g></g><g id="Group"><g id="Group"><path d=" M 3227 132.131 L 3232 135.017 L 3234.5 133.574 L 3229.5 130.687 L 3227 132.131 Z " fill="rgb(219,200,185)"/><path d=" M 3234.5 136.461 L 3237 135.017 L 3234.5 133.574 L 3232 135.017 L 3234.5 136.461 Z " fill="rgb(166,154,142)"/></g><g id="Group"><path d=" M 3212 140.791 L 3217 143.678 L 3219.5 142.234 L 3214.5 139.348 L 3212 140.791 Z " fill="rgb(219,200,185)"/><path d=" M 3219.5 145.121 L 3222 143.678 L 3219.5 142.234 L 3217 143.678 L 3219.5 145.121 Z " fill="rgb(166,154,142)"/></g><g id="Group"><g id="Group"><path d=" M 3202 146.564 L 3207 149.451 L 3209.5 148.008 L 3204.5 145.121 L 3202 146.564 Z " fill="rgb(219,200,185)"/><path d=" M 3209.5 150.895 L 3212 149.451 L 3209.5 148.008 L 3207 149.451 L 3209.5 150.895 Z " fill="rgb(166,154,142)"/></g></g><g id="Group"><g id="Group"><path d=" M 3217 137.904 L 3222 140.791 L 3224.5 139.348 L 3219.5 136.461 L 3217 137.904 Z " fill="rgb(219,200,185)"/><path d=" M 3224.5 142.234 L 3227 140.791 L 3224.5 139.348 L 3222 140.791 L 3224.5 142.234 Z " fill="rgb(166,154,142)"/></g></g><g id="Group"><g id="Group"><path d=" M 3207 143.678 L 3212 146.564 L 3214.5 145.121 L 3209.5 142.234 L 3207 143.678 Z " fill="rgb(219,200,185)"/><path d=" M 3214.5 148.008 L 3217 146.564 L 3214.5 145.121 L 3212 146.564 L 3214.5 148.008 Z " fill="rgb(166,154,142)"/></g></g><g id="Group"><g id="Group"><path d=" M 3222 135.017 L 3227 137.904 L 3229.5 136.461 L 3224.5 133.574 L 3222 135.017 Z " fill="rgb(219,200,185)"/><path d=" M 3229.5 139.348 L 3232 137.904 L 3229.5 136.461 L 3227 137.904 L 3229.5 139.348 Z " fill="rgb(166,154,142)"/></g></g></g><g id="Group"><g id="Group"><path d=" M 3257 114.81 L 3262 117.697 L 3264.5 116.254 L 3259.5 113.367 L 3257 114.81 Z " fill="rgb(219,200,185)"/><path d=" M 3264.5 119.14 L 3267 117.697 L 3264.5 116.254 L 3262 117.697 L 3264.5 119.14 Z " fill="rgb(166,154,142)"/></g><g id="Group"><path d=" M 3242 123.47 L 3247 126.357 L 3249.5 124.914 L 3244.5 122.027 L 3242 123.47 Z " fill="rgb(219,200,185)"/><path d=" M 3249.5 127.801 L 3252 126.357 L 3249.5 124.914 L 3247 126.357 L 3249.5 127.801 Z " fill="rgb(166,154,142)"/></g><g id="Group"><g id="Group"><path d=" M 3262 111.923 L 3267 114.81 L 3269.5 113.367 L 3264.5 110.48 L 3262 111.923 Z " fill="rgb(219,200,185)"/><path d=" M 3269.5 116.254 L 3272 114.81 L 3269.5 113.367 L 3267 114.81 L 3269.5 116.254 Z " fill="rgb(166,154,142)"/></g></g><g id="Group"><g id="Group"><path d=" M 3247 120.584 L 3252 123.47 L 3254.5 122.027 L 3249.5 119.14 L 3247 120.584 Z " fill="rgb(219,200,185)"/><path d=" M 3254.5 124.914 L 3257 123.47 L 3254.5 122.027 L 3252 123.47 L 3254.5 124.914 Z " fill="rgb(166,154,142)"/></g></g><g id="Group"><g id="Group"><path d=" M 3237 126.357 L 3242 129.244 L 3244.5 127.801 L 3239.5 124.914 L 3237 126.357 Z " fill="rgb(219,200,185)"/><path d=" M 3244.5 130.687 L 3247 129.244 L 3244.5 127.801 L 3242 129.244 L 3244.5 130.687 Z " fill="rgb(166,154,142)"/></g></g><g id="Group"><g id="Group"><path d=" M 3252 117.697 L 3257 120.584 L 3259.5 119.14 L 3254.5 116.254 L 3252 117.697 Z " fill="rgb(219,200,185)"/><path d=" M 3259.5 122.027 L 3262 120.584 L 3259.5 119.14 L 3257 120.584 L 3259.5 122.027 Z " fill="rgb(166,154,142)"/></g></g></g><g opacity="0.8"><path d=" M 3160.75 187.701 L 3315.75 98.211 L 3315.75 92.438 L 3160.75 181.927 L 3160.75 187.701 Z " fill="rgb(219,248,255)"/></g><g opacity="0.8"><path d=" M 3310.75 92.438 L 3315.75 92.438 L 3160.75 181.927 L 3160.75 179.04 L 3310.75 92.438 Z " fill="rgb(246,253,255)"/></g><g opacity="0.8"><path d=" M 3065.75 132.852 L 3065.75 127.079 L 3160.75 181.927 L 3160.75 187.701 L 3065.75 132.852 Z " fill="rgb(219,248,255)"/></g><path d=" M 3164.5 111.923 L 3155.75 106.872 L 3165.75 101.098 L 3174.5 106.15 L 3164.5 111.923 Z " fill="rgb(166,154,142)"/><g opacity="0.8"><path d=" M 3160.75 179.04 L 3070.75 127.079 L 3065.75 127.079 L 3160.75 181.927 L 3160.75 179.04 Z " fill="rgb(246,253,255)"/></g><g opacity="0.8"><path d=" M 3090.75 121.305 L 3090.75 115.532 L 3070.75 127.079 L 3075.75 129.966" fill="rgb(219,248,255)"/></g><g opacity="0.8"><path d=" M 3065.75 127.079 L 3088.25 114.089 L 3090.75 115.532 L 3070.75 127.079 L 3065.75 127.079 Z " fill="rgb(246,253,255)"/></g><g id="Group"><path d=" M 3091.251 136.221 L 3102.917 142.956 L 3105.834 141.272 L 3094.168 134.537 L 3091.251 136.221 Z " fill="rgb(30,29,28)"/><g id="Group"><g id="Group"><linearGradient id="_lgradient_908" x1="2.5000000000048304%" y1="68.48798940194455%" x2="100.00000000000426%" y2="46.11566647085249%"><stop offset="0%" stop-opacity="1" style="stop-color:rgb(51,39,22)"/><stop offset="100%" stop-opacity="1" style="stop-color:rgb(96,61,22)"/></linearGradient><path d=" M 3093.196 136.383 C 3093.196 136.693 3093.631 136.944 3094.168 136.944 C 3094.704 136.944 3095.14 136.693 3095.14 136.383 L 3095.14 131.893 L 3093.196 131.893 L 3093.196 136.383 Z " fill="url(#_lgradient_908)"/><linearGradient id="_lgradient_909" x1="4.166666666666788%" y1="67.60455294605876%" x2="96.66666666666649%" y2="30.489178498154217%"><stop offset="0%" stop-opacity="1" style="stop-color:rgb(0,86,74)"/><stop offset="100%" stop-opacity="1" style="stop-color:rgb(22,157,101)"/></linearGradient><path d=" M 3088.335 124.833 C 3088.335 120.496 3090.949 116.975 3094.168 116.975 C 3097.387 116.975 3100.001 120.496 3100.001 124.833 C 3100.001 129.17 3097.387 132.691 3094.168 132.691 C 3090.949 132.691 3088.335 129.17 3088.335 124.833 Z " fill="url(#_lgradient_909)"/></g><g id="Group"><linearGradient id="_lgradient_910" x1="2.5000000000048304%" y1="68.48798940194455%" x2="100.00000000000426%" y2="46.11566647085249%"><stop offset="0%" stop-opacity="1" style="stop-color:rgb(51,39,22)"/><stop offset="100%" stop-opacity="1" style="stop-color:rgb(96,61,22)"/></linearGradient><path d=" M 3101.945 141.435 C 3101.945 141.744 3102.381 141.996 3102.917 141.996 C 3103.454 141.996 3103.889 141.744 3103.889 141.435 L 3103.889 136.944 L 3101.945 136.944 L 3101.945 141.435 Z " fill="url(#_lgradient_910)"/><linearGradient id="_lgradient_911" x1="4.166666666666788%" y1="67.60455294605876%" x2="96.66666666666649%" y2="30.489178498154217%"><stop offset="0%" stop-opacity="1" style="stop-color:rgb(0,86,74)"/><stop offset="100%" stop-opacity="1" style="stop-color:rgb(22,157,101)"/></linearGradient><path d=" M 3097.084 129.884 C 3097.084 125.548 3099.698 122.027 3102.917 122.027 C 3106.136 122.027 3108.75 125.548 3108.75 129.884 C 3108.75 134.221 3106.136 137.742 3102.917 137.742 C 3099.698 137.742 3097.084 134.221 3097.084 129.884 Z " fill="url(#_lgradient_911)"/></g></g></g><g id="Group"><path d=" M 3160.75 168.937 L 3160.75 167.493 L 3270.75 103.985 L 3273.25 103.985 L 3160.75 168.937 Z " fill="rgb(219,200,185)"/><path d=" M 3130.75 150.173 L 3128.25 150.173 L 3160.75 168.937 L 3160.75 167.493 L 3130.75 150.173 Z " fill="rgb(219,200,185)"/><path d=" M 3240.75 86.664 L 3240.75 85.221 L 3273.25 103.985 L 3270.75 103.985 L 3240.75 86.664 Z " fill="rgb(219,200,185)"/><path d=" M 3128.25 150.173 L 3153.25 135.739 L 3155.75 135.739 L 3130.75 150.173 L 3128.25 150.173 Z " fill="rgb(219,200,185)"/><path d=" M 3140.75 127.079 L 3138.25 127.079 L 3153.25 135.739 L 3155.75 135.739 L 3140.75 127.079 Z " fill="rgb(219,200,185)"/><path d=" M 3215.75 101.098 L 3215.75 99.655 L 3240.75 85.221 L 3240.75 86.664 L 3215.75 101.098 Z " fill="rgb(219,200,185)"/><path d=" M 3138.25 127.079 L 3200.75 90.995 L 3200.75 92.438 L 3140.75 127.079 L 3138.25 127.079 Z " fill="rgb(219,200,185)"/><path d=" M 3215.75 99.655 L 3200.75 90.995 L 3200.75 92.438 L 3215.75 101.098 L 3215.75 99.655 Z " fill="rgb(219,200,185)"/></g><path d=" M 3177 119.14 L 3177 116.254 L 3168.25 105.428 L 3168.25 108.315" fill="none" vector-effect="non-scaling-stroke" stroke-width="0.5" stroke="rgb(191,191,191)" stroke-linejoin="round" stroke-linecap="round" stroke-miterlimit="3"/><g id="Group"><path d=" M 3218.25 88.108 L 3218.25 86.664 L 3217 87.386 L 3217 88.829 L 3218.25 88.108 Z " fill="rgb(219,200,185)"/><path d=" M 3217 87.386 L 3217 87.386 L 3217 88.829 L 3215.75 88.108 L 3217 87.386 Z " fill="rgb(166,154,142)"/><path d=" M 3213.25 88.108 L 3218.25 85.221 L 3205.75 78.004 L 3200.75 80.891 L 3213.25 88.108 Z " fill="rgb(242,235,229)"/><path d=" M 3218.25 86.664 L 3218.25 85.221 L 3213.25 88.108 L 3213.25 89.551 L 3218.25 86.664 Z " fill="rgb(219,200,185)"/><path d=" M 3200.75 80.891 L 3199.5 81.613 L 3213.25 89.551 L 3213.25 88.108 L 3200.75 80.891 Z " fill="rgb(166,154,142)"/><path d=" M 3214.5 90.273 L 3214.5 88.829 L 3213.25 89.551 L 3213.25 90.994 L 3214.5 90.273 Z " fill="rgb(219,200,185)"/><path d=" M 3209.5 87.386 L 3208.25 86.664 L 3208.25 88.108 L 3209.5 87.386 Z " fill="rgb(219,200,185)"/><path d=" M 3204.5 84.512 L 3203.25 83.79 L 3203.25 85.233 L 3204.5 84.512 Z " fill="rgb(219,200,185)"/><path d=" M 3209.5 88.829 L 3210.75 89.551 L 3210.75 88.108 L 3209.5 87.386 L 3209.5 88.829 Z " fill="rgb(166,154,142)"/><path d=" M 3204.5 85.943 L 3205.75 86.664 L 3205.75 85.221 L 3204.5 84.499 L 3204.5 85.943 Z " fill="rgb(166,154,142)"/><path d=" M 3199.5 83.068 L 3200.75 83.79 L 3200.75 82.347 L 3199.5 81.625 L 3199.5 83.068 Z " fill="rgb(166,154,142)"/><path d=" M 3212 88.829 L 3210.75 89.551 L 3210.75 88.108 L 3212 88.829 Z " fill="rgb(219,200,185)"/><path d=" M 3207 85.943 L 3205.75 86.664 L 3205.75 85.221 L 3207 85.943 Z " fill="rgb(219,200,185)"/><path d=" M 3202 83.068 L 3200.75 83.79 L 3200.75 82.347 L 3202 83.068 Z " fill="rgb(219,200,185)"/><path d=" M 3213.25 90.994 L 3212 90.273 L 3212 88.829 L 3213.25 89.551 L 3213.25 90.994 Z " fill="rgb(166,154,142)"/><path d=" M 3208.25 88.108 L 3207 87.386 L 3207 85.943 L 3208.25 86.664 L 3208.25 88.108 Z " fill="rgb(166,154,142)"/><path d=" M 3203.25 85.233 L 3202 84.512 L 3202 83.068 L 3203.25 83.79 L 3203.25 85.233 Z " fill="rgb(166,154,142)"/><path d=" M 3213.25 86.664 L 3213.25 85.221 L 3215.75 83.778 L 3215.75 85.221 L 3213.25 86.664 Z " fill="rgb(20,153,99)"/><path d=" M 3202 80.169 L 3203.25 79.447 L 3213.25 85.221 L 3213.25 86.664 L 3202 80.169 Z " fill="rgb(0,87,74)"/><linearGradient id="_lgradient_912" x1="0%" y1="50%" x2="100%" y2="50%"><stop offset="0%" stop-opacity="1" style="stop-color:rgb(0,87,74)"/><stop offset="98.26086956521739%" stop-opacity="1" style="stop-color:rgb(20,153,99)"/></linearGradient><path d=" M 3215.75 83.778 L 3205.75 78.004 L 3203.25 79.447 L 3213.25 85.221 L 3215.75 83.778 Z " fill="url(#_lgradient_912)"/></g><g id="Group"><path d=" M 3130.75 138.626 L 3130.75 137.183 L 3129.5 137.904 L 3129.5 139.348 L 3130.75 138.626 Z " fill="rgb(219,200,185)"/><path d=" M 3129.5 137.904 L 3129.5 137.904 L 3129.5 139.348 L 3128.25 138.626 L 3129.5 137.904 Z " fill="rgb(166,154,142)"/><path d=" M 3125.75 138.626 L 3130.75 135.739 L 3125.75 132.852 L 3125.75 138.626 L 3125.75 138.626 Z " fill="rgb(242,235,229)"/><path d=" M 3130.75 137.183 L 3130.75 135.739 L 3125.75 138.626 L 3125.75 140.069 L 3130.75 137.183 Z " fill="rgb(219,200,185)"/><path d=" M 3127 140.791 L 3127 139.348 L 3125.75 140.069 L 3125.75 141.513 L 3127 140.791 Z " fill="rgb(219,200,185)"/><path d=" M 3125.75 137.183 L 3125.75 135.739 L 3128.25 134.296 L 3128.25 135.739 L 3125.75 137.183 Z " fill="rgb(20,153,99)"/><linearGradient id="_lgradient_913" x1="-293.12499999999784%" y1="-101.62044617728871%" x2="63.06969026548885%" y2="79.05671750161811%"><stop offset="0%" stop-opacity="1" style="stop-color:rgb(0,87,74)"/><stop offset="98.26086956521739%" stop-opacity="1" style="stop-color:rgb(20,153,99)"/></linearGradient><path d=" M 3128.25 134.296 L 3125.75 132.852 L 3125.75 135.739 L 3125.75 135.739 L 3128.25 134.296 Z " fill="url(#_lgradient_913)"/></g><g id="Group"><path d=" M 3093.25 99.655 L 3123.25 116.975 L 3125.75 115.532 L 3095.75 98.211 L 3093.25 99.655 Z " fill="rgb(185,185,185)"/><path d=" M 3095.75 101.098 L 3095.75 98.211 L 3093.25 99.655 L 3095.75 101.098 Z " fill="rgb(162,162,162)"/></g><g id="Group"><path d=" M 3133.25 76.561 L 3163.25 93.881 L 3165.75 92.438 L 3135.75 75.117 L 3133.25 76.561 Z " fill="rgb(185,185,185)"/><path d=" M 3135.75 78.004 L 3135.75 75.117 L 3133.25 76.561 L 3135.75 78.004 Z " fill="rgb(162,162,162)"/></g><g id="Group"><path d=" M 3113.25 88.108 L 3143.25 105.428 L 3145.75 103.985 L 3115.75 86.664 L 3113.25 88.108 Z " fill="rgb(185,185,185)"/><path d=" M 3115.75 89.551 L 3115.75 86.664 L 3113.25 88.108 L 3115.75 89.551 Z " fill="rgb(162,162,162)"/></g><g id="Group"><path d=" M 3153.25 65.014 L 3183.25 82.334 L 3185.75 80.891 L 3155.75 63.57 L 3153.25 65.014 Z " fill="rgb(185,185,185)"/><path d=" M 3155.75 66.457 L 3155.75 63.57 L 3153.25 65.014 L 3155.75 66.457 Z " fill="rgb(162,162,162)"/></g><g id="Group"><path d=" M 3103.25 93.881 L 3133.25 111.202 L 3135.75 109.758 L 3105.75 92.438 L 3103.25 93.881 Z " fill="rgb(185,185,185)"/><path d=" M 3105.75 95.325 L 3105.75 92.438 L 3103.25 93.881 L 3105.75 95.325 Z " fill="rgb(162,162,162)"/></g><g id="Group"><path d=" M 3143.25 70.787 L 3173.25 88.108 L 3175.75 86.664 L 3145.75 69.344 L 3143.25 70.787 Z " fill="rgb(185,185,185)"/><path d=" M 3145.75 72.231 L 3145.75 69.344 L 3143.25 70.787 L 3145.75 72.231 Z " fill="rgb(162,162,162)"/></g><g id="Group"><path d=" M 3123.25 82.334 L 3153.25 99.655 L 3155.75 98.211 L 3125.75 80.891 L 3123.25 82.334 Z " fill="rgb(185,185,185)"/><path d=" M 3125.75 83.778 L 3125.75 80.891 L 3123.25 82.334 L 3125.75 83.778 Z " fill="rgb(162,162,162)"/></g><g id="Group"><path d=" M 3163.25 59.24 L 3193.25 76.561 L 3195.75 75.117 L 3165.75 57.797 L 3163.25 59.24 Z " fill="rgb(185,185,185)"/><path d=" M 3165.75 60.684 L 3165.75 57.797 L 3163.25 59.24 L 3165.75 60.684 Z " fill="rgb(162,162,162)"/></g><g id="Group"><path d=" M 3168.25 56.354 L 3198.25 73.674 L 3200.75 72.231 L 3170.75 54.91 L 3168.25 56.354 Z " fill="rgb(185,185,185)"/><path d=" M 3170.75 57.797 L 3170.75 54.91 L 3168.25 56.354 L 3170.75 57.797 Z " fill="rgb(162,162,162)"/></g><g id="Group"><path d=" M 3178.25 50.58 L 3208.25 67.901 L 3210.75 66.457 L 3180.75 49.137 L 3178.25 50.58 Z " fill="rgb(185,185,185)"/><path d=" M 3180.75 52.023 L 3180.75 49.137 L 3178.25 50.58 L 3180.75 52.023 Z " fill="rgb(162,162,162)"/></g><g id="Group"><path d=" M 3173.25 53.467 L 3203.25 70.787 L 3205.75 69.344 L 3175.75 52.023 L 3173.25 53.467 Z " fill="rgb(185,185,185)"/><path d=" M 3175.75 54.91 L 3175.75 52.023 L 3173.25 53.467 L 3175.75 54.91 Z " fill="rgb(162,162,162)"/></g><g id="Group"><path d=" M 3098.25 96.768 L 3128.25 114.089 L 3130.75 112.645 L 3100.75 95.325 L 3098.25 96.768 Z " fill="rgb(185,185,185)"/><path d=" M 3100.75 98.211 L 3100.75 95.325 L 3098.25 96.768 L 3100.75 98.211 Z " fill="rgb(162,162,162)"/></g><g id="Group"><path d=" M 3138.25 73.674 L 3168.25 90.994 L 3170.75 89.551 L 3140.75 72.231 L 3138.25 73.674 Z " fill="rgb(185,185,185)"/><path d=" M 3140.75 75.117 L 3140.75 72.231 L 3138.25 73.674 L 3140.75 75.117 Z " fill="rgb(162,162,162)"/></g><g id="Group"><path d=" M 3118.25 85.221 L 3148.25 102.541 L 3150.75 101.098 L 3120.75 83.778 L 3118.25 85.221 Z " fill="rgb(185,185,185)"/><path d=" M 3120.75 86.664 L 3120.75 83.778 L 3118.25 85.221 L 3120.75 86.664 Z " fill="rgb(162,162,162)"/></g><g id="Group"><path d=" M 3158.25 62.127 L 3188.25 79.447 L 3190.75 78.004 L 3160.75 60.684 L 3158.25 62.127 Z " fill="rgb(185,185,185)"/><path d=" M 3160.75 63.57 L 3160.75 60.684 L 3158.25 62.127 L 3160.75 63.57 Z " fill="rgb(162,162,162)"/></g><g id="Group"><path d=" M 3108.25 90.995 L 3138.25 108.315 L 3140.75 106.872 L 3110.75 89.551 L 3108.25 90.995 Z " fill="rgb(185,185,185)"/><path d=" M 3110.75 92.438 L 3110.75 89.551 L 3108.25 90.995 L 3110.75 92.438 Z " fill="rgb(162,162,162)"/></g><g id="Group"><path d=" M 3148.25 67.9 L 3178.25 85.221 L 3180.75 83.778 L 3150.75 66.457 L 3148.25 67.9 Z " fill="rgb(185,185,185)"/><path d=" M 3150.75 69.344 L 3150.75 66.457 L 3148.25 67.9 L 3150.75 69.344 Z " fill="rgb(162,162,162)"/></g><g id="Group"><path d=" M 3128.25 79.448 L 3158.25 96.768 L 3160.75 95.325 L 3130.75 78.004 L 3128.25 79.448 Z " fill="rgb(185,185,185)"/><path d=" M 3130.75 80.891 L 3130.75 78.004 L 3128.25 79.448 L 3130.75 80.891 Z " fill="rgb(162,162,162)"/></g><path d=" M 3219.5 85.943 L 3219.5 70.066 L 3228.25 65.014 L 3228.25 80.891 L 3219.5 85.943 Z " fill="rgb(147,215,232)" vector-effect="non-scaling-stroke" stroke-width="0.25" stroke="rgb(70,181,208)" stroke-linejoin="round" stroke-linecap="round" stroke-miterlimit="3"/><line x1="3219.5" y1="74.396" x2="3228.25" y2="69.344" vector-effect="non-scaling-stroke" stroke-width="0.25" stroke="rgb(70,181,208)" stroke-linejoin="miter" stroke-linecap="square" stroke-miterlimit="3"/><line x1="3223.25" y1="83.778" x2="3223.25" y2="72.231" vector-effect="non-scaling-stroke" stroke-width="0.25" stroke="rgb(70,181,208)" stroke-linejoin="miter" stroke-linecap="square" stroke-miterlimit="3"/><path d=" M 3229.5 64.292 L 3229.5 81.613 L 3228.25 80.891 L 3228.25 65.014 L 3229.5 64.292 Z " fill="rgb(139,139,139)"/><path d=" M 3219.5 87.386 L 3219.5 85.943 L 3228.25 80.891 L 3229.5 81.613 L 3219.5 87.386 Z " fill="rgb(244,244,244)"/></g></svg>