<?xml version="1.0" standalone="no"?><!-- Generator: Gravit.io --><svg xmlns="http://www.w3.org/2000/svg" xmlns:xlink="http://www.w3.org/1999/xlink" style="isolation:isolate" viewBox="2981.667 1016.457 412.5 264.138" width="412.5" height="264.138"><g id="Group"><path d=" M 2981.667 1157.908 L 3186.667 1039.551 L 3394.167 1159.351 L 3189.167 1277.708 L 2981.667 1157.908 Z " fill="rgb(232,232,232)"/><path d=" M 3011.667 1149.248 L 3191.667 1045.325 L 3369.167 1147.804 L 3189.167 1251.727 L 3011.667 1149.248 Z " fill="rgb(244,244,244)"/><path d=" M 3136.667 1189.662 L 3276.667 1108.833 L 3276.667 1085.739 L 3136.667 1166.568 L 3136.667 1189.662 Z " fill="rgb(0,0,0)"/><path d=" M 3056.667 1143.474 L 3056.667 1120.38 L 3136.667 1166.568 L 3136.667 1189.662 L 3056.667 1143.474 Z " fill="rgb(0,0,0)"/><path d=" M 3036.667 1108.833 L 3196.667 1016.457 L 3296.667 1074.192 L 3136.667 1166.568 L 3036.667 1108.833 Z " fill="rgb(139,139,139)"/><path d=" M 3136.667 1166.568 L 3139.167 1165.125 L 3139.167 1188.219 L 3136.667 1189.662 L 3136.667 1166.568 Z " fill="rgb(62,61,61)"/><path d=" M 3258.889 1096.003 L 3261.389 1094.56 L 3261.389 1117.654 L 3258.889 1119.097 L 3258.889 1096.003 Z " fill="rgb(62,61,61)"/><path d=" M 3228.333 1113.644 L 3230.833 1112.201 L 3230.833 1135.295 L 3228.333 1136.738 L 3228.333 1113.644 Z " fill="rgb(62,61,61)"/><path d=" M 3197.778 1131.286 L 3200.278 1129.842 L 3200.278 1152.936 L 3197.778 1154.38 L 3197.778 1131.286 Z " fill="rgb(62,61,61)"/><path d=" M 3167.222 1148.927 L 3169.722 1147.484 L 3169.722 1170.578 L 3167.222 1172.021 L 3167.222 1148.927 Z " fill="rgb(62,61,61)"/><g id="Base - Right"><path d=" M 3213.056 1122.465 L 3215.556 1121.022 L 3215.556 1144.116 L 3213.056 1145.559 L 3213.056 1122.465 Z " fill="rgb(62,61,61)"/><path d=" M 3182.5 1140.106 L 3185 1138.663 L 3185 1161.757 L 3182.5 1163.2 L 3182.5 1140.106 Z " fill="rgb(62,61,61)"/><path d=" M 3151.944 1157.748 L 3154.444 1156.304 L 3154.444 1179.398 L 3151.944 1180.842 L 3151.944 1157.748 Z " fill="rgb(62,61,61)"/><path d=" M 3274.167 1087.183 L 3276.667 1085.739 L 3276.667 1108.833 L 3274.167 1110.277 L 3274.167 1087.183 Z " fill="rgb(62,61,61)"/><path d=" M 3243.611 1104.824 L 3246.111 1103.38 L 3246.111 1126.474 L 3243.611 1127.918 L 3243.611 1104.824 Z " fill="rgb(62,61,61)"/></g><path d=" M 3136.667 1166.568 L 3134.167 1165.125 L 3134.167 1188.219 L 3136.667 1189.662 L 3136.667 1166.568 Z " fill="rgb(42,42,42)"/><g id="Base - Left"><path d=" M 3059.167 1121.824 L 3056.667 1120.38 L 3056.667 1143.474 L 3059.167 1144.918 L 3059.167 1121.824 Z " fill="rgb(42,42,42)"/><path d=" M 3090.167 1139.721 L 3087.667 1138.278 L 3087.667 1161.372 L 3090.167 1162.815 L 3090.167 1139.721 Z " fill="rgb(42,42,42)"/><path d=" M 3121.167 1157.619 L 3118.667 1156.176 L 3118.667 1179.27 L 3121.167 1180.713 L 3121.167 1157.619 Z " fill="rgb(42,42,42)"/></g><path d=" M 3074.667 1130.772 L 3072.167 1129.329 L 3072.167 1152.423 L 3074.667 1153.866 L 3074.667 1130.772 Z " fill="rgb(42,42,42)"/><path d=" M 3105.667 1148.67 L 3103.167 1147.227 L 3103.167 1170.321 L 3105.667 1171.764 L 3105.667 1148.67 Z " fill="rgb(42,42,42)"/><path d=" M 3234.167 1111.72 L 3234.167 1117.493 L 3251.667 1107.39 L 3251.667 1101.616 L 3234.167 1111.72 Z " fill="rgb(52,134,210)"/><path d=" M 3231.667 1110.277 L 3234.167 1111.72 L 3251.667 1101.616 L 3249.167 1100.173 L 3231.667 1110.277 Z " fill="rgb(111,111,111)"/><path d=" M 3234.167 1117.493 L 3231.667 1116.05 L 3231.667 1110.277 L 3234.167 1111.72 L 3234.167 1117.493 Z " fill="rgb(62,61,61)"/><path d=" M 3169.167 1149.248 L 3169.167 1155.021 L 3186.667 1144.918 L 3186.667 1139.144 L 3169.167 1149.248 Z " fill="rgb(21,155,100)"/><path d=" M 3166.667 1147.804 L 3169.167 1149.248 L 3186.667 1139.144 L 3184.167 1137.701 L 3166.667 1147.804 Z " fill="rgb(111,111,111)"/><path d=" M 3169.167 1155.021 L 3166.667 1153.578 L 3166.667 1147.804 L 3169.167 1149.248 L 3169.167 1155.021 Z " fill="rgb(62,61,61)"/><path d=" M 3104.167 1149.248 L 3104.167 1155.021 L 3086.667 1144.918 L 3086.667 1139.144 L 3104.167 1149.248 Z " fill="rgb(244,81,81)"/><path d=" M 3106.667 1147.804 L 3104.167 1149.248 L 3086.667 1139.144 L 3089.167 1137.701 L 3106.667 1147.804 Z " fill="rgb(111,111,111)"/><path d=" M 3104.167 1155.021 L 3106.667 1153.578 L 3106.667 1147.804 L 3104.167 1149.248 L 3104.167 1155.021 Z " fill="rgb(62,61,61)"/><path d=" M 3291.667 1117.493 L 3286.667 1114.607 L 3286.667 1079.966 L 3291.667 1077.079 L 3291.667 1117.493 Z " fill="rgb(42,42,42)"/><path d=" M 3041.667 1152.134 L 3046.667 1149.248 L 3046.667 1114.607 L 3041.667 1111.72 L 3041.667 1152.134 Z " fill="rgb(62,61,61)"/><path d=" M 3162.667 1151.557 L 3162.667 1186.198 L 3167.667 1189.085 L 3167.667 1148.67 L 3162.667 1151.557 Z " fill="rgb(42,42,42)"/><path d=" M 3110 1151.172 L 3110 1185.813 L 3105 1188.7 L 3105 1148.285 L 3110 1151.172 Z " fill="rgb(62,61,61)"/><path d=" M 3193.667 1133.659 L 3193.667 1168.3 L 3198.667 1171.187 L 3198.667 1130.772 L 3193.667 1133.659 Z " fill="rgb(42,42,42)"/><g id="Base - Left"><path d=" M 3136.667 1206.983 L 3131.667 1204.096 L 3131.667 1163.681 L 3136.667 1166.568 L 3136.667 1206.983 Z " fill="rgb(42,42,42)"/><path d=" M 3036.667 1108.833 L 3036.667 1149.248 L 3041.667 1152.134 L 3041.667 1111.72 L 3036.667 1108.833 Z " fill="rgb(42,42,42)"/><path d=" M 3105 1188.7 L 3100 1185.813 L 3100 1145.399 L 3105 1148.285 L 3105 1188.7 Z " fill="rgb(42,42,42)"/><path d=" M 3073.333 1170.417 L 3068.333 1167.53 L 3068.333 1127.116 L 3073.333 1130.003 L 3073.333 1170.417 Z " fill="rgb(42,42,42)"/></g><path d=" M 3078.333 1132.889 L 3078.333 1167.53 L 3073.333 1170.417 L 3073.333 1130.003 L 3078.333 1132.889 Z " fill="rgb(62,61,61)"/><path d=" M 3224.667 1115.761 L 3224.667 1150.402 L 3229.667 1153.289 L 3229.667 1112.875 L 3224.667 1115.761 Z " fill="rgb(42,42,42)"/><g id="Base - Right"><path d=" M 3141.667 1163.681 L 3141.667 1204.096 L 3136.667 1206.983 L 3136.667 1166.568 L 3141.667 1163.681 Z " fill="rgb(62,61,61)"/><path d=" M 3296.667 1074.192 L 3296.667 1114.607 L 3291.667 1117.493 L 3291.667 1077.079 L 3296.667 1074.192 Z " fill="rgb(62,61,61)"/><path d=" M 3167.667 1189.085 L 3172.667 1186.198 L 3172.667 1145.784 L 3167.667 1148.67 L 3167.667 1189.085 Z " fill="rgb(62,61,61)"/><path d=" M 3198.667 1171.187 L 3203.667 1168.3 L 3203.667 1127.886 L 3198.667 1130.772 L 3198.667 1171.187 Z " fill="rgb(62,61,61)"/><path d=" M 3229.667 1153.289 L 3234.667 1150.402 L 3234.667 1109.988 L 3229.667 1112.875 L 3229.667 1153.289 Z " fill="rgb(62,61,61)"/><path d=" M 3260.667 1135.391 L 3265.667 1132.505 L 3265.667 1092.09 L 3260.667 1094.977 L 3260.667 1135.391 Z " fill="rgb(62,61,61)"/></g><path d=" M 3255.667 1097.863 L 3255.667 1132.505 L 3260.667 1135.391 L 3260.667 1094.977 L 3255.667 1097.863 Z " fill="rgb(42,42,42)"/><path d=" M 3149.167 1214.2 L 3304.167 1124.71 L 3344.167 1147.804 L 3189.167 1237.294 L 3149.167 1214.2 Z " fill="rgb(219,200,185)" vector-effect="non-scaling-stroke" stroke-width="0.5" stroke="rgb(166,154,142)" stroke-linejoin="miter" stroke-linecap="square" stroke-miterlimit="3"/><path d=" M 3151.667 1212.756 L 3171.667 1224.303 L 3169.167 1225.747 L 3149.167 1214.2 L 3151.667 1212.756 Z " fill="none" vector-effect="non-scaling-stroke" stroke-width="0.25" stroke="rgb(166,154,142)" stroke-linejoin="miter" stroke-linecap="square" stroke-miterlimit="3"/><path d=" M 3171.667 1224.303 L 3191.667 1235.85 L 3189.167 1237.294 L 3169.167 1225.747 L 3171.667 1224.303 Z " fill="none" vector-effect="non-scaling-stroke" stroke-width="0.25" stroke="rgb(166,154,142)" stroke-linejoin="miter" stroke-linecap="square" stroke-miterlimit="3"/><path d=" M 3164.167 1217.086 L 3184.167 1228.633 L 3181.667 1230.077 L 3161.667 1218.53 L 3164.167 1217.086 Z " fill="none" vector-effect="non-scaling-stroke" stroke-width="0.25" stroke="rgb(166,154,142)" stroke-linejoin="miter" stroke-linecap="square" stroke-miterlimit="3"/><path d=" M 3191.667 1235.85 L 3194.167 1234.407 L 3184.167 1228.633 L 3181.667 1230.077 L 3191.667 1235.85 Z " fill="none" vector-effect="non-scaling-stroke" stroke-width="0.25" stroke="rgb(166,154,142)" stroke-linejoin="miter" stroke-linecap="square" stroke-miterlimit="3"/><path d=" M 3151.667 1212.756 L 3154.167 1211.313 L 3164.167 1217.086 L 3161.667 1218.53 L 3151.667 1212.756 Z " fill="none" vector-effect="non-scaling-stroke" stroke-width="0.25" stroke="rgb(166,154,142)" stroke-linejoin="miter" stroke-linecap="square" stroke-miterlimit="3"/><path d=" M 3156.667 1209.869 L 3176.667 1221.416 L 3174.167 1222.86 L 3154.167 1211.313 L 3156.667 1209.869 Z " fill="none" vector-effect="non-scaling-stroke" stroke-width="0.25" stroke="rgb(166,154,142)" stroke-linejoin="miter" stroke-linecap="square" stroke-miterlimit="3"/><path d=" M 3176.667 1221.416 L 3196.667 1232.963 L 3194.167 1234.407 L 3174.167 1222.86 L 3176.667 1221.416 Z " fill="none" vector-effect="non-scaling-stroke" stroke-width="0.25" stroke="rgb(166,154,142)" stroke-linejoin="miter" stroke-linecap="square" stroke-miterlimit="3"/><path d=" M 3169.167 1214.2 L 3189.167 1225.747 L 3186.667 1227.19 L 3166.667 1215.643 L 3169.167 1214.2 Z " fill="none" vector-effect="non-scaling-stroke" stroke-width="0.25" stroke="rgb(166,154,142)" stroke-linejoin="miter" stroke-linecap="square" stroke-miterlimit="3"/><path d=" M 3196.667 1232.963 L 3199.167 1231.52 L 3189.167 1225.747 L 3186.667 1227.19 L 3196.667 1232.963 Z " fill="none" vector-effect="non-scaling-stroke" stroke-width="0.25" stroke="rgb(166,154,142)" stroke-linejoin="miter" stroke-linecap="square" stroke-miterlimit="3"/><path d=" M 3156.667 1209.869 L 3159.167 1208.426 L 3169.167 1214.2 L 3166.667 1215.643 L 3156.667 1209.869 Z " fill="none" vector-effect="non-scaling-stroke" stroke-width="0.25" stroke="rgb(166,154,142)" stroke-linejoin="miter" stroke-linecap="square" stroke-miterlimit="3"/><path d=" M 3171.667 1201.209 L 3191.667 1212.756 L 3189.167 1214.2 L 3169.167 1202.653 L 3171.667 1201.209 Z " fill="none" vector-effect="non-scaling-stroke" stroke-width="0.25" stroke="rgb(166,154,142)" stroke-linejoin="miter" stroke-linecap="square" stroke-miterlimit="3"/><path d=" M 3191.667 1212.756 L 3211.667 1224.303 L 3209.167 1225.747 L 3189.167 1214.2 L 3191.667 1212.756 Z " fill="none" vector-effect="non-scaling-stroke" stroke-width="0.25" stroke="rgb(166,154,142)" stroke-linejoin="miter" stroke-linecap="square" stroke-miterlimit="3"/><path d=" M 3184.167 1205.539 L 3204.167 1217.086 L 3201.667 1218.53 L 3181.667 1206.983 L 3184.167 1205.539 Z " fill="none" vector-effect="non-scaling-stroke" stroke-width="0.25" stroke="rgb(166,154,142)" stroke-linejoin="miter" stroke-linecap="square" stroke-miterlimit="3"/><path d=" M 3211.667 1224.303 L 3214.167 1222.86 L 3204.167 1217.086 L 3201.667 1218.53 L 3211.667 1224.303 Z " fill="none" vector-effect="non-scaling-stroke" stroke-width="0.25" stroke="rgb(166,154,142)" stroke-linejoin="miter" stroke-linecap="square" stroke-miterlimit="3"/><path d=" M 3171.667 1201.209 L 3174.167 1199.766 L 3184.167 1205.539 L 3181.667 1206.983 L 3171.667 1201.209 Z " fill="none" vector-effect="non-scaling-stroke" stroke-width="0.25" stroke="rgb(166,154,142)" stroke-linejoin="miter" stroke-linecap="square" stroke-miterlimit="3"/><path d=" M 3176.667 1198.322 L 3196.667 1209.869 L 3194.167 1211.313 L 3174.167 1199.766 L 3176.667 1198.322 Z " fill="none" vector-effect="non-scaling-stroke" stroke-width="0.25" stroke="rgb(166,154,142)" stroke-linejoin="miter" stroke-linecap="square" stroke-miterlimit="3"/><path d=" M 3196.667 1209.869 L 3216.667 1221.416 L 3214.167 1222.86 L 3194.167 1211.313 L 3196.667 1209.869 Z " fill="none" vector-effect="non-scaling-stroke" stroke-width="0.25" stroke="rgb(166,154,142)" stroke-linejoin="miter" stroke-linecap="square" stroke-miterlimit="3"/><path d=" M 3189.167 1202.653 L 3209.167 1214.2 L 3206.667 1215.643 L 3186.667 1204.096 L 3189.167 1202.653 Z " fill="none" vector-effect="non-scaling-stroke" stroke-width="0.25" stroke="rgb(166,154,142)" stroke-linejoin="miter" stroke-linecap="square" stroke-miterlimit="3"/><path d=" M 3216.667 1221.416 L 3219.167 1219.973 L 3209.167 1214.2 L 3206.667 1215.643 L 3216.667 1221.416 Z " fill="none" vector-effect="non-scaling-stroke" stroke-width="0.25" stroke="rgb(166,154,142)" stroke-linejoin="miter" stroke-linecap="square" stroke-miterlimit="3"/><path d=" M 3176.667 1198.322 L 3179.167 1196.879 L 3189.167 1202.653 L 3186.667 1204.096 L 3176.667 1198.322 Z " fill="none" vector-effect="non-scaling-stroke" stroke-width="0.25" stroke="rgb(166,154,142)" stroke-linejoin="miter" stroke-linecap="square" stroke-miterlimit="3"/><path d=" M 3161.667 1206.983 L 3181.667 1218.53 L 3179.167 1219.973 L 3159.167 1208.426 L 3161.667 1206.983 Z " fill="none" vector-effect="non-scaling-stroke" stroke-width="0.25" stroke="rgb(166,154,142)" stroke-linejoin="miter" stroke-linecap="square" stroke-miterlimit="3"/><path d=" M 3181.667 1218.53 L 3201.667 1230.077 L 3199.167 1231.52 L 3179.167 1219.973 L 3181.667 1218.53 Z " fill="none" vector-effect="non-scaling-stroke" stroke-width="0.25" stroke="rgb(166,154,142)" stroke-linejoin="miter" stroke-linecap="square" stroke-miterlimit="3"/><path d=" M 3174.167 1211.313 L 3194.167 1222.86 L 3191.667 1224.303 L 3171.667 1212.756 L 3174.167 1211.313 Z " fill="none" vector-effect="non-scaling-stroke" stroke-width="0.25" stroke="rgb(166,154,142)" stroke-linejoin="miter" stroke-linecap="square" stroke-miterlimit="3"/><path d=" M 3201.667 1230.077 L 3204.167 1228.633 L 3194.167 1222.86 L 3191.667 1224.303 L 3201.667 1230.077 Z " fill="none" vector-effect="non-scaling-stroke" stroke-width="0.25" stroke="rgb(166,154,142)" stroke-linejoin="miter" stroke-linecap="square" stroke-miterlimit="3"/><path d=" M 3161.667 1206.983 L 3164.167 1205.539 L 3174.167 1211.313 L 3171.667 1212.756 L 3161.667 1206.983 Z " fill="none" vector-effect="non-scaling-stroke" stroke-width="0.25" stroke="rgb(166,154,142)" stroke-linejoin="miter" stroke-linecap="square" stroke-miterlimit="3"/><path d=" M 3166.667 1204.096 L 3186.667 1215.643 L 3184.167 1217.086 L 3164.167 1205.539 L 3166.667 1204.096 Z " fill="none" vector-effect="non-scaling-stroke" stroke-width="0.25" stroke="rgb(166,154,142)" stroke-linejoin="miter" stroke-linecap="square" stroke-miterlimit="3"/><path d=" M 3186.667 1215.643 L 3206.667 1227.19 L 3204.167 1228.633 L 3184.167 1217.086 L 3186.667 1215.643 Z " fill="none" vector-effect="non-scaling-stroke" stroke-width="0.25" stroke="rgb(166,154,142)" stroke-linejoin="miter" stroke-linecap="square" stroke-miterlimit="3"/><path d=" M 3179.167 1208.426 L 3199.167 1219.973 L 3196.667 1221.416 L 3176.667 1209.869 L 3179.167 1208.426 Z " fill="none" vector-effect="non-scaling-stroke" stroke-width="0.25" stroke="rgb(166,154,142)" stroke-linejoin="miter" stroke-linecap="square" stroke-miterlimit="3"/><path d=" M 3206.667 1227.19 L 3209.167 1225.747 L 3199.167 1219.973 L 3196.667 1221.416 L 3206.667 1227.19 Z " fill="none" vector-effect="non-scaling-stroke" stroke-width="0.25" stroke="rgb(166,154,142)" stroke-linejoin="miter" stroke-linecap="square" stroke-miterlimit="3"/><path d=" M 3166.667 1204.096 L 3169.167 1202.653 L 3179.167 1208.426 L 3176.667 1209.869 L 3166.667 1204.096 Z " fill="none" vector-effect="non-scaling-stroke" stroke-width="0.25" stroke="rgb(166,154,142)" stroke-linejoin="miter" stroke-linecap="square" stroke-miterlimit="3"/><path d=" M 3181.667 1195.436 L 3201.667 1206.983 L 3199.167 1208.426 L 3179.167 1196.879 L 3181.667 1195.436 Z " fill="none" vector-effect="non-scaling-stroke" stroke-width="0.25" stroke="rgb(166,154,142)" stroke-linejoin="miter" stroke-linecap="square" stroke-miterlimit="3"/><path d=" M 3201.667 1206.983 L 3221.667 1218.53 L 3219.167 1219.973 L 3199.167 1208.426 L 3201.667 1206.983 Z " fill="none" vector-effect="non-scaling-stroke" stroke-width="0.25" stroke="rgb(166,154,142)" stroke-linejoin="miter" stroke-linecap="square" stroke-miterlimit="3"/><path d=" M 3194.167 1199.766 L 3214.167 1211.313 L 3211.667 1212.756 L 3191.667 1201.209 L 3194.167 1199.766 Z " fill="none" vector-effect="non-scaling-stroke" stroke-width="0.25" stroke="rgb(166,154,142)" stroke-linejoin="miter" stroke-linecap="square" stroke-miterlimit="3"/><path d=" M 3221.667 1218.53 L 3224.167 1217.086 L 3214.167 1211.313 L 3211.667 1212.756 L 3221.667 1218.53 Z " fill="none" vector-effect="non-scaling-stroke" stroke-width="0.25" stroke="rgb(166,154,142)" stroke-linejoin="miter" stroke-linecap="square" stroke-miterlimit="3"/><path d=" M 3181.667 1195.436 L 3184.167 1193.992 L 3194.167 1199.766 L 3191.667 1201.209 L 3181.667 1195.436 Z " fill="none" vector-effect="non-scaling-stroke" stroke-width="0.25" stroke="rgb(166,154,142)" stroke-linejoin="miter" stroke-linecap="square" stroke-miterlimit="3"/><path d=" M 3186.667 1192.549 L 3206.667 1204.096 L 3204.167 1205.539 L 3184.167 1193.992 L 3186.667 1192.549 Z " fill="none" vector-effect="non-scaling-stroke" stroke-width="0.25" stroke="rgb(166,154,142)" stroke-linejoin="miter" stroke-linecap="square" stroke-miterlimit="3"/><path d=" M 3206.667 1204.096 L 3226.667 1215.643 L 3224.167 1217.086 L 3204.167 1205.539 L 3206.667 1204.096 Z " fill="none" vector-effect="non-scaling-stroke" stroke-width="0.25" stroke="rgb(166,154,142)" stroke-linejoin="miter" stroke-linecap="square" stroke-miterlimit="3"/><path d=" M 3199.167 1196.879 L 3219.167 1208.426 L 3216.667 1209.869 L 3196.667 1198.322 L 3199.167 1196.879 Z " fill="none" vector-effect="non-scaling-stroke" stroke-width="0.25" stroke="rgb(166,154,142)" stroke-linejoin="miter" stroke-linecap="square" stroke-miterlimit="3"/><path d=" M 3226.667 1215.643 L 3229.167 1214.2 L 3219.167 1208.426 L 3216.667 1209.869 L 3226.667 1215.643 Z " fill="none" vector-effect="non-scaling-stroke" stroke-width="0.25" stroke="rgb(166,154,142)" stroke-linejoin="miter" stroke-linecap="square" stroke-miterlimit="3"/><path d=" M 3186.667 1192.549 L 3189.167 1191.106 L 3199.167 1196.879 L 3196.667 1198.322 L 3186.667 1192.549 Z " fill="none" vector-effect="non-scaling-stroke" stroke-width="0.25" stroke="rgb(166,154,142)" stroke-linejoin="miter" stroke-linecap="square" stroke-miterlimit="3"/><path d=" M 3231.667 1166.581 L 3251.667 1178.128 L 3249.167 1179.571 L 3229.167 1168.024 L 3231.667 1166.581 Z " fill="none" vector-effect="non-scaling-stroke" stroke-width="0.25" stroke="rgb(166,154,142)" stroke-linejoin="miter" stroke-linecap="square" stroke-miterlimit="3"/><path d=" M 3251.667 1178.128 L 3271.667 1189.675 L 3269.167 1191.118 L 3249.167 1179.571 L 3251.667 1178.128 Z " fill="none" vector-effect="non-scaling-stroke" stroke-width="0.25" stroke="rgb(166,154,142)" stroke-linejoin="miter" stroke-linecap="square" stroke-miterlimit="3"/><path d=" M 3244.167 1170.911 L 3264.167 1182.458 L 3261.667 1183.901 L 3241.667 1172.354 L 3244.167 1170.911 Z " fill="none" vector-effect="non-scaling-stroke" stroke-width="0.25" stroke="rgb(166,154,142)" stroke-linejoin="miter" stroke-linecap="square" stroke-miterlimit="3"/><path d=" M 3271.667 1189.675 L 3274.167 1188.231 L 3264.167 1182.458 L 3261.667 1183.901 L 3271.667 1189.675 Z " fill="none" vector-effect="non-scaling-stroke" stroke-width="0.25" stroke="rgb(166,154,142)" stroke-linejoin="miter" stroke-linecap="square" stroke-miterlimit="3"/><path d=" M 3231.667 1166.581 L 3234.167 1165.137 L 3244.167 1170.911 L 3241.667 1172.354 L 3231.667 1166.581 Z " fill="none" vector-effect="non-scaling-stroke" stroke-width="0.25" stroke="rgb(166,154,142)" stroke-linejoin="miter" stroke-linecap="square" stroke-miterlimit="3"/><path d=" M 3236.667 1163.694 L 3256.667 1175.241 L 3254.167 1176.684 L 3234.167 1165.137 L 3236.667 1163.694 Z " fill="none" vector-effect="non-scaling-stroke" stroke-width="0.25" stroke="rgb(166,154,142)" stroke-linejoin="miter" stroke-linecap="square" stroke-miterlimit="3"/><path d=" M 3256.667 1175.241 L 3276.667 1186.788 L 3274.167 1188.231 L 3254.167 1176.684 L 3256.667 1175.241 Z " fill="none" vector-effect="non-scaling-stroke" stroke-width="0.25" stroke="rgb(166,154,142)" stroke-linejoin="miter" stroke-linecap="square" stroke-miterlimit="3"/><path d=" M 3249.167 1168.024 L 3269.167 1179.571 L 3266.667 1181.014 L 3246.667 1169.467 L 3249.167 1168.024 Z " fill="none" vector-effect="non-scaling-stroke" stroke-width="0.25" stroke="rgb(166,154,142)" stroke-linejoin="miter" stroke-linecap="square" stroke-miterlimit="3"/><path d=" M 3276.667 1186.788 L 3279.167 1185.344 L 3269.167 1179.571 L 3266.667 1181.014 L 3276.667 1186.788 Z " fill="none" vector-effect="non-scaling-stroke" stroke-width="0.25" stroke="rgb(166,154,142)" stroke-linejoin="miter" stroke-linecap="square" stroke-miterlimit="3"/><path d=" M 3236.667 1163.694 L 3239.167 1162.25 L 3249.167 1168.024 L 3246.667 1169.467 L 3236.667 1163.694 Z " fill="none" vector-effect="non-scaling-stroke" stroke-width="0.25" stroke="rgb(166,154,142)" stroke-linejoin="miter" stroke-linecap="square" stroke-miterlimit="3"/><path d=" M 3251.667 1155.034 L 3271.667 1166.581 L 3269.167 1168.024 L 3249.167 1156.477 L 3251.667 1155.034 Z " fill="none" vector-effect="non-scaling-stroke" stroke-width="0.25" stroke="rgb(166,154,142)" stroke-linejoin="miter" stroke-linecap="square" stroke-miterlimit="3"/><path d=" M 3271.667 1166.581 L 3291.667 1178.128 L 3289.167 1179.571 L 3269.167 1168.024 L 3271.667 1166.581 Z " fill="none" vector-effect="non-scaling-stroke" stroke-width="0.25" stroke="rgb(166,154,142)" stroke-linejoin="miter" stroke-linecap="square" stroke-miterlimit="3"/><path d=" M 3264.167 1159.364 L 3284.167 1170.911 L 3281.667 1172.354 L 3261.667 1160.807 L 3264.167 1159.364 Z " fill="none" vector-effect="non-scaling-stroke" stroke-width="0.25" stroke="rgb(166,154,142)" stroke-linejoin="miter" stroke-linecap="square" stroke-miterlimit="3"/><path d=" M 3291.667 1178.128 L 3294.167 1176.684 L 3284.167 1170.911 L 3281.667 1172.354 L 3291.667 1178.128 Z " fill="none" vector-effect="non-scaling-stroke" stroke-width="0.25" stroke="rgb(166,154,142)" stroke-linejoin="miter" stroke-linecap="square" stroke-miterlimit="3"/><path d=" M 3251.667 1155.034 L 3254.167 1153.59 L 3264.167 1159.364 L 3261.667 1160.807 L 3251.667 1155.034 Z " fill="none" vector-effect="non-scaling-stroke" stroke-width="0.25" stroke="rgb(166,154,142)" stroke-linejoin="miter" stroke-linecap="square" stroke-miterlimit="3"/><path d=" M 3256.667 1152.147 L 3276.667 1163.694 L 3274.167 1165.137 L 3254.167 1153.59 L 3256.667 1152.147 Z " fill="none" vector-effect="non-scaling-stroke" stroke-width="0.25" stroke="rgb(166,154,142)" stroke-linejoin="miter" stroke-linecap="square" stroke-miterlimit="3"/><path d=" M 3276.667 1163.694 L 3296.667 1175.241 L 3294.167 1176.684 L 3274.167 1165.137 L 3276.667 1163.694 Z " fill="none" vector-effect="non-scaling-stroke" stroke-width="0.25" stroke="rgb(166,154,142)" stroke-linejoin="miter" stroke-linecap="square" stroke-miterlimit="3"/><path d=" M 3269.167 1156.477 L 3289.167 1168.024 L 3286.667 1169.467 L 3266.667 1157.92 L 3269.167 1156.477 Z " fill="none" vector-effect="non-scaling-stroke" stroke-width="0.25" stroke="rgb(166,154,142)" stroke-linejoin="miter" stroke-linecap="square" stroke-miterlimit="3"/><path d=" M 3296.667 1175.241 L 3299.167 1173.797 L 3289.167 1168.024 L 3286.667 1169.467 L 3296.667 1175.241 Z " fill="none" vector-effect="non-scaling-stroke" stroke-width="0.25" stroke="rgb(166,154,142)" stroke-linejoin="miter" stroke-linecap="square" stroke-miterlimit="3"/><path d=" M 3256.667 1152.147 L 3259.167 1150.703 L 3269.167 1156.477 L 3266.667 1157.92 L 3256.667 1152.147 Z " fill="none" vector-effect="non-scaling-stroke" stroke-width="0.25" stroke="rgb(166,154,142)" stroke-linejoin="miter" stroke-linecap="square" stroke-miterlimit="3"/><path d=" M 3241.667 1160.807 L 3261.667 1172.354 L 3259.167 1173.797 L 3239.167 1162.25 L 3241.667 1160.807 Z " fill="none" vector-effect="non-scaling-stroke" stroke-width="0.25" stroke="rgb(166,154,142)" stroke-linejoin="miter" stroke-linecap="square" stroke-miterlimit="3"/><path d=" M 3261.667 1172.354 L 3281.667 1183.901 L 3279.167 1185.344 L 3259.167 1173.797 L 3261.667 1172.354 Z " fill="none" vector-effect="non-scaling-stroke" stroke-width="0.25" stroke="rgb(166,154,142)" stroke-linejoin="miter" stroke-linecap="square" stroke-miterlimit="3"/><path d=" M 3254.167 1165.137 L 3274.167 1176.684 L 3271.667 1178.128 L 3251.667 1166.581 L 3254.167 1165.137 Z " fill="none" vector-effect="non-scaling-stroke" stroke-width="0.25" stroke="rgb(166,154,142)" stroke-linejoin="miter" stroke-linecap="square" stroke-miterlimit="3"/><path d=" M 3281.667 1183.901 L 3284.167 1182.458 L 3274.167 1176.684 L 3271.667 1178.128 L 3281.667 1183.901 Z " fill="none" vector-effect="non-scaling-stroke" stroke-width="0.25" stroke="rgb(166,154,142)" stroke-linejoin="miter" stroke-linecap="square" stroke-miterlimit="3"/><path d=" M 3241.667 1160.807 L 3244.167 1159.364 L 3254.167 1165.137 L 3251.667 1166.581 L 3241.667 1160.807 Z " fill="none" vector-effect="non-scaling-stroke" stroke-width="0.25" stroke="rgb(166,154,142)" stroke-linejoin="miter" stroke-linecap="square" stroke-miterlimit="3"/><path d=" M 3246.667 1157.92 L 3266.667 1169.467 L 3264.167 1170.911 L 3244.167 1159.364 L 3246.667 1157.92 Z " fill="none" vector-effect="non-scaling-stroke" stroke-width="0.25" stroke="rgb(166,154,142)" stroke-linejoin="miter" stroke-linecap="square" stroke-miterlimit="3"/><path d=" M 3266.667 1169.467 L 3286.667 1181.014 L 3284.167 1182.458 L 3264.167 1170.911 L 3266.667 1169.467 Z " fill="none" vector-effect="non-scaling-stroke" stroke-width="0.25" stroke="rgb(166,154,142)" stroke-linejoin="miter" stroke-linecap="square" stroke-miterlimit="3"/><path d=" M 3259.167 1162.25 L 3279.167 1173.797 L 3276.667 1175.241 L 3256.667 1163.694 L 3259.167 1162.25 Z " fill="none" vector-effect="non-scaling-stroke" stroke-width="0.25" stroke="rgb(166,154,142)" stroke-linejoin="miter" stroke-linecap="square" stroke-miterlimit="3"/><path d=" M 3286.667 1181.014 L 3289.167 1179.571 L 3279.167 1173.797 L 3276.667 1175.241 L 3286.667 1181.014 Z " fill="none" vector-effect="non-scaling-stroke" stroke-width="0.25" stroke="rgb(166,154,142)" stroke-linejoin="miter" stroke-linecap="square" stroke-miterlimit="3"/><path d=" M 3246.667 1157.92 L 3249.167 1156.477 L 3259.167 1162.25 L 3256.667 1163.694 L 3246.667 1157.92 Z " fill="none" vector-effect="non-scaling-stroke" stroke-width="0.25" stroke="rgb(166,154,142)" stroke-linejoin="miter" stroke-linecap="square" stroke-miterlimit="3"/><path d=" M 3261.667 1149.26 L 3281.667 1160.807 L 3279.167 1162.25 L 3259.167 1150.703 L 3261.667 1149.26 Z " fill="none" vector-effect="non-scaling-stroke" stroke-width="0.25" stroke="rgb(166,154,142)" stroke-linejoin="miter" stroke-linecap="square" stroke-miterlimit="3"/><path d=" M 3281.667 1160.807 L 3301.667 1172.354 L 3299.167 1173.797 L 3279.167 1162.25 L 3281.667 1160.807 Z " fill="none" vector-effect="non-scaling-stroke" stroke-width="0.25" stroke="rgb(166,154,142)" stroke-linejoin="miter" stroke-linecap="square" stroke-miterlimit="3"/><path d=" M 3274.167 1153.59 L 3294.167 1165.137 L 3291.667 1166.581 L 3271.667 1155.034 L 3274.167 1153.59 Z " fill="none" vector-effect="non-scaling-stroke" stroke-width="0.25" stroke="rgb(166,154,142)" stroke-linejoin="miter" stroke-linecap="square" stroke-miterlimit="3"/><path d=" M 3301.667 1172.354 L 3304.167 1170.911 L 3294.167 1165.137 L 3291.667 1166.581 L 3301.667 1172.354 Z " fill="none" vector-effect="non-scaling-stroke" stroke-width="0.25" stroke="rgb(166,154,142)" stroke-linejoin="miter" stroke-linecap="square" stroke-miterlimit="3"/><path d=" M 3261.667 1149.26 L 3264.167 1147.817 L 3274.167 1153.59 L 3271.667 1155.034 L 3261.667 1149.26 Z " fill="none" vector-effect="non-scaling-stroke" stroke-width="0.25" stroke="rgb(166,154,142)" stroke-linejoin="miter" stroke-linecap="square" stroke-miterlimit="3"/><path d=" M 3266.667 1146.373 L 3286.667 1157.92 L 3284.167 1159.364 L 3264.167 1147.817 L 3266.667 1146.373 Z " fill="none" vector-effect="non-scaling-stroke" stroke-width="0.25" stroke="rgb(166,154,142)" stroke-linejoin="miter" stroke-linecap="square" stroke-miterlimit="3"/><path d=" M 3286.667 1157.92 L 3306.667 1169.467 L 3304.167 1170.911 L 3284.167 1159.364 L 3286.667 1157.92 Z " fill="none" vector-effect="non-scaling-stroke" stroke-width="0.25" stroke="rgb(166,154,142)" stroke-linejoin="miter" stroke-linecap="square" stroke-miterlimit="3"/><path d=" M 3279.167 1150.703 L 3299.167 1162.25 L 3296.667 1163.694 L 3276.667 1152.147 L 3279.167 1150.703 Z " fill="none" vector-effect="non-scaling-stroke" stroke-width="0.25" stroke="rgb(166,154,142)" stroke-linejoin="miter" stroke-linecap="square" stroke-miterlimit="3"/><path d=" M 3306.667 1169.467 L 3309.167 1168.024 L 3299.167 1162.25 L 3296.667 1163.694 L 3306.667 1169.467 Z " fill="none" vector-effect="non-scaling-stroke" stroke-width="0.25" stroke="rgb(166,154,142)" stroke-linejoin="miter" stroke-linecap="square" stroke-miterlimit="3"/><path d=" M 3266.667 1146.373 L 3269.167 1144.93 L 3279.167 1150.703 L 3276.667 1152.147 L 3266.667 1146.373 Z " fill="none" vector-effect="non-scaling-stroke" stroke-width="0.25" stroke="rgb(166,154,142)" stroke-linejoin="miter" stroke-linecap="square" stroke-miterlimit="3"/><path d=" M 3191.667 1189.662 L 3211.667 1201.209 L 3209.167 1202.653 L 3189.167 1191.106 L 3191.667 1189.662 Z " fill="none" vector-effect="non-scaling-stroke" stroke-width="0.25" stroke="rgb(166,154,142)" stroke-linejoin="miter" stroke-linecap="square" stroke-miterlimit="3"/><path d=" M 3211.667 1201.209 L 3231.667 1212.756 L 3229.167 1214.2 L 3209.167 1202.653 L 3211.667 1201.209 Z " fill="none" vector-effect="non-scaling-stroke" stroke-width="0.25" stroke="rgb(166,154,142)" stroke-linejoin="miter" stroke-linecap="square" stroke-miterlimit="3"/><path d=" M 3204.167 1193.992 L 3224.167 1205.539 L 3221.667 1206.983 L 3201.667 1195.436 L 3204.167 1193.992 Z " fill="none" vector-effect="non-scaling-stroke" stroke-width="0.25" stroke="rgb(166,154,142)" stroke-linejoin="miter" stroke-linecap="square" stroke-miterlimit="3"/><path d=" M 3231.667 1212.756 L 3234.167 1211.313 L 3224.167 1205.539 L 3221.667 1206.983 L 3231.667 1212.756 Z " fill="none" vector-effect="non-scaling-stroke" stroke-width="0.25" stroke="rgb(166,154,142)" stroke-linejoin="miter" stroke-linecap="square" stroke-miterlimit="3"/><path d=" M 3191.667 1189.662 L 3194.167 1188.219 L 3204.167 1193.992 L 3201.667 1195.436 L 3191.667 1189.662 Z " fill="none" vector-effect="non-scaling-stroke" stroke-width="0.25" stroke="rgb(166,154,142)" stroke-linejoin="miter" stroke-linecap="square" stroke-miterlimit="3"/><path d=" M 3196.667 1186.775 L 3216.667 1198.322 L 3214.167 1199.766 L 3194.167 1188.219 L 3196.667 1186.775 Z " fill="none" vector-effect="non-scaling-stroke" stroke-width="0.25" stroke="rgb(166,154,142)" stroke-linejoin="miter" stroke-linecap="square" stroke-miterlimit="3"/><path d=" M 3216.667 1198.322 L 3236.667 1209.869 L 3234.167 1211.313 L 3214.167 1199.766 L 3216.667 1198.322 Z " fill="none" vector-effect="non-scaling-stroke" stroke-width="0.25" stroke="rgb(166,154,142)" stroke-linejoin="miter" stroke-linecap="square" stroke-miterlimit="3"/><path d=" M 3209.167 1191.106 L 3229.167 1202.653 L 3226.667 1204.096 L 3206.667 1192.549 L 3209.167 1191.106 Z " fill="none" vector-effect="non-scaling-stroke" stroke-width="0.25" stroke="rgb(166,154,142)" stroke-linejoin="miter" stroke-linecap="square" stroke-miterlimit="3"/><path d=" M 3236.667 1209.869 L 3239.167 1208.426 L 3229.167 1202.653 L 3226.667 1204.096 L 3236.667 1209.869 Z " fill="none" vector-effect="non-scaling-stroke" stroke-width="0.25" stroke="rgb(166,154,142)" stroke-linejoin="miter" stroke-linecap="square" stroke-miterlimit="3"/><path d=" M 3196.667 1186.775 L 3199.167 1185.332 L 3209.167 1191.106 L 3206.667 1192.549 L 3196.667 1186.775 Z " fill="none" vector-effect="non-scaling-stroke" stroke-width="0.25" stroke="rgb(166,154,142)" stroke-linejoin="miter" stroke-linecap="square" stroke-miterlimit="3"/><path d=" M 3211.667 1178.115 L 3231.667 1189.662 L 3229.167 1191.106 L 3209.167 1179.559 L 3211.667 1178.115 Z " fill="none" vector-effect="non-scaling-stroke" stroke-width="0.25" stroke="rgb(166,154,142)" stroke-linejoin="miter" stroke-linecap="square" stroke-miterlimit="3"/><path d=" M 3231.667 1189.662 L 3251.667 1201.209 L 3249.167 1202.653 L 3229.167 1191.106 L 3231.667 1189.662 Z " fill="none" vector-effect="non-scaling-stroke" stroke-width="0.25" stroke="rgb(166,154,142)" stroke-linejoin="miter" stroke-linecap="square" stroke-miterlimit="3"/><path d=" M 3224.167 1182.445 L 3244.167 1193.992 L 3241.667 1195.436 L 3221.667 1183.889 L 3224.167 1182.445 Z " fill="none" vector-effect="non-scaling-stroke" stroke-width="0.25" stroke="rgb(166,154,142)" stroke-linejoin="miter" stroke-linecap="square" stroke-miterlimit="3"/><path d=" M 3251.667 1201.209 L 3254.167 1199.766 L 3244.167 1193.992 L 3241.667 1195.436 L 3251.667 1201.209 Z " fill="none" vector-effect="non-scaling-stroke" stroke-width="0.25" stroke="rgb(166,154,142)" stroke-linejoin="miter" stroke-linecap="square" stroke-miterlimit="3"/><path d=" M 3211.667 1178.115 L 3214.167 1176.672 L 3224.167 1182.445 L 3221.667 1183.889 L 3211.667 1178.115 Z " fill="none" vector-effect="non-scaling-stroke" stroke-width="0.25" stroke="rgb(166,154,142)" stroke-linejoin="miter" stroke-linecap="square" stroke-miterlimit="3"/><path d=" M 3216.667 1175.228 L 3236.667 1186.775 L 3234.167 1188.219 L 3214.167 1176.672 L 3216.667 1175.228 Z " fill="none" vector-effect="non-scaling-stroke" stroke-width="0.25" stroke="rgb(166,154,142)" stroke-linejoin="miter" stroke-linecap="square" stroke-miterlimit="3"/><path d=" M 3236.667 1186.775 L 3256.667 1198.322 L 3254.167 1199.766 L 3234.167 1188.219 L 3236.667 1186.775 Z " fill="none" vector-effect="non-scaling-stroke" stroke-width="0.25" stroke="rgb(166,154,142)" stroke-linejoin="miter" stroke-linecap="square" stroke-miterlimit="3"/><path d=" M 3229.167 1179.559 L 3249.167 1191.106 L 3246.667 1192.549 L 3226.667 1181.002 L 3229.167 1179.559 Z " fill="none" vector-effect="non-scaling-stroke" stroke-width="0.25" stroke="rgb(166,154,142)" stroke-linejoin="miter" stroke-linecap="square" stroke-miterlimit="3"/><path d=" M 3256.667 1198.322 L 3259.167 1196.879 L 3249.167 1191.106 L 3246.667 1192.549 L 3256.667 1198.322 Z " fill="none" vector-effect="non-scaling-stroke" stroke-width="0.25" stroke="rgb(166,154,142)" stroke-linejoin="miter" stroke-linecap="square" stroke-miterlimit="3"/><path d=" M 3216.667 1175.228 L 3219.167 1173.785 L 3229.167 1179.559 L 3226.667 1181.002 L 3216.667 1175.228 Z " fill="none" vector-effect="non-scaling-stroke" stroke-width="0.25" stroke="rgb(166,154,142)" stroke-linejoin="miter" stroke-linecap="square" stroke-miterlimit="3"/><path d=" M 3201.667 1183.889 L 3221.667 1195.436 L 3219.167 1196.879 L 3199.167 1185.332 L 3201.667 1183.889 Z " fill="none" vector-effect="non-scaling-stroke" stroke-width="0.25" stroke="rgb(166,154,142)" stroke-linejoin="miter" stroke-linecap="square" stroke-miterlimit="3"/><path d=" M 3221.667 1195.436 L 3241.667 1206.983 L 3239.167 1208.426 L 3219.167 1196.879 L 3221.667 1195.436 Z " fill="none" vector-effect="non-scaling-stroke" stroke-width="0.25" stroke="rgb(166,154,142)" stroke-linejoin="miter" stroke-linecap="square" stroke-miterlimit="3"/><path d=" M 3214.167 1188.219 L 3234.167 1199.766 L 3231.667 1201.209 L 3211.667 1189.662 L 3214.167 1188.219 Z " fill="none" vector-effect="non-scaling-stroke" stroke-width="0.25" stroke="rgb(166,154,142)" stroke-linejoin="miter" stroke-linecap="square" stroke-miterlimit="3"/><path d=" M 3241.667 1206.983 L 3244.167 1205.539 L 3234.167 1199.766 L 3231.667 1201.209 L 3241.667 1206.983 Z " fill="none" vector-effect="non-scaling-stroke" stroke-width="0.25" stroke="rgb(166,154,142)" stroke-linejoin="miter" stroke-linecap="square" stroke-miterlimit="3"/><path d=" M 3201.667 1183.889 L 3204.167 1182.445 L 3214.167 1188.219 L 3211.667 1189.662 L 3201.667 1183.889 Z " fill="none" vector-effect="non-scaling-stroke" stroke-width="0.25" stroke="rgb(166,154,142)" stroke-linejoin="miter" stroke-linecap="square" stroke-miterlimit="3"/><path d=" M 3206.667 1181.002 L 3226.667 1192.549 L 3224.167 1193.992 L 3204.167 1182.445 L 3206.667 1181.002 Z " fill="none" vector-effect="non-scaling-stroke" stroke-width="0.25" stroke="rgb(166,154,142)" stroke-linejoin="miter" stroke-linecap="square" stroke-miterlimit="3"/><path d=" M 3226.667 1192.549 L 3246.667 1204.096 L 3244.167 1205.539 L 3224.167 1193.992 L 3226.667 1192.549 Z " fill="none" vector-effect="non-scaling-stroke" stroke-width="0.25" stroke="rgb(166,154,142)" stroke-linejoin="miter" stroke-linecap="square" stroke-miterlimit="3"/><path d=" M 3219.167 1185.332 L 3239.167 1196.879 L 3236.667 1198.322 L 3216.667 1186.775 L 3219.167 1185.332 Z " fill="none" vector-effect="non-scaling-stroke" stroke-width="0.25" stroke="rgb(166,154,142)" stroke-linejoin="miter" stroke-linecap="square" stroke-miterlimit="3"/><path d=" M 3246.667 1204.096 L 3249.167 1202.653 L 3239.167 1196.879 L 3236.667 1198.322 L 3246.667 1204.096 Z " fill="none" vector-effect="non-scaling-stroke" stroke-width="0.25" stroke="rgb(166,154,142)" stroke-linejoin="miter" stroke-linecap="square" stroke-miterlimit="3"/><path d=" M 3206.667 1181.002 L 3209.167 1179.559 L 3219.167 1185.332 L 3216.667 1186.775 L 3206.667 1181.002 Z " fill="none" vector-effect="non-scaling-stroke" stroke-width="0.25" stroke="rgb(166,154,142)" stroke-linejoin="miter" stroke-linecap="square" stroke-miterlimit="3"/><path d=" M 3221.667 1172.342 L 3241.667 1183.889 L 3239.167 1185.332 L 3219.167 1173.785 L 3221.667 1172.342 Z " fill="none" vector-effect="non-scaling-stroke" stroke-width="0.25" stroke="rgb(166,154,142)" stroke-linejoin="miter" stroke-linecap="square" stroke-miterlimit="3"/><path d=" M 3241.667 1183.889 L 3261.667 1195.436 L 3259.167 1196.879 L 3239.167 1185.332 L 3241.667 1183.889 Z " fill="none" vector-effect="non-scaling-stroke" stroke-width="0.25" stroke="rgb(166,154,142)" stroke-linejoin="miter" stroke-linecap="square" stroke-miterlimit="3"/><path d=" M 3234.167 1176.672 L 3254.167 1188.219 L 3251.667 1189.662 L 3231.667 1178.115 L 3234.167 1176.672 Z " fill="none" vector-effect="non-scaling-stroke" stroke-width="0.25" stroke="rgb(166,154,142)" stroke-linejoin="miter" stroke-linecap="square" stroke-miterlimit="3"/><path d=" M 3261.667 1195.436 L 3264.167 1193.992 L 3254.167 1188.219 L 3251.667 1189.662 L 3261.667 1195.436 Z " fill="none" vector-effect="non-scaling-stroke" stroke-width="0.25" stroke="rgb(166,154,142)" stroke-linejoin="miter" stroke-linecap="square" stroke-miterlimit="3"/><path d=" M 3221.667 1172.342 L 3224.167 1170.898 L 3234.167 1176.672 L 3231.667 1178.115 L 3221.667 1172.342 Z " fill="none" vector-effect="non-scaling-stroke" stroke-width="0.25" stroke="rgb(166,154,142)" stroke-linejoin="miter" stroke-linecap="square" stroke-miterlimit="3"/><path d=" M 3226.667 1169.455 L 3246.667 1181.002 L 3244.167 1182.445 L 3224.167 1170.898 L 3226.667 1169.455 Z " fill="none" vector-effect="non-scaling-stroke" stroke-width="0.25" stroke="rgb(166,154,142)" stroke-linejoin="miter" stroke-linecap="square" stroke-miterlimit="3"/><path d=" M 3246.667 1181.002 L 3266.667 1192.549 L 3264.167 1193.992 L 3244.167 1182.445 L 3246.667 1181.002 Z " fill="none" vector-effect="non-scaling-stroke" stroke-width="0.25" stroke="rgb(166,154,142)" stroke-linejoin="miter" stroke-linecap="square" stroke-miterlimit="3"/><path d=" M 3239.167 1173.785 L 3259.167 1185.332 L 3256.667 1186.775 L 3236.667 1175.228 L 3239.167 1173.785 Z " fill="none" vector-effect="non-scaling-stroke" stroke-width="0.25" stroke="rgb(166,154,142)" stroke-linejoin="miter" stroke-linecap="square" stroke-miterlimit="3"/><path d=" M 3266.667 1192.549 L 3269.167 1191.106 L 3259.167 1185.332 L 3256.667 1186.775 L 3266.667 1192.549 Z " fill="none" vector-effect="non-scaling-stroke" stroke-width="0.25" stroke="rgb(166,154,142)" stroke-linejoin="miter" stroke-linecap="square" stroke-miterlimit="3"/><path d=" M 3226.667 1169.455 L 3229.167 1168.012 L 3239.167 1173.785 L 3236.667 1175.228 L 3226.667 1169.455 Z " fill="none" vector-effect="non-scaling-stroke" stroke-width="0.25" stroke="rgb(166,154,142)" stroke-linejoin="miter" stroke-linecap="square" stroke-miterlimit="3"/><path d=" M 3271.667 1143.487 L 3291.667 1155.034 L 3289.167 1156.477 L 3269.167 1144.93 L 3271.667 1143.487 Z " fill="none" vector-effect="non-scaling-stroke" stroke-width="0.25" stroke="rgb(166,154,142)" stroke-linejoin="miter" stroke-linecap="square" stroke-miterlimit="3"/><path d=" M 3291.667 1155.034 L 3311.667 1166.581 L 3309.167 1168.024 L 3289.167 1156.477 L 3291.667 1155.034 Z " fill="none" vector-effect="non-scaling-stroke" stroke-width="0.25" stroke="rgb(166,154,142)" stroke-linejoin="miter" stroke-linecap="square" stroke-miterlimit="3"/><path d=" M 3284.167 1147.817 L 3304.167 1159.364 L 3301.667 1160.807 L 3281.667 1149.26 L 3284.167 1147.817 Z " fill="none" vector-effect="non-scaling-stroke" stroke-width="0.25" stroke="rgb(166,154,142)" stroke-linejoin="miter" stroke-linecap="square" stroke-miterlimit="3"/><path d=" M 3311.667 1166.581 L 3314.167 1165.137 L 3304.167 1159.364 L 3301.667 1160.807 L 3311.667 1166.581 Z " fill="none" vector-effect="non-scaling-stroke" stroke-width="0.25" stroke="rgb(166,154,142)" stroke-linejoin="miter" stroke-linecap="square" stroke-miterlimit="3"/><path d=" M 3271.667 1143.487 L 3274.167 1142.043 L 3284.167 1147.817 L 3281.667 1149.26 L 3271.667 1143.487 Z " fill="none" vector-effect="non-scaling-stroke" stroke-width="0.25" stroke="rgb(166,154,142)" stroke-linejoin="miter" stroke-linecap="square" stroke-miterlimit="3"/><path d=" M 3276.667 1140.6 L 3296.667 1152.147 L 3294.167 1153.59 L 3274.167 1142.043 L 3276.667 1140.6 Z " fill="none" vector-effect="non-scaling-stroke" stroke-width="0.25" stroke="rgb(166,154,142)" stroke-linejoin="miter" stroke-linecap="square" stroke-miterlimit="3"/><path d=" M 3296.667 1152.147 L 3316.667 1163.694 L 3314.167 1165.137 L 3294.167 1153.59 L 3296.667 1152.147 Z " fill="none" vector-effect="non-scaling-stroke" stroke-width="0.25" stroke="rgb(166,154,142)" stroke-linejoin="miter" stroke-linecap="square" stroke-miterlimit="3"/><path d=" M 3289.167 1144.93 L 3309.167 1156.477 L 3306.667 1157.92 L 3286.667 1146.373 L 3289.167 1144.93 Z " fill="none" vector-effect="non-scaling-stroke" stroke-width="0.25" stroke="rgb(166,154,142)" stroke-linejoin="miter" stroke-linecap="square" stroke-miterlimit="3"/><path d=" M 3316.667 1163.694 L 3319.167 1162.25 L 3309.167 1156.477 L 3306.667 1157.92 L 3316.667 1163.694 Z " fill="none" vector-effect="non-scaling-stroke" stroke-width="0.25" stroke="rgb(166,154,142)" stroke-linejoin="miter" stroke-linecap="square" stroke-miterlimit="3"/><path d=" M 3276.667 1140.6 L 3279.167 1139.156 L 3289.167 1144.93 L 3286.667 1146.373 L 3276.667 1140.6 Z " fill="none" vector-effect="non-scaling-stroke" stroke-width="0.25" stroke="rgb(166,154,142)" stroke-linejoin="miter" stroke-linecap="square" stroke-miterlimit="3"/><path d=" M 3291.667 1131.94 L 3311.667 1143.487 L 3309.167 1144.93 L 3289.167 1133.383 L 3291.667 1131.94 Z " fill="none" vector-effect="non-scaling-stroke" stroke-width="0.25" stroke="rgb(166,154,142)" stroke-linejoin="miter" stroke-linecap="square" stroke-miterlimit="3"/><path d=" M 3311.667 1143.487 L 3331.667 1155.034 L 3329.167 1156.477 L 3309.167 1144.93 L 3311.667 1143.487 Z " fill="none" vector-effect="non-scaling-stroke" stroke-width="0.25" stroke="rgb(166,154,142)" stroke-linejoin="miter" stroke-linecap="square" stroke-miterlimit="3"/><path d=" M 3304.167 1136.27 L 3324.167 1147.817 L 3321.667 1149.26 L 3301.667 1137.713 L 3304.167 1136.27 Z " fill="none" vector-effect="non-scaling-stroke" stroke-width="0.25" stroke="rgb(166,154,142)" stroke-linejoin="miter" stroke-linecap="square" stroke-miterlimit="3"/><path d=" M 3331.667 1155.034 L 3334.167 1153.59 L 3324.167 1147.817 L 3321.667 1149.26 L 3331.667 1155.034 Z " fill="none" vector-effect="non-scaling-stroke" stroke-width="0.25" stroke="rgb(166,154,142)" stroke-linejoin="miter" stroke-linecap="square" stroke-miterlimit="3"/><path d=" M 3291.667 1131.94 L 3294.167 1130.496 L 3304.167 1136.27 L 3301.667 1137.713 L 3291.667 1131.94 Z " fill="none" vector-effect="non-scaling-stroke" stroke-width="0.25" stroke="rgb(166,154,142)" stroke-linejoin="miter" stroke-linecap="square" stroke-miterlimit="3"/><path d=" M 3296.667 1129.053 L 3316.667 1140.6 L 3314.167 1142.043 L 3294.167 1130.496 L 3296.667 1129.053 Z " fill="none" vector-effect="non-scaling-stroke" stroke-width="0.25" stroke="rgb(166,154,142)" stroke-linejoin="miter" stroke-linecap="square" stroke-miterlimit="3"/><path d=" M 3316.667 1140.6 L 3336.667 1152.147 L 3334.167 1153.59 L 3314.167 1142.043 L 3316.667 1140.6 Z " fill="none" vector-effect="non-scaling-stroke" stroke-width="0.25" stroke="rgb(166,154,142)" stroke-linejoin="miter" stroke-linecap="square" stroke-miterlimit="3"/><path d=" M 3309.167 1133.383 L 3329.167 1144.93 L 3326.667 1146.373 L 3306.667 1134.826 L 3309.167 1133.383 Z " fill="none" vector-effect="non-scaling-stroke" stroke-width="0.25" stroke="rgb(166,154,142)" stroke-linejoin="miter" stroke-linecap="square" stroke-miterlimit="3"/><path d=" M 3336.667 1152.147 L 3339.167 1150.703 L 3329.167 1144.93 L 3326.667 1146.373 L 3336.667 1152.147 Z " fill="none" vector-effect="non-scaling-stroke" stroke-width="0.25" stroke="rgb(166,154,142)" stroke-linejoin="miter" stroke-linecap="square" stroke-miterlimit="3"/><path d=" M 3296.667 1129.053 L 3299.167 1127.609 L 3309.167 1133.383 L 3306.667 1134.826 L 3296.667 1129.053 Z " fill="none" vector-effect="non-scaling-stroke" stroke-width="0.25" stroke="rgb(166,154,142)" stroke-linejoin="miter" stroke-linecap="square" stroke-miterlimit="3"/><path d=" M 3281.667 1137.713 L 3301.667 1149.26 L 3299.167 1150.703 L 3279.167 1139.156 L 3281.667 1137.713 Z " fill="none" vector-effect="non-scaling-stroke" stroke-width="0.25" stroke="rgb(166,154,142)" stroke-linejoin="miter" stroke-linecap="square" stroke-miterlimit="3"/><path d=" M 3301.667 1149.26 L 3321.667 1160.807 L 3319.167 1162.25 L 3299.167 1150.703 L 3301.667 1149.26 Z " fill="none" vector-effect="non-scaling-stroke" stroke-width="0.25" stroke="rgb(166,154,142)" stroke-linejoin="miter" stroke-linecap="square" stroke-miterlimit="3"/><path d=" M 3294.167 1142.043 L 3314.167 1153.59 L 3311.667 1155.034 L 3291.667 1143.487 L 3294.167 1142.043 Z " fill="none" vector-effect="non-scaling-stroke" stroke-width="0.25" stroke="rgb(166,154,142)" stroke-linejoin="miter" stroke-linecap="square" stroke-miterlimit="3"/><path d=" M 3321.667 1160.807 L 3324.167 1159.364 L 3314.167 1153.59 L 3311.667 1155.034 L 3321.667 1160.807 Z " fill="none" vector-effect="non-scaling-stroke" stroke-width="0.25" stroke="rgb(166,154,142)" stroke-linejoin="miter" stroke-linecap="square" stroke-miterlimit="3"/><path d=" M 3281.667 1137.713 L 3284.167 1136.27 L 3294.167 1142.043 L 3291.667 1143.487 L 3281.667 1137.713 Z " fill="none" vector-effect="non-scaling-stroke" stroke-width="0.25" stroke="rgb(166,154,142)" stroke-linejoin="miter" stroke-linecap="square" stroke-miterlimit="3"/><path d=" M 3286.667 1134.826 L 3306.667 1146.373 L 3304.167 1147.817 L 3284.167 1136.27 L 3286.667 1134.826 Z " fill="none" vector-effect="non-scaling-stroke" stroke-width="0.25" stroke="rgb(166,154,142)" stroke-linejoin="miter" stroke-linecap="square" stroke-miterlimit="3"/><path d=" M 3306.667 1146.373 L 3326.667 1157.92 L 3324.167 1159.364 L 3304.167 1147.817 L 3306.667 1146.373 Z " fill="none" vector-effect="non-scaling-stroke" stroke-width="0.25" stroke="rgb(166,154,142)" stroke-linejoin="miter" stroke-linecap="square" stroke-miterlimit="3"/><path d=" M 3299.167 1139.156 L 3319.167 1150.703 L 3316.667 1152.147 L 3296.667 1140.6 L 3299.167 1139.156 Z " fill="none" vector-effect="non-scaling-stroke" stroke-width="0.25" stroke="rgb(166,154,142)" stroke-linejoin="miter" stroke-linecap="square" stroke-miterlimit="3"/><path d=" M 3326.667 1157.92 L 3329.167 1156.477 L 3319.167 1150.703 L 3316.667 1152.147 L 3326.667 1157.92 Z " fill="none" vector-effect="non-scaling-stroke" stroke-width="0.25" stroke="rgb(166,154,142)" stroke-linejoin="miter" stroke-linecap="square" stroke-miterlimit="3"/><path d=" M 3286.667 1134.826 L 3289.167 1133.383 L 3299.167 1139.156 L 3296.667 1140.6 L 3286.667 1134.826 Z " fill="none" vector-effect="non-scaling-stroke" stroke-width="0.25" stroke="rgb(166,154,142)" stroke-linejoin="miter" stroke-linecap="square" stroke-miterlimit="3"/><path d=" M 3301.667 1126.166 L 3321.667 1137.713 L 3319.167 1139.156 L 3299.167 1127.609 L 3301.667 1126.166 Z " fill="none" vector-effect="non-scaling-stroke" stroke-width="0.25" stroke="rgb(166,154,142)" stroke-linejoin="miter" stroke-linecap="square" stroke-miterlimit="3"/><path d=" M 3321.667 1137.713 L 3341.667 1149.26 L 3339.167 1150.703 L 3319.167 1139.156 L 3321.667 1137.713 Z " fill="none" vector-effect="non-scaling-stroke" stroke-width="0.25" stroke="rgb(166,154,142)" stroke-linejoin="miter" stroke-linecap="square" stroke-miterlimit="3"/><path d=" M 3314.167 1130.496 L 3334.167 1142.043 L 3331.667 1143.487 L 3311.667 1131.94 L 3314.167 1130.496 Z " fill="none" vector-effect="non-scaling-stroke" stroke-width="0.25" stroke="rgb(166,154,142)" stroke-linejoin="miter" stroke-linecap="square" stroke-miterlimit="3"/><path d=" M 3341.667 1149.26 L 3344.167 1147.817 L 3334.167 1142.043 L 3331.667 1143.487 L 3341.667 1149.26 Z " fill="none" vector-effect="non-scaling-stroke" stroke-width="0.25" stroke="rgb(166,154,142)" stroke-linejoin="miter" stroke-linecap="square" stroke-miterlimit="3"/><path d=" M 3301.667 1126.166 L 3304.167 1124.723 L 3314.167 1130.496 L 3311.667 1131.94 L 3301.667 1126.166 Z " fill="none" vector-effect="non-scaling-stroke" stroke-width="0.25" stroke="rgb(166,154,142)" stroke-linejoin="miter" stroke-linecap="square" stroke-miterlimit="3"/><path d=" M 3189.167 1251.727 L 3189.167 1254.614 L 3369.167 1150.691 L 3369.167 1147.804 L 3189.167 1251.727 Z " fill="rgb(209,209,209)"/><path d=" M 3189.167 1257.501 L 3189.167 1260.388 L 3371.667 1155.021 L 3371.667 1152.11 L 3189.167 1257.501 Z " fill="rgb(209,209,209)"/><path d=" M 3189.167 1263.274 L 3189.167 1266.161 L 3374.167 1159.351 L 3374.167 1156.465 L 3189.167 1263.274 Z " fill="rgb(209,209,209)"/><path d=" M 3189.167 1254.614 L 3189.167 1257.501 L 3371.667 1152.134 L 3369.167 1150.691 L 3189.167 1254.614 Z " fill="rgb(244,244,244)"/><path d=" M 3189.167 1260.388 L 3189.167 1263.274 L 3374.167 1156.465 L 3371.667 1155.021 L 3189.167 1260.388 Z " fill="rgb(244,244,244)"/><path d=" M 3189.167 1254.626 L 3189.167 1251.74 L 3011.667 1149.26 L 3011.667 1152.147 L 3189.167 1254.626 Z " fill="rgb(162,162,162)"/><path d=" M 3189.167 1257.513 L 3189.167 1254.626 L 3011.667 1152.147 L 3009.167 1153.59 L 3189.167 1257.513 Z " fill="rgb(209,209,209)"/><path d=" M 3189.167 1260.4 L 3009.167 1156.477 L 3009.167 1153.59 L 3189.167 1257.513 L 3189.167 1260.4 Z " fill="rgb(162,162,162)"/><path d=" M 3189.167 1263.287 L 3006.667 1157.92 L 3009.167 1156.477 L 3189.167 1260.4 L 3189.167 1263.287 Z " fill="rgb(209,209,209)"/><path d=" M 3189.167 1266.173 L 3006.667 1160.807 L 3006.667 1157.92 L 3189.167 1263.287 L 3189.167 1266.173 Z " fill="rgb(162,162,162)"/><path d=" M 3154.167 1217.086 L 3159.167 1214.2 L 3159.167 1211.313 L 3154.167 1214.2 L 3154.167 1217.086 Z " fill="rgb(209,209,209)"/><path d=" M 3184.167 1234.407 L 3189.167 1231.52 L 3189.167 1228.633 L 3184.167 1231.52 L 3184.167 1234.407 Z " fill="rgb(209,209,209)"/><path d=" M 3184.167 1231.52 L 3154.167 1214.2 L 3154.167 1217.086 L 3184.167 1234.407 L 3184.167 1231.52 Z " fill="rgb(162,162,162)"/><path d=" M 3189.167 1228.633 L 3159.167 1211.313 L 3154.167 1214.2 L 3184.167 1231.52 L 3189.167 1228.633 Z " fill="rgb(244,244,244)"/><path d=" M 3219.167 1219.973 L 3214.167 1217.086 L 3214.167 1214.2 L 3219.167 1217.086 L 3219.167 1219.973 Z " fill="rgb(162,162,162)"/><path d=" M 3219.167 1217.086 L 3249.167 1199.766 L 3249.167 1202.653 L 3219.167 1219.973 L 3219.167 1217.086 Z " fill="rgb(209,209,209)"/><path d=" M 3214.167 1214.2 L 3244.167 1196.879 L 3249.167 1199.766 L 3219.167 1217.086 L 3214.167 1214.2 Z " fill="rgb(244,244,244)"/><path d=" M 3284.167 1182.445 L 3279.167 1179.559 L 3279.167 1176.672 L 3284.167 1179.559 L 3284.167 1182.445 Z " fill="rgb(162,162,162)"/><path d=" M 3284.167 1179.559 L 3314.167 1162.238 L 3314.167 1165.125 L 3284.167 1182.445 L 3284.167 1179.559 Z " fill="rgb(209,209,209)"/><path d=" M 3279.167 1176.672 L 3309.167 1159.351 L 3314.167 1162.238 L 3284.167 1179.559 L 3279.167 1176.672 Z " fill="rgb(244,244,244)"/><path d=" M 3334.167 1147.804 L 3339.167 1144.918 L 3339.167 1142.031 L 3334.167 1144.918 L 3334.167 1147.804 Z " fill="rgb(209,209,209)"/><path d=" M 3334.167 1144.918 L 3304.167 1127.597 L 3304.167 1130.484 L 3334.167 1147.804 L 3334.167 1144.918 Z " fill="rgb(162,162,162)"/><path d=" M 3339.167 1142.031 L 3309.167 1124.71 L 3304.167 1127.597 L 3334.167 1144.918 L 3339.167 1142.031 Z " fill="rgb(244,244,244)"/><path d=" M 3171.667 1212.756 L 3191.667 1224.303 L 3196.667 1221.416 L 3176.667 1209.869 L 3171.667 1212.756 Z " fill="rgb(30,29,28)"/><path d=" M 3234.167 1176.672 L 3254.167 1188.219 L 3259.167 1185.332 L 3239.167 1173.785 L 3234.167 1176.672 Z " fill="rgb(30,29,28)"/><path d=" M 3296.667 1140.587 L 3316.667 1152.134 L 3321.667 1149.248 L 3301.667 1137.701 L 3296.667 1140.587 Z " fill="rgb(30,29,28)"/><linearGradient id="_lgradient_888" x1="2.5000000000048304%" y1="68.48798940194455%" x2="100.00000000000426%" y2="46.11566647085249%"><stop offset="0%" stop-opacity="1" style="stop-color:rgb(51,39,22)"/><stop offset="100%" stop-opacity="1" style="stop-color:rgb(96,61,22)"/></linearGradient><path d=" M 3237.5 1176.95 C 3237.5 1177.481 3238.247 1177.912 3239.167 1177.912 C 3240.087 1177.912 3240.833 1177.481 3240.833 1176.95 L 3240.833 1169.252 L 3237.5 1169.252 L 3237.5 1176.95 Z " fill="url(#_lgradient_888)"/><linearGradient id="_lgradient_889" x1="4.166666666666788%" y1="67.60455294605876%" x2="96.66666666666649%" y2="30.489178498154217%"><stop offset="0%" stop-opacity="1" style="stop-color:rgb(0,86,74)"/><stop offset="100%" stop-opacity="1" style="stop-color:rgb(22,157,101)"/></linearGradient><path d=" M 3229.167 1157.148 C 3229.167 1149.713 3233.648 1143.677 3239.167 1143.677 C 3244.686 1143.677 3249.167 1149.713 3249.167 1157.148 C 3249.167 1164.584 3244.686 1170.62 3239.167 1170.62 C 3233.648 1170.62 3229.167 1164.584 3229.167 1157.148 Z " fill="url(#_lgradient_889)"/><linearGradient id="_lgradient_890" x1="2.5000000000048304%" y1="68.48798940194455%" x2="100.00000000000426%" y2="46.11566647085249%"><stop offset="0%" stop-opacity="1" style="stop-color:rgb(51,39,22)"/><stop offset="100%" stop-opacity="1" style="stop-color:rgb(96,61,22)"/></linearGradient><path d=" M 3252.5 1185.61 C 3252.5 1186.141 3253.247 1186.573 3254.167 1186.573 C 3255.087 1186.573 3255.833 1186.141 3255.833 1185.61 L 3255.833 1177.912 L 3252.5 1177.912 L 3252.5 1185.61 Z " fill="url(#_lgradient_890)"/><linearGradient id="_lgradient_891" x1="4.166666666666788%" y1="67.60455294605876%" x2="96.66666666666649%" y2="30.489178498154217%"><stop offset="0%" stop-opacity="1" style="stop-color:rgb(0,86,74)"/><stop offset="100%" stop-opacity="1" style="stop-color:rgb(22,157,101)"/></linearGradient><path d=" M 3244.167 1165.809 C 3244.167 1158.374 3248.648 1152.337 3254.167 1152.337 C 3259.686 1152.337 3264.167 1158.374 3264.167 1165.809 C 3264.167 1173.244 3259.686 1179.28 3254.167 1179.28 C 3248.648 1179.28 3244.167 1173.244 3244.167 1165.809 Z " fill="url(#_lgradient_891)"/><linearGradient id="_lgradient_892" x1="2.5000000000048304%" y1="68.48798940194455%" x2="100.00000000000426%" y2="46.11566647085249%"><stop offset="0%" stop-opacity="1" style="stop-color:rgb(51,39,22)"/><stop offset="100%" stop-opacity="1" style="stop-color:rgb(96,61,22)"/></linearGradient><path d=" M 3175 1213.035 C 3175 1213.566 3175.747 1213.997 3176.667 1213.997 C 3177.587 1213.997 3178.333 1213.566 3178.333 1213.035 L 3178.333 1205.337 L 3175 1205.337 L 3175 1213.035 Z " fill="url(#_lgradient_892)"/><linearGradient id="_lgradient_893" x1="4.166666666666788%" y1="67.60455294605876%" x2="96.66666666666649%" y2="30.489178498154217%"><stop offset="0%" stop-opacity="1" style="stop-color:rgb(0,86,74)"/><stop offset="100%" stop-opacity="1" style="stop-color:rgb(22,157,101)"/></linearGradient><path d=" M 3166.667 1193.233 C 3166.667 1185.798 3171.148 1179.761 3176.667 1179.761 C 3182.186 1179.761 3186.667 1185.798 3186.667 1193.233 C 3186.667 1200.668 3182.186 1206.704 3176.667 1206.704 C 3171.148 1206.704 3166.667 1200.668 3166.667 1193.233 Z " fill="url(#_lgradient_893)"/><linearGradient id="_lgradient_894" x1="2.5000000000048304%" y1="68.48798940194455%" x2="100.00000000000426%" y2="46.11566647085249%"><stop offset="0%" stop-opacity="1" style="stop-color:rgb(51,39,22)"/><stop offset="100%" stop-opacity="1" style="stop-color:rgb(96,61,22)"/></linearGradient><path d=" M 3190 1221.695 C 3190 1222.226 3190.747 1222.657 3191.667 1222.657 C 3192.587 1222.657 3193.333 1222.226 3193.333 1221.695 L 3193.333 1213.997 L 3190 1213.997 L 3190 1221.695 Z " fill="url(#_lgradient_894)"/><linearGradient id="_lgradient_895" x1="4.166666666666788%" y1="67.60455294605876%" x2="96.66666666666649%" y2="30.489178498154217%"><stop offset="0%" stop-opacity="1" style="stop-color:rgb(0,86,74)"/><stop offset="100%" stop-opacity="1" style="stop-color:rgb(22,157,101)"/></linearGradient><path d=" M 3181.667 1201.893 C 3181.667 1194.458 3186.148 1188.422 3191.667 1188.422 C 3197.186 1188.422 3201.667 1194.458 3201.667 1201.893 C 3201.667 1209.328 3197.186 1215.365 3191.667 1215.365 C 3186.148 1215.365 3181.667 1209.328 3181.667 1201.893 Z " fill="url(#_lgradient_895)"/><path d=" M 3209.073 1196.879 L 3219.073 1202.653 L 3224.073 1199.766 L 3214.073 1193.992 L 3209.073 1196.879 Z " fill="rgb(30,29,28)"/><g id="Group"><linearGradient id="_lgradient_896" x1="2.5000000000048304%" y1="68.48798940194455%" x2="100.00000000000426%" y2="46.11566647085249%"><stop offset="0%" stop-opacity="1" style="stop-color:rgb(51,39,22)"/><stop offset="100%" stop-opacity="1" style="stop-color:rgb(96,61,22)"/></linearGradient><path d=" M 3214.906 1198.322 C 3214.906 1198.854 3215.653 1199.285 3216.573 1199.285 C 3217.493 1199.285 3218.24 1198.854 3218.24 1198.322 L 3218.24 1190.624 L 3214.906 1190.624 L 3214.906 1198.322 Z " fill="url(#_lgradient_896)"/><linearGradient id="_lgradient_897" x1="4.166666666666788%" y1="67.60455294605876%" x2="96.66666666666649%" y2="30.489178498154217%"><stop offset="0%" stop-opacity="1" style="stop-color:rgb(0,86,74)"/><stop offset="100%" stop-opacity="1" style="stop-color:rgb(22,157,101)"/></linearGradient><path d=" M 3206.573 1178.521 C 3206.573 1171.086 3211.054 1165.049 3216.573 1165.049 C 3222.092 1165.049 3226.573 1171.086 3226.573 1178.521 C 3226.573 1185.956 3222.092 1191.992 3216.573 1191.992 C 3211.054 1191.992 3206.573 1185.956 3206.573 1178.521 Z " fill="url(#_lgradient_897)"/></g><path d=" M 3271.667 1160.801 L 3281.667 1166.574 L 3286.667 1163.687 L 3276.667 1157.914 L 3271.667 1160.801 Z " fill="rgb(30,29,28)"/><linearGradient id="_lgradient_898" x1="2.5000000000048304%" y1="68.48798940194455%" x2="100.00000000000426%" y2="46.11566647085249%"><stop offset="0%" stop-opacity="1" style="stop-color:rgb(51,39,22)"/><stop offset="100%" stop-opacity="1" style="stop-color:rgb(96,61,22)"/></linearGradient><path d=" M 3277.5 1162.357 C 3277.5 1162.888 3278.247 1163.319 3279.167 1163.319 C 3280.087 1163.319 3280.833 1162.888 3280.833 1162.357 L 3280.833 1154.659 L 3277.5 1154.659 L 3277.5 1162.357 Z " fill="url(#_lgradient_898)"/><linearGradient id="_lgradient_899" x1="4.166666666666788%" y1="67.60455294605876%" x2="96.66666666666649%" y2="30.489178498154217%"><stop offset="0%" stop-opacity="1" style="stop-color:rgb(0,86,74)"/><stop offset="100%" stop-opacity="1" style="stop-color:rgb(22,157,101)"/></linearGradient><path d=" M 3269.167 1142.556 C 3269.167 1135.12 3273.648 1129.084 3279.167 1129.084 C 3284.686 1129.084 3289.167 1135.12 3289.167 1142.556 C 3289.167 1149.991 3284.686 1156.027 3279.167 1156.027 C 3273.648 1156.027 3269.167 1149.991 3269.167 1142.556 Z " fill="url(#_lgradient_899)"/><linearGradient id="_lgradient_900" x1="2.5000000000048304%" y1="68.48798940194455%" x2="100.00000000000426%" y2="46.11566647085249%"><stop offset="0%" stop-opacity="1" style="stop-color:rgb(51,39,22)"/><stop offset="100%" stop-opacity="1" style="stop-color:rgb(96,61,22)"/></linearGradient><path d=" M 3300 1140.866 C 3300 1141.397 3300.747 1141.828 3301.667 1141.828 C 3302.587 1141.828 3303.333 1141.397 3303.333 1140.866 L 3303.333 1133.168 L 3300 1133.168 L 3300 1140.866 Z " fill="url(#_lgradient_900)"/><linearGradient id="_lgradient_901" x1="4.166666666666788%" y1="67.60455294605876%" x2="96.66666666666649%" y2="30.489178498154217%"><stop offset="0%" stop-opacity="1" style="stop-color:rgb(0,86,74)"/><stop offset="100%" stop-opacity="1" style="stop-color:rgb(22,157,101)"/></linearGradient><path d=" M 3291.667 1121.064 C 3291.667 1113.629 3296.148 1107.593 3301.667 1107.593 C 3307.186 1107.593 3311.667 1113.629 3311.667 1121.064 C 3311.667 1128.499 3307.186 1134.536 3301.667 1134.536 C 3296.148 1134.536 3291.667 1128.499 3291.667 1121.064 Z " fill="url(#_lgradient_901)"/><linearGradient id="_lgradient_902" x1="2.5000000000048304%" y1="68.48798940194455%" x2="100.00000000000426%" y2="46.11566647085249%"><stop offset="0%" stop-opacity="1" style="stop-color:rgb(51,39,22)"/><stop offset="100%" stop-opacity="1" style="stop-color:rgb(96,61,22)"/></linearGradient><path d=" M 3315 1149.526 C 3315 1150.057 3315.747 1150.488 3316.667 1150.488 C 3317.587 1150.488 3318.333 1150.057 3318.333 1149.526 L 3318.333 1141.828 L 3315 1141.828 L 3315 1149.526 Z " fill="url(#_lgradient_902)"/><linearGradient id="_lgradient_903" x1="4.166666666666788%" y1="67.60455294605876%" x2="96.66666666666649%" y2="30.489178498154217%"><stop offset="0%" stop-opacity="1" style="stop-color:rgb(0,86,74)"/><stop offset="100%" stop-opacity="1" style="stop-color:rgb(22,157,101)"/></linearGradient><path d=" M 3306.667 1129.724 C 3306.667 1122.289 3311.148 1116.253 3316.667 1116.253 C 3322.186 1116.253 3326.667 1122.289 3326.667 1129.724 C 3326.667 1137.159 3322.186 1143.196 3316.667 1143.196 C 3311.148 1143.196 3306.667 1137.159 3306.667 1129.724 Z " fill="url(#_lgradient_903)"/><path d=" M 2981.667 1157.908 L 2981.667 1160.795 L 3189.167 1280.595 L 3189.167 1277.708 L 2981.667 1157.908 Z " fill="rgb(162,162,162)"/><path d=" M 3394.167 1159.351 L 3394.167 1162.238 L 3189.167 1280.595 L 3189.167 1277.708 L 3394.167 1159.351 Z " fill="rgb(209,209,209)"/></g></svg>