<?xml version="1.0" standalone="no"?><!-- Generator: Gravit.io --><svg xmlns="http://www.w3.org/2000/svg" xmlns:xlink="http://www.w3.org/1999/xlink" style="isolation:isolate" viewBox="390 43.876 181.6 938.812" width="181.6" height="938.812"><g id="Group"><path d=" M 391.219 102.665 L 469.348 147.773 L 480 142.376 L 489.785 148.273 L 569.993 101.966 L 560 96.188 L 571.6 91.338 L 489.393 43.876 L 480 50 L 470.607 43.876 L 390.189 90.305 L 400 96.188 L 391.219 102.665 Z " fill="rgb(247,247,247)"/><path d=" M 490 148.15 L 490 982.688 L 570 936.5 L 570 101.962 L 490 148.15 Z " fill="rgb(240,238,238)"/><path d=" M 390 101.962 L 390 936.5 L 470 982.688 L 470 148.15 L 390 101.962 Z " fill="rgb(208,207,207)"/><path d=" M 570 90.415 L 570 101.962 L 560 96.188 L 570 90.415 Z " fill="rgb(208,207,207)"/><path d=" M 390 101.962 L 400 96.188 L 390 90.415 L 390 101.962 Z " fill="rgb(185,185,185)"/><path d=" M 480 976.915 L 480 142.376 L 490 148.15 L 490 982.688 L 480 976.915 Z " fill="rgb(208,207,207)"/><path d=" M 470 982.688 L 470 148.15 L 480 142.376 L 480 976.915 L 470 982.688 Z " fill="rgb(240,238,238)"/><clipPath id="_clipPath_VFoUpoGMTmgbUvlY5svIg8iOPMtUfL8R"><path d=" M 495 156.81 L 565 116.395 L 565 927.84 L 495 968.254 L 495 156.81 Z " fill="rgb(255,255,255)"/></clipPath><g clip-path="url(#_clipPath_VFoUpoGMTmgbUvlY5svIg8iOPMtUfL8R)"><g id="body-windows-right"><line x1="498" y1="1010.363" x2="498" y2="86.603" vector-effect="non-scaling-stroke" stroke-width="2.734" stroke="rgb(145,145,145)" stroke-linejoin="miter" stroke-linecap="square" stroke-miterlimit="3"/><line x1="504.5" y1="1010.363" x2="504.5" y2="86.603" vector-effect="non-scaling-stroke" stroke-width="2.734" stroke="rgb(145,145,145)" stroke-linejoin="miter" stroke-linecap="square" stroke-miterlimit="3"/><line x1="511" y1="1010.363" x2="511" y2="86.603" vector-effect="non-scaling-stroke" stroke-width="2.734" stroke="rgb(145,145,145)" stroke-linejoin="miter" stroke-linecap="square" stroke-miterlimit="3"/><line x1="517.5" y1="1010.363" x2="517.5" y2="86.603" vector-effect="non-scaling-stroke" stroke-width="2.734" stroke="rgb(145,145,145)" stroke-linejoin="miter" stroke-linecap="square" stroke-miterlimit="3"/><line x1="524" y1="1010.363" x2="524" y2="86.603" vector-effect="non-scaling-stroke" stroke-width="2.734" stroke="rgb(145,145,145)" stroke-linejoin="miter" stroke-linecap="square" stroke-miterlimit="3"/><line x1="530.5" y1="1010.363" x2="530.5" y2="86.603" vector-effect="non-scaling-stroke" stroke-width="2.734" stroke="rgb(145,145,145)" stroke-linejoin="miter" stroke-linecap="square" stroke-miterlimit="3"/><path d=" M 563 1010.363 Q 563 447.112 563 86.603" fill="none" vector-effect="non-scaling-stroke" stroke-width="2.734" stroke="rgb(145,145,145)" stroke-linejoin="miter" stroke-linecap="square" stroke-miterlimit="3"/><path d=" M 556.5 1010.363 Q 556.5 447.112 556.5 86.603" fill="none" vector-effect="non-scaling-stroke" stroke-width="2.734" stroke="rgb(145,145,145)" stroke-linejoin="miter" stroke-linecap="square" stroke-miterlimit="3"/><line x1="543.5" y1="1010.363" x2="543.5" y2="86.603" vector-effect="non-scaling-stroke" stroke-width="2.734" stroke="rgb(145,145,145)" stroke-linejoin="miter" stroke-linecap="square" stroke-miterlimit="3"/><line x1="537" y1="1010.363" x2="537" y2="86.603" vector-effect="non-scaling-stroke" stroke-width="2.734" stroke="rgb(145,145,145)" stroke-linejoin="miter" stroke-linecap="square" stroke-miterlimit="3"/><line x1="550" y1="1010.363" x2="550" y2="86.603" vector-effect="non-scaling-stroke" stroke-width="2.734" stroke="rgb(145,145,145)" stroke-linejoin="miter" stroke-linecap="square" stroke-miterlimit="3"/></g></g><clipPath id="_clipPath_1YIhuuqyDabcWlpGKJktdw7EqgajhUqK"><path d=" M 465 156.81 L 395 116.395 L 395 927.84 L 465 968.254 L 465 156.81 Z " fill="rgb(255,255,255)"/></clipPath><g clip-path="url(#_clipPath_1YIhuuqyDabcWlpGKJktdw7EqgajhUqK)"><g id="body-windows-left"><line x1="462" y1="998.5" x2="462" y2="81" vector-effect="non-scaling-stroke" stroke-width="2.56" stroke="rgb(98,98,98)" stroke-linejoin="miter" stroke-linecap="square" stroke-miterlimit="3"/><line x1="455.5" y1="998.5" x2="455.5" y2="81" vector-effect="non-scaling-stroke" stroke-width="2.56" stroke="rgb(98,98,98)" stroke-linejoin="miter" stroke-linecap="square" stroke-miterlimit="3"/><line x1="449" y1="998.5" x2="449" y2="81" vector-effect="non-scaling-stroke" stroke-width="2.56" stroke="rgb(98,98,98)" stroke-linejoin="miter" stroke-linecap="square" stroke-miterlimit="3"/><line x1="442.5" y1="998.5" x2="442.5" y2="81" vector-effect="non-scaling-stroke" stroke-width="2.56" stroke="rgb(98,98,98)" stroke-linejoin="miter" stroke-linecap="square" stroke-miterlimit="3"/><line x1="436" y1="998.5" x2="436" y2="81" vector-effect="non-scaling-stroke" stroke-width="2.56" stroke="rgb(98,98,98)" stroke-linejoin="miter" stroke-linecap="square" stroke-miterlimit="3"/><line x1="429.5" y1="998.5" x2="429.5" y2="81" vector-effect="non-scaling-stroke" stroke-width="2.56" stroke="rgb(98,98,98)" stroke-linejoin="miter" stroke-linecap="square" stroke-miterlimit="3"/><line x1="397" y1="998.5" x2="397" y2="81" vector-effect="non-scaling-stroke" stroke-width="2.56" stroke="rgb(98,98,98)" stroke-linejoin="miter" stroke-linecap="square" stroke-miterlimit="3"/><line x1="403.5" y1="998.5" x2="403.5" y2="81" vector-effect="non-scaling-stroke" stroke-width="2.56" stroke="rgb(98,98,98)" stroke-linejoin="miter" stroke-linecap="square" stroke-miterlimit="3"/><line x1="416.5" y1="998.5" x2="416.5" y2="81" vector-effect="non-scaling-stroke" stroke-width="2.56" stroke="rgb(98,98,98)" stroke-linejoin="miter" stroke-linecap="square" stroke-miterlimit="3"/><line x1="423" y1="998.5" x2="423" y2="81" vector-effect="non-scaling-stroke" stroke-width="2.56" stroke="rgb(98,98,98)" stroke-linejoin="miter" stroke-linecap="square" stroke-miterlimit="3"/><line x1="410" y1="998.5" x2="410" y2="81" vector-effect="non-scaling-stroke" stroke-width="2.56" stroke="rgb(98,98,98)" stroke-linejoin="miter" stroke-linecap="square" stroke-miterlimit="3"/></g></g></g></svg>