<?xml version="1.0" standalone="no"?><!-- Generator: Gravit.io --><svg xmlns="http://www.w3.org/2000/svg" xmlns:xlink="http://www.w3.org/1999/xlink" style="isolation:isolate" viewBox="390.189 1197.987 181.411 104.398" width="181.411" height="104.398"><g id="aon-roof"><path d=" M 391.219 1256.776 L 469.348 1301.884 L 480 1296.487 L 489.785 1302.384 L 569.993 1256.077 L 560 1250.299 L 571.6 1245.449 L 489.393 1197.987 L 480 1204.111 L 470.607 1197.987 L 390.189 1244.417 L 400 1250.299 L 391.219 1256.776 Z " fill="rgb(247,247,247)"/><path d=" M 470 1296.487 L 480 1290.714 L 490 1296.487 L 560 1256.073 L 550 1250.299 L 560 1244.526 L 490 1204.111 L 480 1209.885 L 470 1204.111 L 400 1244.526 L 410 1250.299 L 400 1256.073 L 470 1296.487 Z " fill="rgb(240,238,238)"/><path d=" M 480 1284.94 L 540 1250.299 L 540 1238.752 L 480 1273.393 L 480 1284.94 Z " fill="rgb(208,207,207)"/><path d=" M 420 1250.299 L 420 1238.752 L 480 1273.393 L 480 1284.94 L 420 1250.299 Z " fill="rgb(185,185,185)"/><path d=" M 420 1238.752 L 480 1204.111 L 540 1238.752 L 480 1273.393 L 420 1238.752 Z " fill="rgb(247,247,247)"/></g></svg>