<?xml version="1.0" standalone="no"?><!-- Generator: Gravit.io --><svg xmlns="http://www.w3.org/2000/svg" xmlns:xlink="http://www.w3.org/1999/xlink" style="isolation:isolate" viewBox="255 548.204 472.5 298.779" width="472.5" height="298.779"><g id="Group"><path d=" M 255 689.655 L 460 571.298 L 727.5 725.74 L 522.5 844.096 L 255 689.655 Z " fill="rgb(232,232,232)"/><path d=" M 285 680.995 L 465 577.072 L 702.5 714.193 L 522.5 818.116 L 285 680.995 Z " fill="rgb(244,244,244)"/><path d=" M 470 756.051 L 610 675.221 L 610 652.127 L 470 732.957 L 470 756.051 Z " fill="rgb(0,0,0)"/><path d=" M 330.016 675.234 L 330 651.406 L 470 732.957 L 470 756.051 L 330.016 675.234 Z " fill="rgb(0,0,0)"/><path d=" M 310 640.58 L 470 548.204 L 630 640.58 L 470 732.957 L 310 640.58 Z " fill="rgb(139,139,139)"/><g id="base-right"><path d=" M 470 732.957 L 472.5 731.513 L 472.5 754.607 L 470 756.051 L 470 732.957 Z " fill="rgb(62,61,61)"/><path d=" M 546.389 688.853 L 548.889 687.41 L 548.889 710.504 L 546.389 711.947 L 546.389 688.853 Z " fill="rgb(62,61,61)"/><path d=" M 515.833 706.495 L 518.333 705.051 L 518.333 728.145 L 515.833 729.589 L 515.833 706.495 Z " fill="rgb(62,61,61)"/><path d=" M 592.222 662.392 L 594.722 660.948 L 594.722 684.042 L 592.222 685.486 L 592.222 662.392 Z " fill="rgb(62,61,61)"/><path d=" M 485.278 724.136 L 487.778 722.693 L 487.778 745.787 L 485.278 747.23 L 485.278 724.136 Z " fill="rgb(62,61,61)"/><path d=" M 561.667 680.033 L 564.167 678.589 L 564.167 701.683 L 561.667 703.127 L 561.667 680.033 Z " fill="rgb(62,61,61)"/><path d=" M 531.111 697.674 L 533.611 696.231 L 533.611 719.325 L 531.111 720.768 L 531.111 697.674 Z " fill="rgb(62,61,61)"/><path d=" M 607.5 653.571 L 610 652.127 L 610 675.222 L 607.5 676.665 L 607.5 653.571 Z " fill="rgb(62,61,61)"/><path d=" M 500.556 715.315 L 503.056 713.872 L 503.056 736.966 L 500.556 738.409 L 500.556 715.315 Z " fill="rgb(62,61,61)"/><path d=" M 576.944 671.212 L 579.444 669.769 L 579.444 692.863 L 576.944 694.306 L 576.944 671.212 Z " fill="rgb(62,61,61)"/></g><path d=" M 470 732.957 L 467.5 731.513 L 467.5 754.607 L 470 756.051 L 470 732.957 Z " fill="rgb(42,42,42)"/><path d=" M 347.778 662.392 L 345.278 660.948 L 345.278 684.042 L 347.778 685.486 L 347.778 662.392 Z " fill="rgb(42,42,42)"/><path d=" M 378.333 680.033 L 375.833 678.589 L 375.833 701.683 L 378.333 703.127 L 378.333 680.033 Z " fill="rgb(42,42,42)"/><path d=" M 408.889 697.674 L 406.389 696.231 L 406.389 719.325 L 408.889 720.768 L 408.889 697.674 Z " fill="rgb(42,42,42)"/><path d=" M 439.444 715.315 L 436.944 713.872 L 436.944 736.966 L 439.444 738.409 L 439.444 715.315 Z " fill="rgb(42,42,42)"/><g id="base-left"><path d=" M 393.611 688.853 L 391.111 687.41 L 391.111 710.504 L 393.611 711.947 L 393.611 688.853 Z " fill="rgb(42,42,42)"/><path d=" M 424.167 706.495 L 421.667 705.051 L 421.667 728.145 L 424.167 729.589 L 424.167 706.495 Z " fill="rgb(42,42,42)"/><path d=" M 454.722 724.136 L 452.222 722.693 L 452.222 745.787 L 454.722 747.23 L 454.722 724.136 Z " fill="rgb(42,42,42)"/><path d=" M 332.5 653.571 L 330 652.127 L 330 675.222 L 332.5 676.665 L 332.5 653.571 Z " fill="rgb(42,42,42)"/><path d=" M 363.056 671.212 L 360.556 669.769 L 360.556 692.863 L 363.056 694.306 L 363.056 671.212 Z " fill="rgb(42,42,42)"/></g><g id="Group"><path d=" M 565 679.552 L 565 685.325 L 582.5 675.221 L 582.5 669.448 L 565 679.552 Z " fill="rgb(52,134,210)"/><path d=" M 562.5 678.108 L 565 679.552 L 582.5 669.448 L 580 668.005 L 562.5 678.108 Z " fill="rgb(111,111,111)"/><path d=" M 565 685.325 L 562.5 683.882 L 562.5 678.108 L 565 679.552 L 565 685.325 Z " fill="rgb(62,61,61)"/></g><path d=" M 502.5 715.636 L 502.5 721.41 L 520 711.306 L 520 705.532 L 502.5 715.636 Z " fill="rgb(21,155,100)"/><path d=" M 500 714.193 L 502.5 715.636 L 520 705.532 L 517.5 704.089 L 500 714.193 Z " fill="rgb(111,111,111)"/><path d=" M 502.5 721.41 L 500 719.966 L 500 714.193 L 502.5 715.636 L 502.5 721.41 Z " fill="rgb(62,61,61)"/><path d=" M 438 715.636 L 438 721.41 L 420.5 711.306 L 420.5 705.532 L 438 715.636 Z " fill="rgb(244,81,81)"/><path d=" M 440.5 714.193 L 438 715.636 L 420.5 705.532 L 423 704.089 L 440.5 714.193 Z " fill="rgb(111,111,111)"/><path d=" M 438 721.41 L 440.5 719.966 L 440.5 714.193 L 438 715.636 L 438 721.41 Z " fill="rgb(62,61,61)"/><path d=" M 375.5 679.552 L 375.5 685.325 L 358 675.221 L 358 669.448 L 375.5 679.552 Z " fill="rgb(66,71,168)"/><path d=" M 378 678.108 L 375.5 679.552 L 358 669.448 L 360.5 668.005 L 378 678.108 Z " fill="rgb(111,111,111)"/><path d=" M 375.5 685.325 L 378 683.882 L 378 678.108 L 375.5 679.552 L 375.5 685.325 Z " fill="rgb(62,61,61)"/><g id="base-right"><path d=" M 475 730.07 L 475 770.484 L 470 773.371 L 470 732.957 L 475 730.07 Z " fill="rgb(62,61,61)"/><path d=" M 630 640.58 L 630 680.995 L 625 683.882 L 625 643.467 L 630 640.58 Z " fill="rgb(62,61,61)"/><path d=" M 315 683.882 L 320 680.995 L 320 646.354 L 315 643.467 L 315 683.882 Z " fill="rgb(62,61,61)"/><path d=" M 346 701.78 L 351 698.893 L 351 664.252 L 346 661.365 L 346 701.78 Z " fill="rgb(62,61,61)"/><path d=" M 501 755.473 L 506 752.586 L 506 712.172 L 501 715.059 L 501 755.473 Z " fill="rgb(62,61,61)"/><path d=" M 444 717.945 L 444 752.586 L 439 755.473 L 439 715.059 L 444 717.945 Z " fill="rgb(62,61,61)"/><path d=" M 532 737.575 L 537 734.689 L 537 694.274 L 532 697.161 L 532 737.575 Z " fill="rgb(62,61,61)"/><path d=" M 413 700.048 L 413 734.689 L 408 737.575 L 408 697.161 L 413 700.048 Z " fill="rgb(62,61,61)"/><path d=" M 382 682.15 L 382 716.791 L 377 719.677 L 377 679.263 L 382 682.15 Z " fill="rgb(62,61,61)"/><path d=" M 563 719.677 L 568 716.791 L 568 676.376 L 563 679.263 L 563 719.677 Z " fill="rgb(62,61,61)"/><path d=" M 594 701.78 L 599 698.893 L 599 658.478 L 594 661.365 L 594 701.78 Z " fill="rgb(62,61,61)"/></g><g id="base-left"><path d=" M 470 773.371 L 465 770.484 L 465 730.07 L 470 732.957 L 470 773.371 Z " fill="rgb(42,42,42)"/><path d=" M 625 683.882 L 620 680.995 L 620 646.354 L 625 643.467 L 625 683.882 Z " fill="rgb(42,42,42)"/><path d=" M 310 640.58 L 310 680.995 L 315 683.882 L 315 643.467 L 310 640.58 Z " fill="rgb(42,42,42)"/><path d=" M 341 658.478 L 341 698.893 L 346 701.78 L 346 661.365 L 341 658.478 Z " fill="rgb(42,42,42)"/><path d=" M 496 717.945 L 496 752.586 L 501 755.473 L 501 715.059 L 496 717.945 Z " fill="rgb(42,42,42)"/><path d=" M 439 755.473 L 434 752.586 L 434 712.172 L 439 715.059 L 439 755.473 Z " fill="rgb(42,42,42)"/><path d=" M 527 700.048 L 527 734.689 L 532 737.575 L 532 697.161 L 527 700.048 Z " fill="rgb(42,42,42)"/><path d=" M 408 737.575 L 403 734.689 L 403 694.274 L 408 697.161 L 408 737.575 Z " fill="rgb(42,42,42)"/><path d=" M 377 719.677 L 372 716.791 L 372 676.376 L 377 679.263 L 377 719.677 Z " fill="rgb(42,42,42)"/><path d=" M 558 682.15 L 558 716.791 L 563 719.677 L 563 679.263 L 558 682.15 Z " fill="rgb(42,42,42)"/><path d=" M 589 664.252 L 589 698.893 L 594 701.78 L 594 661.365 L 589 664.252 Z " fill="rgb(42,42,42)"/></g><path d=" M 482.5 780.588 L 637.5 691.099 L 677.5 714.193 L 522.5 803.682 L 482.5 780.588 Z " fill="rgb(219,200,185)" vector-effect="non-scaling-stroke" stroke-width="0.5" stroke="rgb(166,154,142)" stroke-linejoin="miter" stroke-linecap="square" stroke-miterlimit="3"/><path d=" M 485 779.145 L 505 790.692 L 502.5 792.135 L 482.5 780.588 L 485 779.145 Z " fill="none" vector-effect="non-scaling-stroke" stroke-width="0.25" stroke="rgb(166,154,142)" stroke-linejoin="miter" stroke-linecap="square" stroke-miterlimit="3"/><path d=" M 505 790.692 L 525 802.239 L 522.5 803.682 L 502.5 792.135 L 505 790.692 Z " fill="none" vector-effect="non-scaling-stroke" stroke-width="0.25" stroke="rgb(166,154,142)" stroke-linejoin="miter" stroke-linecap="square" stroke-miterlimit="3"/><path d=" M 497.5 783.475 L 517.5 795.022 L 515 796.465 L 495 784.918 L 497.5 783.475 Z " fill="none" vector-effect="non-scaling-stroke" stroke-width="0.25" stroke="rgb(166,154,142)" stroke-linejoin="miter" stroke-linecap="square" stroke-miterlimit="3"/><path d=" M 525 802.239 L 527.5 800.795 L 517.5 795.022 L 515 796.465 L 525 802.239 Z " fill="none" vector-effect="non-scaling-stroke" stroke-width="0.25" stroke="rgb(166,154,142)" stroke-linejoin="miter" stroke-linecap="square" stroke-miterlimit="3"/><path d=" M 485 779.145 L 487.5 777.701 L 497.5 783.475 L 495 784.918 L 485 779.145 Z " fill="none" vector-effect="non-scaling-stroke" stroke-width="0.25" stroke="rgb(166,154,142)" stroke-linejoin="miter" stroke-linecap="square" stroke-miterlimit="3"/><path d=" M 490 776.258 L 510 787.805 L 507.5 789.248 L 487.5 777.701 L 490 776.258 Z " fill="none" vector-effect="non-scaling-stroke" stroke-width="0.25" stroke="rgb(166,154,142)" stroke-linejoin="miter" stroke-linecap="square" stroke-miterlimit="3"/><path d=" M 510 787.805 L 530 799.352 L 527.5 800.795 L 507.5 789.248 L 510 787.805 Z " fill="none" vector-effect="non-scaling-stroke" stroke-width="0.25" stroke="rgb(166,154,142)" stroke-linejoin="miter" stroke-linecap="square" stroke-miterlimit="3"/><path d=" M 502.5 780.588 L 522.5 792.135 L 520 793.578 L 500 782.031 L 502.5 780.588 Z " fill="none" vector-effect="non-scaling-stroke" stroke-width="0.25" stroke="rgb(166,154,142)" stroke-linejoin="miter" stroke-linecap="square" stroke-miterlimit="3"/><path d=" M 530 799.352 L 532.5 797.908 L 522.5 792.135 L 520 793.578 L 530 799.352 Z " fill="none" vector-effect="non-scaling-stroke" stroke-width="0.25" stroke="rgb(166,154,142)" stroke-linejoin="miter" stroke-linecap="square" stroke-miterlimit="3"/><path d=" M 490 776.258 L 492.5 774.814 L 502.5 780.588 L 500 782.031 L 490 776.258 Z " fill="none" vector-effect="non-scaling-stroke" stroke-width="0.25" stroke="rgb(166,154,142)" stroke-linejoin="miter" stroke-linecap="square" stroke-miterlimit="3"/><path d=" M 505 767.598 L 525 779.145 L 522.5 780.588 L 502.5 769.041 L 505 767.598 Z " fill="none" vector-effect="non-scaling-stroke" stroke-width="0.25" stroke="rgb(166,154,142)" stroke-linejoin="miter" stroke-linecap="square" stroke-miterlimit="3"/><path d=" M 525 779.145 L 545 790.692 L 542.5 792.135 L 522.5 780.588 L 525 779.145 Z " fill="none" vector-effect="non-scaling-stroke" stroke-width="0.25" stroke="rgb(166,154,142)" stroke-linejoin="miter" stroke-linecap="square" stroke-miterlimit="3"/><path d=" M 517.5 771.928 L 537.5 783.475 L 535 784.918 L 515 773.371 L 517.5 771.928 Z " fill="none" vector-effect="non-scaling-stroke" stroke-width="0.25" stroke="rgb(166,154,142)" stroke-linejoin="miter" stroke-linecap="square" stroke-miterlimit="3"/><path d=" M 545 790.692 L 547.5 789.248 L 537.5 783.475 L 535 784.918 L 545 790.692 Z " fill="none" vector-effect="non-scaling-stroke" stroke-width="0.25" stroke="rgb(166,154,142)" stroke-linejoin="miter" stroke-linecap="square" stroke-miterlimit="3"/><path d=" M 505 767.598 L 507.5 766.154 L 517.5 771.928 L 515 773.371 L 505 767.598 Z " fill="none" vector-effect="non-scaling-stroke" stroke-width="0.25" stroke="rgb(166,154,142)" stroke-linejoin="miter" stroke-linecap="square" stroke-miterlimit="3"/><path d=" M 510 764.711 L 530 776.258 L 527.5 777.701 L 507.5 766.154 L 510 764.711 Z " fill="none" vector-effect="non-scaling-stroke" stroke-width="0.25" stroke="rgb(166,154,142)" stroke-linejoin="miter" stroke-linecap="square" stroke-miterlimit="3"/><path d=" M 530 776.258 L 550 787.805 L 547.5 789.248 L 527.5 777.701 L 530 776.258 Z " fill="none" vector-effect="non-scaling-stroke" stroke-width="0.25" stroke="rgb(166,154,142)" stroke-linejoin="miter" stroke-linecap="square" stroke-miterlimit="3"/><path d=" M 522.5 769.041 L 542.5 780.588 L 540 782.031 L 520 770.484 L 522.5 769.041 Z " fill="none" vector-effect="non-scaling-stroke" stroke-width="0.25" stroke="rgb(166,154,142)" stroke-linejoin="miter" stroke-linecap="square" stroke-miterlimit="3"/><path d=" M 550 787.805 L 552.5 786.361 L 542.5 780.588 L 540 782.031 L 550 787.805 Z " fill="none" vector-effect="non-scaling-stroke" stroke-width="0.25" stroke="rgb(166,154,142)" stroke-linejoin="miter" stroke-linecap="square" stroke-miterlimit="3"/><path d=" M 510 764.711 L 512.5 763.267 L 522.5 769.041 L 520 770.484 L 510 764.711 Z " fill="none" vector-effect="non-scaling-stroke" stroke-width="0.25" stroke="rgb(166,154,142)" stroke-linejoin="miter" stroke-linecap="square" stroke-miterlimit="3"/><path d=" M 495 773.371 L 515 784.918 L 512.5 786.361 L 492.5 774.814 L 495 773.371 Z " fill="none" vector-effect="non-scaling-stroke" stroke-width="0.25" stroke="rgb(166,154,142)" stroke-linejoin="miter" stroke-linecap="square" stroke-miterlimit="3"/><path d=" M 515 784.918 L 535 796.465 L 532.5 797.908 L 512.5 786.361 L 515 784.918 Z " fill="none" vector-effect="non-scaling-stroke" stroke-width="0.25" stroke="rgb(166,154,142)" stroke-linejoin="miter" stroke-linecap="square" stroke-miterlimit="3"/><path d=" M 507.5 777.701 L 527.5 789.248 L 525 790.692 L 505 779.145 L 507.5 777.701 Z " fill="none" vector-effect="non-scaling-stroke" stroke-width="0.25" stroke="rgb(166,154,142)" stroke-linejoin="miter" stroke-linecap="square" stroke-miterlimit="3"/><path d=" M 535 796.465 L 537.5 795.022 L 527.5 789.248 L 525 790.692 L 535 796.465 Z " fill="none" vector-effect="non-scaling-stroke" stroke-width="0.25" stroke="rgb(166,154,142)" stroke-linejoin="miter" stroke-linecap="square" stroke-miterlimit="3"/><path d=" M 495 773.371 L 497.5 771.928 L 507.5 777.701 L 505 779.145 L 495 773.371 Z " fill="none" vector-effect="non-scaling-stroke" stroke-width="0.25" stroke="rgb(166,154,142)" stroke-linejoin="miter" stroke-linecap="square" stroke-miterlimit="3"/><path d=" M 500 770.484 L 520 782.031 L 517.5 783.475 L 497.5 771.928 L 500 770.484 Z " fill="none" vector-effect="non-scaling-stroke" stroke-width="0.25" stroke="rgb(166,154,142)" stroke-linejoin="miter" stroke-linecap="square" stroke-miterlimit="3"/><path d=" M 520 782.031 L 540 793.578 L 537.5 795.022 L 517.5 783.475 L 520 782.031 Z " fill="none" vector-effect="non-scaling-stroke" stroke-width="0.25" stroke="rgb(166,154,142)" stroke-linejoin="miter" stroke-linecap="square" stroke-miterlimit="3"/><path d=" M 512.5 774.814 L 532.5 786.361 L 530 787.805 L 510 776.258 L 512.5 774.814 Z " fill="none" vector-effect="non-scaling-stroke" stroke-width="0.25" stroke="rgb(166,154,142)" stroke-linejoin="miter" stroke-linecap="square" stroke-miterlimit="3"/><path d=" M 540 793.578 L 542.5 792.135 L 532.5 786.361 L 530 787.805 L 540 793.578 Z " fill="none" vector-effect="non-scaling-stroke" stroke-width="0.25" stroke="rgb(166,154,142)" stroke-linejoin="miter" stroke-linecap="square" stroke-miterlimit="3"/><path d=" M 500 770.484 L 502.5 769.041 L 512.5 774.814 L 510 776.258 L 500 770.484 Z " fill="none" vector-effect="non-scaling-stroke" stroke-width="0.25" stroke="rgb(166,154,142)" stroke-linejoin="miter" stroke-linecap="square" stroke-miterlimit="3"/><path d=" M 515 761.824 L 535 773.371 L 532.5 774.814 L 512.5 763.267 L 515 761.824 Z " fill="none" vector-effect="non-scaling-stroke" stroke-width="0.25" stroke="rgb(166,154,142)" stroke-linejoin="miter" stroke-linecap="square" stroke-miterlimit="3"/><path d=" M 535 773.371 L 555 784.918 L 552.5 786.361 L 532.5 774.814 L 535 773.371 Z " fill="none" vector-effect="non-scaling-stroke" stroke-width="0.25" stroke="rgb(166,154,142)" stroke-linejoin="miter" stroke-linecap="square" stroke-miterlimit="3"/><path d=" M 527.5 766.154 L 547.5 777.701 L 545 779.145 L 525 767.598 L 527.5 766.154 Z " fill="none" vector-effect="non-scaling-stroke" stroke-width="0.25" stroke="rgb(166,154,142)" stroke-linejoin="miter" stroke-linecap="square" stroke-miterlimit="3"/><path d=" M 555 784.918 L 557.5 783.475 L 547.5 777.701 L 545 779.145 L 555 784.918 Z " fill="none" vector-effect="non-scaling-stroke" stroke-width="0.25" stroke="rgb(166,154,142)" stroke-linejoin="miter" stroke-linecap="square" stroke-miterlimit="3"/><path d=" M 515 761.824 L 517.5 760.381 L 527.5 766.154 L 525 767.598 L 515 761.824 Z " fill="none" vector-effect="non-scaling-stroke" stroke-width="0.25" stroke="rgb(166,154,142)" stroke-linejoin="miter" stroke-linecap="square" stroke-miterlimit="3"/><path d=" M 520 758.937 L 540 770.484 L 537.5 771.928 L 517.5 760.381 L 520 758.937 Z " fill="none" vector-effect="non-scaling-stroke" stroke-width="0.25" stroke="rgb(166,154,142)" stroke-linejoin="miter" stroke-linecap="square" stroke-miterlimit="3"/><path d=" M 540 770.484 L 560 782.031 L 557.5 783.475 L 537.5 771.928 L 540 770.484 Z " fill="none" vector-effect="non-scaling-stroke" stroke-width="0.25" stroke="rgb(166,154,142)" stroke-linejoin="miter" stroke-linecap="square" stroke-miterlimit="3"/><path d=" M 532.5 763.267 L 552.5 774.814 L 550 776.258 L 530 764.711 L 532.5 763.267 Z " fill="none" vector-effect="non-scaling-stroke" stroke-width="0.25" stroke="rgb(166,154,142)" stroke-linejoin="miter" stroke-linecap="square" stroke-miterlimit="3"/><path d=" M 560 782.031 L 562.5 780.588 L 552.5 774.814 L 550 776.258 L 560 782.031 Z " fill="none" vector-effect="non-scaling-stroke" stroke-width="0.25" stroke="rgb(166,154,142)" stroke-linejoin="miter" stroke-linecap="square" stroke-miterlimit="3"/><path d=" M 520 758.937 L 522.5 757.494 L 532.5 763.267 L 530 764.711 L 520 758.937 Z " fill="none" vector-effect="non-scaling-stroke" stroke-width="0.25" stroke="rgb(166,154,142)" stroke-linejoin="miter" stroke-linecap="square" stroke-miterlimit="3"/><path d=" M 565 732.969 L 585 744.516 L 582.5 745.959 L 562.5 734.412 L 565 732.969 Z " fill="none" vector-effect="non-scaling-stroke" stroke-width="0.25" stroke="rgb(166,154,142)" stroke-linejoin="miter" stroke-linecap="square" stroke-miterlimit="3"/><path d=" M 585 744.516 L 605 756.063 L 602.5 757.506 L 582.5 745.959 L 585 744.516 Z " fill="none" vector-effect="non-scaling-stroke" stroke-width="0.25" stroke="rgb(166,154,142)" stroke-linejoin="miter" stroke-linecap="square" stroke-miterlimit="3"/><path d=" M 577.5 737.299 L 597.5 748.846 L 595 750.289 L 575 738.742 L 577.5 737.299 Z " fill="none" vector-effect="non-scaling-stroke" stroke-width="0.25" stroke="rgb(166,154,142)" stroke-linejoin="miter" stroke-linecap="square" stroke-miterlimit="3"/><path d=" M 605 756.063 L 607.5 754.62 L 597.5 748.846 L 595 750.289 L 605 756.063 Z " fill="none" vector-effect="non-scaling-stroke" stroke-width="0.25" stroke="rgb(166,154,142)" stroke-linejoin="miter" stroke-linecap="square" stroke-miterlimit="3"/><path d=" M 565 732.969 L 567.5 731.526 L 577.5 737.299 L 575 738.742 L 565 732.969 Z " fill="none" vector-effect="non-scaling-stroke" stroke-width="0.25" stroke="rgb(166,154,142)" stroke-linejoin="miter" stroke-linecap="square" stroke-miterlimit="3"/><path d=" M 570 730.082 L 590 741.629 L 587.5 743.073 L 567.5 731.526 L 570 730.082 Z " fill="none" vector-effect="non-scaling-stroke" stroke-width="0.25" stroke="rgb(166,154,142)" stroke-linejoin="miter" stroke-linecap="square" stroke-miterlimit="3"/><path d=" M 590 741.629 L 610 753.176 L 607.5 754.62 L 587.5 743.073 L 590 741.629 Z " fill="none" vector-effect="non-scaling-stroke" stroke-width="0.25" stroke="rgb(166,154,142)" stroke-linejoin="miter" stroke-linecap="square" stroke-miterlimit="3"/><path d=" M 582.5 734.412 L 602.5 745.959 L 600 747.403 L 580 735.856 L 582.5 734.412 Z " fill="none" vector-effect="non-scaling-stroke" stroke-width="0.25" stroke="rgb(166,154,142)" stroke-linejoin="miter" stroke-linecap="square" stroke-miterlimit="3"/><path d=" M 610 753.176 L 612.5 751.733 L 602.5 745.959 L 600 747.403 L 610 753.176 Z " fill="none" vector-effect="non-scaling-stroke" stroke-width="0.25" stroke="rgb(166,154,142)" stroke-linejoin="miter" stroke-linecap="square" stroke-miterlimit="3"/><path d=" M 570 730.082 L 572.5 728.639 L 582.5 734.412 L 580 735.856 L 570 730.082 Z " fill="none" vector-effect="non-scaling-stroke" stroke-width="0.25" stroke="rgb(166,154,142)" stroke-linejoin="miter" stroke-linecap="square" stroke-miterlimit="3"/><path d=" M 585 721.422 L 605 732.969 L 602.5 734.412 L 582.5 722.865 L 585 721.422 Z " fill="none" vector-effect="non-scaling-stroke" stroke-width="0.25" stroke="rgb(166,154,142)" stroke-linejoin="miter" stroke-linecap="square" stroke-miterlimit="3"/><path d=" M 605 732.969 L 625 744.516 L 622.5 745.959 L 602.5 734.412 L 605 732.969 Z " fill="none" vector-effect="non-scaling-stroke" stroke-width="0.25" stroke="rgb(166,154,142)" stroke-linejoin="miter" stroke-linecap="square" stroke-miterlimit="3"/><path d=" M 597.5 725.752 L 617.5 737.299 L 615 738.742 L 595 727.195 L 597.5 725.752 Z " fill="none" vector-effect="non-scaling-stroke" stroke-width="0.25" stroke="rgb(166,154,142)" stroke-linejoin="miter" stroke-linecap="square" stroke-miterlimit="3"/><path d=" M 625 744.516 L 627.5 743.073 L 617.5 737.299 L 615 738.742 L 625 744.516 Z " fill="none" vector-effect="non-scaling-stroke" stroke-width="0.25" stroke="rgb(166,154,142)" stroke-linejoin="miter" stroke-linecap="square" stroke-miterlimit="3"/><path d=" M 585 721.422 L 587.5 719.979 L 597.5 725.752 L 595 727.195 L 585 721.422 Z " fill="none" vector-effect="non-scaling-stroke" stroke-width="0.25" stroke="rgb(166,154,142)" stroke-linejoin="miter" stroke-linecap="square" stroke-miterlimit="3"/><path d=" M 590 718.535 L 610 730.082 L 607.5 731.526 L 587.5 719.979 L 590 718.535 Z " fill="none" vector-effect="non-scaling-stroke" stroke-width="0.25" stroke="rgb(166,154,142)" stroke-linejoin="miter" stroke-linecap="square" stroke-miterlimit="3"/><path d=" M 610 730.082 L 630 741.629 L 627.5 743.073 L 607.5 731.526 L 610 730.082 Z " fill="none" vector-effect="non-scaling-stroke" stroke-width="0.25" stroke="rgb(166,154,142)" stroke-linejoin="miter" stroke-linecap="square" stroke-miterlimit="3"/><path d=" M 602.5 722.865 L 622.5 734.412 L 620 735.856 L 600 724.309 L 602.5 722.865 Z " fill="none" vector-effect="non-scaling-stroke" stroke-width="0.25" stroke="rgb(166,154,142)" stroke-linejoin="miter" stroke-linecap="square" stroke-miterlimit="3"/><path d=" M 630 741.629 L 632.5 740.186 L 622.5 734.412 L 620 735.856 L 630 741.629 Z " fill="none" vector-effect="non-scaling-stroke" stroke-width="0.25" stroke="rgb(166,154,142)" stroke-linejoin="miter" stroke-linecap="square" stroke-miterlimit="3"/><path d=" M 590 718.535 L 592.5 717.092 L 602.5 722.865 L 600 724.309 L 590 718.535 Z " fill="none" vector-effect="non-scaling-stroke" stroke-width="0.25" stroke="rgb(166,154,142)" stroke-linejoin="miter" stroke-linecap="square" stroke-miterlimit="3"/><path d=" M 575 727.195 L 595 738.742 L 592.5 740.186 L 572.5 728.639 L 575 727.195 Z " fill="none" vector-effect="non-scaling-stroke" stroke-width="0.25" stroke="rgb(166,154,142)" stroke-linejoin="miter" stroke-linecap="square" stroke-miterlimit="3"/><path d=" M 595 738.742 L 615 750.289 L 612.5 751.733 L 592.5 740.186 L 595 738.742 Z " fill="none" vector-effect="non-scaling-stroke" stroke-width="0.25" stroke="rgb(166,154,142)" stroke-linejoin="miter" stroke-linecap="square" stroke-miterlimit="3"/><path d=" M 587.5 731.526 L 607.5 743.073 L 605 744.516 L 585 732.969 L 587.5 731.526 Z " fill="none" vector-effect="non-scaling-stroke" stroke-width="0.25" stroke="rgb(166,154,142)" stroke-linejoin="miter" stroke-linecap="square" stroke-miterlimit="3"/><path d=" M 615 750.289 L 617.5 748.846 L 607.5 743.073 L 605 744.516 L 615 750.289 Z " fill="none" vector-effect="non-scaling-stroke" stroke-width="0.25" stroke="rgb(166,154,142)" stroke-linejoin="miter" stroke-linecap="square" stroke-miterlimit="3"/><path d=" M 575 727.195 L 577.5 725.752 L 587.5 731.526 L 585 732.969 L 575 727.195 Z " fill="none" vector-effect="non-scaling-stroke" stroke-width="0.25" stroke="rgb(166,154,142)" stroke-linejoin="miter" stroke-linecap="square" stroke-miterlimit="3"/><path d=" M 580 724.309 L 600 735.856 L 597.5 737.299 L 577.5 725.752 L 580 724.309 Z " fill="none" vector-effect="non-scaling-stroke" stroke-width="0.25" stroke="rgb(166,154,142)" stroke-linejoin="miter" stroke-linecap="square" stroke-miterlimit="3"/><path d=" M 600 735.856 L 620 747.403 L 617.5 748.846 L 597.5 737.299 L 600 735.856 Z " fill="none" vector-effect="non-scaling-stroke" stroke-width="0.25" stroke="rgb(166,154,142)" stroke-linejoin="miter" stroke-linecap="square" stroke-miterlimit="3"/><path d=" M 592.5 728.639 L 612.5 740.186 L 610 741.629 L 590 730.082 L 592.5 728.639 Z " fill="none" vector-effect="non-scaling-stroke" stroke-width="0.25" stroke="rgb(166,154,142)" stroke-linejoin="miter" stroke-linecap="square" stroke-miterlimit="3"/><path d=" M 620 747.403 L 622.5 745.959 L 612.5 740.186 L 610 741.629 L 620 747.403 Z " fill="none" vector-effect="non-scaling-stroke" stroke-width="0.25" stroke="rgb(166,154,142)" stroke-linejoin="miter" stroke-linecap="square" stroke-miterlimit="3"/><path d=" M 580 724.309 L 582.5 722.865 L 592.5 728.639 L 590 730.082 L 580 724.309 Z " fill="none" vector-effect="non-scaling-stroke" stroke-width="0.25" stroke="rgb(166,154,142)" stroke-linejoin="miter" stroke-linecap="square" stroke-miterlimit="3"/><path d=" M 595 715.648 L 615 727.195 L 612.5 728.639 L 592.5 717.092 L 595 715.648 Z " fill="none" vector-effect="non-scaling-stroke" stroke-width="0.25" stroke="rgb(166,154,142)" stroke-linejoin="miter" stroke-linecap="square" stroke-miterlimit="3"/><path d=" M 615 727.195 L 635 738.742 L 632.5 740.186 L 612.5 728.639 L 615 727.195 Z " fill="none" vector-effect="non-scaling-stroke" stroke-width="0.25" stroke="rgb(166,154,142)" stroke-linejoin="miter" stroke-linecap="square" stroke-miterlimit="3"/><path d=" M 607.5 719.979 L 627.5 731.526 L 625 732.969 L 605 721.422 L 607.5 719.979 Z " fill="none" vector-effect="non-scaling-stroke" stroke-width="0.25" stroke="rgb(166,154,142)" stroke-linejoin="miter" stroke-linecap="square" stroke-miterlimit="3"/><path d=" M 635 738.742 L 637.5 737.299 L 627.5 731.526 L 625 732.969 L 635 738.742 Z " fill="none" vector-effect="non-scaling-stroke" stroke-width="0.25" stroke="rgb(166,154,142)" stroke-linejoin="miter" stroke-linecap="square" stroke-miterlimit="3"/><path d=" M 595 715.648 L 597.5 714.205 L 607.5 719.979 L 605 721.422 L 595 715.648 Z " fill="none" vector-effect="non-scaling-stroke" stroke-width="0.25" stroke="rgb(166,154,142)" stroke-linejoin="miter" stroke-linecap="square" stroke-miterlimit="3"/><path d=" M 600 712.762 L 620 724.309 L 617.5 725.752 L 597.5 714.205 L 600 712.762 Z " fill="none" vector-effect="non-scaling-stroke" stroke-width="0.25" stroke="rgb(166,154,142)" stroke-linejoin="miter" stroke-linecap="square" stroke-miterlimit="3"/><path d=" M 620 724.309 L 640 735.856 L 637.5 737.299 L 617.5 725.752 L 620 724.309 Z " fill="none" vector-effect="non-scaling-stroke" stroke-width="0.25" stroke="rgb(166,154,142)" stroke-linejoin="miter" stroke-linecap="square" stroke-miterlimit="3"/><path d=" M 612.5 717.092 L 632.5 728.639 L 630 730.082 L 610 718.535 L 612.5 717.092 Z " fill="none" vector-effect="non-scaling-stroke" stroke-width="0.25" stroke="rgb(166,154,142)" stroke-linejoin="miter" stroke-linecap="square" stroke-miterlimit="3"/><path d=" M 640 735.856 L 642.5 734.412 L 632.5 728.639 L 630 730.082 L 640 735.856 Z " fill="none" vector-effect="non-scaling-stroke" stroke-width="0.25" stroke="rgb(166,154,142)" stroke-linejoin="miter" stroke-linecap="square" stroke-miterlimit="3"/><path d=" M 600 712.762 L 602.5 711.318 L 612.5 717.092 L 610 718.535 L 600 712.762 Z " fill="none" vector-effect="non-scaling-stroke" stroke-width="0.25" stroke="rgb(166,154,142)" stroke-linejoin="miter" stroke-linecap="square" stroke-miterlimit="3"/><path d=" M 525 756.051 L 545 767.598 L 542.5 769.041 L 522.5 757.494 L 525 756.051 Z " fill="none" vector-effect="non-scaling-stroke" stroke-width="0.25" stroke="rgb(166,154,142)" stroke-linejoin="miter" stroke-linecap="square" stroke-miterlimit="3"/><path d=" M 545 767.598 L 565 779.145 L 562.5 780.588 L 542.5 769.041 L 545 767.598 Z " fill="none" vector-effect="non-scaling-stroke" stroke-width="0.25" stroke="rgb(166,154,142)" stroke-linejoin="miter" stroke-linecap="square" stroke-miterlimit="3"/><path d=" M 537.5 760.381 L 557.5 771.928 L 555 773.371 L 535 761.824 L 537.5 760.381 Z " fill="none" vector-effect="non-scaling-stroke" stroke-width="0.25" stroke="rgb(166,154,142)" stroke-linejoin="miter" stroke-linecap="square" stroke-miterlimit="3"/><path d=" M 565 779.145 L 567.5 777.701 L 557.5 771.928 L 555 773.371 L 565 779.145 Z " fill="none" vector-effect="non-scaling-stroke" stroke-width="0.25" stroke="rgb(166,154,142)" stroke-linejoin="miter" stroke-linecap="square" stroke-miterlimit="3"/><path d=" M 525 756.051 L 527.5 754.607 L 537.5 760.381 L 535 761.824 L 525 756.051 Z " fill="none" vector-effect="non-scaling-stroke" stroke-width="0.25" stroke="rgb(166,154,142)" stroke-linejoin="miter" stroke-linecap="square" stroke-miterlimit="3"/><path d=" M 530 753.164 L 550 764.711 L 547.5 766.154 L 527.5 754.607 L 530 753.164 Z " fill="none" vector-effect="non-scaling-stroke" stroke-width="0.25" stroke="rgb(166,154,142)" stroke-linejoin="miter" stroke-linecap="square" stroke-miterlimit="3"/><path d=" M 550 764.711 L 570 776.258 L 567.5 777.701 L 547.5 766.154 L 550 764.711 Z " fill="none" vector-effect="non-scaling-stroke" stroke-width="0.25" stroke="rgb(166,154,142)" stroke-linejoin="miter" stroke-linecap="square" stroke-miterlimit="3"/><path d=" M 542.5 757.494 L 562.5 769.041 L 560 770.484 L 540 758.937 L 542.5 757.494 Z " fill="none" vector-effect="non-scaling-stroke" stroke-width="0.25" stroke="rgb(166,154,142)" stroke-linejoin="miter" stroke-linecap="square" stroke-miterlimit="3"/><path d=" M 570 776.258 L 572.5 774.814 L 562.5 769.041 L 560 770.484 L 570 776.258 Z " fill="none" vector-effect="non-scaling-stroke" stroke-width="0.25" stroke="rgb(166,154,142)" stroke-linejoin="miter" stroke-linecap="square" stroke-miterlimit="3"/><path d=" M 530 753.164 L 532.5 751.72 L 542.5 757.494 L 540 758.937 L 530 753.164 Z " fill="none" vector-effect="non-scaling-stroke" stroke-width="0.25" stroke="rgb(166,154,142)" stroke-linejoin="miter" stroke-linecap="square" stroke-miterlimit="3"/><path d=" M 545 744.504 L 565 756.051 L 562.5 757.494 L 542.5 745.947 L 545 744.504 Z " fill="none" vector-effect="non-scaling-stroke" stroke-width="0.25" stroke="rgb(166,154,142)" stroke-linejoin="miter" stroke-linecap="square" stroke-miterlimit="3"/><path d=" M 565 756.051 L 585 767.598 L 582.5 769.041 L 562.5 757.494 L 565 756.051 Z " fill="none" vector-effect="non-scaling-stroke" stroke-width="0.25" stroke="rgb(166,154,142)" stroke-linejoin="miter" stroke-linecap="square" stroke-miterlimit="3"/><path d=" M 557.5 748.834 L 577.5 760.381 L 575 761.824 L 555 750.277 L 557.5 748.834 Z " fill="none" vector-effect="non-scaling-stroke" stroke-width="0.25" stroke="rgb(166,154,142)" stroke-linejoin="miter" stroke-linecap="square" stroke-miterlimit="3"/><path d=" M 585 767.598 L 587.5 766.154 L 577.5 760.381 L 575 761.824 L 585 767.598 Z " fill="none" vector-effect="non-scaling-stroke" stroke-width="0.25" stroke="rgb(166,154,142)" stroke-linejoin="miter" stroke-linecap="square" stroke-miterlimit="3"/><path d=" M 545 744.504 L 547.5 743.06 L 557.5 748.834 L 555 750.277 L 545 744.504 Z " fill="none" vector-effect="non-scaling-stroke" stroke-width="0.25" stroke="rgb(166,154,142)" stroke-linejoin="miter" stroke-linecap="square" stroke-miterlimit="3"/><path d=" M 550 741.617 L 570 753.164 L 567.5 754.607 L 547.5 743.06 L 550 741.617 Z " fill="none" vector-effect="non-scaling-stroke" stroke-width="0.25" stroke="rgb(166,154,142)" stroke-linejoin="miter" stroke-linecap="square" stroke-miterlimit="3"/><path d=" M 570 753.164 L 590 764.711 L 587.5 766.154 L 567.5 754.607 L 570 753.164 Z " fill="none" vector-effect="non-scaling-stroke" stroke-width="0.25" stroke="rgb(166,154,142)" stroke-linejoin="miter" stroke-linecap="square" stroke-miterlimit="3"/><path d=" M 562.5 745.947 L 582.5 757.494 L 580 758.937 L 560 747.39 L 562.5 745.947 Z " fill="none" vector-effect="non-scaling-stroke" stroke-width="0.25" stroke="rgb(166,154,142)" stroke-linejoin="miter" stroke-linecap="square" stroke-miterlimit="3"/><path d=" M 590 764.711 L 592.5 763.267 L 582.5 757.494 L 580 758.937 L 590 764.711 Z " fill="none" vector-effect="non-scaling-stroke" stroke-width="0.25" stroke="rgb(166,154,142)" stroke-linejoin="miter" stroke-linecap="square" stroke-miterlimit="3"/><path d=" M 550 741.617 L 552.5 740.173 L 562.5 745.947 L 560 747.39 L 550 741.617 Z " fill="none" vector-effect="non-scaling-stroke" stroke-width="0.25" stroke="rgb(166,154,142)" stroke-linejoin="miter" stroke-linecap="square" stroke-miterlimit="3"/><path d=" M 535 750.277 L 555 761.824 L 552.5 763.267 L 532.5 751.72 L 535 750.277 Z " fill="none" vector-effect="non-scaling-stroke" stroke-width="0.25" stroke="rgb(166,154,142)" stroke-linejoin="miter" stroke-linecap="square" stroke-miterlimit="3"/><path d=" M 555 761.824 L 575 773.371 L 572.5 774.814 L 552.5 763.267 L 555 761.824 Z " fill="none" vector-effect="non-scaling-stroke" stroke-width="0.25" stroke="rgb(166,154,142)" stroke-linejoin="miter" stroke-linecap="square" stroke-miterlimit="3"/><path d=" M 547.5 754.607 L 567.5 766.154 L 565 767.598 L 545 756.051 L 547.5 754.607 Z " fill="none" vector-effect="non-scaling-stroke" stroke-width="0.25" stroke="rgb(166,154,142)" stroke-linejoin="miter" stroke-linecap="square" stroke-miterlimit="3"/><path d=" M 575 773.371 L 577.5 771.928 L 567.5 766.154 L 565 767.598 L 575 773.371 Z " fill="none" vector-effect="non-scaling-stroke" stroke-width="0.25" stroke="rgb(166,154,142)" stroke-linejoin="miter" stroke-linecap="square" stroke-miterlimit="3"/><path d=" M 535 750.277 L 537.5 748.834 L 547.5 754.607 L 545 756.051 L 535 750.277 Z " fill="none" vector-effect="non-scaling-stroke" stroke-width="0.25" stroke="rgb(166,154,142)" stroke-linejoin="miter" stroke-linecap="square" stroke-miterlimit="3"/><path d=" M 540 747.39 L 560 758.937 L 557.5 760.381 L 537.5 748.834 L 540 747.39 Z " fill="none" vector-effect="non-scaling-stroke" stroke-width="0.25" stroke="rgb(166,154,142)" stroke-linejoin="miter" stroke-linecap="square" stroke-miterlimit="3"/><path d=" M 560 758.937 L 580 770.484 L 577.5 771.928 L 557.5 760.381 L 560 758.937 Z " fill="none" vector-effect="non-scaling-stroke" stroke-width="0.25" stroke="rgb(166,154,142)" stroke-linejoin="miter" stroke-linecap="square" stroke-miterlimit="3"/><path d=" M 552.5 751.72 L 572.5 763.267 L 570 764.711 L 550 753.164 L 552.5 751.72 Z " fill="none" vector-effect="non-scaling-stroke" stroke-width="0.25" stroke="rgb(166,154,142)" stroke-linejoin="miter" stroke-linecap="square" stroke-miterlimit="3"/><path d=" M 580 770.484 L 582.5 769.041 L 572.5 763.267 L 570 764.711 L 580 770.484 Z " fill="none" vector-effect="non-scaling-stroke" stroke-width="0.25" stroke="rgb(166,154,142)" stroke-linejoin="miter" stroke-linecap="square" stroke-miterlimit="3"/><path d=" M 540 747.39 L 542.5 745.947 L 552.5 751.72 L 550 753.164 L 540 747.39 Z " fill="none" vector-effect="non-scaling-stroke" stroke-width="0.25" stroke="rgb(166,154,142)" stroke-linejoin="miter" stroke-linecap="square" stroke-miterlimit="3"/><path d=" M 555 738.73 L 575 750.277 L 572.5 751.72 L 552.5 740.173 L 555 738.73 Z " fill="none" vector-effect="non-scaling-stroke" stroke-width="0.25" stroke="rgb(166,154,142)" stroke-linejoin="miter" stroke-linecap="square" stroke-miterlimit="3"/><path d=" M 575 750.277 L 595 761.824 L 592.5 763.267 L 572.5 751.72 L 575 750.277 Z " fill="none" vector-effect="non-scaling-stroke" stroke-width="0.25" stroke="rgb(166,154,142)" stroke-linejoin="miter" stroke-linecap="square" stroke-miterlimit="3"/><path d=" M 567.5 743.06 L 587.5 754.607 L 585 756.051 L 565 744.504 L 567.5 743.06 Z " fill="none" vector-effect="non-scaling-stroke" stroke-width="0.25" stroke="rgb(166,154,142)" stroke-linejoin="miter" stroke-linecap="square" stroke-miterlimit="3"/><path d=" M 595 761.824 L 597.5 760.381 L 587.5 754.607 L 585 756.051 L 595 761.824 Z " fill="none" vector-effect="non-scaling-stroke" stroke-width="0.25" stroke="rgb(166,154,142)" stroke-linejoin="miter" stroke-linecap="square" stroke-miterlimit="3"/><path d=" M 555 738.73 L 557.5 737.287 L 567.5 743.06 L 565 744.504 L 555 738.73 Z " fill="none" vector-effect="non-scaling-stroke" stroke-width="0.25" stroke="rgb(166,154,142)" stroke-linejoin="miter" stroke-linecap="square" stroke-miterlimit="3"/><path d=" M 560 735.843 L 580 747.39 L 577.5 748.834 L 557.5 737.287 L 560 735.843 Z " fill="none" vector-effect="non-scaling-stroke" stroke-width="0.25" stroke="rgb(166,154,142)" stroke-linejoin="miter" stroke-linecap="square" stroke-miterlimit="3"/><path d=" M 580 747.39 L 600 758.937 L 597.5 760.381 L 577.5 748.834 L 580 747.39 Z " fill="none" vector-effect="non-scaling-stroke" stroke-width="0.25" stroke="rgb(166,154,142)" stroke-linejoin="miter" stroke-linecap="square" stroke-miterlimit="3"/><path d=" M 572.5 740.173 L 592.5 751.72 L 590 753.164 L 570 741.617 L 572.5 740.173 Z " fill="none" vector-effect="non-scaling-stroke" stroke-width="0.25" stroke="rgb(166,154,142)" stroke-linejoin="miter" stroke-linecap="square" stroke-miterlimit="3"/><path d=" M 600 758.937 L 602.5 757.494 L 592.5 751.72 L 590 753.164 L 600 758.937 Z " fill="none" vector-effect="non-scaling-stroke" stroke-width="0.25" stroke="rgb(166,154,142)" stroke-linejoin="miter" stroke-linecap="square" stroke-miterlimit="3"/><path d=" M 560 735.843 L 562.5 734.4 L 572.5 740.173 L 570 741.617 L 560 735.843 Z " fill="none" vector-effect="non-scaling-stroke" stroke-width="0.25" stroke="rgb(166,154,142)" stroke-linejoin="miter" stroke-linecap="square" stroke-miterlimit="3"/><path d=" M 605 709.875 L 625 721.422 L 622.5 722.865 L 602.5 711.318 L 605 709.875 Z " fill="none" vector-effect="non-scaling-stroke" stroke-width="0.25" stroke="rgb(166,154,142)" stroke-linejoin="miter" stroke-linecap="square" stroke-miterlimit="3"/><path d=" M 625 721.422 L 645 732.969 L 642.5 734.412 L 622.5 722.865 L 625 721.422 Z " fill="none" vector-effect="non-scaling-stroke" stroke-width="0.25" stroke="rgb(166,154,142)" stroke-linejoin="miter" stroke-linecap="square" stroke-miterlimit="3"/><path d=" M 617.5 714.205 L 637.5 725.752 L 635 727.195 L 615 715.648 L 617.5 714.205 Z " fill="none" vector-effect="non-scaling-stroke" stroke-width="0.25" stroke="rgb(166,154,142)" stroke-linejoin="miter" stroke-linecap="square" stroke-miterlimit="3"/><path d=" M 645 732.969 L 647.5 731.526 L 637.5 725.752 L 635 727.195 L 645 732.969 Z " fill="none" vector-effect="non-scaling-stroke" stroke-width="0.25" stroke="rgb(166,154,142)" stroke-linejoin="miter" stroke-linecap="square" stroke-miterlimit="3"/><path d=" M 605 709.875 L 607.5 708.432 L 617.5 714.205 L 615 715.648 L 605 709.875 Z " fill="none" vector-effect="non-scaling-stroke" stroke-width="0.25" stroke="rgb(166,154,142)" stroke-linejoin="miter" stroke-linecap="square" stroke-miterlimit="3"/><path d=" M 610 706.988 L 630 718.535 L 627.5 719.979 L 607.5 708.432 L 610 706.988 Z " fill="none" vector-effect="non-scaling-stroke" stroke-width="0.25" stroke="rgb(166,154,142)" stroke-linejoin="miter" stroke-linecap="square" stroke-miterlimit="3"/><path d=" M 630 718.535 L 650 730.082 L 647.5 731.526 L 627.5 719.979 L 630 718.535 Z " fill="none" vector-effect="non-scaling-stroke" stroke-width="0.25" stroke="rgb(166,154,142)" stroke-linejoin="miter" stroke-linecap="square" stroke-miterlimit="3"/><path d=" M 622.5 711.318 L 642.5 722.865 L 640 724.309 L 620 712.762 L 622.5 711.318 Z " fill="none" vector-effect="non-scaling-stroke" stroke-width="0.25" stroke="rgb(166,154,142)" stroke-linejoin="miter" stroke-linecap="square" stroke-miterlimit="3"/><path d=" M 650 730.082 L 652.5 728.639 L 642.5 722.865 L 640 724.309 L 650 730.082 Z " fill="none" vector-effect="non-scaling-stroke" stroke-width="0.25" stroke="rgb(166,154,142)" stroke-linejoin="miter" stroke-linecap="square" stroke-miterlimit="3"/><path d=" M 610 706.988 L 612.5 705.545 L 622.5 711.318 L 620 712.762 L 610 706.988 Z " fill="none" vector-effect="non-scaling-stroke" stroke-width="0.25" stroke="rgb(166,154,142)" stroke-linejoin="miter" stroke-linecap="square" stroke-miterlimit="3"/><path d=" M 625 698.328 L 645 709.875 L 642.5 711.318 L 622.5 699.771 L 625 698.328 Z " fill="none" vector-effect="non-scaling-stroke" stroke-width="0.25" stroke="rgb(166,154,142)" stroke-linejoin="miter" stroke-linecap="square" stroke-miterlimit="3"/><path d=" M 645 709.875 L 665 721.422 L 662.5 722.865 L 642.5 711.318 L 645 709.875 Z " fill="none" vector-effect="non-scaling-stroke" stroke-width="0.25" stroke="rgb(166,154,142)" stroke-linejoin="miter" stroke-linecap="square" stroke-miterlimit="3"/><path d=" M 637.5 702.658 L 657.5 714.205 L 655 715.648 L 635 704.101 L 637.5 702.658 Z " fill="none" vector-effect="non-scaling-stroke" stroke-width="0.25" stroke="rgb(166,154,142)" stroke-linejoin="miter" stroke-linecap="square" stroke-miterlimit="3"/><path d=" M 665 721.422 L 667.5 719.979 L 657.5 714.205 L 655 715.648 L 665 721.422 Z " fill="none" vector-effect="non-scaling-stroke" stroke-width="0.25" stroke="rgb(166,154,142)" stroke-linejoin="miter" stroke-linecap="square" stroke-miterlimit="3"/><path d=" M 625 698.328 L 627.5 696.885 L 637.5 702.658 L 635 704.101 L 625 698.328 Z " fill="none" vector-effect="non-scaling-stroke" stroke-width="0.25" stroke="rgb(166,154,142)" stroke-linejoin="miter" stroke-linecap="square" stroke-miterlimit="3"/><path d=" M 630 695.441 L 650 706.988 L 647.5 708.432 L 627.5 696.885 L 630 695.441 Z " fill="none" vector-effect="non-scaling-stroke" stroke-width="0.25" stroke="rgb(166,154,142)" stroke-linejoin="miter" stroke-linecap="square" stroke-miterlimit="3"/><path d=" M 650 706.988 L 670 718.535 L 667.5 719.979 L 647.5 708.432 L 650 706.988 Z " fill="none" vector-effect="non-scaling-stroke" stroke-width="0.25" stroke="rgb(166,154,142)" stroke-linejoin="miter" stroke-linecap="square" stroke-miterlimit="3"/><path d=" M 642.5 699.771 L 662.5 711.318 L 660 712.762 L 640 701.215 L 642.5 699.771 Z " fill="none" vector-effect="non-scaling-stroke" stroke-width="0.25" stroke="rgb(166,154,142)" stroke-linejoin="miter" stroke-linecap="square" stroke-miterlimit="3"/><path d=" M 670 718.535 L 672.5 717.092 L 662.5 711.318 L 660 712.762 L 670 718.535 Z " fill="none" vector-effect="non-scaling-stroke" stroke-width="0.25" stroke="rgb(166,154,142)" stroke-linejoin="miter" stroke-linecap="square" stroke-miterlimit="3"/><path d=" M 630 695.441 L 632.5 693.998 L 642.5 699.771 L 640 701.215 L 630 695.441 Z " fill="none" vector-effect="non-scaling-stroke" stroke-width="0.25" stroke="rgb(166,154,142)" stroke-linejoin="miter" stroke-linecap="square" stroke-miterlimit="3"/><path d=" M 615 704.101 L 635 715.648 L 632.5 717.092 L 612.5 705.545 L 615 704.101 Z " fill="none" vector-effect="non-scaling-stroke" stroke-width="0.25" stroke="rgb(166,154,142)" stroke-linejoin="miter" stroke-linecap="square" stroke-miterlimit="3"/><path d=" M 635 715.648 L 655 727.195 L 652.5 728.639 L 632.5 717.092 L 635 715.648 Z " fill="none" vector-effect="non-scaling-stroke" stroke-width="0.25" stroke="rgb(166,154,142)" stroke-linejoin="miter" stroke-linecap="square" stroke-miterlimit="3"/><path d=" M 627.5 708.432 L 647.5 719.979 L 645 721.422 L 625 709.875 L 627.5 708.432 Z " fill="none" vector-effect="non-scaling-stroke" stroke-width="0.25" stroke="rgb(166,154,142)" stroke-linejoin="miter" stroke-linecap="square" stroke-miterlimit="3"/><path d=" M 655 727.195 L 657.5 725.752 L 647.5 719.979 L 645 721.422 L 655 727.195 Z " fill="none" vector-effect="non-scaling-stroke" stroke-width="0.25" stroke="rgb(166,154,142)" stroke-linejoin="miter" stroke-linecap="square" stroke-miterlimit="3"/><path d=" M 615 704.101 L 617.5 702.658 L 627.5 708.432 L 625 709.875 L 615 704.101 Z " fill="none" vector-effect="non-scaling-stroke" stroke-width="0.25" stroke="rgb(166,154,142)" stroke-linejoin="miter" stroke-linecap="square" stroke-miterlimit="3"/><path d=" M 620 701.215 L 640 712.762 L 637.5 714.205 L 617.5 702.658 L 620 701.215 Z " fill="none" vector-effect="non-scaling-stroke" stroke-width="0.25" stroke="rgb(166,154,142)" stroke-linejoin="miter" stroke-linecap="square" stroke-miterlimit="3"/><path d=" M 640 712.762 L 660 724.309 L 657.5 725.752 L 637.5 714.205 L 640 712.762 Z " fill="none" vector-effect="non-scaling-stroke" stroke-width="0.25" stroke="rgb(166,154,142)" stroke-linejoin="miter" stroke-linecap="square" stroke-miterlimit="3"/><path d=" M 632.5 705.545 L 652.5 717.092 L 650 718.535 L 630 706.988 L 632.5 705.545 Z " fill="none" vector-effect="non-scaling-stroke" stroke-width="0.25" stroke="rgb(166,154,142)" stroke-linejoin="miter" stroke-linecap="square" stroke-miterlimit="3"/><path d=" M 660 724.309 L 662.5 722.865 L 652.5 717.092 L 650 718.535 L 660 724.309 Z " fill="none" vector-effect="non-scaling-stroke" stroke-width="0.25" stroke="rgb(166,154,142)" stroke-linejoin="miter" stroke-linecap="square" stroke-miterlimit="3"/><path d=" M 620 701.215 L 622.5 699.771 L 632.5 705.545 L 630 706.988 L 620 701.215 Z " fill="none" vector-effect="non-scaling-stroke" stroke-width="0.25" stroke="rgb(166,154,142)" stroke-linejoin="miter" stroke-linecap="square" stroke-miterlimit="3"/><path d=" M 635 692.554 L 655 704.101 L 652.5 705.545 L 632.5 693.998 L 635 692.554 Z " fill="none" vector-effect="non-scaling-stroke" stroke-width="0.25" stroke="rgb(166,154,142)" stroke-linejoin="miter" stroke-linecap="square" stroke-miterlimit="3"/><path d=" M 655 704.101 L 675 715.648 L 672.5 717.092 L 652.5 705.545 L 655 704.101 Z " fill="none" vector-effect="non-scaling-stroke" stroke-width="0.25" stroke="rgb(166,154,142)" stroke-linejoin="miter" stroke-linecap="square" stroke-miterlimit="3"/><path d=" M 647.5 696.885 L 667.5 708.432 L 665 709.875 L 645 698.328 L 647.5 696.885 Z " fill="none" vector-effect="non-scaling-stroke" stroke-width="0.25" stroke="rgb(166,154,142)" stroke-linejoin="miter" stroke-linecap="square" stroke-miterlimit="3"/><path d=" M 675 715.648 L 677.5 714.205 L 667.5 708.432 L 665 709.875 L 675 715.648 Z " fill="none" vector-effect="non-scaling-stroke" stroke-width="0.25" stroke="rgb(166,154,142)" stroke-linejoin="miter" stroke-linecap="square" stroke-miterlimit="3"/><path d=" M 635 692.554 L 637.5 691.111 L 647.5 696.885 L 645 698.328 L 635 692.554 Z " fill="none" vector-effect="non-scaling-stroke" stroke-width="0.25" stroke="rgb(166,154,142)" stroke-linejoin="miter" stroke-linecap="square" stroke-miterlimit="3"/><path d=" M 522.5 818.116 L 522.5 821.002 L 702.5 717.079 L 702.5 714.193 L 522.5 818.116 Z " fill="rgb(209,209,209)"/><path d=" M 522.5 823.889 L 522.5 826.776 L 705 721.41 L 705 718.498 L 522.5 823.889 Z " fill="rgb(209,209,209)"/><path d=" M 522.5 829.663 L 522.5 832.549 L 707.5 725.74 L 707.5 722.853 L 522.5 829.663 Z " fill="rgb(209,209,209)"/><path d=" M 522.5 821.002 L 522.5 823.889 L 705 718.523 L 702.5 717.079 L 522.5 821.002 Z " fill="rgb(244,244,244)"/><path d=" M 522.5 826.776 L 522.5 829.663 L 707.5 722.853 L 705 721.41 L 522.5 826.776 Z " fill="rgb(244,244,244)"/><path d=" M 522.5 821.015 L 522.5 818.128 L 285 681.007 L 285 683.894 L 522.5 821.015 Z " fill="rgb(162,162,162)"/><path d=" M 522.5 823.902 L 522.5 821.015 L 285 683.894 L 282.5 685.338 L 522.5 823.902 Z " fill="rgb(209,209,209)"/><path d=" M 522.5 826.788 L 282.5 688.224 L 282.5 685.338 L 522.5 823.902 L 522.5 826.788 Z " fill="rgb(162,162,162)"/><path d=" M 522.5 829.675 L 280 689.668 L 282.5 688.224 L 522.5 826.788 L 522.5 829.675 Z " fill="rgb(209,209,209)"/><path d=" M 522.5 832.562 L 280 692.554 L 280 689.668 L 522.5 829.675 L 522.5 832.562 Z " fill="rgb(162,162,162)"/><path d=" M 487.5 783.475 L 492.5 780.588 L 492.5 777.701 L 487.5 780.588 L 487.5 783.475 Z " fill="rgb(209,209,209)"/><g id="Group"><path d=" M 517.5 800.795 L 522.5 797.908 L 522.5 795.022 L 517.5 797.908 L 517.5 800.795 Z " fill="rgb(209,209,209)"/></g><path d=" M 517.5 797.908 L 487.5 780.588 L 487.5 783.475 L 517.5 800.795 L 517.5 797.908 Z " fill="rgb(162,162,162)"/><path d=" M 522.5 795.022 L 492.5 777.701 L 487.5 780.588 L 517.5 797.908 L 522.5 795.022 Z " fill="rgb(244,244,244)"/><g id="Group"><path d=" M 552.5 786.361 L 547.5 783.475 L 547.5 780.588 L 552.5 783.475 L 552.5 786.361 Z " fill="rgb(162,162,162)"/></g><path d=" M 552.5 783.475 L 582.5 766.154 L 582.5 769.041 L 552.5 786.361 L 552.5 783.475 Z " fill="rgb(209,209,209)"/><path d=" M 547.5 780.588 L 577.5 763.267 L 582.5 766.154 L 552.5 783.475 L 547.5 780.588 Z " fill="rgb(244,244,244)"/><g id="Group"><path d=" M 617.5 748.834 L 612.5 745.947 L 612.5 743.06 L 617.5 745.947 L 617.5 748.834 Z " fill="rgb(162,162,162)"/></g><path d=" M 617.5 745.947 L 647.5 728.626 L 647.5 731.513 L 617.5 748.834 L 617.5 745.947 Z " fill="rgb(209,209,209)"/><path d=" M 612.5 743.06 L 642.5 725.74 L 647.5 728.626 L 617.5 745.947 L 612.5 743.06 Z " fill="rgb(244,244,244)"/><g id="Group"><path d=" M 667.5 714.193 L 672.5 711.306 L 672.5 708.419 L 667.5 711.306 L 667.5 714.193 Z " fill="rgb(209,209,209)"/></g><path d=" M 667.5 711.306 L 637.5 693.985 L 637.5 696.872 L 667.5 714.193 L 667.5 711.306 Z " fill="rgb(162,162,162)"/><path d=" M 672.5 708.419 L 642.5 691.099 L 637.5 693.985 L 667.5 711.306 L 672.5 708.419 Z " fill="rgb(244,244,244)"/><path d=" M 505 779.145 L 525 790.692 L 530 787.805 L 510 776.258 L 505 779.145 Z " fill="rgb(30,29,28)"/><path d=" M 567.5 743.06 L 587.5 754.607 L 592.5 751.72 L 572.5 740.173 L 567.5 743.06 Z " fill="rgb(30,29,28)"/><path d=" M 630 706.976 L 650 718.523 L 655 715.636 L 635 704.089 L 630 706.976 Z " fill="rgb(30,29,28)"/><g id="Group"><g id="Group"><linearGradient id="_lgradient_160" x1="2.5000000000048304%" y1="68.48798940194455%" x2="100.00000000000426%" y2="46.11566647085249%"><stop offset="0%" stop-opacity="1" style="stop-color:rgb(51,39,22)"/><stop offset="100%" stop-opacity="1" style="stop-color:rgb(96,61,22)"/></linearGradient><path d=" M 570.833 743.338 C 570.833 743.87 571.58 744.301 572.5 744.301 C 573.42 744.301 574.167 743.87 574.167 743.338 L 574.167 735.64 L 570.833 735.64 L 570.833 743.338 Z " fill="url(#_lgradient_160)"/><linearGradient id="_lgradient_161" x1="4.166666666666788%" y1="67.60455294605876%" x2="96.66666666666649%" y2="30.489178498154217%"><stop offset="0%" stop-opacity="1" style="stop-color:rgb(0,86,74)"/><stop offset="100%" stop-opacity="1" style="stop-color:rgb(22,157,101)"/></linearGradient><path d=" M 562.5 723.537 C 562.5 716.102 566.981 710.065 572.5 710.065 C 578.019 710.065 582.5 716.102 582.5 723.537 C 582.5 730.972 578.019 737.008 572.5 737.008 C 566.981 737.008 562.5 730.972 562.5 723.537 Z " fill="url(#_lgradient_161)"/></g><g id="Group"><linearGradient id="_lgradient_162" x1="2.5000000000048304%" y1="68.48798940194455%" x2="100.00000000000426%" y2="46.11566647085249%"><stop offset="0%" stop-opacity="1" style="stop-color:rgb(51,39,22)"/><stop offset="100%" stop-opacity="1" style="stop-color:rgb(96,61,22)"/></linearGradient><path d=" M 585.833 751.999 C 585.833 752.53 586.58 752.961 587.5 752.961 C 588.42 752.961 589.167 752.53 589.167 751.999 L 589.167 744.301 L 585.833 744.301 L 585.833 751.999 Z " fill="url(#_lgradient_162)"/><linearGradient id="_lgradient_163" x1="4.166666666666788%" y1="67.60455294605876%" x2="96.66666666666649%" y2="30.489178498154217%"><stop offset="0%" stop-opacity="1" style="stop-color:rgb(0,86,74)"/><stop offset="100%" stop-opacity="1" style="stop-color:rgb(22,157,101)"/></linearGradient><path d=" M 577.5 732.197 C 577.5 724.762 581.981 718.726 587.5 718.726 C 593.019 718.726 597.5 724.762 597.5 732.197 C 597.5 739.632 593.019 745.669 587.5 745.669 C 581.981 745.669 577.5 739.632 577.5 732.197 Z " fill="url(#_lgradient_163)"/></g></g><g id="Group"><g id="Group"><linearGradient id="_lgradient_164" x1="2.5000000000048304%" y1="68.48798940194455%" x2="100.00000000000426%" y2="46.11566647085249%"><stop offset="0%" stop-opacity="1" style="stop-color:rgb(51,39,22)"/><stop offset="100%" stop-opacity="1" style="stop-color:rgb(96,61,22)"/></linearGradient><path d=" M 508.333 779.423 C 508.333 779.954 509.08 780.385 510 780.385 C 510.92 780.385 511.667 779.954 511.667 779.423 L 511.667 771.725 L 508.333 771.725 L 508.333 779.423 Z " fill="url(#_lgradient_164)"/><linearGradient id="_lgradient_165" x1="4.166666666666788%" y1="67.60455294605876%" x2="96.66666666666649%" y2="30.489178498154217%"><stop offset="0%" stop-opacity="1" style="stop-color:rgb(0,86,74)"/><stop offset="100%" stop-opacity="1" style="stop-color:rgb(22,157,101)"/></linearGradient><path d=" M 500 759.621 C 500 752.186 504.481 746.15 510 746.15 C 515.519 746.15 520 752.186 520 759.621 C 520 767.056 515.519 773.093 510 773.093 C 504.481 773.093 500 767.056 500 759.621 Z " fill="url(#_lgradient_165)"/></g><g id="Group"><linearGradient id="_lgradient_166" x1="2.5000000000048304%" y1="68.48798940194455%" x2="100.00000000000426%" y2="46.11566647085249%"><stop offset="0%" stop-opacity="1" style="stop-color:rgb(51,39,22)"/><stop offset="100%" stop-opacity="1" style="stop-color:rgb(96,61,22)"/></linearGradient><path d=" M 523.333 788.083 C 523.333 788.614 524.08 789.045 525 789.045 C 525.92 789.045 526.667 788.614 526.667 788.083 L 526.667 780.385 L 523.333 780.385 L 523.333 788.083 Z " fill="url(#_lgradient_166)"/><linearGradient id="_lgradient_167" x1="4.166666666666788%" y1="67.60455294605876%" x2="96.66666666666649%" y2="30.489178498154217%"><stop offset="0%" stop-opacity="1" style="stop-color:rgb(0,86,74)"/><stop offset="100%" stop-opacity="1" style="stop-color:rgb(22,157,101)"/></linearGradient><path d=" M 515 768.281 C 515 760.846 519.481 754.81 525 754.81 C 530.519 754.81 535 760.846 535 768.281 C 535 775.717 530.519 781.753 525 781.753 C 519.481 781.753 515 775.717 515 768.281 Z " fill="url(#_lgradient_167)"/></g></g><g id="Group"><path d=" M 542.406 763.267 L 552.406 769.041 L 557.406 766.154 L 547.406 760.381 L 542.406 763.267 Z " fill="rgb(30,29,28)"/><g id="Group"><g id="Group"><linearGradient id="_lgradient_168" x1="2.5000000000048304%" y1="68.48798940194455%" x2="100.00000000000426%" y2="46.11566647085249%"><stop offset="0%" stop-opacity="1" style="stop-color:rgb(51,39,22)"/><stop offset="100%" stop-opacity="1" style="stop-color:rgb(96,61,22)"/></linearGradient><path d=" M 548.24 764.711 C 548.24 765.242 548.986 765.673 549.906 765.673 C 550.826 765.673 551.573 765.242 551.573 764.711 L 551.573 757.013 L 548.24 757.013 L 548.24 764.711 Z " fill="url(#_lgradient_168)"/><linearGradient id="_lgradient_169" x1="4.166666666666788%" y1="67.60455294605876%" x2="96.66666666666649%" y2="30.489178498154217%"><stop offset="0%" stop-opacity="1" style="stop-color:rgb(0,86,74)"/><stop offset="100%" stop-opacity="1" style="stop-color:rgb(22,157,101)"/></linearGradient><path d=" M 539.906 744.909 C 539.906 737.474 544.387 731.438 549.906 731.438 C 555.425 731.438 559.906 737.474 559.906 744.909 C 559.906 752.344 555.425 758.381 549.906 758.381 C 544.387 758.381 539.906 752.344 539.906 744.909 Z " fill="url(#_lgradient_169)"/></g></g></g><path d=" M 605 727.189 L 615 732.962 L 620 730.076 L 610 724.302 L 605 727.189 Z " fill="rgb(30,29,28)"/><g id="Group"><g id="Group"><linearGradient id="_lgradient_170" x1="2.5000000000048304%" y1="68.48798940194455%" x2="100.00000000000426%" y2="46.11566647085249%"><stop offset="0%" stop-opacity="1" style="stop-color:rgb(51,39,22)"/><stop offset="100%" stop-opacity="1" style="stop-color:rgb(96,61,22)"/></linearGradient><path d=" M 610.833 728.746 C 610.833 729.277 611.58 729.708 612.5 729.708 C 613.42 729.708 614.167 729.277 614.167 728.746 L 614.167 721.048 L 610.833 721.048 L 610.833 728.746 Z " fill="url(#_lgradient_170)"/><linearGradient id="_lgradient_171" x1="4.166666666666788%" y1="67.60455294605876%" x2="96.66666666666649%" y2="30.489178498154217%"><stop offset="0%" stop-opacity="1" style="stop-color:rgb(0,86,74)"/><stop offset="100%" stop-opacity="1" style="stop-color:rgb(22,157,101)"/></linearGradient><path d=" M 602.5 708.944 C 602.5 701.509 606.981 695.472 612.5 695.472 C 618.019 695.472 622.5 701.509 622.5 708.944 C 622.5 716.379 618.019 722.415 612.5 722.415 C 606.981 722.415 602.5 716.379 602.5 708.944 Z " fill="url(#_lgradient_171)"/></g></g><g id="Group"><g id="Group"><linearGradient id="_lgradient_172" x1="2.5000000000048304%" y1="68.48798940194455%" x2="100.00000000000426%" y2="46.11566647085249%"><stop offset="0%" stop-opacity="1" style="stop-color:rgb(51,39,22)"/><stop offset="100%" stop-opacity="1" style="stop-color:rgb(96,61,22)"/></linearGradient><path d=" M 633.333 707.254 C 633.333 707.785 634.08 708.216 635 708.216 C 635.92 708.216 636.667 707.785 636.667 707.254 L 636.667 699.556 L 633.333 699.556 L 633.333 707.254 Z " fill="url(#_lgradient_172)"/><linearGradient id="_lgradient_173" x1="4.166666666666788%" y1="67.60455294605876%" x2="96.66666666666649%" y2="30.489178498154217%"><stop offset="0%" stop-opacity="1" style="stop-color:rgb(0,86,74)"/><stop offset="100%" stop-opacity="1" style="stop-color:rgb(22,157,101)"/></linearGradient><path d=" M 625 687.452 C 625 680.017 629.481 673.981 635 673.981 C 640.519 673.981 645 680.017 645 687.452 C 645 694.888 640.519 700.924 635 700.924 C 629.481 700.924 625 694.888 625 687.452 Z " fill="url(#_lgradient_173)"/></g><g id="Group"><linearGradient id="_lgradient_174" x1="2.5000000000048304%" y1="68.48798940194455%" x2="100.00000000000426%" y2="46.11566647085249%"><stop offset="0%" stop-opacity="1" style="stop-color:rgb(51,39,22)"/><stop offset="100%" stop-opacity="1" style="stop-color:rgb(96,61,22)"/></linearGradient><path d=" M 648.333 715.914 C 648.333 716.445 649.08 716.877 650 716.877 C 650.92 716.877 651.667 716.445 651.667 715.914 L 651.667 708.216 L 648.333 708.216 L 648.333 715.914 Z " fill="url(#_lgradient_174)"/><linearGradient id="_lgradient_175" x1="4.166666666666788%" y1="67.60455294605876%" x2="96.66666666666649%" y2="30.489178498154217%"><stop offset="0%" stop-opacity="1" style="stop-color:rgb(0,86,74)"/><stop offset="100%" stop-opacity="1" style="stop-color:rgb(22,157,101)"/></linearGradient><path d=" M 640 696.113 C 640 688.678 644.481 682.641 650 682.641 C 655.519 682.641 660 688.678 660 696.113 C 660 703.548 655.519 709.584 650 709.584 C 644.481 709.584 640 703.548 640 696.113 Z " fill="url(#_lgradient_175)"/></g></g><path d=" M 255 689.655 L 255 692.542 L 522.5 846.983 L 522.5 844.096 L 255 689.655 Z " fill="rgb(162,162,162)"/><path d=" M 727.5 725.74 L 727.5 728.626 L 522.5 846.983 L 522.5 844.096 L 727.5 725.74 Z " fill="rgb(209,209,209)"/></g></svg>