<?xml version="1.0" standalone="no"?><!-- Generator: Gravit.io --><svg xmlns="http://www.w3.org/2000/svg" xmlns:xlink="http://www.w3.org/1999/xlink" style="isolation:isolate" viewBox="721 976.451 310 118.357" width="310" height="118.357"><g id="Group"><path d=" M 876 1080.374 L 1026 993.772 L 1011 985.112 L 876 1063.054 L 741 985.112 L 726 993.772 L 876 1080.374 Z " fill="rgb(240,194,178)"/><path d=" M 876 1091.921 L 876 1080.374 L 1026 993.772 L 1026 1005.319 L 876 1091.921 Z " fill="rgb(238,174,145)"/><path d=" M 876 1091.921 L 726 1005.319 L 726 993.772 L 876 1080.374 L 876 1091.921 Z " fill="rgb(206,154,137)"/><path d=" M 876 1083.261 L 876 1089.035 L 1031 999.545 L 1026 996.659 L 876 1083.261 Z " fill="rgb(240,194,178)"/><path d=" M 876 1094.808 L 876 1089.035 L 1031 999.545 L 1031 1005.319 L 876 1094.808 Z " fill="rgb(238,174,145)"/><path d=" M 876 1089.035 L 876 1083.261 L 726 996.659 L 721 999.545 L 876 1089.035 Z " fill="rgb(240,194,178)"/><path d=" M 721 999.545 L 721 1005.319 L 876 1094.808 L 876 1089.035 L 721 999.545 Z " fill="rgb(206,154,137)"/><path d=" M 923.5 1029.856 L 958.5 1009.649 L 973.5 1018.309 L 938.5 1038.516 L 923.5 1029.856 Z " fill="rgb(128,128,128)"/><path d=" M 938.5 1041.403 L 938.5 1038.516 L 923.5 1029.856 L 923.5 1032.743 L 938.5 1041.403 Z " fill="rgb(75,75,75)"/><path d=" M 973.5 1018.309 L 973.5 1021.196 L 938.5 1041.403 L 938.5 1038.516 L 973.5 1018.309 Z " fill="rgb(102,102,102)"/><path d=" M 926 1034.186 L 926 1039.96 L 938.5 1047.177 L 938.5 1041.403 L 926 1034.186 Z " fill="rgb(51,51,51)"/><path d=" M 938.5 1047.177 L 971 1028.413 L 971 1022.639 L 938.5 1041.403 L 938.5 1047.177 Z " fill="rgb(80,80,80)"/><path d=" M 943.5 1050.063 L 943.5 1041.403 L 966 1028.413 L 966 1037.073 L 943.5 1050.063 Z " fill="rgb(80,80,80)"/><path d=" M 943.5 1055.837 L 943.5 1050.063 L 966 1037.073 L 971 1039.96 L 943.5 1055.837 Z " fill="rgb(240,194,178)"/><path d=" M 971 1034.186 L 966 1031.3 L 966 1037.073 L 971 1039.96 L 971 1034.186 Z " fill="rgb(206,154,137)"/><path d=" M 943.5 1050.063 L 948.5 1047.177 L 943.5 1044.29 L 938.5 1047.177 L 943.5 1050.063 Z " fill="rgb(240,194,178)"/><path d=" M 943.5 1055.837 L 948.5 1052.95 L 948.5 1047.177 L 943.5 1050.063 L 943.5 1055.837 Z " fill="rgb(238,174,145)"/><path d=" M 936 1045.733 L 938.5 1044.29 L 938.5 1047.177 L 936 1045.733 Z " fill="rgb(238,174,145)"/><path d=" M 921 1037.073 L 923.5 1035.63 L 938.5 1044.29 L 936 1045.733 L 921 1037.073 Z " fill="rgb(240,194,178)"/><path d=" M 741 985.112 L 756 976.451 L 756 993.772 L 741 985.112 Z " fill="rgb(240,194,178)"/><path d=" M 996 993.772 L 1011 985.112 L 996 976.451 L 996 993.772 Z " fill="rgb(240,194,178)"/></g></svg>